<svg viewBox="0 0 154 222" fill="none" xmlns="http://www.w3.org/2000/svg">
  <path
      opacity="0.30"
      d="M0.5 1V42L35 78M35 78L54 115.5M35 78L39 27.5M54 115.5L60 157L96 171.5M54 115.5L72.5 23M54 115.5L115.5 57.5M54 115.5L126.5 132.5M96 171.5L102 189M96 171.5L126.5 132.5M102 189L132.5 212.5L153 221M102 189L153 194.5M39 27.5L11.5 1M39 27.5L72.5 23M72.5 23L99.5 1M115.5 57.5L130 60.5M115.5 57.5V1M130 60.5L126.5 132.5M130 60.5L153 96M130 60.5H153M126.5 132.5L153 171.5M130 1L153 23"
      stroke="var(--text-2)"
  />
</svg>