<svg width="32" height="20" viewBox="0 0 32 20" fill="none" xmlns="http://www.w3.org/2000/svg">
<path fill-rule="evenodd" clip-rule="evenodd" d="M11.2377 19.1531C11.0501 18.889 11.0021 18.5504 11.1088 18.2446L11.1512 18.1231L0.931386 11.7921C0.637077 11.6098 0.458008 11.2882 0.458008 10.942V8.818C0.458008 8.47234 0.636514 8.1512 0.930074 7.96871L8.25607 3.41471C8.70257 3.13716 9.28774 3.25274 9.59518 3.6792L10.7112 5.2272C10.8743 5.45342 10.9355 5.73746 10.8801 6.01078C10.8246 6.28409 10.6576 6.52184 10.4192 6.66664L5.1251 9.88297L12.4603 14.3704L17.1748 0.856608C17.3149 0.455027 17.6936 0.186001 18.119 0.186001H20.333C20.6569 0.186001 20.9607 0.342876 21.1482 0.606946C21.3358 0.871017 21.3838 1.20957 21.2771 1.51539L21.2357 1.63432L24.1473 3.43236L31.4553 7.96836C31.7492 8.15077 31.928 8.47211 31.928 8.818V10.942C31.928 11.2877 31.7494 11.6088 31.4559 11.7913L24.1299 16.3453C23.6834 16.6228 23.0982 16.5073 22.7908 16.0808L21.6748 14.5328C21.5117 14.3066 21.4505 14.0225 21.5059 13.7492C21.5613 13.4759 21.7284 13.2382 21.9667 13.0934L27.2609 9.87703L19.9256 5.38957L15.2111 18.9034C15.0711 19.305 14.6923 19.574 14.267 19.574H12.053C11.7291 19.574 11.4252 19.4171 11.2377 19.1531Z" fill="currentColor"/>
</svg>
