<svg class="line-left" viewBox="0 0 804 855" fill="none" xmlns="http://www.w3.org/2000/svg">
<path fill-rule="evenodd" clip-rule="evenodd" d="M503.406 807.008C504.556 808.562 506.748 808.888 508.302 807.737L516.615 801.578C518.168 800.427 518.494 798.235 517.343 796.682V796.682C516.192 795.129 514.001 794.803 512.447 795.953L504.134 802.113C502.581 803.263 502.255 805.455 503.406 807.008V807.008ZM559.156 765.702C560.306 767.255 562.498 767.582 564.051 766.431L572.364 760.272C573.918 759.121 574.244 756.929 573.093 755.376V755.376C571.942 753.823 569.75 753.496 568.197 754.647L559.884 760.806C558.331 761.957 558.005 764.149 559.156 765.702V765.702ZM614.905 724.396C616.056 725.949 618.248 726.275 619.801 725.125L628.114 718.965C629.667 717.815 629.994 715.623 628.843 714.069V714.069C627.692 712.516 625.5 712.19 623.947 713.341L615.634 719.5C614.081 720.651 613.755 722.843 614.905 724.396V724.396ZM670.655 683.09C671.806 684.643 673.998 684.969 675.551 683.818L683.864 677.659C685.417 676.508 685.743 674.316 684.593 672.763V672.763C683.442 671.21 681.25 670.884 679.697 672.035L671.384 678.194C669.831 679.345 669.504 681.537 670.655 683.09V683.09ZM726.405 641.784C727.556 643.337 729.748 643.663 731.301 642.512L739.614 636.353C741.167 635.202 741.493 633.01 740.342 631.457V631.457C739.192 629.904 737 629.578 735.447 630.728L727.134 636.888C725.58 638.038 725.254 640.23 726.405 641.784V641.784ZM16.2669 11.5586C17.255 9.89729 16.7093 7.74945 15.048 6.76129L5.55744 1.11629C3.89612 0.128128 1.74828 0.673836 0.760121 2.33516V2.33516C-0.22804 3.99649 0.31767 6.14433 1.979 7.13249L11.4695 12.7775C13.1309 13.7656 15.2787 13.2199 16.2669 11.5586V11.5586ZM78.2938 48.4524C79.282 46.7911 78.7363 44.6432 77.075 43.6551L67.5844 38.0101C65.9231 37.0219 63.7753 37.5676 62.7871 39.229V39.229C61.7989 40.8903 62.3446 43.0381 64.006 44.0263L73.4965 49.6713C75.1578 50.6595 77.3057 50.1137 78.2938 48.4524V48.4524ZM140.321 85.3462C141.309 83.6849 140.763 81.5371 139.102 80.5489L129.611 74.9039C127.95 73.9157 125.802 74.4614 124.814 76.1228V76.1228C123.826 77.7841 124.372 79.9319 126.033 80.9201L135.523 86.5651C137.185 87.5533 139.333 87.0076 140.321 85.3462V85.3462ZM202.348 122.24C203.336 120.579 202.79 118.431 201.129 117.443L191.638 111.798C189.977 110.81 187.829 111.355 186.841 113.017V113.017C185.853 114.678 186.399 116.826 188.06 117.814L197.55 123.459C199.212 124.447 201.36 123.901 202.348 122.24V122.24ZM264.375 159.134C265.363 157.473 264.817 155.325 263.156 154.337L253.665 148.692C252.004 147.703 249.856 148.249 248.868 149.91V149.91C247.88 151.572 248.426 153.72 250.087 154.708L259.577 160.353C261.239 161.341 263.387 160.795 264.375 159.134V159.134ZM782.122 595.221C783.672 596.376 785.87 596.06 786.971 594.471C789.536 590.771 791.828 586.94 793.849 583.005C794.732 581.286 793.977 579.197 792.228 578.374V578.374C790.479 577.55 788.4 578.304 787.512 580.021C785.694 583.54 783.642 586.969 781.355 590.285C780.258 591.877 780.572 594.066 782.122 595.221V595.221ZM326.402 196.028C327.39 194.366 326.844 192.219 325.183 191.23L315.692 185.585C314.031 184.597 311.883 185.143 310.895 186.804V186.804C309.907 188.466 310.453 190.613 312.114 191.602L321.604 197.247C323.266 198.235 325.414 197.689 326.402 196.028V196.028ZM388.429 232.921C389.417 231.26 388.871 229.112 387.21 228.124L377.719 222.479C376.058 221.491 373.91 222.037 372.922 223.698V223.698C371.934 225.359 372.479 227.507 374.141 228.495L383.631 234.14C385.293 235.129 387.44 234.583 388.429 232.921V232.921ZM450.456 269.815C451.444 268.154 450.898 266.006 449.237 265.018L439.746 259.373C438.085 258.385 435.937 258.931 434.949 260.592V260.592C433.961 262.253 434.507 264.401 436.168 265.389L445.658 271.034C447.32 272.022 449.468 271.477 450.456 269.815V269.815ZM512.483 306.709C513.471 305.048 512.925 302.9 511.264 301.912L501.773 296.267C500.112 295.279 497.964 295.824 496.976 297.486V297.486C495.988 299.147 496.533 301.295 498.195 302.283L507.685 307.928C509.347 308.916 511.495 308.37 512.483 306.709V306.709ZM574.51 343.603C575.498 341.942 574.952 339.794 573.291 338.806L563.8 333.161C562.139 332.172 559.991 332.718 559.003 334.38V334.38C558.015 336.041 558.56 338.189 560.222 339.177L569.712 344.822C571.374 345.81 573.521 345.264 574.51 343.603V343.603ZM636.537 380.497C637.525 378.835 636.979 376.688 635.318 375.699L625.827 370.054C624.166 369.066 622.018 369.612 621.03 371.273V371.273C620.042 372.935 620.587 375.082 622.249 376.071L631.739 381.716C633.401 382.704 635.548 382.158 636.537 380.497V380.497ZM800.617 520.777C802.529 520.493 803.854 518.712 803.507 516.81C802.707 512.435 801.627 508.105 800.269 503.85C799.681 502.009 797.672 501.061 795.852 501.711V501.711C794.031 502.361 793.088 504.361 793.672 506.204C794.881 510.025 795.851 513.912 796.578 517.84C796.931 519.74 798.705 521.061 800.617 520.777V520.777ZM698.564 417.391C699.552 415.729 699.006 413.581 697.345 412.593L687.854 406.948C686.193 405.96 684.045 406.506 683.057 408.167V408.167C682.069 409.828 682.614 411.976 684.276 412.964L693.766 418.609C695.428 419.598 697.575 419.052 698.564 417.391V417.391ZM754.626 446.665L749.881 443.842C748.22 442.854 746.072 443.4 745.084 445.061V445.061C744.096 446.722 744.641 448.87 746.303 449.858L751.048 452.681C752.79 453.717 754.483 454.795 756.129 455.912C757.728 456.998 759.915 456.664 761.057 455.105V455.105C762.198 453.545 761.863 451.35 760.266 450.26C758.44 449.014 756.56 447.815 754.626 446.665Z" fill="var(--primary)"/>
<path fill-rule="evenodd" clip-rule="evenodd" d="M471 814C479.837 814 487 821.163 487 830C487 838.837 479.837 846 471 846C462.163 846 455 838.837 455 830C455 821.163 462.163 814 471 814ZM471 807C483.703 807 494 817.297 494 830C494 842.703 483.703 853 471 853C458.297 853 448 842.703 448 830C448 817.297 458.297 807 471 807Z" fill="var(--primary)"/>
</svg>
