<svg height="1.5em" class="logo" aria-label="crinkles" viewBox="0 0 329 93" fill="none" xmlns="http://www.w3.org/2000/svg">
<path d="M21.7865 90.3452C15.5145 90.3452 10.4587 88.5925 6.61905 85.087C2.83759 81.5178 0.682442 76.8333 0.153585 71.0333C-0.317155 65.8707 0.294221 61.3455 1.98771 57.4576C3.6812 53.5698 6.06406 50.5742 9.13628 48.4709C12.2085 46.3676 15.5366 45.316 19.1206 45.316C22.6406 45.316 25.4565 46.3676 27.5683 48.4709C29.7382 50.5105 30.9714 53.1555 31.2678 56.406C31.5119 59.0829 31.1102 61.3455 30.0628 63.1938C29.0793 65.0422 27.6276 65.9663 25.7076 65.9663C24.4916 65.9663 23.4734 65.6795 22.6531 65.1059C21.8968 64.5323 21.4722 63.7356 21.3792 62.7158C21.3385 62.2697 21.356 61.7598 21.4317 61.1862C21.5074 60.6125 21.5656 60.1983 21.6064 59.9433C21.8392 58.9873 21.9178 58.095 21.8423 57.2664C21.7667 56.4379 21.4846 55.8005 20.9959 55.3544C20.5712 54.9082 19.9749 54.6851 19.2069 54.6851C17.7349 54.6851 16.4199 55.3544 15.262 56.6928C14.0982 57.9675 13.234 59.7202 12.6694 61.951C12.1048 64.1817 11.9446 66.6356 12.1887 69.3125C12.8628 76.7058 16.4319 80.4025 22.8959 80.4025C25.5199 80.4025 28.2574 79.542 31.1085 77.8212C34.0178 76.0366 36.7846 73.3915 39.409 69.8861C40.0956 68.9938 40.9189 68.5476 41.8789 68.5476C42.7109 68.5476 43.3858 68.93 43.9035 69.6949C44.4853 70.4597 44.8372 71.5113 44.9592 72.8498C45.1801 75.2717 44.7522 77.2475 43.6757 78.7772C41.0048 82.4739 37.6503 85.342 33.6123 87.3815C29.6324 89.3573 25.6905 90.3452 21.7865 90.3452Z" fill="var(--text-0)"/>
<path d="M45.6103 90.3452C43.1783 90.3452 41.334 89.0705 40.0776 86.5211C38.8851 83.9716 38.0331 79.8926 37.5217 74.2838C36.7662 65.9982 37.2325 58.1269 38.9205 50.6698C39.328 48.8215 40.1339 47.483 41.3384 46.6545C42.601 45.7622 44.4164 45.316 46.7844 45.316C48.0644 45.316 48.9749 45.4753 49.5159 45.794C50.057 46.1127 50.3682 46.7182 50.4496 47.6105C50.5426 48.6303 50.2718 50.9247 49.6372 54.4939C49.2297 57.0434 48.9211 59.2741 48.7114 61.1862C48.5018 63.0982 48.3968 65.4565 48.3965 68.2608C50.0087 62.7796 51.9699 58.3181 54.2801 54.8763C56.5903 51.4346 58.9265 48.9808 61.2889 47.5149C63.7152 46.049 65.9844 45.316 68.0964 45.316C72.2564 45.316 74.5252 47.3874 74.903 51.5302C74.9785 52.3588 74.8736 54.3665 74.5882 57.5532C74.3086 60.1027 74.1979 61.6961 74.2561 62.3334C74.4595 64.5642 75.3612 65.6795 76.9612 65.6795C78.7532 65.6795 80.9293 64.2773 83.4896 61.473C84.246 60.6444 85.0723 60.2301 85.9683 60.2301C86.8003 60.2301 87.4751 60.6126 87.9929 61.3774C88.5688 62.0785 88.912 63.0345 89.0224 64.2455C89.2374 66.6037 88.766 68.452 87.608 69.7905C85.9846 71.6388 84.0178 73.2322 81.7079 74.5706C79.4561 75.8454 76.9862 76.4827 74.2982 76.4827C70.9062 76.4827 68.2358 75.6223 66.2869 73.9014C64.4019 72.1806 63.3258 69.8542 63.0585 66.9224C62.9713 65.9663 62.9801 65.0103 63.085 64.0543C63.0967 62.7796 63.0823 61.9191 63.0416 61.473C62.9486 60.4532 62.5501 59.9433 61.8461 59.9433C60.8861 59.9433 59.7049 61.0268 58.3025 63.1938C56.9583 65.2971 55.678 68.1015 54.4616 71.6069C53.2453 75.1124 52.3343 78.8091 51.7289 82.6969C51.298 85.6925 50.652 87.732 49.7908 88.8155C48.9878 89.8353 47.5943 90.3452 45.6103 90.3452Z" fill="var(--text-0)"/>
<path d="M90.3765 39.0062C87.6885 39.0062 85.6173 38.4007 84.1629 37.1897C82.7026 35.915 81.8708 34.1623 81.6674 31.9315C81.464 29.7008 82.1595 27.8525 83.7538 26.3865C85.4063 24.8569 87.5446 24.0921 90.1686 24.0921C92.5366 24.0921 94.5089 24.6657 96.0855 25.8129C97.6621 26.9602 98.5463 28.5854 98.7381 30.6887C98.9706 33.2381 98.3245 35.2777 96.8 36.8073C95.2697 38.2732 93.1285 39.0062 90.3765 39.0062ZM94.2898 90.3452C90.1298 90.3452 86.9561 88.8793 84.7688 85.9474C82.6454 83.0156 81.3629 79.1277 80.9212 74.2838C80.6597 71.4157 80.6775 67.7509 80.9747 63.2894C81.3301 58.7642 81.9065 54.5577 82.704 50.6698C83.0941 48.6303 83.7342 47.2281 84.6245 46.4632C85.5147 45.6984 87.0159 45.316 89.1279 45.316C92.3919 45.316 94.1226 46.3995 94.3202 48.5665C94.4655 50.1599 94.1946 53.8566 93.5075 59.6565C92.6107 66.6674 92.2757 71.4157 92.5024 73.9014C92.6767 75.8135 93.0664 77.2794 93.6714 78.2992C94.2763 79.319 95.1868 79.8288 96.4028 79.8288C97.5548 79.8288 98.9222 79.0321 100.505 77.4387C102.088 75.8454 104.162 73.3278 106.728 69.8861C107.415 68.9938 108.238 68.5476 109.198 68.5476C110.03 68.5476 110.705 68.93 111.223 69.6949C111.805 70.4597 112.156 71.5113 112.278 72.8498C112.511 75.3992 112.083 77.375 110.995 78.7772C105.362 86.4892 99.7938 90.3452 94.2898 90.3452Z" fill="var(--text-0)"/>
<path d="M112.923 90.3452C110.491 90.3452 108.647 89.0705 107.39 86.5211C106.198 83.9716 105.346 79.8926 104.834 74.2838C104.079 65.9982 104.545 58.1269 106.233 50.6698C106.64 48.8215 107.446 47.483 108.651 46.6545C109.914 45.7622 111.729 45.316 114.097 45.316C115.377 45.316 116.287 45.4753 116.828 45.794C117.369 46.1127 117.681 46.7182 117.762 47.6105C117.855 48.6303 117.584 50.9247 116.95 54.4939C116.542 57.0434 116.234 59.2741 116.024 61.1862C115.814 63.0982 115.709 65.4565 115.709 68.2608C117.321 62.7796 119.282 58.3181 121.593 54.8763C123.903 51.4346 126.239 48.9808 128.601 47.5149C131.028 46.049 133.297 45.316 135.409 45.316C139.569 45.316 141.838 47.3874 142.215 51.5302C142.442 54.0159 142.148 58.5093 141.333 65.0103C140.622 70.5553 140.348 74.2201 140.511 76.0047C140.744 78.5541 141.788 79.8288 143.644 79.8288C144.924 79.8288 146.358 79.064 147.947 77.5343C149.593 75.941 151.729 73.3915 154.353 69.8861C155.04 68.9938 155.863 68.5476 156.823 68.5476C157.655 68.5476 158.33 68.93 158.848 69.6949C159.43 70.4597 159.781 71.5113 159.903 72.8498C160.136 75.3992 159.708 77.375 158.62 78.7772C156.176 82.1552 153.453 84.9277 150.45 87.0947C147.512 89.2617 144.027 90.3452 139.995 90.3452C136.731 90.3452 134.182 89.421 132.35 87.5727C130.512 85.6606 129.43 82.92 129.104 79.3508C128.942 77.5662 129.099 74.3794 129.577 69.7905C130.042 65.7751 130.206 63.0026 130.066 61.473C129.973 60.4532 129.575 59.9433 128.871 59.9433C128.039 59.9433 126.953 61.0268 125.615 63.1938C124.335 65.2971 123.054 68.1015 121.774 71.6069C120.558 75.1124 119.647 78.8091 119.041 82.6969C118.611 85.6925 117.964 87.732 117.103 88.8155C116.3 89.8353 114.907 90.3452 112.923 90.3452Z" fill="var(--text-0)"/>
<path d="M207.232 68.5476C208.064 68.5476 208.739 68.93 209.257 69.6949C209.839 70.4597 210.19 71.5113 210.312 72.8498C210.545 75.3992 210.117 77.375 209.029 78.7772C206.469 82.2826 203.812 85.087 201.06 87.1903C198.308 89.2936 194.916 90.3452 190.884 90.3452C185.956 90.3452 181.86 88.943 178.596 86.1386C175.332 83.3343 173.489 79.6058 173.064 74.9531C172.838 72.4674 173.955 70.6828 176.416 69.5993C179.122 68.3883 181.021 67.1136 182.115 65.7751C183.204 64.3729 183.658 62.684 183.477 60.7082C183.373 59.5609 183.038 58.7005 182.474 58.1269C181.974 57.5532 181.372 57.2664 180.668 57.2664C178.94 57.2664 177.133 58.5093 175.247 60.995C173.426 63.4806 171.8 66.6993 170.368 70.6509C168.93 74.5388 167.889 78.5541 167.242 82.6969C166.812 85.6925 166.165 87.732 165.304 88.8155C164.501 89.8353 163.108 90.3452 161.124 90.3452C159.14 90.3452 157.604 89.6441 156.516 88.2419C155.486 86.776 154.675 84.5453 154.082 81.5497C153.489 78.5541 152.928 74.1564 152.399 68.3564C151.504 58.5411 151.563 48.3116 152.576 37.6677C153.654 27.0239 155.816 18.1009 159.064 10.8988C162.369 3.63293 166.774 0 172.278 0C175.222 0 177.706 1.27471 179.73 3.82414C181.813 6.30982 183.038 9.56034 183.404 13.5757C183.991 20.013 182.713 26.7052 179.57 33.6524C176.422 40.5358 171.013 48.5984 163.344 57.8401C163.454 61.1543 163.669 64.5641 163.989 68.0696C166.334 60.1027 169.328 54.3346 172.971 50.7654C176.607 47.1325 180.154 45.316 183.61 45.316C186.81 45.316 189.469 46.3995 191.586 48.5665C193.768 50.7335 195.004 53.4104 195.294 56.5972C195.614 60.1027 195.012 63.3213 193.487 66.2532C191.962 69.185 189.129 71.7981 184.986 74.0926C185.399 75.8135 186.295 77.2157 187.673 78.2992C189.11 79.319 190.757 79.8288 192.613 79.8288C194.597 79.8288 196.447 79.064 198.164 77.5343C199.88 76.0047 202.08 73.4553 204.762 69.8861C205.449 68.9938 206.272 68.5476 207.232 68.5476ZM171.125 9.46474C169.973 9.46474 168.844 11.1219 167.738 14.4361C166.627 17.6866 165.654 22.1163 164.822 27.725C164.047 33.27 163.544 39.3249 163.31 45.8896C166.854 41.2369 169.656 36.1699 171.716 30.6887C173.84 25.2074 174.699 20.2361 174.292 15.7746C174.106 13.735 173.74 12.1735 173.193 11.09C172.646 10.0065 171.957 9.46474 171.125 9.46474Z" fill="var(--text-0)"/>
<path d="M238.566 68.5476C239.398 68.5476 240.073 68.93 240.59 69.6949C241.172 70.4597 241.524 71.5113 241.646 72.8498C241.878 75.3992 241.451 77.375 240.362 78.7772C237.918 82.1552 235.163 84.9277 232.097 87.0947C229.094 89.2617 225.545 90.3452 221.449 90.3452C215.817 90.3452 211.393 87.7958 208.176 82.6969C205.023 77.5981 203.077 71.0014 202.339 62.907C201.63 55.1313 201.815 46.272 202.892 36.3293C204.033 26.3865 206.231 17.846 209.484 10.7076C212.801 3.56919 217.179 0 222.619 0C225.691 0 228.222 1.43405 230.212 4.30215C232.259 7.10652 233.524 11.1537 234.007 16.4438C234.698 24.0283 233.388 32.8238 230.077 42.8303C226.765 52.8368 221.941 62.7477 215.604 72.563C216.29 75.1761 217.198 77.0563 218.326 78.2036C219.449 79.2871 220.842 79.8288 222.506 79.8288C225.13 79.8288 227.368 79.0959 229.218 77.63C231.062 76.1003 233.355 73.519 236.096 69.8861C236.782 68.9938 237.606 68.5476 238.566 68.5476ZM221.37 9.46474C219.898 9.46474 218.476 12.1098 217.102 17.3998C215.728 22.6899 214.695 29.2546 214.002 37.0941C213.308 44.9336 213.226 52.4544 213.755 59.6565C217.619 52.1994 220.555 44.7424 222.563 37.2853C224.565 29.7645 225.285 22.9129 224.721 16.7306C224.279 11.8867 223.162 9.46474 221.37 9.46474Z" fill="var(--text-0)"/>
<path d="M276.31 68.5476C277.142 68.5476 277.817 68.93 278.335 69.6949C278.917 70.4597 279.268 71.5113 279.39 72.8498C279.623 75.3992 279.195 77.375 278.107 78.7772C276 81.6453 272.882 84.2903 268.751 86.7123C264.683 89.1342 260.186 90.3452 255.258 90.3452C248.538 90.3452 243.156 88.5287 239.113 84.8958C235.07 81.2629 232.76 76.2915 232.185 69.9817C231.784 65.5839 232.34 61.5048 233.853 57.7444C235.36 53.9203 237.644 50.8929 240.705 48.6621C243.83 46.4314 247.472 45.316 251.632 45.316C255.344 45.316 258.422 46.4314 260.865 48.6621C263.303 50.8291 264.693 53.7928 265.036 57.5532C265.437 61.951 264.182 65.7433 261.273 68.93C258.422 72.0531 253.304 74.5388 245.921 76.3871C247.788 79.3189 250.962 80.7849 255.442 80.7849C258.322 80.7849 261.496 79.797 264.964 77.8212C268.49 75.7816 271.449 73.1366 273.84 69.8861C274.527 68.9938 275.35 68.5476 276.31 68.5476ZM250.854 54.6851C248.486 54.6851 246.595 56.0555 245.181 58.7961C243.831 61.5367 243.333 64.851 243.688 68.7388L243.705 68.93C247.4 68.0377 250.254 66.6993 252.267 64.9147C254.28 63.1301 255.179 61.0587 254.964 58.7005C254.854 57.4895 254.415 56.5335 253.647 55.8324C252.937 55.0675 252.006 54.6851 250.854 54.6851Z" fill="var(--text-0)"/>
<path d="M291.217 92.4485C287.889 92.4485 285.259 91.6837 283.328 90.154C281.46 88.6243 280.439 86.9035 280.265 84.9914C280.114 83.3343 280.591 81.9002 281.697 80.6893C282.802 79.4783 284.539 78.8728 286.907 78.8728C287.739 78.8728 288.708 78.9684 289.813 79.1596C290.977 79.2871 291.85 79.3827 292.431 79.4464C292.216 77.7893 291.69 76.2278 290.852 74.7618C290.079 73.2959 289.119 71.8938 287.973 70.5553C286.821 69.1531 285.75 67.9421 284.762 66.9224C283.12 70.6828 281.421 73.8058 279.664 76.2915C277.97 78.7772 276.073 81.1354 273.973 83.3662C272.926 84.5134 271.762 85.087 270.482 85.087C269.458 85.087 268.594 84.7365 267.89 84.0354C267.18 83.2706 266.776 82.3464 266.677 81.2629C266.561 79.9882 266.901 78.8091 267.699 77.7256L268.807 76.1959C271.932 71.8619 274.262 68.2927 275.799 65.4883C276.782 63.64 277.734 61.4411 278.653 58.8917C279.637 56.3423 280.888 52.8687 282.407 48.4709C283.367 45.6666 285.767 44.2644 289.607 44.2644C291.399 44.2644 292.662 44.4237 293.395 44.7424C294.128 45.0611 294.527 45.571 294.591 46.272C294.625 46.6545 294.553 47.2599 294.372 48.0885C294.192 48.9171 293.915 49.7456 293.543 50.5742C292.6 52.8687 292.201 54.8126 292.347 56.406C292.434 57.362 292.85 58.4137 293.594 59.5609C294.403 60.7082 295.59 62.1422 297.155 63.8631C299.447 66.54 301.192 68.8344 302.39 70.7465C303.647 72.5948 304.377 74.6344 304.58 76.8651C304.824 79.542 304.417 82.0914 303.358 84.5134C302.357 86.8716 300.803 88.7837 298.697 90.2496C296.59 91.7155 294.097 92.4485 291.217 92.4485Z" fill="var(--text-0)"/>
<path d="M320.481 90.3452C317.665 90.3452 315.451 89.5804 313.84 88.0507C312.292 86.5211 311.405 84.5134 311.178 82.0277C310.917 79.1596 311.508 76.8651 312.951 75.1443C314.458 73.4234 316.683 72.563 319.627 72.563C322.443 72.563 324.619 73.2641 326.155 74.6662C327.749 76.0047 328.668 78.0124 328.912 80.6893C329.18 83.6211 328.563 85.9793 327.061 87.7639C325.554 89.4848 323.361 90.3452 320.481 90.3452Z" fill="var(--primary)"/>
</svg>
