<svg height="1.5em" class="logo" viewBox="0 0 44 48" fill="none" xmlns="http://www.w3.org/2000/svg">
<g clip-path="url(#clip0_3998_7)">
<path fill-rule="evenodd" clip-rule="evenodd" d="M13.0179 41.3999C12.423 41.3997 11.8416 41.3014 11.2943 41.1168C11.2866 41.1142 11.2789 41.1116 11.2712 41.1089C9.95408 40.658 8.83621 39.7052 8.19149 38.4175L10.3214 37.3511C10.6709 38.0431 11.2809 38.5877 12.0466 38.8443L12.0512 38.8459C12.3682 38.9515 12.6909 39.0013 13.0092 39.0002M10 32.1594V35.9999C10 36.4803 10.1136 36.938 10.3189 37.3463L10.3214 37.3511L8.19149 38.4175L8.19099 38.4165C7.80858 37.6523 7.62003 36.8238 7.62008 35.9999C7.62023 34.8559 7.98424 33.7166 8.69659 32.7647M28.8567 18.8574L32.9194 13.4404C33.5493 12.6006 33.5602 11.4488 32.9464 10.5972C32.3326 9.74556 31.2365 9.39171 30.2405 9.72369L22.5644 12.2824L14.5178 14.9646L12.6512 15.5868L12.2409 15.7236C11.2609 16.0502 10.5999 16.9673 10.5999 18.0003V18.4311V18.4328V20.2036V20.2053V29.2199L17.1958 20.4055C17.2658 20.312 17.3382 20.2209 17.4129 20.1323C18.5482 18.7858 20.2235 18.0013 21.9963 18.0004C22.6785 18 23.3463 18.1156 23.9746 18.3347C24.3347 18.4603 24.682 18.6199 25.0115 18.8111C25.0416 18.8286 25.0716 18.8464 25.1015 18.8644C25.1588 18.899 25.2155 18.9346 25.2717 18.9711C25.8535 19.3496 26.3723 19.8308 26.7995 20.4003L27.2495 21.0003L28.8567 18.8574ZM11.3993 41.7825C11.3001 41.7549 11.2012 41.7248 11.1025 41.6919C9.5713 41.1815 8.35155 40.0945 7.65207 38.7205C7.64762 38.7117 7.6432 38.703 7.63879 38.6942C7.22749 37.8764 7 36.9581 7 35.9999V18.0003C7 15.4178 8.65254 13.125 11.1025 12.3084L29.1021 6.30851C31.2807 5.58231 33.6511 6.16882 35.2377 7.75313C35.4643 7.97946 35.675 8.22616 35.8668 8.49229C37.2095 10.3553 37.3565 12.7927 36.3173 14.7795C36.1688 15.0633 35.9962 15.3379 35.7994 15.6004L29.4994 24.0003L35.7993 32.4C37.1628 34.2181 37.3822 36.6505 36.3658 38.6832C35.3495 40.7158 33.272 41.9998 30.9994 41.9998M33.2494 24.0003L38.1993 17.4004C40.2662 14.6446 40.5559 10.9933 39.054 7.98407C38.8394 7.55417 38.5883 7.13737 38.3005 6.73816C35.9986 3.54448 31.8882 2.21754 28.1535 3.46246L10.1539 9.46232C6.47883 10.6873 4 14.1265 4 18.0003V35.9999C4 36.0055 4.00001 36.0112 4.00002 36.0168C4.00658 39.5606 6.08746 42.7383 9.25968 44.1861C9.5489 44.3181 9.84721 44.4357 10.1539 44.538C10.2719 44.5773 10.3904 44.6141 10.5092 44.6483C11.3645 44.8949 12.2362 45.0094 13.0982 44.9998H30.9994C34.4083 44.9998 37.5246 43.0738 39.0491 40.0248C40.5736 36.9758 40.2446 33.3272 38.1993 30.6L33.2494 24.0003ZM36.9994 24.0003L40.5993 19.2004C43.7488 15.0011 43.8034 9.24229 40.7343 4.98403C37.6651 0.725774 32.1845 -1.04349 27.2048 0.616405L9.20517 6.61627C4.30512 8.24962 1 12.8352 1 18.0003V35.9999C1 41.165 4.30513 45.7507 9.20517 47.384C10.4889 47.8119 11.8092 48.0124 13.1138 47.9998H30.9994C35.5446 47.9998 39.6997 45.4318 41.7324 41.3665C43.7651 37.3011 43.3264 32.4362 40.5993 28.8L36.9994 24.0003ZM18.6997 38.3999H30.9994C31.9084 38.3999 32.7394 37.8863 33.146 37.0732C33.5525 36.2602 33.4648 35.2872 32.9193 34.56L32.1993 33.5999M32.1993 33.5999L32.9193 34.56L32.1993 33.5999ZM32.1993 33.5999L29.6495 30.2002L29.647 30.1968L27.2495 27.0002L22.2997 33.5999L22.298 33.6021L18.6997 38.3999M24.6997 35.3999H29.7993L27.2495 32.0002L24.6997 35.3999ZM26.9075 16.4563L29.3669 13.1772L23.5131 15.1284C24.2254 15.25 24.9169 15.4563 25.5734 15.7404C25.9451 15.9012 26.3056 16.0869 26.6523 16.2963C26.7382 16.3482 26.8233 16.4015 26.9075 16.4563ZM14.9284 18.4328C15.0988 18.2164 15.2781 18.009 15.4658 17.8109L13.5999 18.4328V20.2036L14.7939 18.6081C14.8381 18.549 14.8829 18.4906 14.9284 18.4328ZM13.024 38.3999H13.02C12.7512 38.3999 12.4892 38.355 12.2429 38.2707C11.657 38.0701 11.1604 37.6464 10.874 37.0744C10.7038 36.7344 10.62 36.3663 10.6201 35.9999C10.6201 35.4909 10.782 34.9851 11.0985 34.5621L20.0781 22.5623C20.5309 21.9572 21.2424 21.6007 21.9983 21.6003C22.3166 21.6001 22.6271 21.6631 22.9138 21.7812C23.3079 21.9436 23.657 22.2102 23.9195 22.5603L24.9995 24.0003L14.9198 37.4399C14.4629 38.0491 13.7564 38.3924 13.024 38.3999Z" fill="url(#paint0_linear_3998_7)"/>
<path fill-rule="evenodd" clip-rule="evenodd" d="M22.9138 21.7813C22.6271 21.6631 22.3166 21.6001 21.9983 21.6003C21.2424 21.6007 20.5309 21.9572 20.0781 22.5624L11.0985 34.5621C10.782 34.9851 10.6201 35.4909 10.6201 36C10.62 36.3664 10.7038 36.7344 10.874 37.0744C11.1604 37.6465 11.657 38.0701 12.2429 38.2707C12.4892 38.355 12.7512 38.3999 13.02 38.3999H13.024C13.7564 38.3925 14.4629 38.0492 14.9198 37.4399L24.9995 24.0003L23.9195 22.5603C23.657 22.2103 23.3079 21.9437 22.9138 21.7813ZM18.6997 38.3999H30.9994C31.9084 38.3999 32.7394 37.8863 33.146 37.0733C33.5525 36.2602 33.4648 35.2873 32.9193 34.56L27.2495 27.0002L18.6997 38.3999ZM24.6997 35.3999H29.7993L27.2495 32.0002L24.6997 35.3999ZM35.7993 32.4001C37.1628 34.2181 37.3822 36.6506 36.3658 38.6832C35.3495 40.7159 33.272 41.9999 30.9994 41.9999H13.0645C13.0497 42 13.0349 42.0001 13.02 42.0002C12.3803 42.0024 11.7332 41.9022 11.1025 41.6919C9.56155 41.1783 8.33604 40.0806 7.63879 38.6943C7.22749 37.8764 7 36.9581 7 36V18.0004C7 15.4178 8.65254 13.1251 11.1025 12.3084L29.1021 6.30854C31.592 5.4786 34.3322 6.36322 35.8668 8.49232C37.4014 10.6214 37.3741 13.5008 35.7994 15.6004L29.4994 24.0003L35.7993 32.4001ZM33.2494 24.0003L38.1993 30.6001C40.2446 33.3272 40.5736 36.9758 39.0491 40.0249C37.5246 43.0739 34.4083 44.9999 30.9994 44.9999H13.0982C12.1165 45.0108 11.1223 44.8608 10.1539 44.538C6.47883 43.313 4 39.8738 4 36V18.0004C4 14.1266 6.47883 10.6874 10.1539 9.46235L28.1535 3.46249C31.8882 2.21757 35.9987 3.54451 38.3005 6.73819C40.6024 9.93187 40.5614 14.251 38.1993 17.4004L33.2494 24.0003ZM32.9194 13.4405C33.5493 12.6006 33.5602 11.4489 32.9464 10.5972C32.3326 9.74559 31.2365 9.39174 30.2405 9.72372L12.2409 15.7236C11.2609 16.0503 10.5999 16.9674 10.5999 18.0004V29.2199L17.1958 20.4055C18.328 18.8926 20.1067 18.0014 21.9963 18.0004C23.1054 17.9998 24.1765 18.3059 25.1015 18.8644C25.7525 19.2576 26.3311 19.7759 26.7995 20.4003L27.2495 21.0004L32.9194 13.4405ZM26.9075 16.4564L29.3669 13.1772L23.5131 15.1285C24.7284 15.3358 25.8831 15.79 26.9075 16.4564ZM13.5999 20.2037L14.7939 18.6081C15.0036 18.3279 15.228 18.0619 15.4658 17.8109L13.5999 18.4329V20.2037Z" fill="black"/>
<path fill-rule="evenodd" clip-rule="evenodd" d="M26.7995 20.4004C25.6657 18.8887 23.886 17.9994 21.9964 18.0004C20.1067 18.0015 18.328 18.8926 17.1958 20.4056L8.21626 32.4053C6.85538 34.2239 6.63814 36.6551 7.65505 38.6861C8.67195 40.7172 10.7486 41.9999 13.02 41.9999H30.9994C33.272 41.9999 35.3495 40.7159 36.3658 38.6832C37.3822 36.6506 37.1628 34.2182 35.7993 32.4001L26.7995 20.4004ZM23.9196 22.5603C23.466 21.9556 22.7542 21.5999 21.9983 21.6003C21.2424 21.6008 20.5309 21.9572 20.0781 22.5624L11.0985 34.5621C10.5542 35.2896 10.4673 36.262 10.874 37.0745C11.2808 37.8869 12.1115 38.4 13.02 38.4H30.9994C31.9084 38.4 32.7394 37.8864 33.146 37.0733C33.5525 36.2603 33.4648 35.2873 32.9193 34.5601L23.9196 22.5603Z" fill="white"/>
<path fill-rule="evenodd" clip-rule="evenodd" d="M35.7994 15.6005C37.3741 13.5009 37.4014 10.6215 35.8668 8.49235C34.3322 6.36325 31.592 5.47863 29.1021 6.30857L11.1025 12.3084C8.65254 13.1251 7 15.4179 7 18.0004V36C7 38.5825 8.65254 40.8753 11.1025 41.692C13.5525 42.5086 16.2502 41.6659 17.7998 39.5999L35.7994 15.6005ZM32.9194 13.4405C33.5493 12.6007 33.5602 11.4489 32.9464 10.5973C32.3326 9.74562 31.2365 9.39177 30.2405 9.72375L12.2409 15.7236C11.2609 16.0503 10.5999 16.9674 10.5999 18.0004V36C10.5999 37.033 11.2609 37.9501 12.2409 38.2768C13.2209 38.6034 14.3 38.2664 14.9198 37.44L32.9194 13.4405Z" fill="white"/>
</g>
<defs>
<linearGradient id="paint0_linear_3998_7" x1="21.9997" y1="48.0004" x2="21.9997" y2="-0.000244141" gradientUnits="userSpaceOnUse">
<stop stop-color="#C73D70"/>
<stop offset="1" stop-color="#FBB828"/>
</linearGradient>
<clipPath id="clip0_3998_7">
<rect width="43.3171" height="47.9993" fill="white" transform="translate(0 0.000732422)"/>
</clipPath>
</defs>
</svg>
