<svg height="1.5em" class="logo" viewBox="0 0 54 60" fill="none" xmlns="http://www.w3.org/2000/svg">
<path fill-rule="evenodd" clip-rule="evenodd" d="M35.3587 6.90003C32.0517 4.64013 27.7293 4.37604 24.16 6.2158L10.7457 13.1299C7.21172 14.9514 5 18.5348 5 22.4389V37.5611C5 41.4652 7.21172 45.0486 10.7457 46.8701L24.1599 53.7842C27.7293 55.624 32.0517 55.3599 35.3587 53.1L44.089 47.134C50.164 42.9826 50.2193 34.2351 44.2548 30C50.2193 25.7649 50.164 17.0174 44.089 12.866L35.3587 6.90003ZM26.9098 11.3093C28.5261 10.4762 30.4834 10.5958 31.981 11.6192L40.7112 17.5851C43.4875 19.4823 43.4875 23.4992 40.7112 25.3963L39.1162 26.4863L21.171 14.2672L26.9098 11.3093ZM10.8937 23.3765C10.8937 19.5216 15.3338 17.2616 18.5668 19.4709L20.8268 21.0154C19.501 22.2657 18.6397 24.028 18.6397 26.0942V33.8956C18.6397 35.9644 19.5037 37.7293 20.8332 38.9803L18.5668 40.5291C15.3338 42.7384 10.8937 40.4784 10.8937 36.6235V23.3765ZM24.5333 26.0942C24.5333 25.0208 25.7707 24.3925 26.6697 25.0094L33.9582 30.0112L30.1178 32.6355L26.6649 34.9836C25.7655 35.5953 24.5333 34.9664 24.5333 33.8956V26.0942ZM21.171 45.7328L33.49 37.3584L39.13 33.5231L40.7112 34.6037C43.4875 36.5008 43.4875 40.5177 40.7112 42.4149L31.981 48.3808C30.4834 49.4042 28.5261 49.5238 26.9098 48.6907L21.171 45.7328Z" fill="var(--text-0)"/>
</svg>
