<svg height="1.4em" class="logo" viewBox="0 0 260 310" fill="none" xmlns="http://www.w3.org/2000/svg">
<path fill-rule="evenodd" clip-rule="evenodd" d="M165 120C155.552 107.402 140.72 99.9915 124.973 100C109.226 100.009 94.4024 107.435 84.9676 120.043L10.1363 220.043C-1.20465 235.199 -3.01497 255.459 5.45942 272.385C13.9338 289.311 31.2398 300 50.1687 300H200C218.939 300 236.252 289.3 244.721 272.361C253.191 255.421 251.363 235.151 240 220L165 120ZM141 138C137.221 132.961 131.288 129.997 124.989 130C118.69 130.003 112.761 132.974 108.987 138.017L34.1558 238.017C29.6194 244.079 28.8952 252.184 32.285 258.954C35.6748 265.724 42.5972 270 50.1687 270H200C207.575 270 214.501 265.72 217.889 258.944C221.276 252.169 220.545 244.06 216 238L141 138Z" fill="var(--primary)"/>
<path fill-rule="evenodd" clip-rule="evenodd" d="M240 80C253.123 62.5029 253.35 38.5074 240.562 20.7645C227.774 3.02154 204.938 -4.35049 184.189 2.56583L34.1886 52.5658C13.7715 59.3715 0 78.4785 0 100V250C0 271.522 13.7715 290.628 34.1886 297.434C54.6057 304.24 77.0871 297.217 90 280L240 80ZM216 62C221.249 55.0012 221.34 45.403 216.225 38.3058C211.109 31.2086 201.975 28.2598 193.675 31.0263L43.6754 81.0263C35.5086 83.7486 30 91.3914 30 100V250C30 258.609 35.5086 266.251 43.6754 268.974C51.8423 271.696 60.8348 268.887 66 262L216 62Z" fill="var(--text-0)"/>
</svg>
