<svg height="1.5em" class="logo" aria-label="crinkels" viewBox="0 0 780 219" fill="none" xmlns="http://www.w3.org/2000/svg">
<path d="M51.4684 214.018C36.5951 214.018 24.621 209.866 15.5462 201.562C6.60993 193.106 1.53995 182.009 0.336241 168.27C-0.735189 156.04 0.753959 145.321 4.80369 136.111C8.85341 126.901 14.5301 119.805 21.8338 114.822C29.1375 109.84 37.0389 107.348 45.538 107.348C53.8853 107.348 60.5537 109.84 65.5433 114.822C70.6714 119.654 73.5728 125.919 74.2474 133.619C74.8029 139.961 73.8307 145.321 71.3307 149.699C68.9824 154.078 65.5318 156.267 60.9787 156.267C58.0951 156.267 55.6832 155.587 53.7429 154.229C51.9544 152.87 50.9543 150.982 50.7427 148.567C50.6501 147.51 50.696 146.302 50.8805 144.943C51.065 143.584 51.2067 142.603 51.3055 141.999C51.866 139.734 52.0602 137.62 51.8883 135.658C51.7163 133.695 51.0528 132.185 49.8979 131.128C48.8946 130.071 47.4824 129.543 45.6612 129.543C42.1705 129.543 39.0464 131.128 36.2888 134.299C33.5179 137.319 31.4534 141.471 30.0951 146.755C28.7369 152.039 28.3355 157.852 28.8911 164.193C30.4255 181.707 38.857 190.464 54.1857 190.464C60.4082 190.464 66.9074 188.426 73.6834 184.35C80.598 180.122 87.1822 173.856 93.436 165.552C95.0721 163.438 97.0284 162.382 99.3049 162.382C101.278 162.382 102.875 163.287 104.096 165.099C105.469 166.911 106.294 169.402 106.572 172.573C107.075 178.31 106.043 182.991 103.477 186.614C97.1109 195.371 89.1311 202.165 79.5377 206.997C70.0827 211.677 60.7263 214.018 51.4684 214.018Z" fill="var(--text-0)"/>
<path d="M107.964 214.018C102.197 214.018 97.8343 210.998 94.8769 204.959C92.0713 198.919 90.0864 189.256 88.9224 175.97C87.2028 156.342 88.3769 137.696 92.4448 120.031C93.4271 115.653 95.35 112.482 98.2134 110.519C101.215 108.405 105.524 107.348 111.14 107.348C114.175 107.348 116.333 107.726 117.613 108.481C118.893 109.236 119.626 110.67 119.811 112.784C120.023 115.2 119.361 120.635 117.825 129.09C116.836 135.129 116.085 140.414 115.571 144.943C115.058 149.473 114.788 155.059 114.763 161.702C118.634 148.718 123.323 138.149 128.832 129.996C134.34 121.843 139.901 116.03 145.516 112.557C151.283 109.085 156.67 107.348 161.679 107.348C171.544 107.348 176.906 112.255 177.766 122.069C177.938 124.032 177.671 128.788 176.967 136.337C176.282 142.376 176.005 146.151 176.138 147.661C176.601 152.945 178.729 155.587 182.523 155.587C186.773 155.587 191.946 152.266 198.041 145.623C199.843 143.66 201.805 142.678 203.93 142.678C205.903 142.678 207.5 143.584 208.721 145.396C210.081 147.057 210.887 149.322 211.138 152.19C211.627 157.777 210.493 162.155 207.736 165.326C203.87 169.704 199.192 173.479 193.702 176.649C188.352 179.669 182.489 181.179 176.115 181.179C168.071 181.179 161.746 179.141 157.139 175.064C152.684 170.988 150.152 165.477 149.544 158.532C149.346 156.267 149.375 154.002 149.632 151.737C149.671 148.718 149.644 146.679 149.551 145.623C149.34 143.207 148.399 141.999 146.73 141.999C144.453 141.999 141.643 144.566 138.298 149.699C135.092 154.681 132.032 161.325 129.117 169.629C126.202 177.933 124.01 186.69 122.54 195.9C121.492 202.996 119.942 207.827 117.891 210.394C115.978 212.81 112.669 214.018 107.964 214.018Z" fill="var(--text-0)"/>
<path d="M214.568 92.4013C208.194 92.4013 203.288 90.9669 199.849 88.0982C196.397 85.0786 194.44 80.9266 193.977 75.6422C193.514 70.3578 195.179 65.9793 198.973 62.5067C202.905 58.8831 207.982 57.0714 214.205 57.0714C219.82 57.0714 224.492 58.4302 228.221 61.1479C231.95 63.8656 234.033 67.7156 234.469 72.698C234.998 78.7373 233.449 83.5688 229.82 87.1924C226.178 90.6649 221.094 92.4013 214.568 92.4013ZM223.402 214.018C213.537 214.018 206.024 210.545 200.862 203.6C195.852 196.655 192.845 187.445 191.84 175.97C191.244 169.176 191.318 160.494 192.062 149.926C192.944 139.206 194.348 129.241 196.272 120.031C197.215 115.2 198.745 111.878 200.863 110.066C202.981 108.254 206.544 107.348 211.552 107.348C219.293 107.348 223.388 109.915 223.837 115.049C224.168 118.823 223.493 127.58 221.814 141.32C219.626 157.928 218.79 169.176 219.306 175.064C219.703 179.594 220.614 183.066 222.04 185.482C223.466 187.898 225.621 189.105 228.504 189.105C231.236 189.105 234.486 187.218 238.253 183.444C242.02 179.669 246.961 173.705 253.076 165.552C254.712 163.438 256.669 162.382 258.945 162.382C260.918 162.382 262.515 163.287 263.736 165.099C265.109 166.911 265.934 169.402 266.212 172.573C266.741 178.612 265.71 183.293 263.117 186.614C249.692 204.883 236.454 214.018 223.402 214.018Z" fill="var(--text-0)"/>
<path d="M267.588 214.018C261.821 214.018 257.458 210.998 254.501 204.959C251.695 198.919 249.711 189.256 248.547 175.97C246.827 156.342 248.001 137.696 252.069 120.031C253.051 115.653 254.974 112.482 257.838 110.519C260.84 108.405 265.148 107.348 270.764 107.348C273.799 107.348 275.957 107.726 277.237 108.481C278.517 109.236 279.25 110.67 279.435 112.784C279.647 115.2 278.985 120.635 277.449 129.09C276.461 135.129 275.709 140.414 275.196 144.943C274.682 149.473 274.412 155.059 274.387 161.702C278.258 148.718 282.948 138.149 288.456 129.996C293.964 121.843 299.526 116.03 305.14 112.557C310.907 109.085 316.294 107.348 321.303 107.348C331.168 107.348 336.53 112.255 337.39 122.069C337.906 127.958 337.169 138.602 335.179 154.002C333.446 167.138 332.765 175.819 333.135 180.047C333.665 186.086 336.13 189.105 340.531 189.105C343.566 189.105 346.974 187.294 350.755 183.67C354.673 179.896 359.76 173.856 366.014 165.552C367.65 163.438 369.606 162.382 371.883 162.382C373.855 162.382 375.453 163.287 376.674 165.099C378.047 166.911 378.872 169.402 379.15 172.573C379.679 178.612 378.647 183.293 376.054 186.614C370.229 194.616 363.747 201.184 356.609 206.317C349.622 211.451 341.348 214.018 331.786 214.018C324.046 214.018 318.011 211.828 313.682 207.45C309.339 202.92 306.797 196.428 306.056 187.973C305.686 183.746 306.087 176.196 307.259 165.326C308.399 155.814 308.81 149.246 308.493 145.623C308.281 143.207 307.34 141.999 305.671 141.999C303.698 141.999 301.115 144.566 297.922 149.699C294.868 154.681 291.808 161.325 288.741 169.629C285.826 177.933 283.634 186.69 282.164 195.9C281.116 202.996 279.567 207.827 277.515 210.394C275.602 212.81 272.293 214.018 267.588 214.018Z" fill="var(--text-0)"/>
<path d="M491.422 162.382C493.395 162.382 494.992 163.287 496.213 165.099C497.586 166.911 498.411 169.402 498.689 172.573C499.218 178.612 498.186 183.293 495.594 186.614C489.492 194.918 483.168 201.562 476.623 206.544C470.078 211.526 462.025 214.018 452.464 214.018C440.778 214.018 431.077 210.696 423.362 204.053C415.647 197.41 411.306 188.577 410.341 177.555C409.825 171.667 412.49 167.439 418.336 164.873C424.762 162.004 429.278 158.984 431.884 155.814C434.477 152.492 435.568 148.491 435.158 143.811C434.92 141.093 434.134 139.055 432.801 137.696C431.62 136.337 430.194 135.658 428.525 135.658C424.427 135.658 420.132 138.602 415.639 144.49C411.299 150.378 407.414 158.003 403.984 167.364C400.542 176.574 398.036 186.086 396.467 195.9C395.42 202.996 393.87 207.827 391.818 210.394C389.905 212.81 386.596 214.018 381.891 214.018C377.186 214.018 373.55 212.357 370.983 209.035C368.554 205.563 366.649 200.278 365.268 193.182C363.888 186.086 362.596 175.668 361.392 161.929C359.355 138.677 359.584 114.445 362.08 89.2306C364.728 64.0165 369.933 42.879 377.696 25.818C385.598 8.606 396.075 0 409.127 0C416.109 0 421.989 3.01965 426.767 9.05895C431.684 14.9473 434.56 22.6474 435.393 32.1593C436.729 47.4085 433.641 63.2616 426.128 79.7187C418.602 96.0248 405.706 115.124 387.439 137.017C387.671 144.868 388.151 152.945 388.879 161.249C394.51 142.376 401.66 128.713 410.329 120.257C418.985 111.651 427.411 107.348 435.606 107.348C443.195 107.348 449.49 109.915 454.493 115.049C459.647 120.182 462.555 126.523 463.217 134.072C463.944 142.376 462.488 150.001 458.847 156.946C455.205 163.891 448.463 170.082 438.619 175.517C439.583 179.594 441.695 182.915 444.956 185.482C448.354 187.898 452.254 189.105 456.656 189.105C461.36 189.105 465.755 187.294 469.839 183.67C473.922 180.047 479.161 174.007 485.553 165.552C487.189 163.438 489.145 162.382 491.422 162.382ZM406.311 22.4209C403.579 22.4209 400.888 26.3464 398.236 34.1975C395.572 41.8976 393.228 52.3909 391.205 65.6773C389.321 78.8128 388.073 93.1562 387.463 108.707C395.907 97.6856 402.595 85.6825 407.528 72.698C412.613 59.7135 414.693 47.9369 413.767 37.3681C413.344 32.5367 412.488 28.8376 411.201 26.2709C409.914 23.7042 408.284 22.4209 406.311 22.4209Z" fill="var(--text-0)"/>
<path d="M580.979 162.382C582.952 162.382 584.549 163.287 585.77 165.099C587.143 166.911 587.968 169.402 588.246 172.573C588.775 178.612 587.743 183.293 585.15 186.614C580.13 193.408 572.711 199.674 562.894 205.412C553.228 211.149 542.552 214.018 530.866 214.018C514.93 214.018 502.184 209.715 492.627 201.109C483.071 192.503 477.637 180.726 476.328 165.779C475.415 155.361 476.769 145.698 480.39 136.79C483.998 127.731 489.44 120.559 496.718 115.275C504.147 109.991 512.794 107.348 522.659 107.348C531.461 107.348 538.75 109.991 544.525 115.275C550.286 120.408 553.557 127.429 554.338 136.337C555.251 146.755 552.243 155.738 545.316 163.287C538.528 170.686 526.371 176.574 508.846 180.952C513.249 187.898 520.762 191.37 531.386 191.37C538.215 191.37 545.75 189.03 553.991 184.35C562.37 179.518 569.41 173.252 575.11 165.552C576.746 163.438 578.702 162.382 580.979 162.382ZM520.733 129.543C515.117 129.543 510.621 132.789 507.244 139.281C504.018 145.774 502.809 153.625 503.616 162.835L503.656 163.287C512.425 161.174 519.204 158.003 523.994 153.776C528.784 149.548 530.934 144.641 530.445 139.055C530.193 136.186 529.16 133.921 527.345 132.261C525.669 130.449 523.465 129.543 520.733 129.543Z" fill="var(--text-0)"/>
<path d="M655.098 162.382C657.071 162.382 658.668 163.287 659.889 165.099C661.262 166.911 662.087 169.402 662.365 172.573C662.894 178.612 661.862 183.293 659.269 186.614C653.444 194.616 646.887 201.184 639.596 206.317C632.457 211.451 624.031 214.018 614.318 214.018C600.963 214.018 590.493 207.978 582.908 195.9C575.476 183.821 570.92 168.194 569.24 149.02C567.626 130.6 568.14 109.613 570.781 86.06C573.574 62.5067 578.859 42.2751 586.635 25.365C594.564 8.45501 604.978 0 617.878 0C625.163 0 631.152 3.3971 635.845 10.1913C640.677 16.8345 643.641 26.4219 644.739 38.9535C646.313 56.9204 643.13 77.7559 635.19 101.46C627.25 125.164 615.724 148.642 600.611 171.893C602.216 178.084 604.351 182.538 607.018 185.255C609.671 187.822 612.971 189.105 616.917 189.105C623.139 189.105 628.451 187.369 632.851 183.897C637.239 180.273 642.698 174.158 649.229 165.552C650.865 163.438 652.821 162.382 655.098 162.382ZM614.834 22.4209C611.344 22.4209 607.946 28.6867 604.643 41.2182C601.34 53.7497 598.832 69.3009 597.12 87.8718C595.408 106.443 595.148 124.259 596.339 141.32C605.567 123.655 612.594 105.99 617.421 88.3247C622.234 70.5088 624 54.2782 622.716 39.6329C621.711 28.1582 619.084 22.4209 614.834 22.4209Z" fill="var(--text-0)"/>
<path d="M690.375 219C682.483 219 676.253 217.188 671.686 213.565C667.271 209.941 664.865 205.865 664.468 201.335C664.124 197.409 665.269 194.012 667.901 191.144C670.533 188.275 674.657 186.841 680.273 186.841C682.245 186.841 684.542 187.067 687.162 187.52C689.92 187.822 691.989 188.049 693.368 188.2C692.872 184.274 691.637 180.575 689.664 177.102C687.842 173.63 685.578 170.308 682.872 167.138C680.152 163.816 677.625 160.947 675.288 158.532C671.364 167.439 667.307 174.838 663.118 180.726C659.081 186.614 654.562 192.201 649.561 197.485C647.068 200.203 644.303 201.562 641.268 201.562C638.839 201.562 636.793 200.731 635.13 199.07C633.454 197.259 632.503 195.069 632.278 192.503C632.014 189.483 632.831 186.69 634.731 184.123L637.373 180.499C644.821 170.233 650.379 161.778 654.046 155.134C656.395 150.756 658.67 145.547 660.873 139.508C663.227 133.468 666.225 125.24 669.865 114.822C672.167 108.179 677.871 104.857 686.977 104.857C691.226 104.857 694.219 105.235 695.955 105.99C697.69 106.745 698.631 107.952 698.776 109.613C698.856 110.519 698.678 111.953 698.243 113.916C697.807 115.879 697.145 117.842 696.254 119.805C693.999 125.24 693.036 129.845 693.367 133.619C693.565 135.884 694.542 138.375 696.298 141.093C698.206 143.811 701.007 147.208 704.703 151.284C710.116 157.626 714.234 163.061 717.059 167.59C720.023 171.969 721.736 176.8 722.199 182.085C722.755 188.426 721.766 194.465 719.234 200.203C716.839 205.789 713.138 210.319 708.131 213.791C703.123 217.264 697.204 219 690.375 219Z" fill="var(--text-0)"/>
<path d="M759.789 214.018C753.111 214.018 747.868 212.206 744.06 208.582C740.403 204.959 738.317 200.203 737.802 194.314C737.206 187.52 738.627 182.085 742.064 178.008C745.653 173.932 750.938 171.893 757.92 171.893C764.597 171.893 769.751 173.554 773.381 176.876C777.15 180.047 779.312 184.802 779.867 191.144C780.476 198.089 778.992 203.675 775.417 207.903C771.828 211.979 766.618 214.018 759.789 214.018Z" fill="var(--token-brand-2)"/>
</svg>
