
<svg height="1.5em" class="logo" aria-label="crinkles" viewBox="0 0 328 94" fill="none" xmlns="http://www.w3.org/2000/svg">
<path d="M19.944 91.48C13.672 91.48 8.776 89.72 5.256 86.2C1.8 82.616 0.0719986 77.912 0.0719986 72.088C0.0719986 66.904 1.096 62.36 3.144 58.456C5.192 54.552 7.848 51.544 11.112 49.432C14.376 47.32 17.8 46.264 21.384 46.264C24.904 46.264 27.624 47.32 29.544 49.432C31.528 51.48 32.52 54.136 32.52 57.4C32.52 60.088 31.912 62.36 30.696 64.216C29.544 66.072 28.008 67 26.088 67C24.872 67 23.88 66.712 23.112 66.136C22.408 65.56 22.056 64.76 22.056 63.736C22.056 63.288 22.12 62.776 22.248 62.2C22.376 61.624 22.472 61.208 22.536 60.952C22.856 59.992 23.016 59.096 23.016 58.264C23.016 57.432 22.792 56.792 22.344 56.344C21.96 55.896 21.384 55.672 20.616 55.672C19.144 55.672 17.768 56.344 16.488 57.688C15.208 58.968 14.184 60.728 13.416 62.968C12.648 65.208 12.264 67.672 12.264 70.36C12.264 77.784 15.496 81.496 21.96 81.496C24.584 81.496 27.4 80.632 30.408 78.904C33.48 77.112 36.488 74.456 39.432 70.936C40.2 70.04 41.064 69.592 42.024 69.592C42.856 69.592 43.496 69.976 43.944 70.744C44.456 71.512 44.712 72.568 44.712 73.912C44.712 76.344 44.104 78.328 42.888 79.864C39.88 83.576 36.264 86.456 32.04 88.504C27.88 90.488 23.848 91.48 19.944 91.48Z" fill="var(--text-0)"/>
<path d="M43.7677 91.48C41.3357 91.48 39.6077 90.2 38.5837 87.64C37.6237 85.08 37.1437 80.984 37.1437 75.352C37.1437 67.032 38.3277 59.128 40.6957 51.64C41.2717 49.784 42.1997 48.44 43.4797 47.608C44.8237 46.712 46.6797 46.264 49.0477 46.264C50.3277 46.264 51.2237 46.424 51.7357 46.744C52.2477 47.064 52.5037 47.672 52.5037 48.568C52.5037 49.592 52.0237 51.896 51.0637 55.48C50.4237 58.04 49.9117 60.28 49.5277 62.2C49.1437 64.12 48.8237 66.488 48.5677 69.304C50.6797 63.8 53.0477 59.32 55.6717 55.864C58.2957 52.408 60.8557 49.944 63.3517 48.472C65.9117 47 68.2477 46.264 70.3597 46.264C74.5197 46.264 76.5998 48.344 76.5998 52.504C76.5998 53.336 76.3117 55.352 75.7357 58.552C75.2237 61.112 74.9678 62.712 74.9678 63.352C74.9678 65.592 75.7678 66.712 77.3678 66.712C79.1598 66.712 81.4637 65.304 84.2797 62.488C85.1117 61.656 85.9757 61.24 86.8717 61.24C87.7038 61.24 88.3438 61.624 88.7917 62.392C89.3037 63.096 89.5598 64.056 89.5598 65.272C89.5598 67.64 88.9198 69.496 87.6398 70.84C85.8478 72.696 83.7358 74.296 81.3038 75.64C78.9358 76.92 76.4077 77.56 73.7197 77.56C70.3277 77.56 67.7357 76.696 65.9437 74.968C64.2157 73.24 63.3517 70.904 63.3517 67.96C63.3517 67 63.4477 66.04 63.6397 65.08C63.7677 63.8 63.8317 62.936 63.8317 62.488C63.8317 61.464 63.4797 60.952 62.7757 60.952C61.8158 60.952 60.5357 62.04 58.9357 64.216C57.3997 66.328 55.8638 69.144 54.3278 72.664C52.7918 76.184 51.5437 79.896 50.5837 83.8C49.8797 86.808 49.0477 88.856 48.0877 89.944C47.1917 90.968 45.7517 91.48 43.7677 91.48Z" fill="var(--text-0)"/>
<path d="M93.2152 39.928C90.5272 39.928 88.5113 39.32 87.1673 38.104C85.8233 36.824 85.1513 35.064 85.1513 32.824C85.1513 30.584 86.0152 28.728 87.7432 27.256C89.5352 25.72 91.7432 24.952 94.3672 24.952C96.7352 24.952 98.6553 25.528 100.127 26.68C101.599 27.832 102.335 29.464 102.335 31.576C102.335 34.136 101.503 36.184 99.8392 37.72C98.1752 39.192 95.9672 39.928 93.2152 39.928ZM92.4473 91.48C88.2873 91.48 85.2472 90.008 83.3272 87.064C81.4712 84.12 80.5433 80.216 80.5433 75.352C80.5433 72.472 80.8953 68.792 81.5993 64.312C82.3673 59.768 83.3272 55.544 84.4792 51.64C85.0552 49.592 85.8232 48.184 86.7832 47.416C87.7432 46.648 89.2793 46.264 91.3913 46.264C94.6553 46.264 96.2872 47.352 96.2872 49.528C96.2872 51.128 95.6792 54.84 94.4632 60.664C92.9272 67.704 92.1592 72.472 92.1592 74.968C92.1592 76.888 92.4152 78.36 92.9272 79.384C93.4392 80.408 94.3032 80.92 95.5192 80.92C96.6712 80.92 98.1112 80.12 99.8392 78.52C101.567 76.92 103.871 74.392 106.751 70.936C107.519 70.04 108.383 69.592 109.343 69.592C110.175 69.592 110.815 69.976 111.263 70.744C111.775 71.512 112.031 72.568 112.031 73.912C112.031 76.472 111.423 78.456 110.207 79.864C103.871 87.608 97.9513 91.48 92.4473 91.48Z" fill="var(--text-0)"/>
<path d="M111.08 91.48C108.648 91.48 106.92 90.2 105.896 87.64C104.936 85.08 104.456 80.984 104.456 75.352C104.456 67.032 105.64 59.128 108.008 51.64C108.584 49.784 109.512 48.44 110.792 47.608C112.136 46.712 113.992 46.264 116.36 46.264C117.64 46.264 118.536 46.424 119.048 46.744C119.56 47.064 119.816 47.672 119.816 48.568C119.816 49.592 119.336 51.896 118.376 55.48C117.736 58.04 117.224 60.28 116.84 62.2C116.456 64.12 116.136 66.488 115.88 69.304C117.992 63.8 120.36 59.32 122.984 55.864C125.608 52.408 128.168 49.944 130.664 48.472C133.224 47 135.56 46.264 137.672 46.264C141.832 46.264 143.912 48.344 143.912 52.504C143.912 55 143.208 59.512 141.8 66.04C140.584 71.608 139.976 75.288 139.976 77.08C139.976 79.64 140.904 80.92 142.76 80.92C144.04 80.92 145.544 80.152 147.272 78.616C149.064 77.016 151.432 74.456 154.376 70.936C155.144 70.04 156.008 69.592 156.968 69.592C157.8 69.592 158.44 69.976 158.888 70.744C159.4 71.512 159.656 72.568 159.656 73.912C159.656 76.472 159.048 78.456 157.832 79.864C155.08 83.256 152.104 86.04 148.904 88.216C145.768 90.392 142.184 91.48 138.152 91.48C134.888 91.48 132.424 90.552 130.76 88.696C129.096 86.776 128.264 84.024 128.264 80.44C128.264 78.648 128.712 75.448 129.608 70.84C130.44 66.808 130.856 64.024 130.856 62.488C130.856 61.464 130.504 60.952 129.8 60.952C128.968 60.952 127.784 62.04 126.248 64.216C124.776 66.328 123.24 69.144 121.64 72.664C120.104 76.184 118.856 79.896 117.896 83.8C117.192 86.808 116.36 88.856 115.4 89.944C114.504 90.968 113.064 91.48 111.08 91.48Z" fill="var(--text-0)"/>
<path d="M207.377 69.592C208.209 69.592 208.849 69.976 209.297 70.744C209.809 71.512 210.065 72.568 210.065 73.912C210.065 76.472 209.457 78.456 208.241 79.864C205.361 83.384 202.449 86.2 199.505 88.312C196.561 90.424 193.073 91.48 189.041 91.48C184.113 91.48 180.145 90.072 177.137 87.256C174.129 84.44 172.625 80.696 172.625 76.024C172.625 73.528 173.905 71.736 176.465 70.648C179.281 69.432 181.297 68.152 182.513 66.808C183.729 65.4 184.337 63.704 184.337 61.72C184.337 60.568 184.081 59.704 183.569 59.128C183.121 58.552 182.545 58.264 181.841 58.264C180.113 58.264 178.193 59.512 176.081 62.008C174.033 64.504 172.113 67.736 170.321 71.704C168.529 75.608 167.121 79.64 166.097 83.8C165.393 86.808 164.561 88.856 163.601 89.944C162.705 90.968 161.265 91.48 159.281 91.48C157.297 91.48 155.825 90.776 154.865 89.368C153.969 87.896 153.361 85.656 153.041 82.648C152.721 79.64 152.561 75.224 152.561 69.4C152.561 59.544 153.553 49.272 155.537 38.584C157.585 27.896 160.561 18.936 164.465 11.704C168.433 4.40801 173.169 0.76001 178.673 0.76001C181.617 0.76001 183.985 2.04001 185.777 4.60001C187.633 7.09601 188.561 10.36 188.561 14.392C188.561 20.856 186.673 27.576 182.897 34.552C179.121 41.464 172.977 49.56 164.465 58.84C164.273 62.168 164.177 65.592 164.177 69.112C167.249 61.112 170.769 55.32 174.737 51.736C178.705 48.088 182.417 46.264 185.873 46.264C189.073 46.264 191.633 47.352 193.553 49.528C195.537 51.704 196.529 54.392 196.529 57.592C196.529 61.112 195.633 64.344 193.841 67.288C192.049 70.232 188.977 72.856 184.625 75.16C184.881 76.888 185.649 78.296 186.929 79.384C188.273 80.408 189.873 80.92 191.729 80.92C193.713 80.92 195.633 80.152 197.489 78.616C199.345 77.08 201.777 74.52 204.785 70.936C205.553 70.04 206.417 69.592 207.377 69.592ZM176.657 10.264C175.505 10.264 174.225 11.928 172.817 15.256C171.409 18.52 170.033 22.968 168.689 28.6C167.409 34.168 166.353 40.248 165.521 46.84C169.489 42.168 172.753 37.08 175.313 31.576C177.937 26.072 179.249 21.08 179.249 16.6C179.249 14.552 179.025 12.984 178.577 11.896C178.129 10.808 177.489 10.264 176.657 10.264Z" fill="var(--text-0)"/>
<path d="M238.711 69.592C239.543 69.592 240.183 69.976 240.631 70.744C241.143 71.512 241.399 72.568 241.399 73.912C241.399 76.472 240.791 78.456 239.575 79.864C236.823 83.256 233.815 86.04 230.551 88.216C227.351 90.392 223.703 91.48 219.607 91.48C213.975 91.48 209.783 88.92 207.031 83.8C204.343 78.68 202.999 72.056 202.999 63.928C202.999 56.12 203.991 47.224 205.975 37.24C208.023 27.256 210.999 18.68 214.903 11.512C218.871 4.34401 223.575 0.76001 229.015 0.76001C232.087 0.76001 234.487 2.20001 236.215 5.08001C238.007 7.89601 238.903 11.96 238.903 17.272C238.903 24.888 236.791 33.72 232.567 43.768C228.343 53.816 222.615 63.768 215.383 73.624C215.831 76.248 216.567 78.136 217.591 79.288C218.615 80.376 219.959 80.92 221.623 80.92C224.247 80.92 226.551 80.184 228.535 78.712C230.519 77.176 233.047 74.584 236.119 70.936C236.887 70.04 237.751 69.592 238.711 69.592ZM226.903 10.264C225.431 10.264 223.767 12.92 221.911 18.232C220.055 23.544 218.423 30.136 217.015 38.008C215.607 45.88 214.839 53.432 214.711 60.664C219.255 53.176 222.871 45.688 225.559 38.2C228.247 30.648 229.591 23.768 229.591 17.56C229.591 12.696 228.695 10.264 226.903 10.264Z" fill="var(--text-0)"/>
<path d="M276.455 69.592C277.287 69.592 277.927 69.976 278.375 70.744C278.887 71.512 279.143 72.568 279.143 73.912C279.143 76.472 278.535 78.456 277.319 79.864C274.951 82.744 271.591 85.4 267.239 87.832C262.951 90.264 258.343 91.48 253.415 91.48C246.695 91.48 241.479 89.656 237.767 86.008C234.055 82.36 232.199 77.368 232.199 71.032C232.199 66.616 233.127 62.52 234.983 58.744C236.839 54.904 239.399 51.864 242.663 49.624C245.991 47.384 249.735 46.264 253.895 46.264C257.607 46.264 260.583 47.384 262.823 49.624C265.063 51.8 266.183 54.776 266.183 58.552C266.183 62.968 264.583 66.776 261.383 69.976C258.247 73.112 252.903 75.608 245.351 77.464C246.951 80.408 249.991 81.88 254.471 81.88C257.351 81.88 260.615 80.888 264.263 78.904C267.975 76.856 271.175 74.2 273.863 70.936C274.631 70.04 275.495 69.592 276.455 69.592ZM252.263 55.672C249.895 55.672 247.879 57.048 246.215 59.8C244.615 62.552 243.815 65.88 243.815 69.784V69.976C247.591 69.08 250.567 67.736 252.743 65.944C254.919 64.152 256.007 62.072 256.007 59.704C256.007 58.488 255.655 57.528 254.951 56.824C254.311 56.056 253.415 55.672 252.263 55.672Z" fill="var(--text-0)"/>
<path d="M289.183 93.592C285.855 93.592 283.295 92.824 281.503 91.288C279.775 89.752 278.911 88.024 278.911 86.104C278.911 84.44 279.519 83 280.735 81.784C281.951 80.568 283.743 79.96 286.111 79.96C286.943 79.96 287.903 80.056 288.991 80.248C290.143 80.376 291.007 80.472 291.583 80.536C291.519 78.872 291.135 77.304 290.431 75.832C289.791 74.36 288.959 72.952 287.935 71.608C286.911 70.2 285.951 68.984 285.055 67.96C283.071 71.736 281.087 74.872 279.103 77.368C277.183 79.864 275.071 82.232 272.767 84.472C271.615 85.624 270.399 86.2 269.119 86.2C268.095 86.2 267.263 85.848 266.623 85.144C265.983 84.376 265.663 83.448 265.663 82.36C265.663 81.08 266.111 79.896 267.007 78.808L268.255 77.272C271.775 72.92 274.431 69.336 276.223 66.52C277.375 64.664 278.527 62.456 279.679 59.896C280.895 57.336 282.463 53.848 284.383 49.432C285.599 46.616 288.127 45.208 291.967 45.208C293.759 45.208 295.007 45.368 295.711 45.688C296.415 46.008 296.767 46.52 296.767 47.224C296.767 47.608 296.639 48.216 296.383 49.048C296.127 49.88 295.775 50.712 295.327 51.544C294.175 53.848 293.599 55.8 293.599 57.4C293.599 58.36 293.919 59.416 294.559 60.568C295.263 61.72 296.319 63.16 297.727 64.888C299.775 67.576 301.311 69.88 302.335 71.8C303.423 73.656 303.967 75.704 303.967 77.944C303.967 80.632 303.327 83.192 302.047 85.624C300.831 87.992 299.103 89.912 296.863 91.384C294.623 92.856 292.063 93.592 289.183 93.592Z" fill="var(--text-0)"/>
<path d="M318.638 91.48C315.822 91.48 313.678 90.712 312.206 89.176C310.798 87.64 310.094 85.624 310.094 83.128C310.094 80.248 310.894 77.944 312.494 76.216C314.158 74.488 316.462 73.624 319.406 73.624C322.222 73.624 324.334 74.328 325.742 75.736C327.214 77.08 327.95 79.096 327.95 81.784C327.95 84.728 327.118 87.096 325.454 88.888C323.79 90.616 321.518 91.48 318.638 91.48Z" fill="var(--primary)"/>
</svg>
