<svg class="profile-picture" viewBox="0 0 245 366" fill="none" xmlns="http://www.w3.org/2000/svg">
<g filter="url(#filter0_d_3520_2)">
<path d="M7.85882 172.719C6.91901 166.055 10.5786 159.592 16.7768 156.97L22.9052 154.377C24.3876 153.75 26.0999 154.418 26.766 155.883L29.2814 161.417L35.4699 223.303C35.6933 225.536 33.4534 227.201 31.3793 226.342L22.2732 222.574C17.4145 220.564 13.9813 216.134 13.2471 210.927L7.85882 172.719Z" fill="#EDD5BE"/>
<path d="M7.85882 172.719C6.91901 166.055 10.5786 159.592 16.7768 156.97L22.9052 154.377C24.3876 153.75 26.0999 154.418 26.766 155.883L29.2814 161.417L35.4699 223.303C35.6933 225.536 33.4534 227.201 31.3793 226.342L22.2732 222.574C17.4145 220.564 13.9813 216.134 13.2471 210.927L7.85882 172.719Z" fill="#EDD5BE"/>
<path d="M34.1061 209.664C31.6475 211.804 28.8996 213 26 213C20.4152 213 15.3932 208.561 11.9169 201.495L13.2471 210.927C13.9813 216.134 17.4145 220.564 22.2732 222.574L31.3793 226.342C33.4534 227.201 35.6933 225.536 35.4699 223.303L34.1061 209.664Z" fill="#E2CBB4"/>
<path fill-rule="evenodd" clip-rule="evenodd" d="M21.4587 150.958C24.7943 149.547 28.6469 151.05 30.1456 154.347C31.9791 158.381 33.1393 162.688 33.5802 167.096L39.1639 222.933C39.6664 227.959 34.6267 231.704 29.9599 229.772L20.8538 226.004C14.7804 223.491 10.489 217.954 9.57112 211.445L4.18288 173.238C3.00812 164.908 7.58259 156.829 15.3303 153.551L21.4587 150.958ZM25.7168 163.079C25.6715 162.627 25.5524 162.185 25.3642 161.771C24.4301 159.716 22.0289 158.779 19.95 159.658L18.2232 160.389C13.5746 162.356 10.8299 167.203 11.5348 172.201L16.923 210.408C17.4738 214.313 20.0486 217.636 23.6927 219.144C27.2941 220.634 31.1833 217.744 30.7954 213.866L25.7168 163.079Z" fill="#131520"/>
<path d="M237.063 172.719C238.003 166.055 234.343 159.592 228.145 156.97L222.017 154.377C220.534 153.75 218.822 154.418 218.156 155.883L215.64 161.417L209.452 223.303C209.229 225.536 211.468 227.201 213.543 226.342L222.649 222.574C227.507 220.564 230.941 216.134 231.675 210.927L237.063 172.719Z" fill="#EDD5BE"/>
<path d="M237.063 172.719C238.003 166.055 234.343 159.592 228.145 156.97L222.017 154.377C220.534 153.75 218.822 154.418 218.156 155.883L215.64 161.417L209.452 223.303C209.229 225.536 211.468 227.201 213.543 226.342L222.649 222.574C227.507 220.564 230.941 216.134 231.675 210.927L237.063 172.719Z" fill="#EDD5BE"/>
<path d="M210.819 209.669C213.278 211.809 216.026 213.005 218.925 213.005C224.51 213.005 229.532 208.567 233.008 201.5L231.678 210.932C230.944 216.139 227.511 220.569 222.652 222.58L213.546 226.348C211.472 227.206 209.232 225.541 209.455 223.308L210.819 209.669Z" fill="#E2CBB4"/>
<path fill-rule="evenodd" clip-rule="evenodd" d="M223.463 150.958C220.128 149.547 216.275 151.05 214.776 154.347C212.943 158.381 211.783 162.688 211.342 167.096L205.758 222.933C205.255 227.959 210.295 231.704 214.962 229.772L224.068 226.004C230.141 223.491 234.433 217.954 235.351 211.445L240.739 173.238C241.914 164.908 237.339 156.829 229.592 153.551L223.463 150.958ZM219.205 163.079C219.25 162.627 219.369 162.185 219.558 161.77C220.492 159.715 222.893 158.779 224.972 159.658L226.699 160.389C231.347 162.356 234.092 167.203 233.387 172.201L227.999 210.408C227.448 214.313 224.873 217.636 221.229 219.144C217.628 220.634 213.739 217.744 214.126 213.866L219.205 163.079Z" fill="#131520"/>
</g>
<g filter="url(#filter1_d_3520_2)">
<path d="M51 60L121.731 31.4855L194.405 56L219.554 135.754C220.407 147.101 219.953 158.507 218.201 169.75L208.958 219.091C206.515 234.768 201.036 256.372 191.956 269.383C184.933 279.447 176.188 288.191 166.123 295.213L156.845 301.686C148.636 307.414 138.444 309.539 128.63 307.57C124.072 306.656 119.382 306.616 114.809 307.452L114.528 307.504C103.598 309.503 92.3391 306.643 83.6891 299.669L75.522 293.084C68.5275 287.445 62.205 281.02 56.6793 273.935C44.2419 257.989 36.1447 239.095 33.1758 219.091L25.7919 169.34C24.1636 158.368 23.7696 147.248 24.6175 136.189L51 60Z" fill="#EDD5BE"/>
<path d="M123.427 306.909C165.761 283.32 198.692 241.689 214.223 190.985L208.958 219.091C206.515 234.768 201.036 256.372 191.956 269.383C184.933 279.447 176.188 288.191 166.123 295.213L156.845 301.687C148.636 307.414 138.444 309.539 128.63 307.57C126.91 307.225 125.171 307.005 123.427 306.909Z" fill="#E2CBB4"/>
<path fill-rule="evenodd" clip-rule="evenodd" d="M121.684 27.7595L200 61L223.256 135.476C224.13 147.106 223.665 158.798 221.869 170.322L213.137 226.354C210.607 242.589 204.404 258.033 195.001 271.507C187.727 281.93 178.67 290.986 168.247 298.258L158.969 304.731C149.93 311.038 138.706 313.378 127.9 311.21C123.803 310.388 119.587 310.352 115.477 311.104L115.196 311.156C103.203 313.349 90.85 310.211 81.359 302.559L73.192 295.974C65.9758 290.156 59.4529 283.527 53.752 276.218C40.9205 259.767 32.5666 240.274 29.5037 219.636L22.1198 169.885C20.4507 158.639 20.0469 147.241 20.916 135.905L40.5 51L121.684 27.7595ZM121.778 35.2115L40.5 51L28.3189 136.473C27.4923 147.256 27.8764 158.097 29.464 168.795L36.8479 218.546C39.7227 237.916 47.5633 256.211 59.6065 271.652C64.9571 278.512 71.0792 284.734 77.8521 290.194L86.0191 296.779C93.8282 303.075 103.992 305.657 113.86 303.852L114.141 303.801C119.176 302.88 124.341 302.924 129.36 303.931C138.181 305.7 147.342 303.79 154.721 298.642L163.999 292.169C173.705 285.397 182.139 276.964 188.912 267.258C197.669 254.711 203.445 240.329 205.801 225.211L214.533 169.179C216.241 158.217 216.684 147.095 215.852 136.033L195.001 61L121.778 35.2115Z" fill="#131520"/>
<path fill-rule="evenodd" clip-rule="evenodd" d="M68.6321 109.227C68.6321 107.997 69.6294 107 70.8595 107H92.4978C98.1852 107 103.823 108.059 109.123 110.122C113.908 111.984 118.998 112.94 124.132 112.94H124.268C129.521 112.94 134.735 112.037 139.683 110.272L140.167 110.099C145.915 108.048 151.973 107 158.076 107H176.29C177.52 107 178.517 107.997 178.517 109.227C178.517 110.458 177.52 111.455 176.29 111.455H158.076C152.483 111.455 146.931 112.416 141.664 114.295L141.18 114.468C135.752 116.405 130.031 117.395 124.268 117.395H124.132C118.445 117.395 112.807 116.336 107.507 114.273C102.722 112.41 97.6324 111.455 92.4978 111.455H70.8595C69.6294 111.455 68.6321 110.458 68.6321 109.227Z" fill="#E2CBB4"/>
<path fill-rule="evenodd" clip-rule="evenodd" d="M122.832 297.288C122.012 297.288 121.347 296.624 121.347 295.804V288.379C121.347 287.559 122.012 286.894 122.832 286.894C123.652 286.894 124.317 287.559 124.317 288.379V295.804C124.317 296.624 123.652 297.288 122.832 297.288Z" fill="#E2CBB4"/>
</g>
<path fill-rule="evenodd" clip-rule="evenodd" d="M118.128 205.829C121.426 208.028 125.723 208.028 129.022 205.829L135.704 201.374C136.727 200.692 138.11 200.969 138.793 201.992C139.475 203.016 139.198 204.399 138.175 205.081L131.493 209.536C126.698 212.732 120.452 212.732 115.657 209.536L108.975 205.081C107.951 204.399 107.675 203.016 108.357 201.992C109.04 200.969 110.422 200.692 111.446 201.374L118.128 205.829Z" fill="#E2CBB4"/>
<path fill-rule="evenodd" clip-rule="evenodd" d="M111.038 143.029C109.988 144.79 107.709 145.367 105.948 144.317L96.4419 138.65C83.9421 131.199 68.1188 132.348 56.8272 141.528C55.2363 142.822 52.8982 142.58 51.6048 140.99C50.3115 139.399 50.5527 137.061 52.1436 135.767C65.8538 124.621 85.0664 123.225 100.244 132.273L109.75 137.94C111.511 138.989 112.087 141.268 111.038 143.029Z" fill="#131520"/>
<path fill-rule="evenodd" clip-rule="evenodd" d="M135.978 143.029C137.028 144.79 139.306 145.367 141.067 144.317L150.573 138.65C163.073 131.199 178.896 132.348 190.188 141.528C191.779 142.822 194.117 142.58 195.41 140.99C196.704 139.399 196.463 137.061 194.872 135.767C181.161 124.621 161.949 123.225 146.772 132.273L137.266 137.94C135.504 138.989 134.928 141.268 135.978 143.029Z" fill="#131520"/>
<circle cx="164.414" cy="165.94" r="26.8929" fill="white"/>
<circle cx="164.835" cy="174.228" r="17.2282" fill="#4361FF"/>
<circle cx="164.835" cy="174.228" r="17.2282" fill="url(#paint0_linear_3520_2)" fill-opacity="0.7"/>
<circle cx="164.835" cy="174.228" r="11.3454" fill="#131520"/>
<path d="M137.113 169.354C138.767 169.58 140.29 168.422 140.515 166.769L141.034 162.96C142.138 154.868 147.345 147.92 154.803 144.591C160.483 142.055 166.946 141.867 172.769 144.063C181.124 147.213 187.012 154.799 187.976 163.671L188.304 166.687C188.484 168.346 189.975 169.544 191.634 169.364C193.292 169.184 194.491 167.693 194.311 166.034L193.983 163.018C192.772 151.877 185.382 142.361 174.901 138.409C167.591 135.653 159.476 135.888 152.34 139.073C142.973 143.255 136.433 151.98 135.047 162.144L134.528 165.952C134.303 167.606 135.46 169.129 137.113 169.354Z" fill="#131520"/>
<path fill-rule="evenodd" clip-rule="evenodd" d="M169.652 170.251C168.831 169.431 168.831 168.1 169.652 167.28L177.216 159.716C178.036 158.896 179.366 158.896 180.187 159.716C181.007 160.537 181.007 161.867 180.187 162.688L172.623 170.251C171.803 171.072 170.472 171.072 169.652 170.251Z" fill="white"/>
<path fill-rule="evenodd" clip-rule="evenodd" d="M168.238 171.665C166.636 170.064 166.636 167.467 168.238 165.866L175.801 158.302C177.403 156.701 180 156.701 181.601 158.302C183.203 159.904 183.203 162.5 181.601 164.102L174.037 171.665C172.436 173.267 169.839 173.267 168.238 171.665ZM169.652 167.28C168.831 168.1 168.831 169.431 169.652 170.251C170.472 171.072 171.803 171.072 172.623 170.251L180.187 162.688C181.007 161.867 181.007 160.537 180.187 159.716C179.366 158.896 178.036 158.896 177.216 159.716L169.652 167.28Z" fill="white"/>
<circle cx="83.9145" cy="165.94" r="26.8929" fill="white"/>
<circle cx="84.3347" cy="174.228" r="17.2282" fill="#4361FF"/>
<circle cx="84.3347" cy="174.228" r="17.2282" fill="url(#paint1_linear_3520_2)" fill-opacity="0.7"/>
<circle cx="84.3347" cy="174.228" r="11.3454" fill="#131520"/>
<path d="M56.6133 169.354C58.2666 169.58 59.7896 168.422 60.0151 166.769L60.5344 162.96C61.638 154.868 66.8454 147.92 74.3033 144.591C79.9828 142.055 86.4465 141.867 92.269 144.063C100.624 147.213 106.512 154.799 107.476 163.671L107.804 166.687C107.984 168.346 109.475 169.544 111.134 169.364C112.793 169.184 113.991 167.693 113.811 166.034L113.483 163.018C112.272 151.877 104.882 142.361 94.4008 138.409C87.0912 135.653 78.9762 135.888 71.8401 139.073C62.4736 143.255 55.9334 151.98 54.5474 162.144L54.0281 165.952C53.8026 167.606 54.9601 169.129 56.6133 169.354Z" fill="#131520"/>
<path fill-rule="evenodd" clip-rule="evenodd" d="M89.152 170.251C88.3315 169.431 88.3315 168.1 89.152 167.28L96.7157 159.716C97.5361 158.896 98.8664 158.896 99.6869 159.716C100.507 160.537 100.507 161.867 99.6869 162.688L92.1233 170.251C91.3028 171.072 89.9725 171.072 89.152 170.251Z" fill="white"/>
<path fill-rule="evenodd" clip-rule="evenodd" d="M87.7378 171.665C86.1363 170.064 86.1363 167.467 87.7378 165.866L95.3014 158.302C96.903 156.701 99.4996 156.701 101.101 158.302C102.703 159.904 102.703 162.5 101.101 164.102L93.5375 171.665C91.936 173.267 89.3394 173.267 87.7378 171.665ZM89.152 167.28C88.3315 168.1 88.3315 169.431 89.152 170.251C89.9725 171.072 91.3028 171.072 92.1233 170.251L99.6869 162.688C100.507 161.867 100.507 160.537 99.6869 159.716C98.8664 158.896 97.5361 158.896 96.7157 159.716L89.152 167.28Z" fill="white"/>
<path d="M208 104L218 144L218.61 188.45L231.672 111.459C232.368 107.356 232.717 103.202 232.717 99.041V82.3781C232.717 76.9222 231.619 71.522 229.488 66.4994L227.718 62.327C224.288 54.241 217.55 48.0179 209.217 45.2403C206.095 44.1998 202.826 43.6693 199.536 43.6693H189.654L185.412 35.7147C180.415 26.3448 172.965 18.5093 163.859 13.0458C155.925 8.28533 146.976 5.47164 137.746 4.83504L124.017 3.88827C113.929 3.19253 103.805 4.56489 94.2661 7.9212L79.7382 13.0329C72.3802 15.6218 65.4761 19.354 59.28 24.0922L41.6051 37.6083C26.5388 49.1296 16.453 65.9799 13.417 84.702L11.5417 96.2662C10.0181 105.662 10.3153 115.263 12.4172 124.546L28 176L38.5 101.5C40.2918 92.9252 52.295 87.3051 60.0079 83.152L66.5912 79.6072C73.1554 76.0726 80.8089 75.1361 88.0317 76.9838L105.104 81.3511C107.509 81.9663 109.981 82.2776 112.464 82.2776H137.385C140.046 82.2776 142.694 81.92 145.26 81.2145L159.958 77.1726C167.12 75.203 174.76 75.9888 181.371 79.3751L188.335 82.942C196.645 87.1983 206.409 94.8001 208 104Z" fill="#5D473B"/>
<path fill-rule="evenodd" clip-rule="evenodd" d="M124.273 0.184743C113.68 -0.545785 103.05 0.895192 93.0339 4.41931L78.5059 9.53099C70.78 12.2494 63.5307 16.1682 57.0248 21.1433L39.3499 34.6594C23.5303 46.7568 12.9402 64.4496 9.75237 84.1078L7.8771 95.6719C6.27726 105.537 6.58937 115.619 8.79642 125.366L18 154L24.5 183.5C24.9676 185.565 24.9433 190 27.0606 189.982C29.1779 189.965 29.0669 189.073 29.5 187L29.117 151.5L35.8631 140.333L43.1308 104.073C44.6986 96.5704 55.019 90.0546 61.7678 86.4206L68.3511 82.8758C74.0948 79.783 80.7916 78.9636 87.1115 80.5803L104.183 84.9476C106.889 85.6397 109.671 85.9899 112.464 85.9899H137.385C140.378 85.9899 143.358 85.5877 146.244 84.794L160.942 80.752C167.209 79.0286 173.894 79.7163 179.679 82.6792L186.643 86.2462C193.914 89.9704 204.021 95.6994 205.413 103.749L214.5 146L217.5 156.5V182C215.386 182.003 217.86 184.083 217.5 182C217.146 184.084 219.614 181.997 217.5 182L228.011 149L235.331 112.08C236.062 107.772 236.43 103.41 236.43 99.041V82.3781C236.43 76.424 235.231 70.5308 232.906 65.0495L231.136 60.8771C227.289 51.8106 219.734 44.8329 210.39 41.7185C206.89 40.5518 203.225 39.957 199.536 39.957H194.882C193.035 39.957 191.339 38.9393 190.47 37.3099L188.687 33.9677C183.373 24.0042 175.452 15.6722 165.769 9.86247C157.332 4.80042 147.816 1.80844 138.001 1.13151L124.273 0.184743ZM95.4981 11.4231C104.56 8.2346 114.178 6.93086 123.762 7.59181L137.49 8.53858C146.136 9.13484 154.517 11.7703 161.949 16.2291C170.478 21.3464 177.455 28.6855 182.136 37.4617L186.015 44.7346C186.884 46.3639 188.58 47.3817 190.427 47.3817H199.536C202.427 47.3817 205.299 47.8478 208.043 48.7622C215.365 51.203 221.286 56.6714 224.301 63.7768L226.071 67.9492C228.007 72.5133 229.005 77.4203 229.005 82.3781V99.041C229.005 102.994 228.673 106.941 228.011 110.838L223.457 137.682C222.517 143.225 219.569 142.04 218.611 136.5L212.729 102.484C210.939 92.1342 199.376 84.4262 190.028 79.6379L183.063 76.071C175.626 72.2614 167.031 71.3773 158.973 73.5931L144.275 77.6351C142.03 78.2524 139.713 78.5652 137.385 78.5652H112.464C110.292 78.5652 108.128 78.2929 106.024 77.7545L88.9516 73.3873C80.826 71.3087 72.2158 72.3622 64.8311 76.3385L58.2478 79.8834C49.5707 84.5557 37.8788 92.908 35.8631 102.555L29.117 140.333C27.5788 147.695 21.4677 147.709 19.807 140.374L16.0378 123.727C14.0409 114.907 13.7586 105.786 15.206 96.8604L17.0813 85.2962C19.9655 67.5103 29.5471 51.5025 43.86 40.5573L61.5349 27.0412C67.4212 22.5399 73.9801 18.9942 80.9702 16.5348L95.4981 11.4231Z" fill="#131520"/>
<path fill-rule="evenodd" clip-rule="evenodd" d="M116.61 23.6402C116.569 22.8212 117.199 22.1236 118.018 22.0822C138.326 21.0559 157.461 31.6267 167.403 49.364L171.103 55.965C171.504 56.6804 171.249 57.5854 170.533 57.9864C169.818 58.3874 168.913 58.1325 168.512 57.4171L164.812 50.8161C155.422 34.0632 137.349 24.0789 118.168 25.0484C117.349 25.0898 116.652 24.4593 116.61 23.6402Z" fill="#423027" stroke="#423027" stroke-width="4" stroke-linecap="round"/>
<path fill-rule="evenodd" clip-rule="evenodd" d="M81.5847 34.2609C81.4569 33.4741 81.9942 32.7951 82.7847 32.7443C101.832 31.5208 120.926 41.4573 131.662 58.1793L132.662 59.7383C133.108 60.4324 132.93 61.2982 132.264 61.6722C131.599 62.0462 130.698 61.7868 130.253 61.0927L129.252 59.5337C119.147 43.7944 101.175 34.4418 83.2475 35.5935C82.4569 35.6442 81.7125 35.0476 81.5847 34.2609Z" fill="#423027" stroke="#423027" stroke-width="4" stroke-linecap="round"/>
<path fill-rule="evenodd" clip-rule="evenodd" d="M44.8589 56.3413C44.4474 55.5183 44.781 54.5176 45.6039 54.1061L48.6048 52.6057C66.0262 43.8949 87.0671 47.3094 100.84 61.0823C101.491 61.7329 101.491 62.7878 100.84 63.4384C100.189 64.089 99.1345 64.089 98.4839 63.4384C85.7251 50.6797 66.2336 47.5166 50.0949 55.586L47.0941 57.0864C46.2711 57.4979 45.2704 57.1643 44.8589 56.3413Z" fill="#423027" stroke="#423027" stroke-width="4" stroke-linecap="round"/>
<g filter="url(#filter2_d_3520_2)">
<path d="M110.953 143.65L121.999 144.828C123.046 144.94 124.103 144.94 125.15 144.828L136.197 143.65L132.484 147.69V155.771L126.858 154.495C124.697 154.005 122.453 154.005 120.291 154.495L114.665 155.771V147.69L110.953 143.65Z" fill="#2B3A50"/>
<path d="M229.747 147.337C229.747 146.502 228.893 145.825 227.838 145.825H216.383L219.247 163.644H221.621C222.475 163.644 223.226 163.195 223.458 162.544L224.738 158.961C224.888 158.54 225.261 158.192 225.761 158.005L228.653 156.926C229.321 156.676 229.747 156.144 229.747 155.559V147.337Z" fill="#2B3A50"/>
<path fill-rule="evenodd" clip-rule="evenodd" d="M227.838 145.825C228.893 145.825 229.747 146.502 229.747 147.337V155.559C229.747 156.144 229.321 156.676 228.653 156.926L225.761 158.005C225.261 158.192 224.888 158.54 224.738 158.961L223.458 162.544C223.226 163.195 222.475 163.644 221.621 163.644H219.247L216.383 145.825H227.838Z" fill="#2B3A50"/>
<path d="M17.4019 147.337C17.4019 146.502 18.2567 145.825 19.3111 145.825H30.7663L27.9025 163.644H25.5284C24.674 163.644 23.9236 163.195 23.6912 162.544L22.4114 158.961C22.2612 158.54 21.8881 158.192 21.3886 158.005L18.4967 156.926C17.8284 156.676 17.4019 156.144 17.4019 155.559V147.337Z" fill="#2B3A50"/>
<path fill-rule="evenodd" clip-rule="evenodd" d="M47.3313 132.461C44.6887 132.461 42.0766 133.051 39.6697 134.191L35.7267 136.059C29.0898 139.203 24.8266 146.117 24.8266 153.734V175.037C24.8266 184.465 29.7584 193.138 37.6808 197.642C41.2892 199.693 45.3313 200.768 49.4388 200.768H86.8536C91.4139 200.768 95.8147 199.013 99.2163 195.837L102.26 192.996C112.515 183.423 118.377 169.733 118.377 155.361V152.309C118.377 147.825 115.915 143.74 112.046 141.805L100.198 135.88C95.6969 133.629 90.7705 132.461 85.7808 132.461H47.3313ZM42.7343 141.261C44.1785 140.577 45.7457 140.223 47.3313 140.223H85.7808C89.6617 140.223 93.4933 141.132 96.9943 142.883L108.842 148.808C110.132 149.452 110.953 150.814 110.953 152.309V155.361C110.953 167.522 105.992 179.106 97.3151 187.206L94.2712 190.047C92.2302 191.953 89.5898 193.006 86.8536 193.006H49.4388C46.5704 193.006 43.7476 192.255 41.2278 190.823C35.6953 187.677 32.2513 181.621 32.2513 175.037V153.734C32.2513 149.164 34.8092 145.016 38.7913 143.129L42.7343 141.261Z" fill="#2B3A50"/>
<path fill-rule="evenodd" clip-rule="evenodd" d="M199.818 132.461C202.461 132.461 205.073 133.051 207.48 134.191L211.423 136.059C218.059 139.203 222.323 146.117 222.323 153.734V175.037C222.323 184.465 217.391 193.138 209.469 197.642C205.86 199.693 201.818 200.768 197.71 200.768H160.296C155.735 200.768 151.335 199.013 147.933 195.837L144.889 192.996C134.635 183.423 128.772 169.733 128.772 155.361V152.309C128.772 147.825 131.234 143.74 135.103 141.805L146.951 135.88C151.452 133.629 156.379 132.461 161.368 132.461H199.818ZM204.415 141.261C202.971 140.577 201.404 140.223 199.818 140.223H161.368C157.488 140.223 153.656 141.132 150.155 142.883L138.307 148.808C137.017 149.452 136.197 150.814 136.197 152.309V155.361C136.197 167.522 141.157 179.106 149.834 187.206L152.878 190.047C154.919 191.953 157.559 193.006 160.296 193.006H197.71C200.579 193.006 203.402 192.255 205.922 190.823C211.454 187.677 214.898 181.621 214.898 175.037V153.734C214.898 149.164 212.34 145.016 208.358 143.129L204.415 141.261Z" fill="#2B3A50"/>
</g>
<path d="M224.52 246.5H13.4797C8.47865 246.5 4.55837 250.796 5.01526 255.777L14.0978 354.777C14.4992 359.152 18.1688 362.5 22.5623 362.5H215.438C219.831 362.5 223.501 359.152 223.902 354.777L232.985 255.777C233.442 250.796 229.521 246.5 224.52 246.5Z" fill="#E6E6EE" stroke="black" stroke-width="7"/>
<path fill-rule="evenodd" clip-rule="evenodd" d="M13.3593 250C10.4615 250 8.17053 252.456 8.37128 255.346L8.53364 257.684C9.10869 255.574 11.0395 254 13.3593 254H224.641C226.96 254 228.891 255.574 229.466 257.684L229.629 255.346C229.829 252.456 227.539 250 224.641 250H13.3593Z" fill="white"/>
<path d="M99 234H125H138.75C145.377 234 150.75 228.627 150.75 222V222" stroke="black" stroke-width="6" stroke-linecap="round"/>
<path d="M137.828 288.36L137.006 286.639L136.183 288.385L134.837 290.279L132.319 288.459L133.565 286.714L135.236 285.218L133.142 284.919L130.998 284.221L131.87 281.504L134.164 282.177L135.834 283.149L135.41 281.08V278.861H138.576V281.08L138.177 283.124L139.873 282.177L142.191 281.454L143.089 284.271L140.895 284.969L138.801 285.218L140.371 286.664L141.717 288.484L139.274 290.304L137.828 288.36Z" fill="#415DF3"/>
<path fill-rule="evenodd" clip-rule="evenodd" d="M134.837 290.279L132.319 288.459L133.565 286.714L135.236 285.218L133.142 284.919L130.998 284.221L131.87 281.504L134.164 282.177L135.834 283.149L135.41 281.08V278.861H138.576V281.08L138.177 283.124L139.873 282.177L142.191 281.454L143.089 284.271L140.895 284.969L138.801 285.218L140.371 286.664L141.717 288.484L139.275 290.304L137.828 288.36L137.006 286.639L136.183 288.385L134.837 290.279ZM137.044 292.311C136.593 292.801 135.989 293.13 135.325 293.239C134.536 293.369 133.728 293.179 133.079 292.711L130.562 290.891C129.297 289.977 128.955 288.261 129.731 286.941C128.378 286.313 127.674 284.76 128.141 283.304L129.014 280.587C129.481 279.133 130.955 278.277 132.426 278.556C132.579 277.042 133.857 275.861 135.41 275.861H138.576C140.118 275.861 141.389 277.025 141.557 278.522C143.053 278.197 144.576 279.058 145.05 280.543L145.947 283.36C146.189 284.119 146.119 284.942 145.754 285.649C145.442 286.251 144.938 286.727 144.327 287.004C145.066 288.302 144.737 289.976 143.51 290.89L141.066 292.71C140.428 293.186 139.627 293.388 138.839 293.272C138.144 293.171 137.51 292.829 137.044 292.311Z" fill="white"/>
<path d="M119.612 287.288H114.576V284.645H119.612V279.41H122.553V284.645H127.589V287.288H122.553V292.673H119.612V287.288Z" fill="#415DF3"/>
<path fill-rule="evenodd" clip-rule="evenodd" d="M114.576 290.288C112.919 290.288 111.576 288.945 111.576 287.288V284.645C111.576 282.988 112.919 281.645 114.576 281.645H116.612V279.41C116.612 277.753 117.955 276.41 119.612 276.41H122.553C124.21 276.41 125.553 277.753 125.553 279.41V281.645H127.589C129.246 281.645 130.589 282.988 130.589 284.645V287.288C130.589 288.945 129.246 290.288 127.589 290.288H125.553V292.673C125.553 294.329 124.21 295.673 122.553 295.673H119.612C117.955 295.673 116.612 294.329 116.612 292.673V290.288H114.576ZM119.612 292.673H122.553V287.288H127.589V284.645H122.553V279.41H119.612V284.645H114.576V287.288H119.612V292.673Z" fill="white"/>
<path d="M105.932 288.36L105.109 286.639L104.287 288.385L102.94 290.279L100.423 288.459L101.669 286.714L103.339 285.218L101.245 284.919L99.1012 284.221L99.9738 281.504L102.267 282.177L103.938 283.149L103.514 281.08V278.861H106.68V281.08L106.281 283.124L107.976 282.177L110.295 281.454L111.192 284.271L108.998 284.969L106.904 285.218L108.475 286.664L109.821 288.484L107.378 290.304L105.932 288.36Z" fill="#415DF3"/>
<path fill-rule="evenodd" clip-rule="evenodd" d="M102.94 290.279L100.423 288.459L101.669 286.714L103.339 285.218L101.245 284.919L99.1012 284.221L99.9738 281.504L102.267 282.177L103.938 283.149L103.514 281.08V278.861H106.68V281.08L106.281 283.124L107.976 282.177L110.295 281.454L111.192 284.271L108.998 284.969L106.904 285.218L108.475 286.664L109.821 288.484L107.378 290.304L105.932 288.36L105.109 286.639L104.287 288.385L102.94 290.279ZM105.148 292.311C104.697 292.801 104.093 293.13 103.429 293.239C102.64 293.369 101.831 293.179 101.183 292.711L98.6652 290.891C97.401 289.977 97.0587 288.261 97.8348 286.941C96.4812 286.313 95.7772 284.76 96.2449 283.304L97.1174 280.587C97.5843 279.133 99.059 278.277 100.529 278.556C100.682 277.042 101.96 275.861 103.514 275.861H106.68C108.222 275.861 109.492 277.025 109.661 278.522C111.156 278.197 112.68 279.058 113.153 280.543L114.051 283.36C114.292 284.119 114.223 284.942 113.857 285.649C113.546 286.251 113.042 286.727 112.431 287.004C113.169 288.302 112.841 289.976 111.613 290.89L109.17 292.71C108.532 293.186 107.73 293.388 106.943 293.272C106.248 293.171 105.614 292.829 105.148 292.311Z" fill="white"/>
<path d="M94.5239 296.686C93.1112 296.636 91.981 296.429 91.1334 296.063C90.3024 295.697 89.6293 295.107 89.1141 294.293C88.5988 293.479 88.1667 292.324 87.8177 290.828C87.6017 289.897 87.4521 289.049 87.369 288.285C87.2859 287.52 87.2443 286.54 87.2443 285.343C87.2443 284.146 87.2859 283.166 87.369 282.401C87.4521 281.637 87.6017 280.789 87.8177 279.859C88.1667 278.363 88.5988 277.208 89.1141 276.393C89.6293 275.579 90.3107 274.989 91.1583 274.623C92.0059 274.258 93.1278 274.05 94.5239 274L94.4989 276.792C93.6513 276.825 92.9782 276.958 92.4796 277.191C91.9976 277.407 91.6071 277.781 91.3079 278.313C91.0254 278.845 90.7927 279.593 90.6099 280.557C90.4437 281.504 90.3273 282.318 90.2608 283C90.1944 283.665 90.1611 284.446 90.1611 285.343C90.1611 286.241 90.1944 287.03 90.2608 287.711C90.3273 288.376 90.4437 289.182 90.6099 290.13C90.7927 291.094 91.0254 291.842 91.3079 292.373C91.6071 292.905 91.9976 293.279 92.4796 293.495C92.9782 293.728 93.6513 293.861 94.4989 293.894L94.5239 296.686Z" fill="#415DF3"/>
<path fill-rule="evenodd" clip-rule="evenodd" d="M96.617 298.835C96.0306 299.407 95.2362 299.713 94.418 299.684C92.8099 299.628 91.2673 299.388 89.9451 298.818L89.9252 298.809C88.5138 298.188 87.3924 297.183 86.5788 295.897C85.8099 294.681 85.2818 293.162 84.8962 291.509L84.8954 291.506C84.6585 290.485 84.4852 289.517 84.3865 288.609C84.2872 287.695 84.2443 286.596 84.2443 285.343C84.2443 284.091 84.2872 282.991 84.3865 282.077C84.4852 281.169 84.6585 280.201 84.8954 279.18L84.8962 279.177C85.2818 277.524 85.8099 276.005 86.5788 274.789L86.5788 274.789C87.4019 273.488 88.5426 272.484 89.97 271.869C91.2885 271.3 92.8202 271.059 94.4168 271.002C95.2351 270.973 96.0299 271.279 96.6166 271.85C97.2033 272.422 97.531 273.208 97.5237 274.027L97.4988 276.819C97.4845 278.42 96.216 279.727 94.6165 279.79C94.3136 279.802 94.0926 279.83 93.9397 279.86C93.9214 279.864 93.9045 279.867 93.8889 279.871C93.8025 280.085 93.6805 280.471 93.561 281.096C93.4053 281.986 93.303 282.714 93.2467 283.291L93.246 283.298L93.246 283.298C93.1921 283.837 93.1611 284.514 93.1611 285.343C93.1611 286.17 93.1919 286.857 93.2463 287.417C93.3027 287.979 93.405 288.699 93.5611 289.59C93.6806 290.215 93.8025 290.601 93.8889 290.816C93.9045 290.819 93.9214 290.823 93.9397 290.826C94.0926 290.856 94.3136 290.884 94.6165 290.896C96.216 290.959 97.4845 292.267 97.4988 293.867L97.5237 296.659C97.531 297.478 97.2035 298.264 96.617 298.835ZM91.3079 292.373C91.03 291.85 90.8004 291.118 90.619 290.177C90.6188 290.176 90.6186 290.175 90.6184 290.174C90.6155 290.159 90.6127 290.145 90.6099 290.13C90.4644 289.301 90.3572 288.58 90.2881 287.968C90.2783 287.88 90.2692 287.795 90.2608 287.711C90.1944 287.03 90.1611 286.241 90.1611 285.343C90.1611 284.446 90.1944 283.665 90.2608 283C90.2697 282.908 90.2795 282.815 90.2902 282.719C90.3594 282.098 90.4659 281.377 90.6099 280.557C90.6127 280.542 90.6155 280.527 90.6184 280.512C90.6186 280.511 90.6188 280.51 90.619 280.509C90.8004 279.568 91.03 278.836 91.3079 278.313C91.3841 278.177 91.4663 278.052 91.5543 277.937C91.769 277.657 92.0188 277.438 92.3039 277.279C92.3611 277.247 92.4196 277.218 92.4796 277.191C92.9782 276.958 93.6513 276.825 94.4989 276.792L94.5238 274C94.4788 274.002 94.4341 274.003 94.3896 274.005C93.2432 274.055 92.2865 274.214 91.5194 274.483C91.4451 274.509 91.3726 274.536 91.3019 274.564C91.2883 274.569 91.2747 274.575 91.2612 274.58C91.2265 274.594 91.1922 274.609 91.1583 274.623C90.3107 274.989 89.6293 275.579 89.1141 276.393C89.0127 276.553 88.9146 276.727 88.8197 276.913C88.8094 276.934 88.7991 276.954 88.7889 276.975C88.4143 277.728 88.0906 278.689 87.8177 279.859C87.8052 279.913 87.7928 279.966 87.7807 280.02C87.7778 280.033 87.7749 280.046 87.772 280.059C87.5804 280.911 87.4461 281.692 87.369 282.401C87.3583 282.5 87.3483 282.602 87.3389 282.708C87.3387 282.71 87.3385 282.712 87.3383 282.715C87.2757 283.428 87.2443 284.304 87.2443 285.343C87.2443 286.394 87.2764 287.279 87.3405 287.996C87.3407 287.999 87.3409 288.001 87.3411 288.003C87.3498 288.1 87.3591 288.194 87.369 288.285C87.4461 288.994 87.5804 289.775 87.772 290.628C87.7749 290.64 87.7778 290.653 87.7807 290.666C87.7928 290.72 87.8052 290.774 87.8177 290.828C88.0906 291.997 88.4143 292.959 88.7889 293.712C88.7991 293.732 88.8094 293.753 88.8197 293.773C88.9146 293.959 89.0127 294.133 89.1141 294.293C89.6293 295.107 90.3024 295.697 91.1334 296.063C91.174 296.081 91.2153 296.098 91.2573 296.114C91.2708 296.12 91.2845 296.125 91.2982 296.131C91.3701 296.159 91.4439 296.186 91.5195 296.212C92.2847 296.475 93.2414 296.632 94.3896 296.681C94.4341 296.683 94.4788 296.685 94.5238 296.686L94.4989 293.894C93.6513 293.861 92.9782 293.728 92.4796 293.495C92.4191 293.468 92.36 293.438 92.3023 293.406C92.2962 293.403 92.29 293.399 92.2839 293.396C92.0071 293.238 91.7639 293.023 91.5543 292.749C91.4663 292.634 91.3841 292.509 91.3079 292.373Z" fill="white"/>
<path d="M147 274C148.413 274.05 149.543 274.258 150.39 274.623C151.221 274.989 151.895 275.579 152.41 276.393C152.925 277.208 153.357 278.363 153.706 279.859C153.922 280.789 154.072 281.637 154.155 282.401C154.238 283.166 154.28 284.146 154.28 285.343C154.28 286.54 154.238 287.52 154.155 288.285C154.072 289.049 153.922 289.897 153.706 290.828C153.357 292.323 152.925 293.479 152.41 294.293C151.895 295.107 151.213 295.697 150.366 296.063C149.518 296.429 148.396 296.636 147 296.686L147.025 293.894C147.873 293.861 148.546 293.728 149.044 293.495C149.526 293.279 149.917 292.905 150.216 292.373C150.498 291.841 150.731 291.094 150.914 290.13C151.08 289.182 151.197 288.368 151.263 287.686C151.329 287.022 151.363 286.241 151.363 285.343C151.363 284.446 151.329 283.656 151.263 282.975C151.197 282.31 151.08 281.504 150.914 280.557C150.731 279.593 150.498 278.845 150.216 278.313C149.917 277.781 149.526 277.407 149.044 277.191C148.546 276.958 147.873 276.825 147.025 276.792L147 274Z" fill="#415DF3"/>
<path fill-rule="evenodd" clip-rule="evenodd" d="M144.907 271.851C145.493 271.28 146.288 270.973 147.106 271.002C148.714 271.059 150.257 271.298 151.579 271.869L151.599 271.877C153.01 272.498 154.131 273.503 154.945 274.789C155.714 276.005 156.242 277.524 156.628 279.177L156.628 279.18C156.865 280.201 157.039 281.169 157.137 282.077C157.237 282.991 157.28 284.091 157.28 285.343C157.28 286.596 157.237 287.695 157.137 288.609C157.039 289.517 156.865 290.485 156.628 291.506L156.628 291.509C156.242 293.162 155.714 294.681 154.945 295.897L154.945 295.897C154.122 297.198 152.981 298.202 151.554 298.818C150.235 299.386 148.704 299.627 147.107 299.684C146.289 299.714 145.494 299.407 144.907 298.836C144.321 298.264 143.993 297.478 144 296.659L144.025 293.867C144.039 292.267 145.308 290.959 146.907 290.896C147.21 290.884 147.431 290.856 147.584 290.826C147.602 290.823 147.619 290.819 147.635 290.816C147.721 290.601 147.843 290.215 147.963 289.59C148.119 288.7 148.221 287.973 148.277 287.395L148.278 287.388L148.278 287.388C148.332 286.849 148.363 286.172 148.363 285.343C148.363 284.517 148.332 283.829 148.278 283.27C148.221 282.708 148.119 281.987 147.963 281.096C147.843 280.471 147.721 280.085 147.635 279.871C147.619 279.867 147.602 279.864 147.584 279.86C147.431 279.83 147.21 279.802 146.907 279.79C145.308 279.727 144.039 278.42 144.025 276.819L144 274.027C143.993 273.208 144.32 272.422 144.907 271.851ZM150.216 278.313C150.494 278.836 150.723 279.568 150.905 280.509C150.905 280.51 150.905 280.511 150.905 280.512C150.908 280.527 150.911 280.542 150.914 280.557C151.059 281.385 151.167 282.106 151.236 282.719C151.246 282.806 151.255 282.892 151.263 282.975C151.329 283.656 151.363 284.446 151.363 285.343C151.363 286.241 151.329 287.022 151.263 287.687C151.254 287.778 151.244 287.871 151.234 287.967C151.164 288.588 151.058 289.309 150.914 290.13C150.911 290.145 150.908 290.159 150.905 290.174C150.905 290.175 150.905 290.176 150.905 290.177C150.723 291.118 150.494 291.85 150.216 292.373C150.14 292.509 150.058 292.634 149.97 292.749C149.755 293.029 149.505 293.249 149.22 293.407C149.163 293.439 149.104 293.468 149.044 293.495C148.546 293.728 147.873 293.861 147.025 293.894L147 296.686C147.045 296.685 147.09 296.683 147.134 296.681C148.281 296.631 149.237 296.472 150.004 296.203C150.079 296.177 150.151 296.15 150.222 296.122C150.236 296.117 150.249 296.111 150.263 296.106C150.297 296.092 150.332 296.078 150.366 296.063C151.213 295.697 151.895 295.107 152.41 294.293C152.511 294.133 152.609 293.959 152.704 293.773C152.714 293.753 152.725 293.732 152.735 293.712C153.11 292.959 153.433 291.997 153.706 290.828C153.719 290.774 153.731 290.72 153.743 290.666C153.746 290.653 153.749 290.64 153.752 290.628C153.943 289.775 154.078 288.994 154.155 288.285C154.166 288.186 154.176 288.084 154.185 287.979C154.185 287.976 154.185 287.974 154.186 287.972C154.248 287.258 154.28 286.382 154.28 285.343C154.28 284.292 154.247 283.408 154.183 282.69C154.183 282.687 154.183 282.685 154.183 282.683C154.174 282.586 154.165 282.492 154.155 282.401C154.078 281.692 153.943 280.911 153.752 280.059C153.749 280.046 153.746 280.033 153.743 280.02C153.731 279.966 153.719 279.913 153.706 279.859C153.433 278.689 153.11 277.728 152.735 276.975C152.725 276.954 152.714 276.934 152.704 276.913C152.609 276.727 152.511 276.553 152.41 276.393C151.895 275.579 151.221 274.989 150.39 274.623C150.35 274.606 150.309 274.589 150.267 274.572C150.253 274.566 150.239 274.561 150.226 274.556C150.154 274.527 150.08 274.5 150.004 274.474C149.239 274.211 148.282 274.055 147.134 274.005C147.09 274.003 147.045 274.002 147 274L147.025 276.792C147.873 276.825 148.546 276.958 149.044 277.191C149.105 277.218 149.164 277.248 149.222 277.28C149.228 277.283 149.234 277.287 149.24 277.29C149.517 277.448 149.76 277.663 149.97 277.937C150.058 278.052 150.14 278.177 150.216 278.313Z" fill="white"/>
<path fill-rule="evenodd" clip-rule="evenodd" d="M70.7158 296.188L70.7001 296.183C69.27 295.734 67.9561 294.847 67.1617 293.372C66.4565 292.062 66.2907 290.542 66.3307 289.123C66.3529 288.334 66.678 287.624 67.1927 287.102C66.6736 286.097 66.504 285.008 66.504 283.997C66.504 282.734 66.697 281.307 67.4586 280.088L67.4716 280.068C68.3216 278.732 69.6222 277.994 70.9235 277.622L70.9388 277.618C72.1571 277.277 73.6373 277.158 75.2379 277.158C76.8011 277.158 78.2752 277.283 79.4961 277.66C80.836 278.056 82.118 278.858 82.9189 280.248C83.6224 281.454 83.8266 282.862 83.8467 284.149C83.8578 284.857 83.6188 285.541 83.1772 286.086C83.2229 286.159 83.2672 286.235 83.31 286.311C83.9407 287.414 84.1462 288.634 84.1462 289.781C84.1462 291.086 83.9361 292.518 83.1751 293.75C82.3141 295.144 80.9634 295.894 79.6291 296.262C78.4082 296.602 76.911 296.72 75.2877 296.72C73.5844 296.72 72.0043 296.584 70.7158 296.188ZM76.0107 290.479L75.9332 290.711L76.0107 290.479Z" fill="white"/>
<path d="M75.2877 293.72C73.6922 293.72 72.4623 293.587 71.5981 293.321C70.7505 293.055 70.1522 292.598 69.8031 291.95C69.4541 291.301 69.2962 290.387 69.3295 289.207H72.3959C72.4125 289.722 72.5122 290.121 72.695 290.404C72.8778 290.67 73.1853 290.861 73.6174 290.977C74.0662 291.094 74.6977 291.152 75.5121 291.152C76.4927 291.152 77.1658 291.06 77.5314 290.878C77.897 290.678 78.0799 290.321 78.0799 289.806C78.0799 289.473 77.9718 289.199 77.7558 288.983C77.5563 288.75 77.2073 288.551 76.7087 288.385C76.2101 288.218 75.5038 288.052 74.5897 287.886C73.2601 287.637 72.2297 287.362 71.4984 287.063C70.7837 286.748 70.2685 286.357 69.9527 285.892C69.6536 285.41 69.504 284.778 69.504 283.997C69.504 282.983 69.6702 282.21 70.0026 281.678C70.3516 281.13 70.9333 280.739 71.7477 280.507C72.5787 280.274 73.7421 280.158 75.2379 280.158C76.7004 280.158 77.8306 280.282 78.6283 280.532C79.4261 280.764 79.9912 281.172 80.3236 281.753C80.656 282.318 80.8305 283.133 80.8471 284.196H77.8555C77.8223 283.631 77.6145 283.249 77.2323 283.05C76.8666 282.834 76.1935 282.725 75.2129 282.725C74.1825 282.725 73.4762 282.817 73.0939 283C72.7116 283.183 72.5205 283.523 72.5205 284.022C72.5205 284.288 72.7781 284.529 73.2933 284.745C73.8252 284.944 74.8473 285.218 76.3597 285.568C77.6062 285.85 78.5702 286.166 79.2516 286.515C79.933 286.847 80.415 287.271 80.6975 287.786C80.9967 288.301 81.1462 288.966 81.1462 289.781C81.1462 290.811 80.9717 291.609 80.6227 292.174C80.2737 292.739 79.6754 293.138 78.8278 293.371C77.9968 293.603 76.8168 293.72 75.2877 293.72Z" fill="#415DF3"/>
<path d="M59.118 293.72C57.9047 293.72 56.9657 293.603 56.3009 293.371C55.6527 293.121 55.1873 292.714 54.9048 292.149C54.6389 291.567 54.5059 290.753 54.5059 289.706C54.5059 288.476 54.6971 287.529 55.0793 286.864C55.4616 286.182 56.1098 285.7 57.0239 285.418C57.9379 285.135 59.2343 284.994 60.9129 284.994H62.8824V284.845C62.8824 284.014 62.6996 283.448 62.3339 283.149C61.9683 282.85 61.2786 282.701 60.2647 282.701C59.3506 282.701 58.7274 282.825 58.395 283.075C58.0792 283.307 57.9379 283.764 57.9712 284.446H54.9297C54.8799 283.316 55.0045 282.451 55.3037 281.853C55.6195 281.238 56.1596 280.806 56.9241 280.557C57.7053 280.291 58.8188 280.158 60.2647 280.158C61.7107 280.158 62.8242 280.299 63.6053 280.582C64.4031 280.864 64.9682 281.338 65.3006 282.003C65.633 282.667 65.7992 283.615 65.7992 284.845V293.495H62.9572V291.95H62.7577C62.2924 292.631 61.8021 293.096 61.2869 293.346C60.7716 293.595 60.0487 293.72 59.118 293.72ZM57.5474 289.481C57.5474 290.113 57.6887 290.545 57.9712 290.778C58.2703 291.011 58.8271 291.127 59.6415 291.127C60.4725 291.127 61.1124 291.019 61.5611 290.803C62.0098 290.587 62.3256 290.221 62.5084 289.706C62.7079 289.191 62.8242 288.451 62.8574 287.487L60.3894 287.512C59.6415 287.529 59.0598 287.595 58.6443 287.711C58.2454 287.828 57.9629 288.027 57.7967 288.31C57.6305 288.576 57.5474 288.966 57.5474 289.481Z" fill="#415DF3"/>
<path fill-rule="evenodd" clip-rule="evenodd" d="M55.3098 296.202C55.281 296.192 55.2524 296.182 55.2239 296.171C53.9523 295.681 52.8732 294.794 52.2215 293.491C52.2059 293.459 52.1909 293.428 52.1764 293.396C51.6529 292.251 51.5059 290.942 51.5059 289.706C51.5059 288.395 51.678 287.017 52.2527 285.801C52.0654 285.432 51.9521 285.017 51.9327 284.578C51.874 283.247 51.9858 281.78 52.6204 280.511L52.635 280.483C53.368 279.055 54.5987 278.164 55.9755 277.711C57.2141 277.292 58.7059 277.158 60.2647 277.158C61.8366 277.158 63.3535 277.302 64.6163 277.757C66.0321 278.261 67.2571 279.207 67.9839 280.661C68.6182 281.93 68.7992 283.417 68.7992 284.845V293.495C68.7992 295.152 67.456 296.495 65.7992 296.495H62.9572C62.5974 296.495 62.2524 296.432 61.9327 296.316C61.0108 296.628 60.0288 296.72 59.118 296.72C57.7743 296.72 56.4428 296.599 55.3098 296.202ZM62.9572 291.95V293.495H65.7992V284.845C65.7992 284.11 65.7399 283.477 65.6214 282.944C65.5414 282.584 65.4345 282.27 65.3006 282.003C65.0966 281.595 64.805 281.259 64.4258 280.995C64.3565 280.946 64.2844 280.901 64.2093 280.857C64.0255 280.751 63.8242 280.659 63.6053 280.582C62.8242 280.299 61.7107 280.158 60.2647 280.158C58.8188 280.158 57.7053 280.291 56.9241 280.557C56.8195 280.591 56.719 280.628 56.6227 280.669C56.6147 280.673 56.6067 280.676 56.5988 280.68C56.5903 280.683 56.5818 280.687 56.5733 280.691C56.1565 280.876 55.821 281.128 55.5667 281.446C55.4664 281.571 55.3787 281.707 55.3037 281.853C55.1461 282.168 55.0369 282.557 54.9762 283.02C54.9546 283.185 54.9391 283.359 54.9297 283.542C54.9155 283.822 54.9155 284.123 54.9297 284.446H57.9712C57.9649 284.316 57.9649 284.194 57.9712 284.081C57.9888 283.764 58.0556 283.511 58.1716 283.321C58.2325 283.222 58.307 283.139 58.395 283.075C58.7274 282.825 59.3506 282.701 60.2647 282.701C60.4979 282.701 60.714 282.708 60.9129 282.724C61.5787 282.777 62.0524 282.919 62.3339 283.149C62.4161 283.217 62.4891 283.297 62.5529 283.391C62.6171 283.486 62.6719 283.595 62.7174 283.717C62.7972 283.932 62.848 284.188 62.8699 284.487C62.8782 284.6 62.8824 284.719 62.8824 284.845V284.994H60.9129C60.8833 284.994 60.8538 284.994 60.8244 284.994C60.7691 284.994 60.7142 284.995 60.6597 284.995C60.5597 284.996 60.4611 284.997 60.364 284.999C60.3538 285 60.3437 285 60.3336 285C60.3105 285.001 60.2876 285.001 60.2647 285.002C60.1844 285.003 60.1051 285.006 60.0268 285.008C59.9675 285.01 59.9086 285.013 59.8504 285.015C59.8421 285.015 59.8339 285.016 59.8256 285.016C59.1245 285.046 58.5063 285.107 57.9712 285.198C57.9614 285.2 57.9517 285.201 57.942 285.203C57.9327 285.205 57.9234 285.206 57.9141 285.208C57.5853 285.266 57.2886 285.336 57.0239 285.418C56.5075 285.578 56.076 285.801 55.7294 286.088C55.4623 286.309 55.2457 286.567 55.0793 286.864C55.0257 286.957 54.9758 287.056 54.9297 287.16C54.8899 287.251 54.8528 287.345 54.8186 287.444C54.6101 288.044 54.5059 288.798 54.5059 289.706C54.5059 290.753 54.6389 291.567 54.9048 292.149C55.1873 292.714 55.6527 293.121 56.3009 293.371C56.3971 293.404 56.499 293.435 56.6067 293.464C57.2432 293.634 58.0803 293.72 59.118 293.72C59.3005 293.72 59.475 293.715 59.6415 293.705C59.7521 293.699 59.8592 293.69 59.9627 293.68C60.3192 293.643 60.6339 293.582 60.9068 293.495C61.044 293.452 61.1707 293.402 61.2869 293.346C61.6586 293.166 62.0174 292.873 62.3631 292.469C62.4966 292.312 62.6281 292.139 62.7577 291.95H62.9572ZM57.8473 290.652C57.885 290.699 57.9263 290.741 57.9712 290.778C58.2012 290.957 58.5834 291.067 59.118 291.108C59.2787 291.121 59.4532 291.127 59.6415 291.127C59.84 291.127 60.0276 291.121 60.2043 291.108C60.6132 291.08 60.9636 291.018 61.2557 290.924C61.3658 290.888 61.4676 290.848 61.5611 290.803C61.7297 290.722 61.8796 290.619 62.0107 290.496C62.2284 290.291 62.3943 290.027 62.5084 289.706C62.5911 289.492 62.6594 289.24 62.7135 288.95C62.7478 288.766 62.7764 288.566 62.7992 288.351C62.8114 288.237 62.8219 288.118 62.8308 287.994C62.8425 287.833 62.8514 287.664 62.8574 287.487L60.3894 287.512C60.2 287.516 60.0212 287.524 59.8531 287.534C59.3575 287.566 58.9546 287.625 58.6443 287.711C58.3056 287.81 58.0508 287.969 57.8799 288.188C57.8495 288.226 57.8218 288.267 57.7967 288.31C57.7931 288.316 57.7895 288.321 57.786 288.327C57.6269 288.593 57.5474 288.977 57.5474 289.481C57.5474 290.013 57.6473 290.403 57.8473 290.652Z" fill="white"/>
<path d="M39.5577 275.346H42.5992V282.227H42.7986C43.2141 281.446 43.6795 280.906 44.1947 280.606C44.7099 280.307 45.4246 280.158 46.3387 280.158C47.6184 280.158 48.599 280.307 49.2804 280.606C49.9618 280.906 50.4438 281.421 50.7263 282.152C51.0255 282.867 51.1751 283.889 51.1751 285.218V293.495H48.1336V285.169C48.1336 284.238 47.9591 283.606 47.6101 283.274C47.2777 282.925 46.6378 282.75 45.6905 282.75C44.8761 282.75 44.2446 282.867 43.7958 283.099C43.3637 283.332 43.0562 283.731 42.8734 284.296C42.6906 284.861 42.5992 285.667 42.5992 286.714V293.495H39.5577V275.346Z" fill="#415DF3"/>
<path fill-rule="evenodd" clip-rule="evenodd" d="M36.5577 275.346C36.5577 273.689 37.9009 272.346 39.5577 272.346H42.5992C44.256 272.346 45.5992 273.689 45.5992 275.346V277.183C45.8494 277.165 46.0967 277.158 46.3387 277.158C47.777 277.158 49.2448 277.314 50.4864 277.859C51.9284 278.493 52.9527 279.618 53.5096 281.032C54.0219 282.278 54.1751 283.75 54.1751 285.218V293.495C54.1751 295.152 52.8319 296.495 51.1751 296.495H48.1336C46.8883 296.495 45.8201 295.736 45.3664 294.656C44.9127 295.736 43.8445 296.495 42.5992 296.495H39.5577C37.9009 296.495 36.5577 295.152 36.5577 293.495V275.346ZM47.5697 283.234C47.5836 283.247 47.5971 283.26 47.6101 283.274C47.9591 283.606 48.1336 284.238 48.1336 285.169V293.495H51.1751V285.218C51.1751 283.889 51.0255 282.867 50.7263 282.152C50.4438 281.421 49.9618 280.906 49.2804 280.606C49.1246 280.538 48.9531 280.477 48.766 280.425C48.1349 280.247 47.3257 280.158 46.3387 280.158C46.1101 280.158 45.8941 280.167 45.6905 280.186C45.6598 280.189 45.6293 280.192 45.5992 280.195C45.0298 280.256 44.5617 280.393 44.1947 280.606C43.7959 280.838 43.427 281.214 43.0879 281.734C43.083 281.742 43.078 281.749 43.0731 281.757C42.9793 281.903 42.8878 282.059 42.7986 282.227H42.5992V275.346H39.5577V293.495H42.5992V286.714C42.5992 286.148 42.6259 285.652 42.6794 285.227C42.7102 284.982 42.75 284.76 42.7986 284.561C42.8216 284.468 42.8465 284.379 42.8734 284.296C43.0562 283.731 43.3637 283.332 43.7958 283.099C43.9055 283.043 44.026 282.993 44.1575 282.95C44.508 282.835 44.9361 282.77 45.4418 282.754C45.5227 282.752 45.6056 282.75 45.6905 282.75C45.9255 282.75 46.1415 282.761 46.3387 282.783C46.9053 282.844 47.3156 282.995 47.5697 283.234ZM45.0876 285.802C45.0876 285.802 45.088 285.802 45.0888 285.801L45.0876 285.802Z" fill="white"/>
<path d="M28 288.434H32.7367V292.997H28V288.434ZM28 278.637H32.7367V283.199H28V278.637Z" fill="#415DF3"/>
<path fill-rule="evenodd" clip-rule="evenodd" d="M34.2034 285.817C35.1184 285.303 35.7367 284.323 35.7367 283.199V278.637C35.7367 276.98 34.3935 275.637 32.7367 275.637H28C26.3431 275.637 25 276.98 25 278.637V283.199C25 284.323 25.6183 285.303 26.5333 285.817C25.6183 286.331 25 287.31 25 288.434V292.997C25 294.653 26.3431 295.997 28 295.997H32.7367C34.3935 295.997 35.7367 294.653 35.7367 292.997V288.434C35.7367 287.31 35.1184 286.331 34.2034 285.817ZM28 288.434V292.997H32.7367V288.434H28ZM28 278.637V283.199H32.7367V278.637H28Z" fill="white"/>
<defs>
<filter id="filter0_d_3520_2" x="0" y="150.428" width="244.922" height="87.8609" filterUnits="userSpaceOnUse" color-interpolation-filters="sRGB">
<feFlood flood-opacity="0" result="BackgroundImageFix"/>
<feColorMatrix in="SourceAlpha" type="matrix" values="0 0 0 0 0 0 0 0 0 0 0 0 0 0 0 0 0 0 127 0" result="hardAlpha"/>
<feOffset dy="4"/>
<feGaussianBlur stdDeviation="2"/>
<feComposite in2="hardAlpha" operator="out"/>
<feColorMatrix type="matrix" values="0 0 0 0 0 0 0 0 0 0 0 0 0 0 0 0 0 0 0.25 0"/>
<feBlend mode="normal" in2="BackgroundImageFix" result="effect1_dropShadow_3520_2"/>
<feBlend mode="normal" in="SourceGraphic" in2="effect1_dropShadow_3520_2" result="shape"/>
</filter>
<filter id="filter1_d_3520_2" x="16.4707" y="27.7595" width="211.214" height="292.24" filterUnits="userSpaceOnUse" color-interpolation-filters="sRGB">
<feFlood flood-opacity="0" result="BackgroundImageFix"/>
<feColorMatrix in="SourceAlpha" type="matrix" values="0 0 0 0 0 0 0 0 0 0 0 0 0 0 0 0 0 0 127 0" result="hardAlpha"/>
<feOffset dy="4"/>
<feGaussianBlur stdDeviation="2"/>
<feComposite in2="hardAlpha" operator="out"/>
<feColorMatrix type="matrix" values="0 0 0 0 0 0 0 0 0 0 0 0 0 0 0 0 0 0 0.25 0"/>
<feBlend mode="normal" in2="BackgroundImageFix" result="effect1_dropShadow_3520_2"/>
<feBlend mode="normal" in="SourceGraphic" in2="effect1_dropShadow_3520_2" result="shape"/>
</filter>
<filter id="filter2_d_3520_2" x="13.4019" y="132.461" width="220.345" height="76.3069" filterUnits="userSpaceOnUse" color-interpolation-filters="sRGB">
<feFlood flood-opacity="0" result="BackgroundImageFix"/>
<feColorMatrix in="SourceAlpha" type="matrix" values="0 0 0 0 0 0 0 0 0 0 0 0 0 0 0 0 0 0 127 0" result="hardAlpha"/>
<feOffset dy="4"/>
<feGaussianBlur stdDeviation="2"/>
<feComposite in2="hardAlpha" operator="out"/>
<feColorMatrix type="matrix" values="0 0 0 0 0 0 0 0 0 0 0 0 0 0 0 0 0 0 0.4 0"/>
<feBlend mode="normal" in2="BackgroundImageFix" result="effect1_dropShadow_3520_2"/>
<feBlend mode="normal" in="SourceGraphic" in2="effect1_dropShadow_3520_2" result="shape"/>
</filter>
<linearGradient id="paint0_linear_3520_2" x1="164.835" y1="157" x2="164.835" y2="191.456" gradientUnits="userSpaceOnUse">
<stop stop-color="#283A99"/>
<stop offset="1" stop-color="#4361FF"/>
</linearGradient>
<linearGradient id="paint1_linear_3520_2" x1="84.3347" y1="157" x2="84.3347" y2="191.456" gradientUnits="userSpaceOnUse">
<stop stop-color="#283A99"/>
<stop offset="1" stop-color="#4361FF"/>
</linearGradient>
</defs>
</svg>
