<svg class="profile-picture" viewBox="0 0 245 333" fill="none" xmlns="http://www.w3.org/2000/svg">
<g filter="url(#filter0_d_3551_5)">
<path d="M7.85882 185.719C6.91901 179.055 10.5786 172.592 16.7768 169.97L22.9052 167.377C24.3876 166.75 26.0999 167.418 26.766 168.883L29.2814 174.417L35.4699 236.303C35.6933 238.536 33.4534 240.201 31.3793 239.342L22.2732 235.574C17.4145 233.564 13.9813 229.134 13.2471 223.927L7.85882 185.719Z" fill="#EDD5BE"/>
<path d="M7.85882 185.719C6.91901 179.055 10.5786 172.592 16.7768 169.97L22.9052 167.377C24.3876 166.75 26.0999 167.418 26.766 168.883L29.2814 174.417L35.4699 236.303C35.6933 238.536 33.4534 240.201 31.3793 239.342L22.2732 235.574C17.4145 233.564 13.9813 229.134 13.2471 223.927L7.85882 185.719Z" fill="#EDD5BE"/>
<path fill-rule="evenodd" clip-rule="evenodd" d="M21.4587 163.958C24.7943 162.547 28.6469 164.05 30.1456 167.347C31.9791 171.381 33.1393 175.688 33.5802 180.096L39.1639 235.933C39.6664 240.959 34.6267 244.704 29.9599 242.772L20.8538 239.004C14.7804 236.491 10.489 230.954 9.57112 224.445L4.18288 186.238C3.00812 177.908 7.58259 169.829 15.3303 166.551L21.4587 163.958ZM25.7168 176.079C25.6715 175.627 25.5524 175.185 25.3642 174.771C24.4301 172.716 22.0289 171.779 19.95 172.658L18.2232 173.389C13.5746 175.356 10.8299 180.203 11.5348 185.201L16.923 223.408C17.4738 227.313 20.0486 230.636 23.6927 232.144C27.2941 233.634 31.1833 230.744 30.7954 226.866L25.7168 176.079Z" fill="#131520"/>
<path d="M237.063 185.719C238.003 179.055 234.343 172.592 228.145 169.97L222.017 167.377C220.534 166.75 218.822 167.418 218.156 168.883L215.64 174.417L209.452 236.303C209.229 238.536 211.468 240.201 213.543 239.342L222.649 235.574C227.507 233.564 230.941 229.134 231.675 223.927L237.063 185.719Z" fill="#EDD5BE"/>
<path d="M237.063 185.719C238.003 179.055 234.343 172.592 228.145 169.97L222.017 167.377C220.534 166.75 218.822 167.418 218.156 168.883L215.64 174.417L209.452 236.303C209.229 238.536 211.468 240.201 213.543 239.342L222.649 235.574C227.507 233.564 230.941 229.134 231.675 223.927L237.063 185.719Z" fill="#EDD5BE"/>
<path fill-rule="evenodd" clip-rule="evenodd" d="M223.463 163.958C220.128 162.547 216.275 164.05 214.776 167.347C212.943 171.381 211.783 175.688 211.342 180.096L205.758 235.933C205.255 240.959 210.295 244.704 214.962 242.772L224.068 239.004C230.141 236.491 234.433 230.954 235.351 224.445L240.739 186.238C241.914 177.908 237.339 169.829 229.592 166.551L223.463 163.958ZM219.205 176.079C219.25 175.627 219.369 175.185 219.558 174.77C220.492 172.715 222.893 171.779 224.972 172.658L226.699 173.389C231.347 175.356 234.092 180.203 233.387 185.201L227.999 223.408C227.448 227.313 224.873 230.636 221.229 232.144C217.628 233.634 213.739 230.744 214.126 226.866L219.205 176.079Z" fill="#131520"/>
</g>
<g filter="url(#filter1_d_3551_5)">
<path d="M31.9597 53.4188L121.731 44.4855L212.22 51.1855L219.554 148.754C220.407 160.101 219.953 171.507 218.201 182.75L208.958 232.091C206.515 247.768 201.036 269.372 191.956 282.383C184.933 292.447 176.188 301.191 166.123 308.213L156.845 314.686C148.636 320.414 138.444 322.539 128.63 320.57C124.072 319.656 119.382 319.616 114.809 320.452L114.528 320.504C103.598 322.503 92.3391 319.643 83.6891 312.669L75.522 306.084C68.5275 300.445 62.205 294.02 56.6793 286.935C44.2419 270.989 36.1447 252.095 33.1758 232.091L25.7919 182.34C24.1636 171.368 23.7696 160.248 24.6175 149.189L31.9597 53.4188Z" fill="#EDD5BE"/>
<path fill-rule="evenodd" clip-rule="evenodd" d="M121.684 40.7595L215.682 47.7194L223.256 148.476C224.13 160.106 223.665 171.798 221.869 183.322L213.137 239.354C210.607 255.589 204.404 271.033 195.001 284.507C187.727 294.93 178.67 303.986 168.247 311.258L158.969 317.731C149.93 324.038 138.706 326.378 127.9 324.21C123.803 323.388 119.587 323.352 115.477 324.104L115.196 324.156C103.203 326.349 90.85 323.211 81.359 315.559L73.1919 308.974C65.9758 303.156 59.4529 296.527 53.752 289.218C40.9204 272.767 32.5666 253.274 29.5037 232.636L22.1198 182.885C20.4507 171.639 20.0469 160.241 20.916 148.905L28.496 50.0329L121.684 40.7595ZM121.778 48.2115L35.4233 56.8049L28.3189 149.473C27.4923 160.256 27.8764 171.097 29.464 181.795L36.8479 231.546C39.7227 250.916 47.5632 269.211 59.6065 284.652C64.9571 291.512 71.0792 297.734 77.852 303.194L86.0191 309.779C93.8282 316.075 103.992 318.657 113.86 316.852L114.141 316.801C119.176 315.88 124.341 315.924 129.36 316.931C138.181 318.7 147.342 316.79 154.721 311.642L163.999 305.169C173.705 298.397 182.139 289.964 188.912 280.258C197.669 267.71 203.445 253.329 205.801 238.211L214.533 182.179C216.241 171.217 216.684 160.095 215.852 149.033L208.758 54.6517L121.778 48.2115Z" fill="#131520"/>
<path fill-rule="evenodd" clip-rule="evenodd" d="M68.6321 112.792C68.6321 111.562 69.6294 110.565 70.8595 110.565H92.4977C98.1852 110.565 103.823 111.624 109.123 113.687C113.908 115.549 118.998 116.505 124.132 116.505H124.268C129.521 116.505 134.735 115.602 139.683 113.837L140.167 113.664C145.915 111.613 151.973 110.565 158.076 110.565H176.29C177.52 110.565 178.517 111.562 178.517 112.792C178.517 114.023 177.52 115.02 176.29 115.02H158.076C152.483 115.02 146.931 115.981 141.664 117.86L141.18 118.033C135.752 119.97 130.031 120.96 124.268 120.96H124.132C118.445 120.96 112.807 119.901 107.507 117.838C102.722 115.975 97.6324 115.02 92.4977 115.02H70.8595C69.6294 115.02 68.6321 114.023 68.6321 112.792Z" fill="#E2CBB4"/>
<path fill-rule="evenodd" clip-rule="evenodd" d="M122.832 310.288C122.012 310.288 121.347 309.624 121.347 308.804V301.379C121.347 300.559 122.012 299.894 122.832 299.894C123.652 299.894 124.317 300.559 124.317 301.379V308.804C124.317 309.624 123.652 310.288 122.832 310.288Z" fill="#E2CBB4"/>
</g>
<path d="M102.599 264.409C101.852 263.992 100.99 264.454 100.674 265.442C100.506 265.968 100.527 266.538 100.697 267.019C100.689 267.044 100.682 267.07 100.674 267.096C100.359 268.224 100.709 269.525 101.456 270.001L104.003 271.625C116.814 279.789 131.289 279.608 144.009 271.125L145.715 269.987C146.458 269.492 146.793 268.182 146.465 267.062C146.461 267.048 146.457 267.033 146.452 267.019C146.626 266.529 146.644 265.946 146.465 265.412C146.138 264.432 145.27 263.988 144.528 264.422L142.821 265.417C130.843 272.408 117.211 272.557 105.146 265.829L102.599 264.409Z" fill="#F9FAFB"/>
<path fill-rule="evenodd" clip-rule="evenodd" d="M88.4756 259.832C89.2784 258.9 90.6848 258.795 91.6169 259.598L104.37 270.58C104.661 270.83 104.977 271.05 105.312 271.236L106.872 272.099C117.605 278.041 130.711 277.717 141.138 271.252C141.399 271.091 141.644 270.905 141.871 270.698L154 259.64C154.909 258.811 156.318 258.876 157.147 259.785C157.975 260.694 157.91 262.103 157.001 262.931L144.872 273.99C144.443 274.381 143.979 274.732 143.485 275.039C131.688 282.353 116.859 282.719 104.715 275.997L103.155 275.133C102.552 274.8 101.985 274.405 101.463 273.955L88.7101 262.973C87.7779 262.171 87.6729 260.764 88.4756 259.832Z" fill="#131520"/>
<path fill-rule="evenodd" clip-rule="evenodd" d="M88.1117 260.419C88.5902 259.286 89.8968 258.755 91.0301 259.234L94.892 260.864C113.183 268.587 133.852 268.416 152.013 260.392L154.601 259.248C155.726 258.751 157.041 259.26 157.538 260.385C158.035 261.511 157.526 262.826 156.401 263.323L153.813 264.466C134.529 272.987 112.582 273.169 93.1592 264.968L89.2973 263.338C88.164 262.859 87.6332 261.553 88.1117 260.419Z" fill="#131520"/>
<path fill-rule="evenodd" clip-rule="evenodd" d="M96.8459 231.587C96.8459 230.357 97.8431 229.36 99.0733 229.36H108.066C109.985 229.36 111.861 229.932 113.453 231.003L120.674 235.861C122.428 237.04 124.722 237.04 126.476 235.861L133.696 231.003C135.289 229.932 137.164 229.36 139.084 229.36H148.076C149.306 229.36 150.303 230.357 150.303 231.587C150.303 232.817 149.306 233.814 148.076 233.814H139.084C138.05 233.814 137.04 234.123 136.183 234.699L128.962 239.557C125.705 241.748 121.445 241.748 118.187 239.557L110.967 234.699C110.109 234.123 109.099 233.814 108.066 233.814H99.0733C97.8431 233.814 96.8459 232.817 96.8459 231.587Z" fill="#131520"/>
<path fill-rule="evenodd" clip-rule="evenodd" d="M129.022 213.932C125.723 211.733 121.426 211.733 118.128 213.932L111.446 218.387C110.422 219.069 109.04 218.793 108.357 217.769C107.675 216.745 107.951 215.363 108.975 214.68L115.657 210.225C120.452 207.029 126.698 207.029 131.493 210.225L138.175 214.68C139.198 215.363 139.475 216.745 138.793 217.769C138.11 218.793 136.727 219.069 135.704 218.387L129.022 213.932Z" fill="#E2CBB4"/>
<path fill-rule="evenodd" clip-rule="evenodd" d="M111.038 145.444C109.988 147.205 107.709 147.782 105.948 146.732L96.442 141.065C83.9421 133.614 68.1188 134.763 56.8272 143.943C55.2363 145.237 52.8982 144.995 51.6048 143.405C50.3115 141.814 50.5527 139.476 52.1436 138.182C65.8538 127.036 85.0664 125.64 100.244 134.688L109.75 140.355C111.511 141.404 112.087 143.683 111.038 145.444Z" fill="#131520"/>
<path fill-rule="evenodd" clip-rule="evenodd" d="M135.978 145.444C137.028 147.205 139.306 147.782 141.067 146.732L150.573 141.065C163.073 133.614 178.896 134.763 190.188 143.943C191.779 145.237 194.117 144.995 195.41 143.405C196.704 141.814 196.463 139.476 194.872 138.182C181.161 127.036 161.949 125.64 146.772 134.688L137.266 140.355C135.504 141.404 134.928 143.683 135.978 145.444Z" fill="#131520"/>
<path d="M75.3143 172.19C75.3143 168.909 77.9736 166.25 81.2541 166.25H84.2239C87.5043 166.25 90.1637 168.909 90.1637 172.19V182.584C90.1637 185.865 87.5043 188.524 84.2239 188.524H81.2541C77.9736 188.524 75.3143 185.865 75.3143 182.584V172.19Z" fill="#131520"/>
<path d="M159.956 172.19C159.956 168.909 162.615 166.25 165.895 166.25H168.865C172.146 166.25 174.805 168.909 174.805 172.19V182.584C174.805 185.865 172.146 188.524 168.865 188.524H165.895C162.615 188.524 159.956 185.865 159.956 182.584V172.19Z" fill="#131520"/>
<path d="M204.061 106.616L218.61 190.751L231.671 113.76C232.367 109.657 232.717 105.504 232.717 101.342V84.6793C232.717 79.2234 231.619 73.8232 229.488 68.8005L227.718 64.6282C224.288 56.5421 217.549 50.3191 209.217 47.5415C206.095 46.501 202.826 45.9705 199.536 45.9705H189.654L185.412 38.0159C180.414 28.646 172.965 20.8105 163.859 15.3469C155.925 10.5865 146.976 7.77282 137.745 7.13622L124.017 6.18945C113.929 5.49371 103.805 6.86607 94.266 10.2224L79.7381 15.334C72.3801 17.923 65.476 21.6552 59.2799 26.3934L41.605 39.9095C26.5387 51.4308 16.4529 68.2811 13.4168 87.0032L11.5416 98.5674C10.0179 107.963 10.3152 117.564 12.4171 126.848L27.054 191.494L45.0171 105.528C46.8089 96.9527 52.2949 89.6063 60.0078 85.4532L66.5911 81.9083C73.1553 78.3738 80.8088 77.4373 88.0315 79.285L105.103 83.6522C107.509 84.2675 109.981 84.5788 112.464 84.5788H137.385C140.045 84.5788 142.694 84.2212 145.259 83.5157L159.957 79.4738C167.12 77.5042 174.76 78.29 181.371 81.6763L188.335 85.2432C196.645 89.4995 202.47 97.4157 204.061 106.616Z" fill="#5D473B"/>
<path fill-rule="evenodd" clip-rule="evenodd" d="M124.273 2.48592C113.68 1.75539 103.05 3.19637 93.0339 6.72049L78.5059 11.8322C70.78 14.5505 63.5307 18.4694 57.0248 23.4445L39.3499 36.9606C23.5303 49.0579 12.9402 66.7508 9.75237 86.4089L7.8771 97.9731C6.27727 107.839 6.58937 117.92 8.79643 127.667L22.6323 188.776C23.0999 190.841 24.9433 192.301 27.0606 192.283C29.1779 192.266 30.9967 190.775 31.4298 188.703L48.651 106.287C50.2188 98.7839 55.019 92.3558 61.7678 88.7218L68.3511 85.1769C74.0948 82.0842 80.7916 81.2648 87.1115 82.8815L104.183 87.2488C106.889 87.9409 109.671 88.2911 112.464 88.2911H137.385C140.378 88.2911 143.358 87.8888 146.244 87.0952L160.942 83.0532C167.209 81.3298 173.894 82.0174 179.679 84.9804L186.643 88.5474C193.914 92.2716 199.01 99.1983 200.403 107.248L214.329 187.779C214.689 189.861 216.498 191.382 218.611 191.378C220.725 191.375 222.529 189.849 222.882 187.765L235.331 114.381C236.062 110.073 236.43 105.712 236.43 101.342V84.6793C236.43 78.7252 235.231 72.832 232.906 67.3507L231.136 63.1783C227.289 54.1118 219.734 47.1341 210.39 44.0197C206.89 42.853 203.225 42.2582 199.536 42.2582H194.882C193.035 42.2582 191.339 41.2404 190.47 39.6111L188.687 36.2689C183.373 26.3054 175.452 17.9733 165.769 12.1636C157.332 7.10159 147.816 4.10962 138.001 3.43269L124.273 2.48592ZM95.4982 13.7243C104.56 10.5358 114.178 9.23204 123.762 9.89299L137.49 10.8398C146.136 11.436 154.517 14.0714 161.949 18.5302C170.478 23.6476 177.455 30.9867 182.136 39.7629L186.015 47.0358C186.884 48.6651 188.58 49.6828 190.427 49.6828H199.536C202.427 49.6828 205.3 50.149 208.043 51.0633C215.365 53.5041 221.286 58.9725 224.301 66.078L226.071 70.2504C228.007 74.8145 229.005 79.7215 229.005 84.6793V101.342C229.005 105.295 228.673 109.242 228.011 113.139L223.457 139.983C222.517 145.526 214.559 145.539 213.601 139.999L207.719 105.983C205.929 95.6331 199.376 86.7274 190.028 81.9391L183.063 78.3721C175.626 74.5626 167.031 73.6785 158.973 75.8943L144.275 79.9362C142.03 80.5536 139.713 80.8664 137.385 80.8664H112.464C110.292 80.8664 108.128 80.5941 106.024 80.0557L88.9516 75.6885C80.826 73.6098 72.2158 74.6633 64.8311 78.6397L58.2478 82.1846C49.5707 86.8568 43.399 95.1215 41.3833 104.768L33.4862 142.561C31.948 149.923 21.4677 150.01 19.807 142.675L16.0378 126.028C14.0409 117.209 13.7586 108.088 15.206 99.1616L17.0813 87.5974C19.9655 69.8115 29.5471 53.8036 43.86 42.8584L61.5349 29.3423C67.4212 24.841 73.9801 21.2954 80.9702 18.8359L95.4982 13.7243Z" fill="#131520"/>
<path fill-rule="evenodd" clip-rule="evenodd" d="M100.208 19.4118C100.146 18.1832 101.092 17.1369 102.32 17.0748C132.781 15.5353 161.483 31.3913 176.395 57.9967L181.945 67.898C182.547 68.971 182.164 70.3285 181.091 70.93C180.018 71.5315 178.661 71.1492 178.059 70.0761L172.509 60.1748C158.425 35.0459 131.316 20.0699 102.545 21.5239C101.317 21.586 100.27 20.6404 100.208 19.4118Z" fill="#2E221C"/>
<path fill-rule="evenodd" clip-rule="evenodd" d="M64.981 34.7193C64.8426 33.4969 65.7213 32.3938 66.9437 32.2554C96.3945 28.9214 125.087 43.0575 140.39 68.4404L141.816 70.8069C142.452 71.8604 142.112 73.2293 141.059 73.8644C140.005 74.4996 138.637 74.1604 138.001 73.1069L136.575 70.7404C122.171 46.8492 95.1649 33.5438 67.4448 36.682C66.2224 36.8203 65.1193 35.9416 64.981 34.7193Z" fill="#2E221C"/>
<path fill-rule="evenodd" clip-rule="evenodd" d="M31.0015 64.7858C30.4513 63.6855 30.8973 62.3476 31.9976 61.7975L36.0095 59.7915C59.3012 48.1456 87.4318 52.7106 105.846 71.1243C106.715 71.9941 106.715 73.4044 105.846 74.2743C104.976 75.1442 103.565 75.1442 102.696 74.2743C85.6377 57.2165 59.5784 52.9877 38.0018 63.776L33.9899 65.7819C32.8896 66.3321 31.5516 65.8861 31.0015 64.7858Z" fill="#2E221C"/>
<g filter="url(#filter2_d_3551_5)">
<path d="M110.953 156.65L121.999 157.828C123.046 157.94 124.103 157.94 125.15 157.828L136.197 156.65L132.484 160.69V168.771L126.858 167.495C124.697 167.005 122.453 167.005 120.291 167.495L114.665 168.771V160.69L110.953 156.65Z" fill="#31435C"/>
<path d="M229.747 160.337C229.747 159.502 228.893 158.825 227.838 158.825H216.383L219.247 176.644H221.621C222.475 176.644 223.226 176.195 223.458 175.544L224.738 171.961C224.888 171.54 225.261 171.192 225.761 171.005L228.653 169.926C229.321 169.676 229.747 169.144 229.747 168.559V160.337Z" fill="#31435C"/>
<path fill-rule="evenodd" clip-rule="evenodd" d="M227.838 158.825C228.893 158.825 229.747 159.502 229.747 160.337V168.559C229.747 169.144 229.321 169.676 228.653 169.926L225.761 171.005C225.261 171.192 224.888 171.54 224.738 171.961L223.458 175.544C223.226 176.195 222.475 176.644 221.621 176.644H219.247L216.383 158.825H227.838Z" fill="#31435C"/>
<path d="M17.4019 160.337C17.4019 159.502 18.2567 158.825 19.3111 158.825H30.7663L27.9025 176.644H25.5284C24.674 176.644 23.9236 176.195 23.6912 175.544L22.4114 171.961C22.2612 171.54 21.8882 171.192 21.3886 171.005L18.4967 169.926C17.8284 169.676 17.4019 169.144 17.4019 168.559V160.337Z" fill="#31435C"/>
<path fill-rule="evenodd" clip-rule="evenodd" d="M47.3313 145.461C44.6887 145.461 42.0766 146.051 39.6697 147.191L35.7267 149.059C29.0899 152.203 24.8266 159.117 24.8266 166.734V188.037C24.8266 197.465 29.7584 206.138 37.6808 210.642C41.2892 212.693 45.3313 213.768 49.4388 213.768H86.8536C91.4139 213.768 95.8147 212.013 99.2163 208.837L102.26 205.996C112.515 196.423 118.377 182.733 118.377 168.361V165.309C118.377 160.825 115.915 156.74 112.046 154.805L100.198 148.88C95.6969 146.629 90.7706 145.461 85.7808 145.461H47.3313ZM42.7343 154.261C44.1785 153.577 45.7457 153.223 47.3313 153.223H85.7808C89.6617 153.223 93.4934 154.132 96.9943 155.883L108.842 161.808C110.132 162.452 110.953 163.814 110.953 165.309V168.361C110.953 180.522 105.992 192.106 97.3151 200.206L94.2712 203.047C92.2302 204.953 89.5898 206.006 86.8536 206.006H49.4388C46.5704 206.006 43.7476 205.255 41.2278 203.823C35.6953 200.677 32.2513 194.621 32.2513 188.037V166.734C32.2513 162.164 34.8092 158.016 38.7913 156.129L42.7343 154.261Z" fill="#31435C"/>
<path fill-rule="evenodd" clip-rule="evenodd" d="M199.818 145.461C202.461 145.461 205.073 146.051 207.48 147.191L211.423 149.059C218.059 152.203 222.323 159.117 222.323 166.734V188.037C222.323 197.465 217.391 206.138 209.469 210.642C205.86 212.693 201.818 213.768 197.71 213.768H160.296C155.735 213.768 151.335 212.013 147.933 208.837L144.889 205.996C134.635 196.423 128.772 182.733 128.772 168.361V165.309C128.772 160.825 131.234 156.74 135.103 154.805L146.951 148.88C151.452 146.629 156.379 145.461 161.368 145.461H199.818ZM204.415 154.261C202.971 153.577 201.404 153.223 199.818 153.223H161.368C157.488 153.223 153.656 154.132 150.155 155.883L138.307 161.808C137.017 162.452 136.197 163.814 136.197 165.309V168.361C136.197 180.522 141.157 192.106 149.834 200.206L152.878 203.047C154.919 204.953 157.56 206.006 160.296 206.006H197.71C200.579 206.006 203.402 205.255 205.922 203.823C211.454 200.677 214.898 194.621 214.898 188.037V166.734C214.898 162.164 212.34 158.016 208.358 156.129L204.415 154.261Z" fill="#31435C"/>
</g>
<defs>
<filter id="filter0_d_3551_5" x="0" y="163.428" width="244.922" height="87.8609" filterUnits="userSpaceOnUse" color-interpolation-filters="sRGB">
<feFlood flood-opacity="0" result="BackgroundImageFix"/>
<feColorMatrix in="SourceAlpha" type="matrix" values="0 0 0 0 0 0 0 0 0 0 0 0 0 0 0 0 0 0 127 0" result="hardAlpha"/>
<feOffset dy="4"/>
<feGaussianBlur stdDeviation="2"/>
<feComposite in2="hardAlpha" operator="out"/>
<feColorMatrix type="matrix" values="0 0 0 0 0 0 0 0 0 0 0 0 0 0 0 0 0 0 0.25 0"/>
<feBlend mode="normal" in2="BackgroundImageFix" result="effect1_dropShadow_3551_5"/>
<feBlend mode="normal" in="SourceGraphic" in2="effect1_dropShadow_3551_5" result="shape"/>
</filter>
<filter id="filter1_d_3551_5" x="16.4707" y="40.7595" width="211.214" height="292.24" filterUnits="userSpaceOnUse" color-interpolation-filters="sRGB">
<feFlood flood-opacity="0" result="BackgroundImageFix"/>
<feColorMatrix in="SourceAlpha" type="matrix" values="0 0 0 0 0 0 0 0 0 0 0 0 0 0 0 0 0 0 127 0" result="hardAlpha"/>
<feOffset dy="4"/>
<feGaussianBlur stdDeviation="2"/>
<feComposite in2="hardAlpha" operator="out"/>
<feColorMatrix type="matrix" values="0 0 0 0 0 0 0 0 0 0 0 0 0 0 0 0 0 0 0.25 0"/>
<feBlend mode="normal" in2="BackgroundImageFix" result="effect1_dropShadow_3551_5"/>
<feBlend mode="normal" in="SourceGraphic" in2="effect1_dropShadow_3551_5" result="shape"/>
</filter>
<filter id="filter2_d_3551_5" x="13.4019" y="145.461" width="220.345" height="76.3069" filterUnits="userSpaceOnUse" color-interpolation-filters="sRGB">
<feFlood flood-opacity="0" result="BackgroundImageFix"/>
<feColorMatrix in="SourceAlpha" type="matrix" values="0 0 0 0 0 0 0 0 0 0 0 0 0 0 0 0 0 0 127 0" result="hardAlpha"/>
<feOffset dy="4"/>
<feGaussianBlur stdDeviation="2"/>
<feComposite in2="hardAlpha" operator="out"/>
<feColorMatrix type="matrix" values="0 0 0 0 0 0 0 0 0 0 0 0 0 0 0 0 0 0 0.25 0"/>
<feBlend mode="normal" in2="BackgroundImageFix" result="effect1_dropShadow_3551_5"/>
<feBlend mode="normal" in="SourceGraphic" in2="effect1_dropShadow_3551_5" result="shape"/>
</filter>
</defs>
</svg>
