<svg class="profile-picture" viewBox="0 0 245 366" fill="none" xmlns="http://www.w3.org/2000/svg">
<g filter="url(#filter0_d_3520_2)">
<path d="M7.85882 172.719C6.91901 166.055 10.5786 159.592 16.7768 156.97L22.9052 154.377C24.3876 153.75 26.0999 154.418 26.766 155.883L29.2814 161.417L35.4699 223.303C35.6933 225.536 33.4534 227.201 31.3793 226.342L22.2732 222.574C17.4145 220.564 13.9813 216.134 13.2471 210.927L7.85882 172.719Z" fill="#EDD5BE"/>
<path d="M7.85882 172.719C6.91901 166.055 10.5786 159.592 16.7768 156.97L22.9052 154.377C24.3876 153.75 26.0999 154.418 26.766 155.883L29.2814 161.417L35.4699 223.303C35.6933 225.536 33.4534 227.201 31.3793 226.342L22.2732 222.574C17.4145 220.564 13.9813 216.134 13.2471 210.927L7.85882 172.719Z" fill="#EDD5BE"/>
<path d="M34.1061 209.664C31.6475 211.804 28.8996 213 26 213C20.4152 213 15.3932 208.561 11.9169 201.495L13.2471 210.927C13.9813 216.134 17.4145 220.564 22.2732 222.574L31.3793 226.342C33.4534 227.201 35.6933 225.536 35.4699 223.303L34.1061 209.664Z" fill="#E2CBB4"/>
<path fill-rule="evenodd" clip-rule="evenodd" d="M21.4587 150.958C24.7943 149.547 28.6469 151.05 30.1456 154.347C31.9791 158.381 33.1393 162.688 33.5802 167.096L39.1639 222.933C39.6664 227.959 34.6267 231.704 29.9599 229.772L20.8538 226.004C14.7804 223.491 10.489 217.954 9.57112 211.445L4.18288 173.238C3.00812 164.908 7.58259 156.829 15.3303 153.551L21.4587 150.958ZM25.7168 163.079C25.6715 162.627 25.5524 162.185 25.3642 161.771C24.4301 159.716 22.0289 158.779 19.95 159.658L18.2232 160.389C13.5746 162.356 10.8299 167.203 11.5348 172.201L16.923 210.408C17.4738 214.313 20.0486 217.636 23.6927 219.144C27.2941 220.634 31.1833 217.744 30.7954 213.866L25.7168 163.079Z" fill="#131520"/>
<path d="M237.063 172.719C238.003 166.055 234.343 159.592 228.145 156.97L222.017 154.377C220.534 153.75 218.822 154.418 218.156 155.883L215.64 161.417L209.452 223.303C209.229 225.536 211.468 227.201 213.543 226.342L222.649 222.574C227.507 220.564 230.941 216.134 231.675 210.927L237.063 172.719Z" fill="#EDD5BE"/>
<path d="M237.063 172.719C238.003 166.055 234.343 159.592 228.145 156.97L222.017 154.377C220.534 153.75 218.822 154.418 218.156 155.883L215.64 161.417L209.452 223.303C209.229 225.536 211.468 227.201 213.543 226.342L222.649 222.574C227.507 220.564 230.941 216.134 231.675 210.927L237.063 172.719Z" fill="#EDD5BE"/>
<path d="M210.819 209.669C213.278 211.809 216.026 213.005 218.925 213.005C224.51 213.005 229.532 208.567 233.008 201.5L231.678 210.932C230.944 216.139 227.511 220.569 222.652 222.58L213.546 226.348C211.472 227.206 209.232 225.541 209.455 223.308L210.819 209.669Z" fill="#E2CBB4"/>
<path fill-rule="evenodd" clip-rule="evenodd" d="M223.463 150.958C220.128 149.547 216.275 151.05 214.776 154.347C212.943 158.381 211.783 162.688 211.342 167.096L205.758 222.933C205.255 227.959 210.295 231.704 214.962 229.772L224.068 226.004C230.141 223.491 234.433 217.954 235.351 211.445L240.739 173.238C241.914 164.908 237.339 156.829 229.592 153.551L223.463 150.958ZM219.205 163.079C219.25 162.627 219.369 162.185 219.558 161.77C220.492 159.715 222.893 158.779 224.972 159.658L226.699 160.389C231.347 162.356 234.092 167.203 233.387 172.201L227.999 210.408C227.448 214.313 224.873 217.636 221.229 219.144C217.628 220.634 213.739 217.744 214.126 213.866L219.205 163.079Z" fill="#131520"/>
</g>
<g filter="url(#filter1_d_3520_2)">
<path d="M51 60L121.731 31.4855L194.405 56L219.554 135.754C220.407 147.101 219.953 158.507 218.201 169.75L208.958 219.091C206.515 234.768 201.036 256.372 191.956 269.383C184.933 279.447 176.188 288.191 166.123 295.213L156.845 301.686C148.636 307.414 138.444 309.539 128.63 307.57C124.072 306.656 119.382 306.616 114.809 307.452L114.528 307.504C103.598 309.503 92.3391 306.643 83.6891 299.669L75.522 293.084C68.5275 287.445 62.205 281.02 56.6793 273.935C44.2419 257.989 36.1447 239.095 33.1758 219.091L25.7919 169.34C24.1636 158.368 23.7696 147.248 24.6175 136.189L51 60Z" fill="#EDD5BE"/>
<path d="M123.427 306.909C165.761 283.32 198.692 241.689 214.223 190.985L208.958 219.091C206.515 234.768 201.036 256.372 191.956 269.383C184.933 279.447 176.188 288.191 166.123 295.213L156.845 301.687C148.636 307.414 138.444 309.539 128.63 307.57C126.91 307.225 125.171 307.005 123.427 306.909Z" fill="#E2CBB4"/>
<path fill-rule="evenodd" clip-rule="evenodd" d="M121.684 27.7595L200 61L223.256 135.476C224.13 147.106 223.665 158.798 221.869 170.322L213.137 226.354C210.607 242.589 204.404 258.033 195.001 271.507C187.727 281.93 178.67 290.986 168.247 298.258L158.969 304.731C149.93 311.038 138.706 313.378 127.9 311.21C123.803 310.388 119.587 310.352 115.477 311.104L115.196 311.156C103.203 313.349 90.85 310.211 81.359 302.559L73.192 295.974C65.9758 290.156 59.4529 283.527 53.752 276.218C40.9205 259.767 32.5666 240.274 29.5037 219.636L22.1198 169.885C20.4507 158.639 20.0469 147.241 20.916 135.905L40.5 51L121.684 27.7595ZM121.778 35.2115L40.5 51L28.3189 136.473C27.4923 147.256 27.8764 158.097 29.464 168.795L36.8479 218.546C39.7227 237.916 47.5633 256.211 59.6065 271.652C64.9571 278.512 71.0792 284.734 77.8521 290.194L86.0191 296.779C93.8282 303.075 103.992 305.657 113.86 303.852L114.141 303.801C119.176 302.88 124.341 302.924 129.36 303.931C138.181 305.7 147.342 303.79 154.721 298.642L163.999 292.169C173.705 285.397 182.139 276.964 188.912 267.258C197.669 254.711 203.445 240.329 205.801 225.211L214.533 169.179C216.241 158.217 216.684 147.095 215.852 136.033L195.001 61L121.778 35.2115Z" fill="#131520"/>
<path fill-rule="evenodd" clip-rule="evenodd" d="M68.6321 109.227C68.6321 107.997 69.6294 107 70.8595 107H92.4978C98.1852 107 103.823 108.059 109.123 110.122C113.908 111.984 118.998 112.94 124.132 112.94H124.268C129.521 112.94 134.735 112.037 139.683 110.272L140.167 110.099C145.915 108.048 151.973 107 158.076 107H176.29C177.52 107 178.517 107.997 178.517 109.227C178.517 110.458 177.52 111.455 176.29 111.455H158.076C152.483 111.455 146.931 112.416 141.664 114.295L141.18 114.468C135.752 116.405 130.031 117.395 124.268 117.395H124.132C118.445 117.395 112.807 116.336 107.507 114.273C102.722 112.41 97.6324 111.455 92.4978 111.455H70.8595C69.6294 111.455 68.6321 110.458 68.6321 109.227Z" fill="#E2CBB4"/>
<path fill-rule="evenodd" clip-rule="evenodd" d="M122.832 297.288C122.012 297.288 121.347 296.624 121.347 295.804V288.379C121.347 287.559 122.012 286.894 122.832 286.894C123.652 286.894 124.317 287.559 124.317 288.379V295.804C124.317 296.624 123.652 297.288 122.832 297.288Z" fill="#E2CBB4"/>
</g>
<path fill-rule="evenodd" clip-rule="evenodd" d="M118.128 207.829C121.426 210.028 125.723 210.028 129.022 207.829L135.704 203.374C136.727 202.692 138.11 202.969 138.793 203.992C139.475 205.016 139.198 206.399 138.175 207.081L131.493 211.536C126.698 214.732 120.452 214.732 115.657 211.536L108.975 207.081C107.951 206.399 107.675 205.016 108.357 203.992C109.04 202.969 110.422 202.692 111.446 203.374L118.128 207.829Z" fill="#C7B6A5"/>
<path fill-rule="evenodd" clip-rule="evenodd" d="M111.038 143.029C109.988 144.79 107.709 145.367 105.948 144.317L96.4419 138.65C83.9421 131.199 68.1188 132.348 56.8272 141.528C55.2363 142.822 52.8982 142.58 51.6048 140.99C50.3115 139.399 50.5527 137.061 52.1436 135.767C65.8538 124.621 85.0664 123.225 100.244 132.273L109.75 137.94C111.511 138.989 112.087 141.268 111.038 143.029Z" fill="#131520"/>
<path fill-rule="evenodd" clip-rule="evenodd" d="M135.978 143.029C137.028 144.79 139.306 145.367 141.067 144.317L150.573 138.65C163.073 131.199 178.896 132.348 190.188 141.528C191.779 142.822 194.117 142.58 195.41 140.99C196.704 139.399 196.463 137.061 194.872 135.767C181.161 124.621 161.949 123.225 146.772 132.273L137.266 137.94C135.504 138.989 134.928 141.268 135.978 143.029Z" fill="#131520"/>
<circle cx="164.414" cy="165.94" r="26.8929" fill="white"/>
<circle cx="164.835" cy="174.228" r="17.2282" fill="#4361FF"/>
<circle cx="164.835" cy="174.228" r="17.2282" fill="url(#paint0_linear_3520_2)" fill-opacity="0.7"/>
<circle cx="164.835" cy="174.228" r="11.3454" fill="#131520"/>
<path d="M137.113 169.354C138.767 169.58 140.29 168.422 140.515 166.769L141.034 162.96C142.138 154.868 147.345 147.92 154.803 144.591C160.483 142.055 166.946 141.867 172.769 144.063C181.124 147.213 187.012 154.799 187.976 163.671L188.304 166.687C188.484 168.346 189.975 169.544 191.634 169.364C193.292 169.184 194.491 167.693 194.311 166.034L193.983 163.018C192.772 151.877 185.382 142.361 174.901 138.409C167.591 135.653 159.476 135.888 152.34 139.073C142.973 143.255 136.433 151.98 135.047 162.144L134.528 165.952C134.303 167.606 135.46 169.129 137.113 169.354Z" fill="#131520"/>
<path fill-rule="evenodd" clip-rule="evenodd" d="M169.652 170.251C168.831 169.431 168.831 168.1 169.652 167.28L177.216 159.716C178.036 158.896 179.366 158.896 180.187 159.716C181.007 160.537 181.007 161.867 180.187 162.688L172.623 170.251C171.803 171.072 170.472 171.072 169.652 170.251Z" fill="white"/>
<path fill-rule="evenodd" clip-rule="evenodd" d="M168.238 171.665C166.636 170.064 166.636 167.467 168.238 165.866L175.801 158.302C177.403 156.701 180 156.701 181.601 158.302C183.203 159.904 183.203 162.5 181.601 164.102L174.037 171.665C172.436 173.267 169.839 173.267 168.238 171.665ZM169.652 167.28C168.831 168.1 168.831 169.431 169.652 170.251C170.472 171.072 171.803 171.072 172.623 170.251L180.187 162.688C181.007 161.867 181.007 160.537 180.187 159.716C179.366 158.896 178.036 158.896 177.216 159.716L169.652 167.28Z" fill="white"/>
<circle cx="83.9145" cy="165.94" r="26.8929" fill="white"/>
<circle cx="84.3347" cy="174.228" r="17.2282" fill="#4361FF"/>
<circle cx="84.3347" cy="174.228" r="17.2282" fill="url(#paint1_linear_3520_2)" fill-opacity="0.7"/>
<circle cx="84.3347" cy="174.228" r="11.3454" fill="#131520"/>
<path d="M56.6133 169.354C58.2666 169.58 59.7896 168.422 60.0151 166.769L60.5344 162.96C61.638 154.868 66.8454 147.92 74.3033 144.591C79.9828 142.055 86.4465 141.867 92.269 144.063C100.624 147.213 106.512 154.799 107.476 163.671L107.804 166.687C107.984 168.346 109.475 169.544 111.134 169.364C112.793 169.184 113.991 167.693 113.811 166.034L113.483 163.018C112.272 151.877 104.882 142.361 94.4008 138.409C87.0912 135.653 78.9762 135.888 71.8401 139.073C62.4736 143.255 55.9334 151.98 54.5474 162.144L54.0281 165.952C53.8026 167.606 54.9601 169.129 56.6133 169.354Z" fill="#131520"/>
<path fill-rule="evenodd" clip-rule="evenodd" d="M89.152 170.251C88.3315 169.431 88.3315 168.1 89.152 167.28L96.7157 159.716C97.5361 158.896 98.8664 158.896 99.6869 159.716C100.507 160.537 100.507 161.867 99.6869 162.688L92.1233 170.251C91.3028 171.072 89.9725 171.072 89.152 170.251Z" fill="white"/>
<path fill-rule="evenodd" clip-rule="evenodd" d="M87.7378 171.665C86.1363 170.064 86.1363 167.467 87.7378 165.866L95.3014 158.302C96.903 156.701 99.4996 156.701 101.101 158.302C102.703 159.904 102.703 162.5 101.101 164.102L93.5375 171.665C91.936 173.267 89.3394 173.267 87.7378 171.665ZM89.152 167.28C88.3315 168.1 88.3315 169.431 89.152 170.251C89.9725 171.072 91.3028 171.072 92.1233 170.251L99.6869 162.688C100.507 161.867 100.507 160.537 99.6869 159.716C98.8664 158.896 97.5361 158.896 96.7157 159.716L89.152 167.28Z" fill="white"/>
<path d="M208 104L218 144L218.61 188.45L231.672 111.459C232.368 107.356 232.717 103.202 232.717 99.041V82.3781C232.717 76.9222 231.619 71.522 229.488 66.4994L227.718 62.327C224.288 54.241 217.55 48.0179 209.217 45.2403C206.095 44.1998 202.826 43.6693 199.536 43.6693H189.654L185.412 35.7147C180.415 26.3448 172.965 18.5093 163.859 13.0458C155.925 8.28533 146.976 5.47164 137.746 4.83504L124.017 3.88827C113.929 3.19253 103.805 4.56489 94.2661 7.9212L79.7382 13.0329C72.3802 15.6218 65.4761 19.354 59.28 24.0922L41.6051 37.6083C26.5388 49.1296 16.453 65.9799 13.417 84.702L11.5417 96.2662C10.0181 105.662 10.3153 115.263 12.4172 124.546L28 176L38.5 101.5C40.2918 92.9252 52.295 87.3051 60.0079 83.152L66.5912 79.6072C73.1554 76.0726 80.8089 75.1361 88.0317 76.9838L105.104 81.3511C107.509 81.9663 109.981 82.2776 112.464 82.2776H137.385C140.046 82.2776 142.694 81.92 145.26 81.2145L159.958 77.1726C167.12 75.203 174.76 75.9888 181.371 79.3751L188.335 82.942C196.645 87.1983 206.409 94.8001 208 104Z" fill="#5D473B"/>
<path fill-rule="evenodd" clip-rule="evenodd" d="M124.273 0.184743C113.68 -0.545785 103.05 0.895192 93.0339 4.41931L78.5059 9.53099C70.78 12.2494 63.5307 16.1682 57.0248 21.1433L39.3499 34.6594C23.5303 46.7568 12.9402 64.4496 9.75237 84.1078L7.8771 95.6719C6.27726 105.537 6.58937 115.619 8.79642 125.366L18 154L24.5 183.5C24.9676 185.565 24.9433 190 27.0606 189.982C29.1779 189.965 29.0669 189.073 29.5 187L29.117 151.5L35.8631 140.333L43.1308 104.073C44.6986 96.5704 55.019 90.0546 61.7678 86.4206L68.3511 82.8758C74.0948 79.783 80.7916 78.9636 87.1115 80.5803L104.183 84.9476C106.889 85.6397 109.671 85.9899 112.464 85.9899H137.385C140.378 85.9899 143.358 85.5877 146.244 84.794L160.942 80.752C167.209 79.0286 173.894 79.7163 179.679 82.6792L186.643 86.2462C193.914 89.9704 204.021 95.6994 205.413 103.749L214.5 146L217.5 156.5V182C215.386 182.003 217.86 184.083 217.5 182C217.146 184.084 219.614 181.997 217.5 182L228.011 149L235.331 112.08C236.062 107.772 236.43 103.41 236.43 99.041V82.3781C236.43 76.424 235.231 70.5308 232.906 65.0495L231.136 60.8771C227.289 51.8106 219.734 44.8329 210.39 41.7185C206.89 40.5518 203.225 39.957 199.536 39.957H194.882C193.035 39.957 191.339 38.9393 190.47 37.3099L188.687 33.9677C183.373 24.0042 175.452 15.6722 165.769 9.86247C157.332 4.80042 147.816 1.80844 138.001 1.13151L124.273 0.184743ZM95.4981 11.4231C104.56 8.2346 114.178 6.93086 123.762 7.59181L137.49 8.53858C146.136 9.13484 154.517 11.7703 161.949 16.2291C170.478 21.3464 177.455 28.6855 182.136 37.4617L186.015 44.7346C186.884 46.3639 188.58 47.3817 190.427 47.3817H199.536C202.427 47.3817 205.299 47.8478 208.043 48.7622C215.365 51.203 221.286 56.6714 224.301 63.7768L226.071 67.9492C228.007 72.5133 229.005 77.4203 229.005 82.3781V99.041C229.005 102.994 228.673 106.941 228.011 110.838L223.457 137.682C222.517 143.225 219.569 142.04 218.611 136.5L212.729 102.484C210.939 92.1342 199.376 84.4262 190.028 79.6379L183.063 76.071C175.626 72.2614 167.031 71.3773 158.973 73.5931L144.275 77.6351C142.03 78.2524 139.713 78.5652 137.385 78.5652H112.464C110.292 78.5652 108.128 78.2929 106.024 77.7545L88.9516 73.3873C80.826 71.3087 72.2158 72.3622 64.8311 76.3385L58.2478 79.8834C49.5707 84.5557 37.8788 92.908 35.8631 102.555L29.117 140.333C27.5788 147.695 21.4677 147.709 19.807 140.374L16.0378 123.727C14.0409 114.907 13.7586 105.786 15.206 96.8604L17.0813 85.2962C19.9655 67.5103 29.5471 51.5025 43.86 40.5573L61.5349 27.0412C67.4212 22.5399 73.9801 18.9942 80.9702 16.5348L95.4981 11.4231Z" fill="#131520"/>
<path fill-rule="evenodd" clip-rule="evenodd" d="M116.61 23.6402C116.569 22.8212 117.199 22.1236 118.018 22.0822C138.326 21.0559 157.461 31.6267 167.403 49.364L171.103 55.965C171.504 56.6804 171.249 57.5854 170.533 57.9864C169.818 58.3874 168.913 58.1325 168.512 57.4171L164.812 50.8161C155.422 34.0632 137.349 24.0789 118.168 25.0484C117.349 25.0898 116.652 24.4593 116.61 23.6402Z" fill="#423027" stroke="#423027" stroke-width="4" stroke-linecap="round"/>
<path fill-rule="evenodd" clip-rule="evenodd" d="M81.5847 34.2609C81.4569 33.4741 81.9942 32.7951 82.7847 32.7443C101.832 31.5208 120.926 41.4573 131.662 58.1793L132.662 59.7383C133.108 60.4324 132.93 61.2982 132.264 61.6722C131.599 62.0462 130.698 61.7868 130.253 61.0927L129.252 59.5337C119.147 43.7944 101.175 34.4418 83.2475 35.5935C82.4569 35.6442 81.7125 35.0476 81.5847 34.2609Z" fill="#423027" stroke="#423027" stroke-width="4" stroke-linecap="round"/>
<path fill-rule="evenodd" clip-rule="evenodd" d="M44.8589 56.3413C44.4474 55.5183 44.781 54.5176 45.6039 54.1061L48.6048 52.6057C66.0262 43.8949 87.0671 47.3094 100.84 61.0823C101.491 61.7329 101.491 62.7878 100.84 63.4384C100.189 64.089 99.1345 64.089 98.4839 63.4384C85.7251 50.6797 66.2336 47.5166 50.0949 55.586L47.0941 57.0864C46.2711 57.4979 45.2704 57.1643 44.8589 56.3413Z" fill="#423027" stroke="#423027" stroke-width="4" stroke-linecap="round"/>
<g filter="url(#filter2_d_3520_2)">
<path d="M110.953 143.65L121.999 144.828C123.046 144.94 124.103 144.94 125.15 144.828L136.197 143.65L132.484 147.69V155.771L126.858 154.495C124.697 154.005 122.453 154.005 120.291 154.495L114.665 155.771V147.69L110.953 143.65Z" fill="#2B3A50"/>
<path d="M229.747 147.337C229.747 146.502 228.893 145.825 227.838 145.825H216.383L219.247 163.644H221.621C222.475 163.644 223.226 163.195 223.458 162.544L224.738 158.961C224.888 158.54 225.261 158.192 225.761 158.005L228.653 156.926C229.321 156.676 229.747 156.144 229.747 155.559V147.337Z" fill="#2B3A50"/>
<path fill-rule="evenodd" clip-rule="evenodd" d="M227.838 145.825C228.893 145.825 229.747 146.502 229.747 147.337V155.559C229.747 156.144 229.321 156.676 228.653 156.926L225.761 158.005C225.261 158.192 224.888 158.54 224.738 158.961L223.458 162.544C223.226 163.195 222.475 163.644 221.621 163.644H219.247L216.383 145.825H227.838Z" fill="#2B3A50"/>
<path d="M17.4019 147.337C17.4019 146.502 18.2567 145.825 19.3111 145.825H30.7663L27.9025 163.644H25.5284C24.674 163.644 23.9236 163.195 23.6912 162.544L22.4114 158.961C22.2612 158.54 21.8881 158.192 21.3886 158.005L18.4967 156.926C17.8284 156.676 17.4019 156.144 17.4019 155.559V147.337Z" fill="#2B3A50"/>
<path fill-rule="evenodd" clip-rule="evenodd" d="M47.3313 132.461C44.6887 132.461 42.0766 133.051 39.6697 134.191L35.7267 136.059C29.0898 139.203 24.8266 146.117 24.8266 153.734V175.037C24.8266 184.465 29.7584 193.138 37.6808 197.642C41.2892 199.693 45.3313 200.768 49.4388 200.768H86.8536C91.4139 200.768 95.8147 199.013 99.2163 195.837L102.26 192.996C112.515 183.423 118.377 169.733 118.377 155.361V152.309C118.377 147.825 115.915 143.74 112.046 141.805L100.198 135.88C95.6969 133.629 90.7705 132.461 85.7808 132.461H47.3313ZM42.7343 141.261C44.1785 140.577 45.7457 140.223 47.3313 140.223H85.7808C89.6617 140.223 93.4933 141.132 96.9943 142.883L108.842 148.808C110.132 149.452 110.953 150.814 110.953 152.309V155.361C110.953 167.522 105.992 179.106 97.3151 187.206L94.2712 190.047C92.2302 191.953 89.5898 193.006 86.8536 193.006H49.4388C46.5704 193.006 43.7476 192.255 41.2278 190.823C35.6953 187.677 32.2513 181.621 32.2513 175.037V153.734C32.2513 149.164 34.8092 145.016 38.7913 143.129L42.7343 141.261Z" fill="#2B3A50"/>
<path fill-rule="evenodd" clip-rule="evenodd" d="M199.818 132.461C202.461 132.461 205.073 133.051 207.48 134.191L211.423 136.059C218.059 139.203 222.323 146.117 222.323 153.734V175.037C222.323 184.465 217.391 193.138 209.469 197.642C205.86 199.693 201.818 200.768 197.71 200.768H160.296C155.735 200.768 151.335 199.013 147.933 195.837L144.889 192.996C134.635 183.423 128.772 169.733 128.772 155.361V152.309C128.772 147.825 131.234 143.74 135.103 141.805L146.951 135.88C151.452 133.629 156.379 132.461 161.368 132.461H199.818ZM204.415 141.261C202.971 140.577 201.404 140.223 199.818 140.223H161.368C157.488 140.223 153.656 141.132 150.155 142.883L138.307 148.808C137.017 149.452 136.197 150.814 136.197 152.309V155.361C136.197 167.522 141.157 179.106 149.834 187.206L152.878 190.047C154.919 191.953 157.559 193.006 160.296 193.006H197.71C200.579 193.006 203.402 192.255 205.922 190.823C211.454 187.677 214.898 181.621 214.898 175.037V153.734C214.898 149.164 212.34 145.016 208.358 143.129L204.415 141.261Z" fill="#2B3A50"/>
</g>
<path d="M13.4797 246.5C8.47865 246.5 4.55837 250.796 5.01526 255.777L14.0978 354.777C14.4992 359.152 18.1688 362.5 22.5623 362.5H215.438C219.831 362.5 223.501 359.152 223.902 354.777L232.985 255.777C233.442 250.796 229.521 246.5 224.52 246.5H13.4797Z" fill="#E6E6EE" stroke="black" stroke-width="7"/>
<path fill-rule="evenodd" clip-rule="evenodd" d="M13.3593 250C10.4615 250 8.17053 252.456 8.37128 255.346L8.53364 257.684C9.10869 255.574 11.0395 254 13.3593 254H224.641C226.96 254 228.891 255.574 229.466 257.684L229.629 255.346C229.829 252.456 227.539 250 224.641 250H13.3593Z" fill="white"/>
<path fill-rule="evenodd" clip-rule="evenodd" d="M34.3035 284.3C35.2258 283.788 35.85 282.805 35.85 281.675V277.1C35.85 275.443 34.5069 274.1 32.85 274.1H28.1C26.4431 274.1 25.1 275.443 25.1 277.1V281.675C25.1 282.805 25.7242 283.788 26.6465 284.3C25.7242 284.812 25.1 285.795 25.1 286.925V291.5C25.1 293.157 26.4431 294.5 28.1 294.5H32.85C34.5069 294.5 35.85 293.157 35.85 291.5V286.925C35.85 285.795 35.2258 284.812 34.3035 284.3ZM36.6902 278.95C36.6902 277.293 38.0334 275.95 39.6902 275.95H42.7402C43.0664 275.95 43.3804 276.002 43.6743 276.098C44.6141 275.732 45.6102 275.625 46.5152 275.625C47.9488 275.625 49.42 275.792 50.6742 276.365C51.6897 276.817 52.4966 277.515 53.0774 278.385C53.6924 277.61 54.4789 276.976 55.4368 276.531C56.9006 275.844 58.6689 275.625 60.4805 275.625C62.2782 275.625 64.0434 275.84 65.4993 276.531C66.2251 276.864 66.8543 277.306 67.3843 277.838C67.802 276.79 68.7802 276.057 69.9149 275.961C70.036 274.894 70.7228 273.961 71.7283 273.536L74.6283 272.311C75.5547 271.92 76.6156 272.019 77.4537 272.575C78.2918 273.131 78.7957 274.069 78.7957 275.075V275.95H80.6707C82.3276 275.95 83.6707 277.293 83.6707 278.95V281.525C83.6707 283.182 82.3276 284.525 80.6707 284.525H78.7957V286.58C79.27 286.539 79.8782 286.468 80.6363 286.357C81.4986 286.23 82.3731 286.485 83.0324 287.055C83.6918 287.625 84.0707 288.454 84.0707 289.325V291.95C84.0707 293.463 82.9441 294.739 81.4428 294.927C79.6752 295.148 78.2024 295.275 77.0957 295.275C75.7204 295.275 74.2458 295.108 73.0003 294.469C71.7462 293.825 70.778 292.782 70.2903 291.394L70.2822 291.371C69.9132 290.292 69.7957 289.061 69.7957 287.825V284.525H69.6645C69.6754 284.83 69.6805 285.138 69.6805 285.45C69.6805 287.375 69.4838 289.187 68.8993 290.668C68.267 292.297 67.119 293.579 65.5103 294.338C65.4963 294.345 65.4822 294.351 65.468 294.358C64.02 295.014 62.2757 295.225 60.4805 295.225C58.6852 295.225 56.941 295.014 55.4929 294.358C55.4788 294.351 55.4647 294.345 55.4506 294.338C54.912 294.084 54.4246 293.772 53.9901 293.408C53.4858 294.355 52.4883 295 51.3402 295H48.2902C47.0377 295 45.9645 294.232 45.5152 293.142C45.066 294.232 43.9928 295 42.7402 295H39.6902C38.0334 295 36.6902 293.657 36.6902 292V278.95ZM47.5966 281.687C47.6595 281.73 47.7157 281.775 47.7652 281.825C48.1152 282.158 48.2902 282.783 48.2902 283.7V292H51.3402V283.75C51.3402 283.73 51.3402 283.711 51.3401 283.691C51.3358 282.37 51.1859 281.356 50.8902 280.65C50.6069 279.917 50.1236 279.4 49.4402 279.1C49.1913 278.985 48.9036 278.89 48.5772 278.817C48.0077 278.689 47.3204 278.625 46.5152 278.625C46.2855 278.625 46.0688 278.634 45.8652 278.653C45.8185 278.658 45.7725 278.662 45.7271 278.668C45.3002 278.718 44.9343 278.812 44.6296 278.95C44.5451 278.988 44.4653 279.03 44.3902 279.075C43.9953 279.312 43.6107 279.71 43.2365 280.27C43.2313 280.277 43.2262 280.285 43.221 280.293C43.1268 280.435 43.0332 280.587 42.9402 280.75H42.7402V278.95H39.6902V292H42.7402V285.225C42.7402 284.662 42.7684 284.17 42.8247 283.75C42.855 283.524 42.8935 283.318 42.9402 283.133C42.9632 283.042 42.9882 282.956 43.0152 282.875C43.2152 282.308 43.5319 281.908 43.9652 281.675C44.0696 281.621 44.1838 281.573 44.3079 281.531C44.6913 281.403 45.169 281.335 45.7408 281.326C45.7818 281.325 45.8233 281.325 45.8652 281.325C46.1011 281.325 46.3177 281.336 46.5152 281.357C46.9832 281.407 47.3437 281.517 47.5966 281.687ZM54.3402 283.806C54.3004 284.309 54.2805 284.857 54.2805 285.45C54.2805 286.038 54.3004 286.581 54.3402 287.08C54.4213 288.095 54.5847 288.927 54.8305 289.575C55.2016 290.495 55.8072 291.165 56.6471 291.585C56.6746 291.598 56.7024 291.612 56.7305 291.625C56.8472 291.678 56.9703 291.727 57.0998 291.773C57.1148 291.778 57.1299 291.784 57.145 291.789C57.9903 292.08 59.1021 292.225 60.4805 292.225C61.8474 292.225 62.9523 292.082 63.7949 291.796C63.8101 291.791 63.8253 291.786 63.8403 291.78C63.9775 291.732 64.1075 291.681 64.2305 291.625C64.2371 291.622 64.2437 291.619 64.2503 291.616C65.1232 291.198 65.7415 290.518 66.1055 289.575C66.4888 288.608 66.6805 287.233 66.6805 285.45C66.6805 283.65 66.4888 282.267 66.1055 281.3C65.756 280.379 65.1717 279.715 64.3528 279.308C64.3126 279.288 64.2718 279.269 64.2305 279.25C64.1293 279.201 64.0228 279.156 63.9112 279.113C63.8707 279.097 63.8296 279.082 63.7877 279.067C62.9564 278.772 61.854 278.625 60.4805 278.625C59.0791 278.625 57.9538 278.778 57.1045 279.085C57.0937 279.089 57.0829 279.093 57.0721 279.097C56.9435 279.144 56.8213 279.195 56.7055 279.25C56.6692 279.267 56.6334 279.284 56.598 279.302C55.7869 279.708 55.1978 280.374 54.8305 281.3C54.5847 281.948 54.4213 282.783 54.3402 283.806ZM58.1832 281.886C57.9355 282.133 57.7429 282.463 57.6055 282.875C57.4221 283.475 57.3305 284.333 57.3305 285.45C57.3305 286.55 57.4221 287.4 57.6055 288C57.7446 288.406 57.9403 288.731 58.1925 288.976C58.3027 289.083 58.4237 289.174 58.5555 289.25C59.0055 289.5 59.6471 289.625 60.4805 289.625C61.3138 289.625 61.9471 289.5 62.3805 289.25C62.5145 289.176 62.6367 289.086 62.7471 288.982C63.0073 288.737 63.2017 288.41 63.3305 288C63.5305 287.4 63.6305 286.55 63.6305 285.45C63.6305 284.333 63.5305 283.475 63.3305 282.875C63.2047 282.463 63.0161 282.134 62.7647 281.887C62.6498 281.774 62.5217 281.678 62.3805 281.6C61.9471 281.333 61.3138 281.2 60.4805 281.2C59.6471 281.2 59.0055 281.333 58.5555 281.6C58.42 281.678 58.2959 281.773 58.1832 281.886ZM60.5684 286.624C60.6022 286.362 60.6305 285.98 60.6305 285.45C60.6305 284.871 60.5979 284.467 60.561 284.201C60.5354 284.2 60.5086 284.2 60.4805 284.2C60.4495 284.2 60.4201 284.2 60.392 284.201C60.3582 284.482 60.3305 284.889 60.3305 285.45C60.3305 285.966 60.3547 286.349 60.3856 286.624C60.4157 286.625 60.4473 286.625 60.4805 286.625C60.5111 286.625 60.5404 286.625 60.5684 286.624ZM72.7957 287.825C72.7957 288.908 72.904 289.767 73.1207 290.4C73.3374 291.017 73.754 291.483 74.3707 291.8C74.545 291.889 74.7425 291.966 74.9634 292.031C75.1208 292.076 75.2902 292.116 75.4713 292.149C75.4884 292.152 75.5057 292.155 75.5231 292.158C75.9753 292.236 76.4995 292.275 77.0957 292.275C77.3481 292.275 77.6314 292.267 77.9457 292.25C78.7729 292.207 79.8146 292.107 81.0707 291.95V289.325C80.9612 289.341 80.8537 289.356 80.7484 289.371C79.6137 289.53 78.7211 289.614 78.0707 289.624C78.028 289.625 77.9863 289.625 77.9457 289.625C77.6207 289.625 77.3373 289.61 77.0957 289.579C76.8665 289.55 76.6749 289.507 76.5207 289.45C76.3669 289.39 76.2393 289.313 76.1381 289.218C76.0419 289.128 75.9694 289.022 75.9207 288.9C75.8374 288.65 75.7957 288.258 75.7957 287.725V281.525H80.6707V278.95H75.7957V275.075L72.8957 276.3V278.95H70.1707L69.5707 281.525H72.7957V287.825ZM96.9041 297.349C96.3177 297.92 95.5233 298.227 94.7051 298.198C93.093 298.141 91.5472 297.901 90.2227 297.33L90.2027 297.321C88.7891 296.699 87.6657 295.692 86.8507 294.404C86.0803 293.186 85.551 291.663 85.1644 290.007L85.1636 290.003C84.9261 288.98 84.7524 288.009 84.6535 287.099C84.5539 286.183 84.5109 285.081 84.5109 283.825C84.5109 282.569 84.5539 281.467 84.6535 280.551C84.7524 279.641 84.9261 278.67 85.1636 277.647L85.1644 277.643C85.551 275.987 86.0803 274.464 86.8507 273.246C87.6753 271.943 88.8178 270.937 90.2477 270.32C91.5685 269.751 93.1034 269.509 94.7039 269.452C95.5222 269.423 96.3169 269.729 96.9037 270.3C97.4904 270.872 97.8181 271.658 97.8108 272.477L97.7858 275.277C97.7715 276.877 96.503 278.185 94.9035 278.248C94.5995 278.26 94.3773 278.288 94.2235 278.318C94.2034 278.322 94.1849 278.326 94.1681 278.33C94.081 278.545 93.9577 278.934 93.8371 279.565C93.6809 280.457 93.5783 281.187 93.5218 281.766L93.5211 281.774C93.467 282.314 93.4359 282.993 93.4359 283.825C93.4359 284.653 93.4667 285.343 93.5213 285.904C93.5778 286.468 93.6805 287.191 93.8371 288.085C93.9577 288.716 94.081 289.105 94.1681 289.32C94.1849 289.324 94.2034 289.328 94.2235 289.332C94.3773 289.362 94.5995 289.39 94.9035 289.402C96.503 289.465 97.7715 290.773 97.7858 292.373L97.8108 295.173C97.8181 295.992 97.4906 296.778 96.9041 297.349ZM92.5647 291.9C92.2871 291.742 92.0433 291.526 91.8331 291.252C91.7448 291.136 91.6624 291.011 91.5859 290.875C91.3073 290.351 91.077 289.616 90.8951 288.673C90.8949 288.672 90.8947 288.671 90.8945 288.67C90.8916 288.655 90.8888 288.64 90.8859 288.625C90.7401 287.794 90.6326 287.071 90.5633 286.457C90.5534 286.369 90.5443 286.283 90.5359 286.2C90.4693 285.517 90.4359 284.725 90.4359 283.825C90.4359 282.925 90.4693 282.142 90.5359 281.475C90.5449 281.384 90.5547 281.29 90.5654 281.193C90.6347 280.571 90.7416 279.848 90.8859 279.025C90.8888 279.01 90.8916 278.995 90.8945 278.98C90.8947 278.979 90.8949 278.978 90.8951 278.977C91.077 278.034 91.3073 277.299 91.5859 276.775C91.6624 276.639 91.7448 276.514 91.8331 276.398C92.0483 276.117 92.2989 275.897 92.5848 275.738C92.6421 275.706 92.7008 275.677 92.7609 275.65C93.2609 275.417 93.9359 275.283 94.7859 275.25L94.8109 272.45C94.7658 272.452 94.7209 272.453 94.6763 272.455C93.5309 272.505 92.5743 272.664 91.8065 272.931C91.7291 272.958 91.6535 272.986 91.5799 273.015C91.5663 273.021 91.5527 273.026 91.5391 273.032C91.5043 273.046 91.4699 273.06 91.4359 273.075C90.5859 273.442 89.9026 274.033 89.3859 274.85C89.2843 275.011 89.1859 275.184 89.0908 275.371C89.0804 275.392 89.0701 275.412 89.0598 275.433C88.6842 276.188 88.3596 277.152 88.0859 278.325C88.0733 278.379 88.061 278.433 88.0488 278.487C88.0459 278.5 88.043 278.513 88.0401 278.526C87.848 279.381 87.7133 280.164 87.6359 280.875C87.6252 280.974 87.6152 281.076 87.6058 281.182C87.6056 281.184 87.6054 281.187 87.6052 281.189C87.5424 281.904 87.5109 282.783 87.5109 283.825C87.5109 284.879 87.5431 285.766 87.6074 286.486C87.6076 286.488 87.6078 286.49 87.608 286.493C87.6167 286.59 87.626 286.684 87.6359 286.775C87.7133 287.486 87.848 288.269 88.0401 289.124C88.043 289.137 88.0459 289.15 88.0488 289.163C88.061 289.217 88.0733 289.271 88.0859 289.325C88.3596 290.498 88.6842 291.462 89.0598 292.217C89.0701 292.238 89.0804 292.258 89.0908 292.279C89.1859 292.466 89.2843 292.639 89.3859 292.8C89.9026 293.617 90.5776 294.208 91.4109 294.575C91.4517 294.593 91.4931 294.61 91.5352 294.627C91.5488 294.632 91.5624 294.638 91.5762 294.643C91.651 294.672 91.7278 294.7 91.8066 294.727C92.5725 294.99 93.5291 295.145 94.6763 295.195C94.7209 295.197 94.7658 295.198 94.8109 295.2L94.7859 292.4C93.9359 292.367 93.2609 292.233 92.7609 292C92.7002 291.973 92.641 291.943 92.5832 291.911C92.577 291.907 92.5708 291.904 92.5647 291.9ZM103.251 288.775L100.726 286.95L101.976 285.2L103.651 283.7L101.551 283.4L99.4012 282.7L100.276 279.975L102.576 280.65L104.251 281.625L103.826 279.55V277.325H107.001V279.55L106.601 281.6L108.301 280.65L110.626 279.925L111.526 282.75L109.326 283.45L107.226 283.7L108.801 285.15L110.151 286.975L107.701 288.8L106.251 286.85L105.426 285.125L104.601 286.875L103.251 288.775ZM105.465 290.8C105.931 291.321 106.568 291.666 107.266 291.768C108.054 291.884 108.855 291.681 109.493 291.206L111.943 289.381C112.265 289.141 112.524 288.85 112.72 288.527C113.086 288.686 113.491 288.775 113.916 288.775H115.966V291.175C115.966 292.832 117.31 294.175 118.966 294.175H121.916C123.573 294.175 124.916 292.832 124.916 291.175V288.775H126.966C127.389 288.775 127.791 288.688 128.156 288.53C128.356 288.854 128.622 289.145 128.949 289.381L131.474 291.206C132.123 291.675 132.931 291.865 133.72 291.735C134.387 291.625 134.994 291.293 135.445 290.8C135.912 291.321 136.548 291.666 137.246 291.768C138.034 291.884 138.835 291.681 139.474 291.206L141.924 289.381C143.154 288.465 143.481 286.785 142.737 285.486C143.352 285.21 143.859 284.733 144.172 284.128C144.537 283.421 144.607 282.598 144.365 281.839L143.465 279.014C142.991 277.526 141.462 276.664 139.964 276.995C139.799 275.493 138.527 274.325 136.982 274.325H133.807C132.25 274.325 130.97 275.511 130.821 277.028C129.348 276.744 127.868 277.601 127.4 279.058L127.057 280.126C127.027 280.125 126.997 280.125 126.966 280.125H124.916V277.875C124.916 276.218 123.573 274.875 121.916 274.875H118.966C117.31 274.875 115.966 276.218 115.966 277.875V280.125H113.916C113.89 280.125 113.865 280.125 113.839 280.126L113.485 279.014C113.01 277.526 111.482 276.664 109.983 276.995C109.819 275.493 108.546 274.325 107.001 274.325H103.826C102.269 274.325 100.99 275.511 100.841 277.028C99.3674 276.744 97.8876 277.601 97.4198 279.058L96.5448 281.783C96.0762 283.242 96.7841 284.798 98.1432 285.424C97.361 286.744 97.7021 288.466 98.9688 289.381L101.494 291.206C102.142 291.675 102.951 291.865 103.74 291.735C104.407 291.625 105.013 291.293 105.465 290.8ZM113.916 283.125V285.775H118.966V291.175H121.916V285.775H126.966V283.125H121.916V277.875H118.966V283.125H113.916ZM130.707 286.95L133.232 288.775L134.582 286.875L135.407 285.125L136.232 286.85L137.682 288.8L140.132 286.975L138.782 285.15L137.207 283.7L139.307 283.45L141.507 282.75L140.607 279.925L138.282 280.65L136.582 281.6L136.982 279.55V277.325H133.807V279.55L134.232 281.625L132.557 280.65L130.257 279.975L129.382 282.7L131.532 283.4L133.632 283.7L131.957 285.2L130.707 286.95ZM143.097 292.373C143.111 290.773 144.38 289.465 145.979 289.402C146.284 289.39 146.501 289.362 146.646 289.333C146.665 289.329 146.683 289.326 146.698 289.322C146.781 289.141 146.916 288.761 147.046 288.086C147.202 287.191 147.305 286.468 147.361 285.904C147.416 285.343 147.447 284.653 147.447 283.825C147.447 282.993 147.416 282.314 147.362 281.774L147.361 281.766C147.304 281.187 147.202 280.456 147.045 279.562C146.916 278.889 146.781 278.509 146.698 278.328C146.683 278.324 146.665 278.321 146.646 278.317C146.501 278.288 146.284 278.26 145.979 278.248C144.38 278.185 143.111 276.877 143.097 275.277L143.072 272.477C143.065 271.658 143.392 270.872 143.979 270.3C144.566 269.729 145.361 269.423 146.179 269.452C147.779 269.509 149.314 269.751 150.635 270.32C152.065 270.937 153.208 271.943 154.032 273.246C154.802 274.464 155.332 275.987 155.718 277.643L155.719 277.647C155.957 278.67 156.13 279.641 156.229 280.551C156.329 281.467 156.372 282.569 156.372 283.825C156.372 285.081 156.329 286.183 156.229 287.099C156.13 288.009 155.957 288.98 155.719 290.003L155.718 290.007C155.332 291.663 154.802 293.186 154.032 294.404C153.209 295.704 152.07 296.708 150.645 297.325C149.327 297.903 147.782 298.142 146.178 298.198C145.36 298.227 144.565 297.92 143.979 297.349C143.392 296.778 143.065 295.992 143.072 295.173L143.097 292.373ZM153.332 281.18C153.332 281.181 153.333 281.182 153.333 281.184L153.278 281.189C153.277 281.187 153.277 281.184 153.277 281.182L153.332 281.176C153.332 281.178 153.332 281.179 153.332 281.18ZM151.818 275.423L151.921 275.368C151.916 275.357 151.91 275.346 151.904 275.335C152.394 276.218 152.702 277.251 152.912 278.298C152.912 278.298 152.912 278.298 152.912 278.298C152.923 278.354 152.934 278.41 152.944 278.466L152.952 278.507C153.104 279.373 153.221 280.163 153.3 280.869C153.312 280.975 153.322 281.078 153.332 281.18M151.786 275.361C151.797 275.381 151.807 275.402 151.818 275.423L151.786 275.361ZM151.786 275.361C151.693 275.178 151.597 275.007 151.497 274.85C150.98 274.033 150.297 273.442 149.447 273.075C149.418 273.062 149.388 273.05 149.358 273.038C149.322 273.023 149.285 273.008 149.248 272.994C149.192 272.972 149.135 272.951 149.076 272.931C148.309 272.664 147.352 272.505 146.206 272.455C146.162 272.453 146.117 272.452 146.072 272.45L146.097 275.25C146.947 275.283 147.614 275.417 148.097 275.65C148.165 275.679 148.23 275.712 148.294 275.747C148.584 275.906 148.832 276.126 149.039 276.405C149.124 276.518 149.201 276.642 149.272 276.775C149.567 277.299 149.806 278.034 149.988 278.977C149.988 278.978 149.988 278.979 149.988 278.98L149.875 279.007C149.875 279.006 149.875 279.004 149.875 279.003C149.878 279.017 149.881 279.031 149.884 279.045M149.885 279.046L149.997 279.025L149.885 279.046ZM149.358 294.613C149.388 294.6 149.418 294.588 149.447 294.575C150.297 294.208 150.98 293.617 151.497 292.8C151.597 292.643 151.693 292.472 151.786 292.289C151.797 292.269 151.807 292.248 151.818 292.227C152.196 291.471 152.522 290.503 152.797 289.325M149.272 290.875C149.567 290.351 149.806 289.616 149.988 288.673C149.988 288.672 149.988 288.671 149.988 288.67C149.991 288.655 149.994 288.64 149.997 288.625C150.143 287.794 150.25 287.071 150.32 286.457C150.329 286.369 150.339 286.283 150.347 286.2C150.414 285.517 150.447 284.725 150.447 283.825C150.447 282.925 150.414 282.142 150.347 281.475M149.272 290.875C149.201 291.008 149.124 291.132 149.039 291.245C148.832 291.524 148.584 291.744 148.294 291.903C148.288 291.907 148.282 291.91 148.276 291.913C148.218 291.945 148.158 291.973 148.097 292C147.614 292.233 146.947 292.367 146.097 292.4L146.072 295.2C146.117 295.198 146.162 295.197 146.206 295.195C147.362 295.145 148.319 294.987 149.076 294.721C149.135 294.7 149.192 294.679 149.248 294.657C149.286 294.643 149.322 294.628 149.358 294.613M32.85 286.925V291.5H28.1V286.925H32.85ZM32.85 277.1V281.675H28.1V277.1H32.85Z" fill="white"/>
<path d="M28.1 286.925H32.85V291.5H28.1V286.925ZM28.1 277.1H32.85V281.675H28.1V277.1Z" fill="#B3666C"/>
<path d="M39.6902 278.95H42.7402V280.75H42.9402C43.4069 279.933 43.8902 279.375 44.3902 279.075C44.8902 278.775 45.5986 278.625 46.5152 278.625C47.7819 278.625 48.7569 278.783 49.4402 279.1C50.1236 279.4 50.6069 279.917 50.8902 280.65C51.1902 281.367 51.3402 282.4 51.3402 283.75V292H48.2902V283.7C48.2902 282.783 48.1152 282.158 47.7652 281.825C47.4319 281.492 46.7986 281.325 45.8652 281.325C45.0486 281.325 44.4152 281.442 43.9652 281.675C43.5319 281.908 43.2152 282.308 43.0152 282.875C42.8319 283.425 42.7402 284.208 42.7402 285.225V292H39.6902V278.95Z" fill="#B3666C"/>
<path d="M60.4805 292.225C58.8638 292.225 57.6138 292.025 56.7305 291.625C55.8471 291.208 55.2138 290.525 54.8305 289.575C54.4638 288.608 54.2805 287.233 54.2805 285.45C54.2805 283.65 54.4638 282.267 54.8305 281.3C55.2138 280.333 55.8388 279.65 56.7055 279.25C57.5888 278.833 58.8471 278.625 60.4805 278.625C62.1138 278.625 63.3638 278.833 64.2305 279.25C65.1138 279.65 65.7388 280.333 66.1055 281.3C66.4888 282.267 66.6805 283.65 66.6805 285.45C66.6805 287.233 66.4888 288.608 66.1055 289.575C65.7388 290.525 65.1138 291.208 64.2305 291.625C63.3471 292.025 62.0971 292.225 60.4805 292.225ZM57.3305 285.45C57.3305 286.55 57.4221 287.4 57.6055 288C57.8055 288.583 58.1221 289 58.5555 289.25C59.0055 289.5 59.6471 289.625 60.4805 289.625C61.3138 289.625 61.9471 289.5 62.3805 289.25C62.8305 289 63.1471 288.583 63.3305 288C63.5305 287.4 63.6305 286.55 63.6305 285.45C63.6305 284.333 63.5305 283.475 63.3305 282.875C63.1471 282.275 62.8305 281.85 62.3805 281.6C61.9471 281.333 61.3138 281.2 60.4805 281.2C59.6471 281.2 59.0055 281.333 58.5555 281.6C58.1221 281.85 57.8055 282.275 57.6055 282.875C57.4221 283.475 57.3305 284.333 57.3305 285.45Z" fill="#B3666C"/>
<path d="M77.0957 292.275C75.8957 292.275 74.9874 292.117 74.3707 291.8C73.754 291.483 73.3374 291.017 73.1207 290.4C72.904 289.767 72.7957 288.908 72.7957 287.825V281.525H69.5707L70.1707 278.95H72.8957V276.3L75.7957 275.075V278.95H80.6707V281.525H75.7957V287.725C75.7957 288.258 75.8374 288.65 75.9207 288.9C76.0207 289.15 76.2207 289.333 76.5207 289.45C76.8374 289.567 77.3124 289.625 77.9457 289.625C78.6624 289.625 79.704 289.525 81.0707 289.325V291.95C79.3374 292.167 78.0124 292.275 77.0957 292.275Z" fill="#B3666C"/>
<path d="M94.8109 295.2C93.3943 295.15 92.2609 294.942 91.4109 294.575C90.5776 294.208 89.9026 293.617 89.3859 292.8C88.8693 291.983 88.4359 290.825 88.0859 289.325C87.8693 288.392 87.7193 287.542 87.6359 286.775C87.5526 286.008 87.5109 285.025 87.5109 283.825C87.5109 282.625 87.5526 281.642 87.6359 280.875C87.7193 280.108 87.8693 279.258 88.0859 278.325C88.4359 276.825 88.8693 275.667 89.3859 274.85C89.9026 274.033 90.5859 273.442 91.4359 273.075C92.2859 272.708 93.4109 272.5 94.8109 272.45L94.7859 275.25C93.9359 275.283 93.2609 275.417 92.7609 275.65C92.2776 275.867 91.8859 276.242 91.5859 276.775C91.3026 277.308 91.0693 278.058 90.8859 279.025C90.7193 279.975 90.6026 280.792 90.5359 281.475C90.4693 282.142 90.4359 282.925 90.4359 283.825C90.4359 284.725 90.4693 285.517 90.5359 286.2C90.6026 286.867 90.7193 287.675 90.8859 288.625C91.0693 289.592 91.3026 290.342 91.5859 290.875C91.8859 291.408 92.2776 291.783 92.7609 292C93.2609 292.233 93.9359 292.367 94.7859 292.4L94.8109 295.2Z" fill="#B3666C"/>
<path d="M106.251 286.85L105.426 285.125L104.601 286.875L103.251 288.775L100.726 286.95L101.976 285.2L103.651 283.7L101.551 283.4L99.4012 282.7L100.276 279.975L102.576 280.65L104.251 281.625L103.826 279.55V277.325H107.001V279.55L106.601 281.6L108.301 280.65L110.626 279.925L111.526 282.75L109.326 283.45L107.226 283.7L108.801 285.15L110.151 286.975L107.701 288.8L106.251 286.85Z" fill="#B3666C"/>
<path d="M118.966 285.775H113.916V283.125H118.966V277.875H121.916V283.125H126.966V285.775H121.916V291.175H118.966V285.775Z" fill="#B3666C"/>
<path d="M136.232 286.85L135.407 285.125L134.582 286.875L133.232 288.775L130.707 286.95L131.957 285.2L133.632 283.7L131.532 283.4L129.382 282.7L130.257 279.975L132.557 280.65L134.232 281.625L133.807 279.55V277.325H136.982V279.55L136.582 281.6L138.282 280.65L140.607 279.925L141.507 282.75L139.307 283.45L137.207 283.7L138.782 285.15L140.132 286.975L137.682 288.8L136.232 286.85Z" fill="#B3666C"/>
<path d="M146.097 292.4C146.947 292.367 147.614 292.233 148.097 292C148.597 291.783 148.989 291.408 149.272 290.875C149.572 290.342 149.814 289.592 149.997 288.625C150.164 287.675 150.28 286.867 150.347 286.2C150.414 285.517 150.447 284.725 150.447 283.825C150.447 282.925 150.414 282.142 150.347 281.475C150.28 280.792 150.164 279.975 149.997 279.025C149.814 278.058 149.572 277.308 149.272 276.775C148.989 276.242 148.597 275.867 148.097 275.65C147.614 275.417 146.947 275.283 146.097 275.25L146.072 272.45C147.472 272.5 148.597 272.708 149.447 273.075C150.297 273.442 150.98 274.033 151.497 274.85C152.014 275.667 152.447 276.825 152.797 278.325C153.014 279.258 153.164 280.108 153.247 280.875C153.33 281.642 153.372 282.625 153.372 283.825C153.372 285.025 153.33 286.008 153.247 286.775C153.164 287.542 153.014 288.392 152.797 289.325C152.447 290.825 152.014 291.983 151.497 292.8C150.98 293.617 150.297 294.208 149.447 294.575C148.614 294.942 147.489 295.15 146.072 295.2L146.097 292.4Z" fill="#B3666C"/>
<path d="M99 234H125H138.75C145.377 234 150.75 228.627 150.75 222V222" stroke="black" stroke-width="6" stroke-linecap="round"/>
<defs>
<filter id="filter0_d_3520_2" x="0" y="150.428" width="244.922" height="87.8609" filterUnits="userSpaceOnUse" color-interpolation-filters="sRGB">
<feFlood flood-opacity="0" result="BackgroundImageFix"/>
<feColorMatrix in="SourceAlpha" type="matrix" values="0 0 0 0 0 0 0 0 0 0 0 0 0 0 0 0 0 0 127 0" result="hardAlpha"/>
<feOffset dy="4"/>
<feGaussianBlur stdDeviation="2"/>
<feComposite in2="hardAlpha" operator="out"/>
<feColorMatrix type="matrix" values="0 0 0 0 0 0 0 0 0 0 0 0 0 0 0 0 0 0 0.25 0"/>
<feBlend mode="normal" in2="BackgroundImageFix" result="effect1_dropShadow_3520_2"/>
<feBlend mode="normal" in="SourceGraphic" in2="effect1_dropShadow_3520_2" result="shape"/>
</filter>
<filter id="filter1_d_3520_2" x="16.4707" y="27.7595" width="211.214" height="292.24" filterUnits="userSpaceOnUse" color-interpolation-filters="sRGB">
<feFlood flood-opacity="0" result="BackgroundImageFix"/>
<feColorMatrix in="SourceAlpha" type="matrix" values="0 0 0 0 0 0 0 0 0 0 0 0 0 0 0 0 0 0 127 0" result="hardAlpha"/>
<feOffset dy="4"/>
<feGaussianBlur stdDeviation="2"/>
<feComposite in2="hardAlpha" operator="out"/>
<feColorMatrix type="matrix" values="0 0 0 0 0 0 0 0 0 0 0 0 0 0 0 0 0 0 0.25 0"/>
<feBlend mode="normal" in2="BackgroundImageFix" result="effect1_dropShadow_3520_2"/>
<feBlend mode="normal" in="SourceGraphic" in2="effect1_dropShadow_3520_2" result="shape"/>
</filter>
<filter id="filter2_d_3520_2" x="13.4019" y="132.461" width="220.345" height="76.3069" filterUnits="userSpaceOnUse" color-interpolation-filters="sRGB">
<feFlood flood-opacity="0" result="BackgroundImageFix"/>
<feColorMatrix in="SourceAlpha" type="matrix" values="0 0 0 0 0 0 0 0 0 0 0 0 0 0 0 0 0 0 127 0" result="hardAlpha"/>
<feOffset dy="4"/>
<feGaussianBlur stdDeviation="2"/>
<feComposite in2="hardAlpha" operator="out"/>
<feColorMatrix type="matrix" values="0 0 0 0 0 0 0 0 0 0 0 0 0 0 0 0 0 0 0.4 0"/>
<feBlend mode="normal" in2="BackgroundImageFix" result="effect1_dropShadow_3520_2"/>
<feBlend mode="normal" in="SourceGraphic" in2="effect1_dropShadow_3520_2" result="shape"/>
</filter>
<linearGradient id="paint0_linear_3520_2" x1="164.835" y1="157" x2="164.835" y2="191.456" gradientUnits="userSpaceOnUse">
<stop stop-color="#283A99"/>
<stop offset="1" stop-color="#4361FF"/>
</linearGradient>
<linearGradient id="paint1_linear_3520_2" x1="84.3347" y1="157" x2="84.3347" y2="191.456" gradientUnits="userSpaceOnUse">
<stop stop-color="#283A99"/>
<stop offset="1" stop-color="#4361FF"/>
</linearGradient>
</defs>
</svg>
