<svg class="profile-picture" viewBox="0 0 254 380" fill="none" xmlns="http://www.w3.org/2000/svg">
<path fill-rule="evenodd" clip-rule="evenodd" d="M8.03755 134.214L7.96923 133.912C5.56401 123.289 5.22387 112.303 6.96736 101.551L8.84263 89.9873C12.3167 68.564 23.8577 49.2825 41.0978 36.0989L58.7726 22.5828C65.8628 17.161 73.763 12.8903 82.1826 9.9278L96.7105 4.81613C107.626 0.975572 119.21 -0.594791 130.754 0.201332L144.482 1.1481C155.401 1.90109 165.986 5.22922 175.37 10.86C186.141 17.3225 194.953 26.5906 200.864 37.6736L202.082 39.957H205.536C209.977 39.957 214.39 40.6731 218.604 42.0777C229.853 45.8273 238.949 54.2278 243.58 65.1433L245.35 69.3157C248.042 75.6617 249.43 82.4847 249.43 89.3781V106.041C249.43 110.803 249.029 115.556 248.233 120.251L248.217 120.346L241.234 155.562C250.113 160.732 255.135 170.832 253.67 181.215L248.282 219.423C247.018 228.386 241.108 236.012 232.745 239.473L224.401 242.925C224.395 242.95 224.389 242.975 224.383 243H230.52C241.699 243 250.462 252.604 249.441 263.736L240.358 362.736C239.461 372.516 231.259 380 221.438 380H28.5623C18.7415 380 10.539 372.516 9.64174 362.736L0.559172 263.736C-0.462121 252.604 8.30086 243 19.4797 243H31.8272C31.7896 242.864 31.7521 242.728 31.7149 242.592L24.1774 239.473C15.8135 236.012 9.90371 228.386 8.63971 219.423L3.25147 181.215C1.82384 171.092 6.5617 161.238 15.0273 155.96L8.03755 134.214ZM226.015 234.682L230.068 233.004C236.141 230.491 240.433 224.954 241.351 218.445L246.739 180.238C247.714 173.322 244.727 166.58 239.251 162.614L236.784 170.361C238.836 172.736 239.847 175.936 239.387 179.201L233.999 217.408C233.454 221.269 230.932 224.56 227.353 226.092L226.054 234.432C226.041 234.515 226.028 234.598 226.015 234.682ZM220.643 223.694L219.137 233.354C218.932 234.671 218.703 235.983 218.449 237.289C215.296 237.314 212.465 235.053 211.848 231.912L217.676 194.513C217.896 194.748 218.119 194.957 218.338 195.141C219.108 195.788 220.192 196.438 221.571 196.747C221.86 196.812 222.18 196.864 222.524 196.895L220.126 220.866C220.023 221.901 220.224 222.865 220.643 223.694ZM229.175 166.332C229.401 163.568 229.552 160.799 229.628 158.028L229.463 157.958C226.955 156.897 224.155 157.483 222.283 159.241L223.5 163.5V187.13L225.205 170.079C225.25 169.627 225.369 169.185 225.558 168.77C226.228 167.296 227.654 166.397 229.175 166.332ZM223.316 188.969L223.319 188.942L218.77 187.493L218.663 188.179L223.316 188.969ZM222.235 151.235C224.569 150.397 227.132 150.188 229.651 150.715C229.611 148.776 229.533 146.838 229.419 144.9C229.212 146.018 228.92 146.844 228.58 147.402C227.997 148.356 227.273 148.522 226.586 148.008C225.818 147.432 225.098 146.003 224.68 143.871C224.656 143.75 224.633 143.626 224.611 143.5L218.729 109.484C217.707 103.574 213.498 98.5253 208.334 94.3898L221.852 143.033C222.058 145.764 222.185 148.5 222.235 151.235ZM223.31 189.033L218.397 189.882L218.535 189H223.313L223.31 189.033ZM209.94 241.346C210.765 241.995 211.664 242.551 212.617 243H209.507C209.656 242.45 209.8 241.899 209.94 241.346ZM214.638 157.962C214.557 158.122 214.479 158.285 214.404 158.451C212.254 163.18 210.893 168.23 210.376 173.4L204.793 229.237C204.704 230.125 204.7 230.994 204.772 231.837C204.154 235.615 203.306 239.343 202.235 243H54.2318C53.2666 240.147 52.4217 237.251 51.7004 234.319C52.1439 232.735 52.308 231.026 52.1291 229.237L46.5455 173.4C46.0564 168.51 44.8127 163.727 42.86 159.221L48.4865 149.907L55.9828 112.505L55.9871 112.485C56.2807 111.125 57.6994 108.918 60.9918 106.17C64.0839 103.589 67.8783 101.311 71.0865 99.5839L77.6698 96.0391C81.8663 93.7794 86.7592 93.1807 91.3766 94.362L108.449 98.7292C111.721 99.5664 115.086 99.9899 118.464 99.9899H143.385C147.005 99.9899 150.609 99.5034 154.1 98.5434L168.798 94.5015C173.377 93.2423 178.261 93.7447 182.488 95.9096L189.452 99.4765C193.041 101.315 196.833 103.407 199.845 105.83C202.974 108.348 204.253 110.424 204.515 111.942L204.539 112.082L213.705 154.699L214.638 157.962ZM46.868 243H44.3052C45.0662 242.642 45.7925 242.215 46.4747 241.727C46.6033 242.152 46.7344 242.576 46.868 243ZM37.5602 237.218C40.3758 237.637 43.0824 236.178 44.3876 233.802C43.7739 231.076 43.2599 228.322 42.8479 225.546L39.322 201.789C38.6202 202.415 37.8041 202.925 36.89 203.293C36.2662 203.544 35.6555 203.705 35.0896 203.808L36.7954 220.866C36.963 222.542 36.332 224.033 35.2707 225.066L35.5037 226.636C36.0327 230.201 36.7196 233.731 37.5602 237.218ZM33.6838 150.918C33.7691 150.941 33.8541 150.965 33.9389 150.99C33.9429 150.827 33.9472 150.663 33.9517 150.499C33.8651 150.646 33.7757 150.785 33.6838 150.918ZM26.5499 149.629C26.7366 150.038 26.9413 150.408 27.1604 150.739C26.9446 150.786 26.7292 150.839 26.5143 150.897C26.5244 150.474 26.5363 150.051 26.5499 149.629ZM27.4587 157.958L26.5185 158.356C26.5857 161.033 26.7234 163.708 26.9317 166.378C28.737 166.095 30.5746 167.034 31.3642 168.771C31.5524 169.185 31.6715 169.627 31.7168 170.079L34.384 196.751C35.0318 196.429 35.1593 195.762 35.3655 194.682C35.4058 194.471 35.4492 194.243 35.5 194L35.2906 174.592C34.5524 169.313 34.1067 164 33.9545 158.679C32.1234 157.37 29.6767 157.02 27.4587 157.958ZM10.1829 180.238C9.23251 173.499 12.0448 166.924 17.2558 162.923L19.1783 171.648C17.7828 173.833 17.1532 176.495 17.5348 179.201L22.923 217.408C23.3977 220.774 25.3759 223.707 28.2463 225.418L28.5795 227.664C28.9044 229.852 29.2854 232.029 29.7219 234.191L26.8538 233.004C20.7804 230.491 16.489 224.954 15.5711 218.445L10.1829 180.238ZM202.334 98.9404C199.165 96.6821 195.66 94.7915 192.643 93.2462L185.679 89.6792C179.894 86.7163 173.209 86.0286 166.942 87.752L152.244 91.794C149.358 92.5877 146.378 92.9899 143.385 92.9899H118.464C115.671 92.9899 112.889 92.6397 110.183 91.9476L93.1115 87.5803C86.7916 85.9636 80.0948 86.783 74.3511 89.8758L67.7678 93.4206C61.019 97.0546 50.6986 103.57 49.1308 111.073L41.8631 147.333L41.0178 148.733C41.0811 147.232 41.169 145.731 41.2815 144.232L47.6988 99.2023C52.3689 94.0656 58.8843 89.7714 64.2478 86.8834L70.8311 83.3385C78.2158 79.3622 86.826 78.3087 94.9516 80.3873L112.024 84.7545C114.128 85.2929 116.292 85.5652 118.464 85.5652H143.385C145.713 85.5652 148.03 85.2524 150.275 84.6351L164.973 80.5931C173.031 78.3773 181.626 79.2614 189.063 83.071L196.028 86.6379C197.134 87.2049 198.272 87.8128 199.422 88.4611L202.334 98.9404ZM236.38 144.052L241.331 119.08C242.062 114.772 242.43 110.41 242.43 106.041V89.3781C242.43 83.424 241.231 77.5308 238.906 72.0495L237.136 67.8771C233.289 58.8106 225.734 51.8329 216.39 48.7185C212.89 47.5518 209.225 46.957 205.536 46.957H200.882C199.035 46.957 197.339 45.9393 196.47 44.3099L194.687 40.9677C189.373 31.0042 181.452 22.6722 171.769 16.8625C163.332 11.8004 153.816 8.80844 144.001 8.13151L130.273 7.18474C119.68 6.45422 109.05 7.89519 99.0338 11.4193L84.5059 16.531C76.78 19.2494 69.5307 23.1682 63.0248 28.1433L45.3499 41.6594C29.5303 53.7568 18.9402 71.4496 15.7524 91.1078L13.8771 102.672C12.2773 112.537 12.5894 122.619 14.7964 132.366L19.6306 147.406C19.7059 145.727 19.8079 144.048 19.9365 142.37L19.9767 141.845L22.2872 131.828L22.0378 130.727C20.0409 121.907 19.7586 112.786 21.206 103.86L23.0813 92.2962C25.198 79.2434 30.9218 67.1482 39.4756 57.309L40.6065 52.406L45.7834 50.924C47.0955 49.755 48.4549 48.6317 49.86 47.5573L67.5349 34.0412C73.4212 29.5399 79.9801 25.9942 86.9702 23.5348L101.498 18.4231C110.56 15.2346 120.178 13.9309 129.762 14.5918L143.49 15.5386C152.136 16.1348 160.517 18.7703 167.949 23.2291C176.478 28.3464 183.455 35.6855 188.136 44.4617L192.015 51.7346C192.884 53.3639 194.58 54.3817 196.427 54.3817H205.536C208.427 54.3817 211.3 54.8478 214.043 55.7622C221.365 58.203 227.286 63.6714 230.301 70.7768L232.071 74.9492C234.007 79.5133 235.005 84.4203 235.005 89.3781V106.041C235.005 109.994 234.673 113.941 234.011 117.838L232.211 128.453L236.176 141.153L236.236 141.951C236.289 142.651 236.337 143.352 236.38 144.052ZM227.559 113.556C227.856 111.063 228.005 108.554 228.005 106.041V89.3781C228.005 85.3597 227.196 81.3824 225.627 77.6831L223.857 73.5107C221.627 68.2541 217.246 64.2086 211.829 62.4029C210.925 62.1017 210.002 61.8661 209.068 61.6976L211.716 62.8218L227.559 113.556ZM183.639 50.9048L181.96 47.7558C177.876 40.0991 171.788 33.6961 164.347 29.2315C157.864 25.3415 150.551 23.0422 143.008 22.522L129.28 21.5752C120.647 20.9799 111.984 22.1542 103.821 25.0263L89.2936 30.138C82.9972 32.3533 77.0892 35.5471 71.7871 39.6017L63.6811 45.8004L128.138 27.3482L183.639 50.9048ZM34.8643 77.3007C32.5507 82.3916 30.9009 87.8059 29.991 93.4167L28.1158 104.981C27.9166 106.209 27.7537 107.442 27.6272 108.677L34.8643 77.3007ZM29.4676 131.843L45.8931 60.6312C45.9842 60.5319 46.0756 60.433 46.1673 60.3342L41.0576 96.1884C38.2676 99.6076 35.9544 103.609 35.0111 108.123L34.9901 108.223L30.1971 135.065L29.4676 131.843ZM49.2524 88.3014C53.1769 85.2183 57.3382 82.6536 60.9291 80.7201L67.5124 77.1752C76.4443 72.3658 86.8584 71.0915 96.6864 73.6057L113.758 77.9729C115.296 78.3663 116.877 78.5652 118.464 78.5652H143.385C145.086 78.5652 146.779 78.3367 148.419 77.8856L163.117 73.8437C172.863 71.1637 183.259 72.233 192.255 76.8407L196.846 79.1922L195.233 73.3902L127.246 49.4457L52.7269 63.9213L49.2524 88.3014ZM205.407 83.8557C207.78 85.3004 210.189 86.9278 212.476 88.7399L206 68L127.684 34.7595L49.289 57.2016C49.1743 57.3089 49.06 57.4167 48.9462 57.5248L127.778 42.2115L201.001 68L205.407 83.8557ZM215.17 250H207.335C206.505 252.367 205.587 254.702 204.582 257H212.633C213.559 254.697 214.405 252.363 215.17 250ZM209.526 264H201.193C199.311 267.533 197.215 270.959 194.912 274.258C188.139 283.964 179.705 292.397 169.999 299.169L160.721 305.642C153.342 310.79 144.181 312.7 135.36 310.931C130.341 309.924 125.176 309.88 120.141 310.801L119.86 310.852C109.992 312.657 99.8282 310.075 92.0191 303.779L83.852 297.194C77.0792 291.734 70.9571 285.512 65.6065 278.652C61.9858 274.01 58.7449 269.11 55.9047 264H47.4893C50.9489 270.752 55.0498 277.19 59.7521 283.218C65.4529 290.527 71.9758 297.156 79.192 302.974L87.359 309.559C96.85 317.211 109.203 320.349 121.196 318.156L121.477 318.104C125.587 317.352 129.803 317.388 133.9 318.21C144.706 320.378 155.93 318.038 164.969 311.731L174.247 305.258C184.67 297.986 193.727 288.93 201.001 278.507C204.225 273.887 207.073 269.036 209.526 264ZM39.6797 264C43.6497 272.311 48.5219 280.202 54.2325 287.523C60.2635 295.256 67.1642 302.269 74.7984 308.424L82.9655 315.008C94.042 323.939 108.459 327.602 122.455 325.041L122.736 324.99C125.974 324.398 129.295 324.426 132.523 325.073C145.202 327.617 158.369 324.871 168.975 317.472L178.252 310.999C189.352 303.255 198.996 293.612 206.741 282.513C210.824 276.662 214.341 270.463 217.256 264H228.328L219.613 359H30.3872L21.6716 264H39.6797ZM36.5898 257H19.4797C16.5379 257 14.2319 259.527 14.5006 262.457L23.5832 361.457C23.6127 361.779 23.6723 362.091 23.7589 362.391C24.3656 364.492 26.3009 366 28.5623 366H221.438C224.022 366 226.181 364.03 226.417 361.457L235.499 262.457C235.516 262.274 235.523 262.092 235.52 261.913C235.477 259.221 233.278 257 230.52 257H220.141C221.003 254.694 221.792 252.359 222.505 250H230.52C237.581 250 243.115 256.066 242.47 263.096L233.388 362.096C232.821 368.273 227.64 373 221.438 373H28.5623C22.3597 373 17.1791 368.273 16.6125 362.096L7.5299 263.096C7.50902 262.869 7.49462 262.642 7.48653 262.417C7.4751 262.098 7.47628 261.782 7.48965 261.469C7.75895 255.155 12.971 250 19.4797 250H33.9825C34.7835 252.359 35.6531 254.693 36.5898 257ZM44.1815 257H52.3255C51.2488 254.701 50.2495 252.366 49.3295 250H41.3999C42.2543 252.362 43.182 254.697 44.1815 257ZM56.8777 250C57.8706 252.371 58.9493 254.706 60.1118 257H196.887C197.98 254.708 198.98 252.372 199.883 250H56.8777ZM193.176 264H63.9965C66.1608 267.576 68.5402 271.032 71.1261 274.347C76.1465 280.784 81.8908 286.621 88.2456 291.745L96.4127 298.329C102.636 303.347 110.736 305.405 118.6 303.966L118.881 303.915C124.789 302.834 130.849 302.886 136.737 304.067C143.686 305.462 150.903 303.957 156.715 299.901L165.993 293.428C175.024 287.128 182.87 279.282 189.172 270.252C190.591 268.218 191.927 266.132 193.176 264Z" fill="white"/>
<path d="M13.8588 179.719C12.919 173.055 16.5786 166.592 22.7768 163.97L28.9052 161.377C30.3876 160.75 32.0999 161.418 32.766 162.883L35.2814 168.417L41.4699 230.303C41.6933 232.536 39.4534 234.201 37.3793 233.342L28.2732 229.574C23.4145 227.564 19.9813 223.134 19.2471 217.927L13.8588 179.719Z" fill="#EDD5BE"/>
<path d="M13.8588 179.719C12.919 173.055 16.5786 166.592 22.7768 163.97L28.9052 161.377C30.3876 160.75 32.0999 161.418 32.766 162.883L35.2814 168.417L41.4699 230.303C41.6933 232.536 39.4534 234.201 37.3793 233.342L28.2732 229.574C23.4145 227.564 19.9813 223.134 19.2471 217.927L13.8588 179.719Z" fill="#EDD5BE"/>
<path d="M40.1061 216.664C37.6475 218.804 34.8996 220 32 220C26.4152 220 21.3932 215.561 17.9169 208.495L19.2471 217.927C19.9813 223.134 23.4145 227.564 28.2732 229.574L37.3793 233.342C39.4534 234.201 41.6933 232.536 41.4699 230.303L40.1061 216.664Z" fill="#E2CBB4"/>
<path fill-rule="evenodd" clip-rule="evenodd" d="M27.4587 157.958C30.7943 156.547 34.6469 158.05 36.1456 161.347C37.9791 165.381 39.1393 169.688 39.5802 174.096L45.1639 229.933C45.6664 234.959 40.6267 238.704 35.9599 236.772L26.8538 233.004C20.7804 230.491 16.489 224.954 15.5711 218.445L10.1829 180.238C9.00812 171.908 13.5826 163.829 21.3303 160.551L27.4587 157.958ZM31.7168 170.079C31.6715 169.627 31.5524 169.185 31.3642 168.771C30.4301 166.716 28.0289 165.779 25.95 166.658L24.2232 167.389C19.5746 169.356 16.8299 174.203 17.5348 179.201L22.923 217.408C23.4738 221.313 26.0486 224.636 29.6927 226.144C33.2941 227.634 37.1833 224.744 36.7954 220.866L31.7168 170.079Z" fill="black"/>
<path d="M243.063 179.719C244.003 173.055 240.343 166.592 234.145 163.97L228.017 161.377C226.534 160.75 224.822 161.418 224.156 162.883L221.64 168.417L215.452 230.303C215.229 232.536 217.468 234.201 219.543 233.342L228.649 229.574C233.507 227.564 236.941 223.134 237.675 217.927L243.063 179.719Z" fill="#EDD5BE"/>
<path d="M243.063 179.719C244.003 173.055 240.343 166.592 234.145 163.97L228.017 161.377C226.534 160.75 224.822 161.418 224.156 162.883L221.64 168.417L215.452 230.303C215.229 232.536 217.468 234.201 219.543 233.342L228.649 229.574C233.507 227.564 236.941 223.134 237.675 217.927L243.063 179.719Z" fill="#EDD5BE"/>
<path d="M216.819 216.669C219.278 218.809 222.026 220.005 224.925 220.005C230.51 220.005 235.532 215.567 239.008 208.5L237.678 217.932C236.944 223.139 233.511 227.569 228.652 229.58L219.546 233.348C217.472 234.206 215.232 232.541 215.455 230.308L216.819 216.669Z" fill="#E2CBB4"/>
<path fill-rule="evenodd" clip-rule="evenodd" d="M229.463 157.958C226.128 156.547 222.275 158.05 220.776 161.347C218.943 165.381 217.783 169.688 217.342 174.096L211.758 229.933C211.255 234.959 216.295 238.704 220.962 236.772L230.068 233.004C236.141 230.491 240.433 224.954 241.351 218.445L246.739 180.238C247.914 171.908 243.339 163.829 235.592 160.551L229.463 157.958ZM225.205 170.079C225.25 169.627 225.369 169.185 225.558 168.77C226.492 166.715 228.893 165.779 230.972 166.658L232.699 167.389C237.347 169.356 240.092 174.203 239.387 179.201L233.999 217.408C233.448 221.313 230.873 224.636 227.229 226.144C223.628 227.634 219.739 224.744 220.126 220.866L225.205 170.079Z" fill="black"/>
<path d="M57 67L127.731 38.4855L200.405 63L225.554 142.754C226.407 154.101 225.953 165.507 224.201 176.75L214.958 226.091C212.515 241.768 207.036 263.372 197.956 276.383C190.933 286.447 182.188 295.191 172.123 302.213L162.845 308.686C154.636 314.414 144.444 316.539 134.63 314.57C130.072 313.656 125.382 313.616 120.809 314.452L120.528 314.504C109.598 316.503 98.3391 313.643 89.6891 306.669L81.522 300.084C74.5275 294.445 68.205 288.02 62.6793 280.935C50.2419 264.989 42.1447 246.095 39.1758 226.091L31.7919 176.34C30.1636 165.368 29.7696 154.248 30.6175 143.189L57 67Z" fill="#EDD5BE"/>
<path d="M129.427 313.909C171.761 290.32 204.692 248.689 220.223 197.985L214.958 226.091C212.515 241.768 207.036 263.372 197.956 276.383C190.933 286.447 182.188 295.191 172.123 302.213L162.845 308.687C154.636 314.414 144.444 316.539 134.63 314.57C132.91 314.225 131.171 314.005 129.427 313.909Z" fill="#E2CBB4"/>
<path fill-rule="evenodd" clip-rule="evenodd" d="M127.684 34.7595L206 68L229.256 142.476C230.13 154.106 229.665 165.798 227.869 177.322L219.137 233.354C216.607 249.589 210.404 265.033 201.001 278.507C193.727 288.93 184.67 297.986 174.247 305.258L164.969 311.731C155.93 318.038 144.706 320.378 133.9 318.21C129.803 317.388 125.587 317.352 121.477 318.104L121.196 318.156C109.203 320.349 96.85 317.211 87.359 309.559L79.192 302.974C71.9758 297.156 65.4529 290.527 59.752 283.218C46.9205 266.767 38.5666 247.274 35.5037 226.636L28.1198 176.885C26.4507 165.639 26.0469 154.241 26.916 142.905L46.5 58L127.684 34.7595ZM127.778 42.2115L46.5 58L34.3189 143.473C33.4923 154.256 33.8764 165.097 35.464 175.795L42.8479 225.546C45.7227 244.916 53.5633 263.211 65.6065 278.652C70.9571 285.512 77.0792 291.734 83.8521 297.194L92.0191 303.779C99.8282 310.075 109.992 312.657 119.86 310.852L120.141 310.801C125.176 309.88 130.341 309.924 135.36 310.931C144.181 312.7 153.342 310.79 160.721 305.642L169.999 299.169C179.705 292.397 188.139 283.964 194.912 274.258C203.669 261.711 209.445 247.329 211.801 232.211L220.533 176.179C222.241 165.217 222.684 154.095 221.852 143.033L201.001 68L127.778 42.2115Z" fill="black"/>
<path fill-rule="evenodd" clip-rule="evenodd" d="M74.6321 116.227C74.6321 114.997 75.6294 114 76.8595 114H98.4978C104.185 114 109.823 115.059 115.123 117.122C119.908 118.984 124.998 119.94 130.132 119.94H130.268C135.521 119.94 140.735 119.037 145.683 117.272L146.167 117.099C151.915 115.048 157.973 114 164.076 114H182.29C183.52 114 184.517 114.997 184.517 116.227C184.517 117.458 183.52 118.455 182.29 118.455H164.076C158.483 118.455 152.931 119.416 147.664 121.295L147.18 121.468C141.752 123.405 136.031 124.395 130.268 124.395H130.132C124.445 124.395 118.807 123.336 113.507 121.273C108.722 119.41 103.632 118.455 98.4978 118.455H76.8595C75.6294 118.455 74.6321 117.458 74.6321 116.227Z" fill="#E2CBB4"/>
<path fill-rule="evenodd" clip-rule="evenodd" d="M128.832 304.288C128.012 304.288 127.347 303.624 127.347 302.804V295.379C127.347 294.559 128.012 293.894 128.832 293.894C129.652 293.894 130.317 294.559 130.317 295.379V302.804C130.317 303.624 129.652 304.288 128.832 304.288Z" fill="#E2CBB4"/>
<path fill-rule="evenodd" clip-rule="evenodd" d="M156.75 226C158.407 226 159.75 227.343 159.75 229C159.75 237.284 153.034 244 144.75 244H105C103.343 244 102 242.657 102 241C102 239.343 103.343 238 105 238H144.75C149.721 238 153.75 233.971 153.75 229C153.75 227.343 155.093 226 156.75 226Z" fill="black"/>
<path fill-rule="evenodd" clip-rule="evenodd" d="M124.128 214.829C127.426 217.028 131.723 217.028 135.022 214.829L141.704 210.374C142.727 209.692 144.11 209.969 144.793 210.992C145.475 212.016 145.198 213.399 144.175 214.081L137.493 218.536C132.698 221.732 126.452 221.732 121.657 218.536L114.975 214.081C113.951 213.399 113.675 212.016 114.357 210.992C115.04 209.969 116.422 209.692 117.446 210.374L124.128 214.829Z" fill="#C7B6A5"/>
<path fill-rule="evenodd" clip-rule="evenodd" d="M117.038 150.029C115.988 151.79 113.709 152.367 111.948 151.317L102.442 145.65C89.9421 138.199 74.1188 139.348 62.8272 148.528C61.2363 149.822 58.8982 149.58 57.6048 147.99C56.3115 146.399 56.5527 144.061 58.1436 142.767C71.8538 131.621 91.0664 130.225 106.244 139.273L115.75 144.94C117.511 145.989 118.087 148.268 117.038 150.029Z" fill="black"/>
<path fill-rule="evenodd" clip-rule="evenodd" d="M141.978 150.029C143.028 151.79 145.306 152.367 147.067 151.317L156.573 145.65C169.073 138.199 184.896 139.348 196.188 148.528C197.779 149.822 200.117 149.58 201.41 147.99C202.704 146.399 202.463 144.061 200.872 142.767C187.161 131.621 167.949 130.225 152.772 139.273L143.266 144.94C141.504 145.989 140.928 148.268 141.978 150.029Z" fill="black"/>
<circle cx="170.414" cy="172.94" r="26.8929" fill="white"/>
<circle cx="170.835" cy="181.228" r="17.2282" fill="#4361FF"/>
<circle cx="170.835" cy="181.228" r="17.2282" fill="url(#paint0_linear_3520_2)" fill-opacity="0.7"/>
<circle cx="170.835" cy="181.228" r="11.3454" fill="black"/>
<path d="M143.113 176.354C144.767 176.58 146.29 175.422 146.515 173.769L147.034 169.96C148.138 161.868 153.345 154.92 160.803 151.591C166.483 149.055 172.946 148.867 178.769 151.063C187.124 154.213 193.012 161.799 193.976 170.671L194.304 173.687C194.484 175.346 195.975 176.544 197.634 176.364C199.292 176.184 200.491 174.693 200.311 173.034L199.983 170.018C198.772 158.877 191.382 149.361 180.901 145.409C173.591 142.653 165.476 142.888 158.34 146.073C148.973 150.255 142.433 158.98 141.047 169.144L140.528 172.952C140.303 174.606 141.46 176.129 143.113 176.354Z" fill="black"/>
<path fill-rule="evenodd" clip-rule="evenodd" d="M175.652 177.251C174.831 176.431 174.831 175.1 175.652 174.28L183.216 166.716C184.036 165.896 185.366 165.896 186.187 166.716C187.007 167.537 187.007 168.867 186.187 169.688L178.623 177.251C177.803 178.072 176.472 178.072 175.652 177.251Z" fill="white"/>
<path fill-rule="evenodd" clip-rule="evenodd" d="M174.238 178.665C172.636 177.064 172.636 174.467 174.238 172.866L181.801 165.302C183.403 163.701 186 163.701 187.601 165.302C189.203 166.904 189.203 169.5 187.601 171.102L180.037 178.665C178.436 180.267 175.839 180.267 174.238 178.665ZM175.652 174.28C174.831 175.1 174.831 176.431 175.652 177.251C176.472 178.072 177.803 178.072 178.623 177.251L186.187 169.688C187.007 168.867 187.007 167.537 186.187 166.716C185.366 165.896 184.036 165.896 183.216 166.716L175.652 174.28Z" fill="white"/>
<circle cx="89.9145" cy="172.94" r="26.8929" fill="white"/>
<circle cx="90.3347" cy="181.228" r="17.2282" fill="#4361FF"/>
<circle cx="90.3347" cy="181.228" r="17.2282" fill="url(#paint1_linear_3520_2)" fill-opacity="0.7"/>
<circle cx="90.3347" cy="181.228" r="11.3454" fill="black"/>
<path d="M62.6133 176.354C64.2666 176.58 65.7896 175.422 66.0151 173.769L66.5344 169.96C67.638 161.868 72.8454 154.92 80.3033 151.591C85.9828 149.055 92.4465 148.867 98.269 151.063C106.624 154.213 112.512 161.799 113.476 170.671L113.804 173.687C113.984 175.346 115.475 176.544 117.134 176.364C118.793 176.184 119.991 174.693 119.811 173.034L119.483 170.018C118.272 158.877 110.882 149.361 100.401 145.409C93.0912 142.653 84.9762 142.888 77.8401 146.073C68.4736 150.255 61.9334 158.98 60.5474 169.144L60.0281 172.952C59.8026 174.606 60.9601 176.129 62.6133 176.354Z" fill="black"/>
<path fill-rule="evenodd" clip-rule="evenodd" d="M95.152 177.251C94.3315 176.431 94.3315 175.1 95.152 174.28L102.716 166.716C103.536 165.896 104.866 165.896 105.687 166.716C106.507 167.537 106.507 168.867 105.687 169.688L98.1233 177.251C97.3028 178.072 95.9725 178.072 95.152 177.251Z" fill="white"/>
<path fill-rule="evenodd" clip-rule="evenodd" d="M93.7378 178.665C92.1363 177.064 92.1363 174.467 93.7378 172.866L101.301 165.302C102.903 163.701 105.5 163.701 107.101 165.302C108.703 166.904 108.703 169.5 107.101 171.102L99.5375 178.665C97.936 180.267 95.3394 180.267 93.7378 178.665ZM95.152 174.28C94.3315 175.1 94.3315 176.431 95.152 177.251C95.9725 178.072 97.3028 178.072 98.1233 177.251L105.687 169.688C106.507 168.867 106.507 167.537 105.687 166.716C104.866 165.896 103.536 165.896 102.716 166.716L95.152 174.28Z" fill="white"/>
<path d="M214 111L224 151L224.61 195.45L237.672 118.459C238.368 114.356 238.717 110.202 238.717 106.041V89.3781C238.717 83.9222 237.619 78.522 235.488 73.4994L233.718 69.327C230.288 61.241 223.55 55.0179 215.217 52.2403C212.095 51.1998 208.826 50.6693 205.536 50.6693H195.654L191.412 42.7147C186.415 33.3448 178.965 25.5093 169.859 20.0458C161.925 15.2853 152.976 12.4716 143.746 11.835L130.017 10.8883C119.929 10.1925 109.805 11.5649 100.266 14.9212L85.7382 20.0329C78.3802 22.6218 71.4761 26.354 65.28 31.0922L47.6051 44.6083C32.5388 56.1296 22.453 72.9799 19.417 91.702L17.5417 103.266C16.0181 112.662 16.3153 122.263 18.4172 131.546L34 183L44.5 108.5C46.2918 99.9252 58.295 94.3051 66.0079 90.152L72.5912 86.6072C79.1554 83.0726 86.8089 82.1361 94.0317 83.9838L111.104 88.3511C113.509 88.9663 115.981 89.2776 118.464 89.2776H143.385C146.046 89.2776 148.694 88.92 151.26 88.2145L165.958 84.1726C173.12 82.203 180.76 82.9888 187.371 86.3751L194.335 89.942C202.645 94.1983 212.409 101.8 214 111Z" fill="#5D473B"/>
<path fill-rule="evenodd" clip-rule="evenodd" d="M130.273 7.18474C119.68 6.45422 109.05 7.89519 99.0339 11.4193L84.5059 16.531C76.78 19.2494 69.5307 23.1682 63.0248 28.1433L45.3499 41.6594C29.5303 53.7568 18.9402 71.4496 15.7524 91.1078L13.8771 102.672C12.2773 112.537 12.5894 122.619 14.7964 132.366L24 161L30.5 190.5C30.9676 192.565 30.9433 197 33.0606 196.982C35.1779 196.965 35.0669 196.073 35.5 194L35.117 158.5L41.8631 147.333L49.1308 111.073C50.6986 103.57 61.019 97.0546 67.7678 93.4206L74.3511 89.8758C80.0948 86.783 86.7916 85.9636 93.1115 87.5803L110.183 91.9476C112.889 92.6397 115.671 92.9899 118.464 92.9899H143.385C146.378 92.9899 149.358 92.5877 152.244 91.794L166.942 87.752C173.209 86.0286 179.894 86.7163 185.679 89.6792L192.643 93.2462C199.914 96.9704 210.021 102.699 211.413 110.749L220.5 153L223.5 163.5V189C221.386 189.003 223.86 191.083 223.5 189C223.146 191.084 225.614 188.997 223.5 189L234.011 156L241.331 119.08C242.062 114.772 242.43 110.41 242.43 106.041V89.3781C242.43 83.424 241.231 77.5308 238.906 72.0495L237.136 67.8771C233.289 58.8106 225.734 51.8329 216.39 48.7185C212.89 47.5518 209.225 46.957 205.536 46.957H200.882C199.035 46.957 197.339 45.9393 196.47 44.3099L194.687 40.9677C189.373 31.0042 181.452 22.6722 171.769 16.8625C163.332 11.8004 153.816 8.80844 144.001 8.13151L130.273 7.18474ZM101.498 18.4231C110.56 15.2346 120.178 13.9309 129.762 14.5918L143.49 15.5386C152.136 16.1348 160.517 18.7703 167.949 23.2291C176.478 28.3464 183.455 35.6855 188.136 44.4617L192.015 51.7346C192.884 53.3639 194.58 54.3817 196.427 54.3817H205.536C208.427 54.3817 211.299 54.8478 214.043 55.7622C221.365 58.203 227.286 63.6714 230.301 70.7768L232.071 74.9492C234.007 79.5133 235.005 84.4203 235.005 89.3781V106.041C235.005 109.994 234.673 113.941 234.011 117.838L229.457 144.682C228.517 150.225 225.569 149.04 224.611 143.5L218.729 109.484C216.939 99.1342 205.376 91.4262 196.028 86.6379L189.063 83.071C181.626 79.2614 173.031 78.3773 164.973 80.5931L150.275 84.6351C148.03 85.2524 145.713 85.5652 143.385 85.5652H118.464C116.292 85.5652 114.128 85.2929 112.024 84.7545L94.9516 80.3873C86.826 78.3087 78.2158 79.3622 70.8311 83.3385L64.2478 86.8834C55.5707 91.5557 43.8788 99.908 41.8631 109.555L35.117 147.333C33.5788 154.695 27.4677 154.709 25.807 147.374L22.0378 130.727C20.0409 121.907 19.7586 112.786 21.206 103.86L23.0813 92.2962C25.9655 74.5103 35.5471 58.5025 49.86 47.5573L67.5349 34.0412C73.4212 29.5399 79.9801 25.9942 86.9702 23.5348L101.498 18.4231Z" fill="black"/>
<path fill-rule="evenodd" clip-rule="evenodd" d="M122.61 30.6402C122.569 29.8212 123.199 29.1236 124.018 29.0822C144.326 28.0559 163.461 38.6267 173.403 56.364L177.103 62.965C177.504 63.6804 177.249 64.5854 176.533 64.9864C175.818 65.3874 174.913 65.1325 174.512 64.4171L170.812 57.8161C161.422 41.0632 143.349 31.079 124.168 32.0484C123.349 32.0898 122.652 31.4593 122.61 30.6402Z" fill="#423027"/>
<path fill-rule="evenodd" clip-rule="evenodd" d="M124.269 34.0458C122.347 34.143 120.71 32.6634 120.613 30.7412C120.516 28.819 121.995 27.1819 123.917 27.0848C144.984 26.02 164.834 36.986 175.147 55.3862L178.847 61.9871C179.788 63.6661 179.19 65.79 177.511 66.7311L176.536 64.991L177.511 66.7311C175.832 67.6721 173.708 67.0739 172.767 65.395L169.067 58.794C160.049 42.7039 142.691 33.1148 124.269 34.0458Z" fill="#423027"/>
<path fill-rule="evenodd" clip-rule="evenodd" d="M87.5847 41.2609C87.4569 40.4741 87.9942 39.7951 88.7847 39.7443C107.832 38.5208 126.926 48.4573 137.662 65.1793L138.662 66.7383C139.108 67.4324 138.93 68.2982 138.264 68.6722C137.599 69.0462 136.698 68.7868 136.253 68.0927L135.252 66.5337C125.147 50.7944 107.175 41.4419 89.2475 42.5935C88.4569 42.6442 87.7125 42.0476 87.5847 41.2609Z" fill="#423027"/>
<path fill-rule="evenodd" clip-rule="evenodd" d="M89.3757 44.5894C87.5476 44.7068 85.9018 43.3746 85.6106 41.5815C85.2956 39.6423 86.674 37.8758 88.6565 37.7485C108.465 36.476 128.237 46.7965 139.345 64.0989L140.345 65.6579C141.325 67.1835 141.049 69.4013 139.244 70.4157L138.575 69.224L139.244 70.4157C137.542 71.3728 135.514 70.6438 134.57 69.1732L133.569 67.6142C123.837 52.4552 106.542 43.4867 89.3757 44.5894L89.2475 42.5935M89.3757 44.5894L89.2475 42.5935Z" fill="#423027"/>
<path fill-rule="evenodd" clip-rule="evenodd" d="M50.8589 63.3413C50.4474 62.5183 50.781 61.5176 51.6039 61.1061L54.6048 59.6057C72.0262 50.8949 93.0671 54.3094 106.84 68.0823C107.491 68.7329 107.491 69.7878 106.84 70.4384C106.189 71.089 105.135 71.089 104.484 70.4384C91.7251 57.6797 72.2336 54.5166 56.0949 62.586L53.0941 64.0864C52.2711 64.4979 51.2704 64.1643 50.8589 63.3413Z" fill="#423027"/>
<path fill-rule="evenodd" clip-rule="evenodd" d="M53.9885 65.8752C52.1776 66.7807 49.9755 66.0467 49.07 64.2357C48.1646 62.4248 48.8986 60.2227 50.7095 59.3172L53.7103 57.8168C71.9018 48.7211 93.8726 52.2864 108.254 66.6681C109.686 68.0997 109.686 70.4209 108.254 71.8526C106.823 73.2843 104.501 73.2843 103.07 71.8526C90.9196 59.7026 72.358 56.6905 56.9893 64.3748L53.9885 65.8752ZM52.4984 62.8949L52.4992 62.8945Z" fill="#423027"/>
<g filter="url(#filter0_d_3520_2)">
<path d="M116.953 150.65L127.999 151.828C129.046 151.94 130.103 151.94 131.15 151.828L142.197 150.65L138.484 154.69V162.771L132.858 161.495C130.697 161.005 128.453 161.005 126.291 161.495L120.665 162.771V154.69L116.953 150.65Z" fill="#313A3F"/>
<path d="M235.747 154.337C235.747 153.502 234.893 152.825 233.838 152.825H222.383L225.247 170.644H227.621C228.475 170.644 229.226 170.195 229.458 169.544L230.738 165.961C230.888 165.54 231.261 165.192 231.761 165.005L234.653 163.926C235.321 163.676 235.747 163.144 235.747 162.559V154.337Z" fill="#313A3F"/>
<path fill-rule="evenodd" clip-rule="evenodd" d="M233.838 152.825C234.893 152.825 235.747 153.502 235.747 154.337V162.559C235.747 163.144 235.321 163.676 234.653 163.926L231.761 165.005C231.261 165.192 230.888 165.54 230.738 165.961L229.458 169.544C229.226 170.195 228.475 170.644 227.621 170.644H225.247L222.383 152.825H233.838Z" fill="#313A3F"/>
<path d="M23.4019 154.337C23.4019 153.502 24.2567 152.825 25.3111 152.825H36.7663L33.9025 170.644H31.5284C30.674 170.644 29.9236 170.195 29.6912 169.544L28.4114 165.961C28.2612 165.54 27.8881 165.192 27.3886 165.005L24.4967 163.926C23.8284 163.676 23.4019 163.144 23.4019 162.559V154.337Z" fill="#313A3F"/>
<path fill-rule="evenodd" clip-rule="evenodd" d="M53.3313 139.461C50.6887 139.461 48.0766 140.051 45.6697 141.191L41.7267 143.059C35.0898 146.203 30.8266 153.117 30.8266 160.734V182.037C30.8266 191.465 35.7584 200.138 43.6808 204.642C47.2892 206.693 51.3313 207.768 55.4388 207.768H92.8536C97.4139 207.768 101.815 206.013 105.216 202.837L108.26 199.996C118.515 190.423 124.377 176.733 124.377 162.361V159.309C124.377 154.825 121.915 150.74 118.046 148.805L106.198 142.88C101.697 140.629 96.7705 139.461 91.7808 139.461H53.3313ZM48.7343 148.261C50.1785 147.577 51.7457 147.223 53.3313 147.223H91.7808C95.6617 147.223 99.4933 148.132 102.994 149.883L114.842 155.808C116.132 156.452 116.953 157.814 116.953 159.309V162.361C116.953 174.522 111.992 186.106 103.315 194.206L100.271 197.047C98.2302 198.953 95.5898 200.006 92.8536 200.006H55.4388C52.5704 200.006 49.7476 199.255 47.2278 197.823C41.6953 194.677 38.2513 188.621 38.2513 182.037V160.734C38.2513 156.164 40.8092 152.016 44.7913 150.129L48.7343 148.261Z" fill="#313A3F"/>
<path fill-rule="evenodd" clip-rule="evenodd" d="M205.818 139.461C208.461 139.461 211.073 140.051 213.48 141.191L217.423 143.059C224.059 146.203 228.323 153.117 228.323 160.734V182.037C228.323 191.465 223.391 200.138 215.469 204.642C211.86 206.693 207.818 207.768 203.71 207.768H166.296C161.735 207.768 157.335 206.013 153.933 202.837L150.889 199.996C140.635 190.423 134.772 176.733 134.772 162.361V159.309C134.772 154.825 137.234 150.74 141.103 148.805L152.951 142.88C157.452 140.629 162.379 139.461 167.368 139.461H205.818ZM210.415 148.261C208.971 147.577 207.404 147.223 205.818 147.223H167.368C163.488 147.223 159.656 148.132 156.155 149.883L144.307 155.808C143.017 156.452 142.197 157.814 142.197 159.309V162.361C142.197 174.522 147.157 186.106 155.834 194.206L158.878 197.047C160.919 198.953 163.559 200.006 166.296 200.006H203.71C206.579 200.006 209.402 199.255 211.922 197.823C217.454 194.677 220.898 188.621 220.898 182.037V160.734C220.898 156.164 218.34 152.016 214.358 150.129L210.415 148.261Z" fill="#313A3F"/>
</g>
<path d="M14.5006 262.457C14.2319 259.527 16.5379 257 19.4797 257H230.52C233.462 257 235.768 259.527 235.499 262.457L226.417 361.457C226.181 364.03 224.022 366 221.438 366H28.5623C25.9779 366 23.8193 364.03 23.5832 361.457L14.5006 262.457Z" fill="#B9C5D4"/>
<path fill-rule="evenodd" clip-rule="evenodd" d="M19.4797 250H230.52C237.581 250 243.115 256.066 242.47 263.096L233.388 362.096C232.821 368.273 227.64 373 221.438 373H28.5623C22.3597 373 17.1791 368.273 16.6125 362.096L7.5299 263.096C6.88487 256.066 12.4194 250 19.4797 250ZM19.4797 257C16.5379 257 14.2319 259.527 14.5006 262.457L23.5832 361.457C23.8193 364.03 25.9779 366 28.5623 366H221.438C224.022 366 226.181 364.03 226.417 361.457L235.499 262.457C235.768 259.527 233.462 257 230.52 257H19.4797Z" fill="black"/>
<path d="M19.3593 257C16.4615 257 14.1705 259.456 14.3713 262.346L14.5336 264.684C15.1087 262.574 17.0395 261 19.3593 261H230.641C232.96 261 234.891 262.574 235.466 264.684L235.629 262.346C235.829 259.456 233.539 257 230.641 257H19.3593Z" fill="white"/>
<path fill-rule="evenodd" clip-rule="evenodd" d="M40.3035 291.3C41.2258 290.788 41.85 289.805 41.85 288.675V284.1C41.85 282.443 40.5069 281.1 38.85 281.1H34.1C32.4431 281.1 31.1 282.443 31.1 284.1V288.675C31.1 289.805 31.7242 290.788 32.6465 291.3C31.7242 291.812 31.1 292.795 31.1 293.925V298.5C31.1 300.157 32.4431 301.5 34.1 301.5H38.85C40.5069 301.5 41.85 300.157 41.85 298.5V293.925C41.85 292.795 41.2258 291.812 40.3035 291.3ZM42.6902 285.95C42.6902 284.293 44.0334 282.95 45.6902 282.95H48.7402C49.0664 282.95 49.3804 283.002 49.6743 283.098C50.6141 282.732 51.6102 282.625 52.5152 282.625C53.9488 282.625 55.42 282.792 56.6742 283.365C57.6897 283.817 58.4966 284.515 59.0774 285.385C59.6924 284.61 60.4789 283.976 61.4368 283.531C62.9006 282.844 64.6689 282.625 66.4805 282.625C68.2782 282.625 70.0434 282.84 71.4993 283.531C72.2251 283.864 72.8543 284.306 73.3843 284.838C73.802 283.79 74.7802 283.057 75.9149 282.961C76.036 281.894 76.7228 280.961 77.7283 280.536L80.6283 279.311C81.5547 278.92 82.6156 279.019 83.4537 279.575C84.2918 280.131 84.7957 281.069 84.7957 282.075V282.95H86.6707C88.3276 282.95 89.6707 284.293 89.6707 285.95V288.525C89.6707 290.182 88.3276 291.525 86.6707 291.525H84.7957V293.58C85.27 293.539 85.8782 293.468 86.6363 293.357C87.4986 293.23 88.3731 293.485 89.0324 294.055C89.6918 294.625 90.0707 295.454 90.0707 296.325V298.95C90.0707 300.463 88.9441 301.739 87.4428 301.927C85.6752 302.148 84.2024 302.275 83.0957 302.275C81.7204 302.275 80.2458 302.108 79.0003 301.469C77.7462 300.825 76.778 299.782 76.2903 298.394L76.2822 298.371C75.9132 297.292 75.7957 296.061 75.7957 294.825V291.525H75.6645C75.6754 291.83 75.6805 292.138 75.6805 292.45C75.6805 294.375 75.4838 296.187 74.8993 297.668C74.267 299.297 73.119 300.579 71.5103 301.338C71.4963 301.345 71.4822 301.351 71.468 301.358C70.02 302.014 68.2757 302.225 66.4805 302.225C64.6852 302.225 62.941 302.014 61.4929 301.358C61.4788 301.351 61.4647 301.345 61.4506 301.338C60.912 301.084 60.4246 300.772 59.9901 300.408C59.4858 301.355 58.4883 302 57.3402 302H54.2902C53.0377 302 51.9645 301.232 51.5152 300.142C51.066 301.232 49.9928 302 48.7402 302H45.6902C44.0334 302 42.6902 300.657 42.6902 299V285.95ZM53.5966 288.687C53.6595 288.73 53.7157 288.775 53.7652 288.825C54.1152 289.158 54.2902 289.783 54.2902 290.7V299H57.3402V290.75C57.3402 290.73 57.3402 290.711 57.3401 290.691C57.3358 289.37 57.1859 288.356 56.8902 287.65C56.6069 286.917 56.1236 286.4 55.4402 286.1C55.1913 285.985 54.9036 285.89 54.5772 285.817C54.0077 285.689 53.3204 285.625 52.5152 285.625C52.2855 285.625 52.0688 285.634 51.8652 285.653C51.8185 285.658 51.7725 285.662 51.7271 285.668C51.3002 285.718 50.9343 285.812 50.6296 285.95C50.5451 285.988 50.4653 286.03 50.3902 286.075C49.9953 286.312 49.6107 286.71 49.2365 287.27C49.2313 287.277 49.2262 287.285 49.221 287.293C49.1268 287.435 49.0332 287.587 48.9402 287.75H48.7402V285.95H45.6902V299H48.7402V292.225C48.7402 291.662 48.7684 291.17 48.8247 290.75C48.855 290.524 48.8935 290.318 48.9402 290.133C48.9632 290.042 48.9882 289.956 49.0152 289.875C49.2152 289.308 49.5319 288.908 49.9652 288.675C50.0696 288.621 50.1838 288.573 50.3079 288.531C50.6913 288.403 51.169 288.335 51.7408 288.326C51.7818 288.325 51.8233 288.325 51.8652 288.325C52.1011 288.325 52.3177 288.336 52.5152 288.357C52.9832 288.407 53.3437 288.517 53.5966 288.687ZM60.3402 290.806C60.3004 291.309 60.2805 291.857 60.2805 292.45C60.2805 293.038 60.3004 293.581 60.3402 294.08C60.4213 295.095 60.5847 295.927 60.8305 296.575C61.2016 297.495 61.8072 298.165 62.6471 298.585C62.6746 298.598 62.7024 298.612 62.7305 298.625C62.8472 298.678 62.9703 298.727 63.0998 298.773C63.1148 298.778 63.1299 298.784 63.145 298.789C63.9903 299.08 65.1021 299.225 66.4805 299.225C67.8474 299.225 68.9523 299.082 69.7949 298.796C69.8101 298.791 69.8253 298.786 69.8403 298.78C69.9775 298.732 70.1075 298.681 70.2305 298.625C70.2371 298.622 70.2437 298.619 70.2503 298.616C71.1232 298.198 71.7415 297.518 72.1055 296.575C72.4888 295.608 72.6805 294.233 72.6805 292.45C72.6805 290.65 72.4888 289.267 72.1055 288.3C71.756 287.379 71.1717 286.715 70.3528 286.308C70.3126 286.288 70.2718 286.269 70.2305 286.25C70.1293 286.201 70.0228 286.156 69.9112 286.113C69.8707 286.097 69.8296 286.082 69.7877 286.067C68.9564 285.772 67.854 285.625 66.4805 285.625C65.0791 285.625 63.9538 285.778 63.1045 286.085C63.0937 286.089 63.0829 286.093 63.0721 286.097C62.9435 286.144 62.8213 286.195 62.7055 286.25C62.6692 286.267 62.6334 286.284 62.598 286.302C61.7869 286.708 61.1978 287.374 60.8305 288.3C60.5847 288.948 60.4213 289.783 60.3402 290.806ZM64.1832 288.886C63.9355 289.133 63.7429 289.463 63.6055 289.875C63.4221 290.475 63.3305 291.333 63.3305 292.45C63.3305 293.55 63.4221 294.4 63.6055 295C63.7446 295.406 63.9403 295.731 64.1925 295.976C64.3027 296.083 64.4237 296.174 64.5555 296.25C65.0055 296.5 65.6471 296.625 66.4805 296.625C67.3138 296.625 67.9471 296.5 68.3805 296.25C68.5145 296.176 68.6367 296.086 68.7471 295.982C69.0073 295.737 69.2017 295.41 69.3305 295C69.5305 294.4 69.6305 293.55 69.6305 292.45C69.6305 291.333 69.5305 290.475 69.3305 289.875C69.2047 289.463 69.0161 289.134 68.7647 288.887C68.6498 288.774 68.5217 288.678 68.3805 288.6C67.9471 288.333 67.3138 288.2 66.4805 288.2C65.6471 288.2 65.0055 288.333 64.5555 288.6C64.42 288.678 64.2959 288.773 64.1832 288.886ZM66.5684 293.624C66.6022 293.362 66.6305 292.98 66.6305 292.45C66.6305 291.871 66.5979 291.467 66.561 291.201C66.5354 291.2 66.5086 291.2 66.4805 291.2C66.4495 291.2 66.4201 291.2 66.392 291.201C66.3582 291.482 66.3305 291.889 66.3305 292.45C66.3305 292.966 66.3547 293.349 66.3856 293.624C66.4157 293.625 66.4473 293.625 66.4805 293.625C66.5111 293.625 66.5404 293.625 66.5684 293.624ZM78.7957 294.825C78.7957 295.908 78.904 296.767 79.1207 297.4C79.3374 298.017 79.754 298.483 80.3707 298.8C80.545 298.889 80.7425 298.966 80.9634 299.031C81.1208 299.076 81.2902 299.116 81.4713 299.149C81.4884 299.152 81.5057 299.155 81.5231 299.158C81.9753 299.236 82.4995 299.275 83.0957 299.275C83.3481 299.275 83.6314 299.267 83.9457 299.25C84.7729 299.207 85.8146 299.107 87.0707 298.95V296.325C86.9612 296.341 86.8537 296.356 86.7484 296.371C85.6137 296.53 84.7211 296.614 84.0707 296.624C84.028 296.625 83.9863 296.625 83.9457 296.625C83.6207 296.625 83.3373 296.61 83.0957 296.579C82.8665 296.55 82.6749 296.507 82.5207 296.45C82.3669 296.39 82.2393 296.313 82.1381 296.218C82.0419 296.128 81.9694 296.022 81.9207 295.9C81.8374 295.65 81.7957 295.258 81.7957 294.725V288.525H86.6707V285.95H81.7957V282.075L78.8957 283.3V285.95H76.1707L75.5707 288.525H78.7957V294.825ZM102.904 304.349C102.318 304.92 101.523 305.227 100.705 305.198C99.093 305.141 97.5472 304.901 96.2227 304.33L96.2027 304.321C94.7891 303.699 93.6657 302.692 92.8507 301.404C92.0803 300.186 91.551 298.663 91.1644 297.007L91.1636 297.003C90.9261 295.98 90.7524 295.009 90.6535 294.099C90.5539 293.183 90.5109 292.081 90.5109 290.825C90.5109 289.569 90.5539 288.467 90.6535 287.551C90.7524 286.641 90.9261 285.67 91.1636 284.647L91.1644 284.643C91.551 282.987 92.0803 281.464 92.8507 280.246C93.6753 278.943 94.8178 277.937 96.2477 277.32C97.5685 276.751 99.1034 276.509 100.704 276.452C101.522 276.423 102.317 276.729 102.904 277.3C103.49 277.872 103.818 278.658 103.811 279.477L103.786 282.277C103.772 283.877 102.503 285.185 100.903 285.248C100.599 285.26 100.377 285.288 100.224 285.318C100.203 285.322 100.185 285.326 100.168 285.33C100.081 285.545 99.9577 285.934 99.8371 286.565C99.6809 287.457 99.5783 288.187 99.5218 288.766L99.5211 288.774C99.467 289.314 99.4359 289.993 99.4359 290.825C99.4359 291.653 99.4667 292.343 99.5213 292.904C99.5778 293.468 99.6805 294.191 99.8371 295.085C99.9577 295.716 100.081 296.105 100.168 296.32C100.185 296.324 100.203 296.328 100.224 296.332C100.377 296.362 100.599 296.39 100.903 296.402C102.503 296.465 103.772 297.773 103.786 299.373L103.811 302.173C103.818 302.992 103.491 303.778 102.904 304.349ZM98.5647 298.9C98.2871 298.742 98.0433 298.526 97.8331 298.252C97.7448 298.136 97.6624 298.011 97.5859 297.875C97.3073 297.351 97.077 296.616 96.8951 295.673C96.8949 295.672 96.8947 295.671 96.8945 295.67C96.8916 295.655 96.8888 295.64 96.8859 295.625C96.7401 294.794 96.6326 294.071 96.5633 293.457C96.5534 293.369 96.5443 293.283 96.5359 293.2C96.4693 292.517 96.4359 291.725 96.4359 290.825C96.4359 289.925 96.4693 289.142 96.5359 288.475C96.5449 288.384 96.5547 288.29 96.5654 288.193C96.6347 287.571 96.7416 286.848 96.8859 286.025C96.8888 286.01 96.8916 285.995 96.8945 285.98C96.8947 285.979 96.8949 285.978 96.8951 285.977C97.077 285.034 97.3073 284.299 97.5859 283.775C97.6624 283.639 97.7448 283.514 97.8331 283.398C98.0483 283.117 98.2989 282.897 98.5848 282.738C98.6421 282.706 98.7008 282.677 98.7609 282.65C99.2609 282.417 99.9359 282.283 100.786 282.25L100.811 279.45C100.766 279.452 100.721 279.453 100.676 279.455C99.5309 279.505 98.5743 279.664 97.8065 279.931C97.7291 279.958 97.6535 279.986 97.5799 280.015C97.5663 280.021 97.5527 280.026 97.5391 280.032C97.5043 280.046 97.4699 280.06 97.4359 280.075C96.5859 280.442 95.9026 281.033 95.3859 281.85C95.2843 282.011 95.1859 282.184 95.0908 282.371C95.0804 282.392 95.0701 282.412 95.0598 282.433C94.6842 283.188 94.3596 284.152 94.0859 285.325C94.0733 285.379 94.061 285.433 94.0488 285.487C94.0459 285.5 94.043 285.513 94.0401 285.526C93.848 286.381 93.7133 287.164 93.6359 287.875C93.6252 287.974 93.6152 288.076 93.6058 288.182C93.6056 288.184 93.6054 288.187 93.6052 288.189C93.5424 288.904 93.5109 289.783 93.5109 290.825C93.5109 291.879 93.5431 292.766 93.6074 293.486C93.6076 293.488 93.6078 293.49 93.608 293.493C93.6167 293.59 93.626 293.684 93.6359 293.775C93.7133 294.486 93.848 295.269 94.0401 296.124C94.043 296.137 94.0459 296.15 94.0488 296.163C94.061 296.217 94.0733 296.271 94.0859 296.325C94.3596 297.498 94.6842 298.462 95.0598 299.217C95.0701 299.238 95.0804 299.258 95.0908 299.279C95.1859 299.466 95.2843 299.639 95.3859 299.8C95.9026 300.617 96.5776 301.208 97.4109 301.575C97.4517 301.593 97.4931 301.61 97.5352 301.627C97.5488 301.632 97.5624 301.638 97.5762 301.643C97.651 301.672 97.7278 301.7 97.8066 301.727C98.5725 301.99 99.5291 302.145 100.676 302.195C100.721 302.197 100.766 302.198 100.811 302.2L100.786 299.4C99.9359 299.367 99.2609 299.233 98.7609 299C98.7002 298.973 98.641 298.943 98.5832 298.911C98.577 298.907 98.5708 298.904 98.5647 298.9ZM109.251 295.775L106.726 293.95L107.976 292.2L109.651 290.7L107.551 290.4L105.401 289.7L106.276 286.975L108.576 287.65L110.251 288.625L109.826 286.55V284.325H113.001V286.55L112.601 288.6L114.301 287.65L116.626 286.925L117.526 289.75L115.326 290.45L113.226 290.7L114.801 292.15L116.151 293.975L113.701 295.8L112.251 293.85L111.426 292.125L110.601 293.875L109.251 295.775ZM111.465 297.8C111.931 298.321 112.568 298.666 113.266 298.768C114.054 298.884 114.855 298.681 115.493 298.206L117.943 296.381C118.265 296.141 118.524 295.85 118.72 295.527C119.086 295.686 119.491 295.775 119.916 295.775H121.966V298.175C121.966 299.832 123.31 301.175 124.966 301.175H127.916C129.573 301.175 130.916 299.832 130.916 298.175V295.775H132.966C133.389 295.775 133.791 295.688 134.156 295.53C134.356 295.854 134.622 296.145 134.949 296.381L137.474 298.206C138.123 298.675 138.931 298.865 139.72 298.735C140.387 298.625 140.994 298.293 141.445 297.8C141.912 298.321 142.548 298.666 143.246 298.768C144.034 298.884 144.835 298.681 145.474 298.206L147.924 296.381C149.154 295.465 149.481 293.785 148.737 292.486C149.352 292.21 149.859 291.733 150.172 291.128C150.537 290.421 150.607 289.598 150.365 288.839L149.465 286.014C148.991 284.526 147.462 283.664 145.964 283.995C145.799 282.493 144.527 281.325 142.982 281.325H139.807C138.25 281.325 136.97 282.511 136.821 284.028C135.348 283.744 133.868 284.601 133.4 286.058L133.057 287.126C133.027 287.125 132.997 287.125 132.966 287.125H130.916V284.875C130.916 283.218 129.573 281.875 127.916 281.875H124.966C123.31 281.875 121.966 283.218 121.966 284.875V287.125H119.916C119.89 287.125 119.865 287.125 119.839 287.126L119.485 286.014C119.01 284.526 117.482 283.664 115.983 283.995C115.819 282.493 114.546 281.325 113.001 281.325H109.826C108.269 281.325 106.99 282.511 106.841 284.028C105.367 283.744 103.888 284.601 103.42 286.058L102.545 288.783C102.076 290.242 102.784 291.798 104.143 292.424C103.361 293.744 103.702 295.466 104.969 296.381L107.494 298.206C108.142 298.675 108.951 298.865 109.74 298.735C110.407 298.625 111.013 298.293 111.465 297.8ZM119.916 290.125V292.775H124.966V298.175H127.916V292.775H132.966V290.125H127.916V284.875H124.966V290.125H119.916ZM136.707 293.95L139.232 295.775L140.582 293.875L141.407 292.125L142.232 293.85L143.682 295.8L146.132 293.975L144.782 292.15L143.207 290.7L145.307 290.45L147.507 289.75L146.607 286.925L144.282 287.65L142.582 288.6L142.982 286.55V284.325H139.807V286.55L140.232 288.625L138.557 287.65L136.257 286.975L135.382 289.7L137.532 290.4L139.632 290.7L137.957 292.2L136.707 293.95ZM149.097 299.373C149.111 297.773 150.38 296.465 151.979 296.402C152.284 296.39 152.501 296.362 152.646 296.333C152.665 296.329 152.683 296.326 152.698 296.322C152.781 296.141 152.916 295.761 153.046 295.086C153.202 294.191 153.305 293.468 153.361 292.904C153.416 292.343 153.447 291.653 153.447 290.825C153.447 289.993 153.416 289.314 153.362 288.774L153.361 288.766C153.304 288.187 153.202 287.456 153.045 286.562C152.916 285.889 152.781 285.509 152.698 285.328C152.683 285.324 152.665 285.321 152.646 285.317C152.501 285.288 152.284 285.26 151.979 285.248C150.38 285.185 149.111 283.877 149.097 282.277L149.072 279.477C149.065 278.658 149.392 277.872 149.979 277.3C150.566 276.729 151.361 276.423 152.179 276.452C153.779 276.509 155.314 276.751 156.635 277.32C158.065 277.937 159.208 278.943 160.032 280.246C160.802 281.464 161.332 282.987 161.718 284.643L161.719 284.647C161.957 285.67 162.13 286.641 162.229 287.551C162.329 288.467 162.372 289.569 162.372 290.825C162.372 292.081 162.329 293.183 162.229 294.099C162.13 295.009 161.957 295.98 161.719 297.003L161.718 297.007C161.332 298.663 160.802 300.186 160.032 301.404C159.21 302.704 158.07 303.708 156.645 304.325C155.327 304.903 153.782 305.142 152.178 305.198C151.36 305.227 150.565 304.92 149.979 304.349C149.392 303.778 149.065 302.992 149.072 302.173L149.097 299.373ZM159.332 288.18C159.332 288.181 159.333 288.182 159.333 288.184L159.278 288.189C159.277 288.187 159.277 288.184 159.277 288.182L159.332 288.176C159.332 288.178 159.332 288.179 159.332 288.18ZM157.818 282.423L157.921 282.368C157.916 282.357 157.91 282.346 157.904 282.335C158.394 283.218 158.702 284.251 158.912 285.298C158.912 285.298 158.912 285.298 158.912 285.298C158.923 285.354 158.934 285.41 158.944 285.466L158.952 285.507C159.104 286.373 159.221 287.163 159.3 287.869C159.312 287.975 159.322 288.078 159.332 288.18M157.786 282.361C157.797 282.381 157.807 282.402 157.818 282.423ZM157.786 282.361C157.693 282.178 157.597 282.007 157.497 281.85C156.98 281.033 156.297 280.442 155.447 280.075C155.418 280.062 155.388 280.05 155.358 280.038C155.322 280.023 155.285 280.008 155.248 279.994C155.192 279.972 155.135 279.951 155.076 279.931C154.309 279.664 153.352 279.505 152.206 279.455C152.162 279.453 152.117 279.452 152.072 279.45L152.097 282.25C152.947 282.283 153.614 282.417 154.097 282.65C154.165 282.679 154.23 282.712 154.294 282.747C154.584 282.906 154.832 283.126 155.039 283.405C155.124 283.518 155.201 283.642 155.272 283.775C155.567 284.299 155.806 285.034 155.988 285.977C155.988 285.978 155.988 285.979 155.988 285.98L155.875 286.007C155.875 286.006 155.875 286.004 155.875 286.003C155.878 286.017 155.881 286.031 155.884 286.045M155.885 286.046L155.997 286.025ZM155.358 301.613C155.388 301.6 155.418 301.588 155.447 301.575C156.297 301.208 156.98 300.617 157.497 299.8C157.597 299.643 157.693 299.472 157.786 299.289C157.797 299.269 157.807 299.248 157.818 299.227C158.196 298.471 158.522 297.503 158.797 296.325M155.272 297.875C155.567 297.351 155.806 296.616 155.988 295.673C155.988 295.672 155.988 295.671 155.988 295.67C155.991 295.655 155.994 295.64 155.997 295.625C156.143 294.794 156.25 294.071 156.32 293.457C156.329 293.369 156.339 293.283 156.347 293.2C156.414 292.517 156.447 291.725 156.447 290.825C156.447 289.925 156.414 289.142 156.347 288.475M155.272 297.875C155.201 298.008 155.124 298.132 155.039 298.245C154.832 298.524 154.584 298.744 154.294 298.903C154.288 298.907 154.282 298.91 154.276 298.913C154.218 298.945 154.158 298.973 154.097 299C153.614 299.233 152.947 299.367 152.097 299.4L152.072 302.2C152.117 302.198 152.162 302.197 152.206 302.195C153.362 302.145 154.319 301.987 155.076 301.721C155.135 301.7 155.192 301.679 155.248 301.657C155.286 301.643 155.322 301.628 155.358 301.613M38.85 293.925V298.5H34.1V293.925H38.85ZM38.85 284.1V288.675H34.1V284.1H38.85Z" fill="white"/>
<path d="M34.1 293.925H38.85V298.5H34.1V293.925ZM34.1 284.1H38.85V288.675H34.1V284.1Z" fill="#C73D70"/>
<path d="M45.6902 285.95H48.7402V287.75H48.9402C49.4069 286.933 49.8902 286.375 50.3902 286.075C50.8902 285.775 51.5986 285.625 52.5152 285.625C53.7819 285.625 54.7569 285.783 55.4402 286.1C56.1236 286.4 56.6069 286.917 56.8902 287.65C57.1902 288.367 57.3402 289.4 57.3402 290.75V299H54.2902V290.7C54.2902 289.783 54.1152 289.158 53.7652 288.825C53.4319 288.492 52.7986 288.325 51.8652 288.325C51.0486 288.325 50.4152 288.442 49.9652 288.675C49.5319 288.908 49.2152 289.308 49.0152 289.875C48.8319 290.425 48.7402 291.208 48.7402 292.225V299H45.6902V285.95Z" fill="#C73D70"/>
<path d="M66.4805 299.225C64.8638 299.225 63.6138 299.025 62.7305 298.625C61.8471 298.208 61.2138 297.525 60.8305 296.575C60.4638 295.608 60.2805 294.233 60.2805 292.45C60.2805 290.65 60.4638 289.267 60.8305 288.3C61.2138 287.333 61.8388 286.65 62.7055 286.25C63.5888 285.833 64.8471 285.625 66.4805 285.625C68.1138 285.625 69.3638 285.833 70.2305 286.25C71.1138 286.65 71.7388 287.333 72.1055 288.3C72.4888 289.267 72.6805 290.65 72.6805 292.45C72.6805 294.233 72.4888 295.608 72.1055 296.575C71.7388 297.525 71.1138 298.208 70.2305 298.625C69.3471 299.025 68.0971 299.225 66.4805 299.225ZM63.3305 292.45C63.3305 293.55 63.4221 294.4 63.6055 295C63.8055 295.583 64.1221 296 64.5555 296.25C65.0055 296.5 65.6471 296.625 66.4805 296.625C67.3138 296.625 67.9471 296.5 68.3805 296.25C68.8305 296 69.1471 295.583 69.3305 295C69.5305 294.4 69.6305 293.55 69.6305 292.45C69.6305 291.333 69.5305 290.475 69.3305 289.875C69.1471 289.275 68.8305 288.85 68.3805 288.6C67.9471 288.333 67.3138 288.2 66.4805 288.2C65.6471 288.2 65.0055 288.333 64.5555 288.6C64.1221 288.85 63.8055 289.275 63.6055 289.875C63.4221 290.475 63.3305 291.333 63.3305 292.45Z" fill="#C73D70"/>
<path d="M83.0957 299.275C81.8957 299.275 80.9874 299.117 80.3707 298.8C79.754 298.483 79.3374 298.017 79.1207 297.4C78.904 296.767 78.7957 295.908 78.7957 294.825V288.525H75.5707L76.1707 285.95H78.8957V283.3L81.7957 282.075V285.95H86.6707V288.525H81.7957V294.725C81.7957 295.258 81.8374 295.65 81.9207 295.9C82.0207 296.15 82.2207 296.333 82.5207 296.45C82.8374 296.567 83.3124 296.625 83.9457 296.625C84.6624 296.625 85.704 296.525 87.0707 296.325V298.95C85.3374 299.167 84.0124 299.275 83.0957 299.275Z" fill="#C73D70"/>
<path d="M100.811 302.2C99.3943 302.15 98.2609 301.942 97.4109 301.575C96.5776 301.208 95.9026 300.617 95.3859 299.8C94.8693 298.983 94.4359 297.825 94.0859 296.325C93.8693 295.392 93.7193 294.542 93.6359 293.775C93.5526 293.008 93.5109 292.025 93.5109 290.825C93.5109 289.625 93.5526 288.642 93.6359 287.875C93.7193 287.108 93.8693 286.258 94.0859 285.325C94.4359 283.825 94.8693 282.667 95.3859 281.85C95.9026 281.033 96.5859 280.442 97.4359 280.075C98.2859 279.708 99.4109 279.5 100.811 279.45L100.786 282.25C99.9359 282.283 99.2609 282.417 98.7609 282.65C98.2776 282.867 97.8859 283.242 97.5859 283.775C97.3026 284.308 97.0693 285.058 96.8859 286.025C96.7193 286.975 96.6026 287.792 96.5359 288.475C96.4693 289.142 96.4359 289.925 96.4359 290.825C96.4359 291.725 96.4693 292.517 96.5359 293.2C96.6026 293.867 96.7193 294.675 96.8859 295.625C97.0693 296.592 97.3026 297.342 97.5859 297.875C97.8859 298.408 98.2776 298.783 98.7609 299C99.2609 299.233 99.9359 299.367 100.786 299.4L100.811 302.2Z" fill="#C73D70"/>
<path d="M112.251 293.85L111.426 292.125L110.601 293.875L109.251 295.775L106.726 293.95L107.976 292.2L109.651 290.7L107.551 290.4L105.401 289.7L106.276 286.975L108.576 287.65L110.251 288.625L109.826 286.55V284.325H113.001V286.55L112.601 288.6L114.301 287.65L116.626 286.925L117.526 289.75L115.326 290.45L113.226 290.7L114.801 292.15L116.151 293.975L113.701 295.8L112.251 293.85Z" fill="#C73D70"/>
<path d="M124.966 292.775H119.916V290.125H124.966V284.875H127.916V290.125H132.966V292.775H127.916V298.175H124.966V292.775Z" fill="#C73D70"/>
<path d="M142.232 293.85L141.407 292.125L140.582 293.875L139.232 295.775L136.707 293.95L137.957 292.2L139.632 290.7L137.532 290.4L135.382 289.7L136.257 286.975L138.557 287.65L140.232 288.625L139.807 286.55V284.325H142.982V286.55L142.582 288.6L144.282 287.65L146.607 286.925L147.507 289.75L145.307 290.45L143.207 290.7L144.782 292.15L146.132 293.975L143.682 295.8L142.232 293.85Z" fill="#C73D70"/>
<path d="M152.097 299.4C152.947 299.367 153.614 299.233 154.097 299C154.597 298.783 154.989 298.408 155.272 297.875C155.572 297.342 155.814 296.592 155.997 295.625C156.164 294.675 156.28 293.867 156.347 293.2C156.414 292.517 156.447 291.725 156.447 290.825C156.447 289.925 156.414 289.142 156.347 288.475C156.28 287.792 156.164 286.975 155.997 286.025C155.814 285.058 155.572 284.308 155.272 283.775C154.989 283.242 154.597 282.867 154.097 282.65C153.614 282.417 152.947 282.283 152.097 282.25L152.072 279.45C153.472 279.5 154.597 279.708 155.447 280.075C156.297 280.442 156.98 281.033 157.497 281.85C158.014 282.667 158.447 283.825 158.797 285.325C159.014 286.258 159.164 287.108 159.247 287.875C159.33 288.642 159.372 289.625 159.372 290.825C159.372 292.025 159.33 293.008 159.247 293.775C159.164 294.542 159.014 295.392 158.797 296.325C158.447 297.825 158.014 298.983 157.497 299.8C156.98 300.617 156.297 301.208 155.447 301.575C154.614 301.942 153.489 302.15 152.072 302.2L152.097 299.4Z" fill="#C73D70"/>
<defs>
<filter id="filter0_d_3520_2" x="19.4019" y="139.461" width="220.345" height="76.3069" filterUnits="userSpaceOnUse" color-interpolation-filters="sRGB">
<feFlood flood-opacity="0" result="BackgroundImageFix"/>
<feColorMatrix in="SourceAlpha" type="matrix" values="0 0 0 0 0 0 0 0 0 0 0 0 0 0 0 0 0 0 127 0" result="hardAlpha"/>
<feOffset dy="4"/>
<feGaussianBlur stdDeviation="2"/>
<feComposite in2="hardAlpha" operator="out"/>
<feColorMatrix type="matrix" values="0 0 0 0 0 0 0 0 0 0 0 0 0 0 0 0 0 0 0.4 0"/>
<feBlend mode="normal" in2="BackgroundImageFix" result="effect1_dropShadow_3520_2"/>
<feBlend mode="normal" in="SourceGraphic" in2="effect1_dropShadow_3520_2" result="shape"/>
</filter>
<linearGradient id="paint0_linear_3520_2" x1="170.835" y1="164" x2="170.835" y2="198.456" gradientUnits="userSpaceOnUse">
<stop stop-color="#283A99"/>
<stop offset="1" stop-color="#4361FF"/>
</linearGradient>
<linearGradient id="paint1_linear_3520_2" x1="90.3347" y1="164" x2="90.3347" y2="198.456" gradientUnits="userSpaceOnUse">
<stop stop-color="#283A99"/>
<stop offset="1" stop-color="#4361FF"/>
</linearGradient>
</defs>
</svg>
