<svg class="profile-picture" viewBox="0 0 262 388" fill="none" xmlns="http://www.w3.org/2000/svg">
<g filter="url(#filter0_d_3520_2)">
<path fill-rule="evenodd" clip-rule="evenodd" d="M12.0375 134.214L11.9692 133.912C9.56401 123.289 9.22387 112.303 10.9674 101.551L12.8426 89.9873C16.3167 68.564 27.8577 49.2825 45.0978 36.0989L62.7726 22.5828C69.8628 17.161 77.763 12.8903 86.1826 9.9278L100.711 4.81613C111.626 0.975572 123.21 -0.594791 134.754 0.201332L148.482 1.1481C159.401 1.90109 169.986 5.22922 179.37 10.86C190.141 17.3225 198.953 26.5906 204.864 37.6736L206.082 39.957H209.536C213.977 39.957 218.39 40.6731 222.604 42.0777C233.853 45.8273 242.949 54.2278 247.58 65.1433L249.35 69.3157C252.042 75.6617 253.43 82.4847 253.43 89.3781V106.041C253.43 110.803 253.029 115.556 252.233 120.251L252.217 120.346L245.234 155.562C254.113 160.732 259.135 170.832 257.67 181.215L252.282 219.423C251.018 228.386 245.108 236.012 236.745 239.473L228.401 242.925C228.395 242.95 228.389 242.975 228.383 243H234.52C245.699 243 254.462 252.604 253.441 263.736L244.358 362.736C243.461 372.516 235.259 380 225.438 380H32.5623C22.7415 380 14.539 372.516 13.6417 362.736L4.55917 263.736C3.53788 252.604 12.3009 243 23.4797 243H35.8272C35.7896 242.864 35.7521 242.728 35.7149 242.592L28.1774 239.473C19.8135 236.012 13.9037 228.386 12.6397 219.423L7.25147 181.215C5.82384 171.092 10.5617 161.238 19.0273 155.96L12.0375 134.214ZM230.015 234.682L234.068 233.004C240.141 230.491 244.433 224.954 245.351 218.445L250.739 180.238C251.714 173.322 248.727 166.58 243.251 162.614L240.784 170.361C242.836 172.736 243.847 175.936 243.387 179.201L237.999 217.408C237.454 221.269 234.932 224.56 231.353 226.092L230.054 234.432C230.041 234.515 230.028 234.598 230.015 234.682ZM224.643 223.694L223.137 233.354C222.932 234.671 222.703 235.983 222.449 237.289C219.296 237.314 216.465 235.053 215.848 231.912L221.676 194.513C221.896 194.748 222.119 194.957 222.338 195.141C223.108 195.788 224.192 196.438 225.571 196.747C225.86 196.812 226.18 196.864 226.524 196.895L224.126 220.866C224.023 221.901 224.224 222.865 224.643 223.694ZM233.175 166.332C233.401 163.568 233.552 160.799 233.628 158.028L233.463 157.958C230.955 156.897 228.155 157.483 226.283 159.241L227.5 163.5V187.13L229.205 170.079C229.25 169.627 229.369 169.185 229.558 168.77C230.228 167.296 231.654 166.397 233.175 166.332ZM227.316 188.969L227.319 188.942L222.77 187.493L222.663 188.179L227.316 188.969ZM226.235 151.235C228.569 150.397 231.132 150.188 233.651 150.715C233.611 148.776 233.533 146.838 233.419 144.9C233.212 146.018 232.92 146.844 232.58 147.402C231.997 148.356 231.273 148.522 230.586 148.008C229.818 147.432 229.098 146.003 228.68 143.871C228.656 143.75 228.633 143.626 228.611 143.5L222.729 109.484C221.707 103.574 217.498 98.5253 212.334 94.3898L225.852 143.033C226.058 145.764 226.185 148.5 226.235 151.235ZM227.31 189.033L222.397 189.882L222.535 189H227.313L227.31 189.033ZM213.94 241.346C214.765 241.995 215.664 242.551 216.617 243H213.507C213.656 242.45 213.8 241.899 213.94 241.346ZM218.638 157.962C218.557 158.122 218.479 158.285 218.404 158.451C216.254 163.18 214.893 168.23 214.376 173.4L208.793 229.237C208.704 230.125 208.7 230.994 208.772 231.837C208.154 235.615 207.306 239.343 206.235 243H58.2318C57.2666 240.147 56.4217 237.251 55.7004 234.319C56.1439 232.735 56.308 231.026 56.1291 229.237L50.5455 173.4C50.0564 168.51 48.8127 163.727 46.86 159.221L52.4865 149.907L59.9828 112.505L59.9871 112.485C60.2807 111.125 61.6994 108.918 64.9918 106.17C68.0839 103.589 71.8783 101.311 75.0865 99.5839L81.6698 96.0391C85.8663 93.7794 90.7592 93.1807 95.3766 94.362L112.449 98.7292C115.721 99.5664 119.086 99.9899 122.464 99.9899H147.385C151.005 99.9899 154.609 99.5034 158.1 98.5434L172.798 94.5015C177.377 93.2423 182.261 93.7447 186.488 95.9096L193.452 99.4765C197.041 101.315 200.833 103.407 203.845 105.83C206.974 108.348 208.253 110.424 208.515 111.942L208.539 112.082L217.705 154.699L218.638 157.962ZM50.868 243H48.3052C49.0662 242.642 49.7925 242.215 50.4747 241.727C50.6033 242.152 50.7344 242.576 50.868 243ZM41.5602 237.218C44.3758 237.637 47.0824 236.178 48.3876 233.802C47.7739 231.076 47.2599 228.322 46.8479 225.546L43.322 201.789C42.6202 202.415 41.8041 202.925 40.89 203.293C40.2662 203.544 39.6555 203.705 39.0896 203.808L40.7954 220.866C40.963 222.542 40.332 224.033 39.2707 225.066L39.5037 226.636C40.0327 230.201 40.7196 233.731 41.5602 237.218ZM37.6838 150.918C37.7691 150.941 37.8541 150.965 37.9389 150.99C37.9429 150.827 37.9472 150.663 37.9517 150.499C37.8651 150.646 37.7757 150.785 37.6838 150.918ZM30.5499 149.629C30.7366 150.038 30.9413 150.408 31.1604 150.739C30.9446 150.786 30.7292 150.839 30.5143 150.897C30.5244 150.474 30.5363 150.051 30.5499 149.629ZM31.4587 157.958L30.5185 158.356C30.5857 161.033 30.7234 163.708 30.9317 166.378C32.737 166.095 34.5746 167.034 35.3642 168.771C35.5524 169.185 35.6715 169.627 35.7168 170.079L38.384 196.751C39.0318 196.429 39.1593 195.762 39.3655 194.682C39.4058 194.471 39.4492 194.243 39.5 194L39.2906 174.592C38.5524 169.313 38.1067 164 37.9545 158.679C36.1234 157.37 33.6767 157.02 31.4587 157.958ZM14.1829 180.238C13.2325 173.499 16.0448 166.924 21.2558 162.923L23.1783 171.648C21.7828 173.833 21.1532 176.495 21.5348 179.201L26.923 217.408C27.3977 220.774 29.3759 223.707 32.2463 225.418L32.5795 227.664C32.9044 229.852 33.2854 232.029 33.7219 234.191L30.8538 233.004C24.7804 230.491 20.489 224.954 19.5711 218.445L14.1829 180.238ZM206.334 98.9404C203.165 96.6821 199.66 94.7915 196.643 93.2462L189.679 89.6792C183.894 86.7163 177.209 86.0286 170.942 87.752L156.244 91.794C153.358 92.5877 150.378 92.9899 147.385 92.9899H122.464C119.671 92.9899 116.889 92.6397 114.183 91.9476L97.1115 87.5803C90.7916 85.9636 84.0948 86.783 78.3511 89.8758L71.7678 93.4206C65.019 97.0546 54.6986 103.57 53.1308 111.073L45.8631 147.333L45.0178 148.733C45.0811 147.232 45.169 145.731 45.2815 144.232L51.6988 99.2023C56.3689 94.0656 62.8843 89.7714 68.2478 86.8834L74.8311 83.3385C82.2158 79.3622 90.826 78.3087 98.9516 80.3873L116.024 84.7545C118.128 85.2929 120.292 85.5652 122.464 85.5652H147.385C149.713 85.5652 152.03 85.2524 154.275 84.6351L168.973 80.5931C177.031 78.3773 185.626 79.2614 193.063 83.071L200.028 86.6379C201.134 87.2049 202.272 87.8128 203.422 88.4611L206.334 98.9404ZM240.38 144.052L245.331 119.08C246.062 114.772 246.43 110.41 246.43 106.041V89.3781C246.43 83.424 245.231 77.5308 242.906 72.0495L241.136 67.8771C237.289 58.8106 229.734 51.8329 220.39 48.7185C216.89 47.5518 213.225 46.957 209.536 46.957H204.882C203.035 46.957 201.339 45.9393 200.47 44.3099L198.687 40.9677C193.373 31.0042 185.452 22.6722 175.769 16.8625C167.332 11.8004 157.816 8.80844 148.001 8.13151L134.273 7.18474C123.68 6.45422 113.05 7.89519 103.034 11.4193L88.5059 16.531C80.78 19.2494 73.5307 23.1682 67.0248 28.1433L49.3499 41.6594C33.5303 53.7568 22.9402 71.4496 19.7524 91.1078L17.8771 102.672C16.2773 112.537 16.5894 122.619 18.7964 132.366L23.6306 147.406C23.7059 145.727 23.8079 144.048 23.9365 142.37L23.9767 141.845L26.2872 131.828L26.0378 130.727C24.0409 121.907 23.7586 112.786 25.206 103.86L27.0813 92.2962C29.198 79.2434 34.9218 67.1482 43.4756 57.309L44.6065 52.406L49.7834 50.924C51.0955 49.755 52.4549 48.6317 53.86 47.5573L71.5349 34.0412C77.4212 29.5399 83.9801 25.9942 90.9702 23.5348L105.498 18.4231C114.56 15.2346 124.178 13.9309 133.762 14.5918L147.49 15.5386C156.136 16.1348 164.517 18.7703 171.949 23.2291C180.478 28.3464 187.455 35.6855 192.136 44.4617L196.015 51.7346C196.884 53.3639 198.58 54.3817 200.427 54.3817H209.536C212.427 54.3817 215.3 54.8478 218.043 55.7622C225.365 58.203 231.286 63.6714 234.301 70.7768L236.071 74.9492C238.007 79.5133 239.005 84.4203 239.005 89.3781V106.041C239.005 109.994 238.673 113.941 238.011 117.838L236.211 128.453L240.176 141.153L240.236 141.951C240.289 142.651 240.337 143.352 240.38 144.052ZM231.559 113.556C231.856 111.063 232.005 108.554 232.005 106.041V89.3781C232.005 85.3597 231.196 81.3824 229.627 77.6831L227.857 73.5107C225.627 68.2541 221.246 64.2086 215.829 62.4029C214.925 62.1017 214.002 61.8661 213.068 61.6976L215.716 62.8218L231.559 113.556ZM187.639 50.9048L185.96 47.7558C181.876 40.0991 175.788 33.6961 168.347 29.2315C161.864 25.3415 154.551 23.0422 147.008 22.522L133.28 21.5752C124.647 20.9799 115.984 22.1542 107.821 25.0263L93.2936 30.138C86.9972 32.3533 81.0892 35.5471 75.7871 39.6017L67.6811 45.8004L132.138 27.3482L187.639 50.9048ZM38.8643 77.3007C36.5507 82.3916 34.9009 87.8059 33.991 93.4167L32.1158 104.981C31.9166 106.209 31.7537 107.442 31.6272 108.677L38.8643 77.3007ZM33.4676 131.843L49.8931 60.6312C49.9842 60.5319 50.0756 60.433 50.1673 60.3342L45.0576 96.1884C42.2676 99.6076 39.9544 103.609 39.0111 108.123L38.9901 108.223L34.1971 135.065L33.4676 131.843ZM53.2524 88.3014C57.1769 85.2183 61.3382 82.6536 64.9291 80.7201L71.5124 77.1752C80.4443 72.3658 90.8584 71.0915 100.686 73.6057L117.758 77.9729C119.296 78.3663 120.877 78.5652 122.464 78.5652H147.385C149.086 78.5652 150.779 78.3367 152.419 77.8856L167.117 73.8437C176.863 71.1637 187.259 72.233 196.255 76.8407L200.846 79.1922L199.233 73.3902L131.246 49.4457L56.7269 63.9213L53.2524 88.3014ZM209.407 83.8557C211.78 85.3004 214.189 86.9278 216.476 88.7399L210 68L131.684 34.7595L53.289 57.2016C53.1743 57.3089 53.06 57.4167 52.9462 57.5248L131.778 42.2115L205.001 68L209.407 83.8557ZM219.17 250H211.335C210.505 252.367 209.587 254.702 208.582 257H216.633C217.559 254.697 218.405 252.363 219.17 250ZM213.526 264H205.193C203.311 267.533 201.215 270.959 198.912 274.258C192.139 283.964 183.705 292.397 173.999 299.169L164.721 305.642C157.342 310.79 148.181 312.7 139.36 310.931C134.341 309.924 129.176 309.88 124.141 310.801L123.86 310.852C113.992 312.657 103.828 310.075 96.0191 303.779L87.852 297.194C81.0792 291.734 74.9571 285.512 69.6065 278.652C65.9858 274.01 62.7449 269.11 59.9047 264H51.4893C54.9489 270.752 59.0498 277.19 63.7521 283.218C69.4529 290.527 75.9758 297.156 83.192 302.974L91.359 309.559C100.85 317.211 113.203 320.349 125.196 318.156L125.477 318.104C129.587 317.352 133.803 317.388 137.9 318.21C148.706 320.378 159.93 318.038 168.969 311.731L178.247 305.258C188.67 297.986 197.727 288.93 205.001 278.507C208.225 273.887 211.073 269.036 213.526 264ZM43.6797 264C47.6497 272.311 52.5219 280.202 58.2325 287.523C64.2635 295.256 71.1642 302.269 78.7984 308.424L86.9655 315.008C98.042 323.939 112.459 327.602 126.455 325.041L126.736 324.99C129.974 324.398 133.295 324.426 136.523 325.073C149.202 327.617 162.369 324.871 172.975 317.472L182.252 310.999C193.352 303.255 202.996 293.612 210.741 282.513C214.824 276.662 218.341 270.463 221.256 264H232.328L223.613 359H34.3872L25.6716 264H43.6797ZM40.5898 257H23.4797C20.5379 257 18.2319 259.527 18.5006 262.457L27.5832 361.457C27.6127 361.779 27.6723 362.091 27.7589 362.391C28.3656 364.492 30.3009 366 32.5623 366H225.438C228.022 366 230.181 364.03 230.417 361.457L239.499 262.457C239.516 262.274 239.523 262.092 239.52 261.913C239.477 259.221 237.278 257 234.52 257H224.141C225.003 254.694 225.792 252.359 226.505 250H234.52C241.581 250 247.115 256.066 246.47 263.096L237.388 362.096C236.821 368.273 231.64 373 225.438 373H32.5623C26.3597 373 21.1791 368.273 20.6125 362.096L11.5299 263.096C11.509 262.869 11.4946 262.642 11.4865 262.417C11.4751 262.098 11.4763 261.782 11.4897 261.469C11.759 255.155 16.971 250 23.4797 250H37.9825C38.7835 252.359 39.6531 254.693 40.5898 257ZM48.1815 257H56.3255C55.2488 254.701 54.2495 252.366 53.3295 250H45.3999C46.2543 252.362 47.182 254.697 48.1815 257ZM60.8777 250C61.8706 252.371 62.9493 254.706 64.1118 257H200.887C201.98 254.708 202.98 252.372 203.883 250H60.8777ZM197.176 264H67.9965C70.1608 267.576 72.5402 271.032 75.1261 274.347C80.1465 280.784 85.8908 286.621 92.2456 291.745L100.413 298.329C106.636 303.347 114.736 305.405 122.6 303.966L122.881 303.915C128.789 302.834 134.849 302.886 140.737 304.067C147.686 305.462 154.903 303.957 160.715 299.901L169.993 293.428C179.024 287.128 186.87 279.282 193.172 270.252C194.591 268.218 195.927 266.132 197.176 264Z" fill="white"/>
</g>
<path d="M17.8588 179.719C16.919 173.055 20.5786 166.592 26.7768 163.97L32.9052 161.377C34.3876 160.75 36.0999 161.418 36.766 162.883L39.2814 168.417L45.4699 230.303C45.6933 232.536 43.4534 234.201 41.3793 233.342L32.2732 229.574C27.4145 227.564 23.9813 223.134 23.2471 217.927L17.8588 179.719Z" fill="#EDD5BE"/>
<path d="M17.8588 179.719C16.919 173.055 20.5786 166.592 26.7768 163.97L32.9052 161.377C34.3876 160.75 36.0999 161.418 36.766 162.883L39.2814 168.417L45.4699 230.303C45.6933 232.536 43.4534 234.201 41.3793 233.342L32.2732 229.574C27.4145 227.564 23.9813 223.134 23.2471 217.927L17.8588 179.719Z" fill="#EDD5BE"/>
<path d="M44.1061 216.664C41.6475 218.804 38.8996 220 36 220C30.4152 220 25.3932 215.561 21.9169 208.495L23.2471 217.927C23.9813 223.134 27.4145 227.564 32.2732 229.574L41.3793 233.342C43.4534 234.201 45.6933 232.536 45.4699 230.303L44.1061 216.664Z" fill="#E2CBB4"/>
<path fill-rule="evenodd" clip-rule="evenodd" d="M31.4587 157.958C34.7943 156.547 38.6469 158.05 40.1456 161.347C41.9791 165.381 43.1393 169.688 43.5802 174.096L49.1639 229.933C49.6664 234.959 44.6267 238.704 39.9599 236.772L30.8538 233.004C24.7804 230.491 20.489 224.954 19.5711 218.445L14.1829 180.238C13.0081 171.908 17.5826 163.829 25.3303 160.551L31.4587 157.958ZM35.7168 170.079C35.6715 169.627 35.5524 169.185 35.3642 168.771C34.4301 166.716 32.0289 165.779 29.95 166.658L28.2232 167.389C23.5746 169.356 20.8299 174.203 21.5348 179.201L26.923 217.408C27.4738 221.313 30.0486 224.636 33.6927 226.144C37.2941 227.634 41.1833 224.744 40.7954 220.866L35.7168 170.079Z" fill="black"/>
<path d="M247.063 179.719C248.003 173.055 244.343 166.592 238.145 163.97L232.017 161.377C230.534 160.75 228.822 161.418 228.156 162.883L225.64 168.417L219.452 230.303C219.229 232.536 221.468 234.201 223.543 233.342L232.649 229.574C237.507 227.564 240.941 223.134 241.675 217.927L247.063 179.719Z" fill="#EDD5BE"/>
<path d="M247.063 179.719C248.003 173.055 244.343 166.592 238.145 163.97L232.017 161.377C230.534 160.75 228.822 161.418 228.156 162.883L225.64 168.417L219.452 230.303C219.229 232.536 221.468 234.201 223.543 233.342L232.649 229.574C237.507 227.564 240.941 223.134 241.675 217.927L247.063 179.719Z" fill="#EDD5BE"/>
<path d="M220.819 216.669C223.278 218.809 226.026 220.005 228.925 220.005C234.51 220.005 239.532 215.567 243.008 208.5L241.678 217.932C240.944 223.139 237.511 227.569 232.652 229.58L223.546 233.348C221.472 234.206 219.232 232.541 219.455 230.308L220.819 216.669Z" fill="#E2CBB4"/>
<path fill-rule="evenodd" clip-rule="evenodd" d="M233.463 157.958C230.128 156.547 226.275 158.05 224.776 161.347C222.943 165.381 221.783 169.688 221.342 174.096L215.758 229.933C215.255 234.959 220.295 238.704 224.962 236.772L234.068 233.004C240.141 230.491 244.433 224.954 245.351 218.445L250.739 180.238C251.914 171.908 247.339 163.829 239.592 160.551L233.463 157.958ZM229.205 170.079C229.25 169.627 229.369 169.185 229.558 168.77C230.492 166.715 232.893 165.779 234.972 166.658L236.699 167.389C241.347 169.356 244.092 174.203 243.387 179.201L237.999 217.408C237.448 221.313 234.873 224.636 231.229 226.144C227.628 227.634 223.739 224.744 224.126 220.866L229.205 170.079Z" fill="black"/>
<path d="M61 67L131.731 38.4855L204.405 63L229.554 142.754C230.407 154.101 229.953 165.507 228.201 176.75L218.958 226.091C216.515 241.768 211.036 263.372 201.956 276.383C194.933 286.447 186.188 295.191 176.123 302.213L166.845 308.686C158.636 314.414 148.444 316.539 138.63 314.57C134.072 313.656 129.382 313.616 124.809 314.452L124.528 314.504C113.598 316.503 102.339 313.643 93.6891 306.669L85.522 300.084C78.5275 294.445 72.205 288.02 66.6793 280.935C54.2419 264.989 46.1447 246.095 43.1758 226.091L35.7919 176.34C34.1636 165.368 33.7696 154.248 34.6175 143.189L61 67Z" fill="#EDD5BE"/>
<path d="M133.427 313.909C175.761 290.32 208.692 248.689 224.223 197.985L218.958 226.091C216.515 241.768 211.036 263.372 201.956 276.383C194.933 286.447 186.188 295.191 176.123 302.213L166.845 308.687C158.636 314.414 148.444 316.539 138.63 314.57C136.91 314.225 135.171 314.005 133.427 313.909Z" fill="#E2CBB4"/>
<path fill-rule="evenodd" clip-rule="evenodd" d="M131.684 34.7595L210 68L233.256 142.476C234.13 154.106 233.665 165.798 231.869 177.322L223.137 233.354C220.607 249.589 214.404 265.033 205.001 278.507C197.727 288.93 188.67 297.986 178.247 305.258L168.969 311.731C159.93 318.038 148.706 320.378 137.9 318.21C133.803 317.388 129.587 317.352 125.477 318.104L125.196 318.156C113.203 320.349 100.85 317.211 91.359 309.559L83.192 302.974C75.9758 297.156 69.4529 290.527 63.752 283.218C50.9205 266.767 42.5666 247.274 39.5037 226.636L32.1198 176.885C30.4507 165.639 30.0469 154.241 30.916 142.905L50.5 58L131.684 34.7595ZM131.778 42.2115L50.5 58L38.3189 143.473C37.4923 154.256 37.8764 165.097 39.464 175.795L46.8479 225.546C49.7227 244.916 57.5633 263.211 69.6065 278.652C74.9571 285.512 81.0792 291.734 87.8521 297.194L96.0191 303.779C103.828 310.075 113.992 312.657 123.86 310.852L124.141 310.801C129.176 309.88 134.341 309.924 139.36 310.931C148.181 312.7 157.342 310.79 164.721 305.642L173.999 299.169C183.705 292.397 192.139 283.964 198.912 274.258C207.669 261.711 213.445 247.329 215.801 232.211L224.533 176.179C226.241 165.217 226.684 154.095 225.852 143.033L205.001 68L131.778 42.2115Z" fill="black"/>
<path fill-rule="evenodd" clip-rule="evenodd" d="M78.6321 116.227C78.6321 114.997 79.6294 114 80.8595 114H102.498C108.185 114 113.823 115.059 119.123 117.122C123.908 118.984 128.998 119.94 134.132 119.94H134.268C139.521 119.94 144.735 119.037 149.683 117.272L150.167 117.099C155.915 115.048 161.973 114 168.076 114H186.29C187.52 114 188.517 114.997 188.517 116.227C188.517 117.458 187.52 118.455 186.29 118.455H168.076C162.483 118.455 156.931 119.416 151.664 121.295L151.18 121.468C145.752 123.405 140.031 124.395 134.268 124.395H134.132C128.445 124.395 122.807 123.336 117.507 121.273C112.722 119.41 107.632 118.455 102.498 118.455H80.8595C79.6294 118.455 78.6321 117.458 78.6321 116.227Z" fill="#E2CBB4"/>
<path fill-rule="evenodd" clip-rule="evenodd" d="M132.832 304.288C132.012 304.288 131.347 303.624 131.347 302.804V295.379C131.347 294.559 132.012 293.894 132.832 293.894C133.652 293.894 134.317 294.559 134.317 295.379V302.804C134.317 303.624 133.652 304.288 132.832 304.288Z" fill="#E2CBB4"/>
<path fill-rule="evenodd" clip-rule="evenodd" d="M160.75 226C162.407 226 163.75 227.343 163.75 229C163.75 237.284 157.034 244 148.75 244H109C107.343 244 106 242.657 106 241C106 239.343 107.343 238 109 238H148.75C153.721 238 157.75 233.971 157.75 229C157.75 227.343 159.093 226 160.75 226Z" fill="black"/>
<path fill-rule="evenodd" clip-rule="evenodd" d="M128.128 214.829C131.426 217.028 135.723 217.028 139.022 214.829L145.704 210.374C146.727 209.692 148.11 209.969 148.793 210.992C149.475 212.016 149.198 213.399 148.175 214.081L141.493 218.536C136.698 221.732 130.452 221.732 125.657 218.536L118.975 214.081C117.951 213.399 117.675 212.016 118.357 210.992C119.04 209.969 120.422 209.692 121.446 210.374L128.128 214.829Z" fill="#C7B6A5"/>
<path fill-rule="evenodd" clip-rule="evenodd" d="M121.038 150.029C119.988 151.79 117.709 152.367 115.948 151.317L106.442 145.65C93.9421 138.199 78.1188 139.348 66.8272 148.528C65.2363 149.822 62.8982 149.58 61.6048 147.99C60.3115 146.399 60.5527 144.061 62.1436 142.767C75.8538 131.621 95.0664 130.225 110.244 139.273L119.75 144.94C121.511 145.989 122.087 148.268 121.038 150.029Z" fill="black"/>
<path fill-rule="evenodd" clip-rule="evenodd" d="M145.978 150.029C147.028 151.79 149.306 152.367 151.067 151.317L160.573 145.65C173.073 138.199 188.896 139.348 200.188 148.528C201.779 149.822 204.117 149.58 205.41 147.99C206.704 146.399 206.463 144.061 204.872 142.767C191.161 131.621 171.949 130.225 156.772 139.273L147.266 144.94C145.504 145.989 144.928 148.268 145.978 150.029Z" fill="black"/>
<circle cx="174.414" cy="172.94" r="26.8929" fill="white"/>
<circle cx="174.835" cy="181.228" r="17.2282" fill="#4361FF"/>
<circle cx="174.835" cy="181.228" r="17.2282" fill="url(#paint0_linear_3520_2)" fill-opacity="0.7"/>
<circle cx="174.835" cy="181.228" r="11.3454" fill="black"/>
<path d="M147.113 176.354C148.767 176.58 150.29 175.422 150.515 173.769L151.034 169.96C152.138 161.868 157.345 154.92 164.803 151.591C170.483 149.055 176.946 148.867 182.769 151.063C191.124 154.213 197.012 161.799 197.976 170.671L198.304 173.687C198.484 175.346 199.975 176.544 201.634 176.364C203.292 176.184 204.491 174.693 204.311 173.034L203.983 170.018C202.772 158.877 195.382 149.361 184.901 145.409C177.591 142.653 169.476 142.888 162.34 146.073C152.973 150.255 146.433 158.98 145.047 169.144L144.528 172.952C144.303 174.606 145.46 176.129 147.113 176.354Z" fill="black"/>
<path fill-rule="evenodd" clip-rule="evenodd" d="M179.652 177.251C178.831 176.431 178.831 175.1 179.652 174.28L187.216 166.716C188.036 165.896 189.366 165.896 190.187 166.716C191.007 167.537 191.007 168.867 190.187 169.688L182.623 177.251C181.803 178.072 180.472 178.072 179.652 177.251Z" fill="white"/>
<path fill-rule="evenodd" clip-rule="evenodd" d="M178.238 178.665C176.636 177.064 176.636 174.467 178.238 172.866L185.801 165.302C187.403 163.701 190 163.701 191.601 165.302C193.203 166.904 193.203 169.5 191.601 171.102L184.037 178.665C182.436 180.267 179.839 180.267 178.238 178.665ZM179.652 174.28C178.831 175.1 178.831 176.431 179.652 177.251C180.472 178.072 181.803 178.072 182.623 177.251L190.187 169.688C191.007 168.867 191.007 167.537 190.187 166.716C189.366 165.896 188.036 165.896 187.216 166.716L179.652 174.28Z" fill="white"/>
<circle cx="93.9145" cy="172.94" r="26.8929" fill="white"/>
<circle cx="94.3347" cy="181.228" r="17.2282" fill="#4361FF"/>
<circle cx="94.3347" cy="181.228" r="17.2282" fill="url(#paint1_linear_3520_2)" fill-opacity="0.7"/>
<circle cx="94.3347" cy="181.228" r="11.3454" fill="black"/>
<path d="M66.6133 176.354C68.2666 176.58 69.7896 175.422 70.0151 173.769L70.5344 169.96C71.638 161.868 76.8454 154.92 84.3033 151.591C89.9828 149.055 96.4465 148.867 102.269 151.063C110.624 154.213 116.512 161.799 117.476 170.671L117.804 173.687C117.984 175.346 119.475 176.544 121.134 176.364C122.793 176.184 123.991 174.693 123.811 173.034L123.483 170.018C122.272 158.877 114.882 149.361 104.401 145.409C97.0912 142.653 88.9762 142.888 81.8401 146.073C72.4736 150.255 65.9334 158.98 64.5474 169.144L64.0281 172.952C63.8026 174.606 64.9601 176.129 66.6133 176.354Z" fill="black"/>
<path fill-rule="evenodd" clip-rule="evenodd" d="M99.152 177.251C98.3315 176.431 98.3315 175.1 99.152 174.28L106.716 166.716C107.536 165.896 108.866 165.896 109.687 166.716C110.507 167.537 110.507 168.867 109.687 169.688L102.123 177.251C101.303 178.072 99.9725 178.072 99.152 177.251Z" fill="white"/>
<path fill-rule="evenodd" clip-rule="evenodd" d="M97.7378 178.665C96.1363 177.064 96.1363 174.467 97.7378 172.866L105.301 165.302C106.903 163.701 109.5 163.701 111.101 165.302C112.703 166.904 112.703 169.5 111.101 171.102L103.538 178.665C101.936 180.267 99.3394 180.267 97.7378 178.665ZM99.152 174.28C98.3315 175.1 98.3315 176.431 99.152 177.251C99.9725 178.072 101.303 178.072 102.123 177.251L109.687 169.688C110.507 168.867 110.507 167.537 109.687 166.716C108.866 165.896 107.536 165.896 106.716 166.716L99.152 174.28Z" fill="white"/>
<path d="M218 111L228 151L228.61 195.45L241.672 118.459C242.368 114.356 242.717 110.202 242.717 106.041V89.3781C242.717 83.9222 241.619 78.522 239.488 73.4994L237.718 69.327C234.288 61.241 227.55 55.0179 219.217 52.2403C216.095 51.1998 212.826 50.6693 209.536 50.6693H199.654L195.412 42.7147C190.415 33.3448 182.965 25.5093 173.859 20.0458C165.925 15.2853 156.976 12.4716 147.746 11.835L134.017 10.8883C123.929 10.1925 113.805 11.5649 104.266 14.9212L89.7382 20.0329C82.3802 22.6218 75.4761 26.354 69.28 31.0922L51.6051 44.6083C36.5388 56.1296 26.453 72.9799 23.417 91.702L21.5417 103.266C20.0181 112.662 20.3153 122.263 22.4172 131.546L38 183L48.5 108.5C50.2918 99.9252 62.295 94.3051 70.0079 90.152L76.5912 86.6072C83.1554 83.0726 90.8089 82.1361 98.0317 83.9838L115.104 88.3511C117.509 88.9663 119.981 89.2776 122.464 89.2776H147.385C150.046 89.2776 152.694 88.92 155.26 88.2145L169.958 84.1726C177.12 82.203 184.76 82.9888 191.371 86.3751L198.335 89.942C206.645 94.1983 216.409 101.8 218 111Z" fill="#5D473B"/>
<path fill-rule="evenodd" clip-rule="evenodd" d="M134.273 7.18474C123.68 6.45422 113.05 7.89519 103.034 11.4193L88.5059 16.531C80.78 19.2494 73.5307 23.1682 67.0248 28.1433L49.3499 41.6594C33.5303 53.7568 22.9402 71.4496 19.7524 91.1078L17.8771 102.672C16.2773 112.537 16.5894 122.619 18.7964 132.366L28 161L34.5 190.5C34.9676 192.565 34.9433 197 37.0606 196.982C39.1779 196.965 39.0669 196.073 39.5 194L39.117 158.5L45.8631 147.333L53.1308 111.073C54.6986 103.57 65.019 97.0546 71.7678 93.4206L78.3511 89.8758C84.0948 86.783 90.7916 85.9636 97.1115 87.5803L114.183 91.9476C116.889 92.6397 119.671 92.9899 122.464 92.9899H147.385C150.378 92.9899 153.358 92.5877 156.244 91.794L170.942 87.752C177.209 86.0286 183.894 86.7163 189.679 89.6792L196.643 93.2462C203.914 96.9704 214.021 102.699 215.413 110.749L224.5 153L227.5 163.5V189C225.386 189.003 227.86 191.083 227.5 189C227.146 191.084 229.614 188.997 227.5 189L238.011 156L245.331 119.08C246.062 114.772 246.43 110.41 246.43 106.041V89.3781C246.43 83.424 245.231 77.5308 242.906 72.0495L241.136 67.8771C237.289 58.8106 229.734 51.8329 220.39 48.7185C216.89 47.5518 213.225 46.957 209.536 46.957H204.882C203.035 46.957 201.339 45.9393 200.47 44.3099L198.687 40.9677C193.373 31.0042 185.452 22.6722 175.769 16.8625C167.332 11.8004 157.816 8.80844 148.001 8.13151L134.273 7.18474ZM105.498 18.4231C114.56 15.2346 124.178 13.9309 133.762 14.5918L147.49 15.5386C156.136 16.1348 164.517 18.7703 171.949 23.2291C180.478 28.3464 187.455 35.6855 192.136 44.4617L196.015 51.7346C196.884 53.3639 198.58 54.3817 200.427 54.3817H209.536C212.427 54.3817 215.299 54.8478 218.043 55.7622C225.365 58.203 231.286 63.6714 234.301 70.7768L236.071 74.9492C238.007 79.5133 239.005 84.4203 239.005 89.3781V106.041C239.005 109.994 238.673 113.941 238.011 117.838L233.457 144.682C232.517 150.225 229.569 149.04 228.611 143.5L222.729 109.484C220.939 99.1342 209.376 91.4262 200.028 86.6379L193.063 83.071C185.626 79.2614 177.031 78.3773 168.973 80.5931L154.275 84.6351C152.03 85.2524 149.713 85.5652 147.385 85.5652H122.464C120.292 85.5652 118.128 85.2929 116.024 84.7545L98.9516 80.3873C90.826 78.3087 82.2158 79.3622 74.8311 83.3385L68.2478 86.8834C59.5707 91.5557 47.8788 99.908 45.8631 109.555L39.117 147.333C37.5788 154.695 31.4677 154.709 29.807 147.374L26.0378 130.727C24.0409 121.907 23.7586 112.786 25.206 103.86L27.0813 92.2962C29.9655 74.5103 39.5471 58.5025 53.86 47.5573L71.5349 34.0412C77.4212 29.5399 83.9801 25.9942 90.9702 23.5348L105.498 18.4231Z" fill="black"/>
<path fill-rule="evenodd" clip-rule="evenodd" d="M126.61 30.6402C126.569 29.8212 127.199 29.1236 128.018 29.0822C148.326 28.0559 167.461 38.6267 177.403 56.364L181.103 62.965C181.504 63.6804 181.249 64.5854 180.533 64.9864C179.818 65.3874 178.913 65.1325 178.512 64.4171L174.812 57.8161C165.422 41.0632 147.349 31.0789 128.168 32.0484C127.349 32.0898 126.652 31.4593 126.61 30.6402Z" fill="#423027"/>
<path fill-rule="evenodd" clip-rule="evenodd" d="M128.269 34.0458C126.347 34.143 124.71 32.6634 124.613 30.7412C124.516 28.819 125.995 27.1819 127.917 27.0848C148.984 26.02 168.834 36.986 179.147 55.3862L182.847 61.9871C183.788 63.6661 183.19 65.79 181.511 66.7311L180.536 64.991L181.511 66.7311C179.832 67.6721 177.708 67.0739 176.767 65.395L173.067 58.794C164.049 42.7039 146.691 33.1148 128.269 34.0458Z" fill="#423027"/>
<path fill-rule="evenodd" clip-rule="evenodd" d="M91.5847 41.2609C91.4569 40.4741 91.9942 39.7951 92.7847 39.7443C111.832 38.5208 130.926 48.4573 141.662 65.1793L142.662 66.7383C143.108 67.4324 142.93 68.2982 142.264 68.6722C141.599 69.0462 140.698 68.7868 140.253 68.0927L139.252 66.5337C129.147 50.7944 111.175 41.4419 93.2475 42.5935C92.4569 42.6442 91.7125 42.0476 91.5847 41.2609Z" fill="#423027"/>
<path fill-rule="evenodd" clip-rule="evenodd" d="M93.3757 44.5894C91.5476 44.7068 89.9018 43.3746 89.6106 41.5815C89.2956 39.6423 90.674 37.8758 92.6565 37.7485C112.465 36.476 132.237 46.7965 143.345 64.0989L144.345 65.6579C145.325 67.1835 145.049 69.4013 143.244 70.4157L142.575 69.224L143.244 70.4157C141.542 71.3728 139.514 70.6438 138.57 69.1732L137.569 67.6142C127.837 52.4552 110.542 43.4867 93.3757 44.5894L93.2475 42.5935M93.3757 44.5894L93.2475 42.5935L93.3757 44.5894Z" fill="#423027"/>
<path fill-rule="evenodd" clip-rule="evenodd" d="M54.8589 63.3413C54.4474 62.5183 54.781 61.5176 55.6039 61.1061L58.6048 59.6057C76.0262 50.8949 97.0671 54.3094 110.84 68.0823C111.491 68.7329 111.491 69.7878 110.84 70.4384C110.189 71.089 109.135 71.089 108.484 70.4384C95.7251 57.6797 76.2336 54.5166 60.0949 62.586L57.0941 64.0864C56.2711 64.4979 55.2704 64.1643 54.8589 63.3413Z" fill="#423027"/>
<path fill-rule="evenodd" clip-rule="evenodd" d="M57.9885 65.8752C56.1776 66.7807 53.9755 66.0467 53.07 64.2357C52.1646 62.4248 52.8986 60.2227 54.7095 59.3172L57.7103 57.8168C75.9018 48.7211 97.8726 52.2864 112.254 66.6681C113.686 68.0997 113.686 70.4209 112.254 71.8526C110.823 73.2843 108.501 73.2843 107.07 71.8526C94.9196 59.7026 76.358 56.6905 60.9893 64.3748L57.9885 65.8752ZM56.4984 62.8949L56.4992 62.8945L56.4984 62.8949Z" fill="#423027"/>
<g filter="url(#filter1_d_3520_2)">
<path d="M120.953 150.65L131.999 151.828C133.046 151.94 134.103 151.94 135.15 151.828L146.197 150.65L142.484 154.69V162.771L136.858 161.495C134.697 161.005 132.453 161.005 130.291 161.495L124.665 162.771V154.69L120.953 150.65Z" fill="#313A3F"/>
<path d="M239.747 154.337C239.747 153.502 238.893 152.825 237.838 152.825H226.383L229.247 170.644H231.621C232.475 170.644 233.226 170.195 233.458 169.544L234.738 165.961C234.888 165.54 235.261 165.192 235.761 165.005L238.653 163.926C239.321 163.676 239.747 163.144 239.747 162.559V154.337Z" fill="#313A3F"/>
<path fill-rule="evenodd" clip-rule="evenodd" d="M237.838 152.825C238.893 152.825 239.747 153.502 239.747 154.337V162.559C239.747 163.144 239.321 163.676 238.653 163.926L235.761 165.005C235.261 165.192 234.888 165.54 234.738 165.961L233.458 169.544C233.226 170.195 232.475 170.644 231.621 170.644H229.247L226.383 152.825H237.838Z" fill="#313A3F"/>
<path d="M27.4019 154.337C27.4019 153.502 28.2567 152.825 29.3111 152.825H40.7663L37.9025 170.644H35.5284C34.674 170.644 33.9236 170.195 33.6912 169.544L32.4114 165.961C32.2612 165.54 31.8881 165.192 31.3886 165.005L28.4967 163.926C27.8284 163.676 27.4019 163.144 27.4019 162.559V154.337Z" fill="#313A3F"/>
<path fill-rule="evenodd" clip-rule="evenodd" d="M57.3313 139.461C54.6887 139.461 52.0766 140.051 49.6697 141.191L45.7267 143.059C39.0898 146.203 34.8266 153.117 34.8266 160.734V182.037C34.8266 191.465 39.7584 200.138 47.6808 204.642C51.2892 206.693 55.3313 207.768 59.4388 207.768H96.8536C101.414 207.768 105.815 206.013 109.216 202.837L112.26 199.996C122.515 190.423 128.377 176.733 128.377 162.361V159.309C128.377 154.825 125.915 150.74 122.046 148.805L110.198 142.88C105.697 140.629 100.771 139.461 95.7808 139.461H57.3313ZM52.7343 148.261C54.1785 147.577 55.7457 147.223 57.3313 147.223H95.7808C99.6617 147.223 103.493 148.132 106.994 149.883L118.842 155.808C120.132 156.452 120.953 157.814 120.953 159.309V162.361C120.953 174.522 115.992 186.106 107.315 194.206L104.271 197.047C102.23 198.953 99.5898 200.006 96.8536 200.006H59.4388C56.5704 200.006 53.7476 199.255 51.2278 197.823C45.6953 194.677 42.2513 188.621 42.2513 182.037V160.734C42.2513 156.164 44.8092 152.016 48.7913 150.129L52.7343 148.261Z" fill="#313A3F"/>
<path fill-rule="evenodd" clip-rule="evenodd" d="M209.818 139.461C212.461 139.461 215.073 140.051 217.48 141.191L221.423 143.059C228.059 146.203 232.323 153.117 232.323 160.734V182.037C232.323 191.465 227.391 200.138 219.469 204.642C215.86 206.693 211.818 207.768 207.71 207.768H170.296C165.735 207.768 161.335 206.013 157.933 202.837L154.889 199.996C144.635 190.423 138.772 176.733 138.772 162.361V159.309C138.772 154.825 141.234 150.74 145.103 148.805L156.951 142.88C161.452 140.629 166.379 139.461 171.368 139.461H209.818ZM214.415 148.261C212.971 147.577 211.404 147.223 209.818 147.223H171.368C167.488 147.223 163.656 148.132 160.155 149.883L148.307 155.808C147.017 156.452 146.197 157.814 146.197 159.309V162.361C146.197 174.522 151.157 186.106 159.834 194.206L162.878 197.047C164.919 198.953 167.559 200.006 170.296 200.006H207.71C210.579 200.006 213.402 199.255 215.922 197.823C221.454 194.677 224.898 188.621 224.898 182.037V160.734C224.898 156.164 222.34 152.016 218.358 150.129L214.415 148.261Z" fill="#313A3F"/>
</g>
<path d="M18.5006 262.457C18.2319 259.527 20.5379 257 23.4797 257H234.52C237.462 257 239.768 259.527 239.499 262.457L230.417 361.457C230.181 364.03 228.022 366 225.438 366H32.5623C29.9779 366 27.8193 364.03 27.5832 361.457L18.5006 262.457Z" fill="#B9C5D4"/>
<path fill-rule="evenodd" clip-rule="evenodd" d="M23.4797 250H234.52C241.581 250 247.115 256.066 246.47 263.096L237.388 362.096C236.821 368.273 231.64 373 225.438 373H32.5623C26.3597 373 21.1791 368.273 20.6125 362.096L11.5299 263.096C10.8849 256.066 16.4194 250 23.4797 250ZM23.4797 257C20.5379 257 18.2319 259.527 18.5006 262.457L27.5832 361.457C27.8193 364.03 29.9779 366 32.5623 366H225.438C228.022 366 230.181 364.03 230.417 361.457L239.499 262.457C239.768 259.527 237.462 257 234.52 257H23.4797Z" fill="black"/>
<path d="M23.3593 257C20.4615 257 18.1705 259.456 18.3713 262.346L18.5336 264.684C19.1087 262.574 21.0395 261 23.3593 261H234.641C236.96 261 238.891 262.574 239.466 264.684L239.629 262.346C239.829 259.456 237.539 257 234.641 257H23.3593Z" fill="white"/>
<path fill-rule="evenodd" clip-rule="evenodd" d="M44.3035 291.3C45.2258 290.788 45.85 289.805 45.85 288.675V284.1C45.85 282.443 44.5069 281.1 42.85 281.1H38.1C36.4431 281.1 35.1 282.443 35.1 284.1V288.675C35.1 289.805 35.7242 290.788 36.6465 291.3C35.7242 291.812 35.1 292.795 35.1 293.925V298.5C35.1 300.157 36.4431 301.5 38.1 301.5H42.85C44.5069 301.5 45.85 300.157 45.85 298.5V293.925C45.85 292.795 45.2258 291.812 44.3035 291.3ZM46.6902 285.95C46.6902 284.293 48.0334 282.95 49.6902 282.95H52.7402C53.0664 282.95 53.3804 283.002 53.6743 283.098C54.6141 282.732 55.6102 282.625 56.5152 282.625C57.9488 282.625 59.42 282.792 60.6742 283.365C61.6897 283.817 62.4966 284.515 63.0774 285.385C63.6924 284.61 64.4789 283.976 65.4368 283.531C66.9006 282.844 68.6689 282.625 70.4805 282.625C72.2782 282.625 74.0434 282.84 75.4993 283.531C76.2251 283.864 76.8543 284.306 77.3843 284.838C77.802 283.79 78.7802 283.057 79.9149 282.961C80.036 281.894 80.7228 280.961 81.7283 280.536L84.6283 279.311C85.5547 278.92 86.6156 279.019 87.4537 279.575C88.2918 280.131 88.7957 281.069 88.7957 282.075V282.95H90.6707C92.3276 282.95 93.6707 284.293 93.6707 285.95V288.525C93.6707 290.182 92.3276 291.525 90.6707 291.525H88.7957V293.58C89.27 293.539 89.8782 293.468 90.6363 293.357C91.4986 293.23 92.3731 293.485 93.0324 294.055C93.6918 294.625 94.0707 295.454 94.0707 296.325V298.95C94.0707 300.463 92.9441 301.739 91.4428 301.927C89.6752 302.148 88.2024 302.275 87.0957 302.275C85.7204 302.275 84.2458 302.108 83.0003 301.469C81.7462 300.825 80.778 299.782 80.2903 298.394L80.2822 298.371C79.9132 297.292 79.7957 296.061 79.7957 294.825V291.525H79.6645C79.6754 291.83 79.6805 292.138 79.6805 292.45C79.6805 294.375 79.4838 296.187 78.8993 297.668C78.267 299.297 77.119 300.579 75.5103 301.338C75.4963 301.345 75.4822 301.351 75.468 301.358C74.02 302.014 72.2757 302.225 70.4805 302.225C68.6852 302.225 66.941 302.014 65.4929 301.358C65.4788 301.351 65.4647 301.345 65.4506 301.338C64.912 301.084 64.4246 300.772 63.9901 300.408C63.4858 301.355 62.4883 302 61.3402 302H58.2902C57.0377 302 55.9645 301.232 55.5152 300.142C55.066 301.232 53.9928 302 52.7402 302H49.6902C48.0334 302 46.6902 300.657 46.6902 299V285.95ZM57.5966 288.687C57.6595 288.73 57.7157 288.775 57.7652 288.825C58.1152 289.158 58.2902 289.783 58.2902 290.7V299H61.3402V290.75C61.3402 290.73 61.3402 290.711 61.3401 290.691C61.3358 289.37 61.1859 288.356 60.8902 287.65C60.6069 286.917 60.1236 286.4 59.4402 286.1C59.1913 285.985 58.9036 285.89 58.5772 285.817C58.0077 285.689 57.3204 285.625 56.5152 285.625C56.2855 285.625 56.0688 285.634 55.8652 285.653C55.8185 285.658 55.7725 285.662 55.7271 285.668C55.3002 285.718 54.9343 285.812 54.6296 285.95C54.5451 285.988 54.4653 286.03 54.3902 286.075C53.9953 286.312 53.6107 286.71 53.2365 287.27C53.2313 287.277 53.2262 287.285 53.221 287.293C53.1268 287.435 53.0332 287.587 52.9402 287.75H52.7402V285.95H49.6902V299H52.7402V292.225C52.7402 291.662 52.7684 291.17 52.8247 290.75C52.855 290.524 52.8935 290.318 52.9402 290.133C52.9632 290.042 52.9882 289.956 53.0152 289.875C53.2152 289.308 53.5319 288.908 53.9652 288.675C54.0696 288.621 54.1838 288.573 54.3079 288.531C54.6913 288.403 55.169 288.335 55.7408 288.326C55.7818 288.325 55.8233 288.325 55.8652 288.325C56.1011 288.325 56.3177 288.336 56.5152 288.357C56.9832 288.407 57.3437 288.517 57.5966 288.687ZM64.3402 290.806C64.3004 291.309 64.2805 291.857 64.2805 292.45C64.2805 293.038 64.3004 293.581 64.3402 294.08C64.4213 295.095 64.5847 295.927 64.8305 296.575C65.2016 297.495 65.8072 298.165 66.6471 298.585C66.6746 298.598 66.7024 298.612 66.7305 298.625C66.8472 298.678 66.9703 298.727 67.0998 298.773C67.1148 298.778 67.1299 298.784 67.145 298.789C67.9903 299.08 69.1021 299.225 70.4805 299.225C71.8474 299.225 72.9523 299.082 73.7949 298.796C73.8101 298.791 73.8253 298.786 73.8403 298.78C73.9775 298.732 74.1075 298.681 74.2305 298.625C74.2371 298.622 74.2437 298.619 74.2503 298.616C75.1232 298.198 75.7415 297.518 76.1055 296.575C76.4888 295.608 76.6805 294.233 76.6805 292.45C76.6805 290.65 76.4888 289.267 76.1055 288.3C75.756 287.379 75.1717 286.715 74.3528 286.308C74.3126 286.288 74.2718 286.269 74.2305 286.25C74.1293 286.201 74.0228 286.156 73.9112 286.113C73.8707 286.097 73.8296 286.082 73.7877 286.067C72.9564 285.772 71.854 285.625 70.4805 285.625C69.0791 285.625 67.9538 285.778 67.1045 286.085C67.0937 286.089 67.0829 286.093 67.0721 286.097C66.9435 286.144 66.8213 286.195 66.7055 286.25C66.6692 286.267 66.6334 286.284 66.598 286.302C65.7869 286.708 65.1978 287.374 64.8305 288.3C64.5847 288.948 64.4213 289.783 64.3402 290.806ZM68.1832 288.886C67.9355 289.133 67.7429 289.463 67.6055 289.875C67.4221 290.475 67.3305 291.333 67.3305 292.45C67.3305 293.55 67.4221 294.4 67.6055 295C67.7446 295.406 67.9403 295.731 68.1925 295.976C68.3027 296.083 68.4237 296.174 68.5555 296.25C69.0055 296.5 69.6471 296.625 70.4805 296.625C71.3138 296.625 71.9471 296.5 72.3805 296.25C72.5145 296.176 72.6367 296.086 72.7471 295.982C73.0073 295.737 73.2017 295.41 73.3305 295C73.5305 294.4 73.6305 293.55 73.6305 292.45C73.6305 291.333 73.5305 290.475 73.3305 289.875C73.2047 289.463 73.0161 289.134 72.7647 288.887C72.6498 288.774 72.5217 288.678 72.3805 288.6C71.9471 288.333 71.3138 288.2 70.4805 288.2C69.6471 288.2 69.0055 288.333 68.5555 288.6C68.42 288.678 68.2959 288.773 68.1832 288.886ZM70.5684 293.624C70.6022 293.362 70.6305 292.98 70.6305 292.45C70.6305 291.871 70.5979 291.467 70.561 291.201C70.5354 291.2 70.5086 291.2 70.4805 291.2C70.4495 291.2 70.4201 291.2 70.392 291.201C70.3582 291.482 70.3305 291.889 70.3305 292.45C70.3305 292.966 70.3547 293.349 70.3856 293.624C70.4157 293.625 70.4473 293.625 70.4805 293.625C70.5111 293.625 70.5404 293.625 70.5684 293.624ZM82.7957 294.825C82.7957 295.908 82.904 296.767 83.1207 297.4C83.3374 298.017 83.754 298.483 84.3707 298.8C84.545 298.889 84.7425 298.966 84.9634 299.031C85.1208 299.076 85.2902 299.116 85.4713 299.149C85.4884 299.152 85.5057 299.155 85.5231 299.158C85.9753 299.236 86.4995 299.275 87.0957 299.275C87.3481 299.275 87.6314 299.267 87.9457 299.25C88.7729 299.207 89.8146 299.107 91.0707 298.95V296.325C90.9612 296.341 90.8537 296.356 90.7484 296.371C89.6137 296.53 88.7211 296.614 88.0707 296.624C88.028 296.625 87.9863 296.625 87.9457 296.625C87.6207 296.625 87.3373 296.61 87.0957 296.579C86.8665 296.55 86.6749 296.507 86.5207 296.45C86.3669 296.39 86.2393 296.313 86.1381 296.218C86.0419 296.128 85.9694 296.022 85.9207 295.9C85.8374 295.65 85.7957 295.258 85.7957 294.725V288.525H90.6707V285.95H85.7957V282.075L82.8957 283.3V285.95H80.1707L79.5707 288.525H82.7957V294.825ZM106.904 304.349C106.318 304.92 105.523 305.227 104.705 305.198C103.093 305.141 101.547 304.901 100.223 304.33L100.203 304.321C98.7891 303.699 97.6657 302.692 96.8507 301.404C96.0803 300.186 95.551 298.663 95.1644 297.007L95.1636 297.003C94.9261 295.98 94.7524 295.009 94.6535 294.099C94.5539 293.183 94.5109 292.081 94.5109 290.825C94.5109 289.569 94.5539 288.467 94.6535 287.551C94.7524 286.641 94.9261 285.67 95.1636 284.647L95.1644 284.643C95.551 282.987 96.0803 281.464 96.8507 280.246C97.6753 278.943 98.8178 277.937 100.248 277.32C101.569 276.751 103.103 276.509 104.704 276.452C105.522 276.423 106.317 276.729 106.904 277.3C107.49 277.872 107.818 278.658 107.811 279.477L107.786 282.277C107.772 283.877 106.503 285.185 104.903 285.248C104.599 285.26 104.377 285.288 104.224 285.318C104.203 285.322 104.185 285.326 104.168 285.33C104.081 285.545 103.958 285.934 103.837 286.565C103.681 287.457 103.578 288.187 103.522 288.766L103.521 288.774C103.467 289.314 103.436 289.993 103.436 290.825C103.436 291.653 103.467 292.343 103.521 292.904C103.578 293.468 103.681 294.191 103.837 295.085C103.958 295.716 104.081 296.105 104.168 296.32C104.185 296.324 104.203 296.328 104.224 296.332C104.377 296.362 104.599 296.39 104.903 296.402C106.503 296.465 107.772 297.773 107.786 299.373L107.811 302.173C107.818 302.992 107.491 303.778 106.904 304.349ZM102.565 298.9C102.287 298.742 102.043 298.526 101.833 298.252C101.745 298.136 101.662 298.011 101.586 297.875C101.307 297.351 101.077 296.616 100.895 295.673C100.895 295.672 100.895 295.671 100.894 295.67C100.892 295.655 100.889 295.64 100.886 295.625C100.74 294.794 100.633 294.071 100.563 293.457C100.553 293.369 100.544 293.283 100.536 293.2C100.469 292.517 100.436 291.725 100.436 290.825C100.436 289.925 100.469 289.142 100.536 288.475C100.545 288.384 100.555 288.29 100.565 288.193C100.635 287.571 100.742 286.848 100.886 286.025C100.889 286.01 100.892 285.995 100.894 285.98C100.895 285.979 100.895 285.978 100.895 285.977C101.077 285.034 101.307 284.299 101.586 283.775C101.662 283.639 101.745 283.514 101.833 283.398C102.048 283.117 102.299 282.897 102.585 282.738C102.642 282.706 102.701 282.677 102.761 282.65C103.261 282.417 103.936 282.283 104.786 282.25L104.811 279.45C104.766 279.452 104.721 279.453 104.676 279.455C103.531 279.505 102.574 279.664 101.807 279.931C101.729 279.958 101.654 279.986 101.58 280.015C101.566 280.021 101.553 280.026 101.539 280.032C101.504 280.046 101.47 280.06 101.436 280.075C100.586 280.442 99.9026 281.033 99.3859 281.85C99.2843 282.011 99.1859 282.184 99.0908 282.371C99.0804 282.392 99.0701 282.412 99.0598 282.433C98.6842 283.188 98.3596 284.152 98.0859 285.325C98.0733 285.379 98.061 285.433 98.0488 285.487C98.0459 285.5 98.043 285.513 98.0401 285.526C97.848 286.381 97.7133 287.164 97.6359 287.875C97.6252 287.974 97.6152 288.076 97.6058 288.182C97.6056 288.184 97.6054 288.187 97.6052 288.189C97.5424 288.904 97.5109 289.783 97.5109 290.825C97.5109 291.879 97.5431 292.766 97.6074 293.486C97.6076 293.488 97.6078 293.49 97.608 293.493C97.6167 293.59 97.626 293.684 97.6359 293.775C97.7133 294.486 97.848 295.269 98.0401 296.124C98.043 296.137 98.0459 296.15 98.0488 296.163C98.061 296.217 98.0733 296.271 98.0859 296.325C98.3596 297.498 98.6842 298.462 99.0598 299.217C99.0701 299.238 99.0804 299.258 99.0908 299.279C99.1859 299.466 99.2843 299.639 99.3859 299.8C99.9026 300.617 100.578 301.208 101.411 301.575C101.452 301.593 101.493 301.61 101.535 301.627C101.549 301.632 101.562 301.638 101.576 301.643C101.651 301.672 101.728 301.7 101.807 301.727C102.573 301.99 103.529 302.145 104.676 302.195C104.721 302.197 104.766 302.198 104.811 302.2L104.786 299.4C103.936 299.367 103.261 299.233 102.761 299C102.7 298.973 102.641 298.943 102.583 298.911C102.577 298.907 102.571 298.904 102.565 298.9ZM113.251 295.775L110.726 293.95L111.976 292.2L113.651 290.7L111.551 290.4L109.401 289.7L110.276 286.975L112.576 287.65L114.251 288.625L113.826 286.55V284.325H117.001V286.55L116.601 288.6L118.301 287.65L120.626 286.925L121.526 289.75L119.326 290.45L117.226 290.7L118.801 292.15L120.151 293.975L117.701 295.8L116.251 293.85L115.426 292.125L114.601 293.875L113.251 295.775ZM115.465 297.8C115.931 298.321 116.568 298.666 117.266 298.768C118.054 298.884 118.855 298.681 119.493 298.206L121.943 296.381C122.265 296.141 122.524 295.85 122.72 295.527C123.086 295.686 123.491 295.775 123.916 295.775H125.966V298.175C125.966 299.832 127.31 301.175 128.966 301.175H131.916C133.573 301.175 134.916 299.832 134.916 298.175V295.775H136.966C137.389 295.775 137.791 295.688 138.156 295.53C138.356 295.854 138.622 296.145 138.949 296.381L141.474 298.206C142.123 298.675 142.931 298.865 143.72 298.735C144.387 298.625 144.994 298.293 145.445 297.8C145.912 298.321 146.548 298.666 147.246 298.768C148.034 298.884 148.835 298.681 149.474 298.206L151.924 296.381C153.154 295.465 153.481 293.785 152.737 292.486C153.352 292.21 153.859 291.733 154.172 291.128C154.537 290.421 154.607 289.598 154.365 288.839L153.465 286.014C152.991 284.526 151.462 283.664 149.964 283.995C149.799 282.493 148.527 281.325 146.982 281.325H143.807C142.25 281.325 140.97 282.511 140.821 284.028C139.348 283.744 137.868 284.601 137.4 286.058L137.057 287.126C137.027 287.125 136.997 287.125 136.966 287.125H134.916V284.875C134.916 283.218 133.573 281.875 131.916 281.875H128.966C127.31 281.875 125.966 283.218 125.966 284.875V287.125H123.916C123.89 287.125 123.865 287.125 123.839 287.126L123.485 286.014C123.01 284.526 121.482 283.664 119.983 283.995C119.819 282.493 118.546 281.325 117.001 281.325H113.826C112.269 281.325 110.99 282.511 110.841 284.028C109.367 283.744 107.888 284.601 107.42 286.058L106.545 288.783C106.076 290.242 106.784 291.798 108.143 292.424C107.361 293.744 107.702 295.466 108.969 296.381L111.494 298.206C112.142 298.675 112.951 298.865 113.74 298.735C114.407 298.625 115.013 298.293 115.465 297.8ZM123.916 290.125V292.775H128.966V298.175H131.916V292.775H136.966V290.125H131.916V284.875H128.966V290.125H123.916ZM140.707 293.95L143.232 295.775L144.582 293.875L145.407 292.125L146.232 293.85L147.682 295.8L150.132 293.975L148.782 292.15L147.207 290.7L149.307 290.45L151.507 289.75L150.607 286.925L148.282 287.65L146.582 288.6L146.982 286.55V284.325H143.807V286.55L144.232 288.625L142.557 287.65L140.257 286.975L139.382 289.7L141.532 290.4L143.632 290.7L141.957 292.2L140.707 293.95ZM153.097 299.373C153.111 297.773 154.38 296.465 155.979 296.402C156.284 296.39 156.501 296.362 156.646 296.333C156.665 296.329 156.683 296.326 156.698 296.322C156.781 296.141 156.916 295.761 157.046 295.086C157.202 294.191 157.305 293.468 157.361 292.904C157.416 292.343 157.447 291.653 157.447 290.825C157.447 289.993 157.416 289.314 157.362 288.774L157.361 288.766C157.304 288.187 157.202 287.456 157.045 286.562C156.916 285.889 156.781 285.509 156.698 285.328C156.683 285.324 156.665 285.321 156.646 285.317C156.501 285.288 156.284 285.26 155.979 285.248C154.38 285.185 153.111 283.877 153.097 282.277L153.072 279.477C153.065 278.658 153.392 277.872 153.979 277.3C154.566 276.729 155.361 276.423 156.179 276.452C157.779 276.509 159.314 276.751 160.635 277.32C162.065 277.937 163.208 278.943 164.032 280.246C164.802 281.464 165.332 282.987 165.718 284.643L165.719 284.647C165.957 285.67 166.13 286.641 166.229 287.551C166.329 288.467 166.372 289.569 166.372 290.825C166.372 292.081 166.329 293.183 166.229 294.099C166.13 295.009 165.957 295.98 165.719 297.003L165.718 297.007C165.332 298.663 164.802 300.186 164.032 301.404C163.209 302.704 162.07 303.708 160.645 304.325C159.327 304.903 157.782 305.142 156.178 305.198C155.36 305.227 154.565 304.92 153.979 304.349C153.392 303.778 153.065 302.992 153.072 302.173L153.097 299.373ZM163.332 288.18C163.332 288.181 163.333 288.182 163.333 288.184L163.278 288.189C163.277 288.187 163.277 288.184 163.277 288.182L163.332 288.176C163.332 288.178 163.332 288.179 163.332 288.18ZM161.818 282.423L161.921 282.368C161.916 282.357 161.91 282.346 161.904 282.335C162.394 283.218 162.702 284.251 162.912 285.298C162.912 285.298 162.912 285.298 162.912 285.298C162.923 285.354 162.934 285.41 162.944 285.466L162.952 285.507C163.104 286.373 163.221 287.163 163.3 287.869C163.312 287.975 163.322 288.078 163.332 288.18M161.786 282.361C161.797 282.381 161.807 282.402 161.818 282.423L161.786 282.361ZM161.786 282.361C161.693 282.178 161.597 282.007 161.497 281.85C160.98 281.033 160.297 280.442 159.447 280.075C159.418 280.062 159.388 280.05 159.358 280.038C159.322 280.023 159.285 280.008 159.248 279.994C159.192 279.972 159.135 279.951 159.076 279.931C158.309 279.664 157.352 279.505 156.206 279.455C156.162 279.453 156.117 279.452 156.072 279.45L156.097 282.25C156.947 282.283 157.614 282.417 158.097 282.65C158.165 282.679 158.23 282.712 158.294 282.747C158.584 282.906 158.832 283.126 159.039 283.405C159.124 283.518 159.201 283.642 159.272 283.775C159.567 284.299 159.806 285.034 159.988 285.977C159.988 285.978 159.988 285.979 159.988 285.98L159.875 286.007C159.875 286.006 159.875 286.004 159.875 286.003C159.878 286.017 159.881 286.031 159.884 286.045M159.885 286.046L159.997 286.025L159.885 286.046ZM159.358 301.613C159.388 301.6 159.418 301.588 159.447 301.575C160.297 301.208 160.98 300.617 161.497 299.8C161.597 299.643 161.693 299.472 161.786 299.289C161.797 299.269 161.807 299.248 161.818 299.227C162.196 298.471 162.522 297.503 162.797 296.325M159.272 297.875C159.567 297.351 159.806 296.616 159.988 295.673C159.988 295.672 159.988 295.671 159.988 295.67C159.991 295.655 159.994 295.64 159.997 295.625C160.143 294.794 160.25 294.071 160.32 293.457C160.329 293.369 160.339 293.283 160.347 293.2C160.414 292.517 160.447 291.725 160.447 290.825C160.447 289.925 160.414 289.142 160.347 288.475M159.272 297.875C159.201 298.008 159.124 298.132 159.039 298.245C158.832 298.524 158.584 298.744 158.294 298.903C158.288 298.907 158.282 298.91 158.276 298.913C158.218 298.945 158.158 298.973 158.097 299C157.614 299.233 156.947 299.367 156.097 299.4L156.072 302.2C156.117 302.198 156.162 302.197 156.206 302.195C157.362 302.145 158.319 301.987 159.076 301.721C159.135 301.7 159.192 301.679 159.248 301.657C159.286 301.643 159.322 301.628 159.358 301.613M42.85 293.925V298.5H38.1V293.925H42.85ZM42.85 284.1V288.675H38.1V284.1H42.85Z" fill="white"/>
<path d="M38.1 293.925H42.85V298.5H38.1V293.925ZM38.1 284.1H42.85V288.675H38.1V284.1Z" fill="#C73D70"/>
<path d="M49.6902 285.95H52.7402V287.75H52.9402C53.4069 286.933 53.8902 286.375 54.3902 286.075C54.8902 285.775 55.5986 285.625 56.5152 285.625C57.7819 285.625 58.7569 285.783 59.4402 286.1C60.1236 286.4 60.6069 286.917 60.8902 287.65C61.1902 288.367 61.3402 289.4 61.3402 290.75V299H58.2902V290.7C58.2902 289.783 58.1152 289.158 57.7652 288.825C57.4319 288.492 56.7986 288.325 55.8652 288.325C55.0486 288.325 54.4152 288.442 53.9652 288.675C53.5319 288.908 53.2152 289.308 53.0152 289.875C52.8319 290.425 52.7402 291.208 52.7402 292.225V299H49.6902V285.95Z" fill="#C73D70"/>
<path d="M70.4805 299.225C68.8638 299.225 67.6138 299.025 66.7305 298.625C65.8471 298.208 65.2138 297.525 64.8305 296.575C64.4638 295.608 64.2805 294.233 64.2805 292.45C64.2805 290.65 64.4638 289.267 64.8305 288.3C65.2138 287.333 65.8388 286.65 66.7055 286.25C67.5888 285.833 68.8471 285.625 70.4805 285.625C72.1138 285.625 73.3638 285.833 74.2305 286.25C75.1138 286.65 75.7388 287.333 76.1055 288.3C76.4888 289.267 76.6805 290.65 76.6805 292.45C76.6805 294.233 76.4888 295.608 76.1055 296.575C75.7388 297.525 75.1138 298.208 74.2305 298.625C73.3471 299.025 72.0971 299.225 70.4805 299.225ZM67.3305 292.45C67.3305 293.55 67.4221 294.4 67.6055 295C67.8055 295.583 68.1221 296 68.5555 296.25C69.0055 296.5 69.6471 296.625 70.4805 296.625C71.3138 296.625 71.9471 296.5 72.3805 296.25C72.8305 296 73.1471 295.583 73.3305 295C73.5305 294.4 73.6305 293.55 73.6305 292.45C73.6305 291.333 73.5305 290.475 73.3305 289.875C73.1471 289.275 72.8305 288.85 72.3805 288.6C71.9471 288.333 71.3138 288.2 70.4805 288.2C69.6471 288.2 69.0055 288.333 68.5555 288.6C68.1221 288.85 67.8055 289.275 67.6055 289.875C67.4221 290.475 67.3305 291.333 67.3305 292.45Z" fill="#C73D70"/>
<path d="M87.0957 299.275C85.8957 299.275 84.9874 299.117 84.3707 298.8C83.754 298.483 83.3374 298.017 83.1207 297.4C82.904 296.767 82.7957 295.908 82.7957 294.825V288.525H79.5707L80.1707 285.95H82.8957V283.3L85.7957 282.075V285.95H90.6707V288.525H85.7957V294.725C85.7957 295.258 85.8374 295.65 85.9207 295.9C86.0207 296.15 86.2207 296.333 86.5207 296.45C86.8374 296.567 87.3124 296.625 87.9457 296.625C88.6624 296.625 89.704 296.525 91.0707 296.325V298.95C89.3374 299.167 88.0124 299.275 87.0957 299.275Z" fill="#C73D70"/>
<path d="M104.811 302.2C103.394 302.15 102.261 301.942 101.411 301.575C100.578 301.208 99.9026 300.617 99.3859 299.8C98.8693 298.983 98.4359 297.825 98.0859 296.325C97.8693 295.392 97.7193 294.542 97.6359 293.775C97.5526 293.008 97.5109 292.025 97.5109 290.825C97.5109 289.625 97.5526 288.642 97.6359 287.875C97.7193 287.108 97.8693 286.258 98.0859 285.325C98.4359 283.825 98.8693 282.667 99.3859 281.85C99.9026 281.033 100.586 280.442 101.436 280.075C102.286 279.708 103.411 279.5 104.811 279.45L104.786 282.25C103.936 282.283 103.261 282.417 102.761 282.65C102.278 282.867 101.886 283.242 101.586 283.775C101.303 284.308 101.069 285.058 100.886 286.025C100.719 286.975 100.603 287.792 100.536 288.475C100.469 289.142 100.436 289.925 100.436 290.825C100.436 291.725 100.469 292.517 100.536 293.2C100.603 293.867 100.719 294.675 100.886 295.625C101.069 296.592 101.303 297.342 101.586 297.875C101.886 298.408 102.278 298.783 102.761 299C103.261 299.233 103.936 299.367 104.786 299.4L104.811 302.2Z" fill="#C73D70"/>
<path d="M116.251 293.85L115.426 292.125L114.601 293.875L113.251 295.775L110.726 293.95L111.976 292.2L113.651 290.7L111.551 290.4L109.401 289.7L110.276 286.975L112.576 287.65L114.251 288.625L113.826 286.55V284.325H117.001V286.55L116.601 288.6L118.301 287.65L120.626 286.925L121.526 289.75L119.326 290.45L117.226 290.7L118.801 292.15L120.151 293.975L117.701 295.8L116.251 293.85Z" fill="#C73D70"/>
<path d="M128.966 292.775H123.916V290.125H128.966V284.875H131.916V290.125H136.966V292.775H131.916V298.175H128.966V292.775Z" fill="#C73D70"/>
<path d="M146.232 293.85L145.407 292.125L144.582 293.875L143.232 295.775L140.707 293.95L141.957 292.2L143.632 290.7L141.532 290.4L139.382 289.7L140.257 286.975L142.557 287.65L144.232 288.625L143.807 286.55V284.325H146.982V286.55L146.582 288.6L148.282 287.65L150.607 286.925L151.507 289.75L149.307 290.45L147.207 290.7L148.782 292.15L150.132 293.975L147.682 295.8L146.232 293.85Z" fill="#C73D70"/>
<path d="M156.097 299.4C156.947 299.367 157.614 299.233 158.097 299C158.597 298.783 158.989 298.408 159.272 297.875C159.572 297.342 159.814 296.592 159.997 295.625C160.164 294.675 160.28 293.867 160.347 293.2C160.414 292.517 160.447 291.725 160.447 290.825C160.447 289.925 160.414 289.142 160.347 288.475C160.28 287.792 160.164 286.975 159.997 286.025C159.814 285.058 159.572 284.308 159.272 283.775C158.989 283.242 158.597 282.867 158.097 282.65C157.614 282.417 156.947 282.283 156.097 282.25L156.072 279.45C157.472 279.5 158.597 279.708 159.447 280.075C160.297 280.442 160.98 281.033 161.497 281.85C162.014 282.667 162.447 283.825 162.797 285.325C163.014 286.258 163.164 287.108 163.247 287.875C163.33 288.642 163.372 289.625 163.372 290.825C163.372 292.025 163.33 293.008 163.247 293.775C163.164 294.542 163.014 295.392 162.797 296.325C162.447 297.825 162.014 298.983 161.497 299.8C160.98 300.617 160.297 301.208 159.447 301.575C158.614 301.942 157.489 302.15 156.072 302.2L156.097 299.4Z" fill="#C73D70"/>
<defs>
<filter id="filter0_d_3520_2" x="0.47814" y="0" width="261.444" height="388" filterUnits="userSpaceOnUse" color-interpolation-filters="sRGB">
<feFlood flood-opacity="0" result="BackgroundImageFix"/>
<feColorMatrix in="SourceAlpha" type="matrix" values="0 0 0 0 0 0 0 0 0 0 0 0 0 0 0 0 0 0 127 0" result="hardAlpha"/>
<feOffset dy="4"/>
<feGaussianBlur stdDeviation="2"/>
<feComposite in2="hardAlpha" operator="out"/>
<feColorMatrix type="matrix" values="0 0 0 0 0 0 0 0 0 0 0 0 0 0 0 0 0 0 0.25 0"/>
<feBlend mode="normal" in2="BackgroundImageFix" result="effect1_dropShadow_3520_2"/>
<feBlend mode="normal" in="SourceGraphic" in2="effect1_dropShadow_3520_2" result="shape"/>
</filter>
<filter id="filter1_d_3520_2" x="23.4019" y="139.461" width="220.345" height="76.3069" filterUnits="userSpaceOnUse" color-interpolation-filters="sRGB">
<feFlood flood-opacity="0" result="BackgroundImageFix"/>
<feColorMatrix in="SourceAlpha" type="matrix" values="0 0 0 0 0 0 0 0 0 0 0 0 0 0 0 0 0 0 127 0" result="hardAlpha"/>
<feOffset dy="4"/>
<feGaussianBlur stdDeviation="2"/>
<feComposite in2="hardAlpha" operator="out"/>
<feColorMatrix type="matrix" values="0 0 0 0 0 0 0 0 0 0 0 0 0 0 0 0 0 0 0.4 0"/>
<feBlend mode="normal" in2="BackgroundImageFix" result="effect1_dropShadow_3520_2"/>
<feBlend mode="normal" in="SourceGraphic" in2="effect1_dropShadow_3520_2" result="shape"/>
</filter>
<linearGradient id="paint0_linear_3520_2" x1="174.835" y1="164" x2="174.835" y2="198.456" gradientUnits="userSpaceOnUse">
<stop stop-color="#283A99"/>
<stop offset="1" stop-color="#4361FF"/>
</linearGradient>
<linearGradient id="paint1_linear_3520_2" x1="94.3347" y1="164" x2="94.3347" y2="198.456" gradientUnits="userSpaceOnUse">
<stop stop-color="#283A99"/>
<stop offset="1" stop-color="#4361FF"/>
</linearGradient>
</defs>
</svg>
