<svg class="quote" aria-hidden="true" role="presentation" viewBox="0 0 1105 135" fill="none" xmlns="http://www.w3.org/2000/svg">
<path d="M8.17396 33.7174C5.86996 33.7174 4.04979 33.1124 2.71344 31.9024C1.43475 30.6286 0.690896 28.941 0.481866 26.8393C0.260168 24.6103 0.637626 21.6489 1.61424 17.9552C2.59085 14.2614 3.86497 10.6632 5.43659 7.16043C6.48222 4.80406 7.31903 3.24376 7.94702 2.47953C8.63901 1.7153 9.59301 1.33319 10.809 1.33319C12.217 1.33319 13.3687 1.65161 14.264 2.28847C15.1594 2.92533 15.6767 3.9443 15.8161 5.34539C15.8731 5.91856 15.8436 6.58726 15.7276 7.35149C15.315 10.281 15.0402 12.9877 14.9032 15.4714C14.8302 17.9552 14.9458 20.7255 15.2498 23.7824C15.5665 26.9667 15.0424 29.4186 13.6774 31.1381C12.3765 32.8576 10.542 33.7174 8.17396 33.7174ZM29.294 33.7174C26.99 33.7174 25.1698 33.1124 23.8334 31.9024C22.5548 30.6286 21.8109 28.941 21.6019 26.8393C21.3802 24.6103 21.7576 21.6489 22.7342 17.9552C23.7109 14.2614 24.985 10.6632 26.5566 7.16043C27.6022 4.80406 28.439 3.24376 29.067 2.47953C29.759 1.7153 30.713 1.33319 31.929 1.33319C33.337 1.33319 34.4887 1.65161 35.384 2.28847C36.2794 2.92533 36.7967 3.9443 36.9361 5.34539C36.9931 5.91856 36.9636 6.58726 36.8476 7.35149C36.435 10.281 36.1602 12.9877 36.0232 15.4714C35.9502 17.9552 36.0658 20.7255 36.3698 23.7824C36.6865 26.9667 36.1624 29.4186 34.7974 31.1381C33.4965 32.8576 31.662 33.7174 29.294 33.7174Z" />
<path d="M52.2778 91.0346C49.8458 91.0346 47.9911 89.7609 46.7137 87.2134C45.5004 84.666 44.615 80.5901 44.0575 74.9858C43.2341 66.7066 43.6358 58.8414 45.2627 51.3902C45.655 49.5433 46.45 48.2059 47.6477 47.378C48.903 46.4864 50.7146 46.0406 53.0826 46.0406C54.3626 46.0406 55.2745 46.1998 55.8181 46.5182C56.3618 46.8367 56.678 47.4417 56.7667 48.3333C56.868 49.3523 56.6161 51.6449 56.0108 55.2113C55.6241 57.7588 55.3338 59.9878 55.1399 61.8983C54.9459 63.8089 54.8603 66.1653 54.883 68.9675C56.4502 63.4905 58.3748 59.0325 60.6568 55.5935C62.9387 52.1544 65.2549 49.7025 67.6052 48.2378C70.0195 46.773 72.2826 46.0406 74.3946 46.0406C78.5546 46.0406 80.8405 48.1104 81.2522 52.25C81.3346 53.0779 81.2461 55.084 80.9868 58.2683C80.7282 60.8157 80.6305 62.4078 80.6939 63.0447C80.9156 65.2737 81.8264 66.3882 83.4264 66.3882C85.2184 66.3882 87.3831 64.9871 89.9204 62.1849C90.67 61.357 91.4928 60.9431 92.3888 60.9431C93.2208 60.9431 93.8989 61.3252 94.4229 62.0894C95.0045 62.79 95.3556 63.7452 95.4759 64.9553C95.7103 67.3116 95.254 69.1585 94.107 70.4959C92.4987 72.3428 90.545 73.935 88.2461 75.2724C86.0047 76.5461 83.5401 77.1829 80.8521 77.1829C77.4601 77.1829 74.7826 76.3232 72.8195 74.6037C70.9205 72.8842 69.8253 70.5596 69.5339 67.6301C69.4389 66.6748 69.4399 65.7195 69.5369 64.7642C69.5382 63.4905 69.5167 62.6307 69.4724 62.1849C69.371 61.166 68.9683 60.6565 68.2643 60.6565C67.3043 60.6565 66.132 61.7391 64.7474 63.9045C63.4204 66.0061 62.1631 68.8083 60.9755 72.311C59.7879 75.8137 58.9073 79.5075 58.3337 83.3923C57.9274 86.3855 57.2981 88.4235 56.4458 89.5061C55.6511 90.5251 54.2618 91.0346 52.2778 91.0346Z" />
<path d="M129.799 69.2541C130.631 69.2541 131.309 69.6362 131.833 70.4004C132.421 71.1646 132.782 72.2154 132.915 73.5528C133.168 76.1003 132.756 78.0745 131.68 79.4756C129.597 82.3415 126.5 84.9844 122.388 87.4045C118.341 89.8246 113.853 91.0346 108.925 91.0346C102.205 91.0346 96.8087 89.2196 92.7357 85.5895C88.6626 81.9594 86.3126 76.9919 85.6855 70.687C85.2484 66.2927 85.771 62.2168 87.2533 58.4593C88.7293 54.6382 90.9884 51.6131 94.0307 49.3841C97.137 47.1551 100.77 46.0406 104.93 46.0406C108.642 46.0406 111.729 47.1551 114.191 49.3841C116.646 51.5494 118.061 54.5108 118.434 58.2683C118.871 62.6626 117.648 66.4519 114.765 69.6362C111.939 72.7568 106.842 75.2405 99.4741 77.0874C101.365 80.0169 104.551 81.4817 109.031 81.4817C111.911 81.4817 115.077 80.4946 118.529 78.5203C122.038 76.4824 124.975 73.8394 127.34 70.5915C128.019 69.6999 128.839 69.2541 129.799 69.2541ZM104.229 55.4024C101.861 55.4024 99.9815 56.7716 98.5898 59.5101C97.2622 62.2486 96.7916 65.5603 97.178 69.4451L97.197 69.6362C100.884 68.7446 103.727 67.4072 105.726 65.624C107.725 63.8408 108.607 61.771 108.372 59.4146C108.252 58.2046 107.805 57.2493 107.031 56.5487C106.315 55.7845 105.381 55.4024 104.229 55.4024Z" />
<path d="M138.176 91.0346C134.208 91.0346 130.898 89.6017 128.244 86.7358C125.591 83.8699 124.034 80.1125 123.571 75.4634C123.065 70.3686 123.77 65.5603 125.689 61.0386C127.601 56.4532 130.372 52.7913 134.004 50.0528C137.693 47.2506 141.746 45.8495 146.162 45.8495C147.57 45.8495 148.526 46.1361 149.031 46.7093C149.594 47.2188 150.105 48.1741 150.564 49.5752C151.883 49.3204 153.278 49.193 154.75 49.193C157.886 49.193 159.565 50.3075 159.787 52.5365C159.92 53.8739 159.757 57.0582 159.297 62.0894C158.554 69.4133 158.324 74.5081 158.609 77.374C158.704 78.3293 159.004 79.0935 159.509 79.6667C160.078 80.2399 160.747 80.5264 161.515 80.5264C162.731 80.5264 164.127 79.7622 165.703 78.2337C167.272 76.6416 169.355 74.0942 171.951 70.5915C172.63 69.6999 173.45 69.2541 174.41 69.2541C175.242 69.2541 175.92 69.6362 176.444 70.4004C177.032 71.1646 177.392 72.2154 177.525 73.5528C177.779 76.1003 177.367 78.0745 176.29 79.4756C173.989 82.7236 171.478 85.4621 168.755 87.6911C166.033 89.9201 163.296 91.0346 160.544 91.0346C158.432 91.0346 156.41 90.334 154.479 88.933C152.605 87.4682 151.097 85.4939 149.954 83.0102C147.158 88.3598 143.232 91.0346 138.176 91.0346ZM140.672 81.3862C142.08 81.3862 143.342 80.5583 144.457 78.9025C145.573 77.2466 146.282 75.0495 146.586 72.311L148.39 54.7337C145.708 54.7974 143.313 55.8164 141.206 57.7906C139.156 59.7012 137.617 62.2486 136.59 65.4329C135.562 68.6172 135.226 71.9925 135.581 75.559C135.777 77.5332 136.307 78.998 137.17 79.9533C138.097 80.9086 139.264 81.3862 140.672 81.3862Z" />
<path d="M204.239 69.2541C205.463 74.4763 207 79.6348 208.851 84.7297C209.189 85.5576 209.403 86.4174 209.491 87.309C209.776 90.1748 208.159 91.6078 204.639 91.6078C202.655 91.6078 201.065 91.0664 199.869 89.9838C198.738 88.9011 197.575 86.8632 196.381 83.8699L196.247 83.4878C194.113 86.4811 192.104 88.4872 190.222 89.5061C188.403 90.5251 186.214 91.0346 183.654 91.0346C179.75 91.0346 176.375 89.6017 173.53 86.7358C170.743 83.8063 169.118 80.017 168.656 75.3679C168.149 70.273 168.768 65.5603 170.513 61.2297C172.259 56.899 174.883 53.3645 178.387 50.626C181.884 47.8238 185.94 46.1361 190.555 45.563C190.574 33.5263 191.836 23.05 194.341 14.134C196.91 5.21801 201.043 0.76001 206.739 0.76001C209.491 0.76001 211.887 2.00188 213.926 4.48563C216.029 6.96937 217.33 10.7268 217.831 15.758C218.527 22.7634 217.613 30.9471 215.089 40.3089C212.564 49.6707 208.947 59.3191 204.239 69.2541ZM206.614 10.1218C204.758 10.1218 203.467 14.8346 202.74 24.2601C202.078 33.6856 202.01 43.939 202.536 55.0203C208.12 39.7357 210.436 27.317 209.486 17.7641C209.246 15.3441 208.835 13.4653 208.254 12.1279C207.737 10.7905 207.19 10.1218 206.614 10.1218ZM186.054 81.3862C187.334 81.3862 188.503 80.9086 189.56 79.9533C190.681 78.998 192.033 77.1511 193.617 74.4126C192.514 69.7635 191.716 64.9553 191.222 59.9878C191.025 58.0135 190.905 56.4851 190.862 55.4024C187.443 56.4214 184.762 58.7459 182.819 62.376C180.876 66.0061 180.123 70.0183 180.561 74.4126C181.023 79.0617 182.854 81.3862 186.054 81.3862Z" />
<path d="M284.861 69.2541C285.693 69.2541 286.371 69.6362 286.895 70.4004C287.483 71.1646 287.844 72.2154 287.977 73.5528C288.23 76.1003 287.819 78.0745 286.742 79.4756C284.326 82.851 281.593 85.6213 278.545 87.7866C275.496 89.9519 271.86 91.0346 267.636 91.0346C254.58 91.0346 247.143 81.8957 245.325 63.6179C245.046 60.8157 244.86 57.9817 244.767 55.1158H241.023C239.103 55.1158 237.756 54.7655 236.983 54.065C236.273 53.3645 235.842 52.25 235.69 50.7215C235.335 47.1551 236.598 45.3719 239.478 45.3719H244.95C245.341 38.3665 246.369 31.966 248.032 26.1706C249.696 20.3752 251.925 15.758 254.719 12.319C257.577 8.87995 260.83 7.16043 264.478 7.16043C267.166 7.16043 269.395 8.33862 271.165 10.695C272.936 13.0514 273.998 16.0128 274.353 19.5792C275.335 29.4505 272.03 38.048 264.438 45.3719H275.19C276.214 45.3719 276.972 45.5948 277.465 46.0406C277.957 46.4864 278.263 47.3143 278.384 48.5243C278.821 52.9187 275.423 55.1158 268.191 55.1158H256.479C256.668 58.3001 256.851 60.7838 257.028 62.5671C257.687 69.1904 258.918 73.8394 260.72 76.5142C262.586 79.189 265.215 80.5264 268.607 80.5264C271.359 80.5264 273.708 79.6985 275.656 78.0427C277.603 76.3869 279.852 73.9031 282.402 70.5915C283.082 69.6999 283.901 69.2541 284.861 69.2541ZM262.798 16.3312C261.838 16.3312 260.87 17.5412 259.895 19.9613C258.977 22.3176 258.187 25.6293 257.523 29.8962C256.917 34.0995 256.519 38.7804 256.328 43.939C259.781 40.691 262.235 37.0609 263.692 33.0487C265.207 28.9728 265.8 25.279 265.47 21.9674C265.097 18.2099 264.206 16.3312 262.798 16.3312Z" />
<path d="M298.123 91.0346C294.347 91.0346 291.023 90.1111 288.152 88.2643C285.338 86.3537 283.107 83.8699 281.459 80.813C279.811 77.7561 278.812 74.4763 278.464 70.9736C277.983 66.1335 278.451 61.8347 279.869 58.0772C281.345 54.2561 283.547 51.2947 286.474 49.193C289.394 47.0277 292.807 45.9451 296.711 45.9451C300.487 45.9451 303.814 46.9004 306.692 48.8109C309.563 50.6578 311.823 53.1097 313.471 56.1666C315.119 59.2236 316.118 62.5034 316.466 66.0061C316.947 70.8462 316.45 75.1768 314.974 78.998C313.492 82.7554 311.258 85.7168 308.274 87.8821C305.347 89.9838 301.963 91.0346 298.123 91.0346ZM298.153 80.7175C300.329 80.7175 302.036 79.5393 303.274 77.1829C304.575 74.8266 305.001 71.3875 304.551 66.8658C304.203 63.3631 303.3 60.7202 301.843 58.937C300.385 57.1538 298.761 56.2622 296.969 56.2622C294.665 56.2622 292.862 57.4403 291.56 59.7967C290.316 62.0894 289.922 65.5284 290.378 70.1138C290.74 73.7439 291.646 76.4187 293.097 78.1382C294.548 79.8577 296.233 80.7175 298.153 80.7175Z" />
<path d="M385.023 69.2541C385.855 69.2541 386.533 69.6362 387.057 70.4004C387.645 71.1646 388.006 72.2154 388.139 73.5528C388.392 76.1003 387.981 78.0745 386.904 79.4756C384.488 82.851 381.755 85.6213 378.706 87.7866C375.722 89.9519 372.182 91.0346 368.086 91.0346C362.454 91.0346 358.008 88.4872 354.749 83.3923C351.555 78.2974 349.555 71.706 348.751 63.6179C347.978 55.8482 348.089 46.9959 349.085 37.0609C350.145 27.1259 352.272 18.592 355.467 11.4592C358.725 4.32641 363.075 0.76001 368.515 0.76001C371.587 0.76001 374.129 2.19294 376.142 5.0588C378.213 7.86098 379.511 11.905 380.037 17.1909C380.791 24.7695 379.553 33.5582 376.323 43.5569C373.094 53.5555 368.351 63.4587 362.094 73.2663C362.802 75.8774 363.725 77.7561 364.863 78.9025C365.995 79.9851 367.392 80.5264 369.056 80.5264C371.68 80.5264 373.912 79.794 375.75 78.3293C377.582 76.8008 379.853 74.2215 382.564 70.5915C383.244 69.6999 384.063 69.2541 385.023 69.2541ZM367.343 10.2174C365.871 10.2174 364.47 12.8603 363.14 18.1462C361.81 23.4321 360.83 29.9918 360.201 37.8251C359.572 45.6585 359.552 53.1734 360.14 60.3699C363.942 52.9187 366.817 45.4674 368.764 38.0162C370.705 30.5013 371.368 23.655 370.754 17.4775C370.272 12.6374 369.135 10.2174 367.343 10.2174Z" />
<path d="M422.768 69.2541C423.6 69.2541 424.278 69.6362 424.802 70.4004C425.39 71.1646 425.75 72.2154 425.883 73.5528C426.137 76.1003 425.725 78.0745 424.648 79.4756C422.565 82.3415 419.468 84.9844 415.357 87.4045C411.31 89.8246 406.822 91.0346 401.894 91.0346C395.174 91.0346 389.777 89.2196 385.704 85.5895C381.631 81.9594 379.281 76.9919 378.654 70.687C378.217 66.2927 378.74 62.2168 380.222 58.4593C381.698 54.6382 383.957 51.6131 386.999 49.3841C390.106 47.1551 393.739 46.0406 397.899 46.0406C401.611 46.0406 404.698 47.1551 407.159 49.3841C409.615 51.5494 411.029 54.5108 411.403 58.2683C411.84 62.6626 410.617 66.4519 407.734 69.6362C404.908 72.7568 399.811 75.2405 392.443 77.0874C394.334 80.0169 397.52 81.4817 402 81.4817C404.88 81.4817 408.046 80.4946 411.497 78.5203C415.007 76.4824 417.944 73.8394 420.309 70.5915C420.988 69.6999 421.808 69.2541 422.768 69.2541ZM397.198 55.4024C394.83 55.4024 392.95 56.7716 391.559 59.5101C390.231 62.2486 389.76 65.5603 390.147 69.4451L390.166 69.6362C393.853 68.7446 396.696 67.4072 398.695 65.624C400.693 63.8408 401.575 61.771 401.341 59.4146C401.221 58.2046 400.774 57.2493 400 56.5487C399.284 55.7845 398.35 55.4024 397.198 55.4024Z" />
<path d="M431.145 91.0346C427.177 91.0346 423.866 89.6017 421.213 86.7358C418.56 83.8699 417.002 80.1125 416.54 75.4634C416.033 70.3686 416.739 65.5603 418.657 61.0386C420.569 56.4532 423.341 52.7913 426.973 50.0528C430.662 47.2506 434.715 45.8495 439.131 45.8495C440.539 45.8495 441.495 46.1361 442 46.7093C442.563 47.2188 443.074 48.1741 443.533 49.5752C444.852 49.3204 446.247 49.193 447.719 49.193C450.855 49.193 452.534 50.3075 452.756 52.5365C452.889 53.8739 452.725 57.0582 452.266 62.0894C451.522 69.4133 451.293 74.5081 451.578 77.374C451.673 78.3293 451.973 79.0935 452.478 79.6667C453.047 80.2399 453.716 80.5264 454.484 80.5264C455.7 80.5264 457.096 79.7622 458.672 78.2337C460.241 76.6416 462.324 74.0942 464.919 70.5915C465.599 69.6999 466.418 69.2541 467.378 69.2541C468.21 69.2541 468.888 69.6362 469.412 70.4004C470 71.1646 470.361 72.2154 470.494 73.5528C470.747 76.1003 470.336 78.0745 469.259 79.4756C466.958 82.7236 464.447 85.4621 461.724 87.6911C459.002 89.9201 456.265 91.0346 453.513 91.0346C451.401 91.0346 449.379 90.334 447.448 88.933C445.574 87.4682 444.066 85.4939 442.923 83.0102C440.127 88.3598 436.201 91.0346 431.145 91.0346ZM433.641 81.3862C435.049 81.3862 436.311 80.5583 437.426 78.9025C438.541 77.2466 439.251 75.0495 439.554 72.311L441.358 54.7337C438.677 54.7974 436.282 55.8164 434.174 57.7906C432.124 59.7012 430.586 62.2486 429.558 65.4329C428.531 68.6172 428.195 71.9925 428.55 75.559C428.746 77.5332 429.276 78.998 430.139 79.9533C431.066 80.9086 432.233 81.3862 433.641 81.3862Z" />
<path d="M471.247 91.0346C468.815 91.0346 466.96 89.7609 465.682 87.2134C464.469 84.666 463.584 80.5901 463.026 74.9858C462.203 66.7066 462.605 58.8414 464.231 51.3902C464.624 49.5433 465.419 48.2059 466.616 47.378C467.872 46.4864 469.683 46.0406 472.051 46.0406C473.331 46.0406 474.243 46.1998 474.787 46.5182C475.331 46.8367 475.647 47.4417 475.735 48.3333C475.837 49.3523 475.585 51.6449 474.98 55.2113C474.593 57.7588 474.303 59.9878 474.109 61.8983C473.915 63.8089 473.829 66.1653 473.852 68.9675C475.419 63.4905 477.344 59.0325 479.626 55.5935C481.907 52.1544 484.224 49.7025 486.574 48.2378C488.988 46.773 491.251 46.0406 493.363 46.0406C497.523 46.0406 499.809 48.1104 500.221 52.25C500.303 53.0779 500.215 55.084 499.956 58.2683C499.697 60.8157 499.599 62.4078 499.663 63.0447C499.884 65.2737 500.795 66.3882 502.395 66.3882C504.187 66.3882 506.352 64.9871 508.889 62.1849C509.639 61.357 510.462 60.9431 511.358 60.9431C512.19 60.9431 512.868 61.3252 513.392 62.0894C513.973 62.79 514.324 63.7452 514.445 64.9553C514.679 67.3116 514.223 69.1585 513.076 70.4959C511.467 72.3428 509.514 73.935 507.215 75.2724C504.973 76.5461 502.509 77.1829 499.821 77.1829C496.429 77.1829 493.751 76.3232 491.788 74.6037C489.889 72.8842 488.794 70.5596 488.503 67.6301C488.408 66.6748 488.409 65.7195 488.506 64.7642C488.507 63.4905 488.485 62.6307 488.441 62.1849C488.34 61.166 487.937 60.6565 487.233 60.6565C486.273 60.6565 485.101 61.7391 483.716 63.9045C482.389 66.0061 481.132 68.8083 479.944 72.311C478.757 75.8137 477.876 79.5075 477.302 83.3923C476.896 86.3855 476.267 88.4235 475.414 89.5061C474.62 90.5251 473.231 91.0346 471.247 91.0346Z" />
<path d="M514.934 91.0346C512.502 91.0346 510.647 89.7609 509.37 87.2134C508.157 84.666 507.271 80.5901 506.714 74.9858C505.89 66.7066 506.292 58.8414 507.919 51.3902C508.311 49.5433 509.106 48.2059 510.304 47.378C511.559 46.4864 513.371 46.0406 515.739 46.0406C517.019 46.0406 517.931 46.1998 518.474 46.5182C519.018 46.8367 519.334 47.4417 519.423 48.3333C519.524 49.3523 519.272 51.6449 518.667 55.2113C518.28 57.7588 517.99 59.9878 517.796 61.8983C517.602 63.8089 517.517 66.1653 517.539 68.9675C519.106 63.4905 521.031 59.0325 523.313 55.5935C525.595 52.1544 527.911 49.7025 530.261 48.2378C532.676 46.773 534.939 46.0406 537.051 46.0406C539.099 46.0406 540.689 46.5819 541.82 47.6646C543.01 48.6836 543.706 50.212 543.908 52.25C544.073 53.9058 544.032 57.0264 543.784 61.6118C543.53 65.4966 543.385 69.1904 543.35 72.6931C543.308 76.1321 543.499 79.9851 543.923 84.2521C544.164 86.6721 543.826 88.4235 542.91 89.5061C542.051 90.5251 540.502 91.0346 538.262 91.0346C536.15 91.0346 534.56 90.4933 533.492 89.4106C532.425 88.3279 531.783 86.704 531.568 84.5386C531.315 81.9912 531.344 77.788 531.658 71.9289C531.919 66.834 531.98 63.586 531.841 62.1849C531.739 61.166 531.337 60.6565 530.633 60.6565C529.801 60.6565 528.724 61.7391 527.404 63.9045C526.141 66.0061 524.883 68.8083 523.632 72.311C522.444 75.8137 521.564 79.5075 520.99 83.3923C520.584 86.3855 519.954 88.4235 519.102 89.5061C518.307 90.5251 516.918 91.0346 514.934 91.0346Z" />
<path d="M557.608 105.65C556.2 105.65 555.048 105.332 554.153 104.695C553.257 104.058 552.74 103.039 552.601 101.638C552.544 101.065 552.573 100.396 552.689 99.6322C553.102 96.7026 553.345 93.996 553.418 91.5122C553.554 89.0285 553.471 86.2582 553.167 83.2012C552.85 80.017 553.342 77.5651 554.643 75.8455C556.008 74.126 557.875 73.2663 560.243 73.2663C562.547 73.2663 564.338 73.9031 565.617 75.1768C566.953 76.3869 567.726 78.0427 567.935 80.1443C568.157 82.3733 567.779 85.3347 566.802 89.0285C565.826 92.7223 564.552 96.3205 562.98 99.8232C561.935 102.18 561.066 103.74 560.374 104.504C559.746 105.268 558.824 105.65 557.608 105.65Z" />
<path d="M645.33 69.2541C646.162 69.2541 646.84 69.6362 647.364 70.4004C647.952 71.1646 648.313 72.2154 648.446 73.5528C648.699 76.1003 648.288 78.0745 647.211 79.4756C644.795 82.851 642.062 85.6213 639.013 87.7866C635.965 89.9519 632.328 91.0346 628.104 91.0346C615.048 91.0346 607.612 81.8957 605.794 63.6179C605.515 60.8157 605.329 57.9817 605.236 55.1158H601.492C599.572 55.1158 598.225 54.7655 597.452 54.065C596.742 53.3645 596.311 52.25 596.159 50.7215C595.804 47.1551 597.067 45.3719 599.947 45.3719H605.419C605.81 38.3665 606.838 31.966 608.501 26.1706C610.165 20.3752 612.393 15.758 615.187 12.319C618.045 8.87995 621.298 7.16043 624.946 7.16043C627.634 7.16043 629.864 8.33862 631.634 10.695C633.404 13.0514 634.467 16.0128 634.822 19.5792C635.803 29.4505 632.498 38.048 624.907 45.3719H635.659C636.683 45.3719 637.441 45.5948 637.933 46.0406C638.426 46.4864 638.732 47.3143 638.852 48.5243C639.289 52.9187 635.892 55.1158 628.66 55.1158H616.948C617.137 58.3001 617.32 60.7838 617.497 62.5671C618.156 69.1904 619.386 73.8394 621.188 76.5142C623.054 79.189 625.683 80.5264 629.075 80.5264C631.827 80.5264 634.177 79.6985 636.124 78.0427C638.072 76.3869 640.321 73.9031 642.871 70.5915C643.551 69.6999 644.37 69.2541 645.33 69.2541ZM623.266 16.3312C622.306 16.3312 621.339 17.5412 620.364 19.9613C619.446 22.3176 618.655 25.6293 617.992 29.8962C617.386 34.0995 616.987 38.7804 616.796 43.939C620.249 40.691 622.704 37.0609 624.161 33.0487C625.676 28.9728 626.268 25.279 625.939 21.9674C625.565 18.2099 624.674 16.3312 623.266 16.3312Z" />
<path d="M649.184 91.0346C646.752 91.0346 644.897 89.7609 643.62 87.2134C642.407 84.666 641.521 80.5901 640.964 74.9858C640.14 66.7066 640.542 58.8414 642.169 51.3902C642.561 49.5433 643.356 48.2059 644.554 47.378C645.809 46.4864 647.621 46.0406 649.989 46.0406C651.269 46.0406 652.181 46.1998 652.724 46.5182C653.268 46.8367 653.584 47.4417 653.673 48.3333C653.774 49.3523 653.522 51.6449 652.917 55.2113C652.53 57.7588 652.24 59.9878 652.046 61.8983C651.852 63.8089 651.767 66.1653 651.789 68.9675C653.356 63.4905 655.281 59.0325 657.563 55.5935C659.845 52.1544 662.161 49.7025 664.511 48.2378C666.926 46.773 669.189 46.0406 671.301 46.0406C675.461 46.0406 677.747 48.1104 678.158 52.25C678.241 53.0779 678.152 55.084 677.893 58.2683C677.634 60.8157 677.537 62.4078 677.6 63.0447C677.822 65.2737 678.733 66.3882 680.333 66.3882C682.125 66.3882 684.289 64.9871 686.827 62.1849C687.576 61.357 688.399 60.9431 689.295 60.9431C690.127 60.9431 690.805 61.3252 691.329 62.0894C691.911 62.79 692.262 63.7452 692.382 64.9553C692.617 67.3116 692.16 69.1585 691.013 70.4959C689.405 72.3428 687.451 73.935 685.152 75.2724C682.911 76.5461 680.446 77.1829 677.758 77.1829C674.366 77.1829 671.689 76.3232 669.726 74.6037C667.827 72.8842 666.732 70.5596 666.44 67.6301C666.345 66.6748 666.346 65.7195 666.443 64.7642C666.444 63.4905 666.423 62.6307 666.379 62.1849C666.277 61.166 665.875 60.6565 665.171 60.6565C664.211 60.6565 663.038 61.7391 661.654 63.9045C660.327 66.0061 659.069 68.8083 657.882 72.311C656.694 75.8137 655.814 79.5075 655.24 83.3923C654.834 86.3855 654.204 88.4235 653.352 89.5061C652.557 90.5251 651.168 91.0346 649.184 91.0346Z" />
<path d="M715.18 46.0406C716.652 46.0406 717.695 46.2317 718.309 46.6138C718.923 46.9959 719.275 47.6327 719.363 48.5243C719.515 50.0528 719.225 55.4979 718.492 64.8597C717.913 73.8394 717.578 79.1572 717.487 80.813C716.747 97.1803 714.772 110.14 711.562 119.693C708.352 129.246 703.291 134.022 696.379 134.022C693.115 134.022 690.358 133.004 688.107 130.966C685.863 128.991 684.579 126.38 684.256 123.132C683.958 120.139 684.326 117.082 685.36 113.961C686.457 110.841 688.66 107.243 691.966 103.167C695.343 99.1545 700.196 94.5373 706.524 89.3151L706.594 87.1179C706.808 84.7615 706.984 81.3862 707.123 76.9919C706.299 81.5773 704.855 85.08 702.792 87.5C700.722 89.8564 698.408 91.0346 695.848 91.0346C692.968 91.0346 690.47 89.729 688.354 87.1179C686.296 84.4431 685.071 81.1315 684.678 77.1829C684.203 72.4065 684.089 68.044 684.336 64.0955C684.577 60.0833 685.212 55.8482 686.24 51.3902C686.69 49.4796 687.45 48.1104 688.52 47.2825C689.59 46.4546 691.372 46.0406 693.868 46.0406C695.276 46.0406 696.259 46.2635 696.815 46.7093C697.435 47.1551 697.79 47.8238 697.878 48.7154C697.929 49.2249 697.748 50.9444 697.336 53.8739C696.93 56.2303 696.63 58.3638 696.436 60.2744C696.184 62.8855 695.986 65.4011 695.843 67.8211C695.693 70.1775 695.694 72.1199 695.846 73.6484C696.087 76.0684 696.879 77.2785 698.223 77.2785C699.183 77.2785 700.272 76.3232 701.49 74.4126C702.772 72.502 704.02 69.6043 705.234 65.7195C706.511 61.8347 707.636 57.0582 708.608 51.3902C708.93 49.4796 709.562 48.1104 710.504 47.2825C711.51 46.4546 713.068 46.0406 715.18 46.0406ZM696.513 124.756C698.113 124.756 699.722 122.909 701.338 119.216C702.955 115.522 704.328 109.376 705.457 100.779C700.94 104.918 697.73 108.676 695.826 112.051C693.992 115.49 693.202 118.483 693.455 121.031C693.563 122.113 693.843 123.005 694.297 123.705C694.815 124.406 695.553 124.756 696.513 124.756Z" />
<path d="M795.237 69.2541C796.069 69.2541 796.746 69.6362 797.271 70.4004C797.859 71.1646 798.219 72.2154 798.352 73.5528C798.605 76.1003 798.194 78.0745 797.117 79.4756C794.701 82.851 791.968 85.6213 788.92 87.7866C785.871 89.9519 782.235 91.0346 778.011 91.0346C764.955 91.0346 757.518 81.8957 755.7 63.6179C755.421 60.8157 755.235 57.9817 755.142 55.1158H751.398C749.478 55.1158 748.131 54.7655 747.358 54.065C746.648 53.3645 746.217 52.25 746.065 50.7215C745.711 47.1551 746.973 45.3719 749.853 45.3719H755.325C755.716 38.3665 756.744 31.966 758.407 26.1706C760.071 20.3752 762.3 15.758 765.094 12.319C767.952 8.87995 771.205 7.16043 774.853 7.16043C777.541 7.16043 779.77 8.33862 781.54 10.695C783.311 13.0514 784.373 16.0128 784.728 19.5792C785.71 29.4505 782.405 38.048 774.813 45.3719H785.565C786.589 45.3719 787.347 45.5948 787.84 46.0406C788.332 46.4864 788.638 47.3143 788.759 48.5243C789.196 52.9187 785.798 55.1158 778.566 55.1158H766.854C767.043 58.3001 767.226 60.7838 767.403 62.5671C768.062 69.1904 769.292 73.8394 771.095 76.5142C772.961 79.189 775.59 80.5264 778.982 80.5264C781.734 80.5264 784.083 79.6985 786.031 78.0427C787.978 76.3869 790.227 73.9031 792.777 70.5915C793.457 69.6999 794.277 69.2541 795.237 69.2541ZM773.173 16.3312C772.213 16.3312 771.245 17.5412 770.27 19.9613C769.352 22.3176 768.561 25.6293 767.898 29.8962C767.292 34.0995 766.894 38.7804 766.703 43.939C770.156 40.691 772.611 37.0609 774.067 33.0487C775.582 28.9728 776.175 25.279 775.845 21.9674C775.472 18.2099 774.581 16.3312 773.173 16.3312Z" />
<path d="M808.498 91.0346C804.722 91.0346 801.398 90.1111 798.527 88.2643C795.713 86.3537 793.482 83.8699 791.834 80.813C790.186 77.7561 789.187 74.4763 788.839 70.9736C788.358 66.1335 788.826 61.8347 790.244 58.0772C791.72 54.2561 793.922 51.2947 796.849 49.193C799.769 47.0277 803.182 45.9451 807.086 45.9451C810.862 45.9451 814.189 46.9004 817.067 48.8109C819.938 50.6578 822.198 53.1097 823.846 56.1666C825.494 59.2236 826.493 62.5034 826.841 66.0061C827.322 70.8462 826.825 75.1768 825.349 78.998C823.867 82.7554 821.633 85.7168 818.649 87.8821C815.722 89.9838 812.338 91.0346 808.498 91.0346ZM808.528 80.7175C810.704 80.7175 812.411 79.5393 813.649 77.1829C814.95 74.8266 815.376 71.3875 814.926 66.8658C814.578 63.3631 813.675 60.7202 812.218 58.937C810.76 57.1538 809.136 56.2622 807.344 56.2622C805.04 56.2622 803.237 57.4403 801.935 59.7967C800.691 62.0894 800.297 65.5284 800.754 70.1138C801.115 73.7439 802.021 76.4187 803.472 78.1382C804.923 79.8577 806.608 80.7175 808.528 80.7175Z" />
<path d="M914.502 69.2541C915.334 69.2541 916.012 69.6362 916.536 70.4004C917.124 71.1646 917.485 72.2154 917.618 73.5528C917.871 76.1003 917.46 78.0745 916.383 79.4756C913.851 82.9783 911.218 85.7805 908.483 87.8821C905.748 89.9838 902.365 91.0346 898.333 91.0346C893.405 91.0346 889.297 89.6335 886.01 86.8313C882.724 84.0292 880.849 80.3035 880.387 75.6545C880.14 73.1707 881.242 71.3875 883.695 70.3049C886.39 69.0948 888.28 67.8211 889.363 66.4837C890.439 65.0826 890.88 63.395 890.683 61.4207C890.569 60.2744 890.228 59.4146 889.659 58.8414C889.154 58.2683 888.549 57.9817 887.845 57.9817C886.117 57.9817 884.321 59.2235 882.456 61.7073C880.655 64.191 879.054 67.4072 877.655 71.3557C876.25 75.2405 875.241 79.2527 874.628 83.3923C874.222 86.3855 873.593 88.4235 872.741 89.5061C871.946 90.5251 870.557 91.0346 868.573 91.0346C866.589 91.0346 865.047 90.334 863.948 88.933C862.906 87.4682 862.076 85.2392 861.458 82.246C860.841 79.2527 860.244 74.8584 859.667 69.063C858.692 59.2554 858.667 49.0338 859.593 38.3983C860.583 27.7628 862.673 18.8468 865.861 11.6503C869.107 4.3901 873.482 0.76001 878.986 0.76001C881.93 0.76001 884.424 2.03373 886.47 4.58116C888.573 7.0649 889.824 10.3129 890.223 14.3251C890.863 20.7573 889.64 27.4444 886.554 34.3861C883.462 41.2642 878.12 49.3204 870.526 58.5549C870.663 61.8665 870.906 65.2737 871.255 68.7764C873.535 60.8157 876.482 55.0521 880.095 51.4857C883.702 47.8556 887.233 46.0406 890.689 46.0406C893.889 46.0406 896.557 47.1233 898.692 49.2886C900.892 51.4539 902.15 54.1287 902.467 57.313C902.815 60.8157 902.239 64.0318 900.738 66.9614C899.238 69.8909 896.425 72.502 892.301 74.7947C892.728 76.5142 893.636 77.9153 895.023 78.998C896.469 80.017 898.119 80.5264 899.975 80.5264C901.959 80.5264 903.803 79.7622 905.507 78.2337C907.211 76.7053 909.39 74.1579 912.043 70.5915C912.723 69.6999 913.542 69.2541 914.502 69.2541ZM877.91 10.2174C876.758 10.2174 875.643 11.8732 874.564 15.1848C873.479 18.4328 872.544 22.859 871.757 28.4633C871.028 34.004 870.574 40.0541 870.394 46.6138C873.9 41.9647 876.66 36.9017 878.676 31.4247C880.755 25.9477 881.573 20.9802 881.13 16.5222C880.927 14.4843 880.548 12.924 879.992 11.8413C879.436 10.7587 878.742 10.2174 877.91 10.2174Z" />
<path d="M918.434 91.0346C916.002 91.0346 914.147 89.7609 912.87 87.2134C911.657 84.666 910.771 80.5901 910.214 74.9858C909.39 66.7066 909.792 58.8414 911.419 51.3902C911.811 49.5433 912.606 48.2059 913.804 47.378C915.059 46.4864 916.871 46.0406 919.239 46.0406C920.519 46.0406 921.431 46.1998 921.974 46.5182C922.518 46.8367 922.834 47.4417 922.923 48.3333C923.024 49.3523 922.772 51.6449 922.167 55.2113C921.78 57.7588 921.49 59.9878 921.296 61.8983C921.102 63.8089 921.017 66.1653 921.039 68.9675C922.606 63.4905 924.531 59.0325 926.813 55.5935C929.095 52.1544 931.411 49.7025 933.761 48.2378C936.176 46.773 938.439 46.0406 940.551 46.0406C944.711 46.0406 946.997 48.1104 947.408 52.25C947.655 54.7337 947.398 59.2235 946.636 65.7195C945.971 71.2602 945.727 74.9221 945.905 76.7053C946.158 79.2527 947.213 80.5264 949.069 80.5264C950.349 80.5264 951.777 79.7622 953.353 78.2337C954.987 76.6416 957.101 74.0942 959.697 70.5915C960.376 69.6999 961.196 69.2541 962.156 69.2541C962.988 69.2541 963.666 69.6362 964.19 70.4004C964.778 71.1646 965.138 72.2154 965.271 73.5528C965.525 76.1003 965.113 78.0745 964.036 79.4756C961.62 82.851 958.92 85.6213 955.935 87.7866C953.014 89.9519 949.538 91.0346 945.506 91.0346C942.242 91.0346 939.686 90.1111 937.838 88.2643C935.984 86.3537 934.88 83.6152 934.525 80.0488C934.348 78.2656 934.479 75.0813 934.919 70.4959C935.352 66.4837 935.493 63.7134 935.341 62.1849C935.239 61.166 934.837 60.6565 934.133 60.6565C933.301 60.6565 932.224 61.7391 930.904 63.9045C929.641 66.0061 928.383 68.8083 927.132 72.311C925.944 75.8137 925.064 79.5075 924.49 83.3923C924.084 86.3855 923.454 88.4235 922.602 89.5061C921.807 90.5251 920.418 91.0346 918.434 91.0346Z" />
<path d="M1005.24 61.2297C1006.07 61.2297 1006.75 61.6436 1007.28 62.4715C1007.81 63.2994 1008.14 64.3503 1008.27 65.624C1008.57 68.6809 1007.82 70.4959 1006.03 71.0691C1002.32 72.4065 998.17 73.1707 993.581 73.3618C992.897 78.7114 990.925 83.0102 987.664 86.2582C984.397 89.4424 980.491 91.0346 975.947 91.0346C972.107 91.0346 968.719 90.1111 965.784 88.2643C962.912 86.4174 960.62 83.9655 958.908 80.9086C957.196 77.8516 956.163 74.54 955.808 70.9736C955.326 66.1335 955.827 61.8347 957.309 58.0772C958.785 54.2561 961.05 51.2947 964.105 49.193C967.154 47.0277 970.662 45.9451 974.63 45.9451C979.494 45.9451 983.566 47.6327 986.846 51.0081C990.183 54.3197 992.352 58.4275 993.352 63.3313C996.341 63.1402 999.861 62.5034 1003.91 61.4207C1004.41 61.2933 1004.85 61.2297 1005.24 61.2297ZM975.708 80.9086C977.756 80.9086 979.434 80.0806 980.741 78.4248C982.112 76.769 982.899 74.3808 983.1 71.2602C980.983 69.9228 979.273 68.1714 977.97 66.0061C976.73 63.8408 975.99 61.5481 975.75 59.128C975.648 58.109 975.643 57.0901 975.734 56.0711H975.254C972.694 56.0711 970.673 57.313 969.192 59.7967C967.769 62.2168 967.279 65.6558 967.722 70.1138C968.071 73.6165 969.009 76.2913 970.536 78.1382C972.128 79.9851 973.852 80.9086 975.708 80.9086Z" />
<path d="M1056.51 45.9451C1060.03 45.9451 1061.9 47.0596 1062.12 49.2886C1062.2 50.0528 1062.05 51.1036 1061.67 52.441C1057.68 64.4776 1053.75 74.1897 1049.88 81.5773C1047.94 85.2073 1046.1 87.6911 1044.38 89.0285C1042.66 90.3659 1040.61 91.0346 1038.25 91.0346C1035.69 91.0346 1033.67 90.0475 1032.19 88.0732C1030.78 86.0989 1029.69 82.851 1028.92 78.3293C1028.62 76.6734 1028.25 74.1897 1027.79 70.878C1026.35 76.355 1024.95 80.5583 1023.57 83.4878C1022.26 86.3537 1020.86 88.3279 1019.36 89.4106C1017.94 90.4933 1016.13 91.0346 1013.96 91.0346C1011.33 91.0346 1009.15 90.0156 1007.41 87.9777C1005.74 85.9397 1004.49 82.7236 1003.67 78.3293C1002.01 69.4133 1000.85 61.6118 1000.19 54.9248L999.857 51.5813C999.706 49.4159 1000.1 47.9512 1001.05 47.1869C1001.99 46.359 1003.62 45.9451 1005.92 45.9451C1007.58 45.9451 1008.84 46.3272 1009.68 47.0914C1010.58 47.792 1011.12 49.002 1011.29 50.7215C1012.02 58.0454 1013.41 67.5664 1015.48 79.2846C1017.14 74.8266 1018.67 70.5596 1020.06 66.4837C1021.45 62.4078 1023.01 57.1856 1024.74 50.817C1025.25 48.9065 1025.96 47.6327 1026.86 46.9959C1027.81 46.2953 1028.96 45.9451 1030.3 45.9451C1032.1 45.9451 1033.48 46.3272 1034.45 47.0914C1035.42 47.792 1035.98 49.002 1036.16 50.7215L1037.63 65.5284C1038.26 71.897 1038.75 76.4824 1039.09 79.2846C1041.53 74.1897 1043.49 69.7635 1044.97 66.0061C1046.52 62.2486 1048.16 57.1856 1049.89 50.817C1050.41 48.9065 1051.21 47.6327 1052.3 46.9959C1053.38 46.2953 1054.78 45.9451 1056.51 45.9451Z" />
<path d="M1072.58 33.7174C1071.17 33.7174 1070.02 33.399 1069.12 32.7621C1068.23 32.1253 1067.71 31.1063 1067.57 29.7052C1067.51 29.132 1067.54 28.4633 1067.66 27.6991C1068.07 24.7695 1068.31 22.0629 1068.39 19.5792C1068.52 17.0954 1068.44 14.3251 1068.14 11.2682C1067.82 8.08387 1068.31 5.63197 1069.61 3.91245C1070.98 2.19294 1072.84 1.33319 1075.21 1.33319C1077.52 1.33319 1079.31 1.97004 1080.59 3.24376C1081.92 4.45379 1082.7 6.10962 1082.9 8.21125C1083.13 10.4402 1082.75 13.4016 1081.77 17.0954C1080.8 20.7892 1079.52 24.3874 1077.95 27.8902C1076.9 30.2465 1076.04 31.8068 1075.34 32.5711C1074.72 33.3353 1073.79 33.7174 1072.58 33.7174ZM1093.7 33.7174C1092.29 33.7174 1091.14 33.399 1090.24 32.7621C1089.35 32.1253 1088.83 31.1063 1088.69 29.7052C1088.63 29.132 1088.66 28.4633 1088.78 27.6991C1089.19 24.7695 1089.43 22.0629 1089.51 19.5792C1089.64 17.0954 1089.56 14.3251 1089.26 11.2682C1088.94 8.08387 1089.43 5.63197 1090.73 3.91245C1092.1 2.19294 1093.96 1.33319 1096.33 1.33319C1098.64 1.33319 1100.43 1.97004 1101.71 3.24376C1103.04 4.45379 1103.82 6.10962 1104.02 8.21125C1104.25 10.4402 1103.87 13.4016 1102.89 17.0954C1101.92 20.7892 1100.64 24.3874 1099.07 27.8902C1098.02 30.2465 1097.16 31.8068 1096.46 32.5711C1095.84 33.3353 1094.91 33.7174 1093.7 33.7174Z" />
</svg>
