<svg class="quote" aria-hidden="true" role="presentation" viewBox="0 0 1107 135" fill="none" xmlns="http://www.w3.org/2000/svg">
<path d="M7.896 33.88C5.592 33.88 3.832 33.272 2.616 32.056C1.464 30.776 0.888 29.08 0.888 26.968C0.888 24.728 1.56 21.752 2.904 18.04C4.248 14.328 5.88 10.712 7.8 7.19201C9.08 4.82401 10.072 3.25601 10.776 2.48801C11.544 1.72001 12.536 1.33601 13.752 1.33601C15.16 1.33601 16.28 1.65601 17.112 2.29601C17.944 2.93601 18.36 3.96001 18.36 5.36801C18.36 5.94401 18.264 6.61601 18.072 7.38401C17.368 10.328 16.824 13.048 16.44 15.544C16.12 18.04 15.96 20.824 15.96 23.896C15.96 27.096 15.192 29.56 13.656 31.288C12.184 33.016 10.264 33.88 7.896 33.88ZM29.016 33.88C26.712 33.88 24.952 33.272 23.736 32.056C22.584 30.776 22.008 29.08 22.008 26.968C22.008 24.728 22.68 21.752 24.024 18.04C25.368 14.328 27 10.712 28.92 7.19201C30.2 4.82401 31.192 3.25601 31.896 2.48801C32.664 1.72001 33.656 1.33601 34.872 1.33601C36.28 1.33601 37.4 1.65601 38.232 2.29601C39.064 2.93601 39.48 3.96001 39.48 5.36801C39.48 5.94401 39.384 6.61601 39.192 7.38401C38.488 10.328 37.944 13.048 37.56 15.544C37.24 18.04 37.08 20.824 37.08 23.896C37.08 27.096 36.312 29.56 34.776 31.288C33.304 33.016 31.384 33.88 29.016 33.88Z" />
<path d="M46.299 91.48C43.867 91.48 42.139 90.2 41.115 87.64C40.155 85.08 39.675 80.984 39.675 75.352C39.675 67.032 40.859 59.128 43.227 51.64C43.803 49.784 44.731 48.44 46.011 47.608C47.355 46.712 49.211 46.264 51.579 46.264C52.859 46.264 53.755 46.424 54.267 46.744C54.779 47.064 55.035 47.672 55.035 48.568C55.035 49.592 54.555 51.896 53.595 55.48C52.955 58.04 52.443 60.28 52.059 62.2C51.675 64.12 51.355 66.488 51.099 69.304C53.211 63.8 55.579 59.32 58.203 55.864C60.827 52.408 63.387 49.944 65.883 48.472C68.443 47 70.779 46.264 72.891 46.264C77.051 46.264 79.131 48.344 79.131 52.504C79.131 53.336 78.843 55.352 78.267 58.552C77.755 61.112 77.499 62.712 77.499 63.352C77.499 65.592 78.299 66.712 79.899 66.712C81.691 66.712 83.995 65.304 86.811 62.488C87.643 61.656 88.507 61.24 89.403 61.24C90.235 61.24 90.875 61.624 91.323 62.392C91.835 63.096 92.091 64.056 92.091 65.272C92.091 67.64 91.451 69.496 90.171 70.84C88.379 72.696 86.267 74.296 83.835 75.64C81.467 76.92 78.939 77.56 76.251 77.56C72.859 77.56 70.267 76.696 68.475 74.968C66.747 73.24 65.883 70.904 65.883 67.96C65.883 67 65.979 66.04 66.171 65.08C66.299 63.8 66.363 62.936 66.363 62.488C66.363 61.464 66.011 60.952 65.307 60.952C64.347 60.952 63.067 62.04 61.467 64.216C59.931 66.328 58.395 69.144 56.859 72.664C55.323 76.184 54.075 79.896 53.115 83.8C52.411 86.808 51.579 88.856 50.619 89.944C49.723 90.968 48.283 91.48 46.299 91.48Z" />
<path d="M125.987 69.592C126.819 69.592 127.459 69.976 127.907 70.744C128.419 71.512 128.674 72.568 128.674 73.912C128.674 76.472 128.067 78.456 126.851 79.864C124.483 82.744 121.122 85.4 116.771 87.832C112.483 90.264 107.875 91.48 102.947 91.48C96.2265 91.48 91.0105 89.656 87.2985 86.008C83.5865 82.36 81.7305 77.368 81.7305 71.032C81.7305 66.616 82.6585 62.52 84.5145 58.744C86.3705 54.904 88.9305 51.864 92.1945 49.624C95.5225 47.384 99.2665 46.264 103.426 46.264C107.138 46.264 110.114 47.384 112.354 49.624C114.594 51.8 115.715 54.776 115.715 58.552C115.715 62.968 114.114 66.776 110.914 69.976C107.778 73.112 102.435 75.608 94.8825 77.464C96.4825 80.408 99.5225 81.88 104.003 81.88C106.883 81.88 110.147 80.888 113.795 78.904C117.507 76.856 120.707 74.2 123.395 70.936C124.163 70.04 125.027 69.592 125.987 69.592ZM101.795 55.672C99.4265 55.672 97.4105 57.048 95.7465 59.8C94.1465 62.552 93.3465 65.88 93.3465 69.784V69.976C97.1225 69.08 100.098 67.736 102.274 65.944C104.45 64.152 105.538 62.072 105.538 59.704C105.538 58.488 105.186 57.528 104.482 56.824C103.842 56.056 102.947 55.672 101.795 55.672Z" />
<path d="M132.197 91.48C128.229 91.48 125.061 90.04 122.693 87.16C120.325 84.28 119.141 80.504 119.141 75.832C119.141 70.712 120.325 65.88 122.693 61.336C125.061 56.728 128.197 53.048 132.101 50.296C136.069 47.48 140.261 46.072 144.677 46.072C146.085 46.072 147.013 46.36 147.461 46.936C147.973 47.448 148.389 48.408 148.709 49.816C150.053 49.56 151.461 49.432 152.933 49.432C156.069 49.432 157.637 50.552 157.637 52.792C157.637 54.136 157.157 57.336 156.197 62.392C154.725 69.752 153.989 74.872 153.989 77.752C153.989 78.712 154.213 79.48 154.661 80.056C155.173 80.632 155.813 80.92 156.581 80.92C157.797 80.92 159.269 80.152 160.997 78.616C162.725 77.016 165.061 74.456 168.005 70.936C168.773 70.04 169.637 69.592 170.597 69.592C171.429 69.592 172.069 69.976 172.517 70.744C173.029 71.512 173.285 72.568 173.285 73.912C173.285 76.472 172.677 78.456 171.461 79.864C168.837 83.128 166.053 85.88 163.109 88.12C160.165 90.36 157.317 91.48 154.565 91.48C152.453 91.48 150.501 90.776 148.709 89.368C146.981 87.896 145.669 85.912 144.773 83.416C141.445 88.792 137.253 91.48 132.197 91.48ZM135.653 81.784C137.061 81.784 138.405 80.952 139.685 79.288C140.965 77.624 141.893 75.416 142.469 72.664L146.021 55C143.333 55.064 140.837 56.088 138.533 58.072C136.293 59.992 134.501 62.552 133.157 65.752C131.813 68.952 131.141 72.344 131.141 75.928C131.141 77.912 131.525 79.384 132.293 80.344C133.125 81.304 134.245 81.784 135.653 81.784Z" />
<path d="M200.427 69.592C201.131 74.84 202.155 80.024 203.499 85.144C203.755 85.976 203.883 86.84 203.883 87.736C203.883 90.616 202.123 92.056 198.603 92.056C196.619 92.056 195.083 91.512 193.995 90.424C192.971 89.336 192.011 87.288 191.115 84.28L191.019 83.896C188.587 86.904 186.379 88.92 184.395 89.944C182.475 90.968 180.235 91.48 177.675 91.48C173.771 91.48 170.539 90.04 167.979 87.16C165.483 84.216 164.235 80.408 164.235 75.736C164.235 70.616 165.323 65.88 167.499 61.528C169.675 57.176 172.651 53.624 176.427 50.872C180.203 48.056 184.427 46.36 189.099 45.784C190.315 33.688 192.619 23.16 196.011 14.2C199.467 5.24001 204.043 0.76001 209.739 0.76001C212.491 0.76001 214.763 2.00801 216.555 4.50401C218.411 7.00001 219.339 10.776 219.339 15.832C219.339 22.872 217.611 31.096 214.155 40.504C210.699 49.912 206.123 59.608 200.427 69.592ZM208.683 10.168C206.827 10.168 205.067 14.904 203.403 24.376C201.803 33.848 200.715 44.152 200.139 55.288C207.243 39.928 210.795 27.448 210.795 17.848C210.795 15.416 210.571 13.528 210.123 12.184C209.739 10.84 209.259 10.168 208.683 10.168ZM181.035 81.784C182.315 81.784 183.531 81.304 184.683 80.344C185.899 79.384 187.435 77.528 189.291 74.776C188.651 70.104 188.331 65.272 188.331 60.28C188.331 58.296 188.363 56.76 188.427 55.672C184.907 56.696 181.995 59.032 179.691 62.68C177.387 66.328 176.235 70.36 176.235 74.776C176.235 79.448 177.835 81.784 181.035 81.784Z" />
<path d="M281.049 69.592C281.881 69.592 282.521 69.976 282.969 70.744C283.481 71.512 283.737 72.568 283.737 73.912C283.737 76.472 283.129 78.456 281.913 79.864C279.161 83.256 276.153 86.04 272.889 88.216C269.625 90.392 265.881 91.48 261.657 91.48C248.601 91.48 242.073 82.296 242.073 63.928C242.073 61.112 242.169 58.264 242.361 55.384H238.617C236.697 55.384 235.385 55.032 234.681 54.328C234.041 53.624 233.721 52.504 233.721 50.968C233.721 47.384 235.161 45.592 238.041 45.592H243.513C244.601 38.552 246.265 32.12 248.505 26.296C250.745 20.472 253.433 15.832 256.569 12.376C259.769 8.92001 263.193 7.19201 266.841 7.19201C269.529 7.19201 271.641 8.37601 273.177 10.744C274.713 13.112 275.481 16.088 275.481 19.672C275.481 29.592 271.321 38.232 263.001 45.592H273.753C274.777 45.592 275.513 45.816 275.961 46.264C276.409 46.712 276.633 47.544 276.633 48.76C276.633 53.176 273.017 55.384 265.785 55.384H254.073C253.945 58.584 253.881 61.08 253.881 62.872C253.881 69.528 254.649 74.2 256.185 76.888C257.785 79.576 260.281 80.92 263.673 80.92C266.425 80.92 268.857 80.088 270.969 78.424C273.081 76.76 275.577 74.264 278.457 70.936C279.225 70.04 280.089 69.592 281.049 69.592ZM264.249 16.408C263.289 16.408 262.201 17.624 260.985 20.056C259.833 22.424 258.713 25.752 257.625 30.04C256.601 34.264 255.737 38.968 255.033 44.152C258.809 40.888 261.625 37.24 263.481 33.208C265.401 29.112 266.361 25.4 266.361 22.072C266.361 18.296 265.657 16.408 264.249 16.408Z" />
<path d="M292.145 91.48C288.369 91.48 285.136 90.552 282.448 88.696C279.824 86.776 277.84 84.28 276.496 81.208C275.152 78.136 274.48 74.84 274.48 71.32C274.48 66.456 275.376 62.136 277.168 58.36C279.024 54.52 281.52 51.544 284.656 49.432C287.792 47.256 291.312 46.168 295.216 46.168C298.992 46.168 302.225 47.128 304.913 49.048C307.601 50.904 309.617 53.368 310.961 56.44C312.305 59.512 312.977 62.808 312.977 66.328C312.977 71.192 312.049 75.544 310.193 79.384C308.337 83.16 305.808 86.136 302.608 88.312C299.472 90.424 295.985 91.48 292.145 91.48ZM293.201 81.112C295.377 81.112 297.201 79.928 298.673 77.56C300.209 75.192 300.977 71.736 300.977 67.192C300.977 63.672 300.336 61.016 299.056 59.224C297.776 57.432 296.24 56.536 294.448 56.536C292.144 56.536 290.225 57.72 288.689 60.088C287.217 62.392 286.48 65.848 286.48 70.456C286.48 74.104 287.121 76.792 288.401 78.52C289.681 80.248 291.281 81.112 293.201 81.112Z" />
<path d="M381.211 69.592C382.043 69.592 382.683 69.976 383.131 70.744C383.643 71.512 383.899 72.568 383.899 73.912C383.899 76.472 383.291 78.456 382.075 79.864C379.323 83.256 376.315 86.04 373.051 88.216C369.851 90.392 366.203 91.48 362.107 91.48C356.475 91.48 352.283 88.92 349.531 83.8C346.843 78.68 345.499 72.056 345.499 63.928C345.499 56.12 346.491 47.224 348.475 37.24C350.523 27.256 353.499 18.68 357.403 11.512C361.371 4.34401 366.075 0.76001 371.515 0.76001C374.587 0.76001 376.987 2.20001 378.715 5.08001C380.507 7.89601 381.403 11.96 381.403 17.272C381.403 24.888 379.291 33.72 375.067 43.768C370.843 53.816 365.115 63.768 357.883 73.624C358.331 76.248 359.067 78.136 360.091 79.288C361.115 80.376 362.459 80.92 364.123 80.92C366.747 80.92 369.051 80.184 371.035 78.712C373.019 77.176 375.547 74.584 378.619 70.936C379.387 70.04 380.251 69.592 381.211 69.592ZM369.403 10.264C367.931 10.264 366.267 12.92 364.411 18.232C362.555 23.544 360.923 30.136 359.515 38.008C358.107 45.88 357.339 53.432 357.211 60.664C361.755 53.176 365.371 45.688 368.059 38.2C370.747 30.648 372.091 23.768 372.091 17.56C372.091 12.696 371.195 10.264 369.403 10.264Z" />
<path d="M418.955 69.592C419.787 69.592 420.427 69.976 420.875 70.744C421.387 71.512 421.643 72.568 421.643 73.912C421.643 76.472 421.035 78.456 419.819 79.864C417.451 82.744 414.091 85.4 409.739 87.832C405.451 90.264 400.843 91.48 395.915 91.48C389.195 91.48 383.979 89.656 380.267 86.008C376.555 82.36 374.699 77.368 374.699 71.032C374.699 66.616 375.627 62.52 377.483 58.744C379.339 54.904 381.899 51.864 385.163 49.624C388.491 47.384 392.235 46.264 396.395 46.264C400.107 46.264 403.083 47.384 405.323 49.624C407.563 51.8 408.683 54.776 408.683 58.552C408.683 62.968 407.083 66.776 403.883 69.976C400.747 73.112 395.403 75.608 387.851 77.464C389.451 80.408 392.491 81.88 396.971 81.88C399.851 81.88 403.115 80.888 406.763 78.904C410.475 76.856 413.675 74.2 416.363 70.936C417.131 70.04 417.995 69.592 418.955 69.592ZM394.763 55.672C392.395 55.672 390.379 57.048 388.715 59.8C387.115 62.552 386.315 65.88 386.315 69.784V69.976C390.091 69.08 393.067 67.736 395.243 65.944C397.419 64.152 398.507 62.072 398.507 59.704C398.507 58.488 398.155 57.528 397.451 56.824C396.811 56.056 395.915 55.672 394.763 55.672Z" />
<path d="M425.166 91.48C421.198 91.48 418.03 90.04 415.662 87.16C413.294 84.28 412.11 80.504 412.11 75.832C412.11 70.712 413.294 65.88 415.662 61.336C418.03 56.728 421.166 53.048 425.07 50.296C429.038 47.48 433.23 46.072 437.646 46.072C439.054 46.072 439.982 46.36 440.43 46.936C440.942 47.448 441.358 48.408 441.678 49.816C443.022 49.56 444.43 49.432 445.902 49.432C449.038 49.432 450.606 50.552 450.606 52.792C450.606 54.136 450.126 57.336 449.166 62.392C447.694 69.752 446.958 74.872 446.958 77.752C446.958 78.712 447.182 79.48 447.63 80.056C448.142 80.632 448.782 80.92 449.55 80.92C450.766 80.92 452.238 80.152 453.966 78.616C455.694 77.016 458.03 74.456 460.974 70.936C461.742 70.04 462.606 69.592 463.566 69.592C464.398 69.592 465.038 69.976 465.486 70.744C465.998 71.512 466.254 72.568 466.254 73.912C466.254 76.472 465.646 78.456 464.43 79.864C461.806 83.128 459.022 85.88 456.078 88.12C453.134 90.36 450.286 91.48 447.534 91.48C445.422 91.48 443.47 90.776 441.678 89.368C439.95 87.896 438.638 85.912 437.742 83.416C434.414 88.792 430.222 91.48 425.166 91.48ZM428.622 81.784C430.03 81.784 431.374 80.952 432.654 79.288C433.934 77.624 434.862 75.416 435.438 72.664L438.99 55C436.302 55.064 433.806 56.088 431.502 58.072C429.262 59.992 427.47 62.552 426.126 65.752C424.782 68.952 424.11 72.344 424.11 75.928C424.11 77.912 424.494 79.384 425.262 80.344C426.094 81.304 427.214 81.784 428.622 81.784Z" />
<path d="M465.268 91.48C462.836 91.48 461.108 90.2 460.084 87.64C459.124 85.08 458.644 80.984 458.644 75.352C458.644 67.032 459.828 59.128 462.196 51.64C462.772 49.784 463.7 48.44 464.98 47.608C466.324 46.712 468.18 46.264 470.548 46.264C471.828 46.264 472.724 46.424 473.236 46.744C473.748 47.064 474.004 47.672 474.004 48.568C474.004 49.592 473.524 51.896 472.564 55.48C471.924 58.04 471.412 60.28 471.028 62.2C470.644 64.12 470.324 66.488 470.068 69.304C472.18 63.8 474.548 59.32 477.172 55.864C479.796 52.408 482.356 49.944 484.852 48.472C487.412 47 489.748 46.264 491.86 46.264C496.02 46.264 498.1 48.344 498.1 52.504C498.1 53.336 497.812 55.352 497.236 58.552C496.724 61.112 496.468 62.712 496.468 63.352C496.468 65.592 497.268 66.712 498.868 66.712C500.66 66.712 502.964 65.304 505.78 62.488C506.612 61.656 507.476 61.24 508.372 61.24C509.204 61.24 509.844 61.624 510.292 62.392C510.804 63.096 511.06 64.056 511.06 65.272C511.06 67.64 510.42 69.496 509.14 70.84C507.348 72.696 505.236 74.296 502.804 75.64C500.436 76.92 497.908 77.56 495.22 77.56C491.828 77.56 489.236 76.696 487.444 74.968C485.716 73.24 484.852 70.904 484.852 67.96C484.852 67 484.948 66.04 485.14 65.08C485.268 63.8 485.332 62.936 485.332 62.488C485.332 61.464 484.98 60.952 484.276 60.952C483.316 60.952 482.036 62.04 480.436 64.216C478.9 66.328 477.364 69.144 475.828 72.664C474.292 76.184 473.044 79.896 472.084 83.8C471.38 86.808 470.548 88.856 469.588 89.944C468.692 90.968 467.252 91.48 465.268 91.48Z" />
<path d="M508.955 91.48C506.523 91.48 504.795 90.2 503.771 87.64C502.811 85.08 502.331 80.984 502.331 75.352C502.331 67.032 503.515 59.128 505.883 51.64C506.459 49.784 507.387 48.44 508.667 47.608C510.011 46.712 511.867 46.264 514.235 46.264C515.515 46.264 516.411 46.424 516.923 46.744C517.435 47.064 517.691 47.672 517.691 48.568C517.691 49.592 517.211 51.896 516.251 55.48C515.611 58.04 515.099 60.28 514.715 62.2C514.331 64.12 514.011 66.488 513.755 69.304C515.867 63.8 518.235 59.32 520.859 55.864C523.483 52.408 526.043 49.944 528.539 48.472C531.099 47 533.435 46.264 535.547 46.264C537.595 46.264 539.131 46.808 540.155 47.896C541.243 48.92 541.787 50.456 541.787 52.504C541.787 54.168 541.435 57.304 540.731 61.912C540.091 65.816 539.579 69.528 539.195 73.048C538.811 76.504 538.619 80.376 538.619 84.664C538.619 87.096 538.107 88.856 537.083 89.944C536.123 90.968 534.523 91.48 532.283 91.48C530.171 91.48 528.635 90.936 527.675 89.848C526.715 88.76 526.235 87.128 526.235 84.952C526.235 82.392 526.683 78.168 527.579 72.28C528.347 67.16 528.731 63.896 528.731 62.488C528.731 61.464 528.379 60.952 527.675 60.952C526.843 60.952 525.659 62.04 524.123 64.216C522.651 66.328 521.115 69.144 519.515 72.664C517.979 76.184 516.731 79.896 515.771 83.8C515.067 86.808 514.235 88.856 513.275 89.944C512.379 90.968 510.939 91.48 508.955 91.48Z" />
<path d="M550.175 106.168C548.767 106.168 547.647 105.848 546.815 105.208C545.983 104.568 545.567 103.544 545.567 102.136C545.567 101.56 545.663 100.888 545.855 100.12C546.559 97.176 547.071 94.456 547.391 91.96C547.775 89.464 547.967 86.68 547.967 83.608C547.967 80.408 548.703 77.944 550.175 76.216C551.711 74.488 553.663 73.624 556.031 73.624C558.335 73.624 560.063 74.264 561.215 75.544C562.431 76.76 563.039 78.424 563.039 80.536C563.039 82.776 562.367 85.752 561.023 89.464C559.679 93.176 558.047 96.792 556.127 100.312C554.847 102.68 553.823 104.248 553.055 105.016C552.351 105.784 551.391 106.168 550.175 106.168Z" />
<path d="M641.518 69.592C642.35 69.592 642.99 69.976 643.438 70.744C643.95 71.512 644.206 72.568 644.206 73.912C644.206 76.472 643.598 78.456 642.382 79.864C639.63 83.256 636.622 86.04 633.358 88.216C630.094 90.392 626.35 91.48 622.126 91.48C609.07 91.48 602.542 82.296 602.542 63.928C602.542 61.112 602.638 58.264 602.83 55.384H599.086C597.166 55.384 595.854 55.032 595.15 54.328C594.51 53.624 594.19 52.504 594.19 50.968C594.19 47.384 595.63 45.592 598.51 45.592H603.982C605.07 38.552 606.734 32.12 608.974 26.296C611.214 20.472 613.902 15.832 617.038 12.376C620.238 8.92001 623.662 7.19201 627.31 7.19201C629.998 7.19201 632.11 8.37601 633.646 10.744C635.182 13.112 635.95 16.088 635.95 19.672C635.95 29.592 631.79 38.232 623.47 45.592H634.222C635.246 45.592 635.982 45.816 636.43 46.264C636.878 46.712 637.102 47.544 637.102 48.76C637.102 53.176 633.486 55.384 626.254 55.384H614.542C614.414 58.584 614.35 61.08 614.35 62.872C614.35 69.528 615.118 74.2 616.654 76.888C618.254 79.576 620.75 80.92 624.142 80.92C626.894 80.92 629.326 80.088 631.438 78.424C633.55 76.76 636.046 74.264 638.926 70.936C639.694 70.04 640.558 69.592 641.518 69.592ZM624.718 16.408C623.758 16.408 622.67 17.624 621.454 20.056C620.302 22.424 619.182 25.752 618.094 30.04C617.07 34.264 616.206 38.968 615.502 44.152C619.278 40.888 622.094 37.24 623.95 33.208C625.87 29.112 626.83 25.4 626.83 22.072C626.83 18.296 626.126 16.408 624.718 16.408Z" />
<path d="M643.205 91.48C640.773 91.48 639.045 90.2 638.021 87.64C637.061 85.08 636.581 80.984 636.581 75.352C636.581 67.032 637.765 59.128 640.133 51.64C640.709 49.784 641.637 48.44 642.917 47.608C644.261 46.712 646.117 46.264 648.485 46.264C649.765 46.264 650.661 46.424 651.173 46.744C651.685 47.064 651.941 47.672 651.941 48.568C651.941 49.592 651.461 51.896 650.501 55.48C649.861 58.04 649.349 60.28 648.965 62.2C648.581 64.12 648.261 66.488 648.005 69.304C650.117 63.8 652.485 59.32 655.109 55.864C657.733 52.408 660.293 49.944 662.789 48.472C665.349 47 667.685 46.264 669.797 46.264C673.957 46.264 676.037 48.344 676.037 52.504C676.037 53.336 675.749 55.352 675.173 58.552C674.661 61.112 674.405 62.712 674.405 63.352C674.405 65.592 675.205 66.712 676.805 66.712C678.597 66.712 680.901 65.304 683.717 62.488C684.549 61.656 685.413 61.24 686.309 61.24C687.141 61.24 687.781 61.624 688.229 62.392C688.741 63.096 688.997 64.056 688.997 65.272C688.997 67.64 688.357 69.496 687.077 70.84C685.285 72.696 683.173 74.296 680.741 75.64C678.373 76.92 675.845 77.56 673.157 77.56C669.765 77.56 667.173 76.696 665.381 74.968C663.653 73.24 662.789 70.904 662.789 67.96C662.789 67 662.885 66.04 663.077 65.08C663.205 63.8 663.269 62.936 663.269 62.488C663.269 61.464 662.917 60.952 662.213 60.952C661.253 60.952 659.973 62.04 658.373 64.216C656.837 66.328 655.301 69.144 653.765 72.664C652.229 76.184 650.981 79.896 650.021 83.8C649.317 86.808 648.485 88.856 647.525 89.944C646.629 90.968 645.189 91.48 643.205 91.48Z" />
<path d="M713.677 46.264C715.149 46.264 716.173 46.456 716.749 46.84C717.325 47.224 717.613 47.864 717.613 48.76C717.613 50.296 716.781 55.768 715.117 65.176C713.645 74.2 712.781 79.544 712.525 81.208C710.157 97.656 706.893 110.68 702.733 120.28C698.573 129.88 693.037 134.68 686.125 134.68C682.861 134.68 680.205 133.656 678.157 131.608C676.109 129.624 675.085 127 675.085 123.736C675.085 120.728 675.757 117.656 677.101 114.52C678.509 111.384 681.069 107.768 684.781 103.672C688.557 99.64 693.869 95 700.717 89.752L701.005 87.544C701.453 85.176 701.965 81.784 702.541 77.368C701.261 81.976 699.469 85.496 697.165 87.928C694.861 90.296 692.429 91.48 689.869 91.48C686.989 91.48 684.621 90.168 682.765 87.544C680.973 84.856 680.077 81.528 680.077 77.56C680.077 72.76 680.397 68.376 681.037 64.408C681.677 60.376 682.733 56.12 684.205 51.64C684.845 49.72 685.741 48.344 686.893 47.512C688.045 46.68 689.869 46.264 692.365 46.264C693.773 46.264 694.733 46.488 695.245 46.936C695.821 47.384 696.109 48.056 696.109 48.952C696.109 49.464 695.757 51.192 695.053 54.136C694.413 56.504 693.901 58.648 693.517 60.568C693.005 63.192 692.557 65.72 692.173 68.152C691.789 70.52 691.597 72.472 691.597 74.008C691.597 76.44 692.269 77.656 693.613 77.656C694.573 77.656 695.757 76.696 697.165 74.776C698.637 72.856 700.173 69.944 701.773 66.04C703.437 62.136 705.037 57.336 706.573 51.64C707.085 49.72 707.853 48.344 708.877 47.512C709.965 46.68 711.565 46.264 713.677 46.264ZM687.181 125.368C688.781 125.368 690.573 123.512 692.557 119.8C694.541 116.088 696.525 109.912 698.509 101.272C693.581 105.432 689.997 109.208 687.757 112.6C685.581 116.056 684.493 119.064 684.493 121.624C684.493 122.712 684.685 123.608 685.069 124.312C685.517 125.016 686.221 125.368 687.181 125.368Z" />
<path d="M791.424 69.592C792.256 69.592 792.896 69.976 793.344 70.744C793.856 71.512 794.112 72.568 794.112 73.912C794.112 76.472 793.504 78.456 792.288 79.864C789.536 83.256 786.528 86.04 783.264 88.216C780 90.392 776.256 91.48 772.032 91.48C758.976 91.48 752.448 82.296 752.448 63.928C752.448 61.112 752.544 58.264 752.736 55.384H748.992C747.072 55.384 745.76 55.032 745.056 54.328C744.416 53.624 744.096 52.504 744.096 50.968C744.096 47.384 745.536 45.592 748.416 45.592H753.888C754.976 38.552 756.64 32.12 758.88 26.296C761.12 20.472 763.808 15.832 766.944 12.376C770.144 8.92001 773.568 7.19201 777.216 7.19201C779.904 7.19201 782.016 8.37601 783.552 10.744C785.088 13.112 785.856 16.088 785.856 19.672C785.856 29.592 781.696 38.232 773.376 45.592H784.128C785.152 45.592 785.888 45.816 786.336 46.264C786.784 46.712 787.008 47.544 787.008 48.76C787.008 53.176 783.392 55.384 776.16 55.384H764.448C764.32 58.584 764.256 61.08 764.256 62.872C764.256 69.528 765.024 74.2 766.56 76.888C768.16 79.576 770.656 80.92 774.048 80.92C776.8 80.92 779.232 80.088 781.344 78.424C783.456 76.76 785.952 74.264 788.832 70.936C789.6 70.04 790.464 69.592 791.424 69.592ZM774.624 16.408C773.664 16.408 772.576 17.624 771.36 20.056C770.208 22.424 769.088 25.752 768 30.04C766.976 34.264 766.112 38.968 765.408 44.152C769.184 40.888 772 37.24 773.856 33.208C775.776 29.112 776.736 25.4 776.736 22.072C776.736 18.296 776.032 16.408 774.624 16.408Z" />
<path d="M802.519 91.48C798.743 91.48 795.511 90.552 792.823 88.696C790.199 86.776 788.216 84.28 786.872 81.208C785.528 78.136 784.856 74.84 784.856 71.32C784.856 66.456 785.752 62.136 787.544 58.36C789.4 54.52 791.895 51.544 795.031 49.432C798.167 47.256 801.687 46.168 805.591 46.168C809.367 46.168 812.599 47.128 815.287 49.048C817.975 50.904 819.992 53.368 821.336 56.44C822.68 59.512 823.352 62.808 823.352 66.328C823.352 71.192 822.424 75.544 820.568 79.384C818.712 83.16 816.184 86.136 812.984 88.312C809.848 90.424 806.359 91.48 802.519 91.48ZM803.576 81.112C805.752 81.112 807.575 79.928 809.047 77.56C810.583 75.192 811.352 71.736 811.352 67.192C811.352 63.672 810.712 61.016 809.432 59.224C808.152 57.432 806.615 56.536 804.823 56.536C802.519 56.536 800.599 57.72 799.063 60.088C797.591 62.392 796.856 65.848 796.856 70.456C796.856 74.104 797.496 76.792 798.776 78.52C800.056 80.248 801.656 81.112 803.576 81.112Z" />
<path d="M910.69 69.592C911.522 69.592 912.162 69.976 912.61 70.744C913.122 71.512 913.378 72.568 913.378 73.912C913.378 76.472 912.77 78.456 911.554 79.864C908.674 83.384 905.762 86.2 902.818 88.312C899.874 90.424 896.386 91.48 892.354 91.48C887.426 91.48 883.458 90.072 880.45 87.256C877.442 84.44 875.938 80.696 875.938 76.024C875.938 73.528 877.218 71.736 879.778 70.648C882.594 69.432 884.61 68.152 885.826 66.808C887.042 65.4 887.65 63.704 887.65 61.72C887.65 60.568 887.394 59.704 886.882 59.128C886.434 58.552 885.858 58.264 885.154 58.264C883.426 58.264 881.506 59.512 879.394 62.008C877.346 64.504 875.426 67.736 873.634 71.704C871.842 75.608 870.434 79.64 869.41 83.8C868.706 86.808 867.874 88.856 866.914 89.944C866.018 90.968 864.578 91.48 862.594 91.48C860.61 91.48 859.138 90.776 858.178 89.368C857.282 87.896 856.674 85.656 856.354 82.648C856.034 79.64 855.874 75.224 855.874 69.4C855.874 59.544 856.866 49.272 858.85 38.584C860.898 27.896 863.874 18.936 867.778 11.704C871.746 4.40801 876.482 0.76001 881.986 0.76001C884.93 0.76001 887.298 2.04001 889.09 4.60001C890.946 7.09601 891.874 10.36 891.874 14.392C891.874 20.856 889.986 27.576 886.21 34.552C882.434 41.464 876.29 49.56 867.778 58.84C867.586 62.168 867.49 65.592 867.49 69.112C870.562 61.112 874.082 55.32 878.05 51.736C882.018 48.088 885.73 46.264 889.186 46.264C892.386 46.264 894.946 47.352 896.866 49.528C898.85 51.704 899.842 54.392 899.842 57.592C899.842 61.112 898.946 64.344 897.154 67.288C895.362 70.232 892.29 72.856 887.938 75.16C888.194 76.888 888.962 78.296 890.242 79.384C891.586 80.408 893.186 80.92 895.042 80.92C897.026 80.92 898.946 80.152 900.802 78.616C902.658 77.08 905.09 74.52 908.098 70.936C908.866 70.04 909.73 69.592 910.69 69.592ZM879.97 10.264C878.818 10.264 877.538 11.928 876.13 15.256C874.722 18.52 873.346 22.968 872.002 28.6C870.722 34.168 869.666 40.248 868.834 46.84C872.802 42.168 876.066 37.08 878.626 31.576C881.25 26.072 882.562 21.08 882.562 16.6C882.562 14.552 882.338 12.984 881.89 11.896C881.442 10.808 880.802 10.264 879.97 10.264Z" />
<path d="M912.455 91.48C910.023 91.48 908.295 90.2 907.271 87.64C906.311 85.08 905.831 80.984 905.831 75.352C905.831 67.032 907.015 59.128 909.383 51.64C909.959 49.784 910.887 48.44 912.167 47.608C913.511 46.712 915.367 46.264 917.735 46.264C919.015 46.264 919.911 46.424 920.423 46.744C920.935 47.064 921.191 47.672 921.191 48.568C921.191 49.592 920.711 51.896 919.751 55.48C919.111 58.04 918.599 60.28 918.215 62.2C917.831 64.12 917.511 66.488 917.255 69.304C919.367 63.8 921.735 59.32 924.359 55.864C926.983 52.408 929.543 49.944 932.039 48.472C934.599 47 936.935 46.264 939.047 46.264C943.207 46.264 945.287 48.344 945.287 52.504C945.287 55 944.583 59.512 943.175 66.04C941.959 71.608 941.351 75.288 941.351 77.08C941.351 79.64 942.279 80.92 944.135 80.92C945.415 80.92 946.919 80.152 948.647 78.616C950.439 77.016 952.807 74.456 955.751 70.936C956.519 70.04 957.383 69.592 958.343 69.592C959.175 69.592 959.815 69.976 960.263 70.744C960.775 71.512 961.031 72.568 961.031 73.912C961.031 76.472 960.423 78.456 959.207 79.864C956.455 83.256 953.479 86.04 950.279 88.216C947.143 90.392 943.559 91.48 939.527 91.48C936.263 91.48 933.799 90.552 932.135 88.696C930.471 86.776 929.639 84.024 929.639 80.44C929.639 78.648 930.087 75.448 930.983 70.84C931.815 66.808 932.231 64.024 932.231 62.488C932.231 61.464 931.879 60.952 931.175 60.952C930.343 60.952 929.159 62.04 927.623 64.216C926.151 66.328 924.615 69.144 923.015 72.664C921.479 76.184 920.231 79.896 919.271 83.8C918.567 86.808 917.735 88.856 916.775 89.944C915.879 90.968 914.439 91.48 912.455 91.48Z" />
<path d="M1002.22 61.528C1003.06 61.528 1003.7 61.944 1004.14 62.776C1004.59 63.608 1004.82 64.664 1004.82 65.944C1004.82 69.016 1003.89 70.84 1002.03 71.416C998.192 72.76 993.968 73.528 989.36 73.72C988.144 79.096 985.744 83.416 982.16 86.68C978.576 89.88 974.512 91.48 969.968 91.48C966.128 91.48 962.832 90.552 960.08 88.696C957.392 86.84 955.344 84.376 953.936 81.304C952.528 78.232 951.824 74.904 951.824 71.32C951.824 66.456 952.752 62.136 954.608 58.36C956.464 54.52 959.024 51.544 962.288 49.432C965.552 47.256 969.168 46.168 973.136 46.168C978 46.168 981.904 47.864 984.848 51.256C987.856 54.584 989.616 58.712 990.128 63.64C993.136 63.448 996.72 62.808 1000.88 61.72C1001.39 61.592 1001.84 61.528 1002.22 61.528ZM970.736 81.304C972.784 81.304 974.544 80.472 976.016 78.808C977.552 77.144 978.576 74.744 979.088 71.608C977.104 70.264 975.568 68.504 974.48 66.328C973.456 64.152 972.944 61.848 972.944 59.416C972.944 58.392 973.04 57.368 973.232 56.344H972.752C970.192 56.344 968.048 57.592 966.32 60.088C964.656 62.52 963.824 65.976 963.824 70.456C963.824 73.976 964.496 76.664 965.84 78.52C967.248 80.376 968.88 81.304 970.736 81.304Z" />
<path d="M1055.02 46.168C1058.54 46.168 1060.3 47.288 1060.3 49.528C1060.3 50.296 1060.04 51.352 1059.53 52.696C1054.35 64.792 1049.45 74.552 1044.84 81.976C1042.54 85.624 1040.46 88.12 1038.6 89.464C1036.75 90.808 1034.63 91.48 1032.27 91.48C1029.71 91.48 1027.79 90.488 1026.51 88.504C1025.29 86.52 1024.52 83.256 1024.2 78.712C1024.07 77.048 1023.95 74.552 1023.82 71.224C1021.83 76.728 1020.01 80.952 1018.35 83.896C1016.75 86.776 1015.15 88.76 1013.55 89.848C1012.01 90.936 1010.15 91.48 1007.98 91.48C1005.35 91.48 1003.27 90.456 1001.74 88.408C1000.27 86.36 999.338 83.128 998.954 78.712C998.186 69.752 997.802 61.912 997.802 55.192V51.832C997.866 49.656 998.41 48.184 999.434 47.416C1000.46 46.584 1002.12 46.168 1004.43 46.168C1006.09 46.168 1007.31 46.552 1008.07 47.32C1008.91 48.024 1009.32 49.24 1009.32 50.968C1009.32 58.328 1009.77 67.896 1010.67 79.672C1012.78 75.192 1014.73 70.904 1016.52 66.808C1018.31 62.712 1020.39 57.464 1022.76 51.064C1023.47 49.144 1024.3 47.864 1025.26 47.224C1026.28 46.52 1027.47 46.168 1028.81 46.168C1030.6 46.168 1031.95 46.552 1032.84 47.32C1033.74 48.024 1034.19 49.24 1034.19 50.968V65.848C1034.19 72.248 1034.22 76.856 1034.28 79.672C1037.23 74.552 1039.63 70.104 1041.48 66.328C1043.4 62.552 1045.55 57.464 1047.91 51.064C1048.62 49.144 1049.55 47.864 1050.7 47.224C1051.85 46.52 1053.29 46.168 1055.02 46.168Z" />
<path d="M1072.3 33.88C1070.89 33.88 1069.77 33.56 1068.94 32.92C1068.11 32.28 1067.69 31.256 1067.69 29.848C1067.69 29.272 1067.79 28.6 1067.98 27.832C1068.68 24.888 1069.2 22.168 1069.52 19.672C1069.9 17.176 1070.09 14.392 1070.09 11.32C1070.09 8.12001 1070.83 5.65601 1072.3 3.92801C1073.84 2.20001 1075.79 1.33601 1078.16 1.33601C1080.46 1.33601 1082.19 1.97601 1083.34 3.25601C1084.56 4.47201 1085.16 6.13601 1085.16 8.24801C1085.16 10.488 1084.49 13.464 1083.15 17.176C1081.8 20.888 1080.17 24.504 1078.25 28.024C1076.97 30.392 1075.95 31.96 1075.18 32.728C1074.48 33.496 1073.52 33.88 1072.3 33.88ZM1093.42 33.88C1092.01 33.88 1090.89 33.56 1090.06 32.92C1089.23 32.28 1088.81 31.256 1088.81 29.848C1088.81 29.272 1088.91 28.6 1089.1 27.832C1089.8 24.888 1090.32 22.168 1090.64 19.672C1091.02 17.176 1091.21 14.392 1091.21 11.32C1091.21 8.12001 1091.95 5.65601 1093.42 3.92801C1094.96 2.20001 1096.91 1.33601 1099.28 1.33601C1101.58 1.33601 1103.31 1.97601 1104.46 3.25601C1105.68 4.47201 1106.28 6.13601 1106.28 8.24801C1106.28 10.488 1105.61 13.464 1104.27 17.176C1102.92 20.888 1101.29 24.504 1099.37 28.024C1098.09 30.392 1097.07 31.96 1096.3 32.728C1095.6 33.496 1094.64 33.88 1093.42 33.88Z" />
</svg>
