<svg class="signature" aria-label="Kevin Pennekamp" viewBox="0 0 265 316" fill="none" xmlns="http://www.w3.org/2000/svg">
<path d="M131.962 162.185C133.937 162.185 135.547 163.089 136.791 164.899C138.187 166.709 139.043 169.197 139.358 172.364C139.96 178.396 138.983 183.07 136.427 186.388C130.417 194.682 124.165 201.317 117.672 206.293C111.179 211.27 103.147 213.758 93.5746 213.758C81.8754 213.758 72.1244 210.44 64.3216 203.805C56.5189 197.17 52.0686 188.348 50.9709 177.34C50.3844 171.459 53.0021 167.236 58.824 164.673C65.2236 161.808 69.7089 158.792 72.2799 155.625C74.8359 152.307 75.8808 148.311 75.4146 143.636C75.144 140.922 74.3332 138.886 72.9824 137.529C71.7835 136.172 70.3483 135.493 68.677 135.493C64.5747 135.493 60.3098 138.434 55.8823 144.315C51.6067 150.196 47.808 157.812 44.4861 167.161C41.1491 176.36 38.7538 185.86 37.3003 195.662C36.3357 202.75 34.8417 207.575 32.8183 210.139C30.9318 212.552 27.6335 213.758 22.9234 213.758C18.2133 213.758 14.5533 212.099 11.9434 208.782C9.4704 205.313 7.50067 200.035 6.03421 192.948C4.56775 185.86 3.1503 175.455 1.78187 161.732C-0.533933 138.509 -0.592441 114.306 1.60635 89.1224C3.95708 63.9389 8.91693 42.827 16.4859 25.7867C24.1918 8.59556 34.578 0 47.6447 0C54.6339 0 60.5564 3.01599 65.4121 9.04797C70.4048 14.9291 73.3748 22.6199 74.3222 32.1203C75.841 47.351 72.9378 63.1849 65.6125 79.6221C58.2723 95.9084 45.5885 114.985 27.5611 136.85C27.8873 144.692 28.4639 152.76 29.291 161.054C34.7043 142.204 41.7 128.556 50.278 120.112C58.8411 111.516 67.2249 107.218 75.4296 107.218C83.0265 107.218 89.3596 109.782 94.4291 114.909C99.6504 120.036 102.637 126.37 103.389 133.91C104.216 142.204 102.848 149.819 99.2857 156.756C95.7232 163.693 89.0467 169.875 79.2563 175.304C80.2701 179.376 82.4241 182.693 85.7185 185.257C89.1498 187.67 93.0686 188.876 97.4748 188.876C102.185 188.876 106.563 187.067 110.608 183.447C114.653 179.828 119.825 173.796 126.124 165.351C127.737 163.24 129.683 162.185 131.962 162.185ZM45.0918 22.3937C42.3569 22.3937 39.7091 26.3145 37.1484 34.1561C34.5727 41.8468 32.3511 52.3274 30.4838 65.5977C28.7533 78.7173 27.6749 93.0432 27.2486 108.576C35.571 97.5672 42.1243 85.5786 46.9086 72.6099C51.8448 59.6411 53.7866 47.8788 52.734 37.3228C52.2528 32.4973 51.3526 28.8027 50.0334 26.2391C48.7142 23.6755 47.067 22.3937 45.0918 22.3937Z" fill="black"/>
<path d="M208.374 143.636C209.562 155.55 207.879 166.859 203.325 177.566C198.907 188.122 192.396 196.718 183.789 203.353C175.334 209.988 165.88 213.456 155.426 213.758C156.354 242.862 154.292 267.141 149.243 286.594C144.209 306.198 134.931 316 121.408 316C113.203 316 106.833 313.059 102.296 307.178C97.7589 301.297 94.9717 293.154 93.9341 282.749C92.4604 267.97 94.1572 250.704 99.0245 230.949C103.907 211.345 112.309 189.706 124.23 166.03C122.034 144.013 120.356 128.707 119.195 120.112C118.607 115.739 120.008 112.27 123.399 109.707C126.79 107.143 131.221 105.861 136.69 105.861C139.881 105.861 142.228 106.54 143.731 107.897C145.37 109.103 146.454 111.592 146.982 115.362C147.358 119.131 147.712 121.921 148.044 123.731C152.305 117.699 156.662 113.401 161.117 110.838C165.556 108.123 170.435 106.766 175.753 106.766C184.261 106.766 191.513 110.159 197.507 116.945C203.654 123.731 207.276 132.628 208.374 143.636ZM154.401 192.043C159.75 190.837 164.471 187.896 168.563 183.221C172.792 178.396 175.928 172.514 177.971 165.578C179.999 158.49 180.63 151.101 179.863 143.41C179.411 138.886 178.162 135.493 176.113 133.231C174.049 130.818 171.498 129.612 168.459 129.612C162.989 129.612 156.951 135.342 150.345 146.803C150.855 153.438 151.749 163.165 153.027 175.983C153.719 182.92 154.177 188.273 154.401 192.043ZM121.021 293.833C125.123 293.833 127.654 284.935 128.615 267.141C129.59 249.498 129.142 227.481 127.27 201.091C122.241 216.171 118.511 230.572 116.081 244.295C113.651 258.018 112.902 269.554 113.834 278.903C114.316 283.729 115.292 287.424 116.763 289.987C118.082 292.551 119.501 293.833 121.021 293.833Z" fill="black"/>
<path d="M245.001 213.758C238.316 213.758 233.046 211.948 229.19 208.329C225.486 204.71 223.341 199.96 222.755 194.079C222.078 187.293 223.436 181.864 226.829 177.792C230.373 173.721 235.64 171.685 242.629 171.685C249.314 171.685 254.494 173.344 258.167 176.661C261.977 179.828 264.198 184.578 264.83 190.912C265.522 197.849 264.103 203.428 260.574 207.651C257.029 211.722 251.838 213.758 245.001 213.758Z" fill="black"/>
</svg>
