<svg  width="250" height="267" viewBox="0 0 474 506" fill="none" xmlns="http://www.w3.org/2000/svg">
<g filter="url(#filter0_d_4118_1104)">
<path fill-rule="evenodd" clip-rule="evenodd" d="M237.474 0.183583C243.192 -0.013459 250.359 -0.10882 257.611 0.193348L259.223 0.270497C267.308 0.703267 275.778 1.84553 282.179 2.86034L284.673 3.26561C287.062 3.66349 289.119 4.03348 290.695 4.32811L293.175 4.8037L293.86 4.9414L293.94 4.958C293.963 4.96256 294.008 4.97088 294.05 4.97948L294.111 4.99315L294.13 4.99608L294.188 5.00975C294.2 5.01233 294.212 5.01425 294.223 5.01659C294.227 5.01753 294.231 5.01862 294.235 5.01952C294.301 5.03355 294.376 5.04893 294.456 5.06737L294.872 5.16991L321.964 12.2656L322.466 12.4062C327.445 13.903 331.239 17.9523 332.419 23.0058L332.528 23.5137L332.62 24.0273C332.811 25.2267 332.848 26.4292 332.741 27.6094L341.285 32.2285L364.407 44.4326L364.846 44.6738C369.175 47.1527 371.929 51.6855 372.135 56.6699L372.147 57.1699L372.142 57.6699C372.08 59.926 371.493 62.0971 370.473 64.0342L373.192 67.8271L373.355 68.0625L373.502 68.2793L373.662 68.5244C377.063 73.8996 379.796 79.6585 381.811 85.6719C430.837 126.846 462 188.529 462 257.5C462 381.534 361.218 482 237 482C112.782 482 12 381.534 12 257.5C12 177.205 54.2359 106.786 117.724 67.1074C119.418 61.4577 122.025 56.0855 125.478 51.2158L146.372 21.7451L146.563 21.4853L146.757 21.2295L146.997 20.9258L147.308 20.5596C150.578 16.8359 155.558 15.012 160.516 15.8086L161.025 15.8994C163.952 16.477 166.574 17.931 168.593 19.9961L172.118 17.3232C176.197 14.1534 181.555 11.4396 186.033 9.44432L186.933 9.04784C191.44 7.08378 196.069 5.39167 199.718 4.30272L199.896 4.25097L200.484 4.0869L200.645 4.04393C204.604 3.01209 210.941 2.2583 215.25 1.79198L217.136 1.59276C218.975 1.40367 220.65 1.24513 221.962 1.12597L224.062 0.941395L224.65 0.89159L224.756 0.883778C224.772 0.882219 224.791 0.880697 224.811 0.878895C224.814 0.878703 224.817 0.87916 224.82 0.878895C224.83 0.878034 224.84 0.87578 224.85 0.874989L224.874 0.874012C224.886 0.872939 224.9 0.871188 224.913 0.870106L225.074 0.857411L225.653 0.812489L227.757 0.666004L229.233 0.573231C230.843 0.4762 232.839 0.368291 235.115 0.273426L237.474 0.183583ZM237 43C215.062 43 193.891 46.2791 173.951 52.3721L170.959 54.6426C167.676 57.133 163.52 58.0885 159.532 57.3467C158.219 57.8528 156.913 58.3723 155.612 58.9033L149.161 68.0049C147.793 69.935 146.708 72.0342 145.925 74.2383C142.058 76.1544 138.261 78.191 134.537 80.3389C134.86 75.6737 136.096 71.1269 138.169 66.957C134.169 69.0262 130.243 71.2168 126.395 73.5244C125.775 76.4414 125.445 79.4273 125.421 82.4394C114.048 86.4838 104.941 94.8625 99.8877 105.476C94.912 109.944 90.156 114.651 85.6396 119.581L86.2754 115.759L86.291 115.669L86.4248 114.909L86.4385 114.83C87.4485 109.341 89.2715 104.124 91.7891 99.3154C48.8977 138.526 22 194.873 22 257.5C22 375.988 118.282 472 237 472C355.718 472 452 375.988 452 257.5C452 196.819 426.747 142.033 386.161 103.019L387.316 108.094L387.369 108.342L387.417 108.58L387.484 108.949L387.656 110.013L387.67 110.097C388.176 113.389 388.449 116.678 388.599 119.841C384.917 115.808 381.074 111.923 377.083 108.195L374.184 95.4551C373.88 94.1203 373.534 92.797 373.152 91.4853C368.524 87.7024 363.734 84.1081 358.795 80.7148C361.816 85.9304 364.039 91.5735 365.379 97.459L365.545 98.1904C360.924 94.4754 356.137 90.9579 351.199 87.6475C350.614 86.5273 349.987 85.4279 349.317 84.3525L338.74 69.5967C338.36 69.0666 338.02 68.5144 337.718 67.9453C307.671 52.0215 273.39 43 237 43ZM257.194 10.1846C249.284 9.85498 241.407 10.0208 235.532 10.2656C232.589 10.3882 230.133 10.5317 228.41 10.6445C227.549 10.7009 226.868 10.7492 226.401 10.7842C226.169 10.8016 225.988 10.8164 225.865 10.8262C225.804 10.831 225.756 10.8342 225.724 10.8369C225.708 10.8382 225.694 10.84 225.685 10.8408C225.681 10.8411 225.677 10.8407 225.675 10.8408L225.674 10.8418C225.674 10.8418 225.669 10.8416 225.666 10.8418C225.657 10.8425 225.644 10.8443 225.627 10.8457C225.593 10.8485 225.541 10.852 225.477 10.8574C225.346 10.8682 225.154 10.8845 224.911 10.9053C224.423 10.9469 223.721 11.0073 222.866 11.0849C221.157 11.2403 218.821 11.4643 216.325 11.7344C211.842 12.2195 206.278 12.9098 203.166 13.7207L202.578 13.8848C199.14 14.911 194.536 16.604 190.103 18.5791C185.775 20.5071 181.263 22.8564 178.162 25.29L164.605 35.5742L162.53 28.8154C162.025 27.1708 160.628 25.955 158.93 25.6816C157.337 25.4258 155.737 26.0397 154.724 27.2734L154.53 27.5283L133.636 56.999C133.261 57.5282 132.898 58.0651 132.547 58.6084C137.946 55.7798 143.474 53.164 149.12 50.7715L156.589 40.2373L157.868 44.4033C158.152 45.3263 158.72 46.1191 159.472 46.6846C162.718 45.4956 166 44.3799 169.314 43.3379L183.621 32.4853L184.121 32.1006C186.349 30.4461 189.853 28.5771 193.778 26.8281C197.893 24.9949 202.132 23.4422 205.161 22.5381L205.569 22.4248C207.785 21.8585 212.545 21.2261 217.297 20.7119C219.726 20.4491 222.007 20.2313 223.683 20.0791C224.519 20.0031 225.205 19.9437 225.679 19.9033C225.915 19.8832 226.099 19.8677 226.223 19.8574C226.285 19.8523 226.333 19.8492 226.364 19.8467C226.379 19.8454 226.39 19.8434 226.397 19.8428H226.409L226.419 19.8408H226.427C226.433 19.8403 226.443 19.8399 226.456 19.8389C226.483 19.8367 226.524 19.8334 226.579 19.8291C226.69 19.8203 226.858 19.8065 227.078 19.79C227.518 19.757 228.17 19.7106 229.001 19.6562C230.664 19.5473 233.047 19.4073 235.908 19.2881C241.643 19.0491 249.249 18.8926 256.818 19.208C264.304 19.5199 272.654 20.6178 279.198 21.6553C282.455 22.1716 285.236 22.6683 287.199 23.0351C288.18 23.2184 288.956 23.3693 289.483 23.4736C289.747 23.5257 289.95 23.5656 290.084 23.5928C290.117 23.5995 290.148 23.6053 290.173 23.6103L308.094 28.3047L307.836 28.5C306.605 29.4235 305.927 30.9113 306.041 32.4463C306.155 33.9811 307.044 35.352 308.397 36.084L332.264 48.9853C332.277 48.9924 332.292 48.9999 332.305 49.0068L348.097 57.3408C347.107 57.9769 346.4 58.9783 346.136 60.1338C346.065 60.4441 346.027 60.7583 346.022 61.0713C352.193 64.4882 358.187 68.1856 363.984 72.1475L357.181 62.6582L359.795 61.2334C361.164 60.4866 362.043 59.0907 362.139 57.5488L362.147 57.2383C362.137 55.679 361.323 54.2437 360.009 53.4307L359.74 53.2764L336.558 41.041L318.896 31.4922L320.994 29.9199C322.38 28.8803 323.049 27.1386 322.716 25.4385C322.382 23.7385 321.105 22.3777 319.43 21.9385L292.338 14.8437L292.108 14.79L292.106 14.7891H292.103C292.1 14.7884 292.095 14.7881 292.09 14.7871C292.079 14.7849 292.064 14.7803 292.045 14.7764C292.006 14.7684 291.949 14.757 291.876 14.7422C291.729 14.7124 291.513 14.6691 291.235 14.6142C290.68 14.5044 289.872 14.3477 288.858 14.1582C286.831 13.7792 283.966 13.269 280.612 12.7373C273.933 11.6784 265.189 10.5177 257.194 10.1846ZM256.401 29.1992C250.108 28.937 243.729 29.0173 238.494 29.1973L236.325 29.2793C234.249 29.3658 232.434 29.4632 230.981 29.5508L229.654 29.6348L227.826 29.7617L227.37 29.7969C227.357 29.7979 227.343 29.7996 227.329 29.8008C227.329 29.8008 227.324 29.8005 227.32 29.8008L227.299 29.8027H227.296L227.295 29.8037L227.247 29.8076C227.231 29.8089 227.214 29.8093 227.198 29.8105L227.181 29.8125C227.16 29.8142 227.14 29.8164 227.128 29.8174C227.122 29.8179 227.115 29.818 227.109 29.8183C227.104 29.8188 227.099 29.819 227.095 29.8193L227.05 29.8232L226.528 29.8672L224.588 30.0381C223.358 30.1498 221.801 30.2967 220.106 30.4707L218.373 30.6533C213.533 31.1771 209.561 31.7399 208.109 32.0976L207.964 32.1377C205.713 32.8127 202.522 33.9586 199.26 35.3476L197.848 35.9629C197.32 36.1981 196.812 36.4314 196.325 36.6601C209.519 34.2562 223.113 33 237 33C258.79 33 279.859 36.0915 299.789 41.8594C298.184 40.0883 297.032 37.937 296.453 35.5928L287.931 33.3603L287.544 33.2832L285.362 32.8652C283.945 32.6003 282.077 32.2636 279.903 31.9014L277.632 31.5322C271.637 30.5819 264.307 29.6164 257.711 29.2617L256.401 29.1992ZM227.422 29.7891C227.436 29.7876 227.45 29.7874 227.462 29.7861C227.469 29.7854 227.476 29.7839 227.482 29.7832C227.462 29.7854 227.442 29.787 227.422 29.7891ZM294.032 4.97753C294.032 4.97753 294.038 4.97865 294.042 4.97948L294.03 4.97655L294.032 4.97753ZM293.166 4.84765C293.188 4.85001 293.212 4.85091 293.234 4.8535C293.2 4.84963 293.166 4.84718 293.133 4.84374C293.144 4.84489 293.155 4.84647 293.166 4.84765ZM293.056 4.8369C293.074 4.83865 293.093 4.83894 293.111 4.84081C293.061 4.83575 293.012 4.83033 292.964 4.82616C292.946 4.82466 292.928 4.8246 292.911 4.82323C292.958 4.82702 293.006 4.8322 293.056 4.8369ZM291.262 4.82518C291.27 4.82453 291.278 4.82395 291.287 4.82323H291.283C291.276 4.82383 291.268 4.82461 291.262 4.82518ZM291.688 4.79882H291.69C291.71 4.798 291.73 4.79662 291.751 4.79589C291.746 4.79607 291.74 4.79573 291.735 4.79589C291.72 4.79647 291.704 4.79816 291.688 4.79882ZM292.024 4.79003H292.076L292.072 4.78905C292.056 4.7891 292.04 4.78989 292.024 4.79003ZM224.678 0.890614C224.672 0.891159 224.666 0.892045 224.661 0.892567C224.677 0.890989 224.698 0.889007 224.723 0.886708C224.728 0.886223 224.735 0.886312 224.741 0.885731L224.744 0.884754C224.719 0.886961 224.697 0.888808 224.678 0.890614ZM226.061 0.850575C226.058 0.850468 226.054 0.849768 226.051 0.849598C226.044 0.849356 226.036 0.849889 226.027 0.849598C226.04 0.850056 226.052 0.850238 226.061 0.850575ZM225.292 0.849598L225.325 0.847645H225.317C225.309 0.847948 225.3 0.849237 225.292 0.849598ZM225.996 0.848622C225.991 0.848453 225.985 0.846909 225.979 0.846669C225.974 0.846502 225.968 0.846818 225.962 0.846669C225.974 0.847044 225.986 0.848282 225.996 0.848622ZM225.571 0.843739C225.524 0.844261 225.474 0.844335 225.422 0.845692C225.415 0.845867 225.407 0.84646 225.4 0.846669C225.494 0.844178 225.579 0.842858 225.655 0.842762C225.629 0.842807 225.601 0.843439 225.571 0.843739ZM225.694 0.842762C225.746 0.842899 225.794 0.843035 225.836 0.843739C225.868 0.844277 225.898 0.845025 225.924 0.845692C225.905 0.845221 225.884 0.844165 225.862 0.843739C225.816 0.842856 225.759 0.841943 225.696 0.841786L225.694 0.842762ZM225.948 0.845692L225.946 0.844715H225.944L225.948 0.845692ZM225.666 0.841786C225.676 0.841776 225.687 0.841766 225.696 0.841786C225.692 0.84178 225.688 0.840871 225.684 0.840809C225.678 0.840808 225.672 0.841732 225.666 0.841786Z" fill="#F8F9FA"/>
</g>
<path d="M442 257.5C442 370.442 350.218 462 237 462C123.782 462 32 370.442 32 257.5C32 144.558 123.782 53.0001 237 53.0001C350.218 53.0001 442 144.558 442 257.5Z" fill="url(#paint0_linear_4118_1104)"/>
<path d="M442 257.5C442 144.999 350.934 53.7157 238.326 53.004L237 53.0001C123.782 53.0001 32 144.558 32 257.5L32.0039 258.822C32.7141 370.715 123.507 461.287 235.674 461.996L237 462C349.776 462 441.283 371.156 441.996 258.822L442 257.5ZM452 257.5C452 375.988 355.718 472 237 472C118.282 472 22 375.988 22 257.5C22 139.012 118.282 43.0001 237 43.0001C355.718 43.0001 452 139.012 452 257.5Z" fill="#101419"/>
<path d="M99.3544 139.364L109.292 212.724L124.128 161.367L132.878 132.185C133.92 128.711 135.451 125.404 137.427 122.362C145.785 109.497 161.038 102.892 176.139 105.599L213.948 112.376C217.705 113.049 221.513 113.388 225.329 113.388H256.415C261.095 113.388 265.762 112.878 270.332 111.869L294.677 106.489C309.57 103.199 325.055 108.492 334.816 120.212C338.515 124.652 341.227 129.827 342.775 135.394L347.957 154.039L357.632 212.724C360.213 198.533 364.728 185.632 366.663 173.377L373.106 139.76C373.874 135.758 374.28 131.692 374.261 127.618C374.236 122.118 374.066 116.582 373.163 111.315L369.781 96.4572C368.153 89.3055 365.317 82.4838 361.395 76.2856L350.537 61.1395L357.632 57.2692L334.411 45.0135L310.544 32.1127L318.285 26.3073L291.193 19.2119C291.193 19.2119 272.487 15.3416 257.006 14.6966C241.525 14.0515 226.044 15.3416 226.044 15.3416C226.044 15.3416 208.812 16.7361 203.869 18.2114C197.402 20.1418 186.185 24.7009 180.891 28.8875L162.185 43.0784L158.213 30.1403L137.319 59.6103C132.514 66.3876 129.933 74.4902 129.933 82.7979C129.933 84.5058 128.849 86.027 127.235 86.5866C113.254 91.4346 103.022 103.543 100.594 118.14L99.5833 124.216C98.7499 129.225 98.6727 134.332 99.3544 139.364Z" fill="#5D473B"/>
<path d="M235.531 10.2652C241.407 10.0204 249.283 9.85499 257.194 10.1846C265.189 10.5178 273.933 11.6782 280.612 12.7371C283.966 13.2688 286.83 13.7792 288.858 14.1582C289.872 14.3477 290.68 14.5044 291.235 14.6142C291.513 14.6691 291.728 14.7129 291.875 14.7427C291.949 14.7576 292.005 14.7688 292.044 14.7767C292.064 14.7807 292.079 14.7846 292.089 14.7868C292.095 14.7879 292.099 14.7887 292.102 14.7893C292.104 14.7896 292.105 14.7892 292.106 14.7893L292.107 14.7906C292.106 14.7989 292.078 14.9343 291.618 17.1566L292.108 14.7906C292.185 14.8065 292.262 14.8237 292.338 14.8435L319.429 21.939C321.105 22.3781 322.382 23.7386 322.715 25.4388C323.048 27.139 322.38 28.8805 320.994 29.9201L318.895 31.4924L336.558 41.0407H336.557L359.739 53.2763C361.21 54.0528 362.135 55.5751 362.147 57.2386C362.158 58.9018 361.255 60.437 359.795 61.2335L357.181 62.6584L365.065 73.6543L365.211 73.871C369.407 80.503 372.442 87.8024 374.183 95.4547L377.565 110.313L377.613 110.551L377.785 111.615C378.603 116.938 378.752 122.403 378.776 127.597L378.774 128.42C378.74 132.53 378.308 136.61 377.541 140.61L371.113 174.136C370.105 180.498 368.44 186.979 366.76 193.458C365.059 200.022 363.33 206.629 362.075 213.531C361.682 215.692 359.791 217.257 357.595 217.239C355.399 217.221 353.534 215.625 353.177 213.458L343.54 155.014L338.424 136.604C337.134 131.962 334.934 127.626 331.953 123.849L331.346 123.102C322.801 112.843 309.324 108.121 296.272 110.767L295.651 110.898L271.306 116.277C266.416 117.358 261.422 117.903 256.414 117.903H225.329C221.756 117.903 218.19 117.626 214.662 117.074L213.151 116.82L175.342 110.044C162.237 107.695 149.002 113.3 141.563 124.294L141.214 124.822C139.581 127.335 138.292 130.056 137.381 132.91L137.203 133.482L128.465 162.618L128.466 162.62L113.63 213.977C113.038 216.028 111.09 217.384 108.961 217.228C106.965 217.081 105.322 215.643 104.888 213.721L104.817 213.33L94.8797 139.97C94.1374 134.49 94.2216 128.93 95.1291 123.475L96.1395 117.4L96.273 116.64C99.1755 100.866 110.294 87.8185 125.421 82.4392C125.494 73.3216 128.358 64.4421 133.635 56.9992L154.53 27.5289L154.724 27.2731C155.737 26.0392 157.337 25.4261 158.929 25.682C160.628 25.9551 162.025 27.1704 162.53 28.8152L164.605 35.5743L178.162 25.2901C181.263 22.8563 185.775 20.5071 190.103 18.579C194.536 16.6037 199.139 14.9111 202.577 13.8848L203.166 13.721C206.277 12.91 211.841 12.2194 216.325 11.7342C218.821 11.4641 221.156 11.2407 222.866 11.0854C223.722 11.0077 224.423 10.9469 224.911 10.9052C225.155 10.8845 225.346 10.8682 225.476 10.8574C225.541 10.852 225.592 10.8488 225.626 10.846C225.643 10.8446 225.656 10.843 225.665 10.8423C225.668 10.842 225.671 10.8424 225.673 10.8423L225.674 10.841C225.677 10.8408 225.68 10.8413 225.684 10.841C225.693 10.8403 225.707 10.8385 225.723 10.8372C225.756 10.8346 225.803 10.8307 225.864 10.8259C225.988 10.8161 226.168 10.8018 226.401 10.7843C226.868 10.7493 227.548 10.7009 228.409 10.6445C230.132 10.5316 232.588 10.3879 235.531 10.2652ZM134.449 82.7983C134.449 86.319 132.284 89.4616 129.033 90.7353L128.714 90.8525C116.487 95.0924 107.489 105.583 105.154 118.276L105.048 118.881L104.037 124.956C103.278 129.521 103.207 134.173 103.828 138.758L110.892 190.909L119.789 160.114L119.803 160.07L128.553 130.889L128.777 130.162C129.933 126.542 131.57 123.091 133.641 119.902L134.085 119.233C143.521 105.286 160.311 98.1743 176.936 101.154L214.745 107.931L216.057 108.151C219.123 108.631 222.224 108.872 225.329 108.872H256.414C260.767 108.872 265.108 108.399 269.358 107.46L293.702 102.08L294.478 101.916C310.78 98.6112 327.612 104.509 338.285 117.322L339.043 118.255C342.765 122.973 345.513 128.387 347.125 134.185L352.308 152.831L352.365 153.066C352.383 153.145 352.399 153.224 352.412 153.304L358.408 189.672C359.954 183.685 361.346 178.092 362.202 172.672L362.229 172.527L368.672 138.911C369.298 135.641 369.664 132.343 369.734 129.05L369.745 127.639C369.72 122.218 369.55 117.03 368.728 112.18L365.378 97.4591C363.874 90.8481 361.257 84.5411 357.644 78.8046L346.868 63.7708C346.114 62.7195 345.847 61.3948 346.136 60.1337C346.4 58.9781 347.106 57.9767 348.096 57.3406L332.304 49.0067C332.29 48.9998 332.277 48.9924 332.263 48.9853L308.397 36.0845C307.043 35.3525 306.155 33.981 306.041 32.4461C305.927 30.9111 306.604 29.4237 307.835 28.5002L308.093 28.305L290.172 23.6108C290.147 23.6057 290.117 23.6 290.084 23.5931C289.95 23.566 289.747 23.5256 289.483 23.4735C288.955 23.3692 288.179 23.2183 287.199 23.035C285.236 22.6682 282.455 22.1719 279.197 21.6555C272.654 20.618 264.303 19.5195 256.818 19.2076C249.248 18.8922 241.643 19.0493 235.908 19.2882C233.047 19.4075 230.664 19.5472 229 19.6561C228.169 19.7105 227.518 19.7566 227.078 19.7897C226.858 19.8062 226.69 19.8199 226.579 19.8287C226.524 19.8331 226.482 19.8366 226.455 19.8388C226.442 19.8399 226.432 19.8408 226.426 19.8413H226.419L226.409 19.8426H226.397C226.39 19.8432 226.379 19.8451 226.363 19.8464C226.332 19.8489 226.284 19.8525 226.222 19.8577C226.098 19.868 225.914 19.8829 225.678 19.9031C225.204 19.9435 224.519 20.0034 223.682 20.0794C222.007 20.2317 219.726 20.449 217.296 20.7119C212.544 21.2262 207.784 21.8589 205.568 22.4253L205.16 22.5386C202.131 23.4428 197.892 24.995 193.777 26.8284C189.852 28.5775 186.349 30.4464 184.121 32.1009L183.692 32.4297L183.621 32.4851L164.914 46.676C163.74 47.5673 162.203 47.8277 160.8 47.3752C159.396 46.9226 158.301 45.8131 157.868 44.4033L156.588 40.2369L141.003 62.2212C136.739 68.2352 134.449 75.4262 134.449 82.7983Z" fill="black"/>
<path d="M175.919 70.6498C189.224 46.9123 214.833 32.7659 242.01 34.1395C244.49 34.2651 246.398 36.3767 246.272 38.8563C246.147 41.3362 244.035 43.245 241.556 43.1197C217.79 41.9187 195.397 54.2893 183.763 75.0466L178.989 83.5632C177.813 85.6611 175.205 86.4502 173.074 85.3937L172.869 85.2867C170.703 84.0726 169.932 81.3322 171.145 79.1663L175.919 70.6498Z" fill="#423027"/>
<path d="M222.107 81.8911C236.438 59.5696 261.945 46.2551 287.5 47.8967C290.057 48.0612 291.835 50.34 291.429 52.8415C291.065 55.0825 289.061 56.7655 286.792 56.7307L286.737 54.1467L286.571 56.7219C264.425 55.2994 242.113 66.869 229.558 86.4252L228.267 88.4372C227.087 90.2747 224.595 91.2149 222.444 90.1493L222.237 90.0397C219.909 88.7311 219.553 85.8699 220.816 83.9018L222.107 81.8911Z" fill="#423027"/>
<path d="M262.217 85.2048C280.77 66.6516 309.115 62.0514 332.583 73.7856L336.453 75.7219C338.79 76.89 339.737 79.7303 338.569 82.0665C337.401 84.4027 334.56 85.3498 332.224 84.1818L328.353 82.2467C308.526 72.3333 284.58 76.2191 268.906 91.8933C267.059 93.7402 264.064 93.7401 262.217 91.8933C260.37 90.0463 260.37 87.0518 262.217 85.2048Z" fill="#423027"/>
<mask id="mask0_4118_1104" style="mask-type:alpha" maskUnits="userSpaceOnUse" x="32" y="53" width="410" height="410">
<path d="M442 257.5C442 370.442 350.218 462 237 462C123.782 462 32 370.442 32 257.5C32 144.558 123.782 53.0001 237 53.0001C350.218 53.0001 442 144.558 442 257.5Z" fill="url(#paint1_linear_4118_1104)"/>
</mask>
<g mask="url(#mask0_4118_1104)">
<g filter="url(#filter1_d_4118_1104)">
<path d="M83.0371 223.028C80.9637 215.114 84.8198 206.881 92.434 202.965L99.9624 199.092C101.784 198.156 104.068 198.751 105.114 200.436L109.062 206.795L125.058 280.597C125.635 283.26 122.977 285.539 120.203 284.758L108.025 281.331C101.527 279.502 96.5446 274.584 94.9246 268.401L83.0371 223.028Z" fill="#EDD5BE"/>
<path d="M83.0371 223.028C80.9637 215.114 84.8198 206.881 92.434 202.965L99.9624 199.092C101.784 198.156 104.068 198.751 105.114 200.436L109.062 206.795L125.058 280.597C125.635 283.26 122.977 285.539 120.203 284.758L108.025 281.331C101.527 279.502 96.5446 274.584 94.9246 268.401L83.0371 223.028Z" fill="#EDD5BE"/>
<path d="M121.533 264.332C118.655 267.21 115.284 268.987 111.563 269.341C104.394 270.023 97.3712 265.289 91.9897 257.2L94.9244 268.401C96.5443 274.584 101.527 279.502 108.025 281.331L120.203 284.758C122.977 285.539 125.635 283.26 125.058 280.597L121.533 264.332Z" fill="#E2CBB4"/>
<path fill-rule="evenodd" clip-rule="evenodd" d="M97.6609 195.15C101.758 193.042 106.899 194.383 109.252 198.172C112.13 202.808 114.179 207.855 115.319 213.112L129.751 279.7C131.05 285.694 125.069 290.821 118.828 289.064L106.65 285.637C98.5275 283.351 92.2988 277.204 90.2739 269.475L78.3864 224.102C75.7947 214.209 80.6148 203.918 90.1325 199.022L97.6609 195.15ZM104.703 209.233C104.586 208.693 104.376 208.175 104.081 207.699C102.614 205.338 99.4104 204.502 96.8565 205.816L94.7353 206.907C89.0247 209.844 86.1327 216.019 87.6877 221.955L99.5751 267.328C100.79 271.965 104.527 275.653 109.401 277.025C114.217 278.38 118.833 274.424 117.83 269.799L104.703 209.233Z" fill="black"/>
<path d="M383.474 223.334C385.684 215.453 381.97 207.162 374.425 203.13L366.964 199.144C365.159 198.18 362.865 198.74 361.79 200.408L357.732 206.707L340.465 280.256C339.842 282.91 342.46 285.229 345.247 284.491L357.483 281.249C364.011 279.519 369.079 274.678 370.805 268.52L383.474 223.334Z" fill="#EDD5BE"/>
<path d="M383.474 223.334C385.684 215.453 381.97 207.162 374.425 203.13L366.964 199.144C365.159 198.18 362.865 198.74 361.79 200.408L357.732 206.707L340.465 280.256C339.842 282.91 342.46 285.229 345.247 284.491L357.483 281.249C364.011 279.519 369.079 274.678 370.805 268.52L383.474 223.334Z" fill="#EDD5BE"/>
<path d="M344.274 264.054C347.101 266.975 350.441 268.803 354.156 269.214C361.312 270.005 368.416 265.378 373.936 257.372L370.809 268.527C369.082 274.685 364.015 279.526 357.487 281.256L345.251 284.498C342.464 285.236 339.846 282.917 340.469 280.263L344.274 264.054Z" fill="#E2CBB4"/>
<path fill-rule="evenodd" clip-rule="evenodd" d="M369.333 195.237C365.273 193.067 360.11 194.329 357.692 198.082C354.734 202.673 352.598 207.689 351.368 212.928L335.788 279.288C334.386 285.261 340.278 290.478 346.548 288.817L358.784 285.575C366.944 283.413 373.278 277.361 375.437 269.664L388.106 224.478C390.868 214.626 386.226 204.263 376.794 199.223L369.333 195.237ZM362.049 209.211C362.175 208.673 362.394 208.158 362.698 207.687C364.205 205.348 367.423 204.561 369.954 205.914L372.056 207.037C377.715 210.061 380.5 216.279 378.843 222.19L366.174 267.376C364.879 271.994 361.078 275.625 356.182 276.923C351.343 278.205 346.796 274.178 347.878 269.569L362.049 209.211Z" fill="black"/>
<path d="M140.898 74.0711L232.146 40.5205L325.902 69.3646L358.346 163.205C359.446 176.555 358.861 189.976 356.601 203.205L344.677 261.26C341.525 279.705 334.457 305.125 322.743 320.434C313.682 332.275 302.4 342.564 289.415 350.826L277.446 358.443C266.856 365.182 253.707 367.683 241.047 365.366C235.166 364.29 229.116 364.243 223.216 365.227L222.853 365.288C208.753 367.64 194.228 364.274 183.069 356.069L172.533 348.321C163.509 341.686 155.353 334.126 148.224 325.79C132.179 307.028 121.733 284.796 117.903 261.26L108.377 202.722C106.276 189.812 105.768 176.729 106.862 163.716L140.898 74.0711Z" fill="#EDD5BE"/>
<path d="M234.334 364.587C288.949 336.832 331.433 287.849 351.469 228.19L344.677 261.26C341.525 279.705 334.457 305.125 322.743 320.434C313.682 332.275 302.4 342.564 289.415 350.826L277.446 358.443C266.856 365.182 253.707 367.683 241.046 365.366C238.827 364.96 236.584 364.7 234.334 364.587Z" fill="#E2CBB4"/>
<path fill-rule="evenodd" clip-rule="evenodd" d="M232.085 36.1365L333.12 75.2477L363.122 162.877C364.25 176.561 363.649 190.318 361.333 203.877L350.068 269.806C346.804 288.908 338.801 307.079 326.67 322.933C317.287 335.197 305.602 345.852 292.156 354.409L280.187 362.025C268.525 369.446 254.046 372.2 240.104 369.649C234.819 368.681 229.38 368.639 224.078 369.524L223.715 369.584C208.244 372.165 192.307 368.473 180.063 359.469L169.527 351.722C160.217 344.876 151.802 337.077 144.448 328.477C127.894 309.12 117.117 286.184 113.166 261.901L103.64 203.363C101.486 190.131 100.966 176.72 102.087 163.382L141.623 79.0194L232.085 36.1365ZM232.207 44.9046L141.623 79.0194L111.637 164.05C110.571 176.737 111.066 189.494 113.114 202.08L122.64 260.619C126.349 283.409 136.464 304.936 152.001 323.104C158.903 331.175 166.801 338.496 175.539 344.921L186.075 352.668C196.149 360.076 209.262 363.115 221.991 360.991L222.354 360.93C228.85 359.847 235.513 359.898 241.989 361.083C253.368 363.166 265.187 360.918 274.706 354.861L286.675 347.244C299.197 339.276 310.077 329.354 318.815 317.934C330.112 303.17 337.564 286.249 340.604 268.46L351.868 202.532C354.072 189.635 354.643 176.549 353.57 163.532L326.67 75.2477L232.207 44.9046Z" fill="black"/>
<path fill-rule="evenodd" clip-rule="evenodd" d="M233.567 353.268C232.509 353.268 231.651 352.486 231.651 351.521V342.786C231.651 341.821 232.509 341.039 233.567 341.039C234.625 341.039 235.483 341.821 235.483 342.786V351.521C235.483 352.486 234.625 353.268 233.567 353.268Z" fill="#C7B6A5"/>
<path fill-rule="evenodd" clip-rule="evenodd" d="M269.583 282.852C271.72 282.852 273.453 284.585 273.453 286.723C273.453 297.41 264.789 306.074 254.102 306.074H202.821C200.684 306.074 198.951 304.341 198.951 302.204C198.951 300.066 200.684 298.333 202.821 298.333H254.102C260.514 298.333 265.713 293.135 265.713 286.723C265.713 284.585 267.445 282.852 269.583 282.852Z" fill="black"/>
<path fill-rule="evenodd" clip-rule="evenodd" d="M227.498 268.441C231.753 271.278 237.297 271.278 241.552 268.441L250.172 262.694C251.493 261.814 253.277 262.17 254.157 263.491C255.037 264.811 254.681 266.595 253.36 267.476L244.74 273.223C238.554 277.346 230.496 277.346 224.311 273.223L215.69 267.476C214.369 266.595 214.013 264.811 214.893 263.491C215.773 262.17 217.557 261.814 218.878 262.694L227.498 268.441Z" fill="#C7B6A5"/>
<circle cx="287.211" cy="214.401" r="34.694" fill="white"/>
<circle cx="292.753" cy="225.383" r="22.2258" fill="#4361FF"/>
<circle cx="292.753" cy="225.383" r="22.2258" fill="url(#paint2_linear_4118_1104)" fill-opacity="0.7"/>
<circle cx="292.753" cy="225.383" r="14.6365" fill="black"/>
<path d="M251.991 218.805C254.123 219.096 256.088 217.603 256.379 215.47L257.049 210.556C258.473 200.116 265.191 191.154 274.812 186.858C282.139 183.587 290.478 183.345 297.989 186.177C308.768 190.241 316.363 200.028 317.607 211.473L318.03 215.364C318.263 217.504 320.186 219.05 322.326 218.818C324.466 218.585 326.013 216.662 325.78 214.522L325.357 210.631C323.795 196.258 314.261 183.981 300.739 178.883C291.309 175.327 280.84 175.63 271.634 179.74C259.551 185.135 251.113 196.391 249.325 209.503L248.655 214.416C248.365 216.549 249.858 218.514 251.991 218.805Z" fill="black"/>
<path fill-rule="evenodd" clip-rule="evenodd" d="M298.968 220.252C297.91 219.194 297.91 217.478 298.968 216.419L308.726 206.662C309.784 205.603 311.501 205.603 312.559 206.662C313.618 207.72 313.618 209.436 312.559 210.495L302.801 220.252C301.743 221.311 300.027 221.311 298.968 220.252Z" fill="white"/>
<path fill-rule="evenodd" clip-rule="evenodd" d="M297.144 222.077C295.078 220.011 295.078 216.661 297.144 214.595L306.901 204.837C308.968 202.771 312.317 202.771 314.383 204.837C316.45 206.903 316.45 210.253 314.383 212.319L304.626 222.077C302.56 224.143 299.21 224.143 297.144 222.077ZM298.968 216.419C297.91 217.478 297.91 219.194 298.968 220.252C300.027 221.311 301.743 221.311 302.801 220.252L312.559 210.495C313.618 209.436 313.618 207.72 312.559 206.662C311.501 205.603 309.784 205.603 308.726 206.662L298.968 216.419Z" fill="white"/>
<path fill-rule="evenodd" clip-rule="evenodd" d="M250.526 184.844C251.88 187.116 254.82 187.86 257.092 186.505L269.355 179.195C285.481 169.582 305.894 171.065 320.462 182.907C322.514 184.576 325.53 184.265 327.199 182.212C328.867 180.16 328.556 177.144 326.504 175.475C308.816 161.096 284.031 159.295 264.451 170.967L252.187 178.278C249.915 179.632 249.171 182.572 250.526 184.844Z" fill="black"/>
<circle cx="183.36" cy="214.401" r="34.694" fill="white"/>
<circle cx="188.902" cy="225.383" r="22.2258" fill="#4361FF"/>
<circle cx="188.902" cy="225.383" r="22.2258" fill="url(#paint3_linear_4118_1104)" fill-opacity="0.7"/>
<circle cx="188.902" cy="225.383" r="14.6365" fill="black"/>
<path d="M148.139 218.805C150.272 219.096 152.237 217.603 152.528 215.47L153.198 210.556C154.621 200.116 161.339 191.154 170.961 186.858C178.288 183.587 186.626 183.345 194.138 186.177C204.916 190.241 212.512 200.028 213.756 211.473L214.179 215.364C214.412 217.504 216.335 219.05 218.475 218.818C220.615 218.585 222.161 216.662 221.928 214.522L221.506 210.631C219.943 196.258 210.41 183.981 196.888 178.883C187.458 175.327 176.989 175.63 167.783 179.74C155.699 185.135 147.262 196.391 145.474 209.503L144.804 214.416C144.513 216.549 146.006 218.514 148.139 218.805Z" fill="black"/>
<path fill-rule="evenodd" clip-rule="evenodd" d="M195.117 220.252C194.058 219.194 194.058 217.478 195.117 216.419L204.874 206.662C205.933 205.603 207.649 205.603 208.708 206.662C209.766 207.72 209.766 209.436 208.708 210.495L198.95 220.252C197.891 221.311 196.175 221.311 195.117 220.252Z" fill="white"/>
<path fill-rule="evenodd" clip-rule="evenodd" d="M193.292 222.077C191.226 220.011 191.226 216.661 193.292 214.595L203.05 204.837C205.116 202.771 208.466 202.771 210.532 204.837C212.598 206.903 212.598 210.253 210.532 212.319L200.774 222.077C198.708 224.143 195.358 224.143 193.292 222.077ZM195.117 216.419C194.058 217.478 194.058 219.194 195.117 220.252C196.175 221.311 197.891 221.311 198.95 220.252L208.708 210.495C209.766 209.436 209.766 207.72 208.708 206.662C207.649 205.603 205.933 205.603 204.874 206.662L195.117 216.419Z" fill="white"/>
<path fill-rule="evenodd" clip-rule="evenodd" d="M218.351 184.844C216.996 187.116 214.057 187.86 211.785 186.505L199.521 179.195C183.395 169.582 162.982 171.065 148.415 182.907C146.362 184.576 143.346 184.265 141.678 182.212C140.009 180.16 140.32 177.144 142.373 175.475C160.06 161.096 184.846 159.295 204.426 170.967L216.689 178.278C218.961 179.632 219.705 182.572 218.351 184.844Z" fill="black"/>
<path d="M99.3544 139.364L109.292 212.724L124.128 161.367L132.878 132.185C133.92 128.711 135.451 125.404 137.427 122.362C145.785 109.497 161.038 102.892 176.139 105.599L213.948 112.376C217.705 113.049 221.513 113.388 225.329 113.388H256.415C261.095 113.388 265.762 112.878 270.332 111.869L294.677 106.489C309.57 103.199 325.055 108.492 334.816 120.212C338.515 124.652 341.227 129.827 342.775 135.394L347.957 154.039L357.632 212.724C360.213 198.533 364.728 185.632 366.663 173.377L373.106 139.76C373.874 135.758 374.28 131.692 374.261 127.618C374.236 122.118 374.066 116.582 373.163 111.315L369.781 96.4572C368.153 89.3055 365.317 82.4838 361.395 76.2856L350.537 61.1395L357.632 57.2692L334.411 45.0135L310.544 32.1127L318.285 26.3073L291.193 19.2119C291.193 19.2119 272.487 15.3416 257.006 14.6966C241.525 14.0515 226.044 15.3416 226.044 15.3416C226.044 15.3416 208.812 16.7361 203.869 18.2114C197.402 20.1418 186.185 24.7009 180.891 28.8875L162.185 43.0784L158.213 30.1403L137.319 59.6103C132.514 66.3876 129.933 74.4902 129.933 82.7979C129.933 84.5058 128.849 86.027 127.235 86.5866C113.254 91.4346 103.022 103.543 100.594 118.14L99.5833 124.216C98.7499 129.225 98.6727 134.332 99.3544 139.364Z" fill="#5D473B"/>
<path d="M235.531 10.2652C241.407 10.0204 249.283 9.85499 257.194 10.1846C265.189 10.5178 273.933 11.6782 280.612 12.7371C283.966 13.2688 286.83 13.7792 288.858 14.1582C289.872 14.3477 290.68 14.5044 291.235 14.6142C291.513 14.6691 291.728 14.7129 291.875 14.7427C291.949 14.7576 292.005 14.7688 292.044 14.7767C292.064 14.7807 292.079 14.7846 292.089 14.7868C292.095 14.7879 292.099 14.7887 292.102 14.7893C292.104 14.7896 292.105 14.7892 292.106 14.7893L292.107 14.7906C292.106 14.7989 292.078 14.9343 291.618 17.1566L292.108 14.7906C292.185 14.8065 292.262 14.8237 292.338 14.8435L319.429 21.939C321.105 22.3781 322.382 23.7386 322.715 25.4388C323.048 27.139 322.38 28.8805 320.994 29.9201L318.895 31.4924L336.558 41.0407H336.557L359.739 53.2763C361.21 54.0528 362.135 55.5751 362.147 57.2386C362.158 58.9018 361.255 60.437 359.795 61.2335L357.181 62.6584L365.065 73.6543L365.211 73.871C369.407 80.503 372.442 87.8024 374.183 95.4547L377.565 110.313L377.613 110.551L377.785 111.615C378.603 116.938 378.752 122.403 378.776 127.597L378.774 128.42C378.74 132.53 378.308 136.61 377.541 140.61L371.113 174.136C370.105 180.498 368.44 186.979 366.76 193.458C365.059 200.022 363.33 206.629 362.075 213.531C361.682 215.692 359.791 217.257 357.595 217.239C355.399 217.221 353.534 215.625 353.177 213.458L343.54 155.014L338.424 136.604C337.134 131.962 334.934 127.626 331.953 123.849L331.346 123.102C322.801 112.843 309.324 108.121 296.272 110.767L295.651 110.898L271.306 116.277C266.416 117.358 261.422 117.903 256.414 117.903H225.329C221.756 117.903 218.19 117.626 214.662 117.074L213.151 116.82L175.342 110.044C162.237 107.695 149.002 113.3 141.563 124.294L141.214 124.822C139.581 127.335 138.292 130.056 137.381 132.91L137.203 133.482L128.465 162.618L128.466 162.62L113.63 213.977C113.038 216.028 111.09 217.384 108.961 217.228C106.965 217.081 105.322 215.643 104.888 213.721L104.817 213.33L94.8797 139.97C94.1374 134.49 94.2216 128.93 95.1291 123.475L96.1395 117.4L96.273 116.64C99.1755 100.866 110.294 87.8185 125.421 82.4392C125.494 73.3216 128.358 64.4421 133.635 56.9992L154.53 27.5289L154.724 27.2731C155.737 26.0392 157.337 25.4261 158.929 25.682C160.628 25.9551 162.025 27.1704 162.53 28.8152L164.605 35.5743L178.162 25.2901C181.263 22.8563 185.775 20.5071 190.103 18.579C194.536 16.6037 199.139 14.9111 202.577 13.8848L203.166 13.721C206.277 12.91 211.841 12.2194 216.325 11.7342C218.821 11.4641 221.156 11.2407 222.866 11.0854C223.722 11.0077 224.423 10.9469 224.911 10.9052C225.155 10.8845 225.346 10.8682 225.476 10.8574C225.541 10.852 225.592 10.8488 225.626 10.846C225.643 10.8446 225.656 10.843 225.665 10.8423C225.668 10.842 225.671 10.8424 225.673 10.8423L225.674 10.841C225.677 10.8408 225.68 10.8413 225.684 10.841C225.693 10.8403 225.707 10.8385 225.723 10.8372C225.756 10.8346 225.803 10.8307 225.864 10.8259C225.988 10.8161 226.168 10.8018 226.401 10.7843C226.868 10.7493 227.548 10.7009 228.409 10.6445C230.132 10.5316 232.588 10.3879 235.531 10.2652ZM134.449 82.7983C134.449 86.319 132.284 89.4616 129.033 90.7353L128.714 90.8525C116.487 95.0924 107.489 105.583 105.154 118.276L105.048 118.881L104.037 124.956C103.278 129.521 103.207 134.173 103.828 138.758L110.892 190.909L119.789 160.114L119.803 160.07L128.553 130.889L128.777 130.162C129.933 126.542 131.57 123.091 133.641 119.902L134.085 119.233C143.521 105.286 160.311 98.1743 176.936 101.154L214.745 107.931L216.057 108.151C219.123 108.631 222.224 108.872 225.329 108.872H256.414C260.767 108.872 265.108 108.399 269.358 107.46L293.702 102.08L294.478 101.916C310.78 98.6112 327.612 104.509 338.285 117.322L339.043 118.255C342.765 122.973 345.513 128.387 347.125 134.185L352.308 152.831L352.365 153.066C352.383 153.145 352.399 153.224 352.412 153.304L358.408 189.672C359.954 183.685 361.346 178.092 362.202 172.672L362.229 172.527L368.672 138.911C369.298 135.641 369.664 132.343 369.734 129.05L369.745 127.639C369.72 122.218 369.55 117.03 368.728 112.18L365.378 97.4591C363.874 90.8481 361.257 84.5411 357.644 78.8046L346.868 63.7708C346.114 62.7194 345.847 61.3948 346.136 60.1337C346.4 58.9781 347.106 57.9767 348.096 57.3406L332.304 49.0067C332.29 48.9998 332.277 48.9924 332.263 48.9853L308.397 36.0845C307.043 35.3525 306.155 33.981 306.041 32.4461C305.927 30.9111 306.604 29.4237 307.835 28.5002L308.093 28.305L290.172 23.6108C290.147 23.6057 290.117 23.6 290.084 23.5931C289.95 23.566 289.747 23.5256 289.483 23.4735C288.955 23.3692 288.179 23.2183 287.199 23.035C285.236 22.6682 282.455 22.1719 279.197 21.6555C272.654 20.618 264.303 19.5195 256.818 19.2076C249.248 18.8922 241.643 19.0493 235.908 19.2882C233.047 19.4075 230.664 19.5472 229 19.6561C228.169 19.7105 227.518 19.7566 227.078 19.7897C226.858 19.8062 226.69 19.8199 226.579 19.8287C226.524 19.8331 226.482 19.8366 226.455 19.8388C226.442 19.8399 226.432 19.8408 226.426 19.8413H226.419L226.409 19.8426H226.397C226.39 19.8432 226.379 19.8451 226.363 19.8464C226.332 19.8489 226.284 19.8525 226.222 19.8577C226.098 19.868 225.914 19.8829 225.678 19.9031C225.204 19.9435 224.52 20.0034 223.682 20.0794C222.007 20.2317 219.726 20.449 217.296 20.7119C212.544 21.2262 207.784 21.8589 205.568 22.4253L205.16 22.5386C202.131 23.4428 197.892 24.995 193.777 26.8284C189.852 28.5775 186.349 30.4464 184.121 32.1009L183.692 32.4297L183.621 32.4851L164.914 46.676C163.74 47.5673 162.203 47.8277 160.8 47.3752C159.396 46.9226 158.301 45.8131 157.868 44.4033L156.588 40.2369L141.003 62.2212C136.739 68.2352 134.449 75.4262 134.449 82.7983Z" fill="black"/>
<path d="M175.919 70.6498C189.224 46.9123 214.833 32.7659 242.01 34.1395C244.49 34.2651 246.398 36.3767 246.272 38.8563C246.147 41.3362 244.035 43.245 241.556 43.1197C217.79 41.9187 195.397 54.2893 183.763 75.0466L178.989 83.5632C177.813 85.6611 175.205 86.4502 173.074 85.3937L172.869 85.2867C170.703 84.0726 169.932 81.3322 171.145 79.1663L175.919 70.6498Z" fill="#423027"/>
<path d="M222.107 81.8911C236.438 59.5696 261.945 46.2551 287.5 47.8967C290.057 48.0612 291.835 50.34 291.429 52.8415C291.065 55.0825 289.061 56.7655 286.792 56.7307L286.737 54.1467L286.571 56.7219C264.425 55.2994 242.113 66.869 229.558 86.4252L228.267 88.4372C227.087 90.2747 224.595 91.2149 222.444 90.1493L222.237 90.0397C219.909 88.7311 219.553 85.8699 220.816 83.9018L222.107 81.8911Z" fill="#423027"/>
<path d="M262.217 85.2048C280.77 66.6516 309.115 62.0514 332.583 73.7856L336.453 75.7219C338.79 76.89 339.737 79.7303 338.569 82.0665C337.401 84.4027 334.56 85.3498 332.224 84.1818L328.353 82.2467C308.526 72.3333 284.58 76.2191 268.906 91.8933C267.059 93.7402 264.064 93.7401 262.217 91.8933C260.37 90.0463 260.37 87.0518 262.217 85.2048Z" fill="#423027"/>
<g filter="url(#filter2_d_4118_1104)">
<path fill-rule="evenodd" clip-rule="evenodd" d="M186.619 171.905C193.056 171.905 199.412 173.412 205.218 176.316L220.504 183.961C222.009 184.713 223.348 185.719 224.485 186.914L233.344 187.86C234.695 188.004 236.058 188.004 237.409 187.86L246.267 186.914C247.404 185.719 248.744 184.713 250.249 183.961L265.533 176.316C271.34 173.412 277.697 171.905 284.134 171.905H333.736C337.146 171.905 340.516 172.667 343.621 174.138L348.707 176.548C354.144 179.124 358.344 183.661 360.687 189.146H369.885C371.245 189.146 372.348 190.02 372.348 191.096V201.703C372.348 202.458 371.798 203.145 370.936 203.467L367.204 204.859C366.56 205.1 366.079 205.55 365.885 206.092L364.234 210.715C364.02 211.313 363.468 211.777 362.77 211.996V226.832C362.769 238.995 356.407 250.183 346.186 255.994C341.531 258.64 336.317 260.026 331.018 260.026H282.749C276.866 260.026 271.189 257.762 266.801 253.665L262.874 250.001C249.645 237.651 242.082 219.99 242.081 201.449V200.891L239.612 200.331C236.824 199.699 233.928 199.699 231.14 200.331L228.672 200.891V201.449C228.672 219.99 221.108 237.651 207.879 250.001L203.952 253.665C199.564 257.762 193.887 260.026 188.004 260.026H139.735C134.437 260.026 129.222 258.64 124.567 255.994C114.347 250.183 107.984 238.995 107.984 226.832V211.996C107.285 211.777 106.732 211.313 106.518 210.715L104.868 206.092C104.674 205.55 104.192 205.1 103.548 204.859L99.8173 203.467C98.9551 203.145 98.405 202.458 98.405 201.703V191.096C98.405 190.02 99.5077 189.146 100.868 189.146H110.066C112.409 183.661 116.609 179.124 122.046 176.548L127.132 174.138C130.237 172.667 133.608 171.905 137.017 171.905H186.619ZM137.017 181.919C134.971 181.919 132.948 182.375 131.085 183.258L125.999 185.668C120.862 188.102 117.562 193.453 117.562 199.35V226.832C117.562 235.326 122.006 243.138 129.143 247.196C132.394 249.044 136.035 250.013 139.735 250.013H188.004C191.534 250.013 194.94 248.654 197.572 246.196L201.499 242.531C212.693 232.082 219.093 217.137 219.093 201.449V197.51C219.093 195.582 218.034 193.826 216.371 192.994L201.086 185.35C196.57 183.092 191.626 181.919 186.619 181.919H137.017ZM284.134 181.919C279.127 181.919 274.184 183.092 269.667 185.35L254.383 192.994C252.719 193.826 251.66 195.582 251.66 197.51V201.449C251.66 217.137 258.06 232.082 269.254 242.531L273.181 246.196C275.814 248.654 279.219 250.013 282.749 250.013H331.018C334.718 250.013 338.36 249.044 341.61 247.196C348.748 243.138 353.191 235.325 353.191 226.832V199.35C353.191 193.453 349.891 188.102 344.754 185.668L339.667 183.258C337.804 182.375 335.782 181.919 333.736 181.919H284.134Z" fill="url(#paint4_linear_4118_1104)"/>
</g>
<path d="M124.003 226.706L123.856 226.573C123.096 225.953 121.975 225.997 121.267 226.706C120.558 227.414 120.514 228.536 121.134 229.296L121.267 229.443L138.038 246.214C138.793 246.969 140.019 246.969 140.774 246.214C141.53 245.458 141.53 244.233 140.774 243.477L124.003 226.706Z" fill="white" fill-opacity="0.7"/>
<path d="M134.324 226.706L134.177 226.573C133.417 225.953 132.296 225.997 131.587 226.706C130.879 227.414 130.835 228.535 131.455 229.295L131.587 229.442L139.328 237.183C140.084 237.939 141.309 237.939 142.065 237.183C142.82 236.427 142.82 235.202 142.065 234.446L134.324 226.706Z" fill="white" fill-opacity="0.7"/>
</g>
<path d="M215.796 389.874L210.276 384.113L235.625 359.826L235.617 359.818C238.362 356.901 238.369 352.311 235.566 349.385C232.762 346.459 228.177 346.27 225.144 348.888L219.621 343.123C225.839 337.459 235.475 337.757 241.327 343.865C247.179 349.974 247.065 359.613 241.141 365.583L240.568 366.139L215.796 389.874Z" fill="#E6EAEF"/>
<path d="M240.567 366.139L241.14 365.583C246.972 359.707 247.174 350.273 241.597 344.154L241.326 343.865C235.474 337.757 225.838 337.459 219.62 343.123L225.144 348.888L225.433 348.651C228.461 346.284 232.849 346.551 235.565 349.385C238.281 352.22 238.36 356.616 235.866 359.54L235.617 359.819L235.624 359.826L210.275 384.113L215.795 389.874L240.567 366.139ZM215.554 401.121L199.028 383.873L224.377 359.585L208.233 342.736L214.264 337.242C223.663 328.68 238.225 329.13 247.07 338.362C255.777 347.45 255.746 361.708 247.2 370.76L246.786 371.186L246.735 371.239L246.682 371.289L246.11 371.845L215.554 401.121Z" fill="black"/>
<path d="M187.924 421.814C187.924 430.287 172.662 437.155 153.834 437.155C135.006 437.155 119.743 430.287 119.743 421.814C119.743 413.342 135.006 406.474 153.834 406.474C172.662 406.474 187.924 413.342 187.924 421.814Z" fill="#E6EAEF"/>
<path d="M187.924 421.814C187.924 413.342 172.661 406.474 153.834 406.474C135.006 406.474 119.743 413.342 119.743 421.814C119.743 430.287 135.006 437.155 153.834 437.155C172.661 437.155 187.924 430.287 187.924 421.814ZM195.879 421.814C195.879 431.13 187.871 436.916 181.204 439.916C173.79 443.252 164.106 445.11 153.834 445.11C143.562 445.11 133.878 443.252 126.464 439.916C119.797 436.916 111.789 431.13 111.789 421.814C111.789 412.498 119.797 406.713 126.464 403.713C133.878 400.377 143.562 398.519 153.834 398.519C164.106 398.519 173.79 400.377 181.204 403.713C187.871 406.713 195.879 412.498 195.879 421.814Z" fill="black"/>
<path d="M219.738 364.429C219.78 365.3 219.803 366.176 219.803 367.057C219.803 399.602 190.512 425.985 154.379 425.985C118.246 425.985 88.9546 399.602 88.9543 367.057C88.9543 366.176 88.9763 365.3 89.0187 364.429H219.738Z" fill="#E6EAEF"/>
<path d="M219.803 367.057C219.803 366.176 219.78 365.3 219.738 364.429H89.0188C88.9764 365.3 88.9544 366.176 88.9544 367.057C88.9547 399.602 118.246 425.985 154.379 425.985C190.512 425.985 219.803 399.602 219.803 367.057ZM227.751 367.939C227.235 404.918 194.316 433.486 155.309 433.934L154.379 433.939C114.966 433.939 81.5271 405.211 81.0067 367.939L81 367.057C81 366.044 81.0247 365.039 81.0732 364.042L81.4428 356.474H227.314L227.683 364.042L227.714 364.787C227.742 365.536 227.758 366.292 227.758 367.057L227.751 367.939Z" fill="black"/>
<path d="M219.742 359.883C219.742 379.339 190.489 395.11 154.402 395.11C118.316 395.11 89.0621 379.339 89.0621 359.883C89.0621 340.428 118.316 324.657 154.402 324.657C190.489 324.657 219.742 340.428 219.742 359.883Z" fill="#F8F9FA"/>
<path d="M219.742 359.883C219.742 340.428 190.488 324.657 154.402 324.657C118.316 324.657 89.062 340.428 89.062 359.883C89.062 379.339 118.316 395.11 154.402 395.11C190.488 395.11 219.742 379.339 219.742 359.883ZM227.697 359.883C227.697 373.934 217.253 384.854 204.379 391.794C191.183 398.909 173.5 403.065 154.402 403.065C135.305 403.065 117.621 398.909 104.425 391.794C91.5508 384.854 81.1075 373.934 81.1075 359.883C81.1075 345.833 91.5508 334.913 104.425 327.972C117.621 320.858 135.305 316.702 154.402 316.702C173.5 316.702 191.183 320.858 204.379 327.972C217.253 334.913 227.697 345.833 227.697 359.883Z" fill="black"/>
<path d="M212.924 360.452C212.924 376.455 186.723 389.429 154.402 389.429C122.081 389.429 95.8801 376.455 95.8801 360.452C95.8801 344.448 122.081 331.475 154.402 331.475C186.723 331.475 212.924 344.448 212.924 360.452Z" fill="#F8F9FA"/>
<path d="M212.924 360.452C212.924 344.698 187.535 331.881 155.912 331.485L154.402 331.475C122.081 331.475 95.8801 344.448 95.8801 360.452L95.8846 360.826C96.2826 376.407 121.52 389.025 152.892 389.419L154.402 389.428C186.471 389.428 212.515 376.657 212.92 360.826L212.924 360.452ZM217.469 360.452C217.469 371.126 208.857 379.54 197.8 385.015C186.458 390.631 171.109 393.974 154.402 393.974C137.695 393.974 122.345 390.631 111.003 385.015C99.9465 379.54 91.3347 371.126 91.3347 360.452C91.3347 349.777 99.9465 341.363 111.003 335.888C122.345 330.272 137.695 326.929 154.402 326.929C171.109 326.929 186.458 330.273 197.8 335.888C208.857 341.363 217.469 349.777 217.469 360.452Z" fill="black"/>
<path d="M154.379 336.625C185.224 336.625 210.228 348.948 210.229 364.15C210.229 367.38 209.098 370.477 207.025 373.357C197.268 382.808 177.356 389.283 154.379 389.283C131.401 389.283 111.489 382.809 101.732 373.357C99.659 370.478 98.528 367.379 98.528 364.15C98.5285 348.948 123.534 336.625 154.379 336.625Z" fill="#C73D70"/>
<path d="M210.229 364.15C210.228 348.948 185.224 336.625 154.379 336.625C123.534 336.625 98.5286 348.948 98.5281 364.15C98.5281 367.379 99.6591 370.478 101.732 373.357C111.489 382.809 131.401 389.283 154.379 389.283C177.357 389.283 197.268 382.808 207.025 373.357C209.098 370.477 210.229 367.38 210.229 364.15ZM213.638 364.15C213.638 368.217 212.205 371.997 209.791 375.348L209.615 375.595L209.396 375.805C198.901 385.971 178.433 392.487 155.474 392.688L154.379 392.692C130.977 392.692 110.022 386.133 99.3604 375.805L99.1417 375.594L98.9653 375.348C96.5525 371.997 95.119 368.217 95.119 364.15C95.1194 354.537 102.929 346.779 113.379 341.629C124.048 336.371 138.549 333.216 154.379 333.216L155.859 333.225C171.112 333.415 185.042 336.535 195.377 341.629C205.828 346.779 213.637 354.537 213.638 364.15Z" fill="black"/>
<ellipse cx="123.658" cy="360.956" rx="5.98396" ry="10.3722" transform="rotate(45 123.658 360.956)" fill="white" fill-opacity="0.5"/>
<path d="M166.226 402.496C166.226 407.831 161.139 412.155 154.863 412.155C148.587 412.155 143.499 407.831 143.499 402.496C143.499 397.162 148.587 392.838 154.863 392.838C161.139 392.838 166.226 397.162 166.226 402.496Z" fill="white"/>
<path d="M160.544 402.781C160.544 400.349 158.25 397.951 154.863 397.951C151.476 397.951 149.181 400.349 149.181 402.781C149.181 405.212 151.476 407.61 154.863 407.61V409.883L154.453 409.874C150.386 409.69 147.124 406.777 146.918 403.146L146.908 402.781C146.908 398.858 150.47 395.678 154.863 395.678L155.272 395.687C159.475 395.878 162.817 398.981 162.817 402.781L162.807 403.146C162.594 406.898 159.119 409.883 154.863 409.883V407.61C158.25 407.61 160.544 405.212 160.544 402.781Z" fill="black"/>
<path d="M166.226 402.497C166.226 397.162 161.139 392.838 154.863 392.838C148.587 392.838 143.499 397.162 143.499 402.497C143.499 407.831 148.587 412.155 154.863 412.155C161.139 412.155 166.226 407.831 166.226 402.497ZM174.181 402.497C174.181 413.387 164.271 420.11 154.863 420.11C145.455 420.11 135.545 413.387 135.545 402.497C135.545 391.606 145.455 384.883 154.863 384.883C164.271 384.883 174.181 391.606 174.181 402.497Z" fill="black"/>
<path d="M184.968 320.229C180.498 315.322 179.043 308.376 181.164 302.086L183.945 293.84L184.016 293.648C184.789 291.691 186.969 290.663 188.986 291.343C191.002 292.023 192.114 294.162 191.543 296.187L191.482 296.383L188.701 304.629C187.503 308.18 188.325 312.102 190.849 314.872L191.441 315.523C197.543 322.221 197.446 332.463 191.287 339.043L190.99 339.354C188.533 341.854 187.681 345.505 188.755 348.822L188.865 349.143L191.451 356.25C192.203 358.314 191.138 360.597 189.074 361.348C187.01 362.099 184.729 361.035 183.977 358.971L181.39 351.862L181.186 351.272C179.202 345.144 180.778 338.396 185.317 333.777L185.634 333.439C188.812 329.873 188.811 324.447 185.561 320.879L184.968 320.229Z" fill="#B9C5D4"/>
<path d="M182.344 321.645C177.537 315.995 176.028 308.218 178.41 301.157L178.411 301.158L181.191 292.91L181.204 292.871L181.22 292.831L181.291 292.639L181.301 292.61L181.313 292.58L181.445 292.268C182.84 289.186 186.3 287.555 189.587 288.487L189.914 288.589C193.404 289.767 195.328 293.467 194.341 296.975L194.331 297.012L194.319 297.05L194.258 297.246L194.247 297.278L194.236 297.312L191.456 305.557C190.649 307.949 191.116 310.575 192.672 312.533L192.997 312.915L193.59 313.565C200.714 321.386 200.6 333.346 193.408 341.03L193.398 341.041L193.387 341.052L193.089 341.363L193.076 341.377L193.062 341.39C191.37 343.112 190.781 345.627 191.515 347.912L191.615 348.2L194.182 355.256C195.441 358.716 193.753 362.531 190.398 363.949L190.068 364.08C186.495 365.379 182.547 363.537 181.247 359.966L178.658 352.856L178.641 352.808L178.438 352.218L178.43 352.192L178.421 352.168C176.111 345.034 177.934 337.181 183.197 331.79L183.469 331.499C185.656 329.039 185.653 325.298 183.412 322.837L182.821 322.186L182.819 322.186L182.344 321.645ZM181.164 302.086C179.043 308.376 180.498 315.322 184.968 320.229L185.561 320.879L185.856 321.219C188.712 324.67 188.716 329.651 185.923 333.1L185.635 333.439L185.317 333.777C180.778 338.395 179.201 345.144 181.186 351.272L181.389 351.863L183.977 358.971L184.136 359.347C185.014 361.161 187.14 362.052 189.074 361.348C191.009 360.643 192.065 358.594 191.571 356.639L191.451 356.251L188.864 349.142L188.755 348.822C187.681 345.505 188.534 341.853 190.99 339.354L191.287 339.043C197.253 332.668 197.531 322.857 191.995 316.16L191.441 315.522L190.848 314.872C188.325 312.101 187.504 308.18 188.701 304.629L191.483 296.383L191.544 296.187C192.078 294.288 191.134 292.29 189.353 291.487L188.985 291.342C187.095 290.705 185.061 291.569 184.177 293.292L184.015 293.648L183.944 293.84L181.164 302.086Z" fill="black"/>
<path d="M166.85 283.777C167.461 281.667 169.667 280.453 171.777 281.065C173.886 281.677 175.1 283.882 174.489 285.992L171.596 295.972C170.333 300.327 171.242 305.025 174.037 308.596L174.679 309.416L174.958 309.782C180.647 317.387 180.452 327.892 174.484 335.28L174.191 335.635C171.361 338.987 170.439 343.554 171.749 347.741L174.464 356.423L174.521 356.62C175.047 358.657 173.888 360.772 171.857 361.407C169.826 362.042 167.669 360.966 166.939 358.992L166.873 358.798L164.157 350.116C162.035 343.332 163.528 335.933 168.115 330.503L168.471 330.061C171.924 325.589 172.039 319.371 168.755 314.773L168.415 314.32L167.773 313.498C163.402 307.914 161.981 300.568 163.955 293.757L166.85 283.777Z" fill="#B9C5D4"/>
<path d="M164.165 282.629C165.356 279.188 169.049 277.249 172.586 278.274L172.924 278.381C176.254 279.532 178.178 283.028 177.37 286.458L177.28 286.801L174.387 296.78C173.447 300.022 174.022 303.503 175.927 306.262L176.325 306.804L176.327 306.806L176.968 307.625L176.978 307.639L176.988 307.652L177.268 308.018L177.276 308.029L177.285 308.042C183.769 316.711 183.548 328.684 176.745 337.106L176.736 337.117L176.726 337.13L176.433 337.485L176.422 337.497L176.412 337.51C174.223 340.103 173.509 343.635 174.522 346.873H174.523L177.238 355.557L177.248 355.588L177.256 355.619L177.313 355.815L177.324 355.855L177.334 355.893C178.217 359.311 176.363 362.853 173.049 364.071L172.724 364.18C169.208 365.28 165.476 363.417 164.214 360L164.201 359.967L164.19 359.934L164.123 359.741L164.11 359.703L164.099 359.666L161.384 350.983C158.965 343.25 160.666 334.817 165.894 328.627L166.185 328.266C168.832 324.821 168.924 320.041 166.413 316.497L166.088 316.061H166.087L165.484 315.289V315.29C160.537 308.97 158.929 300.656 161.164 292.947L164.058 282.967L164.165 282.629ZM171.776 281.065C169.666 280.454 167.461 281.668 166.849 283.777L163.955 293.756L163.779 294.396C162.072 301.025 163.538 308.088 167.773 313.498L168.416 314.32L168.755 314.774C172.039 319.371 171.924 325.589 168.471 330.062L168.115 330.503C163.528 335.934 162.035 343.332 164.157 350.116L166.873 358.798L166.94 358.992C167.623 360.842 169.562 361.905 171.475 361.507L171.857 361.407C173.761 360.812 174.898 358.916 174.6 357.003L174.52 356.619L174.464 356.424L171.749 347.74C170.48 343.684 171.305 339.273 173.931 335.954L174.191 335.636L174.485 335.279C180.265 328.122 180.628 318.041 175.474 310.504L174.957 309.782L174.678 309.416L174.036 308.595C171.329 305.136 170.392 300.62 171.484 296.381L171.596 295.971L174.489 285.992C175.063 284.015 174.031 281.952 172.162 281.197L171.776 281.065Z" fill="black"/>
<path d="M288.902 297.19C288.902 290.956 293.956 285.902 300.19 285.902H378.08C384.314 285.902 389.368 290.956 389.368 297.19V431.521C389.368 443.99 379.26 454.098 366.792 454.098H300.19C293.956 454.098 288.902 449.044 288.902 442.81V297.19Z" fill="#E6EAEF"/>
<path d="M389.368 431.521V297.19C389.368 291.151 384.625 286.219 378.661 285.916L378.08 285.902V278C388.678 278 397.27 286.592 397.27 297.19V431.521C397.27 448.354 383.624 462 366.791 462H300.19C289.592 462 281 453.408 281 442.81V297.19C281 286.592 289.592 278 300.19 278V285.902L299.609 285.916C293.645 286.219 288.902 291.151 288.902 297.19V442.81L288.916 443.391C289.209 449.163 293.837 453.791 299.609 454.084L300.19 454.098H366.791L367.375 454.09C379.38 453.786 389.056 444.11 389.36 432.105L389.368 431.521ZM378.08 278V285.902H300.19V278H378.08Z" fill="black"/>
<path d="M294.546 302.834C294.546 296.6 299.6 291.546 305.834 291.546H372.436C378.67 291.546 383.724 296.6 383.724 302.834V361.534C383.724 367.768 378.67 372.822 372.436 372.822H305.834C299.6 372.822 294.546 367.768 294.546 361.534V302.834Z" fill="#A5D6A7"/>
<path d="M305.963 361.405H372.307V302.963H305.963V361.405ZM383.725 361.533L383.709 362.114C383.417 367.886 378.789 372.514 373.017 372.807L372.436 372.822H305.834L305.254 372.807C299.482 372.515 294.854 367.887 294.561 362.114L294.546 361.533V302.834C294.546 296.794 299.29 291.863 305.254 291.561L305.834 291.546H372.436L373.017 291.561C378.981 291.864 383.724 296.795 383.725 302.834V361.533Z" fill="#2E3743"/>
<path d="M376.951 396.528C376.951 399.645 374.424 402.172 371.307 402.172C368.19 402.172 365.663 399.645 365.663 396.528C365.663 393.41 368.19 390.883 371.307 390.883C374.424 390.883 376.951 393.41 376.951 396.528Z" fill="#C73D70"/>
<path d="M376.951 396.528C376.951 393.41 374.424 390.883 371.307 390.883C368.19 390.883 365.663 393.41 365.663 396.528C365.663 399.645 368.19 402.172 371.307 402.172C374.424 402.172 376.951 399.645 376.951 396.528ZM380.338 396.528C380.338 401.515 376.294 405.558 371.307 405.558C366.319 405.558 362.276 401.515 362.276 396.528C362.276 391.54 366.319 387.497 371.307 387.497C376.294 387.497 380.338 391.54 380.338 396.528Z" fill="black"/>
<path d="M362.276 414.589C362.276 417.706 359.749 420.233 356.632 420.233C353.515 420.233 350.988 417.706 350.988 414.589C350.988 411.472 353.515 408.945 356.632 408.945C359.749 408.945 362.276 411.472 362.276 414.589Z" fill="#C73D70"/>
<path d="M362.276 414.589C362.276 411.472 359.749 408.945 356.632 408.945C353.515 408.945 350.988 411.472 350.988 414.589C350.988 417.706 353.515 420.233 356.632 420.233C359.749 420.233 362.276 417.706 362.276 414.589ZM365.663 414.589C365.663 419.576 361.62 423.62 356.632 423.62C351.645 423.62 347.601 419.576 347.601 414.589C347.601 409.601 351.645 405.558 356.632 405.558C361.62 405.558 365.663 409.601 365.663 414.589Z" fill="black"/>
<path d="M305.383 389.497C305.383 388.392 306.278 387.497 307.383 387.497H317.832C318.937 387.497 319.832 388.392 319.832 389.497V421.62C319.832 422.724 318.937 423.62 317.832 423.62H307.383C306.278 423.62 305.383 422.724 305.383 421.62V389.497Z" fill="black"/>
<path d="M328.669 398.334C329.773 398.334 330.669 399.229 330.669 400.334V410.783C330.669 411.887 329.773 412.783 328.669 412.783L296.546 412.783C295.442 412.783 294.546 411.887 294.546 410.783L294.546 400.334C294.546 399.229 295.442 398.334 296.546 398.334L328.669 398.334Z" fill="black"/>
<path d="M336.244 431.453L336.373 431.337C337.038 430.794 338.019 430.833 338.639 431.453C339.259 432.073 339.298 433.054 338.755 433.719L338.639 433.848L330.737 441.749C330.076 442.411 329.004 442.411 328.343 441.749C327.681 441.088 327.681 440.016 328.343 439.355L336.244 431.453Z" fill="#4B596C"/>
<path d="M347.533 431.453L347.662 431.337C348.327 430.794 349.308 430.833 349.928 431.453C350.548 432.073 350.586 433.054 350.044 433.719L349.928 433.848L342.026 441.749C341.365 442.411 340.292 442.411 339.631 441.749C338.97 441.088 338.97 440.016 339.631 439.355L347.533 431.453Z" fill="#4B596C"/>
</g>
<defs>
<filter id="filter0_d_4118_1104" x="0" y="-9.15527e-05" width="474" height="506" filterUnits="userSpaceOnUse" color-interpolation-filters="sRGB">
<feFlood flood-opacity="0" result="BackgroundImageFix"/>
<feColorMatrix in="SourceAlpha" type="matrix" values="0 0 0 0 0 0 0 0 0 0 0 0 0 0 0 0 0 0 127 0" result="hardAlpha"/>
<feOffset dy="12"/>
<feGaussianBlur stdDeviation="6"/>
<feComposite in2="hardAlpha" operator="out"/>
<feColorMatrix type="matrix" values="0 0 0 0 0.0468 0 0 0 0 0.1932 0 0 0 0 0.17612 0 0 0 0.3 0"/>
<feBlend mode="normal" in2="BackgroundImageFix" result="effect1_dropShadow_4118_1104"/>
<feBlend mode="normal" in="SourceGraphic" in2="effect1_dropShadow_4118_1104" result="shape"/>
</filter>
<filter id="filter1_d_4118_1104" x="69.6915" y="10.0001" width="327.205" height="376.578" filterUnits="userSpaceOnUse" color-interpolation-filters="sRGB">
<feFlood flood-opacity="0" result="BackgroundImageFix"/>
<feColorMatrix in="SourceAlpha" type="matrix" values="0 0 0 0 0 0 0 0 0 0 0 0 0 0 0 0 0 0 127 0" result="hardAlpha"/>
<feOffset dy="8"/>
<feGaussianBlur stdDeviation="4"/>
<feComposite in2="hardAlpha" operator="out"/>
<feColorMatrix type="matrix" values="0 0 0 0 0 0 0 0 0 0 0 0 0 0 0 0 0 0 0.25 0"/>
<feBlend mode="normal" in2="BackgroundImageFix" result="effect1_dropShadow_4118_1104"/>
<feBlend mode="normal" in="SourceGraphic" in2="effect1_dropShadow_4118_1104" result="shape"/>
</filter>
<filter id="filter2_d_4118_1104" x="94.405" y="171.905" width="281.943" height="96.1211" filterUnits="userSpaceOnUse" color-interpolation-filters="sRGB">
<feFlood flood-opacity="0" result="BackgroundImageFix"/>
<feColorMatrix in="SourceAlpha" type="matrix" values="0 0 0 0 0 0 0 0 0 0 0 0 0 0 0 0 0 0 127 0" result="hardAlpha"/>
<feOffset dy="4"/>
<feGaussianBlur stdDeviation="2"/>
<feComposite in2="hardAlpha" operator="out"/>
<feColorMatrix type="matrix" values="0 0 0 0 0 0 0 0 0 0 0 0 0 0 0 0 0 0 0.25 0"/>
<feBlend mode="normal" in2="BackgroundImageFix" result="effect1_dropShadow_4118_1104"/>
<feBlend mode="normal" in="SourceGraphic" in2="effect1_dropShadow_4118_1104" result="shape"/>
</filter>
<linearGradient id="paint0_linear_4118_1104" x1="237" y1="53.0001" x2="237" y2="462" gradientUnits="userSpaceOnUse">
<stop stop-color="#61C569"/>
<stop offset="1" stop-color="#1C756A"/>
</linearGradient>
<linearGradient id="paint1_linear_4118_1104" x1="237" y1="53.0001" x2="237" y2="462" gradientUnits="userSpaceOnUse">
<stop stop-color="#61C569"/>
<stop offset="1" stop-color="#1C756A"/>
</linearGradient>
<linearGradient id="paint2_linear_4118_1104" x1="292.753" y1="203.157" x2="292.753" y2="247.609" gradientUnits="userSpaceOnUse">
<stop stop-color="#283A99"/>
<stop offset="1" stop-color="#4361FF"/>
</linearGradient>
<linearGradient id="paint3_linear_4118_1104" x1="188.902" y1="203.157" x2="188.902" y2="247.609" gradientUnits="userSpaceOnUse">
<stop stop-color="#283A99"/>
<stop offset="1" stop-color="#4361FF"/>
</linearGradient>
<linearGradient id="paint4_linear_4118_1104" x1="235.377" y1="171.905" x2="235.377" y2="260.026" gradientUnits="userSpaceOnUse">
<stop stop-color="#1E2225"/>
<stop offset="1" stop-color="#565B52"/>
</linearGradient>
</defs>
</svg>
