<svg width="781" viewBox="0 0 781 388" fill="none" xmlns="http://www.w3.org/2000/svg">
<path d="M459.165 329.092L464.251 317.204C466.923 310.961 468.3 304.24 468.3 297.449C468.3 279.845 459.083 263.527 444.007 254.439L430.328 246.193C405.399 231.164 374.201 231.164 349.272 246.193L335.593 254.439C320.517 263.527 311.3 279.845 311.3 297.449C311.3 304.24 312.677 310.961 315.349 317.204L320.435 329.092C330.449 352.496 348.39 371.622 371.105 383.112C382.86 389.057 396.74 389.057 408.495 383.112C431.21 371.622 449.151 352.496 459.165 329.092Z" fill="var(--color-foreground-1)"/>
<path d="M167.922 257.305C166.163 259.998 166.841 263.599 169.458 265.468L185.044 276.601C187.687 278.489 191.354 277.931 193.315 275.341L219.586 240.643L245.857 275.341C247.818 277.931 251.484 278.489 254.128 276.601L269.714 265.468C272.331 263.599 273.009 259.998 271.25 257.305L247.134 220.374L282.556 205.037C285.433 203.792 286.866 200.541 285.845 197.576L279.868 180.233C278.802 177.138 275.452 175.469 272.34 176.482L236.588 188.108L234.72 147.226C234.574 144.022 231.934 141.5 228.727 141.5H210.445C207.238 141.5 204.598 144.022 204.452 147.226L202.584 188.108L166.832 176.482C163.72 175.469 160.37 177.138 159.304 180.233L153.327 197.576C152.306 200.541 153.739 203.792 156.616 205.037L192.038 220.374L167.922 257.305Z" fill="var(--color-primary)"/>
<path fill-rule="evenodd" clip-rule="evenodd" d="M220 361.5C302.29 361.5 369 294.79 369 212.5C369 130.21 302.29 63.5 220 63.5C137.71 63.5 71 130.21 71 212.5C71 294.79 137.71 361.5 220 361.5ZM219.697 332.5C285.972 332.5 339.697 278.774 339.697 212.5C339.697 146.226 285.972 92.5 219.697 92.5C153.423 92.5 99.6974 146.226 99.6974 212.5C99.6974 278.774 153.423 332.5 219.697 332.5Z" fill="var(--color-accent)"/>
<path d="M340.044 202.051C334.964 263.898 283.158 312.508 220 312.508C156.842 312.508 105.036 263.898 99.9555 202.051C99.6847 205.347 99.5467 208.681 99.5467 212.047C99.5467 278.571 153.475 332.5 220 332.5C286.525 332.5 340.453 278.571 340.453 212.047C340.453 208.681 340.315 205.347 340.044 202.051Z" fill="var(--color-surface-1)"/>
<path d="M508.922 257.305C507.163 259.998 507.841 263.599 510.458 265.468L526.044 276.601C528.687 278.489 532.354 277.931 534.315 275.341L560.586 240.643L586.857 275.341C588.818 277.931 592.484 278.489 595.128 276.601L610.714 265.468C613.331 263.599 614.009 259.998 612.25 257.305L588.134 220.374L623.556 205.037C626.433 203.792 627.866 200.541 626.845 197.576L620.868 180.233C619.802 177.138 616.452 175.469 613.34 176.482L577.588 188.108L575.72 147.226C575.574 144.022 572.934 141.5 569.727 141.5H551.445C548.238 141.5 545.598 144.022 545.452 147.226L543.584 188.108L507.832 176.482C504.72 175.469 501.37 177.138 500.304 180.233L494.327 197.576C493.306 200.541 494.739 203.792 497.616 205.037L533.038 220.374L508.922 257.305Z" fill="var(--color-primary)"/>
<path fill-rule="evenodd" clip-rule="evenodd" d="M561 361.5C643.29 361.5 710 294.79 710 212.5C710 130.21 643.29 63.5 561 63.5C478.71 63.5 412 130.21 412 212.5C412 294.79 478.71 361.5 561 361.5ZM561 335.5C627.274 335.5 681 281.774 681 215.5C681 149.226 627.274 95.5 561 95.5C494.726 95.5 441 149.226 441 215.5C441 281.774 494.726 335.5 561 335.5Z" fill="var(--color-accent)"/>
<path d="M680.593 205.5C675.531 267.115 623.921 315.542 561 315.542C498.079 315.542 446.469 267.115 441.407 205.5C441.138 208.784 441 212.105 441 215.458C441 281.733 494.726 335.458 561 335.458C627.274 335.458 681 281.733 681 215.458C681 212.105 680.862 208.784 680.593 205.5Z" fill="var(--color-surface-1)"/>
<path d="M0.0216132 7.5H5.14747V9.64494C5.55481 9.54987 5.97609 9.5 6.40732 9.5L25.1907 9.5C26.89 9.5 28.5197 10.2902 29.7213 11.6967C30.9229 13.1032 31.598 15.0109 31.598 17C31.598 45.2414 51.1567 68.1356 75.2836 68.1356H101.498C101.564 68.1356 101.63 68.1368 101.696 68.1391L249.955 68.1391C311.386 68.1391 364.56 109.524 390.238 169.774C415.916 109.524 469.089 68.1391 530.52 68.1391L678.779 68.1391C678.845 68.1368 678.911 68.1356 678.977 68.1356H705.192C729.319 68.1356 748.877 45.2414 748.877 17C748.877 15.0109 749.552 13.1032 750.754 11.6967C751.956 10.2902 753.585 9.5 755.285 9.5L774.068 9.5C774.499 9.5 774.921 9.54987 775.328 9.64494V7.5H780.454V16.3792C780.468 16.5839 780.475 16.791 780.475 17C780.475 65.6686 746.77 105.122 705.192 105.122L679.179 105.122C679.141 105.124 679.102 105.125 679.064 105.125C679.036 105.126 679.009 105.126 678.981 105.126L530.52 105.126C465.808 105.126 412.575 162.65 406.104 236.396C406.452 241.387 406.63 246.436 406.63 251.532L406.63 333H373.846L373.845 251.532C373.845 246.436 374.023 241.387 374.371 236.396C367.9 162.65 314.667 105.126 249.955 105.126L101.494 105.126C101.428 105.126 101.362 105.125 101.296 105.122L75.2836 105.122C33.7056 105.122 0 65.6686 0 17C0 16.7911 0.0073 16.5841 0.0216132 16.3795V7.5Z" fill="var(--color-surface-1)"/>
<path d="M101.498 58.6356C101.564 58.6356 101.63 58.6368 101.696 58.6391L249.955 58.6391C311.386 58.6391 364.56 100.024 390.238 160.274C415.916 100.024 469.089 58.6391 530.52 58.6391L678.779 58.6391C678.845 58.6368 678.911 58.6356 678.977 58.6356H705.192C729.319 58.6356 748.877 35.7414 748.877 7.5C748.877 5.51088 749.552 3.60322 750.754 2.1967C751.956 0.790176 753.585 0 755.285 0L774.068 3.8147e-06C777.607 4.29153e-06 780.475 3.35787 780.475 7.5C780.475 56.1686 746.77 95.6222 705.192 95.6222L679.179 95.6222C679.113 95.6245 679.047 95.6257 678.981 95.6257L530.52 95.6258C465.808 95.6258 412.575 153.15 406.104 226.896C406.452 231.887 406.63 236.936 406.63 242.032L406.63 333H373.846L373.845 242.032C373.845 236.936 374.023 231.887 374.371 226.896C367.9 153.15 314.667 95.6258 249.955 95.6258L101.494 95.6257C101.428 95.6257 101.362 95.6245 101.296 95.6222L75.2836 95.6222C33.7056 95.6222 0 56.1686 0 7.5C0 3.35787 2.86864 4.29153e-06 6.40732 3.8147e-06L25.1907 0C26.89 0 28.5197 0.790176 29.7213 2.1967C30.9229 3.60322 31.598 5.51088 31.598 7.5C31.598 35.7414 51.1567 58.6356 75.2836 58.6356H101.498Z" fill="var(--color-foreground-1)"/>
<path d="M324 319.675C324 323.423 327.011 326.46 330.726 326.46H373.797V370.215C373.797 373.962 376.808 377 380.523 377H399.365C403.08 377 406.091 373.962 406.091 370.215V326.46H449.274C452.989 326.46 456 323.423 456 319.675V300.325C456 296.577 452.989 293.54 449.274 293.54H406.091V249.785C406.091 246.038 403.08 243 399.365 243H380.523C376.808 243 373.797 246.038 373.797 249.785V293.54H330.726C327.011 293.54 324 296.577 324 300.325V319.675Z" fill="var(--color-primary)"/>
</svg>
