<svg class="profile-picture" viewBox="0 0 161 219" fill="none" xmlns="http://www.w3.org/2000/svg">
<path d="M3.57337 125.111C2.94047 120.623 5.40495 116.271 9.57899 114.505L13.706 112.759C14.7044 112.337 15.8575 112.786 16.3061 113.773L18 117.5L22.1676 159.175C22.318 160.68 20.8096 161.801 19.4128 161.223L13.2805 158.685C10.0085 157.331 7.69647 154.348 7.20198 150.841L3.57337 125.111Z" fill="#EDD5BE"/>
<path d="M3.57337 125.111C2.94047 120.623 5.40495 116.271 9.57899 114.505L13.706 112.759C14.7044 112.337 15.8575 112.786 16.3061 113.773L18 117.5L22.1676 159.175C22.318 160.68 20.8096 161.801 19.4128 161.223L13.2805 158.685C10.0085 157.331 7.69647 154.348 7.20198 150.841L3.57337 125.111Z" fill="#EDD5BE"/>
<path fill-rule="evenodd" clip-rule="evenodd" d="M12.7319 110.457C14.9782 109.506 17.5727 110.518 18.582 112.739L20.4466 116.841L24.6551 158.927C24.9936 162.311 21.5997 164.833 18.4569 163.533L12.3246 160.995C8.23458 159.303 5.34459 155.573 4.72647 151.19L1.09786 125.46C0.306743 119.85 3.38734 114.41 8.60489 112.203L12.7319 110.457ZM15.5534 118.159L14.2316 115.251L10.5531 116.807C7.42256 118.132 5.5742 121.396 6.04887 124.762L9.67748 150.492C10.0483 153.122 11.7823 155.36 14.2364 156.375L19.5968 158.593L15.5534 118.159Z" fill="#131520"/>
<path d="M157.927 125.111C158.56 120.623 156.095 116.271 151.921 114.505L147.794 112.759C146.796 112.337 145.643 112.786 145.194 113.773L143.5 117.5L139.332 159.175C139.182 160.68 140.69 161.801 142.087 161.223L148.22 158.685C151.492 157.331 153.804 154.348 154.298 150.841L157.927 125.111Z" fill="#EDD5BE"/>
<path d="M157.927 125.111C158.56 120.623 156.095 116.271 151.921 114.505L147.794 112.759C146.796 112.337 145.643 112.786 145.194 113.773L143.5 117.5L139.332 159.175C139.182 160.68 140.69 161.801 142.087 161.223L148.22 158.685C151.492 157.331 153.804 154.348 154.298 150.841L157.927 125.111Z" fill="#EDD5BE"/>
<path fill-rule="evenodd" clip-rule="evenodd" d="M148.768 110.457C146.522 109.506 143.927 110.518 142.918 112.739L141.053 116.841L136.845 158.927C136.506 162.311 139.9 164.833 143.043 163.533L149.175 160.995C153.265 159.303 156.155 155.573 156.774 151.19L160.402 125.46C161.193 119.85 158.113 114.41 152.895 112.203L148.768 110.457ZM145.947 118.159L147.268 115.251L150.947 116.807C154.077 118.132 155.926 121.396 155.451 124.762L151.823 150.492C151.452 153.122 149.718 155.36 147.264 156.375L141.903 158.593L145.947 118.159Z" fill="#131520"/>
<path d="M19.8036 36.016L80.2582 30L141.196 34.512L146.136 100.218C146.71 107.859 146.404 115.541 145.224 123.112L139 156.339C137.355 166.897 133.665 181.445 127.55 190.207C122.821 196.985 116.931 202.874 110.153 207.603L103.905 211.962C98.3772 215.819 91.5134 217.25 84.9044 215.924C81.8349 215.308 78.6763 215.281 75.5967 215.845L75.4074 215.879C68.0469 217.226 60.465 215.299 54.6398 210.603L49.1399 206.169C44.4295 202.371 40.1718 198.044 36.4506 193.273C28.0748 182.535 22.6219 169.811 20.6226 156.339L15.6501 122.835C14.5535 115.447 14.2882 107.958 14.8592 100.51L19.8036 36.016Z" fill="#EDD5BE"/>
<path fill-rule="evenodd" clip-rule="evenodd" d="M80.2265 27.4908L143.528 32.1778L148.629 100.031C149.217 107.862 148.904 115.736 147.695 123.497L141.814 161.23C140.11 172.164 135.933 182.564 129.6 191.638C124.702 198.657 118.603 204.755 111.584 209.653L105.336 214.012C99.2484 218.259 91.6902 219.835 84.4126 218.375C81.6536 217.822 78.8146 217.798 76.0466 218.304L75.8572 218.339C67.7812 219.816 59.4622 217.702 53.0707 212.549L47.5707 208.115C42.7111 204.197 38.3184 199.733 34.4793 194.811C25.8381 183.732 20.2124 170.604 18.1497 156.706L13.1772 123.202C12.0531 115.629 11.7812 107.953 12.3665 100.319L17.4711 33.7358L80.2265 27.4908ZM80.2899 32.5092L22.1362 38.2962L17.3519 100.702C16.7951 107.963 17.0538 115.264 18.123 122.468L23.0955 155.972C25.0315 169.017 30.3116 181.337 38.4219 191.736C42.0251 196.355 46.1479 200.545 50.709 204.222L56.209 208.657C61.4678 212.897 68.3126 214.636 74.9575 213.42L75.1469 213.386C78.538 212.765 82.0161 212.795 85.3962 213.473C91.3365 214.665 97.506 213.378 102.475 209.911L108.723 205.552C115.259 200.992 120.939 195.313 125.5 188.777C131.397 180.327 135.287 170.642 136.874 160.461L142.754 122.727C143.905 115.345 144.203 107.855 143.643 100.405L138.865 36.8462L80.2899 32.5092Z" fill="#131520"/>
<path fill-rule="evenodd" clip-rule="evenodd" d="M44.5 70C44.5 69.1716 45.1716 68.5 46 68.5H60.5718C64.4019 68.5 68.1986 69.2129 71.7678 70.6022C74.9901 71.8564 78.4177 72.5 81.8755 72.5H81.9671C85.5046 72.5 89.0158 71.8923 92.3476 70.7036L92.6735 70.5872C96.5446 69.206 100.624 68.5 104.734 68.5H117C117.828 68.5 118.5 69.1716 118.5 70C118.5 70.8284 117.828 71.5 117 71.5H104.734C100.968 71.5 97.2292 72.147 93.6817 73.4128L93.3557 73.5291C89.7004 74.8333 85.8482 75.5 81.9671 75.5H81.8755C78.0454 75.5 74.2488 74.7871 70.6796 73.3978C67.4573 72.1436 64.0297 71.5 60.5718 71.5H46C45.1716 71.5 44.5 70.8284 44.5 70Z" fill="#E2CBB4"/>
<path fill-rule="evenodd" clip-rule="evenodd" d="M81 209C80.4477 209 80 208.552 80 208V203C80 202.448 80.4477 202 81 202C81.5523 202 82 202.448 82 203V208C82 208.552 81.5523 209 81 209Z" fill="#E2CBB4"/>
<path fill-rule="evenodd" clip-rule="evenodd" d="M57.8633 175.021C58.4039 174.393 59.351 174.323 59.9788 174.863L68.5671 182.259C68.763 182.428 68.9756 182.576 69.2018 182.701L70.2521 183.282C77.48 187.283 86.3062 187.065 93.3276 182.712C93.5034 182.603 93.6687 182.478 93.8215 182.339L101.989 174.892C102.602 174.333 103.55 174.377 104.108 174.989C104.667 175.602 104.623 176.55 104.011 177.108L95.8427 184.556C95.5537 184.819 95.2409 185.056 94.9084 185.262C86.9639 190.187 76.9774 190.434 68.7992 185.907L67.7488 185.325C67.3429 185.101 66.9611 184.835 66.6095 184.532L58.0212 177.137C57.3935 176.596 57.3228 175.649 57.8633 175.021Z" fill="#131520"/>
<path fill-rule="evenodd" clip-rule="evenodd" d="M57.6181 175.417C57.9404 174.653 58.8203 174.296 59.5835 174.618L62.1842 175.716C74.5022 180.917 88.421 180.802 100.651 175.398L102.394 174.628C103.152 174.293 104.037 174.636 104.372 175.394C104.707 176.152 104.364 177.037 103.606 177.372L101.864 178.142C88.877 183.88 74.0972 184.003 61.0173 178.48L58.4165 177.382C57.6534 177.06 57.2959 176.18 57.6181 175.417Z" fill="#131520"/>
<path fill-rule="evenodd" clip-rule="evenodd" d="M63.5 156C63.5 155.172 64.1716 154.5 65 154.5H71.0558C72.3483 154.5 73.6115 154.885 74.6839 155.607L79.5464 158.878C80.7276 159.673 82.2724 159.673 83.4536 158.878L88.3161 155.607C89.3885 154.885 90.6517 154.5 91.9442 154.5H98C98.8284 154.5 99.5 155.172 99.5 156C99.5 156.828 98.8284 157.5 98 157.5H91.9442C91.2482 157.5 90.5681 157.707 89.9906 158.096L85.1281 161.367C82.9345 162.843 80.0655 162.843 77.8719 161.367L73.0094 158.096C72.4319 157.707 71.7518 157.5 71.0558 157.5H65C64.1716 157.5 63.5 156.828 63.5 156Z" fill="#131520"/>
<path fill-rule="evenodd" clip-rule="evenodd" d="M94.2813 148.78C93.8506 149.488 92.9277 149.712 92.2201 149.281C85.6353 145.273 77.3647 145.273 70.7799 149.281C70.0723 149.712 69.1494 149.488 68.7187 148.78C68.288 148.072 68.5124 147.149 69.2201 146.719C76.763 142.127 86.237 142.127 93.7799 146.719C94.4876 147.149 94.712 148.072 94.2813 148.78Z" fill="#E2CBB4"/>
<path fill-rule="evenodd" clip-rule="evenodd" d="M73.0572 97.9886C72.3502 99.1746 70.8156 99.5629 69.6297 98.8559L63.228 95.0397C54.8102 90.0217 44.1543 90.7959 36.5502 96.9779C35.4788 97.8488 33.9043 97.6864 33.0333 96.6151C32.1623 95.5437 32.3248 93.9692 33.3961 93.0982C42.629 85.592 55.5674 84.6521 65.7882 90.7449L72.1899 94.5611C73.3758 95.2681 73.7641 96.8026 73.0572 97.9886Z" fill="#131520"/>
<path fill-rule="evenodd" clip-rule="evenodd" d="M89.8526 97.9886C90.5596 99.1746 92.0941 99.5629 93.2801 98.8559L99.6817 95.0397C108.1 90.0217 118.755 90.7959 126.36 96.9779C127.431 97.8488 129.005 97.6864 129.876 96.6151C130.747 95.5437 130.585 93.9692 129.514 93.0982C120.281 85.592 107.342 84.6521 97.1215 90.7449L90.7199 94.5611C89.5339 95.2681 89.1456 96.8026 89.8526 97.9886Z" fill="#131520"/>
<path d="M49 116C49 113.791 50.7909 112 53 112H55C57.2091 112 59 113.791 59 116V123C59 125.209 57.2091 127 55 127H53C50.7909 127 49 125.209 49 123V116Z" fill="#131520"/>
<path d="M106 116C106 113.791 107.791 112 110 112H112C114.209 112 116 113.791 116 116V123C116 125.209 114.209 127 112 127H110C107.791 127 106 125.209 106 123V116Z" fill="#131520"/>
<path d="M135.702 71.8403L145.5 128.5L154.296 76.6517C154.764 73.8888 155 71.0914 155 68.289V57.0677C155 53.3935 154.26 49.7569 152.826 46.3745L151.633 43.5647C149.323 38.1193 144.786 33.9285 139.174 32.058C137.072 31.3572 134.87 31 132.654 31H126L123.143 25.6431C119.778 19.3332 114.761 14.0564 108.629 10.3771C103.286 7.17132 97.2592 5.2765 91.043 4.84779L81.7981 4.21021C75.0043 3.74167 68.1865 4.66586 61.7626 6.9261L51.9791 10.3685C47.024 12.1119 42.3746 14.6253 38.2019 17.8162L26.2991 26.9183C16.153 34.6771 9.36087 46.0247 7.31631 58.6327L6.05345 66.4204C5.02739 72.7477 5.22755 79.2134 6.64307 85.4652L16.5 129L28.5969 71.1075C29.8036 65.333 33.498 60.3857 38.6921 57.5889L43.1255 55.2016C47.546 52.8214 52.7001 52.1907 57.5642 53.435L69.0609 56.376C70.6806 56.7904 72.3458 57 74.0176 57H90.8001C92.5919 57 94.3756 56.7592 96.1032 56.2841L106.001 53.5621C110.825 52.2358 115.97 52.765 120.422 55.0454L125.112 57.4475C130.708 60.3138 134.63 65.6448 135.702 71.8403Z" fill="#5D473B"/>
<path fill-rule="evenodd" clip-rule="evenodd" d="M81.9701 1.71613C74.8366 1.22417 67.6779 2.19457 60.9329 4.56782L51.1493 8.01018C45.9465 9.84082 41.0646 12.4799 36.6833 15.8303L24.7805 24.9324C14.1271 33.0792 6.99533 44.9941 4.84856 58.2325L3.58569 66.0202C2.50832 72.6639 2.71849 79.4529 4.20479 86.0173L14.0617 129.552L18.9471 129.511L31.0441 71.6189C32.0999 66.5662 35.3325 62.2373 39.8774 59.79L44.3108 57.4028C48.1787 55.3201 52.6886 54.7683 56.9446 55.857L68.4414 58.7981C70.2635 59.2642 72.1368 59.5 74.0176 59.5H90.8001C92.8159 59.5 94.8225 59.2291 96.7661 58.6946L106.664 55.9727C110.885 54.8121 115.387 55.2751 119.282 57.2705L123.972 59.6726C128.869 62.1806 132.301 66.8452 133.238 72.2663L143.037 128.926L147.965 128.918L156.76 77.0698C157.253 74.1688 157.5 71.2315 157.5 68.289V57.0677C157.5 53.058 156.693 49.0893 155.127 45.3981L153.935 42.5883C151.345 36.4826 146.257 31.7836 139.964 29.6863C137.607 28.9006 135.139 28.5 132.654 28.5H127.5L125.349 24.4666C121.77 17.7569 116.436 12.1458 109.915 8.23341C104.233 4.82447 97.8251 2.80958 91.215 2.35372L81.9701 1.71613ZM62.5924 9.28438C68.6951 7.13716 75.172 6.25918 81.6261 6.70428L90.871 7.34187C96.6934 7.74341 102.338 9.51818 107.342 12.5209C113.086 15.9671 117.785 20.9094 120.937 26.8196L124.5 33.5H132.654C134.602 33.5 136.536 33.8139 138.383 34.4297C143.314 36.0734 147.302 39.756 149.332 44.541L150.524 47.3508C151.828 50.4244 152.5 53.729 152.5 57.0677V68.289C152.5 70.9513 152.276 73.6088 151.831 76.2335L145.476 113.692L138.165 71.4143C136.96 64.4443 132.547 58.4469 126.251 55.2224L121.562 52.8203C116.553 50.2548 110.765 49.6594 105.338 51.1516L95.4403 53.8736C93.9286 54.2893 92.3679 54.5 90.8001 54.5H74.0176C72.5548 54.5 71.0977 54.3166 69.6805 53.954L58.1838 51.013C52.7117 49.6132 46.9134 50.3226 41.9403 53.0005L37.5069 55.3877C31.6635 58.5341 27.5072 64.0998 26.1498 70.5962L16.402 117.246L9.08134 84.9131C7.73662 78.9739 7.54646 72.8316 8.52121 66.8205L9.78407 59.0329C11.7264 47.0552 18.1789 36.2751 27.8177 28.9042L39.7205 19.8021C43.6846 16.7708 48.1015 14.383 52.8089 12.7267L62.5924 9.28438Z" fill="#131520"/>
<path fill-rule="evenodd" clip-rule="evenodd" d="M65.7643 13.1145C65.7225 12.2872 66.3593 11.5825 67.1867 11.5407C87.6999 10.504 107.029 21.1819 117.071 39.0988L120.808 45.7666C121.214 46.4892 120.956 47.4034 120.233 47.8085C119.511 48.2135 118.597 47.9561 118.192 47.2334L114.454 40.5656C104.969 23.643 86.713 13.5577 67.3381 14.5369C66.5107 14.5787 65.8061 13.9419 65.7643 13.1145Z" fill="#2E221C"/>
<path fill-rule="evenodd" clip-rule="evenodd" d="M42.0412 23.423C41.948 22.5999 42.5397 21.857 43.3629 21.7638C63.196 19.5186 82.5185 29.0382 92.8238 46.1319L93.7846 47.7255C94.2123 48.435 93.9839 49.3569 93.2745 49.7846C92.565 50.2123 91.6431 49.9839 91.2154 49.2745L90.2546 47.6808C80.5549 31.5917 62.3679 22.6315 43.7004 24.7448C42.8772 24.838 42.1344 24.2462 42.0412 23.423Z" fill="#2E221C"/>
<path fill-rule="evenodd" clip-rule="evenodd" d="M19.1584 43.6708C18.7879 42.9299 19.0882 42.0288 19.8292 41.6584L22.5309 40.3075C38.2163 32.4648 57.1603 35.539 69.5607 47.9393C70.1464 48.5251 70.1464 49.4749 69.5607 50.0607C68.9749 50.6465 68.0251 50.6465 67.4393 50.0607C55.9521 38.5734 38.403 35.7256 23.8726 42.9908L21.1708 44.3416C20.4299 44.7121 19.5288 44.4118 19.1584 43.6708Z" fill="#2E221C"/>
<path d="M73 106.535L80.439 107.329C81.1443 107.404 81.8557 107.404 82.561 107.329L90 106.535L87.5 109.256V114.698L83.7113 113.839C82.2556 113.509 80.7444 113.509 79.2887 113.839L75.5 114.698V109.256L73 106.535Z" fill="#3D1606"/>
<path d="M153 108.018C153 107.456 152.424 107 151.714 107H144L145.929 119H147.527C148.103 119 148.608 118.697 148.765 118.259L149.626 115.846C149.728 115.563 149.979 115.328 150.315 115.202L152.263 114.475C152.713 114.307 153 113.949 153 113.555V108.018Z" fill="#3D1606"/>
<path fill-rule="evenodd" clip-rule="evenodd" d="M151.714 107C152.424 107 153 107.456 153 108.018V113.555C153 113.949 152.713 114.307 152.263 114.475L150.315 115.202C149.979 115.328 149.728 115.563 149.626 115.846L148.765 118.259C148.608 118.697 148.103 119 147.527 119H145.929L144 107H151.714Z" fill="#3D1606"/>
<path d="M10 108.018C10 107.456 10.5756 107 11.2857 107H19L17.0714 119H15.4726C14.8973 119 14.3919 118.697 14.2354 118.259L13.3736 115.846C13.2724 115.563 13.0212 115.328 12.6848 115.202L10.7373 114.475C10.2872 114.307 10 113.949 10 113.555V108.018Z" fill="#3D1606"/>
<path fill-rule="evenodd" clip-rule="evenodd" d="M30.1553 99.5C28.3758 99.5 26.6167 99.88 24.9958 100.615L22.3405 101.818C17.871 103.843 15 108.296 15 113.203V126.925C15 132.998 18.3213 138.585 23.6564 141.486C26.0864 142.808 28.8085 143.5 31.5746 143.5H56.7709C59.842 143.5 62.8056 142.369 65.0964 140.324L67.1462 138.494C74.0518 132.328 78 123.509 78 114.251V112.285C78 109.397 76.3417 106.765 73.7364 105.519L65.7576 101.703C62.7263 100.253 59.4087 99.5 56.0485 99.5H30.1553ZM27.0596 105.169C28.0322 104.728 29.0876 104.5 30.1553 104.5H56.0485C58.662 104.5 61.2423 105.085 63.6 106.213L71.5788 110.03C72.4472 110.445 73 111.322 73 112.285V114.251C73 122.085 69.6592 129.547 63.816 134.764L61.7662 136.594C60.3917 137.822 58.6135 138.5 56.7709 138.5H31.5746C29.643 138.5 27.742 138.017 26.0451 137.094C22.3193 135.068 20 131.166 20 126.925V113.203C20 110.259 21.7226 107.587 24.4043 106.372L27.0596 105.169Z" fill="#3D1606"/>
<path fill-rule="evenodd" clip-rule="evenodd" d="M132.845 99.5C134.624 99.5 136.383 99.88 138.004 100.615L140.66 101.818C145.129 103.843 148 108.296 148 113.203V126.925C148 132.998 144.679 138.585 139.344 141.486C136.914 142.808 134.191 143.5 131.425 143.5H106.229C103.158 143.5 100.194 142.369 97.9036 140.324L95.8538 138.494C88.9482 132.328 85 123.509 85 114.251V112.285C85 109.397 86.6583 106.765 89.2636 105.519L97.2424 101.703C100.274 100.253 103.591 99.5 106.952 99.5H132.845ZM135.94 105.169C134.968 104.728 133.912 104.5 132.845 104.5H106.952C104.338 104.5 101.758 105.085 99.4 106.213L91.4212 110.03C90.5528 110.445 90 111.322 90 112.285V114.251C90 122.085 93.3408 129.547 99.184 134.764L101.234 136.594C102.608 137.822 104.386 138.5 106.229 138.5H131.425C133.357 138.5 135.258 138.017 136.955 137.094C140.681 135.068 143 131.166 143 126.925V113.203C143 110.259 141.277 107.587 138.596 106.372L135.94 105.169Z" fill="#3D1606"/>
</svg>
