<svg class="profile-picture" viewBox="0 0 169 227" fill="none" xmlns="http://www.w3.org/2000/svg">
<g filter="url(#filter0_d_0_1)">
<path d="M7.57337 125.111C6.94047 120.623 9.40495 116.271 13.579 114.505L17.706 112.759C18.7044 112.337 19.8575 112.786 20.3061 113.773L22 117.5L26.1676 159.175C26.318 160.68 24.8096 161.801 23.4128 161.223L17.2805 158.685C14.0085 157.331 11.6965 154.348 11.202 150.841L7.57337 125.111Z" fill="#EDD5BE"/>
<path d="M7.57337 125.111C6.94047 120.623 9.40495 116.271 13.579 114.505L17.706 112.759C18.7044 112.337 19.8575 112.786 20.3061 113.773L22 117.5L26.1676 159.175C26.318 160.68 24.8096 161.801 23.4128 161.223L17.2805 158.685C14.0085 157.331 11.6965 154.348 11.202 150.841L7.57337 125.111Z" fill="#EDD5BE"/>
<path fill-rule="evenodd" clip-rule="evenodd" d="M16.7319 110.457C18.9782 109.506 21.5727 110.518 22.582 112.739L24.4466 116.841L28.6551 158.927C28.9936 162.311 25.5997 164.833 22.4569 163.533L16.3246 160.995C12.2346 159.303 9.34459 155.573 8.72647 151.19L5.09786 125.46C4.30674 119.85 7.38734 114.41 12.6049 112.203L16.7319 110.457ZM19.5534 118.159L18.2316 115.251L14.5531 116.807C11.4226 118.132 9.5742 121.396 10.0489 124.762L13.6775 150.492C14.0483 153.122 15.7823 155.36 18.2364 156.375L23.5968 158.593L19.5534 118.159Z" fill="#131520"/>
<path d="M161.927 125.111C162.56 120.623 160.095 116.271 155.921 114.505L151.794 112.759C150.796 112.337 149.643 112.786 149.194 113.773L147.5 117.5L143.332 159.175C143.182 160.68 144.69 161.801 146.087 161.223L152.22 158.685C155.492 157.331 157.804 154.348 158.298 150.841L161.927 125.111Z" fill="#EDD5BE"/>
<path d="M161.927 125.111C162.56 120.623 160.095 116.271 155.921 114.505L151.794 112.759C150.796 112.337 149.643 112.786 149.194 113.773L147.5 117.5L143.332 159.175C143.182 160.68 144.69 161.801 146.087 161.223L152.22 158.685C155.492 157.331 157.804 154.348 158.298 150.841L161.927 125.111Z" fill="#EDD5BE"/>
<path fill-rule="evenodd" clip-rule="evenodd" d="M152.768 110.457C150.522 109.506 147.927 110.518 146.918 112.739L145.053 116.841L140.845 158.927C140.506 162.311 143.9 164.833 147.043 163.533L153.175 160.995C157.265 159.303 160.155 155.573 160.774 151.19L164.402 125.46C165.193 119.85 162.113 114.41 156.895 112.203L152.768 110.457ZM149.947 118.159L151.268 115.251L154.947 116.807C158.077 118.132 159.926 121.396 159.451 124.762L155.823 150.492C155.452 153.122 153.718 155.36 151.264 156.375L145.903 158.593L149.947 118.159Z" fill="#131520"/>
</g>
<g filter="url(#filter1_d_0_1)">
<path d="M23.8036 36.016L84.2582 30L145.196 34.512L150.136 100.218C150.71 107.859 150.404 115.541 149.224 123.112L143 156.339C141.355 166.897 137.665 181.445 131.55 190.207C126.821 196.985 120.931 202.874 114.153 207.603L107.905 211.962C102.377 215.819 95.5134 217.25 88.9044 215.924C85.8349 215.308 82.6763 215.281 79.5967 215.845L79.4074 215.879C72.0469 217.226 64.465 215.299 58.6398 210.603L53.1399 206.169C48.4295 202.371 44.1718 198.044 40.4506 193.273C32.0748 182.535 26.6219 169.811 24.6226 156.339L19.6501 122.835C18.5535 115.447 18.2882 107.958 18.8592 100.51L23.8036 36.016Z" fill="#EDD5BE"/>
<path fill-rule="evenodd" clip-rule="evenodd" d="M84.2265 27.4908L147.528 32.1778L152.629 100.031C153.217 107.862 152.904 115.736 151.695 123.497L145.814 161.23C144.11 172.164 139.933 182.564 133.6 191.638C128.702 198.657 122.603 204.755 115.584 209.653L109.336 214.012C103.248 218.259 95.6902 219.835 88.4126 218.375C85.6536 217.822 82.8146 217.798 80.0466 218.304L79.8572 218.339C71.7812 219.816 63.4622 217.702 57.0707 212.549L51.5707 208.115C46.7111 204.197 42.3184 199.733 38.4793 194.811C29.8381 183.732 24.2124 170.604 22.1497 156.706L17.1772 123.202C16.0531 115.629 15.7812 107.953 16.3665 100.319L21.4711 33.7358L84.2265 27.4908ZM84.2899 32.5092L26.1362 38.2962L21.3519 100.702C20.7951 107.963 21.0538 115.264 22.123 122.468L27.0955 155.972C29.0315 169.017 34.3116 181.337 42.4219 191.736C46.0251 196.355 50.1479 200.545 54.709 204.222L60.209 208.657C65.4678 212.897 72.3126 214.636 78.9575 213.42L79.1469 213.386C82.538 212.765 86.0161 212.795 89.3962 213.473C95.3365 214.665 101.506 213.378 106.475 209.911L112.723 205.552C119.259 200.992 124.939 195.313 129.5 188.777C135.397 180.327 139.287 170.642 140.874 160.461L146.754 122.727C147.905 115.345 148.203 107.855 147.643 100.405L142.865 36.8462L84.2899 32.5092Z" fill="#131520"/>
<path fill-rule="evenodd" clip-rule="evenodd" d="M48.5 70C48.5 69.1716 49.1716 68.5 50 68.5H64.5718C68.4019 68.5 72.1986 69.2129 75.7678 70.6022C78.9901 71.8564 82.4177 72.5 85.8755 72.5H85.9671C89.5046 72.5 93.0158 71.8923 96.3476 70.7036L96.6735 70.5872C100.545 69.206 104.624 68.5 108.734 68.5H121C121.828 68.5 122.5 69.1716 122.5 70C122.5 70.8284 121.828 71.5 121 71.5H108.734C104.968 71.5 101.229 72.147 97.6817 73.4128L97.3557 73.5291C93.7004 74.8333 89.8482 75.5 85.9671 75.5H85.8755C82.0454 75.5 78.2488 74.7871 74.6796 73.3978C71.4573 72.1436 68.0297 71.5 64.5718 71.5H50C49.1716 71.5 48.5 70.8284 48.5 70Z" fill="#E2CBB4"/>
<path fill-rule="evenodd" clip-rule="evenodd" d="M85 209C84.4477 209 84 208.552 84 208V203C84 202.448 84.4477 202 85 202C85.5523 202 86 202.448 86 203V208C86 208.552 85.5523 209 85 209Z" fill="#E2CBB4"/>
</g>
<path fill-rule="evenodd" clip-rule="evenodd" d="M61.8633 175.021C62.4039 174.393 63.351 174.323 63.9788 174.863L72.5671 182.259C72.763 182.428 72.9756 182.576 73.2018 182.701L74.2521 183.282C81.48 187.283 90.3062 187.065 97.3276 182.712C97.5034 182.603 97.6687 182.478 97.8215 182.339L105.989 174.892C106.602 174.333 107.55 174.377 108.108 174.989C108.667 175.602 108.623 176.55 108.011 177.108L99.8427 184.556C99.5537 184.819 99.2409 185.056 98.9084 185.262C90.9639 190.187 80.9774 190.434 72.7992 185.907L71.7488 185.325C71.3429 185.101 70.9611 184.835 70.6095 184.532L62.0212 177.137C61.3935 176.596 61.3228 175.649 61.8633 175.021Z" fill="#131520"/>
<path fill-rule="evenodd" clip-rule="evenodd" d="M61.6181 175.417C61.9404 174.653 62.8203 174.296 63.5835 174.618L66.1842 175.716C78.5022 180.917 92.421 180.802 104.651 175.398L106.394 174.628C107.152 174.293 108.037 174.636 108.372 175.394C108.707 176.152 108.364 177.037 107.606 177.372L105.864 178.142C92.877 183.88 78.0972 184.003 65.0173 178.48L62.4165 177.382C61.6534 177.06 61.2959 176.18 61.6181 175.417Z" fill="#131520"/>
<path fill-rule="evenodd" clip-rule="evenodd" d="M67.5 156C67.5 155.172 68.1716 154.5 69 154.5H75.0558C76.3483 154.5 77.6115 154.885 78.6839 155.607L83.5464 158.878C84.7276 159.673 86.2724 159.673 87.4536 158.878L92.3161 155.607C93.3885 154.885 94.6517 154.5 95.9442 154.5H102C102.828 154.5 103.5 155.172 103.5 156C103.5 156.828 102.828 157.5 102 157.5H95.9442C95.2482 157.5 94.5681 157.707 93.9906 158.096L89.1281 161.367C86.9345 162.843 84.0655 162.843 81.8719 161.367L77.0094 158.096C76.4319 157.707 75.7518 157.5 75.0558 157.5H69C68.1716 157.5 67.5 156.828 67.5 156Z" fill="#131520"/>
<path fill-rule="evenodd" clip-rule="evenodd" d="M98.2813 148.78C97.8506 149.488 96.9277 149.712 96.2201 149.281C89.6353 145.273 81.3647 145.273 74.7799 149.281C74.0723 149.712 73.1494 149.488 72.7187 148.78C72.288 148.072 72.5124 147.149 73.2201 146.719C80.763 142.127 90.237 142.127 97.7799 146.719C98.4876 147.149 98.712 148.072 98.2813 148.78Z" fill="#E2CBB4"/>
<path fill-rule="evenodd" clip-rule="evenodd" d="M77.0572 97.9886C76.3502 99.1746 74.8156 99.5629 73.6297 98.8559L67.228 95.0397C58.8102 90.0217 48.1543 90.7959 40.5502 96.9779C39.4788 97.8488 37.9043 97.6864 37.0333 96.6151C36.1623 95.5437 36.3248 93.9692 37.3961 93.0982C46.629 85.592 59.5674 84.6521 69.7882 90.7449L76.1899 94.5611C77.3758 95.2681 77.7641 96.8026 77.0572 97.9886Z" fill="#131520"/>
<path fill-rule="evenodd" clip-rule="evenodd" d="M93.8526 97.9886C94.5596 99.1746 96.0941 99.5629 97.2801 98.8559L103.682 95.0397C112.1 90.0217 122.755 90.7959 130.36 96.9779C131.431 97.8488 133.005 97.6864 133.876 96.6151C134.747 95.5437 134.585 93.9692 133.514 93.0982C124.281 85.592 111.342 84.6521 101.122 90.7449L94.7199 94.5611C93.5339 95.2681 93.1456 96.8026 93.8526 97.9886Z" fill="#131520"/>
<path d="M53 116C53 113.791 54.7909 112 57 112H59C61.2091 112 63 113.791 63 116V123C63 125.209 61.2091 127 59 127H57C54.7909 127 53 125.209 53 123V116Z" fill="#131520"/>
<path d="M110 116C110 113.791 111.791 112 114 112H116C118.209 112 120 113.791 120 116V123C120 125.209 118.209 127 116 127H114C111.791 127 110 125.209 110 123V116Z" fill="#131520"/>
<path d="M139.702 71.8403L149.5 128.5L158.296 76.6517C158.764 73.8888 159 71.0914 159 68.289V57.0677C159 53.3935 158.26 49.7569 156.826 46.3745L155.633 43.5647C153.323 38.1193 148.786 33.9285 143.174 32.058C141.072 31.3572 138.87 31 136.654 31H130L127.143 25.6431C123.778 19.3332 118.761 14.0564 112.629 10.3771C107.286 7.17132 101.259 5.2765 95.043 4.84779L85.7981 4.21021C79.0043 3.74167 72.1865 4.66586 65.7626 6.9261L55.9791 10.3685C51.024 12.1119 46.3746 14.6253 42.2019 17.8162L30.2991 26.9183C20.153 34.6771 13.3609 46.0247 11.3163 58.6327L10.0535 66.4204C9.02739 72.7477 9.22755 79.2134 10.6431 85.4652L20.5 129L32.5969 71.1075C33.8036 65.333 37.498 60.3857 42.6921 57.5889L47.1255 55.2016C51.546 52.8214 56.7001 52.1907 61.5642 53.435L73.0609 56.376C74.6806 56.7904 76.3458 57 78.0176 57H94.8001C96.5919 57 98.3756 56.7592 100.103 56.2841L110.001 53.5621C114.825 52.2358 119.97 52.765 124.422 55.0454L129.112 57.4475C134.708 60.3138 138.63 65.6448 139.702 71.8403Z" fill="#5D473B"/>
<path fill-rule="evenodd" clip-rule="evenodd" d="M85.9701 1.71613C78.8366 1.22417 71.6779 2.19457 64.9329 4.56782L55.1493 8.01018C49.9465 9.84082 45.0646 12.4799 40.6833 15.8303L28.7805 24.9324C18.1271 33.0792 10.9953 44.9941 8.84856 58.2325L7.58569 66.0202C6.50832 72.6639 6.71849 79.4529 8.20479 86.0173L18.0617 129.552L22.9471 129.511L35.0441 71.6189C36.0999 66.5662 39.3325 62.2373 43.8774 59.79L48.3108 57.4028C52.1787 55.3201 56.6886 54.7683 60.9446 55.857L72.4414 58.7981C74.2635 59.2642 76.1368 59.5 78.0176 59.5H94.8001C96.8159 59.5 98.8225 59.2291 100.766 58.6946L110.664 55.9727C114.885 54.8121 119.387 55.2751 123.282 57.2705L127.972 59.6726C132.869 62.1806 136.301 66.8452 137.238 72.2663L147.037 128.926L151.965 128.918L160.76 77.0698C161.253 74.1688 161.5 71.2315 161.5 68.289V57.0677C161.5 53.058 160.693 49.0893 159.127 45.3981L157.935 42.5883C155.345 36.4826 150.257 31.7836 143.964 29.6863C141.607 28.9006 139.139 28.5 136.654 28.5H131.5L129.349 24.4666C125.77 17.7569 120.436 12.1458 113.915 8.23341C108.233 4.82447 101.825 2.80958 95.215 2.35372L85.9701 1.71613ZM66.5924 9.28438C72.6951 7.13716 79.172 6.25918 85.6261 6.70428L94.871 7.34187C100.693 7.74341 106.338 9.51818 111.342 12.5209C117.086 15.9671 121.785 20.9094 124.937 26.8196L128.5 33.5H136.654C138.602 33.5 140.536 33.8139 142.383 34.4297C147.314 36.0734 151.302 39.756 153.332 44.541L154.524 47.3508C155.828 50.4244 156.5 53.729 156.5 57.0677V68.289C156.5 70.9513 156.276 73.6088 155.831 76.2335L149.476 113.692L142.165 71.4143C140.96 64.4443 136.547 58.4469 130.251 55.2224L125.562 52.8203C120.553 50.2548 114.765 49.6594 109.338 51.1516L99.4403 53.8736C97.9286 54.2893 96.3679 54.5 94.8001 54.5H78.0176C76.5548 54.5 75.0977 54.3166 73.6805 53.954L62.1838 51.013C56.7117 49.6132 50.9134 50.3226 45.9403 53.0005L41.5069 55.3877C35.6635 58.5341 31.5072 64.0998 30.1498 70.5962L20.402 117.246L13.0813 84.9131C11.7366 78.9739 11.5465 72.8316 12.5212 66.8205L13.7841 59.0329C15.7264 47.0552 22.1789 36.2751 31.8177 28.9042L43.7205 19.8021C47.6846 16.7708 52.1015 14.383 56.8089 12.7267L66.5924 9.28438Z" fill="#131520"/>
<path fill-rule="evenodd" clip-rule="evenodd" d="M69.7643 13.1145C69.7225 12.2872 70.3593 11.5825 71.1867 11.5407C91.6999 10.504 111.029 21.1819 121.071 39.0988L124.808 45.7666C125.214 46.4892 124.956 47.4034 124.233 47.8085C123.511 48.2135 122.597 47.9561 122.192 47.2334L118.454 40.5656C108.969 23.643 90.713 13.5577 71.3381 14.5369C70.5107 14.5787 69.8061 13.9419 69.7643 13.1145Z" fill="#2E221C"/>
<path fill-rule="evenodd" clip-rule="evenodd" d="M46.0412 23.423C45.948 22.5999 46.5397 21.857 47.3629 21.7638C67.196 19.5186 86.5185 29.0382 96.8238 46.1319L97.7846 47.7255C98.2123 48.435 97.9839 49.3569 97.2745 49.7846C96.565 50.2123 95.6431 49.9839 95.2154 49.2745L94.2546 47.6808C84.5549 31.5917 66.3679 22.6315 47.7004 24.7448C46.8772 24.838 46.1344 24.2462 46.0412 23.423Z" fill="#2E221C"/>
<path fill-rule="evenodd" clip-rule="evenodd" d="M23.1584 43.6708C22.7879 42.9299 23.0882 42.0288 23.8292 41.6584L26.5309 40.3075C42.2163 32.4648 61.1603 35.539 73.5607 47.9393C74.1464 48.5251 74.1464 49.4749 73.5607 50.0607C72.9749 50.6465 72.0251 50.6465 71.4393 50.0607C59.9521 38.5734 42.403 35.7256 27.8726 42.9908L25.1708 44.3416C24.4299 44.7121 23.5288 44.4118 23.1584 43.6708Z" fill="#2E221C"/>
<path d="M77 106.535L84.439 107.329C85.1443 107.404 85.8557 107.404 86.561 107.329L94 106.535L91.5 109.256V114.698L87.7113 113.839C86.2556 113.509 84.7444 113.509 83.2887 113.839L79.5 114.698V109.256L77 106.535Z" fill="#3D1606"/>
<path d="M157 108.018C157 107.456 156.424 107 155.714 107H148L149.929 119H151.527C152.103 119 152.608 118.697 152.765 118.259L153.626 115.846C153.728 115.563 153.979 115.328 154.315 115.202L156.263 114.475C156.713 114.307 157 113.949 157 113.555V108.018Z" fill="#3D1606"/>
<path fill-rule="evenodd" clip-rule="evenodd" d="M155.714 107C156.424 107 157 107.456 157 108.018V113.555C157 113.949 156.713 114.307 156.263 114.475L154.315 115.202C153.979 115.328 153.728 115.563 153.626 115.846L152.765 118.259C152.608 118.697 152.103 119 151.527 119H149.929L148 107H155.714Z" fill="#3D1606"/>
<path d="M14 108.018C14 107.456 14.5756 107 15.2857 107H23L21.0714 119H19.4726C18.8973 119 18.3919 118.697 18.2354 118.259L17.3736 115.846C17.2724 115.563 17.0212 115.328 16.6848 115.202L14.7373 114.475C14.2872 114.307 14 113.949 14 113.555V108.018Z" fill="#3D1606"/>
<path fill-rule="evenodd" clip-rule="evenodd" d="M34.1553 99.5C32.3758 99.5 30.6167 99.88 28.9958 100.615L26.3405 101.818C21.871 103.843 19 108.296 19 113.203V126.925C19 132.998 22.3213 138.585 27.6564 141.486C30.0864 142.808 32.8085 143.5 35.5746 143.5H60.7709C63.842 143.5 66.8056 142.369 69.0964 140.324L71.1462 138.494C78.0518 132.328 82 123.509 82 114.251V112.285C82 109.397 80.3417 106.765 77.7364 105.519L69.7576 101.703C66.7263 100.253 63.4087 99.5 60.0485 99.5H34.1553ZM31.0596 105.169C32.0322 104.728 33.0876 104.5 34.1553 104.5H60.0485C62.662 104.5 65.2423 105.085 67.6 106.213L75.5788 110.03C76.4472 110.445 77 111.322 77 112.285V114.251C77 122.085 73.6592 129.547 67.816 134.764L65.7662 136.594C64.3917 137.822 62.6135 138.5 60.7709 138.5H35.5746C33.643 138.5 31.742 138.017 30.0451 137.094C26.3193 135.068 24 131.166 24 126.925V113.203C24 110.259 25.7226 107.587 28.4043 106.372L31.0596 105.169Z" fill="#3D1606"/>
<path fill-rule="evenodd" clip-rule="evenodd" d="M136.845 99.5C138.624 99.5 140.383 99.88 142.004 100.615L144.66 101.818C149.129 103.843 152 108.296 152 113.203V126.925C152 132.998 148.679 138.585 143.344 141.486C140.914 142.808 138.191 143.5 135.425 143.5H110.229C107.158 143.5 104.194 142.369 101.904 140.324L99.8538 138.494C92.9482 132.328 89 123.509 89 114.251V112.285C89 109.397 90.6583 106.765 93.2636 105.519L101.242 101.703C104.274 100.253 107.591 99.5 110.952 99.5H136.845ZM139.94 105.169C138.968 104.728 137.912 104.5 136.845 104.5H110.952C108.338 104.5 105.758 105.085 103.4 106.213L95.4212 110.03C94.5528 110.445 94 111.322 94 112.285V114.251C94 122.085 97.3408 129.547 103.184 134.764L105.234 136.594C106.608 137.822 108.386 138.5 110.229 138.5H135.425C137.357 138.5 139.258 138.017 140.955 137.094C144.681 135.068 147 131.166 147 126.925V113.203C147 110.259 145.277 107.587 142.596 106.372L139.94 105.169Z" fill="#3D1606"/>
<defs>
<filter id="filter0_d_0_1" x="0.974709" y="110.1" width="167.551" height="61.7808" filterUnits="userSpaceOnUse" color-interpolation-filters="sRGB">
<feFlood flood-opacity="0" result="BackgroundImageFix"/>
<feColorMatrix in="SourceAlpha" type="matrix" values="0 0 0 0 0 0 0 0 0 0 0 0 0 0 0 0 0 0 127 0" result="hardAlpha"/>
<feOffset dy="4"/>
<feGaussianBlur stdDeviation="2"/>
<feComposite in2="hardAlpha" operator="out"/>
<feColorMatrix type="matrix" values="0 0 0 0 0 0 0 0 0 0 0 0 0 0 0 0 0 0 0.25 0"/>
<feBlend mode="normal" in2="BackgroundImageFix" result="effect1_dropShadow_0_1"/>
<feBlend mode="normal" in="SourceGraphic" in2="effect1_dropShadow_0_1" result="shape"/>
</filter>
<filter id="filter1_d_0_1" x="12.0666" y="27.4908" width="144.85" height="199.416" filterUnits="userSpaceOnUse" color-interpolation-filters="sRGB">
<feFlood flood-opacity="0" result="BackgroundImageFix"/>
<feColorMatrix in="SourceAlpha" type="matrix" values="0 0 0 0 0 0 0 0 0 0 0 0 0 0 0 0 0 0 127 0" result="hardAlpha"/>
<feOffset dy="4"/>
<feGaussianBlur stdDeviation="2"/>
<feComposite in2="hardAlpha" operator="out"/>
<feColorMatrix type="matrix" values="0 0 0 0 0 0 0 0 0 0 0 0 0 0 0 0 0 0 0.25 0"/>
<feBlend mode="normal" in2="BackgroundImageFix" result="effect1_dropShadow_0_1"/>
<feBlend mode="normal" in="SourceGraphic" in2="effect1_dropShadow_0_1" result="shape"/>
</filter>
</defs>
</svg>
