<svg width="48" height="48" viewBox="0 0 48 48" fill="none" xmlns="http://www.w3.org/2000/svg">
<path d="M23.9229 24.6092C24.2061 24.6092 24.4369 24.7409 24.6153 25.0043C24.8155 25.2677 24.9382 25.6299 24.9835 26.0909C25.0697 26.969 24.9296 27.6495 24.5631 28.1324C23.7012 29.3398 22.8048 30.3057 21.8737 31.0301C20.9427 31.7545 19.7909 32.1167 18.4182 32.1167C16.7406 32.1167 15.3424 31.6337 14.2235 30.6679C13.1046 29.702 12.4664 28.4178 12.309 26.8153C12.2249 25.9592 12.6003 25.3446 13.4351 24.9714C14.3528 24.5543 14.996 24.1153 15.3647 23.6543C15.7312 23.1713 15.881 22.5896 15.8142 21.9091C15.7754 21.514 15.6591 21.2176 15.4654 21.02C15.2935 20.8225 15.0877 20.7237 14.848 20.7237C14.2598 20.7237 13.6482 21.1518 13.0133 22.0079C12.4002 22.864 11.8555 23.9726 11.3791 25.3336C10.9006 26.6726 10.5572 28.0556 10.3487 29.4825C10.2104 30.5142 9.99617 31.2167 9.70602 31.5898C9.4355 31.9411 8.96253 32.1167 8.28713 32.1167C7.61172 32.1167 7.08689 31.8752 6.71264 31.3923C6.35802 30.8874 6.07557 30.1191 5.86528 29.0873C5.655 28.0556 5.45174 26.5409 5.25551 24.5433C4.92344 21.1627 4.91505 17.6395 5.23034 13.9735C5.56743 10.3076 6.27865 7.23431 7.36402 4.75376C8.46901 2.25125 9.95836 1 11.8321 1C12.8343 1 13.6836 1.43904 14.3799 2.31711C15.0958 3.17323 15.5217 4.29277 15.6575 5.67573C15.8753 7.89287 15.459 10.1978 14.4086 12.5906C13.356 14.9613 11.5372 17.7383 8.95216 20.9213C8.99893 22.0628 9.08162 23.2372 9.20022 24.4445C9.97647 21.7006 10.9796 19.7139 12.2097 18.4846C13.4376 17.2334 14.6398 16.6077 15.8163 16.6077C16.9057 16.6077 17.8138 16.9809 18.5408 17.7273C19.2895 18.4736 19.7178 19.3956 19.8256 20.4932C19.9442 21.7006 19.7481 22.8091 19.2372 23.8189C18.7263 24.8287 17.769 25.7287 16.3651 26.519C16.5104 27.1117 16.8193 27.5946 17.2917 27.9678C17.7838 28.319 18.3457 28.4946 18.9775 28.4946C19.6529 28.4946 20.2807 28.2312 20.8608 27.7044C21.4408 27.1775 22.1825 26.2995 23.0858 25.0702C23.317 24.7628 23.596 24.6092 23.9229 24.6092ZM11.466 4.25984C11.0738 4.25984 10.6941 4.83059 10.3269 5.97208C9.95759 7.09163 9.63903 8.61728 9.37126 10.549C9.12311 12.4588 8.96847 14.5443 8.90734 16.8053C10.1007 15.2028 11.0405 13.4576 11.7265 11.5698C12.4344 9.68194 12.7128 7.9697 12.5619 6.43307C12.4929 5.73061 12.3638 5.19279 12.1746 4.81961C11.9854 4.44643 11.7492 4.25984 11.466 4.25984Z" fill="black"/>
<path d="M34.88 21.9091C35.0503 23.6433 34.809 25.2897 34.156 26.8483C33.5226 28.3849 32.5888 29.6361 31.3546 30.602C30.1423 31.5679 28.7866 32.0728 27.2876 32.1167C27.4205 36.3534 27.125 39.8876 26.4009 42.7194C25.679 45.5731 24.3485 47 22.4095 47C21.2329 47 20.3194 46.5719 19.6688 45.7158C19.0183 44.8597 18.6186 43.6743 18.4698 42.1596C18.2585 40.0084 18.5018 37.4949 19.1997 34.6192C19.8998 31.7655 21.1046 28.6154 22.8141 25.1689C22.4993 21.964 22.2586 19.7359 22.0921 18.4846C22.0078 17.848 22.2088 17.3431 22.695 16.9699C23.1812 16.5968 23.8165 16.4102 24.6009 16.4102C25.0584 16.4102 25.3949 16.5089 25.6104 16.7065C25.8455 16.8821 26.0009 17.2443 26.0766 17.7931C26.1306 18.3419 26.1813 18.748 26.229 19.0115C26.8399 18.1334 27.4648 17.5078 28.1035 17.1346C28.7401 16.7394 29.4397 16.5419 30.2023 16.5419C31.4224 16.5419 32.4622 17.0358 33.3218 18.0236C34.2032 19.0115 34.7226 20.3066 34.88 21.9091ZM27.1405 28.9556C27.9076 28.78 28.5845 28.3519 29.1713 27.6714C29.7777 26.969 30.2274 26.1129 30.5203 25.1031C30.8112 24.0713 30.9016 22.9957 30.7916 21.8762C30.7269 21.2176 30.5477 20.7237 30.2539 20.3944C29.9579 20.0432 29.5921 19.8676 29.1564 19.8676C28.372 19.8676 27.5062 20.7017 26.5589 22.3701C26.632 23.336 26.7602 24.7519 26.9435 26.6178C27.0427 27.6275 27.1083 28.4068 27.1405 28.9556ZM22.3539 43.7731C22.9422 43.7731 23.3052 42.4779 23.4429 39.8876C23.5828 37.3193 23.5185 34.1143 23.2501 30.2727C22.5289 32.4679 21.994 34.5643 21.6456 36.5619C21.2971 38.5595 21.1897 40.2388 21.3234 41.5999C21.3924 42.3023 21.5324 42.8401 21.7434 43.2133C21.9325 43.5865 22.136 43.7731 22.3539 43.7731Z" fill="black"/>
<path d="M40.1322 32.1167C39.1736 32.1167 38.4178 31.8533 37.865 31.3264C37.3339 30.7996 37.0263 30.1081 36.9422 29.252C36.8452 28.2641 37.0399 27.4739 37.5264 26.8812C38.0346 26.2885 38.7899 25.9921 39.7921 25.9921C40.7507 25.9921 41.4934 26.2336 42.0202 26.7165C42.5666 27.1775 42.8851 27.869 42.9756 28.791C43.0748 29.8008 42.8714 30.613 42.3653 31.2276C41.857 31.8203 41.1127 32.1167 40.1322 32.1167Z" fill="black"/>
<path d="M11.8016 0C13.1223 0 14.2292 0.594651 15.0828 1.66031H15.0837C15.9526 2.69858 16.4343 4.01743 16.5848 5.54906L16.6211 6.00187C16.7622 8.27122 16.2945 10.5947 15.2558 12.9591L15.2539 12.9628C14.7929 14.0004 14.1948 15.1024 13.4654 16.2694C14.214 15.8609 14.9911 15.6347 15.7961 15.6347C17.1245 15.6347 18.2804 16.0989 19.1964 17.0334L19.3638 17.2069C20.1757 18.0874 20.6417 19.1617 20.7627 20.3925L20.784 20.6503C20.8689 21.9333 20.6368 23.1423 20.0735 24.255C19.5544 25.2802 18.6897 26.1552 17.5549 26.9062C17.6372 27.0157 17.7346 27.115 17.8479 27.2062C18.1667 27.4273 18.5287 27.5428 18.9649 27.5428V28.5028L18.7305 28.4944C18.2689 28.4614 17.8466 28.3294 17.4637 28.0987L17.2749 27.975C16.8014 27.6012 16.4916 27.1173 16.3458 26.5237C17.6654 25.7815 18.5913 24.9421 19.1239 24.0066L19.2253 23.8181C19.7052 22.87 19.9079 21.8351 19.8335 20.7131L19.8149 20.4872C19.7136 19.4564 19.3305 18.58 18.6644 17.8584L18.5277 17.7159C17.8446 17.0151 17.0013 16.6432 15.9989 16.5994L15.7961 16.5947C14.6167 16.5947 13.4111 17.2219 12.1801 18.4753L11.9522 18.7144C10.8226 19.9577 9.89263 21.8681 9.16298 24.4453C9.04409 23.2359 8.96154 22.0591 8.91466 20.9156C11.3441 17.9265 13.0986 15.295 14.1779 13.0209L14.3843 12.5709C15.3716 10.3237 15.8009 8.15354 15.6706 6.06094L15.6371 5.64375C15.5094 4.34506 15.1263 3.27802 14.4876 2.44312L14.3555 2.27906C13.7012 1.45474 12.9123 1.01624 11.9885 0.964687L11.8016 0.96C9.92326 0.960106 8.43011 2.21356 7.3224 4.72031L7.12337 5.19281C6.14719 7.59194 5.50011 10.5128 5.18327 13.9556L5.1284 14.6428C4.87008 18.0689 4.89627 21.3698 5.20838 24.5447C5.40509 26.5456 5.60956 28.0628 5.82036 29.0962C6.03117 30.1297 6.31401 30.8996 6.6695 31.4053C6.99783 31.8286 7.44184 32.0668 8.00134 32.1197L8.24781 32.1309C8.92491 32.1309 9.3996 31.955 9.6708 31.6031C9.96162 31.2293 10.1758 30.5253 10.3144 29.4919C10.4972 28.2414 10.7837 27.0244 11.1738 25.8412L11.3477 25.3359C11.8252 23.9726 12.3718 22.8617 12.9864 22.0041C13.6228 21.1468 14.2356 20.7179 14.8252 20.7178C15.0654 20.7178 15.2722 20.8171 15.4446 21.015C15.6386 21.2129 15.7554 21.51 15.7943 21.9056C15.8613 22.5872 15.7106 23.1703 15.3432 23.6541L15.1916 23.8256C14.808 24.2249 14.2137 24.6075 13.4087 24.9731L13.2571 25.0462C12.5267 25.425 12.2007 26.0162 12.2796 26.82C12.4374 28.4253 13.0776 29.7121 14.1992 30.6797C15.2508 31.5867 16.5486 32.0686 18.0925 32.1253L18.404 32.1309C18.9614 32.1309 19.4827 32.07 19.9675 31.9509C19.661 32.8739 19.4012 33.7696 19.1881 34.6378L19.0625 35.1731C18.4599 37.8315 18.2575 40.1708 18.4561 42.1912C18.6053 43.7085 19.0056 44.8962 19.6577 45.7537C20.2692 46.5577 21.1127 46.985 22.1875 47.0353L22.4061 47.04C24.3498 47.0398 25.6835 45.6104 26.4072 42.7519C27.133 39.9152 27.4296 36.3749 27.2963 32.1309C28.7989 32.0869 30.1584 31.5806 31.3737 30.6131C32.6107 29.6456 33.5466 28.3919 34.1815 26.8528C34.7952 25.3892 35.0466 23.8483 34.9349 22.23L34.907 21.9056C34.759 20.4006 34.2922 19.1663 33.5063 18.2025L33.3454 18.0131C32.5376 17.0855 31.5709 16.5927 30.4455 16.5347L30.2176 16.5291C29.4533 16.5291 28.7519 16.7267 28.1138 17.1225C27.4735 17.4963 26.8476 18.1236 26.2351 19.0031C26.1873 18.7393 26.1357 18.3322 26.0816 17.7825C26.0152 17.3013 25.8882 16.9629 25.6994 16.7681L25.6148 16.6941C25.4258 16.521 25.1439 16.4233 24.7693 16.4016L24.6029 16.3969C23.8165 16.3969 23.179 16.5837 22.6916 16.9575L22.5223 17.1037C22.1583 17.4597 22.014 17.9173 22.088 18.4753C22.2549 19.7288 22.496 21.9607 22.8116 25.1709C22.6892 25.4174 22.5697 25.6625 22.4526 25.9059C21.8263 26.7092 21.2933 27.3109 20.8529 27.7106C20.2713 28.2384 19.6419 28.5028 18.9649 28.5028V27.5428C19.3703 27.5428 19.7801 27.3926 20.2158 26.9972L20.4157 26.8078C20.7533 26.4733 21.1599 26.0049 21.6397 25.3941C21.7042 25.2606 21.77 25.1271 21.8359 24.9928C21.5335 21.9287 21.3037 19.8025 21.144 18.6028V18.6019C21.0165 17.64 21.3413 16.7868 22.115 16.1934L22.247 16.0978C22.9175 15.6337 23.726 15.4369 24.6029 15.4369C25.1556 15.4369 25.7575 15.5501 26.2212 15.9544C26.5244 16.1957 26.715 16.5236 26.8396 16.8703C27.0924 16.651 27.3526 16.4593 27.6228 16.3003C28.412 15.8127 29.2839 15.5691 30.2176 15.5691C31.7312 15.5691 33.0249 16.1958 34.0522 17.3709H34.0532C35.0993 18.5425 35.6812 20.0461 35.8547 21.8109L35.8844 22.1644C36.006 23.9265 35.7324 25.6163 35.0604 27.2212L35.0613 27.2222C34.3678 28.9035 33.3342 30.2914 31.9624 31.3659L31.9633 31.3669C30.8491 32.2539 29.6132 32.8046 28.2691 33.0066C28.3373 36.9105 28.0306 40.244 27.3289 42.9881L27.3298 42.9891C26.9466 44.5026 26.3771 45.7478 25.558 46.6256C24.7115 47.5328 23.641 47.9999 22.4061 48C20.9646 48 19.7548 47.4583 18.9025 46.3378C18.1565 45.3568 17.7246 44.0826 17.5419 42.5878L17.5084 42.2859C17.2828 39.991 17.5461 37.3591 18.2627 34.4091L18.2636 34.4072L18.405 33.8512C18.4717 33.5985 18.5429 33.3439 18.617 33.0872C18.5465 33.0889 18.4753 33.0909 18.404 33.0909C16.6462 33.0909 15.103 32.6119 13.8309 31.6153L13.5798 31.4091C12.5521 30.5225 11.8755 29.4071 11.5393 28.0978C11.4275 28.5989 11.3328 29.106 11.2575 29.6194L11.2584 29.6203C11.1185 30.6633 10.8818 31.5967 10.4214 32.1909L10.4223 32.1919C9.89125 32.8808 9.05925 33.0909 8.24781 33.0909C7.31502 33.0909 6.4964 32.7405 5.91895 31.9959L5.90499 31.9781L5.8929 31.9603C5.48412 31.3787 5.19018 30.6008 4.97494 29.6887L4.88751 29.2894C4.7218 28.4769 4.56342 27.3982 4.41132 26.0616L4.26065 24.6394C3.92148 21.1892 3.91386 17.5997 4.23461 13.8731L4.23554 13.8675L4.30437 13.1728C4.67243 9.73037 5.38077 6.77615 6.45094 4.33219L6.4528 4.32937L6.68066 3.84094C7.85515 1.45618 9.53543 0.000101949 11.8016 0ZM23.2487 30.2841C23.5178 34.132 23.5814 37.3423 23.4412 39.915L23.4133 40.3866C23.2574 42.6668 22.903 43.8071 22.3503 43.8075L22.2684 43.7991C22.1074 43.7639 21.9547 43.6233 21.8099 43.3781L21.7383 43.2469C21.5532 42.9198 21.4219 42.4663 21.3458 41.8866L21.317 41.6306C21.1997 40.4376 21.2669 39.0003 21.5197 37.3191L21.6397 36.5841C21.989 34.5831 22.5257 32.483 23.2487 30.2841ZM22.5595 36.8606C22.2343 38.7624 22.1446 40.3142 22.2647 41.5359L22.2907 41.7656C22.2939 41.7898 22.2976 41.8135 22.301 41.8369C22.3814 41.3286 22.4475 40.6748 22.4907 39.8634V39.8625L22.5326 38.8875C22.5534 38.2488 22.5615 37.5732 22.5595 36.8606ZM39.8316 25.0359C40.9317 25.0359 41.9227 25.3111 42.6757 25.9847H42.6767C42.6809 25.9882 42.6846 25.9924 42.6887 25.9959C42.6944 26.001 42.7008 26.0058 42.7064 26.0109H42.7055C43.4755 26.6756 43.8647 27.6201 43.9713 28.7044L43.989 28.9275C44.0575 30.0346 43.811 31.0444 43.1445 31.8534L43.1315 31.8684C42.3956 32.7258 41.3541 33.0909 40.1729 33.0909C39.0349 33.0909 38.0199 32.774 37.2461 32.0372L37.2386 32.0306L37.2321 32.0241C36.6073 31.4047 36.2318 30.6279 36.0788 29.7422L36.0267 29.3559C35.912 28.189 36.1337 27.1182 36.8266 26.2744L36.8331 26.2659L36.8405 26.2584C37.5804 25.3963 38.6363 25.036 39.8316 25.0359ZM39.8316 25.9959C38.827 25.996 38.0699 26.2929 37.5604 26.8866L37.4721 27C37.0493 27.5798 36.8833 28.3337 36.9745 29.2612C37.0588 30.1187 37.3676 30.811 37.8999 31.3387C38.3849 31.8006 39.0257 32.0611 39.8223 32.1187L40.1729 32.1309C41.0943 32.1309 41.8076 31.8699 42.313 31.3481L42.4116 31.2403C42.8555 30.7016 43.0675 30.0112 43.0468 29.1694L43.0236 28.7991C42.9328 27.8757 42.6132 27.1833 42.0656 26.7216C41.6036 26.2983 40.9757 26.0601 40.1822 26.0072L39.8316 25.9959ZM29.3303 19.8684C29.697 19.907 30.0102 20.0802 30.2697 20.3878C30.5642 20.7177 30.7443 21.2131 30.8091 21.8728C30.9193 22.9942 30.8281 24.0719 30.5366 25.1053C30.2429 26.1167 29.7922 26.9742 29.1843 27.6778C28.5961 28.3595 27.9174 28.7881 27.1484 28.9641C27.1323 28.6892 27.1078 28.3567 27.0749 27.9666L26.9513 26.6222C26.7675 24.7531 26.6386 23.3344 26.5653 22.3669C27.5149 20.6958 28.3832 19.86 29.1694 19.86L29.3303 19.8684ZM29.1694 20.82C29.1233 20.82 28.9339 20.8463 28.5863 21.1809C28.2834 21.4726 27.9326 21.9313 27.54 22.59C27.6151 23.5328 27.7335 24.8443 27.899 26.5275L27.9883 27.5081C28.1504 27.3785 28.3105 27.2272 28.4654 27.0478H28.4663L28.6505 26.8209C29.0681 26.2762 29.3948 25.6191 29.6224 24.8353C29.846 24.0395 29.9363 23.2103 29.8893 22.3425L29.8614 21.9675C29.8072 21.4159 29.6684 21.1493 29.5619 21.03L29.5526 21.0206L29.5442 21.0103C29.4184 20.8611 29.3117 20.82 29.1694 20.82ZM14.7629 21.6853C14.6044 21.7188 14.2656 21.8868 13.7584 22.5666L13.5547 22.8647C13.3066 23.2472 13.0677 23.6863 12.8376 24.1837C12.8968 24.1534 12.957 24.1249 13.0181 24.0975L13.3259 23.9512C13.9939 23.6183 14.388 23.3113 14.5927 23.0606C14.7652 22.8297 14.8651 22.5494 14.8568 22.1709L14.8466 22.0003C14.8202 21.7317 14.7542 21.6764 14.7675 21.69L14.7629 21.6853ZM11.4351 4.22531C11.7188 4.22545 11.9552 4.41253 12.1447 4.78594C12.3344 5.15971 12.4643 5.69866 12.5335 6.40219C12.6848 7.94149 12.4051 9.65699 11.6955 11.5481C11.0078 13.4391 10.0663 15.1873 8.87002 16.7925C8.93131 14.5276 9.08629 12.4384 9.33504 10.5253C9.60347 8.59045 9.92277 7.06234 10.293 5.94094L11.1961 6.24375C10.8521 7.28574 10.543 8.74907 10.2781 10.6584C10.1784 11.4263 10.0943 12.2244 10.0251 13.0528C10.3126 12.4576 10.5731 11.8468 10.8017 11.2181L10.8055 11.2087L10.9264 10.875C11.4681 9.33073 11.6816 7.96144 11.6062 6.75375L11.5858 6.49687C11.5486 6.11871 11.4923 5.82595 11.4323 5.60344C11.3603 5.77146 11.2815 5.98065 11.1989 6.23719L11.197 6.24375L10.293 5.94094C10.6611 4.79746 11.042 4.22531 11.4351 4.22531Z" fill="white"/>
</svg>
