<svg width="32" height="32" viewBox="0 0 32 32" fill="none" xmlns="http://www.w3.org/2000/svg">
<path fill-rule="evenodd" clip-rule="evenodd" d="M14.0506 0.756587C16.2213 -0.388472 18.85 -0.2241 20.8611 1.18245L26.4298 5.07703C30.1582 7.68458 30.1582 13.2055 26.4298 15.813L26.1626 15.9999L26.4298 16.1867C30.1582 18.7943 30.1582 24.3152 26.4298 26.9227L20.8611 30.8173C18.85 32.2239 16.2213 32.3882 14.0506 31.2432L5.49426 26.7296C3.34506 25.5959 2 23.3657 2 20.9358V11.064C2 8.63408 3.34506 6.40382 5.49426 5.27011L14.0506 0.756587ZM24.6421 13.2568L23.4413 14.0966L12.3048 6.30806C11.9809 6.08154 11.648 5.8892 11.3092 5.7294L15.506 3.51557C16.643 2.91578 18.0199 3.00187 19.0734 3.73864L24.6421 7.63322C26.5951 8.99908 26.5951 11.891 24.6421 13.2568ZM5.11931 20.3237V11.6761C5.11931 8.90077 8.24278 7.27368 10.5171 8.86425L12.2919 10.1055C11.3405 10.8706 10.7002 12.0425 10.7002 13.4502V18.5429C10.7002 19.9523 11.3424 21.1259 12.2963 21.8911L10.5171 23.1355C8.24278 24.7261 5.11931 23.099 5.11931 20.3237ZM20.7087 16.0077L17.8844 17.983L15.6819 19.5158C14.896 20.0628 13.8195 19.5004 13.8195 18.5429V13.4502C13.8195 12.4904 14.9006 11.9285 15.6861 12.4802L20.7087 16.0077ZM19.6692 20.5412L12.3048 25.6917C11.9809 25.9182 11.648 26.1106 11.3092 26.2703L15.506 28.4842C16.643 29.084 18.02 28.9979 19.0734 28.2611L24.6421 24.3665C26.5951 23.0007 26.5951 20.1088 24.6421 18.7429L23.4505 17.9096L19.6692 20.5412Z" fill="#F53D65"/>
</svg>
