<svg width="180" height="180" viewBox="0 0 180 180" fill="none" xmlns="http://www.w3.org/2000/svg">
<path fill-rule="evenodd" clip-rule="evenodd" d="M166.51 23.8046C155.26 15.9417 140.156 16.0755 129.049 24.1533L91.9559 51.1308C91.512 51.4537 90.9544 51.8634 90.3183 52.3334L51.1108 24.1041C41.442 17.1425 28.6852 16.0788 18.0071 21.2043C7.25096 26.3672 3.36215e-05 37.1994 0 49.532V133.617C0.00011945 145.95 7.25103 156.782 18.007 161.945C22.205 163.96 26.7215 165.017 31.2414 165.138C31.3378 165.146 31.4348 165.15 31.5322 165.15L119.12 165.15C132.532 165.15 144.905 156.81 149.397 143.744L178.301 59.6582C182.904 46.267 177.886 31.7556 166.51 23.8046ZM27.1037 40.1556C30.9027 38.3321 35.4533 38.734 38.8278 41.1637L89.0778 77.3436C90.2323 78.2007 91.2407 78.9451 91.9559 79.4652L97.2549 83.3192C100.106 85.393 101.602 88.4868 101.602 91.5748C101.602 94.6627 100.106 97.7565 97.2549 99.8304L85.2277 108.578L85.2141 108.588L38.8278 141.986C35.4533 144.415 30.9027 144.817 27.1037 142.994C23.3209 141.178 21.0215 137.519 21.0214 133.615L21.0214 49.532C21.0214 45.6278 23.3208 41.9714 27.1037 40.1556ZM18.9213 133.618L21.0214 133.615C21.0214 133.615 21.0214 133.618 18.9213 133.618ZM141.414 41.154C145.261 38.3558 150.563 38.306 154.467 41.0347C158.345 43.7453 159.899 48.5236 158.421 52.8247L129.517 136.91C128.055 141.165 123.902 144.128 119.12 144.128H72.0865L97.5376 125.618L97.5512 125.608L109.504 117.002C117.605 111.169 122.625 101.798 122.625 91.5746C122.625 81.3509 117.605 71.9798 109.504 66.1469L108.27 65.2588L141.414 41.154Z" fill="#389EE6"/>
</svg>
