<svg width="48" height="48" viewBox="0 0 48 48" fill="none" xmlns="http://www.w3.org/2000/svg">
<g clip-path="url(#clip0_1834_12)">
<path d="M43.8403 24.0004C46.511 18.1229 44.9403 10.7214 39.0776 6.63235L33.2124 2.54148C28.8796 -0.480486 23.2165 -0.833633 18.54 1.62652L9.52789 6.36755C4.89773 8.80332 2 13.5951 2 18.8157L2 29.1851C2 34.4057 4.89774 39.1974 9.52789 41.6332L18.54 46.3743C23.2165 48.8344 28.8796 48.4812 33.2124 45.4593L39.0776 41.3684C44.9403 37.2794 46.511 29.8779 43.8403 24.0004Z" fill="#95C8A5"/>
<path d="M37.1073 9.44192C42.0198 12.8683 42.9603 19.3883 39.9287 24.0004C42.9603 28.6125 42.0198 35.1325 37.1073 38.5588L31.242 42.6497C27.9648 44.9355 23.6813 45.2026 20.144 43.3418L11.1319 38.6007C7.62969 36.7584 5.43787 33.134 5.43787 29.1851L5.43787 18.8157C5.43787 14.8669 7.62969 11.2424 11.1319 9.40003L20.144 4.65901C23.6813 2.79814 27.9648 3.06528 31.242 5.35107L37.1073 9.44192Z" fill="#0E131B"/>
<path fill-rule="evenodd" clip-rule="evenodd" d="M29.2717 8.16063C27.05 6.61103 24.146 6.42994 21.7481 7.69147L12.7359 12.4325C10.3616 13.6815 8.87573 16.1387 8.87573 18.8157L8.87573 29.1851C8.87573 31.8621 10.3616 34.3193 12.7359 35.5683L21.7481 40.3093C24.146 41.5709 27.05 41.3898 29.2717 39.8401L35.1371 35.7492C39.2184 32.9026 39.2556 26.9044 35.2484 24.0004C39.2556 21.0964 39.2184 15.0982 35.1371 12.2515L29.2717 8.16063ZM23.5954 11.1841C24.6814 10.6128 25.9964 10.6949 27.0025 11.3966L32.8678 15.4874C34.7329 16.7884 34.7329 19.5428 32.8678 20.8436L31.7962 21.591L19.74 13.2123L23.5954 11.1841ZM12.8353 19.4586C12.8353 16.8153 15.8183 15.2656 17.9903 16.7805L19.5088 17.8396C18.618 18.6969 18.0394 19.9054 18.0394 21.3222L18.0394 26.6716C18.0394 28.0902 18.6198 29.3004 19.513 30.1582L17.9903 31.2202C15.8183 32.7352 12.8353 31.1855 12.8353 28.5421L12.8353 19.4586ZM21.9989 21.3222C21.9989 20.5861 22.8302 20.1553 23.4342 20.5783L28.3308 24.0081L25.7508 25.8076L23.431 27.4177C22.8266 27.8371 21.9989 27.4059 21.9989 26.6716L21.9989 21.3222ZM19.74 34.7884L28.0163 29.0461L31.8054 26.4162L32.8678 27.1572C34.7329 28.458 34.7329 31.2124 32.8678 32.5133L27.0025 36.6042C25.9964 37.3059 24.6814 37.3879 23.5954 36.8167L19.74 34.7884Z" fill="#F7F9FB"/>
</g>
<defs>
<clipPath id="clip0_1834_12">
<rect width="43.3171" height="47.9993" fill="white" transform="translate(2 0.000732422)"/>
</clipPath>
</defs>
</svg>
