<svg width="48" height="48" viewBox="0 0 48 48" fill="none" xmlns="http://www.w3.org/2000/svg">
<g clip-path="url(#clip0_1834_12)">
<path fill-rule="evenodd" clip-rule="evenodd" d="M15.0179 41.3999C14.423 41.3997 13.8416 41.3014 13.2943 41.1168C13.2866 41.1142 13.2789 41.1116 13.2712 41.1089C11.9541 40.658 10.8362 39.7052 10.1915 38.4175L12.3214 37.3511C12.6709 38.0431 13.2809 38.5877 14.0466 38.8443L14.0512 38.8458C14.3682 38.9515 14.6909 39.0013 15.0092 39.0002M12 32.1594V35.9998C12 36.4803 12.1136 36.938 12.3189 37.3463L12.3214 37.3511L10.1915 38.4175L10.191 38.4165C9.80858 37.6523 9.62003 36.8238 9.62008 35.9999C9.62023 34.8559 9.98424 33.7166 10.6966 32.7647M30.8567 18.8574L34.9194 13.4404C35.5493 12.6006 35.5602 11.4488 34.9464 10.5972C34.3326 9.74556 33.2365 9.39171 32.2405 9.72369L24.5644 12.2824L16.5178 14.9646L14.6512 15.5868L14.2409 15.7235C13.2609 16.0502 12.5999 16.9673 12.5999 18.0003V18.4311V18.4328V20.2036V20.2053V29.2199L19.1958 20.4055C19.2658 20.312 19.3382 20.2209 19.4129 20.1323C20.5482 18.7858 22.2235 18.0013 23.9963 18.0004C24.6785 18 25.3463 18.1156 25.9746 18.3347C26.3347 18.4603 26.682 18.6199 27.0115 18.8111C27.0416 18.8286 27.0716 18.8464 27.1015 18.8644C27.1588 18.899 27.2155 18.9346 27.2717 18.9711C27.8535 19.3496 28.3723 19.8308 28.7995 20.4003L29.2495 21.0003L30.8567 18.8574ZM13.3993 41.7825C13.3001 41.7549 13.2012 41.7248 13.1025 41.6919C11.5713 41.1815 10.3516 40.0945 9.65207 38.7205C9.64762 38.7117 9.6432 38.703 9.63879 38.6942C9.22749 37.8764 9 36.9581 9 35.9999V18.0003C9 15.4178 10.6525 13.125 13.1025 12.3084L31.1021 6.3085C33.2807 5.58231 35.6511 6.16882 37.2377 7.75313C37.4643 7.97946 37.675 8.22615 37.8668 8.49229C39.2095 10.3553 39.3565 12.7927 38.3173 14.7795C38.1688 15.0633 37.9962 15.3379 37.7994 15.6004L31.4994 24.0003L37.7993 32.4C39.1628 34.2181 39.3822 36.6505 38.3658 38.6832C37.3495 40.7158 35.272 41.9998 32.9994 41.9998M35.2494 24.0003L40.1993 17.4004C42.2662 14.6446 42.5559 10.9933 41.054 7.98406C40.8394 7.55417 40.5883 7.13737 40.3005 6.73816C37.9986 3.54448 33.8882 2.21754 30.1535 3.46246L12.1539 9.46232C8.47883 10.6873 6 14.1265 6 18.0003V35.9999C6 36.0055 6.00001 36.0111 6.00002 36.0168C6.00658 39.5606 8.08746 42.7383 11.2597 44.1861C11.5489 44.3181 11.8472 44.4357 12.1539 44.5379C12.2719 44.5773 12.3904 44.6141 12.5092 44.6483C13.3645 44.8949 14.2362 45.0094 15.0982 44.9998H32.9994C36.4083 44.9998 39.5246 43.0738 41.0491 40.0248C42.5736 36.9758 42.2446 33.3272 40.1993 30.6L35.2494 24.0003ZM38.9994 24.0003L42.5993 19.2004C45.7488 15.0011 45.8034 9.24229 42.7343 4.98403C39.6651 0.725774 34.1845 -1.04349 29.2048 0.616405L11.2052 6.61627C6.30512 8.24962 3 12.8352 3 18.0003V35.9999C3 41.165 6.30513 45.7507 11.2052 47.384C12.4889 47.8119 13.8092 48.0124 15.1138 47.9998H32.9994C37.5446 47.9998 41.6997 45.4318 43.7324 41.3665C45.7651 37.3011 45.3264 32.4362 42.5993 28.8L38.9994 24.0003ZM20.6997 38.3999H32.9994C33.9084 38.3999 34.7394 37.8863 35.146 37.0732C35.5525 36.2602 35.4648 35.2872 34.9193 34.56L34.1993 33.5999M34.1993 33.5999L34.9193 34.56L34.1993 33.5999ZM34.1993 33.5999L31.6495 30.2002L31.647 30.1968L29.2495 27.0002L24.2997 33.5999L24.298 33.6021L20.6997 38.3999M26.6997 35.3999H31.7993L29.2495 32.0002L26.6997 35.3999ZM28.9075 16.4563L31.3669 13.1772L25.5131 15.1284C26.2254 15.25 26.9169 15.4563 27.5734 15.7404C27.9451 15.9012 28.3056 16.0869 28.6523 16.2963C28.7382 16.3482 28.8233 16.4015 28.9075 16.4563ZM16.9284 18.4328C17.0988 18.2164 17.2781 18.009 17.4658 17.8109L15.5999 18.4328V20.2036L16.7939 18.6081C16.8381 18.549 16.8829 18.4906 16.9284 18.4328ZM15.024 38.3999H15.02C14.7512 38.3999 14.4892 38.355 14.2429 38.2707C13.657 38.0701 13.1604 37.6464 12.874 37.0744C12.7038 36.7344 12.62 36.3663 12.6201 35.9999C12.6201 35.4909 12.782 34.9851 13.0985 34.5621L22.0781 22.5623C22.5309 21.9572 23.2424 21.6007 23.9983 21.6003C24.3166 21.6001 24.6271 21.6631 24.9138 21.7812C25.3079 21.9436 25.657 22.2102 25.9195 22.5603L26.9995 24.0003L16.9198 37.4399C16.4629 38.0491 15.7564 38.3924 15.024 38.3999Z" fill="#FBB828"/>
<path fill-rule="evenodd" clip-rule="evenodd" d="M24.9138 21.7813C24.6271 21.6631 24.3166 21.6001 23.9983 21.6003C23.2424 21.6007 22.5309 21.9572 22.0781 22.5624L13.0985 34.5621C12.782 34.9851 12.6201 35.4909 12.6201 36C12.62 36.3664 12.7038 36.7344 12.874 37.0744C13.1604 37.6465 13.657 38.0701 14.2429 38.2707C14.4892 38.355 14.7512 38.3999 15.02 38.3999H15.024C15.7564 38.3925 16.4629 38.0492 16.9198 37.4399L26.9995 24.0003L25.9195 22.5603C25.657 22.2103 25.3079 21.9437 24.9138 21.7813ZM20.6997 38.3999H32.9994C33.9084 38.3999 34.7394 37.8863 35.146 37.0733C35.5525 36.2602 35.4648 35.2873 34.9193 34.56L29.2495 27.0002L20.6997 38.3999ZM26.6997 35.3999H31.7993L29.2495 32.0002L26.6997 35.3999ZM37.7993 32.4001C39.1628 34.2181 39.3822 36.6506 38.3658 38.6832C37.3495 40.7159 35.272 41.9999 32.9994 41.9999H15.0645C15.0497 42 15.0349 42.0001 15.02 42.0002C14.3803 42.0024 13.7332 41.9022 13.1025 41.6919C11.5616 41.1783 10.336 40.0806 9.63879 38.6943C9.22749 37.8764 9 36.9581 9 36V18.0004C9 15.4178 10.6525 13.1251 13.1025 12.3084L31.1021 6.30854C33.592 5.4786 36.3322 6.36322 37.8668 8.49232C39.4014 10.6214 39.3741 13.5008 37.7994 15.6004L31.4994 24.0003L37.7993 32.4001ZM35.2494 24.0003L40.1993 30.6001C42.2446 33.3272 42.5736 36.9758 41.0491 40.0249C39.5246 43.0739 36.4083 44.9999 32.9994 44.9999H15.0982C14.1165 45.0108 13.1223 44.8608 12.1539 44.538C8.47883 43.313 6 39.8738 6 36V18.0004C6 14.1266 8.47883 10.6874 12.1539 9.46235L30.1535 3.46249C33.8882 2.21757 37.9987 3.54451 40.3005 6.73819C42.6024 9.93187 42.5614 14.251 40.1993 17.4004L35.2494 24.0003ZM34.9194 13.4405C35.5493 12.6006 35.5602 11.4489 34.9464 10.5972C34.3326 9.74559 33.2365 9.39174 32.2405 9.72372L14.2409 15.7236C13.2609 16.0503 12.5999 16.9674 12.5999 18.0004V29.2199L19.1958 20.4055C20.328 18.8926 22.1067 18.0014 23.9963 18.0004C25.1054 17.9998 26.1765 18.3059 27.1015 18.8644C27.7525 19.2576 28.3311 19.7759 28.7995 20.4003L29.2495 21.0004L34.9194 13.4405ZM28.9075 16.4564L31.3669 13.1772L25.5131 15.1285C26.7284 15.3358 27.8831 15.79 28.9075 16.4564ZM15.5999 20.2037L16.7939 18.6081C17.0036 18.3279 17.228 18.0619 17.4658 17.8109L15.5999 18.4329V20.2037Z" fill="black"/>
<path fill-rule="evenodd" clip-rule="evenodd" d="M28.7995 20.4004C27.6657 18.8887 25.886 17.9994 23.9964 18.0004C22.1067 18.0015 20.328 18.8926 19.1958 20.4056L10.2163 32.4053C8.85538 34.2239 8.63814 36.6551 9.65505 38.6861C10.672 40.7172 12.7486 41.9999 15.02 41.9999H32.9994C35.272 41.9999 37.3495 40.7159 38.3658 38.6832C39.3822 36.6506 39.1628 34.2182 37.7993 32.4001L28.7995 20.4004ZM25.9196 22.5603C25.466 21.9556 24.7542 21.5999 23.9983 21.6003C23.2424 21.6008 22.5309 21.9572 22.0781 22.5624L13.0985 34.5621C12.5542 35.2896 12.4673 36.262 12.874 37.0745C13.2808 37.8869 14.1115 38.4 15.02 38.4H32.9994C33.9084 38.4 34.7394 37.8864 35.146 37.0733C35.5525 36.2603 35.4648 35.2873 34.9193 34.5601L25.9196 22.5603Z" fill="white"/>
<path fill-rule="evenodd" clip-rule="evenodd" d="M37.7994 15.6005C39.3741 13.5009 39.4014 10.6215 37.8668 8.49235C36.3322 6.36325 33.592 5.47863 31.1021 6.30857L13.1025 12.3084C10.6525 13.1251 9 15.4179 9 18.0004V36C9 38.5825 10.6525 40.8753 13.1025 41.692C15.5525 42.5086 18.2502 41.6659 19.7998 39.5999L37.7994 15.6005ZM34.9194 13.4405C35.5493 12.6007 35.5602 11.4489 34.9464 10.5973C34.3326 9.74562 33.2365 9.39177 32.2405 9.72375L14.2409 15.7236C13.2609 16.0503 12.5999 16.9674 12.5999 18.0004V36C12.5999 37.033 13.2609 37.9501 14.2409 38.2768C15.2209 38.6034 16.3 38.2664 16.9198 37.44L34.9194 13.4405Z" fill="white"/>
</g>
<defs>
<clipPath id="clip0_1834_12">
<rect width="43.3171" height="47.9993" fill="white" transform="translate(2 0.000732422)"/>
</clipPath>
</defs>
</svg>
