<svg width="32" height="32" viewBox="0 0 32 32" fill="none" xmlns="http://www.w3.org/2000/svg">
<path fill-rule="evenodd" clip-rule="evenodd" d="M29.6017 4.23203C27.6017 2.83418 24.9166 2.85798 22.9421 4.29403L16.3477 9.09003C16.2688 9.14743 16.1697 9.22026 16.0566 9.30383L9.08636 4.28527C7.36746 3.04767 5.09959 2.85856 3.20125 3.76976C1.28906 4.68761 5.97715e-06 6.61334 0 8.80579V23.7543C2.12356e-05 25.9468 1.28907 27.8725 3.20125 28.7903C3.94755 29.1485 4.75049 29.3365 5.55403 29.3579C5.57116 29.3594 5.5884 29.3601 5.60572 29.3601L21.1769 29.3601C23.5612 29.3601 25.761 27.8774 26.5594 25.5546L31.6979 10.606C32.5162 8.22536 31.6241 5.64555 29.6017 4.23203ZM4.81843 7.13889C5.49381 6.8147 6.30281 6.88615 6.90273 7.31809L15.8361 13.7501C16.0413 13.9024 16.2206 14.0348 16.3477 14.1273L17.2898 14.8124C17.7967 15.1811 18.0626 15.7311 18.0626 16.2801C18.0626 16.829 17.7967 17.379 17.2898 17.7477L15.1516 19.3028L15.1492 19.3046L6.90273 25.242C6.30281 25.6739 5.49381 25.7454 4.81843 25.4212C4.14593 25.0984 3.73716 24.4479 3.73714 23.7538L3.73714 8.80579C3.73714 8.11172 4.14593 7.46169 4.81843 7.13889ZM3.36378 23.7544L3.73714 23.7538C3.73714 23.7538 3.73714 23.7543 3.36378 23.7544ZM25.1402 7.31637C25.8242 6.81891 26.7667 6.81006 27.4608 7.29516C28.1503 7.77705 28.4266 8.62652 28.1637 9.39117L23.0253 24.3397C22.7653 25.0961 22.0269 25.6229 21.1769 25.6229H12.8154L17.34 22.3322L17.3424 22.3304L19.4673 20.8005C20.9075 19.7636 21.8 18.0976 21.8 16.28C21.8 14.4625 20.9075 12.7965 19.4673 11.7596L19.248 11.6017L25.1402 7.31637Z" fill="#078080"/>
</svg>
