<svg width="48" height="48" viewBox="0 0 48 48" fill="none" xmlns="http://www.w3.org/2000/svg">
<path fill-rule="evenodd" clip-rule="evenodd" d="M33.5601 5.00548C31.0386 5.02874 28.524 5.8164 26.3916 7.36721L24.0356 9.08007L21.618 7.33985C17.9098 4.6699 13.0587 4.2659 8.97572 6.22569C4.84391 8.20896 2 12.4619 2 17.2634V31.2765C2 36.078 4.84402 40.331 8.97572 42.3142V42.313C10.5651 43.076 12.2713 43.4738 13.974 43.5264C14.0703 43.5302 14.1582 43.5378 14.2614 43.5378H28.8583C33.998 43.5378 38.7935 40.2937 40.5301 35.2416L45.3471 21.2286C47.1288 16.0451 45.1535 10.2967 40.7696 7.23265C38.6101 5.72336 36.0815 4.98223 33.5601 5.00548Z" fill="#FECB66"/>
<path fill-rule="evenodd" clip-rule="evenodd" d="M33.5932 8.50523C31.7849 8.52189 29.9813 9.08787 28.4523 10.1998L24.047 13.4032L19.571 10.1816C16.9113 8.26656 13.4226 7.97631 10.4913 9.38333C7.5292 10.8052 5.50331 13.8338 5.5033 17.2622L5.5033 31.2752C5.50333 34.7036 7.52923 37.7323 10.4913 39.1541C11.6349 39.7031 12.8634 39.9898 14.0904 40.0265C14.1473 40.029 14.2003 40.0334 14.2614 40.0334L28.8583 40.0334C32.5457 40.0334 35.9748 37.7159 37.2173 34.1011L42.0331 20.0881C43.3076 16.3805 41.9024 12.2974 38.7625 10.1029C37.2141 9.02065 35.4014 8.48858 33.5932 8.50523ZM16.0131 20.5705L21.1505 24.2687L16.0131 27.967L16.0131 20.5705Z" fill="#0E131B"/>
<path fill-rule="evenodd" clip-rule="evenodd" d="M36.7556 12.974C34.8807 11.6636 32.3636 11.6859 30.5127 13.0321L24.331 17.5279C24.2571 17.5817 24.1642 17.65 24.0581 17.7283L17.5242 13.0239C15.9128 11.8637 13.7869 11.6865 12.0074 12.5406C10.2149 13.401 9.00648 15.2062 9.00647 17.2615L9.00647 31.2744C9.00649 33.3297 10.2149 35.1348 12.0074 35.9952C12.707 36.3311 13.4597 36.5072 14.2129 36.5274C14.229 36.5287 14.2451 36.5294 14.2613 36.5294L28.858 36.5294C31.093 36.5294 33.1552 35.1395 33.9037 32.962L38.7205 18.949C39.4876 16.7174 38.6514 14.299 36.7556 12.974ZM13.5233 15.6989C14.1564 15.395 14.9148 15.462 15.4772 15.8669L23.8514 21.8963C24.0438 22.0391 24.2119 22.1632 24.331 22.2499L25.2142 22.8921C25.6894 23.2378 25.9386 23.7533 25.9386 24.268C25.9386 24.7826 25.6894 25.2982 25.2142 25.6438L23.2098 27.1015L23.2075 27.1032L15.4772 32.669C14.9148 33.0739 14.1564 33.1409 13.5233 32.837C12.8929 32.5344 12.5097 31.9246 12.5097 31.274L12.5097 17.2615C12.5097 16.6108 12.8929 16.0015 13.5233 15.6989ZM32.5733 15.8653C33.2144 15.3989 34.098 15.3906 34.7486 15.8454C35.395 16.2971 35.654 17.0934 35.4076 17.8102L30.5907 31.8232C30.3469 32.5323 29.6549 33.0261 28.858 33.0261H21.0198L25.2613 29.9413L25.2635 29.9397L27.2554 28.5055C28.6055 27.5335 29.4421 25.9718 29.4421 24.2679C29.4421 22.5641 28.6055 21.0024 27.2554 20.0304L27.0499 19.8824L32.5733 15.8653Z" fill="#F7F9FB"/>
</svg>
