<svg width="48" height="48" viewBox="0 0 48 48" fill="none" xmlns="http://www.w3.org/2000/svg">
<path fill-rule="evenodd" clip-rule="evenodd" d="M34.4292 3.00598C31.6785 3.03135 28.9353 3.89062 26.609 5.58242L24.0388 7.45098L21.4014 5.55256C17.3561 2.63989 12.0641 2.19917 7.60987 4.33712C3.10244 6.50069 0 11.1402 0 16.3783V31.6652C0 36.9033 3.10256 41.5429 7.60987 43.7064V43.7051C9.34371 44.5375 11.2051 44.9714 13.0626 45.0288C13.1676 45.033 13.2635 45.0413 13.3761 45.0413H29.2999C34.9069 45.0413 40.1384 41.5022 42.0328 35.9908L47.2877 20.7039C49.2314 15.0492 47.0765 8.77818 42.2941 5.43562C39.9383 3.78912 37.1798 2.98061 34.4292 3.00598Z" fill="#FECB66"/>
<path fill-rule="evenodd" clip-rule="evenodd" d="M34.4653 6.82389C32.4927 6.84207 30.525 7.45949 28.8571 8.67255L24.0513 12.1671L19.1684 8.65265C16.2668 6.56352 12.461 6.24689 9.26327 7.78181C6.03185 9.3329 3.82179 12.6369 3.82178 16.377L3.82178 31.6639C3.82181 35.4039 6.03189 38.708 9.26327 40.2591C10.5108 40.858 11.851 41.1707 13.1895 41.2108C13.2516 41.2135 13.3094 41.2182 13.3761 41.2182L29.3 41.2182C33.3226 41.2182 37.0634 38.6901 38.4189 34.7467L43.6725 19.4597C45.0628 15.4151 43.5299 10.9608 40.1046 8.56681C38.4154 7.38616 36.4379 6.80572 34.4653 6.82389ZM15.287 19.986L20.8914 24.0204L15.287 28.0549L15.287 19.986Z" fill="#0E131B"/>
<path fill-rule="evenodd" clip-rule="evenodd" d="M37.9152 11.6989C35.8699 10.2694 33.124 10.2937 31.1048 11.7623L24.3611 16.6668C24.2804 16.7255 24.1791 16.8 24.0634 16.8855L16.9355 11.7533C15.1777 10.4877 12.8585 10.2943 10.9171 11.2261C8.96167 12.1648 7.64344 14.1341 7.64343 16.3762L7.64343 31.663C7.64345 33.9051 8.96168 35.8744 10.9171 36.813C11.6803 37.1794 12.5015 37.3715 13.3232 37.3935C13.3407 37.3949 13.3583 37.3957 13.376 37.3957L29.2996 37.3957C31.7378 37.3957 33.9875 35.8795 34.804 33.504L40.0588 18.2171C40.8956 15.7826 39.9834 13.1444 37.9152 11.6989ZM12.5709 14.6715C13.2616 14.34 14.0889 14.4131 14.7024 14.8548L23.8379 21.4324C24.0478 21.5882 24.2311 21.7235 24.3611 21.818L25.3245 22.5187C25.843 22.8958 26.1149 23.4582 26.1149 24.0196C26.1149 24.581 25.843 25.1435 25.3245 25.5205L23.138 27.1108L23.1355 27.1125L14.7024 33.1844C14.0889 33.6261 13.2616 33.6992 12.5709 33.3676C11.8832 33.0376 11.4652 32.3723 11.4652 31.6625L11.4652 16.3762C11.4652 15.6664 11.8832 15.0016 12.5709 14.6715ZM33.3527 14.853C34.0521 14.3443 35.016 14.3353 35.7258 14.8313C36.4309 15.3241 36.7134 16.1928 36.4446 16.9748L31.1899 32.2617C30.9239 33.0352 30.169 33.5739 29.2996 33.5739L20.7488 33.5739L25.3759 30.2087L25.3784 30.2069L27.5514 28.6424C29.0242 27.582 29.9369 25.8783 29.9369 24.0195C29.9369 22.1608 29.0242 20.4572 27.5514 19.3968L27.3271 19.2353L33.3527 14.853Z" fill="#F7F9FB"/>
</svg>
