<svg width="32" height="32" viewBox="0 0 32 32" fill="none" xmlns="http://www.w3.org/2000/svg">
<path fill-rule="evenodd" clip-rule="evenodd" d="M29.7848 3.84456C27.8923 2.48987 25.3328 2.51399 23.4665 3.9041L16 9.46547L8.53349 3.9041C6.91743 2.70039 4.75528 2.50677 2.94847 3.40396C1.14167 4.30116 0.000348768 6.13515 0.000348792 8.14133L0.000348981 23.9719C-0.00401694 24.3548 0.0334892 24.741 0.114933 25.1238C0.183626 25.4474 0.282364 25.7621 0.408852 26.0641C0.858997 27.1407 1.64433 28.0175 2.61891 28.5901C3.31661 29 4.1113 29.254 4.94943 29.3138C5.08323 29.3234 5.21722 29.3279 5.35109 29.3275L21.3332 29.3275C23.6288 29.3275 25.6668 27.8687 26.3927 25.7059L31.7259 9.81624C32.4637 7.61829 31.6773 5.19924 29.7848 3.84456ZM10.6668 26.6792L21.3332 26.6792C22.481 26.6792 23.5 25.9498 23.863 24.8684L29.1962 8.97879C29.565 7.87981 29.1719 6.67029 28.2256 5.99294C27.2793 5.3156 25.9996 5.32766 25.0664 6.02271L18.2222 11.1206L19.1999 11.8489C20.5428 12.8492 21.3332 14.419 21.3332 16.0861C21.3332 17.7533 20.5428 19.3231 19.1999 20.3234L10.6668 26.6792ZM5.14616 26.6727C5.20818 26.677 5.27068 26.6792 5.33356 26.6792L5.34206 26.6792C5.90576 26.6774 6.46545 26.4982 6.93352 26.1496L17.5999 18.2048C18.2714 17.7046 18.6666 16.9197 18.6666 16.0861C18.6666 15.2526 18.2714 14.4677 17.5999 13.9675L6.93352 6.02271L4.80024 7.08202L2.66695 8.14133C2.66695 8.14133 2.67618 18.6776 2.66695 19.4848L2.66695 24.0309C2.66695 24.2174 2.68666 24.4008 2.72456 24.5789C2.74527 24.6759 2.77164 24.7726 2.8038 24.8684C2.82412 24.929 2.84651 24.9884 2.87085 25.0467C3.08898 25.5681 3.47248 26.0142 3.97418 26.3093C4.02843 26.3412 4.08406 26.3713 4.14102 26.3996C4.46049 26.5583 4.80218 26.6487 5.14616 26.6727ZM2.66695 8.14133C2.66695 7.13824 3.23762 6.22124 4.14102 5.77265C5.04442 5.32405 6.12549 5.42086 6.93352 6.02271L4.80024 7.08202L2.66695 8.14133Z" fill="#078080"/>
</svg>
