<svg viewBox="0 0 201 250" fill="none" xmlns="http://www.w3.org/2000/svg">
<path fill-rule="evenodd" clip-rule="evenodd" d="M180.916 164.916C193.514 155.467 200.924 140.636 200.916 124.889C200.907 109.141 193.481 94.3181 180.873 84.8833L80.8727 10.052C65.7174 -1.289 45.457 -3.09931 28.5311 5.37508C11.6052 13.8495 0.915953 31.1555 0.915952 50.0843L0.915946 199.916C0.915945 218.854 11.6161 236.167 28.5553 244.637C45.4945 253.107 65.7651 251.279 80.9159 239.916L180.916 164.916ZM162.916 140.916C167.955 137.136 170.919 131.204 170.916 124.905C170.913 118.606 167.942 112.677 162.899 108.903L62.8986 34.0714C56.8365 29.535 48.7324 28.8109 41.962 32.2007C35.1916 35.5904 30.916 42.5128 30.916 50.0844L30.9159 199.916C30.9159 207.491 35.196 214.416 41.9717 217.804C48.7473 221.192 56.8556 220.461 62.9159 215.916L162.916 140.916Z" fill="currentColor" />
</svg>
