<svg width="198" height="205" viewBox="0 0 198 205" fill="none" xmlns="http://www.w3.org/2000/svg">
<path fill-rule="evenodd" clip-rule="evenodd" d="M197.615 0H58.1025L14.6123 50.7385L14.4821 50.8992C-7.49708 78.0205 -4.14895 117.876 22.4209 140.912C25.7296 143.781 29.2507 146.258 32.9251 148.347C30.5998 153.418 29.3 159.062 29.3 165C29.3 187.091 47.2086 205 69.3 205H197.613L109.757 102.501L197.615 0ZM62.7774 157.309L62.7788 157.309L90.0008 125.55L132.387 175H69.3C63.7771 175 59.3 170.523 59.3 165C59.3 162.3 60.3504 159.876 62.0969 158.063L62.4 157.749L62.7774 157.309ZM90.0008 79.452L132.388 30H71.9006L37.6711 69.9344C25.9758 84.5238 27.8176 105.886 42.0732 118.246C45.0222 120.802 48.263 122.773 51.665 124.175L90 79.4511L90.0008 79.452Z" fill="#2bbc8a"/>
</svg>
