<svg width="250" height="200" viewBox="0 0 250 200" fill="none" xmlns="http://www.w3.org/2000/svg">
<path d="M200 -1.85889e-06H50C39.5487 -0.00763888 29.0072 3.24907 20.0025 10.0025C-2.0884 26.5703 -6.56545 57.909 10.0027 79.9994L85.0009 179.995C86.3941 181.852 87.8917 183.585 89.4794 185.192C96.5438 192.34 105.393 196.983 114.77 198.939C116.589 199.32 118.435 199.6 120.3 199.776C131.944 200.879 144.009 197.925 154.203 190.585C154.816 190.144 155.42 189.688 156.014 189.219C159.793 186.234 163.029 182.805 165.703 179.063L240 80.0024C240.257 79.6603 240.508 79.3155 240.755 78.9683C245.796 71.8889 249.038 63.4402 249.816 54.2887C250.072 51.3071 250.061 48.3022 249.78 45.3115C248.578 32.3845 242.454 20.8856 233.3 12.7066C224.459 4.80626 212.79 0.00338559 200 0.00294309V-1.85889e-06Z" fill="#00BD87"/>
</svg>
