<svg width="302" height="250" viewBox="0 0 302 250" fill="none" xmlns="http://www.w3.org/2000/svg">
<path fill-rule="evenodd" clip-rule="evenodd" d="M221 9.99998C238.497 -3.12282 262.493 -3.35051 280.236 9.43788C297.978 22.2263 305.35 45.0624 298.434 65.8114L269.83 151.623L281 160C298.217 172.913 305.24 195.394 298.434 215.811C291.629 236.228 272.522 250 251 250H101C100.987 250 100.974 250 100.961 250H98.9459C98.9506 249.986 98.9552 249.972 98.9599 249.959C78.2789 249.12 60.1557 235.581 53.5659 215.811L3.56586 65.8114C-3.35046 45.0624 4.02157 22.2263 21.7645 9.43789C39.5075 -3.3505 63.503 -3.12281 81 10L151 62.5L221 9.99998ZM130.167 78.125L66 30C57.2515 23.4386 45.2537 23.3248 36.3823 29.7189C27.5108 36.1131 23.8248 47.5312 27.2829 57.9057L53.2515 135.811L130.167 78.125ZM61.5848 160.811L151 93.75L240.415 160.811L224.717 207.906C221.314 218.114 211.761 225 201 225L101 225C100.991 225 100.982 225 100.972 225C90.2228 224.988 80.6829 218.105 77.2829 207.906L61.5848 160.811ZM244.305 225H251C261.761 225 271.314 218.114 274.717 207.906C278.12 197.697 274.609 186.456 266 180L261.497 176.623L248.434 215.811C247.354 219.051 245.965 222.123 244.305 225ZM248.749 135.811L171.833 78.125L236 30C244.749 23.4386 256.746 23.3247 265.618 29.7189C274.489 36.1131 278.175 47.5312 274.717 57.9057L248.749 135.811Z" fill="#504AED"/>
</svg>
