<svg width="400" height="400" viewBox="0 0 400 400" fill="none" xmlns="http://www.w3.org/2000/svg">
<rect width="400" height="400" rx="200" fill="#755CF2"/>
<path fill-rule="evenodd" clip-rule="evenodd" d="M277.611 113.843C286.145 125.671 285.993 141.668 277.236 153.332L242.205 199.998L277.236 246.663C284.819 256.764 286.038 270.277 280.387 281.57C274.735 292.862 263.183 299.995 250.545 299.995H150.826C148.414 300.023 145.982 299.788 143.57 299.279C141.532 298.85 139.55 298.233 137.647 297.442C130.866 294.629 125.343 289.721 121.736 283.629C119.154 279.269 117.554 274.302 117.177 269.064C117.117 268.227 117.088 267.39 117.091 266.553V166.665C117.091 152.318 126.28 139.58 139.904 135.043L239.995 101.711C253.84 97.0997 269.078 102.014 277.611 113.843ZM133.773 233.33V166.665C133.773 159.491 138.367 153.123 145.179 150.854L245.27 117.522C252.193 115.216 259.812 117.673 264.078 123.588C268.345 129.502 268.269 137.5 263.891 143.332L231.778 186.109L227.191 179.998C220.89 171.605 211.001 166.665 200.5 166.665C189.999 166.665 180.11 171.605 173.809 179.998L133.773 233.33ZM133.814 267.834C133.787 267.447 133.773 267.056 133.773 266.663V266.61C133.784 263.087 134.913 259.589 137.109 256.663L187.155 189.998C190.305 185.801 195.249 183.331 200.5 183.331C205.751 183.331 210.695 185.801 213.845 189.998L221.352 199.998L163.8 276.663C160.628 280.888 155.725 283.272 150.641 283.329H150.455C149.28 283.329 148.125 283.206 147.003 282.969C146.392 282.84 145.783 282.675 145.179 282.474C144.798 282.347 144.423 282.207 144.056 282.055C140.772 280.692 137.962 278.295 136.103 275.159C135.902 274.82 135.712 274.472 135.534 274.116C134.535 272.12 133.965 269.984 133.814 267.834ZM179.648 283.329H250.545C256.864 283.329 262.64 279.763 265.466 274.116C268.292 268.47 267.682 261.713 263.891 256.663L231.778 213.886L179.648 283.329Z" fill="white"/>
</svg>
