<svg width="281" height="231" viewBox="0 0 281 231" fill="none" xmlns="http://www.w3.org/2000/svg">
<path d="M54.5051 52.0046L54.5049 52.0046C54.2966 52.1609 54.0931 52.3206 53.8943 52.4836L54.5051 52.0046ZM54.5051 52.0046C54.6415 51.9022 54.7787 51.8023 54.9167 51.7048L54.5051 52.0046ZM42.8079 54.9057L49.3525 58.178C48.8158 59.2513 48.3981 60.3604 48.0967 61.4888C47.7856 62.6582 47.5956 63.8574 47.5299 65.0653C47.3248 68.9002 48.3828 72.7572 50.6422 76.0013L42.8079 54.9057ZM42.8079 54.9057L49.3525 58.178C50.4719 55.9393 52.0301 54.0148 53.8939 52.4839L42.8079 54.9057ZM65.3758 48.5048C68.9981 48.5856 72.5584 49.7826 75.5075 51.998L75.5087 51.9989C76.157 52.4858 76.7787 53.0246 77.3691 53.616L65.3758 48.5048ZM65.3758 48.5048L65.0026 48.5048C61.3217 48.5052 57.8177 49.6592 54.918 51.7039L65.3758 48.5048ZM157.5 165.801C157.464 162.207 156.328 158.602 154 155.497L79.0014 55.5015C78.4925 54.823 77.9467 54.195 77.37 53.6169L157.5 165.801ZM157.5 165.801V165.993C157.497 169.626 156.37 173.216 154.218 176.21L154 176.499C153.612 177.017 153.201 177.507 152.77 177.966C152.089 178.691 151.332 179.371 150.5 179.995C149.716 180.583 148.904 181.093 148.071 181.527C146.036 182.585 143.796 183.241 141.472 183.437C139.133 183.631 136.772 183.353 134.543 182.625C131.349 181.576 128.491 179.618 126.347 176.942L157.5 165.801ZM197.5 65.7951V66V118.5L229 76.5C231.287 73.4505 232.424 69.9171 232.498 66.3856L232.498 66.0002C232.498 65.2867 232.455 64.5864 232.374 63.901C232.313 63.4018 232.232 62.9052 232.129 62.4129C231.825 60.9654 231.335 59.5424 230.653 58.178C230.113 57.0992 229.473 56.0946 228.746 55.1723C225.529 51.0962 220.569 48.5018 214.998 48.5018C214.417 48.5018 213.844 48.5299 213.282 48.5844C208.618 49.0361 204.478 51.3231 201.6 54.7429L197.5 65.7951ZM197.5 65.7951C197.543 62.0181 198.775 58.5472 200.841 55.7115L201 55.5C201.195 55.2404 201.395 54.9882 201.6 54.7435L197.5 65.7951ZM267.488 42.4994C263.63 33.8643 257.584 26.0632 249.5 20C249.229 19.7966 248.956 19.596 248.683 19.3982C247.182 18.3117 245.626 17.2957 244.02 16.3552C227.335 6.57757 207.298 6.10387 190.573 13.9356C182.994 17.4843 176.091 22.7388 170.489 29.5978C162.374 39.5092 157.499 52.1957 157.499 66.0007C157.499 66.0885 157.5 66.1763 157.5 66.264V93.4991L111.001 31.502C91.9473 6.09792 55.9071 0.949455 30.5025 20.0025C5.09792 39.0555 -0.0507736 75.0953 19.0028 100.499L94.001 200.495C95.5988 202.625 97.3187 204.616 99.1448 206.464L267.488 42.4994ZM267.488 42.4994C270.006 48.1159 271.65 54.2091 272.246 60.5996C273.269 71.4165 271.245 82.5663 265.963 92.6447L267.488 42.4994ZM173.583 212.673C161.86 221.113 147.974 224.51 134.593 223.242L173.583 212.673ZM173.583 212.673C174.287 212.167 174.98 211.644 175.662 211.104M173.583 212.673L175.662 211.104M175.662 211.104C179.978 207.696 183.684 203.778 186.753 199.497M175.662 211.104L186.753 199.497M186.753 199.497L261 100.502L255 96.0024L261 100.502C261.294 100.11 261.583 99.7145 261.866 99.3162C261.867 99.3154 261.867 99.3146 261.868 99.3139L186.753 199.497ZM126.346 176.941C126.23 176.796 126.116 176.648 126.003 176.498L51.0052 76.503C50.8813 76.3378 50.761 76.1715 50.6442 76.0042L126.346 176.941ZM99.1453 206.464C107.278 214.693 117.462 220.032 128.235 222.281L99.1453 206.464Z" fill="#FFA40A" stroke="#131619" stroke-width="15"/>
</svg>
