<svg width="275" height="275" viewBox="0 0 275 275" fill="none" xmlns="http://www.w3.org/2000/svg">
<path fill-rule="evenodd" clip-rule="evenodd" d="M258.643 67.5644C255.292 60.061 250.04 53.2803 243 48C242.763 47.8221 242.524 47.6466 242.285 47.4735C240.979 46.5284 239.626 45.6447 238.23 44.8269C223.738 36.334 206.312 35.9106 191.753 42.7278C185.169 45.8108 179.172 50.3744 174.298 56.3422C167.236 64.9636 162.999 75.9874 162.999 88.0007C162.999 88.083 163 88.1651 163 88.2473V137.999L103.001 58.0021C86.4327 35.9116 55.0933 31.4347 33.0025 48.0025C10.9116 64.5703 6.43456 95.909 23.0027 117.999L98.0009 217.995C99.3941 219.852 100.892 221.585 102.479 223.192C109.544 230.34 118.393 234.983 127.77 236.939C129.589 237.32 131.435 237.6 133.3 237.776C144.944 238.879 157.009 235.925 167.203 228.585C167.816 228.144 168.42 227.688 169.014 227.219C172.793 224.234 176.029 220.805 178.703 217.063L253 118.002C253.257 117.66 253.508 117.316 253.755 116.968C255.07 115.122 256.262 113.183 257.32 111.163C261.909 102.407 263.671 92.7141 262.779 83.2965C262.26 77.7381 260.831 72.4439 258.643 67.5644ZM158.259 202.655L158 203C157.448 203.735 156.861 204.436 156.24 205.098C155.262 206.139 154.181 207.109 153 207.995C151.887 208.83 150.728 209.558 149.533 210.18C146.625 211.692 143.421 212.631 140.097 212.91C136.755 213.188 133.388 212.792 130.208 211.752C125.643 210.254 121.556 207.455 118.491 203.627C118.326 203.421 118.163 203.212 118.003 202.999L43.0052 103.003C42.8289 102.768 42.6574 102.531 42.4906 102.292C39.2586 97.6531 37.7478 92.1397 38.0406 86.6648C38.134 84.9396 38.4052 83.227 38.8499 81.5565C39.2812 79.9411 39.8786 78.3553 40.6443 76.8238C42.2425 73.6276 44.4704 70.8756 47.1341 68.6878C47.418 68.4549 47.7084 68.2271 48.0051 68.0046C48.1988 67.8593 48.3939 67.7172 48.5904 67.5784C52.7305 64.6574 57.7406 63.0054 63.0018 63.0048V63.0004C68.3417 63.0045 73.6345 64.7129 78.0122 68.0016C78.9455 68.7025 79.8363 69.4751 80.678 70.3184C81.5031 71.1452 82.2802 72.0399 83.0013 73.0014L158 172.997C161.327 177.434 162.957 182.616 163 187.767V188C162.995 193.196 161.377 198.348 158.259 202.655ZM238.001 88C238.005 93.2261 236.377 98.4973 233 103L188 163V88H187.999C187.999 82.4833 189.786 77.384 192.813 73.2493L193 73C193.276 72.6321 193.56 72.274 193.852 71.9257C197.947 67.0539 203.867 63.7674 210.559 63.1194C211.361 63.0416 212.175 63.0018 212.998 63.0018C220.964 63.0018 228.059 66.7272 232.637 72.5308C233.677 73.85 234.592 75.2854 235.361 76.8239C236.334 78.7699 237.035 80.8038 237.469 82.8744C237.617 83.5812 237.734 84.2941 237.821 85.0108C237.938 85.9909 237.998 86.9884 237.998 88H238.001Z" fill="#049988"/>
</svg>
