<svg width="100" height="100" viewBox="0 0 100 100" fill="none" xmlns="http://www.w3.org/2000/svg">
<g id="favicon">
<g id="logo">
<g id="logo_2">
<path id="Combined Shape" fill-rule="evenodd" clip-rule="evenodd" d="M21.6672 95.8024C21.7476 95.829 21.7483 95.8292 21.8242 95.8537C23.4104 96.362 25.0582 96.611 26.7104 96.5996H73.2896C74.9421 96.611 76.5899 96.3619 78.1719 95.8549C78.2116 95.8422 78.2315 95.8357 78.2515 95.8292C78.2717 95.8226 78.2919 95.8159 78.3327 95.8025C79.9158 95.2758 81.4086 94.4973 82.7599 93.4862C82.976 93.3245 83.1875 93.1576 83.3943 92.9856C85.0444 91.6094 86.3909 89.9154 87.3518 88.0019C88.3152 86.076 88.8657 83.9849 88.9787 81.8529C88.9931 81.5739 89 81.3049 89 81.0355C89 79.5986 88.8027 78.18 88.4172 76.8135C88.35 76.5759 88.2783 76.3433 88.2011 76.1122C87.658 74.4861 86.8487 72.9643 85.8117 71.6067L62.6327 40.7747C62.1488 40.1089 61.6115 39.4811 61.0246 38.8969C59.7545 37.6267 58.2642 36.5852 56.6347 35.8222C54.5569 34.8445 52.2851 34.3441 49.9941 34.3458C47.7149 34.3441 45.4431 34.8445 43.3519 35.8285C41.7358 36.5852 40.2454 37.6267 38.9616 38.9108C38.3879 39.4816 37.8511 40.109 37.3673 40.7747L14.1883 71.6067C13.1513 72.9643 12.342 74.4861 11.7982 76.1143C11.7716 76.1943 11.7716 76.1945 11.7436 76.2809C11.2533 77.8047 11 79.4081 11 81.0355C11 81.3049 11.0069 81.5739 11.0208 81.8422C11.1343 83.9849 11.6848 86.076 12.6427 87.991C13.6091 89.9154 14.9556 91.6094 16.5975 92.9787C16.8125 93.1576 17.024 93.3245 17.2401 93.4862C18.5914 94.4973 20.0842 95.2758 21.6652 95.8018L21.6672 95.8024ZM26.6788 85.7052L26.6483 85.7054C26.1446 85.7103 25.6451 85.6355 25.1686 85.4828C25.1432 85.4746 25.1432 85.4746 25.1189 85.4666C24.6482 85.31 24.2018 85.0772 23.792 84.7705C23.7257 84.721 23.6611 84.67 23.598 84.6175C23.1058 84.207 22.6997 83.6961 22.4114 83.122C22.1262 82.5518 21.9602 81.9212 21.9261 81.2778C21.9221 81.2003 21.92 81.1181 21.92 81.0355C21.92 80.5419 21.9957 80.0623 22.1425 79.6061C22.15 79.583 22.15 79.583 22.158 79.5589C22.3219 79.0681 22.567 78.6089 22.8828 78.1982L46.1476 47.2525L46.1898 47.1949C46.3384 46.9875 46.5045 46.7921 46.6872 46.6102C47.0758 46.2217 47.5188 45.9121 48.0048 45.6845C48.633 45.3889 49.3104 45.2397 49.9976 45.2402C50.6896 45.2397 51.367 45.3889 51.9898 45.682C52.4812 45.9121 52.9242 46.2217 53.3072 46.6047C53.4955 46.7921 53.6616 46.9875 53.8102 47.1949L53.8524 47.2525L77.0967 78.1714C77.4329 78.6089 77.6781 79.0681 77.8417 79.558C77.8649 79.6276 77.8863 79.6968 77.906 79.7664C78.0208 80.1735 78.08 80.5991 78.08 81.0355C78.08 81.1181 78.0779 81.2003 78.0737 81.2821C78.0398 81.9212 77.8738 82.5518 77.5864 83.1264C77.3002 83.6961 76.8942 84.207 76.3987 84.6203C76.3389 84.67 76.2743 84.721 76.208 84.7705C75.7982 85.0772 75.3518 85.31 74.8802 85.4669C74.8576 85.4744 74.8568 85.4746 74.8329 85.4823C74.3549 85.6355 73.8555 85.7103 73.3517 85.7054L26.6788 85.7052Z" fill="#00A78E"/>
<path id="Subtract" d="M68.3192 3.85228C68.6997 3.72144 69.0844 3.60552 69.4618 3.50752C71.581 2.95356 73.772 2.85553 75.8922 3.20144C78.026 3.54585 80.0736 4.33171 81.8981 5.52045C83.5133 6.56899 84.9255 7.90978 86.0551 9.47793L86.0828 9.51646C90.0178 15.0079 89.9932 22.477 85.8794 27.9621L69.4595 49.8554L62.6327 40.7747L62.6265 40.7661L77.1434 21.4101C78.3776 19.7645 78.385 17.5216 77.2065 15.877L77.1971 15.864C76.8598 15.3956 76.4374 14.9947 75.9478 14.6768C75.3974 14.3182 74.7887 14.0846 74.1469 13.981C73.5105 13.8772 72.8592 13.9063 72.2186 14.0737C72.0954 14.1058 71.9735 14.1427 71.8137 14.1981L25.2925 29.7052L25.2231 29.7275C24.9109 29.8235 24.6103 29.9522 24.3198 30.1144C23.7201 30.4478 23.2058 30.9079 22.8034 31.4672C22.4032 32.0215 22.1293 32.6549 22.0015 33.3355C21.9406 33.6562 21.9136 33.9821 21.9212 34.3086L21.9221 34.3815L21.9219 61.3196L14.1883 71.6067C13.1513 72.9643 12.342 74.4861 11.7982 76.1143C11.7717 76.1941 11.7716 76.1945 11.7439 76.28C11.2794 77.7234 11.0274 79.2389 11.0021 80.7777V34.457C10.9846 33.3955 11.0759 32.338 11.2702 31.3144C11.6952 29.0505 12.6146 26.9243 13.9424 25.0854C15.2747 23.2336 17.0011 21.6891 19.0005 20.5777C19.9235 20.0621 20.8983 19.6409 21.9109 19.3218L68.3192 3.85228Z" fill="#00A78E"/>
</g>
</g>
</g>
</svg>
