<svg width="100" height="100" viewBox="0 0 100 100" fill="none" xmlns="http://www.w3.org/2000/svg">
<circle cx="50" cy="50" r="50" fill="black"/>
<path fill-rule="evenodd" clip-rule="evenodd" d="M61.0688 24.4826C61.2883 24.4085 61.5102 24.3429 61.728 24.2874C62.9506 23.9737 64.2146 23.9182 65.4378 24.1141C66.6688 24.3091 67.8501 24.7541 68.9028 25.4272C69.8346 26.0209 70.6494 26.7801 71.301 27.6681L71.317 27.6899C73.5872 30.7993 73.573 35.0286 71.1996 38.1345L61.7266 50.5314L71.1606 62.8478C71.7589 63.6166 72.2258 64.4782 72.5391 65.399C72.5837 65.5298 72.625 65.6616 72.6638 65.7961C72.8862 66.5699 73 67.3732 73 68.1868C73 68.3393 72.996 68.4916 72.9877 68.6496C72.9225 69.8568 72.6049 71.0409 72.0491 72.1314C71.4948 73.2149 70.7179 74.1741 69.766 74.9534C69.6466 75.0508 69.5246 75.1453 69.4 75.2368C68.6203 75.8094 67.7591 76.2502 66.8458 76.5484L66.7989 76.5636L66.753 76.5781C65.8404 76.8652 64.8897 77.0063 63.9363 76.9998H37.0637L37.0565 76.9998C37.0569 76.9998 37.0574 76.9998 37.0578 76.9998C36.5033 77.0034 35.9496 76.9569 35.4037 76.8605C35.4151 76.8625 35.4265 76.8645 35.438 76.8665C35.0354 76.7971 34.6368 76.7008 34.2448 76.5775L34.1961 76.562L34.1849 76.5584L34.153 76.548C33.2409 76.2502 32.3797 75.8094 31.6001 75.2368C31.4754 75.1453 31.3534 75.0508 31.2293 74.9495C30.2821 74.1741 29.5052 73.2149 28.9477 72.1253C28.3951 71.0409 28.0775 69.8568 28.012 68.6436C28.004 68.4916 28 68.3393 28 68.1868C28 68.1381 28.0004 68.0894 28.0012 68.0408V68.0923C27.9996 68.272 28.0039 68.4511 28.0135 68.6305C28.0236 68.8217 28.0399 69.012 28.0625 69.2013C28.0399 69.012 28.0236 68.8217 28.0135 68.6305C28.0039 68.4511 27.9996 68.272 28.0012 68.0923V41.8122C27.9911 41.2111 28.0438 40.6123 28.1559 40.0327C28.4011 38.7508 28.9315 37.5469 29.6975 36.5056C30.4662 35.4571 31.4621 34.5825 32.6156 33.9532C33.1482 33.6612 33.7106 33.4227 34.2948 33.2421L61.0688 24.4826ZM66.196 31.2915L66.1907 31.2841C65.996 31.0189 65.7523 30.7918 65.4699 30.6119C65.1523 30.4088 64.8012 30.2765 64.4309 30.2179C64.0637 30.1591 63.688 30.1756 63.3184 30.2704C63.2473 30.2885 63.177 30.3095 63.0848 30.3408L36.2457 39.1216L36.2056 39.1342C36.0255 39.1885 35.8521 39.2614 35.6845 39.3533C35.3385 39.542 35.0418 39.8026 34.8097 40.1192C34.5788 40.4331 34.4207 40.7918 34.347 41.1772C34.3119 41.3587 34.2963 41.5433 34.3007 41.7281L34.3012 41.7695L34.3011 68.1377C34.3004 68.1903 34.3016 68.2458 34.3049 68.3066C34.3242 68.6749 34.4199 69.0279 34.586 69.3533C34.7503 69.6765 34.9806 69.9635 35.2711 70.2012C35.5303 70.4138 35.8271 70.577 36.1471 70.6817L36.1582 70.6853C36.4744 70.7873 36.8077 70.8303 37.1411 70.813C37.5132 70.7937 37.8778 70.6997 38.2076 70.5382C38.5396 70.3749 38.835 70.145 39.0724 69.8663C39.1027 69.8306 39.1322 69.794 39.1608 69.7565L66.1596 34.4245C66.8717 33.4927 66.876 32.2227 66.196 31.2915Z" fill="white"/>
</svg>
