<svg width="100" height="100" viewBox="0 0 100 100" fill="none" xmlns="http://www.w3.org/2000/svg">
<g id="favicon">
<g id="logo">
<path id="Combined Shape" fill-rule="evenodd" clip-rule="evenodd" d="M21.6672 95.2057C21.7476 95.2322 21.7483 95.2324 21.8242 95.2568C23.4104 95.763 25.0582 96.011 26.7104 95.9996H73.2896C74.9421 96.011 76.5899 95.7629 78.1719 95.258C78.2116 95.2453 78.2315 95.2389 78.2515 95.2324C78.2717 95.2258 78.2919 95.2191 78.3327 95.2057C79.9158 94.6812 81.4086 93.9058 82.7599 92.8989C82.976 92.7379 83.1875 92.5717 83.3943 92.4003C85.0444 91.0298 86.3909 89.3427 87.3518 87.437C88.3152 85.519 88.8657 83.4364 88.9787 81.3131C88.9931 81.0353 89 80.7674 89 80.4991C89 79.068 88.8027 77.6552 88.4172 76.2942C88.35 76.0577 88.2783 75.826 88.2011 75.5959C87.658 73.9764 86.8487 72.4608 85.8117 71.1087L62.6327 40.4026C62.1489 39.7396 61.6115 39.1143 61.0246 38.5326C59.7546 37.2675 58.2642 36.2303 56.6347 35.4704C54.5569 34.4967 52.2851 33.9983 49.9941 34C47.7149 33.9983 45.4431 34.4967 43.352 35.4767C41.7358 36.2303 40.2455 37.2675 38.9616 38.5463C38.3879 39.1149 37.8511 39.7396 37.3673 40.4026L14.1883 71.1087C13.1513 72.4608 12.342 73.9764 11.7982 75.598C11.7716 75.6777 11.7716 75.6778 11.7436 75.7638C11.2533 77.2815 11 78.8783 11 80.4991C11 80.7674 11.0069 81.0353 11.0208 81.3025C11.1343 83.4364 11.6848 85.519 12.6427 87.4262C13.6091 89.3427 14.9556 91.0298 16.5975 92.3935C16.8125 92.5717 17.024 92.7379 17.2401 92.8989C18.5914 93.9058 20.0842 94.6812 21.6652 95.205L21.6672 95.2057ZM26.6788 85.1497L26.6483 85.1498C26.1446 85.1547 25.6451 85.0803 25.1686 84.9282C25.1432 84.92 25.1432 84.9201 25.1189 84.9121C24.6482 84.7561 24.2018 84.5242 23.792 84.2189C23.7257 84.1695 23.6611 84.1187 23.598 84.0665C23.1058 83.6576 22.6997 83.1488 22.4115 82.5771C22.1262 82.0092 21.9602 81.3811 21.9261 80.7404C21.9221 80.6632 21.92 80.5813 21.92 80.4991C21.92 80.0075 21.9957 79.5299 22.1425 79.0755C22.15 79.0525 22.15 79.0525 22.158 79.0285C22.3219 78.5397 22.567 78.0824 22.8828 77.6734L46.1476 46.854L46.1898 46.7967C46.3384 46.5901 46.5045 46.3955 46.6872 46.2144C47.0758 45.8274 47.5188 45.5191 48.0048 45.2924C48.633 44.998 49.3104 44.8494 49.9976 44.8499C50.6896 44.8494 51.367 44.998 51.9898 45.2899C52.4812 45.5191 52.9242 45.8274 53.3072 46.2089C53.4955 46.3955 53.6616 46.5901 53.8102 46.7967L53.8524 46.854L77.0968 77.6466C77.433 78.0824 77.6781 78.5397 77.8417 79.0276C77.865 79.0969 77.8863 79.1658 77.906 79.2351C78.0208 79.6406 78.08 80.0644 78.08 80.4991C78.08 80.5813 78.0779 80.6632 78.0737 80.7447C78.0398 81.3811 77.8738 82.0092 77.5864 82.5814C77.3003 83.1488 76.8942 83.6576 76.3987 84.0692C76.3389 84.1187 76.2743 84.1695 76.208 84.2189C75.7982 84.5242 75.3518 84.7561 74.8802 84.9123C74.8576 84.9198 74.8568 84.92 74.8329 84.9277C74.355 85.0803 73.8555 85.1547 73.3517 85.1498L26.6788 85.1497Z" fill="#52B5AD"/>
<path id="Combined Shape_2" fill-rule="evenodd" clip-rule="evenodd" d="M69.4618 2.50969C69.0844 2.60811 68.6997 2.72452 68.3193 2.85592L21.9109 18.3916C20.8983 18.712 19.9235 19.135 19.0005 19.6528C17.0011 20.7689 15.2747 22.3201 13.9424 24.1797C12.6146 26.0266 11.6952 28.1619 11.2702 30.4354C11.0759 31.4634 10.9846 32.5254 11.0021 33.5915V80.2014C10.9993 80.5201 11.0067 80.8379 11.0235 81.156C11.1344 83.3198 11.6923 85.4255 12.6502 87.3456C13.5996 89.2564 14.9422 90.9681 16.6076 92.3623C18.0933 93.6097 19.8114 94.5764 21.6691 95.198L21.7321 95.2189C23.57 95.8254 25.4992 96.0801 27.421 95.9781C29.558 95.8647 31.654 95.3118 33.5735 94.3499C35.5023 93.3794 37.2003 92.0272 38.5728 90.3783C38.7521 90.1624 38.9194 89.95 39.0815 89.733L85.8794 27.0687C89.9932 21.5602 90.0178 14.0592 86.0828 8.54431L86.0551 8.50561C84.9256 6.93076 83.5133 5.58424 81.8981 4.53122C80.0736 3.3374 78.026 2.54819 75.8922 2.2023C73.772 1.85492 71.581 1.95336 69.4618 2.50969ZM77.1971 14.919L77.2065 14.932C78.385 16.5837 78.3776 18.8362 77.1434 20.4888L30.3455 83.1531C30.2958 83.2196 30.2447 83.2845 30.1921 83.3478C29.7807 83.8421 29.2686 84.2499 28.6931 84.5394C28.1216 84.8258 27.4895 84.9926 26.8446 85.0268C26.2667 85.0575 25.689 84.9812 25.1409 84.8003L25.1217 84.7939C24.567 84.6083 24.0526 84.3189 23.6033 83.9417C23.0997 83.5201 22.7005 83.0111 22.4157 82.438C22.1278 81.8609 21.9619 81.2347 21.9284 80.5814C21.9228 80.4736 21.9206 80.3753 21.9218 80.2819L21.9221 33.5156L21.9212 33.4424C21.9136 33.1145 21.9406 32.7872 22.0015 32.4652C22.1293 31.7817 22.4032 31.1455 22.8034 30.5888C23.2058 30.0272 23.7201 29.5651 24.3198 29.2303C24.6103 29.0674 24.9109 28.9381 25.2231 28.8417L25.2925 28.8194L71.8137 13.246C71.9735 13.1903 72.0954 13.1532 72.2186 13.1211C72.8592 12.9529 73.5105 12.9237 74.1469 13.0279C74.7887 13.132 75.3974 13.3666 75.9478 13.7267C76.4374 14.0459 76.8598 14.4486 77.1971 14.919Z" fill="#52B5AD"/>
</g>
</g>
</svg>
