<svg width="100" height="100" viewBox="0 0 100 100" fill="none" xmlns="http://www.w3.org/2000/svg">
<circle cx="50" cy="50" r="50" fill="#0E927C"/>
<path fill-rule="evenodd" clip-rule="evenodd" d="M69 38.3327C71.1871 35.4167 71.2251 31.4176 69.0937 28.4606C66.9623 25.5036 63.1563 24.275 59.6981 25.4276L34.6981 33.7606C31.2952 34.8948 29 38.0791 29 41.6659V66.6383C28.9986 67.0353 29.0256 67.4329 29.0812 67.828C29.1592 68.383 29.2924 68.9232 29.4758 69.4418C29.5898 69.7642 29.7244 70.0817 29.8798 70.3924C31.2914 73.2155 34.1769 74.9988 37.3333 74.9988H62.3333C65.4898 74.9988 68.3753 73.2155 69.7869 70.3924C71.1985 67.5693 70.8939 64.1909 69 61.6658L60.2498 49.9991L69 38.3327ZM56.604 45.1382L64.3333 34.8329C64.9895 33.9581 65.0009 32.7583 64.3614 31.8712C63.722 30.9841 62.5802 30.6156 61.5428 30.9614L36.5428 39.2943C35.5219 39.6346 34.8333 40.5899 34.8333 41.6659V56.1104L43.1667 44.9995C44.7404 42.9012 47.2104 41.6663 49.8333 41.6663C52.4563 41.6663 54.9262 42.9012 56.5 44.9995L56.604 45.1382ZM34.8333 66.6576C34.8351 66.1291 35.0042 65.6045 35.3333 65.1657L47.8333 48.4995C48.3055 47.87 49.0464 47.4995 49.8333 47.4995C50.6202 47.4995 51.3612 47.87 51.8333 48.4995L52.9581 49.9991L39.3333 68.1647C38.6877 69.0255 37.5636 69.3766 36.5428 69.0364C35.5219 68.6961 34.8333 67.7408 34.8333 66.6648V66.6576ZM45.8742 69.1656L56.6039 54.8601L64.3333 65.1657C64.9015 65.9233 64.9929 66.9368 64.5694 67.7837C64.1459 68.6306 63.2803 69.1656 62.3333 69.1656H45.8742Z" fill="white"/>
</svg>
