<svg width="100" height="100" viewBox="0 0 100 100" fill="none" xmlns="http://www.w3.org/2000/svg">
<g id="favicon">
<g id="logo">
<path id="Union" fill-rule="evenodd" clip-rule="evenodd" d="M68.3192 3.85228C68.6997 3.72144 69.0844 3.60552 69.4618 3.50752C71.581 2.95356 73.772 2.85553 75.8922 3.20144C78.026 3.54585 80.0735 4.33171 81.8981 5.52045C83.5133 6.56899 84.9255 7.90978 86.0551 9.47793L86.0828 9.51647C90.0178 15.0079 89.9932 22.477 85.8794 27.9621L69.4595 49.8554L85.8117 71.6067C86.8487 72.9643 87.658 74.4861 88.2011 76.1122C88.2783 76.3432 88.35 76.5759 88.4172 76.8134C88.8027 78.18 89 79.5986 89 81.0355C89 81.3049 88.9931 81.5739 88.9787 81.8529C88.8657 83.9849 88.3152 86.076 87.3518 88.0019C86.3909 89.9154 85.0444 91.6094 83.3943 92.9856C83.1875 93.1576 82.976 93.3245 82.7599 93.4862C81.4086 94.4973 79.9158 95.2758 78.3327 95.8025C78.2919 95.8159 78.2717 95.8226 78.2515 95.8292C78.2315 95.8357 78.2116 95.8422 78.1719 95.8549C76.5899 96.3619 74.9421 96.611 73.2896 96.5996H26.7104C25.0582 96.611 23.4104 96.362 21.8242 95.8537C21.7483 95.8292 21.7476 95.829 21.6674 95.8025L21.6652 95.8018C20.0842 95.2758 18.5914 94.4973 17.2401 93.4862C17.024 93.3245 16.8125 93.1576 16.5975 92.9787C14.9556 91.6094 13.6091 89.9154 12.6427 87.991C11.6848 86.076 11.1343 83.9849 11.0208 81.8422C11.0069 81.5739 11 81.3049 11 81.0355C11 80.9495 11.0007 80.8636 11.0021 80.7777V34.457C10.9846 33.3955 11.0759 32.338 11.2702 31.3144C11.6952 29.0505 12.6146 26.9243 13.9424 25.0854C15.2747 23.2336 17.0011 21.6891 19.0004 20.5777C19.9235 20.0621 20.8983 19.6409 21.9109 19.3218L68.3192 3.85228ZM76.4722 15.0711C76.6191 15.2117 76.7632 15.3542 76.9046 15.4986C76.7702 15.347 76.6258 15.2043 76.4722 15.0711ZM26.6483 85.7053L26.6788 85.7052L73.3517 85.7053C73.8555 85.7103 74.3549 85.6355 74.8329 85.4823C74.8565 85.4747 74.8577 85.4743 74.8802 85.4669C75.3518 85.31 75.7982 85.0772 76.208 84.7705C76.2743 84.721 76.3389 84.67 76.3987 84.6203C76.8942 84.207 77.3002 83.6961 77.5864 83.1264C77.8738 82.5518 78.0398 81.9212 78.0737 81.2821C78.0779 81.2003 78.08 81.1181 78.08 81.0355C78.08 80.5991 78.0208 80.1735 77.906 79.7664C77.8863 79.6967 77.865 79.6276 77.8417 79.558C77.6781 79.0681 77.433 78.6089 77.0967 78.1714L53.8524 47.2524L53.8102 47.1949C53.6616 46.9875 53.4955 46.7921 53.3072 46.6047C52.9242 46.2216 52.4812 45.9121 51.9898 45.682C51.367 45.3889 50.6896 45.2397 49.9976 45.2402C49.3104 45.2397 48.633 45.3889 48.0048 45.6845C47.5188 45.9121 47.0758 46.2216 46.6872 46.6102C46.5045 46.7921 46.3384 46.9875 46.1898 47.1949L46.1476 47.2524L22.8828 78.1982C22.567 78.6089 22.3219 79.0681 22.158 79.5589C22.1534 79.5727 22.1515 79.5786 22.1492 79.5855C22.1475 79.5906 22.1457 79.5962 22.1425 79.6061C21.9957 80.0623 21.92 80.5419 21.92 81.0355C21.92 81.1181 21.9221 81.2003 21.9261 81.2778C21.9602 81.9212 22.1262 82.5518 22.4114 83.122C22.6997 83.6961 23.1058 84.207 23.598 84.6175C23.6611 84.67 23.7257 84.721 23.792 84.7705C24.2018 85.0772 24.6482 85.31 25.1189 85.4666C25.1421 85.4742 25.1432 85.4746 25.1652 85.4817L25.1686 85.4828C25.6451 85.6355 26.1446 85.7103 26.6483 85.7053Z" fill="#F7D708"/>
</g>
</g>
</svg>
