<?xml version="1.0" encoding="UTF-8"?>
<svg width="100px" height="100px" viewBox="0 0 100 100" version="1.1" xmlns="http://www.w3.org/2000/svg" xmlns:xlink="http://www.w3.org/1999/xlink">
    <!-- Generator: Sketch 55.2 (78181) - https://sketchapp.com -->
    <title>favicon</title>
    <desc>Created with Sketch.</desc>
    <g id="favicon" stroke="none" stroke-width="1" fill="none" fill-rule="evenodd">
        <g id="primary" transform="translate(8.000000, 0.000000)" fill="#2CBAA7">
            <path d="M12.328902,99.1486228 C12.2422845,99.120639 12.2422845,99.120639 12.1481875,99.089527 C10.3469455,98.4897761 8.64637638,97.60219 7.1078004,96.4500772 C6.86192416,96.2659608 6.62116898,96.0758256 6.37551007,95.8713393 C4.50575752,94.3107021 2.97229823,92.3799698 1.87104109,90.1851797 C0.779939169,88.0021647 0.152980516,85.6188565 0.0236549876,83.1757164 C0.0078954734,82.8700606 0,82.5636714 0,82.256803 C0,80.402452 0.288306146,78.5750677 0.846794185,76.8381284 C0.879062581,76.7382819 0.879062581,76.7382819 0.909371175,76.6469826 C1.53487837,74.7725333 2.46866803,73.0220239 3.60287809,71.5466354 L27.6188588,39.5758133 C28.1680832,38.8206959 28.7769334,38.1091051 29.4260321,37.462696 C30.8887284,35.9986342 32.5869226,34.810935 34.4268364,33.9487703 C36.809467,32.8267582 39.3977991,32.2560998 41.9926343,32.2580696 C44.6022009,32.2560998 47.190533,32.8267582 49.5565293,33.9409562 C51.4130774,34.810935 53.1112716,35.9986342 54.5567595,37.4455147 C55.2223039,38.1083436 55.8319085,38.8206922 56.3811759,39.5758616 L80.333702,71.4631541 C81.5313319,73.0220239 82.4651215,74.7725331 83.0897595,76.6443786 C83.1777633,76.9078493 83.2594814,77.1731897 83.3360605,77.4443881 C83.7752605,79.0024491 84,80.6195873 84,82.256803 C84,82.5636716 83.9921045,82.870061 83.9756521,83.1889789 C83.8470196,85.6188564 83.2200609,88.0021648 82.1222022,90.1986719 C81.0277015,92.3799702 79.4942422,94.3107024 77.6142813,95.8798483 C77.378832,96.0758248 77.1380771,96.2659598 76.8922021,96.4500753 C75.3536238,97.6021899 73.6530547,98.489776 71.8491831,99.0904022 C71.7570149,99.1208751 71.7570149,99.1208751 71.6661223,99.1501945 C69.8477243,99.7333749 67.9533198,100.017265 66.1491821,99.9991958 L17.8890376,99.9991958 C16.0094938,100.0116 14.1346625,99.7276957 12.328902,99.1486228 Z M17.8192402,87.096515 L17.8508179,87.096515 L66.1807598,87.096515 C66.7024346,87.1013708 67.2196256,87.023866 67.714527,86.8651457 L67.763542,86.849144 C68.2518766,86.6865456 68.7141631,86.4452622 69.138497,86.1275135 C69.2070935,86.0761473 69.2740402,86.0232764 69.3359194,85.9717751 C69.8489793,85.5435365 70.2694941,85.014079 70.5657727,84.4236158 C70.8633714,83.8281972 71.0352942,83.1746531 71.0703584,82.5123466 C71.0747277,82.427603 71.0769231,82.3424103 71.0769231,82.256803 C71.0769231,81.8045054 71.0156324,81.3634813 70.8967004,80.9415691 C70.8763224,80.8694031 70.8542416,80.7977062 70.8301771,80.7256603 C70.6607504,80.2179415 70.4069068,79.7420789 70.0587666,79.2886189 L45.9455086,47.186889 C45.7916114,46.9719334 45.6196168,46.769411 45.4246373,46.5752127 C45.0280292,46.1782343 44.5693244,45.857421 44.0604616,45.6189614 C43.4155246,45.3152521 42.7140989,45.1606064 41.9975448,45.1611449 C41.2859011,45.1606064 40.5844754,45.3152521 39.9339936,45.6215661 C39.4306756,45.857421 38.9719708,46.1782343 38.5696266,46.5809398 C38.3803832,46.769411 38.2083886,46.9719334 38.010785,47.2464816 L13.9200934,79.316446 C13.5930932,79.7420789 13.3392496,80.2179415 13.1695333,80.7265277 L13.1535076,80.7754619 C13.001489,81.2482532 12.9230769,81.745256 12.9230769,82.256803 C12.9230769,82.3424099 12.9252723,82.4276028 12.9294107,82.507926 C12.9647058,83.174653 13.1366287,83.8281972 13.4319752,84.4191187 C13.7305059,85.014079 14.1510207,85.5435365 14.6606775,85.9689387 C14.7259599,86.0232766 14.7929066,86.0761473 14.8615032,86.1275137 C15.2858369,86.4452622 15.7481234,86.6865456 16.2355847,86.8488534 L16.2869813,86.8656555 C16.7804203,87.0238914 17.2976475,87.10137 17.8192402,87.096515 Z" id="Combined-Shape"></path>
            <path d="M61.7442252,0.577270409 C64.1581213,-0.0527634623 66.6547011,-0.164284188 69.0688362,0.228984372 C71.499831,0.620768532 73.8329707,1.51484424 75.910169,2.86609284 C77.7498239,4.05853038 79.3586579,5.58359903 80.645322,7.36714201 L80.6768876,7.41098355 C85.15938,13.6568133 85.1313224,22.1510792 80.4454986,28.3892801 L31.9861238,92.9028716 C31.8017227,93.1483633 31.6112935,93.388742 31.4064917,93.634016 C29.843441,95.5008454 27.9097295,97.0319022 25.7115596,98.1314304 C23.5251946,99.2208136 21.1382344,99.8467833 18.704576,99.9752162 C16.5158248,100.090711 14.3181462,99.8022933 12.2241971,99.1152382 L12.1526225,99.0915863 C10.0361143,98.3874967 8.07892249,97.2926992 6.38764036,95.8809504 C4.49081843,94.3020566 2.96103037,92.3629495 1.87988861,90.1997364 C0.788595879,88.0247316 0.152807347,85.6393203 0.0265427596,83.1901269 C0.00761847012,82.8326295 -5.68434189e-14,82.4748235 0.00219633729,82.1153618 L0.00219633729,34.1497671 C-0.0167684719,32.9467033 0.0872568921,31.7484235 0.30755357,30.5899411 C0.791804393,28.0145668 1.83930636,25.5957643 3.35098974,23.5053147 C4.86859419,21.3992858 6.83555104,19.6421575 9.11216144,18.3786333 C10.1598351,17.7943711 11.2660785,17.3165679 12.4151826,16.954074 L60.4516722,0.966422007 C60.8825116,0.81868023 61.318025,0.687754564 61.7442252,0.577270409 Z M70.172363,14.9266651 L70.162706,14.9132564 C69.813348,14.4289855 69.375996,14.0144047 68.8690546,13.6858075 C68.2990604,13.315022 67.66879,13.0734979 67.004178,12.9663829 C66.3451457,12.8590288 65.6707264,12.8891547 65.0074421,13.0622694 C64.879795,13.0953632 64.753594,13.1335926 64.5881021,13.1908415 L16.343391,29.2468645 C16.0201783,29.3461144 15.7088639,29.4791889 15.4080711,29.6469261 C14.7870747,29.9915869 14.2545073,30.4673417 13.8378656,31.0455213 C13.4234083,31.6186649 13.1397864,32.2735804 13.0074662,32.977258 C12.944431,33.3087732 12.9164377,33.6457464 12.9252291,34.0587292 L12.9249676,82.2051585 C12.9236503,82.3013215 12.9259197,82.4024925 12.9317937,82.5135157 C12.9664702,83.1860964 13.1382816,83.8307148 13.436364,84.4248177 C13.7312727,85.0148814 14.1446689,85.5388884 14.666152,85.9729692 C15.1313457,86.3612728 15.6640035,86.6592265 16.2384237,86.8503165 L16.2583458,86.8569016 C16.8259197,87.0431309 17.4240938,87.1216337 18.0225424,87.0900551 C18.690295,87.0548154 19.3448436,86.883163 19.9366715,86.5882819 C20.5325406,86.2902236 21.0628049,85.8703757 21.4888537,85.3615289 C21.5432734,85.2963513 21.5962245,85.2295111 21.6476686,85.161024 L70.1070416,20.6474348 C71.3850603,18.9460185 71.39272,16.62709 70.172363,14.9266651 Z" id="Combined-Shape"></path>
        </g>
    </g>
</svg>