<svg width="100" height="102" viewBox="0 0 100 102" fill="none" xmlns="http://www.w3.org/2000/svg">
<g id="favicon">
<g id="logo">
<path id="Combined Shape" fill-rule="evenodd" clip-rule="evenodd" d="M19.4701 101.146C19.5566 101.174 19.5573 101.175 19.639 101.201C21.3446 101.745 23.1163 102.012 24.8929 102H74.978C76.755 102.012 78.5268 101.745 80.2279 101.202C80.2705 101.188 80.292 101.182 80.3134 101.175C80.3352 101.168 80.3569 101.16 80.4007 101.146C82.103 100.582 83.7082 99.7482 85.1612 98.6655C85.3935 98.4924 85.6209 98.3136 85.8433 98.1294C87.6176 96.6557 89.0655 94.8416 90.0987 92.7925C91.1346 90.7301 91.7266 88.4908 91.848 86.2076C91.8635 85.9089 91.871 85.6209 91.871 85.3323C91.871 83.7936 91.6588 82.2745 91.2443 80.811C91.1721 80.5567 91.095 80.3075 91.0119 80.0601C90.428 78.3187 89.5578 76.6891 88.4426 75.2352L63.519 42.2179C62.9988 41.505 62.421 40.8326 61.7898 40.2071C60.4242 38.8468 58.8217 37.7315 57.0695 36.9144C54.8353 35.8674 52.3925 35.3315 49.9291 35.3333C47.4784 35.3315 45.0356 35.8674 42.787 36.9212C41.0492 37.7315 39.4467 38.8468 38.0662 40.2219C37.4494 40.8332 36.8722 41.505 36.3519 42.2179L11.4283 75.2352C10.3132 76.6891 9.44298 78.3187 8.85828 80.0623C8.82969 80.148 8.82963 80.1482 8.7996 80.2407C8.27233 81.8725 8 83.5896 8 85.3323C8 85.6209 8.00746 85.9089 8.02235 86.1962C8.1444 88.4908 8.73637 90.7301 9.76638 92.7808C10.8054 94.8416 12.2533 96.6557 14.0188 98.1221C14.25 98.3136 14.4775 98.4924 14.7098 98.6655C16.1628 99.7482 17.7679 100.582 19.4679 101.145L19.4701 101.146ZM24.8589 90.333L24.8261 90.3332C24.2845 90.3384 23.7474 90.2584 23.235 90.0949C23.2078 90.0861 23.2078 90.0861 23.1817 90.0775C22.6755 89.9098 22.1954 89.6605 21.7548 89.3321C21.6836 89.279 21.6141 89.2244 21.5463 89.1682C21.017 88.7287 20.5804 88.1816 20.2704 87.5668C19.9637 86.9561 19.7852 86.2808 19.7485 85.5918C19.7442 85.5088 19.7419 85.4208 19.7419 85.3323C19.7419 84.8037 19.8234 84.2902 19.9812 83.8016C19.9892 83.7769 19.9892 83.7769 19.9979 83.7511C20.1741 83.2255 20.4377 82.7338 20.7772 82.294L45.7931 49.1548L45.8385 49.0932C45.9983 48.8711 46.1769 48.6618 46.3734 48.4671C46.7912 48.0509 47.2675 47.7194 47.7901 47.4757C48.4656 47.1592 49.194 46.9994 49.9329 46.9999C50.677 46.9994 51.4054 47.1592 52.0751 47.473C52.6035 47.7194 53.0798 48.0509 53.4916 48.4612C53.6941 48.6618 53.8727 48.8711 54.0325 49.0932L54.0779 49.1548L79.0718 82.2652C79.4333 82.7338 79.6969 83.2255 79.8728 83.7502C79.8978 83.8246 79.9207 83.8987 79.9419 83.9733C80.0654 84.4092 80.129 84.865 80.129 85.3323C80.129 85.4208 80.1267 85.5088 80.1222 85.5964C80.0858 86.2808 79.9073 86.9561 79.5982 87.5714C79.2906 88.1815 78.8539 88.7287 78.3212 89.1712C78.2569 89.2244 78.1874 89.279 78.1162 89.3321C77.6755 89.6605 77.1955 89.9098 76.6884 90.0778C76.664 90.0858 76.6632 90.0861 76.6375 90.0943C76.1236 90.2583 75.5865 90.3384 75.0448 90.3332L24.8589 90.333Z" fill="#22A39B"/>
<path id="Combined Shape_2" fill-rule="evenodd" clip-rule="evenodd" d="M70.8622 1.47278C70.4563 1.57861 70.0427 1.70379 69.6336 1.84507L19.7322 18.5501C18.6434 18.8946 17.5952 19.3495 16.6026 19.9062C14.4527 21.1064 12.5964 22.7743 11.1639 24.7739C9.73615 26.7597 8.74757 29.0558 8.29056 31.5004C8.08157 32.6058 7.98344 33.7478 8.00228 34.894V85.0123C7.99929 85.3549 8.00722 85.6966 8.02522 86.0387C8.14448 88.3654 8.74446 90.6295 9.77441 92.6942C10.7953 94.7488 12.2389 96.5893 14.0296 98.0886C15.6272 99.4298 17.4746 100.469 19.4721 101.138L19.5398 101.16C21.5161 101.812 23.5906 102.086 25.6569 101.976C27.9548 101.854 30.2086 101.26 32.2725 100.226C34.3466 99.1822 36.1724 97.7282 37.6482 95.9552C37.841 95.723 38.0209 95.4946 38.1951 95.2613L88.5155 27.8804C92.9389 21.9572 92.9654 13.8916 88.7342 7.96163L88.7044 7.92001C87.4898 6.22662 85.9713 4.77875 84.2345 3.64647C82.2726 2.3628 80.0709 1.51418 77.7766 1.14226C75.4968 0.768725 73.1409 0.874576 70.8622 1.47278ZM79.1797 14.8161L79.1898 14.8301C80.457 16.6061 80.449 19.0281 79.1219 20.8052L28.8016 88.1861C28.7482 88.2576 28.6932 88.3274 28.6367 88.3955C28.1943 88.927 27.6436 89.3655 27.0249 89.6768C26.4103 89.9848 25.7306 90.164 25.0372 90.2008C24.4158 90.2338 23.7947 90.1518 23.2053 89.9573L23.1846 89.9505C22.5881 89.7509 22.035 89.4397 21.552 89.0341C21.0104 88.5807 20.5812 88.0334 20.2749 87.4172C19.9654 86.7966 19.787 86.1234 19.751 85.4209C19.7449 85.3049 19.7426 85.1993 19.7439 85.0988L19.7442 34.8125L19.7433 34.7337C19.735 34.3812 19.7641 34.0292 19.8296 33.683C19.967 32.948 20.2615 32.264 20.6919 31.6654C21.1245 31.0615 21.6775 30.5646 22.3224 30.2046C22.6347 30.0294 22.958 29.8905 23.2936 29.7868L23.3683 29.7628L73.391 13.0172C73.5629 12.9574 73.6939 12.9174 73.8265 12.8829C74.5152 12.7021 75.2156 12.6706 75.8999 12.7827C76.59 12.8946 77.2445 13.1469 77.8364 13.5341C78.3628 13.8773 78.817 14.3103 79.1797 14.8161Z" fill="#22A39B"/>
</g>
</g>
</svg>
