<svg width="302" height="250" viewBox="0 0 302 250" fill="none" xmlns="http://www.w3.org/2000/svg">
<path fill-rule="evenodd" clip-rule="evenodd" d="M280.236 9.43791C262.493 -3.35048 238.497 -3.12279 221 10L151 62.5L81 10C63.503 -3.12279 39.5074 -3.35048 21.7645 9.43791C4.02158 22.2263 -3.35046 45.0624 3.56586 65.8114L53.5659 215.811C60.1557 235.581 78.2789 249.12 98.9599 249.959L98.9459 250L251 250C272.522 250 291.629 236.229 298.434 215.811C305.24 195.394 298.217 172.913 281 160L269.83 151.623L298.434 65.8114C305.35 45.0624 297.978 22.2263 280.236 9.43791ZM66 30L130.167 78.125L53.2515 135.811L27.283 57.9057C23.8248 47.5312 27.5108 36.1132 36.3823 29.719C45.2537 23.3248 57.2515 23.4386 66 30ZM151 93.75L61.5848 160.811L77.2829 207.906C80.6829 218.105 90.2228 224.988 100.972 225H201C211.761 225 221.314 218.114 224.717 207.906L240.415 160.811L151 93.75ZM171.833 78.125L248.749 135.811L274.717 57.9057C278.175 47.5312 274.489 36.1132 265.618 29.719C256.746 23.3248 244.749 23.4386 236 30L171.833 78.125Z" fill="#FFA40A"/>
</svg>
