<svg width="500" height="500" viewBox="0 0 500 500" fill="none" xmlns="http://www.w3.org/2000/svg">
<mask id="mask0" mask-type="alpha" maskUnits="userSpaceOnUse" x="0" y="0" width="500" height="500">
<rect width="500" height="500" fill="#FAFAFA"/>
</mask>
<g mask="url(#mask0)">
<path fill-rule="evenodd" clip-rule="evenodd" d="M475.201 134.285C468.945 120.254 459.142 107.574 446 97.7C445.557 97.3673 445.112 97.0392 444.666 96.7155C442.228 94.9481 439.702 93.2957 437.096 91.7663C410.045 75.8846 377.516 75.0929 350.34 87.841C338.05 93.6061 326.855 102.14 317.756 113.3C304.575 129.422 296.666 150.036 296.666 172.501C296.666 172.655 296.666 172.809 296.667 172.962V265.997L184.668 116.404C153.741 75.0948 95.2409 66.7229 54.0046 97.7047C12.7683 128.686 4.41117 187.29 35.3384 228.599L175.335 415.591C177.936 419.064 180.731 422.305 183.695 425.309C196.882 438.676 213.401 447.358 230.905 451.017C234.299 451.728 237.745 452.251 241.227 452.581C262.963 454.644 285.483 449.119 304.512 435.394C305.657 434.569 306.784 433.717 307.892 432.839C314.947 427.257 320.987 420.846 325.978 413.848L464.667 228.604C465.146 227.965 465.615 227.32 466.076 226.671C468.53 223.219 470.755 219.592 472.73 215.814C481.298 199.441 484.586 181.315 482.92 163.704C481.952 153.31 479.285 143.41 475.201 134.285ZM287.817 386.905L287.333 387.55C286.304 388.925 285.207 390.235 284.047 391.474C282.222 393.419 280.205 395.234 277.999 396.891C275.923 398.452 273.758 399.813 271.529 400.977C266.099 403.804 260.119 405.561 253.914 406.083C247.677 406.602 241.391 405.861 235.454 403.916C226.934 401.115 219.304 395.88 213.582 388.723C213.274 388.338 212.971 387.946 212.673 387.547L72.6763 200.556C72.3473 200.116 72.0272 199.673 71.7159 199.226C65.6827 190.551 62.8625 180.241 63.4091 170.003C63.5835 166.777 64.0897 163.575 64.9198 160.451C65.7249 157.43 66.84 154.464 68.2694 151.601C71.2526 145.624 75.4114 140.477 80.3837 136.386C80.9137 135.951 81.4556 135.525 82.0094 135.109C82.3711 134.837 82.7353 134.571 83.1021 134.312C90.8303 128.849 100.183 125.76 110.003 125.759V125.751C119.971 125.758 129.851 128.953 138.023 135.103C139.765 136.414 141.428 137.858 142.999 139.435C144.539 140.982 145.99 142.655 147.336 144.453L287.332 331.444C293.544 339.741 296.586 349.432 296.667 359.064V359.5C296.658 369.217 293.638 378.851 287.817 386.905ZM436.669 172.5C436.677 182.273 433.637 192.13 427.333 200.55L343.333 312.75V172.5H343.331C343.331 162.184 346.667 152.648 352.318 144.916L352.667 144.45C353.182 143.762 353.712 143.092 354.257 142.441C361.9 133.331 372.951 127.185 385.443 125.973C386.941 125.828 388.46 125.753 389.997 125.753C404.866 125.753 418.111 132.72 426.656 143.573C428.596 146.039 430.305 148.724 431.741 151.601C433.557 155.24 434.866 159.043 435.676 162.915C435.952 164.237 436.171 165.57 436.332 166.91C436.55 168.743 436.662 170.608 436.662 172.5H436.669Z" fill="#00BD87"/>
</g>
</svg>
