<svg width="100" height="100" viewBox="0 0 100 100" fill="none" xmlns="http://www.w3.org/2000/svg">
<g id="favicon">
<g id="logo">
<path id="Combined Shape" fill-rule="evenodd" clip-rule="evenodd" d="M21.6672 95.8024C21.7476 95.829 21.7483 95.8292 21.8242 95.8537C23.4104 96.362 25.0582 96.611 26.7104 96.5996H73.2896C74.9421 96.611 76.5899 96.3619 78.1719 95.8549C78.2116 95.8422 78.2315 95.8357 78.2515 95.8292C78.2717 95.8226 78.2919 95.8159 78.3327 95.8025C79.9158 95.2758 81.4086 94.4973 82.7599 93.4862C82.976 93.3245 83.1875 93.1576 83.3943 92.9856C85.0444 91.6094 86.3909 89.9154 87.3518 88.0019C88.3152 86.076 88.8657 83.9849 88.9787 81.8529C88.9931 81.5739 89 81.3049 89 81.0355C89 79.5986 88.8027 78.18 88.4172 76.8135C88.35 76.5759 88.2783 76.3433 88.2011 76.1122C87.658 74.4861 86.8487 72.9643 85.8117 71.6067L62.6327 40.7747C62.1488 40.1089 61.6115 39.4811 61.0246 38.8969C59.7545 37.6267 58.2642 36.5852 56.6347 35.8222C54.5569 34.8445 52.2851 34.3441 49.9941 34.3458C47.7149 34.3441 45.4431 34.8445 43.3519 35.8285C41.7358 36.5852 40.2454 37.6267 38.9616 38.9108C38.3879 39.4816 37.8511 40.109 37.3673 40.7747L14.1883 71.6067C13.1513 72.9643 12.342 74.4861 11.7982 76.1143C11.7716 76.1943 11.7716 76.1945 11.7436 76.2809C11.2533 77.8047 11 79.4081 11 81.0355C11 81.3049 11.0069 81.5739 11.0208 81.8422C11.1343 83.9849 11.6848 86.076 12.6427 87.991C13.6091 89.9154 14.9556 91.6094 16.5975 92.9787C16.8125 93.1576 17.024 93.3245 17.2401 93.4862C18.5914 94.4973 20.0842 95.2758 21.6652 95.8018L21.6672 95.8024ZM26.6788 85.7052L26.6483 85.7054C26.1446 85.7103 25.6451 85.6355 25.1686 85.4828C25.1432 85.4746 25.1432 85.4746 25.1189 85.4666C24.6482 85.31 24.2018 85.0772 23.792 84.7705C23.7257 84.721 23.6611 84.67 23.598 84.6175C23.1058 84.207 22.6997 83.6961 22.4114 83.122C22.1262 82.5518 21.9602 81.9212 21.9261 81.2778C21.9221 81.2003 21.92 81.1181 21.92 81.0355C21.92 80.5419 21.9957 80.0623 22.1425 79.6061C22.15 79.583 22.15 79.583 22.158 79.5589C22.3219 79.0681 22.567 78.6089 22.8828 78.1982L46.1476 47.2525L46.1898 47.1949C46.3384 46.9875 46.5045 46.7921 46.6872 46.6102C47.0758 46.2217 47.5188 45.9121 48.0048 45.6845C48.633 45.3889 49.3104 45.2397 49.9976 45.2402C50.6896 45.2397 51.367 45.3889 51.9898 45.682C52.4812 45.9121 52.9242 46.2217 53.3072 46.6047C53.4955 46.7921 53.6616 46.9875 53.8102 47.1949L53.8524 47.2525L77.0967 78.1714C77.4329 78.6089 77.6781 79.0681 77.8417 79.558C77.8649 79.6276 77.8863 79.6968 77.906 79.7664C78.0208 80.1735 78.08 80.5991 78.08 81.0355C78.08 81.1181 78.0779 81.2003 78.0737 81.2821C78.0398 81.9212 77.8738 82.5518 77.5864 83.1264C77.3002 83.6961 76.8942 84.207 76.3987 84.6203C76.3389 84.67 76.2743 84.721 76.208 84.7705C75.7982 85.0772 75.3518 85.31 74.8802 85.4669C74.8576 85.4744 74.8568 85.4746 74.8329 85.4823C74.3549 85.6355 73.8555 85.7103 73.3517 85.7054L26.6788 85.7052Z" fill="#00AD69"/>
<g id="Subtract">
<path fill-rule="evenodd" clip-rule="evenodd" d="M69.4618 3.50752C69.0844 3.60552 68.6997 3.72144 68.3192 3.85228L21.9109 19.3218C20.8983 19.6409 19.9235 20.0621 19.0004 20.5777C17.0011 21.6891 15.2747 23.2336 13.9424 25.0854C12.6146 26.9243 11.6952 29.0505 11.2702 31.3144C11.0759 32.338 10.9846 33.3955 11.0021 34.457V80.7777C11.0274 79.2389 11.2792 77.7242 11.7436 76.2809C11.7716 76.1945 11.7716 76.1943 11.7982 76.1143C12.342 74.4861 13.1513 72.9643 14.1883 71.6067L37.3673 40.7747C37.8511 40.1089 38.3879 39.4816 38.9616 38.9108C40.2454 37.6267 41.7358 36.5852 43.3519 35.8285C45.4431 34.8445 47.7149 34.3441 49.9941 34.3458C52.2851 34.3441 54.5569 34.8445 56.6347 35.8222C58.2642 36.5852 59.7545 37.6267 61.0246 38.8969C61.6115 39.481 62.1488 40.1089 62.6327 40.7747L69.4595 49.8554L85.8794 27.9621C89.9932 22.477 90.0178 15.0079 86.0828 9.51647L86.0551 9.47793C84.9255 7.90978 83.5133 6.56899 81.8981 5.52045C80.0735 4.33171 78.026 3.54585 75.8922 3.20144C73.772 2.85553 71.581 2.95356 69.4618 3.50752ZM76.4722 15.0711C76.6191 15.2117 76.7632 15.3542 76.9046 15.4986C76.7702 15.347 76.6258 15.2043 76.4722 15.0711Z" fill="#00AD69"/>
<path d="M26.589 96.6C25.6853 96.5993 24.7833 96.5206 23.8924 96.3642C24.7829 96.5208 25.6852 96.5996 26.589 96.6Z" fill="#00AD69"/>
</g>
</g>
</g>
</svg>
