<svg width="251" height="201" viewBox="0 0 251 201" fill="none" xmlns="http://www.w3.org/2000/svg">
<path fill-rule="evenodd" clip-rule="evenodd" d="M245.643 30.5644C242.292 23.061 237.04 16.2803 230 11C229.763 10.8221 229.524 10.6466 229.285 10.4735C227.979 9.52838 226.626 8.64474 225.23 7.82693C210.738 -0.665967 193.312 -1.08938 178.753 5.72784C172.169 8.81075 166.172 13.3744 161.298 19.3422C154.236 27.9636 149.999 38.9874 149.999 51.0007C149.999 51.083 150 51.1651 150 51.2473V100.999L90.0008 21.0021C73.4327 -1.08835 42.0933 -5.56531 20.0025 11.0025C-2.0884 27.5703 -6.56544 58.909 10.0027 80.9994L85.0009 180.995C86.3941 182.852 87.8917 184.585 89.4794 186.192C96.5438 193.34 105.393 197.983 114.77 199.939C116.589 200.32 118.435 200.6 120.3 200.776C131.944 201.879 144.009 198.925 154.203 191.585C154.816 191.144 155.42 190.688 156.014 190.219C159.793 187.234 163.029 183.805 165.703 180.063L240 81.0024C240.257 80.6603 240.508 80.3155 240.755 79.9683C242.07 78.1223 243.262 76.1831 244.32 74.1627C248.909 65.4069 250.671 55.7141 249.779 46.2965C249.26 40.7381 247.831 35.4439 245.643 30.5644ZM145.259 165.655L145 166C144.448 166.735 143.861 167.436 143.24 168.098C142.262 169.139 141.181 170.109 140 170.995C138.887 171.83 137.728 172.558 136.533 173.18C133.625 174.692 130.421 175.631 127.097 175.91C123.755 176.188 120.388 175.792 117.208 174.752C112.643 173.254 108.556 170.455 105.491 166.627C105.326 166.421 105.163 166.212 105.003 165.999L30.0052 66.003C29.8289 65.768 29.6574 65.5309 29.4906 65.2918C26.2586 60.6531 24.7478 55.1397 25.0406 49.6648C25.134 47.9396 25.4052 46.227 25.8499 44.5565C26.2812 42.9411 26.8786 41.3553 27.6443 39.8238C29.2425 36.6276 31.4704 33.8756 34.1341 31.6878C34.418 31.4549 34.7084 31.2271 35.0051 31.0046C35.1988 30.8593 35.3939 30.7172 35.5904 30.5784C39.7305 27.6574 44.7406 26.0054 50.0018 26.0048V26.0004C55.3417 26.0045 60.6345 27.7129 65.0122 31.0016C65.9455 31.7025 66.8363 32.4751 67.678 33.3184C68.5031 34.1452 69.2802 35.0399 70.0013 36.0014L145 135.997C148.327 140.434 149.957 145.616 150 150.767V151C149.995 156.196 148.377 161.348 145.259 165.655ZM225.001 51C225.005 56.2261 223.377 61.4973 220 66L175 126V51H174.999C174.999 45.4833 176.786 40.384 179.813 36.2493L180 36C180.276 35.6321 180.56 35.274 180.852 34.9257C184.947 30.0539 190.867 26.7674 197.559 26.1194C198.361 26.0416 199.175 26.0018 199.998 26.0018C207.964 26.0018 215.059 29.7272 219.637 35.5308C220.677 36.85 221.592 38.2854 222.361 39.8239C223.334 41.7699 224.035 43.8038 224.469 45.8744C224.617 46.5812 224.734 47.2941 224.821 48.0108C224.938 48.9909 224.998 49.9884 224.998 51H225.001Z" fill="#00BD87"/>
</svg>
