<svg width="191" height="201" viewBox="0 0 191 201" fill="none" xmlns="http://www.w3.org/2000/svg">
<path fill-rule="evenodd" clip-rule="evenodd" d="M190.179 0.5H57.2524L14.5329 50.3394L14.4244 50.4732C-6.70869 76.5505 -3.48906 114.874 22.0586 137.024C25.859 140.318 29.9499 143.076 34.2348 145.3C31.4079 150.573 29.8 156.604 29.8 163C29.8 183.711 46.5893 200.5 67.3 200.5H190.178L104.464 100.501L190.179 0.5ZM59.794 152.614L59.7954 152.615L88.0008 119.708L135.822 175.5H67.3C60.3964 175.5 54.8 169.904 54.8 163C54.8 159.627 56.1193 156.588 58.2966 154.329L58.5492 154.067L59.794 152.614ZM88.0008 81.2935L135.824 25.5H68.7507L33.7466 66.3382C21.1855 81.9722 23.1505 104.882 38.4355 118.134C42.0811 121.295 46.1474 123.622 50.4161 125.14L88 81.2926L88.0008 81.2935Z" fill="#E52E5C"/>
</svg>
