<svg width="400" height="400" viewBox="0 0 400 400" fill="none" xmlns="http://www.w3.org/2000/svg">
<rect width="400" height="400" rx="200" fill="#131619"/>
<path fill-rule="evenodd" clip-rule="evenodd" d="M168.89 128.802C154.162 109.141 126.305 105.157 106.669 119.902C87.0326 134.648 83.053 162.539 97.7802 182.199L164.445 271.196C165.684 272.849 167.015 274.391 168.426 275.821C174.706 282.183 182.572 286.315 190.907 288.056C192.523 288.394 194.164 288.644 195.823 288.8C206.173 289.783 216.897 287.153 225.958 280.621C226.503 280.228 227.04 279.823 227.568 279.405C230.927 276.748 233.804 273.697 236.18 270.366L302.222 182.202C302.45 181.898 302.674 181.591 302.893 181.282C307.374 174.981 310.256 167.462 310.947 159.317C311.175 156.663 311.166 153.989 310.916 151.327C309.847 139.822 304.403 129.588 296.267 122.309C288.407 115.277 278.035 111.003 266.665 111.003C242.12 111.003 222.222 130.925 222.222 155.501C222.222 178.275 239.31 197.054 261.35 199.684L240.881 227.01C239.51 223.806 237.739 220.713 235.557 217.801L168.89 128.802ZM146.678 137.701C142.786 134.774 138.082 133.254 133.335 133.25V133.254C128.658 133.255 124.205 134.725 120.525 137.325C120.35 137.448 120.177 137.575 120.005 137.704C119.741 137.902 119.483 138.105 119.23 138.312C116.863 140.259 114.882 142.709 113.462 145.553C112.781 146.916 112.25 148.328 111.867 149.765C111.471 151.252 111.23 152.776 111.147 154.312C110.887 159.184 112.23 164.091 115.103 168.22C115.251 168.432 115.404 168.644 115.56 168.853L182.225 257.849C182.367 258.038 182.512 258.225 182.658 258.408C185.383 261.815 189.016 264.306 193.073 265.639C195.9 266.565 198.894 266.918 201.864 266.67C204.819 266.422 207.666 265.586 210.252 264.24C211.313 263.686 212.344 263.039 213.333 262.296C214.383 261.507 215.344 260.643 216.213 259.718C216.766 259.127 217.289 258.504 217.78 257.849L217.978 257.584C223.568 249.892 223.775 239.154 217.777 231.147L151.112 142.151C150.471 141.296 149.781 140.499 149.047 139.763C148.299 139.013 147.507 138.325 146.678 137.701ZM288.673 158.596C288.288 161.349 287.387 164.034 285.984 166.502C282.16 173.22 274.941 177.75 266.665 177.75C254.392 177.75 244.443 167.788 244.443 155.501C244.443 143.213 254.392 133.252 266.665 133.252C273.746 133.252 280.053 136.567 284.122 141.732C285.046 142.906 285.859 144.184 286.543 145.553C287.659 147.788 288.373 150.154 288.693 152.552C288.821 153.517 288.887 154.501 288.887 155.501C288.887 156.551 288.814 157.584 288.673 158.596Z" fill="#00BD87"/>
</svg>
