<svg width="191" height="201" viewBox="0 0 191 201" fill="none" xmlns="http://www.w3.org/2000/svg">
<path fill-rule="evenodd" clip-rule="evenodd" d="M190.178 0.5H57.2508L14.5314 50.3394L14.4229 50.4732C-6.71025 76.5505 -3.49061 114.874 22.0571 137.024C25.8598 140.321 29.9534 143.079 34.2413 145.305C21.1961 169.256 38.1424 200.5 67.3555 200.5H190.178L104.463 100.5L190.178 0.5ZM88 119.707L57.8648 154.865C50.9147 162.974 56.6761 175.5 67.3555 175.5H135.822L88 119.707ZM50.4158 125.141L135.822 25.5H68.7492L33.745 66.3382C21.184 81.9722 23.1489 104.882 38.4339 118.134C42.0799 121.296 46.1466 123.622 50.4158 125.141Z" fill="#E52E5C"/>
</svg>
