<svg width="400" height="400" viewBox="0 0 400 400" fill="none" xmlns="http://www.w3.org/2000/svg">
<rect width="400" height="400" rx="200" fill="#131619"/>
<path fill-rule="evenodd" clip-rule="evenodd" d="M168.89 149.802C154.162 130.141 126.305 126.157 106.669 140.902C87.0326 155.648 83.053 183.539 97.7802 203.199L164.445 292.196C165.684 293.849 167.015 295.391 168.426 296.821C174.706 303.183 182.572 307.315 190.907 309.056C192.523 309.394 194.164 309.644 195.823 309.8C206.173 310.783 216.897 308.153 225.958 301.621C226.503 301.228 227.04 300.823 227.568 300.405C230.927 297.748 233.804 294.697 236.18 291.366L302.222 203.202C302.45 202.898 302.674 202.591 302.893 202.282C307.374 195.981 310.256 188.462 310.947 180.317C311.175 177.663 311.166 174.989 310.916 172.327C309.847 160.822 304.403 150.588 296.267 143.309C288.407 136.277 278.035 132.003 266.665 132.003C242.12 132.003 222.222 151.925 222.222 176.501C222.222 199.275 239.31 218.054 261.35 220.684L240.881 248.01C239.51 244.806 237.739 241.713 235.557 238.801L168.89 149.802ZM146.678 158.701C142.786 155.774 138.082 154.254 133.335 154.25V154.254C128.658 154.255 124.205 155.725 120.525 158.325C120.35 158.448 120.177 158.575 120.005 158.704C119.741 158.902 119.483 159.105 119.23 159.312C116.863 161.259 114.882 163.709 113.462 166.553C112.781 167.916 112.25 169.328 111.867 170.765C111.471 172.252 111.23 173.776 111.147 175.312C110.887 180.184 112.23 185.091 115.103 189.22C115.251 189.432 115.403 189.644 115.56 189.853L182.225 278.849C182.367 279.038 182.512 279.225 182.658 279.408C185.383 282.815 189.016 285.306 193.073 286.639C195.9 287.565 198.894 287.918 201.864 287.67C204.819 287.422 207.666 286.586 210.252 285.24C211.313 284.686 212.344 284.039 213.333 283.296C214.383 282.507 215.344 281.643 216.213 280.718C216.766 280.127 217.289 279.504 217.78 278.849L217.978 278.584C223.568 270.892 223.775 260.154 217.777 252.147L151.112 163.151C150.471 162.296 149.781 161.499 149.047 160.763C148.299 160.013 147.507 159.325 146.678 158.701ZM288.673 179.596C288.288 182.349 287.387 185.034 285.984 187.502C282.16 194.22 274.941 198.75 266.665 198.75C254.392 198.75 244.443 188.788 244.443 176.501C244.443 164.213 254.392 154.252 266.665 154.252C273.746 154.252 280.053 157.567 284.122 162.732C285.046 163.906 285.859 165.184 286.543 166.553C287.659 168.788 288.373 171.154 288.693 173.552C288.821 174.517 288.887 175.501 288.887 176.501C288.887 177.551 288.814 178.584 288.673 179.596Z" fill="#00BD87"/>
</svg>
