<svg width="400" height="400" viewBox="0 0 400 400" fill="none" xmlns="http://www.w3.org/2000/svg">
<ellipse cx="232" cy="262.5" rx="142" ry="87.5" fill="#755CF2"/>
<ellipse cx="201" cy="212.5" rx="111" ry="137.5" fill="#755CF2"/>
<ellipse cx="114" cy="271.5" rx="87" ry="78.5" fill="#755CF2"/>
<path fill-rule="evenodd" clip-rule="evenodd" d="M200 40C225.181 40 248.892 51.8555 264 72L384 232C402.181 256.241 405.105 288.674 391.554 315.777C378.002 342.88 350.301 360 320 360H80.0003C49.6986 360 21.9976 342.88 8.44627 315.777C-5.10506 288.674 -2.18059 256.241 16.0004 232L136 72C151.108 51.8555 174.819 40 200 40ZM200 80C212.59 80 224.446 85.9278 232 96L352 256C361.09 268.121 362.552 284.337 355.777 297.889C349.001 311.44 335.151 320 320 320H80.0003C64.8494 320 50.9989 311.44 44.2233 297.889C37.4476 284.337 38.9098 268.121 48.0003 256L168 96C175.554 85.9278 187.41 80 200 80Z" fill="black"/>
</svg>
