<svg width="100" height="100" viewBox="0 0 100 100" fill="none" xmlns="http://www.w3.org/2000/svg">
<path fill-rule="evenodd" clip-rule="evenodd" d="M66.4404 8.76487C66.7817 8.64745 67.127 8.54342 67.4657 8.45547C69.3676 7.95832 71.3339 7.87035 73.2366 8.18078C75.1515 8.48987 76.9891 9.19513 78.6265 10.2619C80.076 11.2029 81.3434 12.4062 82.3571 13.8135L82.382 13.8481C85.9134 18.7763 85.8913 25.4793 82.1994 30.4018L67.4636 50.0497L82.1387 69.5701C83.0694 70.7885 83.7956 72.1542 84.283 73.6135C84.3523 73.8209 84.4167 74.0297 84.4769 74.2428C84.8229 75.4692 85 76.7423 85 78.0319C85 78.2737 84.9938 78.515 84.9808 78.7654C84.8795 80.6788 84.3854 82.5554 83.5209 84.2837C82.6585 86.001 81.4501 87.5213 79.9693 88.7563C79.7836 88.9107 79.5938 89.0605 79.3999 89.2055C78.1872 90.1129 76.8475 90.8116 75.4268 91.2843L75.3539 91.3083L75.2825 91.3314C73.8628 91.7863 72.384 92.0099 70.9009 91.9997H29.0991C27.6163 92.0099 26.1376 91.7864 24.7141 91.3303C24.6459 91.3083 24.6453 91.3081 24.5731 91.2842L24.5713 91.2836C23.1525 90.8116 21.8128 90.1129 20.6001 89.2055C20.4062 89.0605 20.2164 88.9107 20.0234 88.7501C18.5499 87.5212 17.3415 86.001 16.4742 84.274C15.6146 82.5554 15.1205 80.6788 15.0186 78.7558C15.0062 78.515 15 78.2737 15 78.0319C15 77.9547 15.0006 77.8776 15.0019 77.8005V36.2307C14.9862 35.278 15.0681 34.329 15.2425 33.4103C15.6239 31.3787 16.449 29.4705 17.6406 27.8202C18.8363 26.1584 20.3856 24.7722 22.1799 23.7748C23.0083 23.3122 23.8831 22.9341 24.7919 22.6478L66.4404 8.76487ZM15.6674 73.7649L15.6676 73.764C15.6847 73.7114 15.6901 73.6947 15.6995 73.6662C15.69 73.6948 15.6846 73.7115 15.6674 73.7649ZM73.7571 18.8331C73.8889 18.9593 74.0183 19.0871 74.1452 19.2167C74.0245 19.0806 73.8949 18.9526 73.7571 18.8331ZM29.0433 82.2227L29.0707 82.2226L70.9567 82.2227C71.4088 82.2272 71.857 82.16 72.2859 82.0226L72.3284 82.0087C72.7516 81.8679 73.1523 81.659 73.52 81.3838C73.5795 81.3393 73.6375 81.2935 73.6911 81.249C74.1358 80.8781 74.5002 80.4196 74.757 79.9083C75.0149 79.3927 75.1639 78.8267 75.1943 78.2532C75.1981 78.1798 75.2 78.106 75.2 78.0319C75.2 77.6402 75.1469 77.2583 75.0438 76.8929C75.0261 76.8304 75.007 76.7683 74.9861 76.7059C74.8393 76.2663 74.6193 75.8542 74.3176 75.4615L53.4573 47.7137L53.4194 47.6621C53.2861 47.476 53.137 47.3006 52.968 47.1324C52.6243 46.7887 52.2267 46.5108 51.7857 46.3043C51.2268 46.0413 50.6189 45.9074 49.9979 45.9079C49.3811 45.9074 48.7732 46.0413 48.2095 46.3066C47.7732 46.5108 47.3757 46.7887 47.027 47.1374C46.863 47.3006 46.7139 47.476 46.5806 47.6621L46.5427 47.7137L25.6641 75.4856C25.3807 75.8542 25.1607 76.2663 25.0136 76.7067L24.9997 76.7491C24.868 77.1585 24.8 77.5889 24.8 78.0319C24.8 78.106 24.8019 78.1798 24.8055 78.2493C24.8361 78.8267 24.9851 79.3927 25.241 79.9044C25.4998 80.4196 25.8642 80.8781 26.3059 81.2465C26.3625 81.2935 26.4205 81.3393 26.48 81.3838C26.8477 81.659 27.2484 81.8679 27.6708 82.0085L27.7154 82.023C28.143 82.1601 28.5913 82.2272 29.0433 82.2227Z" fill="#3F00C6"/>
</svg>
