<svg width="302" height="250" viewBox="0 0 302 250" fill="none" xmlns="http://www.w3.org/2000/svg">
<path fill-rule="evenodd" clip-rule="evenodd" d="M81 9.99998C63.503 -3.12282 39.5075 -3.35051 21.7645 9.43788C4.02157 22.2263 -3.35046 45.0624 3.56586 65.8114L53.5659 215.811C54.6458 219.051 56.0354 222.123 57.6952 225H51C50.3282 225 49.6612 224.973 49 224.92V225L57.6952 225C66.4959 240.252 82.8934 250 101 250H201C222.521 250 241.628 236.228 248.434 215.811L298.434 65.8114C305.35 45.0624 297.978 22.2263 280.236 9.43788C262.493 -3.35051 238.497 -3.12282 221 9.99998L151 62.5L81 9.99998ZM130.167 78.125L66 30C57.2515 23.4386 45.2537 23.3247 36.3823 29.7189C27.5108 36.1131 23.8248 47.5312 27.2829 57.9057L53.2515 135.811L130.167 78.125ZM61.5848 160.811L151 93.75L240.415 160.811L224.717 207.906C221.314 218.114 211.761 225 201 225H101C90.2393 225 80.6858 218.114 77.2829 207.906L61.5848 160.811ZM248.749 135.811L171.833 78.125L236 30C244.749 23.4386 256.746 23.3247 265.618 29.7189C274.489 36.1131 278.175 47.5312 274.717 57.9057L248.749 135.811Z" fill="#FFA40A"/>
</svg>
