<svg width="100" height="100" viewBox="0 0 100 100" fill="none" xmlns="http://www.w3.org/2000/svg">
<circle cx="50" cy="50" r="50" fill="black"/>
<path fill-rule="evenodd" clip-rule="evenodd" d="M61.0688 23.4917C61.2883 23.4162 61.5102 23.3493 61.728 23.2928C62.9506 22.9732 64.2146 22.9167 65.4378 23.1162C66.6688 23.3149 67.8501 23.7683 68.9028 24.4541C69.8346 25.059 70.6494 25.8326 71.301 26.7373L71.317 26.7595C73.5872 29.9276 73.573 34.2367 71.1996 37.4012L61.6932 50.0765L71.1606 62.6697C71.7589 63.453 72.2258 64.3309 72.5391 65.2691C72.5837 65.4024 72.625 65.5366 72.6637 65.6736C72.8862 66.4621 73 67.2805 73 68.1095C73 68.2649 72.996 68.4201 72.9877 68.581C72.9225 69.811 72.6049 71.0174 72.0491 72.1285C71.4948 73.2324 70.7179 74.2098 69.766 75.0037C69.6466 75.103 69.5246 75.1993 69.4 75.2925C68.6203 75.8758 67.7591 76.325 66.8458 76.6289L66.7989 76.6443L66.753 76.6591C65.8403 76.9516 64.8897 77.0953 63.9363 77.0887H37.0637C36.1105 77.0953 35.1599 76.9517 34.2448 76.6584C34.2188 76.6501 34.2081 76.6466 34.194 76.642C34.1844 76.6388 34.1731 76.6351 34.1541 76.6288L34.153 76.6285C33.2409 76.325 32.3797 75.8758 31.6001 75.2925C31.4754 75.1993 31.3534 75.103 31.2293 74.9998C30.2821 74.2098 29.5052 73.2324 28.9477 72.1222C28.3951 71.0174 28.0775 69.811 28.012 68.5749C28.004 68.4201 28 68.2649 28 68.1095C28 68.0666 28.0003 68.0238 28.0009 67.9809C28.001 67.962 28.0011 67.9431 28.0012 67.9242V41.1483C27.9911 40.5359 28.0438 39.9258 28.1559 39.3352C28.4011 38.0292 28.9315 36.8025 29.6975 35.7416C30.4662 34.6733 31.4621 33.7822 32.6156 33.141C33.1482 32.8435 33.7106 32.6005 34.2948 32.4164L61.0688 23.4917ZM46.148 70.8035L63.9721 70.8036C64.2628 70.8064 64.5509 70.7633 64.8267 70.6749L64.854 70.666C65.126 70.5755 65.3836 70.4412 65.62 70.2643C65.6582 70.2357 65.6955 70.2062 65.73 70.1776C66.0159 69.9392 66.2501 69.6444 66.4152 69.3157C66.581 68.9843 66.6768 68.6204 66.6963 68.2517C66.6988 68.2045 66.7 68.1571 66.7 68.1095C66.7 67.8577 66.6659 67.6121 66.5996 67.3773C66.5882 67.3371 66.5759 67.2972 66.5625 67.2571C66.4681 66.9744 66.3267 66.7095 66.1327 66.4571L57.7604 55.3204L46.148 70.8035ZM53.8182 50.0766L39.1608 69.6198C39.1322 69.6581 39.1027 69.6954 39.0724 69.7317C38.835 70.0157 38.5396 70.2499 38.2076 70.4163C37.8778 70.5808 37.5132 70.6766 37.1411 70.6962C36.8077 70.7139 36.4744 70.6701 36.1582 70.5661L36.1471 70.5625C35.8271 70.4558 35.5303 70.2896 35.2711 70.0729C34.9806 69.8307 34.7503 69.5383 34.586 69.209C34.4199 68.8775 34.3242 68.5178 34.3049 68.1425C34.3028 68.1036 34.3016 68.0669 34.3011 68.0317C34.3083 67.7743 34.3514 67.524 34.4284 67.2848L34.4373 67.2576C34.5319 66.9744 34.6733 66.7095 34.8555 66.4726L48.2774 48.6192L48.3018 48.5861C48.3875 48.4664 48.4834 48.3536 48.5888 48.2487C48.813 48.0245 49.0685 47.8459 49.3489 47.7146C49.7114 47.5441 50.1021 47.458 50.4986 47.4583C50.8979 47.458 51.2886 47.5441 51.648 47.7132C51.9315 47.8459 52.187 48.0245 52.408 48.2455C52.5166 48.3536 52.6125 48.4664 52.6982 48.5861L52.7226 48.6192L53.8182 50.0766ZM57.7515 44.8321C57.482 44.4665 57.1842 44.1211 56.8603 43.7987C56.1276 43.0659 55.2678 42.4651 54.3277 42.0249C53.129 41.4608 51.8183 41.1721 50.4966 41.1731C49.1817 41.1721 47.871 41.4608 46.6646 42.0285C45.7322 42.4651 44.8724 43.0659 44.1317 43.8067C43.8007 44.1361 43.491 44.498 43.2119 44.882L34.3011 56.7349L34.3012 41.1047L34.3007 41.0626C34.2963 40.8743 34.3119 40.6863 34.347 40.5013C34.4207 40.1086 34.5788 39.7432 34.8097 39.4234C35.0418 39.1007 35.3385 38.8353 35.6845 38.6429C35.8521 38.5494 36.0255 38.4751 36.2056 38.4197L36.2457 38.4069L63.0848 29.4604C63.177 29.4285 63.2473 29.4072 63.3184 29.3887C63.688 29.2921 64.0637 29.2753 64.4309 29.3352C64.8012 29.395 65.1523 29.5297 65.4699 29.7366C65.7523 29.92 65.996 30.1513 66.1907 30.4216L66.196 30.429C66.876 31.3779 66.8717 32.6718 66.1596 33.6212L57.7515 44.8321Z" fill="white"/>
</svg>
