<svg width="100" height="100" viewBox="0 0 100 100" fill="none" xmlns="http://www.w3.org/2000/svg">
<circle cx="50" cy="50" r="50" fill="black"/>
<path fill-rule="evenodd" clip-rule="evenodd" d="M71.2001 37.4006C73.5622 34.2511 73.6032 29.932 71.3012 26.7382C68.9993 23.5445 64.8888 22.2176 61.154 23.4625L34.1541 32.4625C30.479 33.6875 28.0002 37.1267 28.0002 41.0006V67.9467C27.9978 68.341 28.0212 68.7359 28.0708 69.1289C28.3317 71.1995 29.3018 73.0863 30.7688 74.4948C31.5406 75.2358 32.45 75.8444 33.466 76.2778C34.02 76.5144 34.5997 76.6963 35.197 76.8184C35.8298 76.948 36.4677 77.0077 37.1003 77.0005H64C67.4089 77.0005 70.5253 75.0745 72.0498 72.0255C73.5743 68.9764 73.2453 65.3277 71.2 62.6006L61.75 50.0007L71.2001 37.4006ZM57.8125 44.7507L66.1601 33.6206C66.8687 32.6758 66.881 31.38 66.1904 30.4219C65.4999 29.4638 64.2667 29.0657 63.1463 29.4392L36.1463 38.4392C35.0438 38.8067 34.3002 39.8384 34.3002 41.0006V56.6004L43.3 44.6006C44.9997 42.3344 47.6672 41.0006 50.5 41.0006C53.3328 41.0006 56.0003 42.3344 57.7 44.6006L57.8125 44.7507ZM34.3002 67.9744C34.3057 67.4096 34.4882 66.8496 34.84 66.3805L48.34 48.3806C48.8499 47.7007 49.6502 47.3006 50.5 47.3006C51.3498 47.3006 52.1501 47.7007 52.66 48.3806L53.8751 50.0007L39.1601 69.6205C38.6467 70.3052 37.853 70.6913 37.03 70.7005H37C36.8274 70.7005 36.6573 70.6841 36.4915 70.6523C36.3757 70.63 36.2604 70.6 36.1463 70.562C36.0556 70.5317 35.9673 70.497 35.8816 70.458C35.6403 70.3482 35.4162 70.2033 35.2169 70.028C34.9552 69.7977 34.7406 69.5188 34.5851 69.2079C34.4947 69.0273 34.4243 68.836 34.376 68.637C34.3263 68.4318 34.3002 68.2184 34.3002 68.0005V67.9744ZM46.2251 70.7005L57.8125 55.2506L66.16 66.3805C66.7736 67.1987 66.8723 68.2933 66.4149 69.208C65.9576 70.1227 65.0227 70.7005 64 70.7005H46.2251Z" fill="white"/>
</svg>
