<svg width="168" height="201" viewBox="0 0 168 201" fill="none" xmlns="http://www.w3.org/2000/svg">
<path fill-rule="evenodd" clip-rule="evenodd" d="M160.901 14.8427C169.411 26.671 169.26 42.6677 160.527 54.3321L125.591 100.998L160.527 147.663C168.089 157.764 169.305 171.277 163.669 182.57C158.033 193.862 146.512 200.995 133.909 200.995H34.4615C32.0562 201.023 29.6305 200.788 27.2256 200.279C25.1926 199.85 23.2158 199.233 21.3184 198.442C14.5558 195.629 9.04777 190.721 5.45066 184.629C2.87549 180.269 1.27969 175.302 0.904056 170.064C0.843912 169.227 0.815344 168.39 0.818186 167.553V67.6652C0.818186 53.3178 9.9825 40.5801 23.5692 36.0431L123.387 2.71052C137.195 -1.90025 152.391 3.01432 160.901 14.8427ZM17.4546 134.33V67.6652C17.4546 60.4915 22.0367 54.1227 28.83 51.8541L128.648 18.5216C135.552 16.2162 143.15 18.6735 147.405 24.5876C151.66 30.5018 151.585 38.5001 147.218 44.3324L115.193 87.1092L110.618 80.9982C104.334 72.6049 94.4729 67.6652 84 67.6652C73.5272 67.6652 63.6655 72.6049 57.3818 80.9982L17.4546 134.33ZM17.4954 168.834C17.4683 168.447 17.4546 168.056 17.4546 167.663V167.61C17.4662 164.087 18.5917 160.589 20.7818 157.663L70.6909 90.998C73.8328 86.8013 78.7636 84.3315 84 84.3315C89.2364 84.3315 94.1673 86.8013 97.3091 90.998L104.795 100.998L47.4 177.663C44.2366 181.888 39.3471 184.272 34.2767 184.329H34.0909C32.9198 184.329 31.7673 184.206 30.649 183.969C30.0391 183.84 29.4319 183.675 28.83 183.474C28.4496 183.347 28.0762 183.207 27.71 183.055C24.4347 181.692 21.6322 179.295 19.7784 176.159C19.5779 175.82 19.3886 175.472 19.2109 175.116C18.2143 173.12 17.6463 170.984 17.4954 168.834ZM63.2046 184.329H133.909C140.211 184.329 145.971 180.763 148.789 175.116C151.607 169.47 150.999 162.713 147.218 157.663L115.193 114.886L63.2046 184.329Z" fill="#8E9398"/>
</svg>
