<svg width="100" height="100" viewBox="0 0 100 100" fill="none" xmlns="http://www.w3.org/2000/svg">
<circle cx="50" cy="50" r="50" fill="black"/>
<path fill-rule="evenodd" clip-rule="evenodd" d="M61.0688 23.4917C61.2883 23.4162 61.5102 23.3493 61.728 23.2928C62.9506 22.9732 64.2146 22.9167 65.4378 23.1162C66.6688 23.3149 67.8501 23.7683 68.9028 24.4541C69.8346 25.059 70.6494 25.8326 71.301 26.7373L71.317 26.7595C73.5872 29.9276 73.573 34.2367 71.1996 37.4012L61.7266 50.032L71.1606 62.5808C71.7589 63.364 72.2258 64.242 72.5391 65.1801C72.5837 65.3134 72.625 65.4477 72.6637 65.5847C72.8862 66.3731 73 67.1915 73 68.0205C73 68.1759 72.996 68.3311 72.9877 68.492C72.9225 69.7221 72.6049 70.9285 72.0491 72.0396C71.4948 73.1435 70.7179 74.1208 69.766 74.9148C69.6466 75.014 69.5246 75.1103 69.4 75.2036C68.6203 75.7869 67.7591 76.236 66.8458 76.5399L66.8455 76.54L66.8115 76.5512L66.7989 76.5553L66.753 76.5702C65.8403 76.8626 64.8897 77.0064 63.9363 76.9998H37.0637L37.0554 76.9998C37.0562 76.9998 37.057 76.9998 37.0578 76.9998C36.5033 77.0035 35.9496 76.9561 35.4037 76.8578C35.4158 76.86 35.428 76.8622 35.4402 76.8643C35.0369 76.7936 34.6376 76.6953 34.2448 76.5695L34.1904 76.5518L34.1547 76.5401L34.1541 76.5399L34.153 76.5395C33.2409 76.236 32.3797 75.7869 31.6001 75.2036C31.4754 75.1103 31.3534 75.014 31.2293 74.9108C30.2821 74.1208 29.5052 73.1435 28.9477 72.0333C28.3951 70.9285 28.0775 69.7221 28.012 68.4859C28.004 68.3311 28 68.1759 28 68.0205C28 67.9709 28.0004 67.9213 28.0012 67.8717L28.0012 41.1483C27.9911 40.5359 28.0438 39.9258 28.1559 39.3352C28.4011 38.0292 28.9315 36.8025 29.6975 35.7416C30.4662 34.6733 31.4621 33.7822 32.6156 33.141C33.1482 32.8435 33.7106 32.6005 34.2948 32.4164L61.0688 23.4917ZM46.2148 70.7146L63.9721 70.7146C64.2628 70.7175 64.5509 70.6743 64.8267 70.586L64.8535 70.5772L64.854 70.5771C65.126 70.4865 65.3836 70.3522 65.62 70.1753C65.6582 70.1467 65.6955 70.1173 65.73 70.0886C66.0159 69.8502 66.2501 69.5555 66.4152 69.2268C66.581 68.8953 66.6768 68.5315 66.6963 68.1628C66.6988 68.1156 66.7 68.0682 66.7 68.0205C66.7 67.7687 66.6659 67.5232 66.5996 67.2883C66.5882 67.2481 66.5759 67.2082 66.5625 67.1681C66.4681 66.8855 66.3267 66.6206 66.1327 66.3681L57.7938 55.2758L46.2148 70.7146ZM66.196 30.429L66.1907 30.4216C65.996 30.1513 65.7523 29.92 65.4699 29.7366C65.1523 29.5297 64.8012 29.395 64.4309 29.3352C64.0637 29.2753 63.688 29.2921 63.3184 29.3887C63.2473 29.4072 63.177 29.4285 63.0848 29.4604L36.2457 38.4069L36.2056 38.4197C36.0255 38.4751 35.8521 38.5493 35.6845 38.6429C35.3385 38.8353 35.0418 39.1007 34.8097 39.4234C34.5788 39.7432 34.4207 40.1086 34.347 40.5013C34.3119 40.6863 34.2963 40.8743 34.3007 41.0626L34.3012 41.1047L34.3011 67.9705C34.3004 68.0241 34.3016 68.0806 34.3049 68.1425C34.3242 68.5178 34.4199 68.8775 34.586 69.209C34.7503 69.5383 34.9806 69.8307 35.2711 70.0729C35.5303 70.2896 35.8271 70.4558 36.1471 70.5625L36.1582 70.5661C36.4744 70.6701 36.8077 70.7139 37.1411 70.6962C37.5132 70.6766 37.8778 70.5808 38.2076 70.4162C38.5396 70.2499 38.835 70.0157 39.0724 69.7317C39.1027 69.6954 39.1322 69.6581 39.1608 69.6198L66.1596 33.6212C66.8717 32.6718 66.8759 31.3779 66.196 30.429Z" fill="white"/>
</svg>
