<svg width="400" height="400" viewBox="0 0 400 400" fill="none" xmlns="http://www.w3.org/2000/svg">
<path fill-rule="evenodd" clip-rule="evenodd" d="M144.001 72.0033C117.492 36.6586 67.3493 29.4955 32.004 56.004C-3.34143 82.5125 -10.5047 132.654 16.0043 167.999L136.002 327.992C138.231 330.964 140.627 333.737 143.167 336.307C154.47 347.745 168.63 355.172 183.632 358.303C186.542 358.911 189.495 359.36 192.48 359.641C211.111 361.407 230.414 356.68 246.725 344.936C247.706 344.23 248.672 343.501 249.622 342.75C255.669 337.974 260.846 332.488 265.124 326.501L384 168.004C384.41 167.456 384.813 166.905 385.208 166.349C393.274 155.022 398.461 141.504 399.705 126.862C400.116 122.091 400.098 117.284 399.648 112.498C397.724 91.8152 387.926 73.417 373.28 60.3306C359.133 47.6894 340.463 40.0047 319.997 40.0047C275.815 40.0047 239.999 75.8203 239.999 120.001C239.999 160.944 270.759 194.704 310.43 199.431L273.585 248.557C271.118 242.797 267.93 237.237 264.003 232.001L144.001 72.0033ZM104.02 88.0026C97.0152 82.7406 88.5467 80.0071 80.0028 80.0006V80.0077C71.585 80.0086 63.5688 82.6519 56.9447 87.3254C56.6303 87.5475 56.318 87.7748 56.0081 88.0073C55.5334 88.3633 55.0689 88.7278 54.6146 89.1005C50.3526 92.601 46.7879 97.0041 44.2309 102.118C43.0057 104.568 42.0499 107.106 41.3598 109.69C40.6483 112.363 40.2144 115.103 40.0649 117.864C39.5965 126.624 42.0137 135.445 47.185 142.867C47.4518 143.249 47.7263 143.629 48.0083 144.005L168.005 303.998C168.261 304.338 168.521 304.674 168.785 305.004C173.689 311.128 180.229 315.606 187.532 318.003C192.621 319.667 198.009 320.301 203.354 319.857C208.673 319.41 213.8 317.907 218.453 315.488C220.364 314.492 222.219 313.328 223.999 311.993C225.89 310.575 227.619 309.022 229.184 307.357C230.178 306.296 231.12 305.175 232.003 303.998L232.36 303.522C242.422 289.694 242.796 270.39 231.999 255.995L112.002 96.0022C110.848 94.4639 109.605 93.0324 108.285 91.7094C106.938 90.3602 105.513 89.1239 104.02 88.0026ZM359.612 125.566C358.918 130.514 357.296 135.343 354.772 139.78C347.888 151.857 334.893 159.999 319.997 159.999C297.906 159.999 279.998 142.092 279.998 120.001C279.998 97.9107 297.906 80.0029 319.997 80.0029C332.742 80.0029 344.095 85.9636 351.42 95.2492C353.083 97.3599 354.547 99.6567 355.778 102.118C357.787 106.137 359.072 110.389 359.648 114.7C359.878 116.434 359.996 118.204 359.996 120.001C359.996 121.89 359.865 123.747 359.612 125.566Z" fill="#00BD87"/>
</svg>
