<svg width="100" height="100" viewBox="0 0 100 100" fill="none" xmlns="http://www.w3.org/2000/svg">
<path fill-rule="evenodd" clip-rule="evenodd" d="M66.4404 8.76487C66.7818 8.64745 67.127 8.54342 67.4657 8.45547C69.3676 7.95832 71.3339 7.87035 73.2366 8.18078C75.1515 8.48987 76.9891 9.19513 78.6265 10.2619C80.076 11.2029 81.3434 12.4062 82.3571 13.8135L82.382 13.8481C85.9134 18.7763 85.8913 25.4793 82.1995 30.4018L67.4636 50.0498L82.1387 69.5701C83.0694 70.7885 83.7957 72.1542 84.283 73.6135C84.3523 73.8209 84.4167 74.0297 84.4769 74.2429C84.8229 75.4693 85 76.7424 85 78.0319C85 78.2737 84.9938 78.5151 84.9809 78.7654C84.8795 80.6788 84.3854 82.5554 83.5209 84.2837C82.6585 86.001 81.4501 87.5213 79.9693 88.7563C79.7836 88.9107 79.5938 89.0605 79.3999 89.2056C78.1872 90.1129 76.8475 90.8116 75.4268 91.2843L75.3539 91.3083L75.2825 91.3314C73.8628 91.7863 72.384 92.0099 70.9009 91.9997H29.0991C29.0628 91.9999 29.0264 92 28.9901 92C28.161 91.9997 27.3333 91.9258 26.5168 91.7789C26.5346 91.7821 26.5524 91.7852 26.5701 91.7884C25.944 91.6784 25.324 91.5257 24.7141 91.3303L24.6384 91.3058L24.621 91.3001L24.5713 91.2837C23.1525 90.8116 21.8128 90.1129 20.6001 89.2056C20.4062 89.0605 20.2164 88.9107 20.0234 88.7502C18.5499 87.5213 17.3415 86.001 16.4742 84.274C15.6146 82.5554 15.1205 80.6788 15.0186 78.7558C15.0062 78.5151 15 78.2737 15 78.0319C15 77.9547 15.0006 77.8776 15.0019 77.8005V77.8821C14.9994 78.1669 15.006 78.4509 15.0211 78.7351C15.0405 79.1129 15.0753 79.4886 15.125 79.8616C15.0753 79.4886 15.0405 79.1129 15.0211 78.7351C15.006 78.4509 14.9994 78.1669 15.0019 77.8821V36.2307C14.9862 35.278 15.0681 34.329 15.2425 33.4103C15.6239 31.3787 16.449 29.4705 17.6406 27.8202C18.8363 26.1584 20.3856 24.7722 22.1799 23.7748C23.0083 23.3122 23.8831 22.9341 24.7919 22.6478L66.4404 8.76487ZM74.4161 19.5563L74.4077 19.5446C74.1049 19.1243 73.7259 18.7644 73.2865 18.4792C72.7925 18.1574 72.2463 17.9477 71.6703 17.8547C71.0991 17.7616 70.5146 17.7877 69.9398 17.938C69.8292 17.9667 69.7198 17.9999 69.5764 18.0496L27.8266 31.9662L27.7643 31.9862C27.4842 32.0724 27.2144 32.1879 26.9537 32.3335C26.4155 32.6326 25.9539 33.0456 25.5928 33.5475C25.2336 34.0449 24.9878 34.6134 24.8731 35.2242C24.8185 35.512 24.7943 35.8045 24.8011 36.0974L24.8019 36.1629L24.8016 77.9541C24.8006 78.0375 24.8025 78.1253 24.8076 78.2217C24.8376 78.8055 24.9865 79.365 25.2449 79.8807C25.5004 80.3929 25.8587 80.8477 26.3107 81.2245C26.7138 81.5616 27.1755 81.8202 27.6733 81.9861L27.6906 81.9918C28.1825 82.1534 28.7009 82.2216 29.2195 82.1941C29.7983 82.1636 30.3655 82.0146 30.8785 81.7586C31.3949 81.4999 31.8544 81.1355 32.2237 80.6938C32.2708 80.6372 32.3167 80.5792 32.3613 80.5198L74.3595 24.5219C75.4671 23.0451 75.4737 21.0322 74.4161 19.5563Z" fill="#416EB5"/>
</svg>
