<svg width="250" height="208" viewBox="0 0 250 208" fill="none" xmlns="http://www.w3.org/2000/svg">
<path fill-rule="evenodd" clip-rule="evenodd" d="M166.666 104C166.666 90.9061 160.491 78.5764 149.999 70.7201L66.6678 8.32022C54.0424 -1.13391 37.1506 -2.65464 23.0349 4.39206C8.91923 11.4388 0.00267612 25.8433 0.00267631 41.6001L0.0026778 166.4C0.00267799 182.157 8.91923 196.561 23.0349 203.608C37.1506 210.655 54.0424 209.134 66.6678 199.68L149.999 137.28C160.491 129.424 166.666 117.094 166.666 104ZM145.833 104C145.833 97.4531 142.745 91.2882 137.5 87.36L54.1681 24.9602C47.8554 20.2331 39.4095 19.4728 32.3517 22.9961C25.2938 26.5194 20.8355 33.7217 20.8355 41.6001V166.4C20.8355 174.278 25.2938 181.481 32.3517 185.004C39.4095 188.527 47.8554 187.767 54.1681 183.04L137.5 120.64C142.745 116.712 145.833 110.547 145.833 104Z" fill="#FFA40A"/>
<path fill-rule="evenodd" clip-rule="evenodd" d="M232.694 7.85255C217.908 -2.78737 197.912 -2.59793 183.332 8.32022L16.669 133.12C2.3216 143.863 -3.53047 162.568 2.14084 179.555C7.81213 196.542 23.7342 208 41.6684 208H166.666C184.6 208 200.522 196.542 206.193 179.555L247.859 54.7552C253.622 37.4921 247.479 18.4925 232.694 7.85255ZM220.512 24.7263C213.12 19.4064 203.122 19.5011 195.832 24.9602L29.1687 149.76C21.995 155.132 19.069 164.484 21.9046 172.977C24.7403 181.471 32.7013 187.2 41.6684 187.2H166.666C175.633 187.2 183.594 181.471 186.429 172.977L228.095 48.1777C230.977 39.5461 227.905 30.0463 220.512 24.7263Z" fill="#FFA40A"/>
</svg>
