<svg width="78" height="94" viewBox="0 0 78 94" fill="none" xmlns="http://www.w3.org/2000/svg">
<g id="logo">
<path id="Union" fill-rule="evenodd" clip-rule="evenodd" d="M57.3193 0.85228C57.6997 0.72144 58.0844 0.605524 58.4618 0.507523C60.581 -0.0464435 62.772 -0.144466 64.8922 0.201443C67.026 0.545854 69.0736 1.33171 70.8981 2.52045C72.5133 3.56899 73.9256 4.90978 75.0551 6.47793L75.0828 6.51647C79.0178 12.0079 78.9932 19.477 74.8794 24.9621L58.4595 46.8554L74.8117 68.6067C75.8487 69.9643 76.658 71.4861 77.2011 73.1122C77.2783 73.3433 77.35 73.5759 77.4172 73.8135C77.8027 75.18 78 76.5986 78 78.0355C78 78.305 77.9931 78.5739 77.9787 78.8529C77.8657 80.9849 77.3152 83.076 76.3518 85.0019C75.3909 86.9154 74.0444 88.6094 72.3943 89.9856C72.1875 90.1576 71.976 90.3245 71.7599 90.4862C70.4086 91.4973 68.9158 92.2758 67.3327 92.8025L67.2515 92.8292L67.1719 92.855C65.5899 93.3619 63.9422 93.6111 62.2896 93.5996H15.7104C15.6699 93.5999 15.6294 93.6 15.589 93.6C15.589 93.6 15.589 93.6 15.589 93.6C14.6651 93.5996 13.7428 93.5173 12.833 93.3536C12.8528 93.3572 12.8726 93.3607 12.8925 93.3642C12.1947 93.2417 11.5038 93.0715 10.8242 92.8538L10.74 92.8264L10.7206 92.8201L10.6652 92.8018C9.08419 92.2758 7.59141 91.4973 6.24009 90.4862C6.02404 90.3245 5.81252 90.1576 5.59747 89.9788C3.9556 88.6094 2.60906 86.9154 1.64273 84.991C0.684828 83.076 0.134293 80.9849 0.0207804 78.8422C0.00693645 78.5739 0 78.305 0 78.0355C0 77.9495 0.000707452 77.8636 0.00211997 77.7777V77.8686C-0.000663064 78.186 0.00671609 78.5024 0.0234565 78.8191C0.0331009 79.0065 0.0461276 79.1934 0.0625023 79.3798C0.0461272 79.1934 0.033102 79.0065 0.0234575 78.8191C0.00671595 78.5024 -0.000661898 78.186 0.0021202 77.8686V31.457C-0.0154045 30.3955 0.0758635 29.338 0.270222 28.3144C0.695239 26.0505 1.61462 23.9243 2.9424 22.0854C4.27469 20.2336 6.00106 18.6891 8.00045 17.5777C8.92354 17.0621 9.89833 16.6409 10.9109 16.3218L57.3193 0.85228ZM66.2065 12.877L66.1971 12.864C65.8598 12.3956 65.4374 11.9947 64.9478 11.6768C64.3974 11.3182 63.7887 11.0846 63.1469 10.981C62.5105 10.8772 61.8592 10.9063 61.2186 11.0737C61.0954 11.1058 60.9735 11.1427 60.8137 11.1981L14.2925 26.7052L14.2231 26.7275C13.9109 26.8235 13.6103 26.9522 13.3198 27.1144C12.7201 27.4478 12.2058 27.9079 11.8034 28.4672C11.4032 29.0215 11.1293 29.6549 11.0015 30.3355C10.9406 30.6562 10.9136 30.9821 10.9212 31.3086L10.9221 31.3815L10.9218 77.9488C10.9206 78.0418 10.9228 78.1397 10.9284 78.247C10.9619 78.8976 11.1278 79.521 11.4157 80.0957C11.7005 80.6664 12.0997 81.1732 12.6033 81.593C13.0526 81.9686 13.567 82.2568 14.1217 82.4416L14.1409 82.448C14.689 82.6281 15.2667 82.704 15.8446 82.6735C16.4895 82.6394 17.1216 82.4734 17.6931 82.1882C18.2686 81.8999 18.7807 81.4938 19.1921 81.0016C19.2447 80.9386 19.2958 80.874 19.3455 80.8077L66.1434 18.4101C67.3776 16.7645 67.385 14.5216 66.2065 12.877Z" fill="white"/>
</g>
</svg>
