<svg width="250" height="301" viewBox="0 0 250 301" fill="none" xmlns="http://www.w3.org/2000/svg">
<path d="M0.000289901 250.832C-0.00449613 252.238 0.0499734 253.646 0.164047 255.051C0.151786 254.9 0.140213 254.749 0.129328 254.598C0.0437233 253.406 0.000289901 252.205 0.000289901 250.997V250.832Z" fill="#755CF2"/>
<path d="M30.8078 297.166C33.886 298.446 37.1032 299.423 40.4158 300.07C40.1684 300.022 39.9215 299.971 39.6752 299.919C37.8356 299.53 36.0041 299.035 34.1889 298.43C33.0405 298.047 31.9129 297.625 30.8078 297.166C30.8078 297.166 30.8077 297.166 30.8078 297.166Z" fill="#755CF2"/>
<path d="M50.558 300.995H200C218.939 300.995 236.252 290.296 244.722 273.357C253.191 256.418 251.363 236.148 240 220.997L187.5 150.999L90.0003 280.996C80.4925 293.673 65.7972 300.823 50.558 300.995Z" fill="#755CF2"/>
<path fill-rule="evenodd" clip-rule="evenodd" d="M240.562 21.764C253.351 39.5066 253.123 63.5015 240 80.9982L187.5 150.997L240 220.995C251.363 236.146 253.191 256.416 244.721 273.355C236.252 290.293 218.939 300.993 200 300.993H50.5569C46.9423 301.034 43.2971 300.683 39.6833 299.919C36.6282 299.275 33.6577 298.349 30.8064 297.164C20.6439 292.943 12.3669 285.581 6.96137 276.444C3.09157 269.903 0.69351 262.453 0.129039 254.596C0.0386595 253.341 -0.0042715 252.085 -3.83588e-08 250.83V100.998C-3.83588e-08 79.4767 13.7715 60.3702 34.1886 53.5647L184.189 3.56579C204.938 -3.35038 227.774 4.02148 240.562 21.764ZM25 200.995V100.998C25 90.2372 31.8858 80.684 42.0943 77.2812L192.094 27.2823C202.469 23.8243 213.887 27.5102 220.281 36.3815C226.675 45.2527 226.561 57.2502 220 65.9986L171.875 130.164L165 120.997C155.557 108.407 140.738 100.998 125 100.998C109.262 100.998 94.4427 108.407 85 120.997L25 200.995ZM25.0614 252.751C25.0207 252.17 25 251.584 25 250.994V250.915C25.0175 245.63 26.7088 240.383 30 235.995L105 135.997C109.721 129.702 117.131 125.997 125 125.997C132.869 125.997 140.279 129.702 145 135.997L156.25 150.997L70 265.994C65.2462 272.332 57.8987 275.907 50.2793 275.994H50C48.2401 275.994 46.5083 275.809 44.8277 275.454C43.9112 275.26 42.9987 275.012 42.0943 274.711C41.5227 274.52 40.9614 274.311 40.4112 274.082C35.4893 272.037 31.2778 268.442 28.4921 263.739C28.1909 263.23 27.9063 262.708 27.6393 262.174C26.1418 259.179 25.2881 255.976 25.0614 252.751ZM93.75 275.994H200C209.469 275.994 218.126 270.644 222.361 262.174C226.596 253.705 225.682 243.57 220 235.995L171.875 171.829L93.75 275.994Z" fill="#0B2439"/>
</svg>
