<svg width="78" height="94" viewBox="0 0 78 94" fill="none" xmlns="http://www.w3.org/2000/svg">
<g id="logo">
<path id="Union" fill-rule="evenodd" clip-rule="evenodd" d="M57.3193 0.85228C57.6997 0.72144 58.0844 0.605524 58.4618 0.507523C60.581 -0.0464435 62.772 -0.144466 64.8922 0.201443C67.026 0.545854 69.0736 1.33171 70.8981 2.52045C72.5133 3.56899 73.9256 4.90978 75.0551 6.47793L75.0828 6.51647C79.0178 12.0079 78.9932 19.477 74.8794 24.9621L58.4016 46.9326L74.8117 68.7609C75.8487 70.1185 76.658 71.6403 77.2011 73.2664C77.2783 73.4975 77.35 73.7301 77.4172 73.9677C77.8027 75.3342 78 76.7528 78 78.1897C78 78.4592 77.9931 78.7281 77.9787 79.0071C77.8657 81.1391 77.3152 83.2302 76.3518 85.1561C75.3909 87.0696 74.0444 88.7636 72.3943 90.1398C72.1875 90.3118 71.976 90.4787 71.7599 90.6404C70.4086 91.6515 68.9158 92.43 67.3327 92.9567L67.2515 92.9834L67.1719 93.0092C65.5899 93.5161 63.9422 93.7653 62.2896 93.7538H15.7104C14.0582 93.7653 12.4104 93.5162 10.8242 93.0079C10.7485 92.9835 10.7476 92.9832 10.6678 92.9568L10.6672 92.9566L10.6652 92.956C9.08419 92.43 7.59141 91.6515 6.24009 90.6404C6.02404 90.4787 5.81252 90.3118 5.59747 90.1329C3.9556 88.7636 2.60906 87.0696 1.64273 85.1452C0.684827 83.2302 0.134294 81.1391 0.0207809 78.9964C0.00693669 78.7281 0 78.4592 0 78.1897C0 78.1154 0.000527951 78.0412 0.00158231 77.967C0.00165369 77.9342 0.00183269 77.9014 0.0021202 77.8686V31.457C-0.0154045 30.3955 0.0758635 29.338 0.270222 28.3144C0.695239 26.0505 1.61462 23.9243 2.9424 22.0854C4.27469 20.2336 6.00106 18.6891 8.00045 17.5777C8.92354 17.0621 9.89833 16.6409 10.9109 16.3218L57.3193 0.85228ZM31.4566 82.8595L62.3517 82.8596C62.8555 82.8645 63.355 82.7897 63.8329 82.6365L63.8802 82.6211C64.3518 82.4642 64.7982 82.2314 65.208 81.9248C65.2743 81.8752 65.3389 81.8242 65.3987 81.7745C65.8942 81.3612 66.3003 80.8503 66.5864 80.2806C66.8738 79.706 67.0398 79.0754 67.0737 78.4363C67.0779 78.3545 67.08 78.2723 67.08 78.1897C67.08 77.7533 67.0208 77.3277 66.906 76.9206C66.8863 76.851 66.865 76.7818 66.8417 76.7122C66.6781 76.2223 66.433 75.7632 66.0967 75.3256L51.5846 56.0219L31.4566 82.8595ZM44.7515 46.9328L19.3455 80.8077C19.2958 80.874 19.2447 80.9386 19.1921 81.0016C18.7807 81.4938 18.2686 81.8999 17.6931 82.1882C17.1216 82.4734 16.4895 82.6394 15.8446 82.6735C15.2667 82.704 14.689 82.6281 14.1409 82.448L14.1217 82.4416C13.567 82.2568 13.0526 81.9686 12.6033 81.593C12.0997 81.1732 11.7005 80.6664 11.4157 80.0957C11.1278 79.521 10.9619 78.8976 10.9284 78.247C10.9249 78.1796 10.9227 78.1159 10.9219 78.0549C10.9344 77.6087 11.0091 77.1749 11.1425 76.7603C11.1462 76.749 11.148 76.7433 11.1499 76.7375C11.1519 76.7315 11.1539 76.7254 11.158 76.7131C11.3219 76.2223 11.567 75.7632 11.8828 75.3524L35.1476 44.4067L35.1898 44.3492C35.3384 44.1417 35.5045 43.9463 35.6872 43.7644C36.0758 43.3759 36.5188 43.0663 37.0048 42.8387C37.633 42.5431 38.3104 42.3939 38.9976 42.3944C39.6896 42.3939 40.367 42.5431 40.9898 42.8362C41.4812 43.0663 41.9242 43.3759 42.3072 43.7589C42.4955 43.9463 42.6616 44.1417 42.8102 44.3492L42.8524 44.4067L44.7515 46.9328ZM51.5693 37.8423C51.1021 37.2087 50.586 36.6099 50.0246 36.0512C48.7546 34.7809 47.2642 33.7394 45.6347 32.9764C43.5569 31.9987 41.2851 31.4983 38.9941 31.5C36.7149 31.4983 34.4431 31.9987 32.352 32.9827C30.7358 33.7394 29.2455 34.7809 27.9616 36.065C27.3879 36.6358 26.8511 37.2632 26.3673 37.9289L10.9219 58.4739L10.9221 31.3815L10.9212 31.3086C10.9136 30.9821 10.9406 30.6562 11.0015 30.3355C11.1293 29.6549 11.4032 29.0215 11.8034 28.4672C12.2058 27.9079 12.7201 27.4478 13.3198 27.1144C13.6103 26.9522 13.9109 26.8235 14.2231 26.7275L14.2925 26.7052L60.8137 11.1981C60.9735 11.1427 61.0954 11.1058 61.2186 11.0737C61.8592 10.9063 62.5105 10.8772 63.1469 10.981C63.7887 11.0846 64.3974 11.3182 64.9478 11.6768C65.4374 11.9947 65.8598 12.3956 66.1971 12.864L66.2065 12.877C67.385 14.5216 67.3776 16.7645 66.1434 18.4101L51.5693 37.8423Z" fill="white"/>
</g>
</svg>
