<svg width="250" height="302" viewBox="0 0 250 302" fill="none" xmlns="http://www.w3.org/2000/svg">
<path fill-rule="evenodd" clip-rule="evenodd" d="M240.562 21.7645C253.35 39.5074 253.123 63.5029 240 81L187.5 151L240 221C251.363 236.151 253.191 256.421 244.721 273.361C236.252 290.3 218.939 301 200 301H50.5569C46.9423 301.041 43.2971 300.689 39.6833 299.926C36.6282 299.282 33.6577 298.356 30.8064 297.17C20.6439 292.95 12.3669 285.587 6.96137 276.45C3.09157 269.909 0.69351 262.459 0.129039 254.601C0.0386595 253.347 -0.0042715 252.091 -3.8388e-08 250.836V101C-3.8388e-08 79.4785 13.7715 60.3715 34.1886 53.5658L184.189 3.56583C204.938 -3.35049 227.774 4.02154 240.562 21.7645ZM25 201V101C25 90.2392 31.8858 80.6858 42.0943 77.2829L192.094 27.2829C202.469 23.8248 213.887 27.5108 220.281 36.3822C226.675 45.2537 226.561 57.2515 220 66L171.875 130.167L165 121C155.557 108.41 140.738 101 125 101C109.262 101 94.4427 108.41 85 121L25 201ZM25.0614 252.757C25.0207 252.175 25 251.59 25 251V250.92C25.0175 245.635 26.7088 240.388 30 236L105 136C109.721 129.705 117.131 126 125 126C132.869 126 140.279 129.705 145 136L156.25 151L70 266C65.2462 272.338 57.8987 275.914 50.2793 276H50C48.2401 276 46.5083 275.815 44.8277 275.46C43.9112 275.266 42.9987 275.019 42.0943 274.717C41.5227 274.527 40.9614 274.317 40.4112 274.088C35.4893 272.043 31.2778 268.448 28.4921 263.744C28.1909 263.236 27.9063 262.714 27.6393 262.18C26.1418 259.185 25.2881 255.982 25.0614 252.757ZM93.75 276H200C209.469 276 218.126 270.65 222.361 262.18C226.595 253.711 225.682 243.575 220 236L171.875 171.833L93.75 276Z" fill="black"/>
</svg>
