<svg width="78" height="94" viewBox="0 0 78 94" fill="none" xmlns="http://www.w3.org/2000/svg">
<g id="logo">
<path id="Combined Shape" fill-rule="evenodd" clip-rule="evenodd" d="M10.6672 92.8024C10.7476 92.829 10.7483 92.8292 10.8242 92.8537C12.4104 93.362 14.0582 93.611 15.7104 93.5996H62.2896C63.9421 93.611 65.5899 93.3619 67.1719 92.8549C67.2116 92.8422 67.2315 92.8357 67.2515 92.8292C67.2717 92.8226 67.2919 92.8159 67.3327 92.8025C68.9158 92.2758 70.4086 91.4973 71.7599 90.4862C71.976 90.3245 72.1875 90.1576 72.3943 89.9856C74.0444 88.6094 75.3909 86.9154 76.3518 85.0019C77.3152 83.076 77.8657 80.9849 77.9787 78.8529C77.9931 78.5739 78 78.3049 78 78.0355C78 76.5986 77.8027 75.18 77.4172 73.8134C77.35 73.5759 77.2783 73.3433 77.2011 73.1122C76.658 71.4861 75.8487 69.9643 74.8117 68.6067L51.6327 37.7747C51.1488 37.1089 50.6115 36.4811 50.0246 35.8969C48.7545 34.6267 47.2642 33.5852 45.6347 32.8222C43.5569 31.8445 41.2851 31.3441 38.9941 31.3458C36.7149 31.3441 34.4431 31.8445 32.3519 32.8285C30.7358 33.5852 29.2454 34.6267 27.9616 35.9108C27.3879 36.4816 26.8511 37.109 26.3673 37.7747L3.18834 68.6067C2.15129 69.9643 1.34197 71.4861 0.798204 73.1143C0.771615 73.1943 0.771557 73.1945 0.743628 73.2809C0.253267 74.8047 0 76.4081 0 78.0355C0 78.3049 0.00693669 78.5739 0.0207809 78.8422C0.134294 80.9849 0.684827 83.076 1.64273 84.991C2.60906 86.9154 3.9556 88.6094 5.59747 89.9787C5.81252 90.1576 6.02404 90.3245 6.24009 90.4862C7.59141 91.4973 9.08419 92.2758 10.6652 92.8018L10.6672 92.8024ZM15.6788 82.7052L15.6483 82.7054C15.1446 82.7103 14.6451 82.6355 14.1686 82.4828C14.1432 82.4746 14.1432 82.4746 14.1189 82.4666C13.6482 82.31 13.2018 82.0772 12.792 81.7705C12.7257 81.721 12.6611 81.67 12.598 81.6175C12.1058 81.207 11.6997 80.6961 11.4114 80.122C11.1262 79.5518 10.9602 78.9212 10.9261 78.2778C10.9221 78.2003 10.92 78.1181 10.92 78.0355C10.92 77.5419 10.9957 77.0623 11.1425 76.6061C11.15 76.583 11.15 76.583 11.158 76.5589C11.3219 76.0681 11.567 75.6089 11.8828 75.1982L35.1476 44.2525L35.1898 44.1949C35.3384 43.9875 35.5045 43.7921 35.6872 43.6102C36.0758 43.2217 36.5188 42.9121 37.0048 42.6845C37.633 42.3889 38.3104 42.2397 38.9976 42.2402C39.6896 42.2397 40.367 42.3889 40.9898 42.682C41.4812 42.9121 41.9242 43.2217 42.3072 43.6047C42.4955 43.7921 42.6616 43.9875 42.8102 44.1949L42.8524 44.2525L66.0967 75.1714C66.433 75.6089 66.6781 76.0681 66.8417 76.558C66.865 76.6276 66.8863 76.6968 66.906 76.7664C67.0208 77.1735 67.08 77.5991 67.08 78.0355C67.08 78.1181 67.0779 78.2003 67.0737 78.2821C67.0398 78.9212 66.8738 79.5518 66.5864 80.1264C66.3002 80.6961 65.8942 81.207 65.3987 81.6203C65.3389 81.67 65.2743 81.721 65.208 81.7705C64.7982 82.0772 64.3518 82.31 63.8802 82.4669C63.8576 82.4744 63.8568 82.4746 63.8329 82.4823C63.3549 82.6355 62.8555 82.7103 62.3517 82.7054L15.6788 82.7052Z" fill="#1F2839"/>
<g id="Subtract">
<path fill-rule="evenodd" clip-rule="evenodd" d="M58.4618 0.507524C58.0844 0.605524 57.6997 0.721441 57.3192 0.85228L10.9109 16.3218C9.89833 16.6409 8.92354 17.0621 8.00045 17.5777C6.00106 18.6891 4.27469 20.2336 2.9424 22.0854C1.61462 23.9243 0.695239 26.0505 0.270221 28.3144C0.0758625 29.338 -0.0154036 30.3955 0.00211997 31.457V77.7777C0.0274335 76.2389 0.279183 74.7242 0.743628 73.2809C0.771558 73.1945 0.771616 73.1943 0.798205 73.1143C1.34197 71.4861 2.15129 69.9643 3.18834 68.6067L26.3673 37.7747C26.8511 37.1089 27.3879 36.4816 27.9616 35.9108C29.2454 34.6267 30.7358 33.5852 32.3519 32.8285C34.4431 31.8445 36.7149 31.3441 38.9941 31.3458C41.2851 31.3441 43.5569 31.8445 45.6347 32.8222C47.2642 33.5852 48.7545 34.6267 50.0246 35.8969C50.6115 36.481 51.1488 37.1089 51.6327 37.7747L58.4595 46.8554L74.8794 24.9621C78.9932 19.477 79.0178 12.0079 75.0828 6.51647L75.0551 6.47793C73.9255 4.90978 72.5133 3.56899 70.8981 2.52045C69.0735 1.33171 67.026 0.545855 64.8922 0.201443C62.772 -0.144466 60.581 -0.0464437 58.4618 0.507524ZM65.4722 12.0711C65.6191 12.2117 65.7632 12.3542 65.9046 12.4986C65.7702 12.347 65.6258 12.2043 65.4722 12.0711Z" fill="#00AD69"/>
<path d="M15.589 93.6C14.6853 93.5993 13.7833 93.5206 12.8924 93.3642C13.7829 93.5208 14.6852 93.5996 15.589 93.6Z" fill="#00AD69"/>
</g>
</g>
</svg>
