<svg width="78" height="94" viewBox="0 0 78 94" fill="none" xmlns="http://www.w3.org/2000/svg">
<g id="logo">
<path id="Combined Shape" fill-rule="evenodd" clip-rule="evenodd" d="M10.6672 93.2057C10.7476 93.2322 10.7483 93.2324 10.8242 93.2568C12.4104 93.763 14.0582 94.011 15.7104 93.9996H62.2896C63.9421 94.011 65.5899 93.7629 67.1719 93.258C67.2116 93.2453 67.2315 93.2389 67.2515 93.2324C67.2717 93.2258 67.2919 93.2191 67.3327 93.2057C68.9158 92.6812 70.4086 91.9058 71.7599 90.8989C71.976 90.7379 72.1875 90.5717 72.3943 90.4003C74.0444 89.0298 75.3909 87.3427 76.3518 85.437C77.3152 83.519 77.8657 81.4364 77.9787 79.3131C77.9931 79.0353 78 78.7674 78 78.4991C78 77.068 77.8027 75.6552 77.4172 74.2942C77.35 74.0577 77.2783 73.826 77.2011 73.5959C76.658 71.9764 75.8487 70.4608 74.8117 69.1087L51.6327 38.4026C51.1489 37.7396 50.6115 37.1143 50.0246 36.5326C48.7546 35.2675 47.2642 34.2303 45.6347 33.4704C43.5569 32.4967 41.2851 31.9983 38.9941 32C36.7149 31.9983 34.4431 32.4967 32.352 33.4767C30.7358 34.2303 29.2455 35.2675 27.9616 36.5463C27.3879 37.1149 26.8511 37.7396 26.3673 38.4026L3.18834 69.1087C2.15129 70.4608 1.34197 71.9764 0.798204 73.598C0.771615 73.6777 0.771557 73.6778 0.743628 73.7638C0.253267 75.2815 0 76.8783 0 78.4991C0 78.7674 0.00693669 79.0353 0.0207809 79.3025C0.134294 81.4364 0.684827 83.519 1.64273 85.4262C2.60906 87.3427 3.9556 89.0298 5.59747 90.3935C5.81252 90.5717 6.02404 90.7379 6.24009 90.8989C7.59141 91.9058 9.08419 92.6812 10.6652 93.205L10.6672 93.2057ZM15.6788 83.1497L15.6483 83.1498C15.1446 83.1547 14.6451 83.0803 14.1686 82.9282C14.1432 82.92 14.1432 82.9201 14.1189 82.9121C13.6482 82.7561 13.2018 82.5242 12.792 82.2189C12.7257 82.1695 12.6611 82.1187 12.598 82.0665C12.1058 81.6576 11.6997 81.1488 11.4115 80.5771C11.1262 80.0092 10.9602 79.3811 10.9261 78.7404C10.9221 78.6632 10.92 78.5813 10.92 78.4991C10.92 78.0075 10.9957 77.5299 11.1425 77.0755C11.15 77.0525 11.15 77.0525 11.158 77.0285C11.3219 76.5397 11.567 76.0824 11.8828 75.6734L35.1476 44.854L35.1898 44.7967C35.3384 44.5901 35.5045 44.3955 35.6872 44.2144C36.0758 43.8274 36.5188 43.5191 37.0048 43.2924C37.633 42.998 38.3104 42.8494 38.9976 42.8499C39.6896 42.8494 40.367 42.998 40.9898 43.2899C41.4812 43.5191 41.9242 43.8274 42.3072 44.2089C42.4955 44.3955 42.6616 44.5901 42.8102 44.7967L42.8524 44.854L66.0968 75.6466C66.433 76.0824 66.6781 76.5397 66.8417 77.0276C66.865 77.0969 66.8863 77.1658 66.906 77.2351C67.0208 77.6406 67.08 78.0644 67.08 78.4991C67.08 78.5813 67.0779 78.6632 67.0737 78.7447C67.0398 79.3811 66.8738 80.0092 66.5864 80.5814C66.3003 81.1488 65.8942 81.6576 65.3987 82.0692C65.3389 82.1187 65.2743 82.1695 65.208 82.2189C64.7982 82.5242 64.3518 82.7561 63.8802 82.9123C63.8576 82.9198 63.8568 82.92 63.8329 82.9277C63.355 83.0803 62.8555 83.1547 62.3517 83.1498L15.6788 83.1497Z" fill="#22A39B"/>
<path id="Combined Shape_2" fill-rule="evenodd" clip-rule="evenodd" d="M58.4618 0.509692C58.0844 0.608112 57.6997 0.724524 57.3193 0.855922L10.9109 16.3916C9.89833 16.712 8.92354 17.135 8.00045 17.6528C6.00106 18.7689 4.27469 20.3201 2.9424 22.1797C1.61462 24.0266 0.695239 26.1619 0.270222 28.4354C0.0758635 29.4634 -0.0154045 30.5254 0.0021202 31.5915V78.2014C-0.000661898 78.5201 0.00671595 78.8379 0.0234575 79.156C0.134365 81.3198 0.692346 83.4254 1.6502 85.3456C2.59964 87.2563 3.94221 88.9681 5.60756 90.3623C7.09326 91.6097 8.81139 92.5764 10.6691 93.198L10.7321 93.2189C12.57 93.8254 14.4992 94.0801 16.421 93.9781C18.558 93.8647 20.654 93.3118 22.5735 92.3499C24.5023 91.3794 26.2003 90.0272 27.5728 88.3783C27.7521 88.1624 27.9194 87.9499 28.0815 87.733L74.8794 25.0687C78.9932 19.5602 79.0178 12.0592 75.0828 6.54431L75.0551 6.50561C73.9256 4.93076 72.5133 3.58424 70.8981 2.53122C69.0736 1.3374 67.026 0.548187 64.8922 0.202303C62.772 -0.145083 60.581 -0.046642 58.4618 0.509692ZM66.1971 12.919L66.2065 12.932C67.385 14.5837 67.3776 16.8362 66.1434 18.4888L19.3455 81.1531C19.2958 81.2196 19.2447 81.2845 19.1921 81.3478C18.7807 81.8421 18.2686 82.2499 17.6931 82.5394C17.1216 82.8258 16.4895 82.9926 15.8446 83.0268C15.2667 83.0575 14.689 82.9812 14.1409 82.8003L14.1217 82.7939C13.567 82.6083 13.0526 82.3189 12.6033 81.9417C12.0997 81.5201 11.7005 81.0111 11.4157 80.438C11.1278 79.8609 10.9619 79.2347 10.9284 78.5814C10.9228 78.4736 10.9206 78.3753 10.9218 78.2819L10.9221 31.5156L10.9212 31.4424C10.9136 31.1145 10.9406 30.7872 11.0015 30.4652C11.1293 29.7817 11.4032 29.1455 11.8034 28.5888C12.2058 28.0272 12.7201 27.5651 13.3198 27.2303C13.6103 27.0674 13.9109 26.9381 14.2231 26.8417L14.2925 26.8194L60.8137 11.246C60.9735 11.1904 61.0954 11.1532 61.2186 11.1211C61.8592 10.9529 62.5105 10.9237 63.1469 11.0279C63.7887 11.132 64.3974 11.3666 64.9478 11.7267C65.4374 12.0459 65.8598 12.4486 66.1971 12.919Z" fill="#22A39B"/>
</g>
</svg>
