<svg width="78" height="94" viewBox="0 0 78 94" fill="none" xmlns="http://www.w3.org/2000/svg">
<g id="logo">
<g id="logo_2">
<path id="Combined Shape" fill-rule="evenodd" clip-rule="evenodd" d="M10.6672 92.8024C10.7476 92.829 10.7483 92.8292 10.8242 92.8537C12.4104 93.362 14.0582 93.611 15.7104 93.5996H62.2896C63.9421 93.611 65.5899 93.3619 67.1719 92.8549C67.2116 92.8422 67.2315 92.8357 67.2515 92.8292C67.2717 92.8226 67.2919 92.8159 67.3327 92.8025C68.9158 92.2758 70.4086 91.4973 71.7599 90.4862C71.976 90.3245 72.1875 90.1576 72.3943 89.9856C74.0444 88.6094 75.3909 86.9154 76.3518 85.0019C77.3152 83.076 77.8657 80.9849 77.9787 78.8529C77.9931 78.5739 78 78.3049 78 78.0355C78 76.5986 77.8027 75.18 77.4172 73.8135C77.35 73.5759 77.2783 73.3433 77.2011 73.1122C76.658 71.4861 75.8487 69.9643 74.8117 68.6067L51.6327 37.7747C51.1488 37.1089 50.6115 36.4811 50.0246 35.8969C48.7545 34.6267 47.2642 33.5852 45.6347 32.8222C43.5569 31.8445 41.2851 31.3441 38.9941 31.3458C36.7149 31.3441 34.4431 31.8445 32.3519 32.8285C30.7358 33.5852 29.2454 34.6267 27.9616 35.9108C27.3879 36.4816 26.8511 37.109 26.3673 37.7747L3.18834 68.6067C2.15129 69.9643 1.34197 71.4861 0.798204 73.1143C0.771615 73.1943 0.771557 73.1945 0.743628 73.2809C0.253267 74.8047 0 76.4081 0 78.0355C0 78.3049 0.00693669 78.5739 0.0207809 78.8422C0.134294 80.9849 0.684827 83.076 1.64273 84.991C2.60906 86.9154 3.9556 88.6094 5.59747 89.9787C5.81252 90.1576 6.02404 90.3245 6.24009 90.4862C7.59141 91.4973 9.08419 92.2758 10.6652 92.8018L10.6672 92.8024ZM15.6788 82.7052L15.6483 82.7054C15.1446 82.7103 14.6451 82.6355 14.1686 82.4828C14.1432 82.4746 14.1432 82.4746 14.1189 82.4666C13.6482 82.31 13.2018 82.0772 12.792 81.7705C12.7257 81.721 12.6611 81.67 12.598 81.6175C12.1058 81.207 11.6997 80.6961 11.4114 80.122C11.1262 79.5518 10.9602 78.9212 10.9261 78.2778C10.9221 78.2003 10.92 78.1181 10.92 78.0355C10.92 77.5419 10.9957 77.0623 11.1425 76.6061C11.15 76.583 11.15 76.583 11.158 76.5589C11.3219 76.0681 11.567 75.6089 11.8828 75.1982L35.1476 44.2525L35.1898 44.1949C35.3384 43.9875 35.5045 43.7921 35.6872 43.6102C36.0758 43.2217 36.5188 42.9121 37.0048 42.6845C37.633 42.3889 38.3104 42.2397 38.9976 42.2402C39.6896 42.2397 40.367 42.3889 40.9898 42.682C41.4812 42.9121 41.9242 43.2217 42.3072 43.6047C42.4955 43.7921 42.6616 43.9875 42.8102 44.1949L42.8524 44.2525L66.0967 75.1714C66.4329 75.6089 66.6781 76.0681 66.8417 76.558C66.8649 76.6276 66.8863 76.6968 66.906 76.7664C67.0208 77.1735 67.08 77.5991 67.08 78.0355C67.08 78.1181 67.0779 78.2003 67.0737 78.2821C67.0398 78.9212 66.8738 79.5518 66.5864 80.1264C66.3002 80.6961 65.8942 81.207 65.3987 81.6203C65.3389 81.67 65.2743 81.721 65.208 81.7705C64.7982 82.0772 64.3518 82.31 63.8802 82.4669C63.8576 82.4744 63.8568 82.4746 63.8329 82.4823C63.3549 82.6355 62.8555 82.7103 62.3517 82.7054L15.6788 82.7052Z" fill="#EBEFF5"/>
<path id="Subtract" d="M57.3192 0.85228C57.6997 0.72144 58.0844 0.605524 58.4618 0.507523C60.581 -0.0464435 62.772 -0.144466 64.8922 0.201442C67.026 0.545854 69.0735 1.33171 70.8981 2.52045C72.5133 3.56899 73.9255 4.90978 75.0551 6.47793L75.0828 6.51646C79.0178 12.0079 78.9932 19.477 74.8794 24.9621L58.4595 46.8554L51.6327 37.7747L51.6265 37.7661L66.1434 18.4101C67.3776 16.7645 67.385 14.5216 66.2065 12.877L66.1971 12.864C65.8598 12.3956 65.4374 11.9947 64.9478 11.6768C64.3974 11.3182 63.7887 11.0846 63.1469 10.981C62.5105 10.8772 61.8592 10.9063 61.2186 11.0737C61.0954 11.1058 60.9735 11.1427 60.8137 11.1981L14.2925 26.7052L14.2231 26.7275C13.9109 26.8235 13.6103 26.9522 13.3198 27.1144C12.7201 27.4478 12.2058 27.9079 11.8034 28.4672C11.4032 29.0215 11.1293 29.6549 11.0015 30.3355C10.9406 30.6562 10.9136 30.9821 10.9212 31.3086L10.9221 31.3815L10.9219 58.3197L3.18834 68.6067C2.15129 69.9643 1.34197 71.4861 0.798204 73.1143C0.771699 73.1941 0.771558 73.1945 0.743891 73.28L0.743774 73.2804L0.743628 73.2809C0.279185 74.7242 0.027435 76.2389 0.0021202 77.7777V31.457C-0.0154045 30.3955 0.0758635 29.338 0.270222 28.3144C0.695239 26.0505 1.61462 23.9243 2.9424 22.0854C4.27469 20.2336 6.00106 18.6891 8.00045 17.5777C8.92354 17.0621 9.89833 16.6409 10.9109 16.3218L57.3192 0.85228Z" fill="#00AD69"/>
</g>
</g>
</svg>
