<svg width="78" height="94" viewBox="0 0 78 94" fill="none" xmlns="http://www.w3.org/2000/svg">
<g id="logo">
<path id="Union" fill-rule="evenodd" clip-rule="evenodd" d="M74.8801 24.9611C78.9744 19.502 79.0455 12.0154 75.0555 6.47962C71.0655 0.943832 63.9407 -1.35624 57.467 0.801651L10.6671 16.4016C4.29699 18.525 0.000289887 24.4863 0.000289887 31.201V77.9077C-0.00387434 78.5911 0.0368195 79.2756 0.122779 79.9567C0.574873 83.5458 2.25638 86.8163 4.79929 89.2577C6.1371 90.5421 7.71333 91.597 9.4744 92.3481C10.4347 92.7584 11.4395 93.0735 12.4749 93.2852C13.5717 93.5099 14.6773 93.6133 15.7738 93.6009H62.3999C68.3088 93.6009 73.7105 90.2625 76.353 84.9775C78.9955 79.6924 78.4252 73.368 74.8799 68.641L58.5001 46.8011L74.8801 24.9611ZM51.6751 37.7012L66.1441 18.4091C67.3724 16.7713 67.3937 14.5254 66.1967 12.8646C64.9998 11.2039 62.8623 10.5139 60.9202 11.1612L14.1203 26.7612C12.2093 27.3982 10.9203 29.1866 10.9203 31.201V58.2407L26.52 37.441C29.4662 33.5129 34.0898 31.201 39 31.201C43.9102 31.201 48.5339 33.5129 51.48 37.441L51.6751 37.7012ZM10.9203 77.9556C10.9299 76.9766 11.2463 76.006 11.8561 75.1929L35.256 43.993C36.1399 42.8146 37.5269 42.121 39 42.121C40.4731 42.121 41.8602 42.8146 42.744 43.993L44.8501 46.8011L19.3442 80.8089C18.4542 81.9956 17.0786 82.6649 15.652 82.6809H15.6001C15.3008 82.6809 15.0059 82.6524 14.7186 82.5973C14.5179 82.5587 14.3181 82.5067 14.1203 82.4408C13.963 82.3883 13.8099 82.3281 13.6614 82.2606C13.2432 82.0702 12.8548 81.819 12.5092 81.5152C12.0556 81.116 11.6837 80.6326 11.4141 80.0937C11.2575 79.7807 11.1354 79.449 11.0518 79.1041C10.9656 78.7484 10.9203 78.3786 10.9203 78.0009V77.9556ZM31.5902 82.6809L51.6751 55.9011L66.1439 75.1929C67.2075 76.6111 67.3786 78.5084 66.5859 80.0939C65.7931 81.6794 64.1726 82.6809 62.3999 82.6809H31.5902Z" fill="black"/>
</g>
</svg>
