<svg width="78" height="94" viewBox="0 0 78 94" fill="none" xmlns="http://www.w3.org/2000/svg">
<g id="logo">
<path id="Union" fill-rule="evenodd" clip-rule="evenodd" d="M57.3192 0.85228C57.6997 0.721441 58.0844 0.605524 58.4618 0.507524C60.581 -0.0464437 62.772 -0.144466 64.8922 0.201443C67.026 0.545855 69.0735 1.33171 70.8981 2.52045C72.5133 3.56899 73.9255 4.90978 75.0551 6.47793L75.0828 6.51647C79.0178 12.0079 78.9932 19.477 74.8794 24.9621L58.4595 46.8554L74.8117 68.6067C75.8487 69.9643 76.658 71.4861 77.2011 73.1122C77.2783 73.3432 77.35 73.5759 77.4172 73.8134C77.8027 75.18 78 76.5986 78 78.0355C78 78.3049 77.9931 78.5739 77.9787 78.8529C77.8657 80.9849 77.3152 83.076 76.3518 85.0019C75.3909 86.9154 74.0444 88.6094 72.3943 89.9856C72.1875 90.1576 71.976 90.3245 71.7599 90.4862C70.4086 91.4973 68.9158 92.2758 67.3327 92.8025C67.2919 92.8159 67.2717 92.8226 67.2515 92.8292C67.2315 92.8357 67.2116 92.8422 67.1719 92.8549C65.5899 93.3619 63.9421 93.611 62.2896 93.5996H15.7104C14.0582 93.611 12.4104 93.362 10.8242 92.8537C10.7483 92.8292 10.7476 92.829 10.6674 92.8025L10.6652 92.8018C9.08419 92.2758 7.59141 91.4973 6.24009 90.4862C6.02404 90.3245 5.81252 90.1576 5.59747 89.9787C3.9556 88.6094 2.60906 86.9154 1.64273 84.991C0.684827 83.076 0.134294 80.9849 0.0207809 78.8422C0.00693669 78.5739 0 78.3049 0 78.0355C0 77.9495 0.000707452 77.8636 0.00211997 77.7777V31.457C-0.0154036 30.3955 0.0758625 29.338 0.270221 28.3144C0.695239 26.0505 1.61462 23.9243 2.9424 22.0854C4.27469 20.2336 6.00106 18.6891 8.00045 17.5777C8.92354 17.0621 9.89833 16.6409 10.9109 16.3218L57.3192 0.85228ZM65.4722 12.0711C65.6191 12.2117 65.7632 12.3542 65.9046 12.4986C65.7702 12.347 65.6258 12.2043 65.4722 12.0711ZM15.6483 82.7053L15.6788 82.7052L62.3517 82.7053C62.8555 82.7103 63.3549 82.6355 63.8329 82.4823C63.8565 82.4747 63.8577 82.4743 63.8802 82.4669C64.3518 82.31 64.7982 82.0772 65.208 81.7705C65.2743 81.721 65.3389 81.67 65.3987 81.6203C65.8942 81.207 66.3002 80.6961 66.5864 80.1264C66.8738 79.5518 67.0398 78.9212 67.0737 78.2821C67.0779 78.2003 67.08 78.1181 67.08 78.0355C67.08 77.5991 67.0208 77.1735 66.906 76.7664C66.8863 76.6967 66.865 76.6276 66.8417 76.558C66.6781 76.0681 66.433 75.6089 66.0967 75.1714L42.8524 44.2524L42.8102 44.1949C42.6616 43.9875 42.4955 43.7921 42.3072 43.6047C41.9242 43.2216 41.4812 42.9121 40.9898 42.682C40.367 42.3889 39.6896 42.2397 38.9976 42.2402C38.3104 42.2397 37.633 42.3889 37.0048 42.6845C36.5188 42.9121 36.0758 43.2216 35.6872 43.6102C35.5045 43.7921 35.3384 43.9875 35.1898 44.1949L35.1476 44.2524L11.8828 75.1982C11.567 75.6089 11.3219 76.0681 11.158 76.5589C11.1534 76.5727 11.1515 76.5786 11.1492 76.5855C11.1475 76.5906 11.1457 76.5962 11.1425 76.6061C10.9957 77.0623 10.92 77.5419 10.92 78.0355C10.92 78.1181 10.9221 78.2003 10.9261 78.2778C10.9602 78.9212 11.1262 79.5518 11.4114 80.122C11.6997 80.6961 12.1058 81.207 12.598 81.6175C12.6611 81.67 12.7257 81.721 12.792 81.7705C13.2018 82.0772 13.6482 82.31 14.1189 82.4666C14.1421 82.4742 14.1432 82.4746 14.1652 82.4817L14.1686 82.4828C14.6451 82.6355 15.1446 82.7103 15.6483 82.7053Z" fill="#00CE7D"/>
<g id="logo_2">
<path id="Union_2" d="M10.7206 92.8201L10.6652 92.8018C9.08419 92.2758 7.59141 91.4973 6.24009 90.4862C6.02404 90.3245 5.81252 90.1576 5.59747 89.9787C3.9556 88.6094 2.60906 86.9154 1.64273 84.991C0.684828 83.076 0.134293 80.9849 0.0207804 78.8422C0.00693645 78.5739 0 78.3049 0 78.0355C0 76.4081 0.253267 74.8047 0.743628 73.2809C0.771558 73.1945 0.771616 73.1943 0.798205 73.1143C1.34197 71.4861 2.15129 69.9643 3.18834 68.6067L26.3673 37.7747C26.8511 37.109 27.3879 36.4816 27.9616 35.9108C29.2454 34.6267 30.7358 33.5852 32.3519 32.8285C34.4431 31.8445 36.7149 31.3441 38.9941 31.3458C41.2851 31.3441 43.5569 31.8445 45.6347 32.8222C47.2642 33.5852 48.7545 34.6267 50.0246 35.8969C50.6115 36.4811 51.1488 37.1089 51.6327 37.7747L74.8117 68.6067C75.8487 69.9643 76.658 71.4861 77.2011 73.1122C77.2783 73.3433 77.35 73.5759 77.4172 73.8135C77.8027 75.18 78 76.5986 78 78.0355C78 78.3049 77.9931 78.5739 77.9787 78.8529C77.8657 80.9849 77.3152 83.076 76.3518 85.0019C75.3909 86.9154 74.0444 88.6094 72.3943 89.9856C72.1875 90.1576 71.976 90.3245 71.7599 90.4862C70.4086 91.4973 68.9158 92.2758 67.3327 92.8025C67.2919 92.8159 67.2717 92.8226 67.2515 92.8292C67.2315 92.8357 67.2116 92.8422 67.1719 92.8549C65.5899 93.3619 63.9421 93.611 62.2896 93.5996H15.7104C14.0582 93.611 12.4104 93.362 10.8242 92.8537C10.7815 92.8399 10.7626 92.8338 10.74 92.8264L10.7206 92.8201Z" fill="#00CE7D"/>
<path id="Union_3" fill-rule="evenodd" clip-rule="evenodd" d="M57.3192 0.85228C57.6997 0.721441 58.0844 0.605524 58.4618 0.507524C60.581 -0.0464437 62.772 -0.144466 64.8922 0.201443C67.026 0.545855 69.0735 1.33171 70.8981 2.52045C72.5133 3.56899 73.9255 4.90978 75.0551 6.47793L75.0828 6.51647C79.0178 12.0079 78.9932 19.477 74.8794 24.9621L58.4595 46.8554L74.8117 68.6067C75.8487 69.9643 76.658 71.4861 77.2011 73.1122C77.2783 73.3432 77.35 73.5759 77.4172 73.8134C77.8027 75.18 78 76.5986 78 78.0355C78 78.3049 77.9931 78.5739 77.9787 78.8529C77.8657 80.9849 77.3152 83.076 76.3518 85.0019C75.3909 86.9154 74.0444 88.6094 72.3943 89.9856C72.1875 90.1576 71.976 90.3245 71.7599 90.4862C70.4086 91.4973 68.9158 92.2758 67.3327 92.8025C67.2919 92.8159 67.2717 92.8226 67.2515 92.8292C67.2315 92.8357 67.2116 92.8422 67.1719 92.8549C65.5899 93.3619 63.9421 93.611 62.2896 93.5996H15.7104C14.0582 93.611 12.4104 93.362 10.8242 92.8537C10.7483 92.8292 10.7476 92.829 10.6674 92.8025L10.6652 92.8018C9.08419 92.2758 7.59141 91.4973 6.24009 90.4862C6.02404 90.3245 5.81252 90.1576 5.59747 89.9787C3.9556 88.6094 2.60906 86.9154 1.64273 84.991C0.684827 83.076 0.134294 80.9849 0.0207809 78.8422C0.00693669 78.5739 0 78.3049 0 78.0355C0 77.9495 0.000707452 77.8636 0.00211997 77.7777V31.457C-0.0154036 30.3955 0.0758625 29.338 0.270221 28.3144C0.695239 26.0505 1.61462 23.9243 2.9424 22.0854C4.27469 20.2336 6.00106 18.6891 8.00045 17.5777C8.92354 17.0621 9.89833 16.6409 10.9109 16.3218L57.3192 0.85228ZM65.4722 12.0711C65.6191 12.2117 65.7632 12.3542 65.9046 12.4986C65.7702 12.347 65.6258 12.2043 65.4722 12.0711ZM15.6483 82.7053L15.6788 82.7052L62.3517 82.7053C62.8555 82.7103 63.3549 82.6355 63.8329 82.4823C63.8565 82.4747 63.8577 82.4743 63.8802 82.4669C64.3518 82.31 64.7982 82.0772 65.208 81.7705C65.2743 81.721 65.3389 81.67 65.3987 81.6203C65.8942 81.207 66.3002 80.6961 66.5864 80.1264C66.8738 79.5518 67.0398 78.9212 67.0737 78.2821C67.0779 78.2003 67.08 78.1181 67.08 78.0355C67.08 77.5991 67.0208 77.1735 66.906 76.7664C66.8863 76.6967 66.865 76.6276 66.8417 76.558C66.6781 76.0681 66.433 75.6089 66.0967 75.1714L42.8524 44.2524L42.8102 44.1949C42.6616 43.9875 42.4955 43.7921 42.3072 43.6047C41.9242 43.2216 41.4812 42.9121 40.9898 42.682C40.367 42.3889 39.6896 42.2397 38.9976 42.2402C38.3104 42.2397 37.633 42.3889 37.0048 42.6845C36.5188 42.9121 36.0758 43.2216 35.6872 43.6102C35.5045 43.7921 35.3384 43.9875 35.1898 44.1949L35.1476 44.2524L11.8828 75.1982C11.567 75.6089 11.3219 76.0681 11.158 76.5589C11.1534 76.5727 11.1515 76.5786 11.1492 76.5855C11.1475 76.5906 11.1457 76.5962 11.1425 76.6061C10.9957 77.0623 10.92 77.5419 10.92 78.0355C10.92 78.1181 10.9221 78.2003 10.9261 78.2778C10.9602 78.9212 11.1262 79.5518 11.4114 80.122C11.6997 80.6961 12.1058 81.207 12.598 81.6175C12.6611 81.67 12.7257 81.721 12.792 81.7705C13.2018 82.0772 13.6482 82.31 14.1189 82.4666C14.1421 82.4742 14.1432 82.4746 14.1652 82.4817L14.1686 82.4828C14.6451 82.6355 15.1446 82.7103 15.6483 82.7053Z" fill="#1F2839"/>
</g>
</g>
</svg>
