<svg width="78" height="94" viewBox="0 0 78 94" fill="none" xmlns="http://www.w3.org/2000/svg">
<g id="logo">
<g id="Group 2">
<path id="Combined Shape" fill-rule="evenodd" clip-rule="evenodd" d="M58.4618 0.507523C58.0844 0.605524 57.6997 0.72144 57.3193 0.85228L10.9109 16.3218C9.89833 16.6409 8.92354 17.0621 8.00045 17.5777C6.00106 18.6891 4.27469 20.2336 2.9424 22.0854C1.61462 23.9243 0.695239 26.0505 0.270222 28.3144C0.0758635 29.338 -0.0154045 30.3955 0.0021202 31.457V77.8686C-0.000661898 78.186 0.00671595 78.5024 0.0234575 78.8191C0.134365 80.9737 0.692346 83.0704 1.6502 84.9824C2.59964 86.885 3.94221 88.5895 5.60756 89.9778C7.09326 91.2199 8.81139 92.1824 10.6691 92.8014L10.7321 92.8222C12.57 93.4262 14.4992 93.6798 16.421 93.5782C18.558 93.4653 20.654 92.9147 22.5735 91.9569C24.5023 90.9906 26.2003 89.6441 27.5728 88.0023C27.7521 87.7872 27.9194 87.5757 28.0815 87.3597L74.8794 24.9621C78.9932 19.477 79.0178 12.0079 75.0828 6.51647L75.0551 6.47793C73.9256 4.90978 72.5133 3.56899 70.8981 2.52045C69.0736 1.33171 67.026 0.545854 64.8922 0.201443C62.772 -0.144466 60.581 -0.0464435 58.4618 0.507523ZM66.1971 12.864L66.2065 12.877C67.385 14.5216 67.3776 16.7645 66.1434 18.4101L19.3455 80.8077C19.2958 80.874 19.2447 80.9386 19.1921 81.0016C18.7807 81.4938 18.2686 81.8999 17.6931 82.1882C17.1216 82.4734 16.4895 82.6394 15.8446 82.6735C15.2667 82.704 14.689 82.6281 14.1409 82.448L14.1217 82.4416C13.567 82.2568 13.0526 81.9686 12.6033 81.593C12.0997 81.1732 11.7005 80.6664 11.4157 80.0957C11.1278 79.521 10.9619 78.8976 10.9284 78.2471C10.9228 78.1397 10.9206 78.0418 10.9218 77.9488L10.9221 31.3815L10.9212 31.3086C10.9136 30.9821 10.9406 30.6562 11.0015 30.3355C11.1293 29.6549 11.4032 29.0215 11.8034 28.4672C12.2058 27.9079 12.7201 27.4478 13.3198 27.1144C13.6103 26.9522 13.9109 26.8235 14.2231 26.7275L14.2925 26.7052L60.8137 11.1981C60.9735 11.1427 61.0954 11.1058 61.2186 11.0737C61.8592 10.9063 62.5105 10.8772 63.1469 10.981C63.7887 11.0846 64.3974 11.3182 64.9478 11.6768C65.4374 11.9947 65.8598 12.3956 66.1971 12.864Z" fill="#1F2839"/>
<g id="Subtract">
<path d="M0.0021202 77.7777C0.000707528 77.8636 0 77.9495 0 78.0355C0 78.305 0.00693669 78.5739 0.0207809 78.8422C0.134294 80.9849 0.684827 83.076 1.64273 84.991C2.60906 86.9154 3.9556 88.6094 5.59747 89.9788C5.81252 90.1576 6.02404 90.3245 6.24009 90.4862C7.59141 91.4973 9.08419 92.2758 10.6652 92.8018L10.6672 92.8024L10.6682 92.8028C10.7474 92.8289 10.7487 92.8294 10.8242 92.8538C11.5051 93.0719 12.1973 93.2423 12.8963 93.3649C12.165 93.2364 11.4417 93.0554 10.7321 92.8222L10.6691 92.8014C8.81139 92.1824 7.09326 91.2199 5.60757 89.9778C3.94221 88.5895 2.59964 86.8851 1.6502 84.9824C0.692346 83.0705 0.134365 80.9737 0.0234575 78.8191C0.00671595 78.5024 -0.000661898 78.186 0.0021202 77.8686V77.7777Z" fill="#1F2839"/>
<path d="M15.7104 93.5996H62.2896C63.9422 93.6111 65.5899 93.3619 67.1719 92.855C67.2116 92.8422 67.2315 92.8357 67.2515 92.8292L67.2733 92.8221L67.3323 92.8026L67.3327 92.8025C68.9158 92.2758 70.4086 91.4973 71.7599 90.4862C71.976 90.3245 72.1875 90.1576 72.3943 89.9856C74.0444 88.6094 75.3909 86.9154 76.3518 85.0019C77.3152 83.076 77.8657 80.9849 77.9787 78.8529C77.9931 78.5739 78 78.305 78 78.0355C78 76.5986 77.8027 75.18 77.4172 73.8135C77.35 73.5759 77.2783 73.3433 77.2011 73.1122C76.658 71.4861 75.8487 69.9643 74.8117 68.6067L58.4595 46.8554L51.6425 55.9448L66.0968 75.1714C66.433 75.609 66.6781 76.0681 66.8417 76.5581C66.865 76.6276 66.8863 76.6968 66.906 76.7664C67.0208 77.1735 67.08 77.5991 67.08 78.0355C67.08 78.1181 67.0779 78.2003 67.0737 78.2821C67.0398 78.9212 66.8738 79.5518 66.5864 80.1264C66.3003 80.6962 65.8942 81.207 65.3987 81.6203C65.3389 81.67 65.2743 81.721 65.208 81.7706C64.7983 82.0772 64.3518 82.31 63.8802 82.4669L63.8794 82.4672C63.8575 82.4744 63.8565 82.4747 63.8329 82.4823C63.355 82.6355 62.8555 82.7103 62.3517 82.7054L31.5722 82.7053L28.0815 87.3597C27.9194 87.5757 27.7521 87.7872 27.5729 88.0023C26.2003 89.6441 24.5023 90.9906 22.5735 91.9569C20.654 92.9147 18.558 93.4653 16.421 93.5782C16.1458 93.5928 15.8705 93.6 15.5954 93.6C15.6337 93.6 15.6721 93.5999 15.7104 93.5996Z" fill="#1F2839"/>
</g>
</g>
<g id="Group 3">
<path id="Combined Shape_2" fill-rule="evenodd" clip-rule="evenodd" d="M58.4618 0.507523C58.0844 0.605524 57.6997 0.72144 57.3193 0.85228L10.9109 16.3218C9.89833 16.6409 8.92354 17.0621 8.00045 17.5777C6.00106 18.6891 4.27469 20.2336 2.9424 22.0854C1.61462 23.9243 0.695239 26.0505 0.270222 28.3144C0.0758635 29.338 -0.0154045 30.3955 0.0021202 31.457V77.8686C-0.000661898 78.186 0.00671595 78.5024 0.0234575 78.8191C0.134365 80.9737 0.692346 83.0704 1.6502 84.9824C2.59964 86.885 3.94221 88.5895 5.60756 89.9778C7.09326 91.2199 8.81139 92.1824 10.6691 92.8014L10.7321 92.8222C12.57 93.4262 14.4992 93.6798 16.421 93.5782C18.558 93.4653 20.654 92.9147 22.5735 91.9569C24.5023 90.9906 26.2003 89.6441 27.5728 88.0023C27.7521 87.7872 27.9194 87.5757 28.0815 87.3597L74.8794 24.9621C78.9932 19.477 79.0178 12.0079 75.0828 6.51647L75.0551 6.47793C73.9256 4.90978 72.5133 3.56899 70.8981 2.52045C69.0736 1.33171 67.026 0.545854 64.8922 0.201443C62.772 -0.144466 60.581 -0.0464435 58.4618 0.507523ZM66.1971 12.864L66.2065 12.877C67.385 14.5216 67.3776 16.7645 66.1434 18.4101L19.3455 80.8077C19.2958 80.874 19.2447 80.9386 19.1921 81.0016C18.7807 81.4938 18.2686 81.8999 17.6931 82.1882C17.1216 82.4734 16.4895 82.6394 15.8446 82.6735C15.2667 82.704 14.689 82.6281 14.1409 82.448L14.1217 82.4416C13.567 82.2568 13.0526 81.9686 12.6033 81.593C12.0997 81.1732 11.7005 80.6664 11.4157 80.0957C11.1278 79.521 10.9619 78.8976 10.9284 78.2471C10.9228 78.1397 10.9206 78.0418 10.9218 77.9488L10.9221 31.3815L10.9212 31.3086C10.9136 30.9821 10.9406 30.6562 11.0015 30.3355C11.1293 29.6549 11.4032 29.0215 11.8034 28.4672C12.2058 27.9079 12.7201 27.4478 13.3198 27.1144C13.6103 26.9522 13.9109 26.8235 14.2231 26.7275L14.2925 26.7052L60.8137 11.1981C60.9735 11.1427 61.0954 11.1058 61.2186 11.0737C61.8592 10.9063 62.5105 10.8772 63.1469 10.981C63.7887 11.0846 64.3974 11.3182 64.9478 11.6768C65.4374 11.9947 65.8598 12.3956 66.1971 12.864Z" fill="#1F2839"/>
<g id="Subtract_2">
<path d="M0.00211997 77.7777C0.000707452 77.8636 0 77.9495 0 78.0355C0 78.305 0.00693645 78.5739 0.0207804 78.8422C0.134293 80.9849 0.684828 83.076 1.64273 84.991C2.60906 86.9154 3.9556 88.6094 5.59747 89.9788C5.81252 90.1576 6.02404 90.3245 6.24009 90.4862C7.59141 91.4973 9.08419 92.2758 10.6652 92.8018L10.7206 92.8201L10.74 92.8264C10.7626 92.8339 10.7815 92.84 10.8242 92.8538C11.5038 93.0715 12.1947 93.2417 12.8925 93.3642C12.1625 93.2358 11.4405 93.055 10.7321 92.8222L10.6691 92.8014C8.81139 92.1824 7.09327 91.2199 5.60756 89.9778C3.94221 88.5895 2.59964 86.8851 1.6502 84.9824C0.692345 83.0705 0.134364 80.9737 0.0234565 78.8191C0.00671609 78.5024 -0.000663064 78.186 0.00211997 77.8686V77.7777Z" fill="#1F2839"/>
<path d="M15.589 93.6C15.6294 93.6 15.6699 93.5999 15.7104 93.5996H62.2896C63.9422 93.6111 65.5899 93.3619 67.1719 92.855C67.2116 92.8422 67.2315 92.8357 67.2515 92.8292C67.2717 92.8226 67.292 92.816 67.3327 92.8025C68.9158 92.2758 70.4086 91.4973 71.7599 90.4862C71.976 90.3245 72.1875 90.1576 72.3943 89.9856C74.0444 88.6094 75.3909 86.9154 76.3518 85.0019C77.3152 83.076 77.8657 80.9849 77.9787 78.8529C77.9931 78.5739 78 78.305 78 78.0355C78 76.5986 77.8027 75.18 77.4172 73.8135C77.35 73.5759 77.2783 73.3433 77.2011 73.1122C76.658 71.4861 75.8487 69.9643 74.8117 68.6067L58.4595 46.8554L28.0815 87.3597C27.9194 87.5757 27.7521 87.7872 27.5728 88.0023C26.2003 89.6441 24.5023 90.9906 22.5735 91.9569C20.654 92.9147 18.558 93.4653 16.421 93.5782C16.1437 93.5929 15.8663 93.6001 15.589 93.6Z" fill="#1F2839"/>
</g>
</g>
</g>
</svg>
