<?xml version="1.0" encoding="UTF-8"?>
<svg width="78px" height="93px" viewBox="0 0 78 93" version="1.1" xmlns="http://www.w3.org/2000/svg" xmlns:xlink="http://www.w3.org/1999/xlink">
    <!-- Generator: Sketch 55.2 (78181) - https://sketchapp.com -->
    <title>primary</title>
    <desc>Created with Sketch.</desc>
    <g id="primary" stroke="none" stroke-width="1" fill="none" fill-rule="evenodd">
        <path d="M11.4482661,92.2082192 C11.3678356,92.1821943 11.3678356,92.1821943 11.2804598,92.1532601 C9.60787798,91.5954918 8.02877806,90.7700367 6.60010037,89.6985718 C6.37178672,89.5273436 6.14822834,89.3505178 5.92011649,89.1603456 C4.1839177,87.7089529 2.75999121,85.9133719 1.73739529,83.8722171 C0.724229228,81.8420131 0.142053336,79.6255365 0.0219653457,77.3534163 C0.00733151102,77.0691563 0,76.7842144 0,76.4988268 C0,74.7742803 0.26771285,73.0748129 0.786308886,71.4594595 C0.816272397,71.3666022 0.816272397,71.3666022 0.844416091,71.2816938 C1.4252442,69.538456 2.2923346,67.9104822 3.34552965,66.5383709 L25.6460831,36.8055064 C26.1560773,36.1032472 26.7214381,35.4414677 27.3241726,34.8403073 C28.6823906,33.4787298 30.2592853,32.3741695 31.9677766,31.5723564 C34.1802193,30.5288852 36.5836706,29.9981728 38.9931604,30.0000047 C41.4163294,29.9981728 43.8197807,30.5288852 46.0167772,31.5650893 C47.7407147,32.3741695 49.3176094,33.4787298 50.6598481,34.8243287 C51.2778536,35.4407595 51.843915,36.1032438 52.3539491,36.8055513 L74.5955804,66.4607333 C75.7076654,67.9104822 76.5747556,69.5384558 77.1547767,71.2792721 C77.2364945,71.5242999 77.3123756,71.7710665 77.3834847,72.023281 C77.7913133,73.4722777 78,74.9762162 78,76.4988268 C78,76.7842146 77.9926685,77.0691567 77.9773912,77.3657504 C77.8579467,79.6255365 77.2757708,81.8420132 76.2563306,83.8847649 C75.2400085,85.9133722 73.8160821,87.7089532 72.070404,89.168259 C71.8517726,89.3505171 71.6282145,89.5273426 71.399902,89.69857 C69.9712221,90.7700366 68.3921222,91.5954917 66.7170986,92.154074 C66.6315138,92.1824138 66.6315138,92.1824138 66.5471136,92.2096809 C64.8586011,92.7520387 63.0995113,93.0160568 61.4242405,92.9992521 L16.6112492,92.9992521 C14.8659585,93.0107883 13.1250438,92.746757 11.4482661,92.2082192 Z M16.5464373,80.999759 L16.5757595,80.999759 L61.4535627,80.999759 C61.9379749,81.0042749 62.4182238,80.9321953 62.8777751,80.7845855 L62.923289,80.769704 C63.3767426,80.6184874 63.8060086,80.3940938 64.2000329,80.0985876 C64.2637296,80.050817 64.3258945,80.0016471 64.3833537,79.9537509 C64.8597665,79.555489 65.2502445,79.0630935 65.5253603,78.5139627 C65.801702,77.9602234 65.9613446,77.3524274 65.9939042,76.7364824 C65.9979614,76.6576708 66,76.5784416 66,76.4988268 C66,76.07819 65.9430872,75.6680376 65.8326503,75.2756592 C65.8137279,75.2085449 65.7932243,75.1418668 65.7708787,75.0748641 C65.6135539,74.6026856 65.377842,74.1601334 65.054569,73.7384155 L42.6636866,43.8838067 C42.520782,43.6838981 42.3610728,43.4955522 42.1800203,43.3149478 C41.8117414,42.9457579 41.3858012,42.6474015 40.9132858,42.4256341 C40.3144157,42.1431845 39.6630918,41.9993639 38.9977201,41.9998648 C38.3369082,41.9993639 37.6855843,42.1431845 37.0815655,42.4280565 C36.6141988,42.6474015 36.1882586,42.9457579 35.8146532,43.320274 C35.6389272,43.4955522 35.479218,43.6838981 35.2957289,43.9392279 L12.925801,73.7642948 C12.622158,74.1601334 12.3864461,74.6026856 12.2288524,75.0756707 L12.2139713,75.1211795 C12.0728112,75.5608755 12,76.0230881 12,76.4988268 C12,76.5784413 12.0020386,76.6576706 12.0058814,76.7323712 C12.0386554,77.3524273 12.198298,77.9602234 12.4725484,78.5097803 C12.7497555,79.0630934 13.1402335,79.5554889 13.6134863,79.951113 C13.6741057,80.0016472 13.7362704,80.050817 13.7999673,80.0985877 C14.1939914,80.3940938 14.6232575,80.6184874 15.0759,80.7694336 L15.1236255,80.7850597 C15.5818189,80.932219 16.0621012,81.0042741 16.5464373,80.999759 Z" id="Combined-Shape" fill="#2CBAA7"></path>
        <path d="M57.3339234,0.536861481 C59.5753984,-0.0490700199 61.893651,-0.152784295 64.1353479,0.212955466 C66.3927002,0.577314734 68.5591871,1.40880514 70.4880141,2.66546634 C72.1962651,3.77443325 73.6901824,5.1927471 74.8849418,6.85144207 L74.9142528,6.8922147 C79.0765671,12.7008364 79.0505136,20.6005037 74.6993916,26.4020305 L29.7014007,86.3996706 C29.530171,86.6279778 29.353344,86.8515301 29.1631708,87.0796348 C27.7117666,88.8157862 25.9161774,90.239669 23.8750196,91.2622303 C21.8448235,92.2753567 19.6283605,92.8575085 17.3685349,92.976951 C15.3361231,93.084361 13.2954215,92.8161328 11.3510401,92.1771715 L11.284578,92.1551752 C9.319249,91.500372 7.5018566,90.4822103 5.93138034,89.1692839 C4.17004568,87.7009126 2.7495282,85.897543 1.74561086,83.8857549 C0.732267602,81.8630004 0.141892536,79.6445679 0.0246468482,77.366818 C0.00707429369,77.0343454 -5.68434189e-14,76.7015858 0.00203945606,76.3672865 L0.00203945606,31.7592834 C-0.0155707239,30.6404341 0.081024257,29.5260339 0.285585458,28.4486452 C0.735246936,26.0535472 1.70792734,23.8040608 3.11163333,21.8599427 C4.52083746,19.9013358 6.3472974,18.2672065 8.46129276,17.092129 C9.43413256,16.5487651 10.4613586,16.1044081 11.5283838,15.7672888 L56.1336957,0.898772466 C56.5337608,0.761372614 56.9381661,0.639611744 57.3339234,0.536861481 Z M65.1600514,13.8817986 L65.1510841,13.8693285 C64.8266803,13.4189565 64.4205678,13.0333964 63.9498365,12.727801 C63.4205561,12.3829704 62.835305,12.158353 62.2181653,12.0587361 C61.6062067,11.9588968 60.9799602,11.9869139 60.3640534,12.1479105 C60.2455239,12.1786878 60.1283373,12.2142411 59.9746662,12.2674826 L15.1760059,27.199584 C14.8758799,27.2918864 14.5868022,27.4156457 14.3074946,27.5716413 C13.7308551,27.8921758 13.2363282,28.3346278 12.8494466,28.8723348 C12.4645934,29.4053583 12.2012302,30.0144298 12.0783615,30.6688499 C12.0198288,30.9771591 11.993835,31.2905441 12.0019985,31.6746182 L12.0017556,76.4507974 C12.0005324,76.540229 12.0026397,76.6343181 12.0080942,76.7375696 C12.0402937,77.3630697 12.1998329,77.9625647 12.4766237,78.5150804 C12.7504675,79.0638397 13.1343354,79.5511662 13.6185697,79.9548613 C14.0505353,80.3159837 14.5451461,80.5930807 15.0785363,80.7707944 L15.0970353,80.7769185 C15.6240683,80.9501117 16.1795157,81.0231193 16.7352179,80.9937513 C17.3552739,80.9609784 17.963069,80.8013416 18.5126235,80.5271021 C19.0659305,80.2499079 19.5583188,79.8594494 19.9539356,79.3862219 C20.0044681,79.3256067 20.053637,79.2634454 20.1014066,79.1997523 L65.0993958,19.2021144 C66.2861274,17.6197972 66.29324,15.4631937 65.1600514,13.8817986 Z" id="Combined-Shape" fill="#2CBAA7"></path>
    </g>
</svg>