<svg width="250" height="250" viewBox="0 0 250 250" fill="none" xmlns="http://www.w3.org/2000/svg">
<path fill-rule="evenodd" clip-rule="evenodd" d="M140.811 2.56583C130.548 -0.855278 119.452 -0.855278 109.189 2.56583L34.1886 27.5658C13.7715 34.3715 0 53.4785 0 75V175C0 196.522 13.7715 215.628 34.1886 222.434L109.189 247.434C119.452 250.855 130.548 250.855 140.811 247.434L215.811 222.434C236.229 215.628 250 196.522 250 175V75C250 53.4785 236.229 34.3715 215.811 27.5658L140.811 2.56583ZM125 75C152.614 75 175 97.3858 175 125C175 152.614 152.614 175 125 175V188V225C127.67 225 130.34 224.572 132.906 223.717L207.906 198.717C218.114 195.314 225 185.761 225 175V75C225 64.2392 218.114 54.6858 207.906 51.2829L132.906 26.2829C130.34 25.4276 127.67 25 125 25V55V75ZM150 125C150 138.807 138.807 150 125 150C111.193 150 100 138.807 100 125C100 111.193 111.193 100 125 100C138.807 100 150 111.193 150 125Z" fill="#131619"/>
</svg>
