<svg width="302" height="250" viewBox="0 0 302 250" fill="none" xmlns="http://www.w3.org/2000/svg">
<path fill-rule="evenodd" clip-rule="evenodd" d="M280.236 9.43788C262.493 -3.35051 238.497 -3.12282 221 9.99998L21 160C3.78278 172.913 -3.23988 195.394 3.56583 215.811C10.3715 236.228 29.4785 250 51 250H201C222.521 250 241.628 236.228 248.434 215.811L298.434 65.8114C305.35 45.0624 297.978 22.2263 280.236 9.43788ZM265.618 29.7189C256.746 23.3247 244.749 23.4386 236 30L36 180C27.3914 186.456 23.8801 197.697 27.2829 207.906C30.6858 218.114 40.2392 225 51 225H201C211.761 225 221.314 218.114 224.717 207.906L274.717 57.9057C278.175 47.5312 274.489 36.1131 265.618 29.7189Z" fill="#131619"/>
<path fill-rule="evenodd" clip-rule="evenodd" d="M21.7648 9.43788C39.5078 -3.35051 63.5033 -3.12282 81.0003 9.99998L281 160C298.218 172.913 305.24 195.394 298.434 215.811C291.629 236.228 272.522 250 251 250H101C79.4788 250 60.3719 236.228 53.5662 215.811L3.56617 65.8114C-3.35015 45.0624 4.02186 22.2263 21.7648 9.43788ZM36.3826 29.7189C45.2541 23.3247 57.2518 23.4386 66.0003 30L266 180C274.609 186.456 278.12 197.697 274.717 207.906C271.315 218.114 261.761 225 251 225H101C90.2396 225 80.6861 218.114 77.2832 207.906L27.2832 57.9057C23.8251 47.5312 27.5111 36.1131 36.3826 29.7189Z" fill="#131619"/>
</svg>
