<svg width="65" height="65" viewBox="0 0 65 65" fill="none" xmlns="http://www.w3.org/2000/svg">
<path fill-rule="evenodd" clip-rule="evenodd" d="M32.5 0C14.5507 0 0 14.5507 0 32.5C0 50.4493 14.5507 65 32.5 65C50.4493 65 65 50.4493 65 32.5C65 14.5507 50.4493 0 32.5 0ZM29.0179 9.49093C29.0179 8.27897 27.9455 7.33988 26.7643 7.61099C15.4232 10.2139 6.96429 20.3691 6.96429 32.5C6.96429 44.6309 15.4232 54.7861 26.7643 57.389C27.9455 57.6601 29.0179 56.721 29.0179 55.5091L29.0179 9.49093ZM35.9821 41.9953C35.9821 40.4557 37.6488 39.4935 38.9821 40.2633L50.6798 47.0169C51.7307 47.6237 52.0069 49.024 51.1793 49.9116C47.7645 53.5733 43.2859 56.2299 38.2357 57.389C37.0544 57.6601 35.9821 56.721 35.9821 55.5091V41.9953ZM56.9237 39.9767C56.5692 41.1364 55.2192 41.5961 54.169 40.9897L42.4643 34.2321C41.131 33.4623 41.131 31.5377 42.4643 30.7679L54.169 24.0103C55.2192 23.4039 56.5692 23.8636 56.9237 25.0233C57.6467 27.388 58.0357 29.8986 58.0357 32.5C58.0357 35.1014 57.6467 37.612 56.9237 39.9767ZM51.1793 15.0884C52.0069 15.976 51.7307 17.3763 50.6798 17.9831L38.9821 24.7367C37.6488 25.5065 35.9821 24.5443 35.9821 23.0047V9.49093C35.9821 8.27897 37.0544 7.33988 38.2357 7.61099C43.2859 8.77006 47.7645 11.4267 51.1793 15.0884Z" fill="url(#paint0_linear)"/>
<path fill-rule="evenodd" clip-rule="evenodd" d="M32.5 0C14.5507 0 0 14.5507 0 32.5C0 50.4493 14.5507 65 32.5 65C50.4493 65 65 50.4493 65 32.5C65 14.5507 50.4493 0 32.5 0ZM29.0179 9.49093C29.0179 8.27897 27.9455 7.33988 26.7643 7.61099C15.4232 10.2139 6.96429 20.3691 6.96429 32.5C6.96429 44.6309 15.4232 54.7861 26.7643 57.389C27.9455 57.6601 29.0179 56.721 29.0179 55.5091L29.0179 9.49093ZM35.9821 41.9953C35.9821 40.4557 37.6488 39.4935 38.9821 40.2633L50.6798 47.0169C51.7307 47.6237 52.0069 49.024 51.1793 49.9116C47.7645 53.5733 43.2859 56.2299 38.2357 57.389C37.0544 57.6601 35.9821 56.721 35.9821 55.5091V41.9953ZM56.9237 39.9767C56.5692 41.1364 55.2192 41.5961 54.169 40.9897L42.4643 34.2321C41.131 33.4623 41.131 31.5377 42.4643 30.7679L54.169 24.0103C55.2192 23.4039 56.5692 23.8636 56.9237 25.0233C57.6467 27.388 58.0357 29.8986 58.0357 32.5C58.0357 35.1014 57.6467 37.612 56.9237 39.9767ZM51.1793 15.0884C52.0069 15.976 51.7307 17.3763 50.6798 17.9831L38.9821 24.7367C37.6488 25.5065 35.9821 24.5443 35.9821 23.0047V9.49093C35.9821 8.27897 37.0544 7.33988 38.2357 7.61099C43.2859 8.77006 47.7645 11.4267 51.1793 15.0884Z" fill="url(#paint1_radial)"/>
<defs>
<linearGradient id="paint0_linear" x1="64.5412" y1="47.515" x2="4.58352" y2="-1.08526" gradientUnits="userSpaceOnUse">
<stop offset="0.229167" stop-color="#FF0056"/>
<stop offset="0.520833" stop-color="#5467FF"/>
</linearGradient>
<radialGradient id="paint1_radial" cx="0" cy="0" r="1" gradientUnits="userSpaceOnUse" gradientTransform="translate(5.35158e-06 65) rotate(-21.7022) scale(87.8894 66.8351)">
<stop offset="0.411458" stop-color="#3BD983"/>
<stop offset="0.661458" stop-color="#3BD983" stop-opacity="0"/>
</radialGradient>
</defs>
</svg>
