<svg width="106" height="107" viewBox="0 0 106 107" fill="none" xmlns="http://www.w3.org/2000/svg">
<path fill-rule="evenodd" clip-rule="evenodd" d="M53 0.914063C23.8756 0.914063 0.265625 24.524 0.265625 53.6484C0.265625 82.7728 23.8756 106.383 53 106.383C82.1244 106.383 105.734 82.7728 105.734 53.6484C105.734 24.524 82.1244 0.914063 53 0.914063ZM47.3499 16.314C47.3499 14.3475 45.61 12.8237 43.6933 13.2636C25.2912 17.4871 11.5658 33.9649 11.5658 53.6484C11.5658 73.332 25.2912 89.8098 43.6933 94.0332C45.61 94.4731 47.3499 92.9494 47.3499 90.9829L47.3499 16.314ZM58.6501 69.0555C58.6501 66.5574 61.3544 64.9961 63.5179 66.2451L82.4984 77.2035C84.2037 78.1881 84.6519 80.4603 83.3089 81.9004C77.7682 87.8419 70.5011 92.1525 62.3067 94.0332C60.39 94.4731 58.6501 92.9494 58.6501 90.9829V69.0555ZM92.6298 65.7801C92.0545 67.6618 89.864 68.4077 88.16 67.4239L69.168 56.4589C67.0046 55.2098 67.0046 52.0871 69.168 50.838L88.16 39.873C89.864 38.8892 92.0545 39.6351 92.6298 41.5168C93.803 45.3538 94.4342 49.4274 94.4342 53.6484C94.4342 57.8695 93.803 61.9431 92.6298 65.7801ZM83.3089 25.3965C84.6519 26.8366 84.2037 29.1088 82.4984 30.0933L63.5179 41.0517C61.3544 42.3008 58.6501 40.7395 58.6501 38.2413L58.6501 16.314C58.6501 14.3475 60.39 12.8237 62.3067 13.2636C70.5011 15.1443 77.7682 19.4549 83.3089 25.3965Z" fill="url(#paint0_linear)"/>
<defs>
<linearGradient id="paint0_linear" x1="16.0859" y1="90.5625" x2="89.5625" y2="17.0859" gradientUnits="userSpaceOnUse">
<stop stop-color="#9ACCCA"/>
<stop offset="0.516994" stop-color="#A7B1BC"/>
<stop offset="1" stop-color="#5467FF"/>
</linearGradient>
</defs>
</svg>
