<svg width="32" height="32" viewBox="0 0 32 32" fill="none" xmlns="http://www.w3.org/2000/svg">
<path fill-rule="evenodd" clip-rule="evenodd" d="M13.2956 2.21823C13.297 2.21681 13.2985 2.21538 13.2999 2.21396C16.2518 -0.737986 21.0379 -0.737987 23.9898 2.21396C26.9418 5.16591 26.9418 9.95196 23.9898 12.9039L20.8937 16L23.9898 19.0961C26.9418 22.048 26.9418 26.8341 23.9898 29.786C21.0379 32.738 16.2518 32.738 13.2999 29.786L5.13604 21.6222C2.03099 18.5172 2.03098 13.4829 5.13604 10.3778L13.2956 2.21823ZM13.2999 12.9039L16.396 16L13.2999 19.0961C12.1459 20.2501 11.4431 21.6843 11.1913 23.1797L7.38492 19.3733C5.52189 17.5103 5.52189 14.4897 7.38492 12.6267L11.1913 8.82031C11.4431 10.3157 12.1459 11.7499 13.2999 12.9039ZM15.5488 4.46284C15.5477 4.46392 15.5466 4.46501 15.5455 4.46609C13.8388 6.17628 13.8399 8.94618 15.5488 10.655L18.6449 13.7511L21.7409 10.655C23.4509 8.9451 23.4509 6.17276 21.7409 4.46284C20.031 2.75291 17.2587 2.75291 15.5488 4.46284ZM21.7409 27.5372C23.4509 25.8272 23.4509 23.0549 21.7409 21.345L18.6449 18.2489L15.5488 21.345C13.8388 23.0549 13.8388 25.8272 15.5488 27.5372C17.2587 29.2471 20.031 29.2471 21.7409 27.5372Z" fill="url(#paint0_linear_1834_12)"/>
<defs>
<linearGradient id="paint0_linear_1834_12" x1="2.80725" y1="0" x2="33.2999" y2="22.2945" gradientUnits="userSpaceOnUse">
<stop stop-color="#994FF3"/>
<stop offset="0.552083" stop-color="#078080"/>
<stop offset="1" stop-color="#A3BE8C"/>
</linearGradient>
</defs>
</svg>
