<svg width="32" height="32" viewBox="0 0 32 32" fill="none" xmlns="http://www.w3.org/2000/svg">
<path d="M0 6.4C0 2.86538 2.86538 0 6.4 0H25.6C29.1346 0 32 2.86538 32 6.4V25.6C32 29.1346 29.1346 32 25.6 32H6.4C2.86538 32 0 29.1346 0 25.6V6.4Z" fill="#080C11"/>
<path fill-rule="evenodd" clip-rule="evenodd" d="M25.6 1.92H6.4C3.92576 1.92 1.92 3.92576 1.92 6.4V25.6C1.92 28.0742 3.92576 30.08 6.4 30.08H25.6C28.0742 30.08 30.08 28.0742 30.08 25.6V6.4C30.08 3.92576 28.0742 1.92 25.6 1.92ZM6.4 0C2.86538 0 0 2.86538 0 6.4V25.6C0 29.1346 2.86538 32 6.4 32H25.6C29.1346 32 32 29.1346 32 25.6V6.4C32 2.86538 29.1346 0 25.6 0H6.4Z" fill="#F8FAFC"/>
<path fill-rule="evenodd" clip-rule="evenodd" d="M16 7.11108C11.0908 7.11108 7.11108 11.0908 7.11108 16C7.11108 20.9092 11.0908 24.8889 16 24.8889C20.9092 24.8889 24.8889 20.9092 24.8889 16C24.8889 11.0908 20.9092 7.11108 16 7.11108ZM15.0476 9.70689C15.0476 9.37542 14.7543 9.11857 14.4312 9.19272C11.3294 9.90463 9.01585 12.6821 9.01585 16C9.01585 19.3178 11.3294 22.0953 14.4312 22.8072C14.7543 22.8814 15.0476 22.6245 15.0476 22.2931V9.70689ZM16.9524 18.597C16.9524 18.1759 17.4082 17.9127 17.7729 18.1233L20.9722 19.9704C21.2597 20.1364 21.3352 20.5194 21.1088 20.7621C20.1749 21.7636 18.95 22.4902 17.5687 22.8072C17.2456 22.8814 16.9524 22.6245 16.9524 22.2931V18.597ZM22.68 18.0449C22.583 18.3621 22.2138 18.4878 21.9265 18.322L18.7252 16.4737C18.3606 16.2632 18.3606 15.7368 18.7252 15.5263L21.9265 13.678C22.2138 13.5122 22.583 13.6379 22.68 13.9551C22.8777 14.6018 22.9841 15.2885 22.9841 16C22.9841 16.7115 22.8777 17.3981 22.68 18.0449ZM21.1088 11.2378C21.3352 11.4806 21.2597 11.8636 20.9722 12.0295L17.7729 13.8767C17.4082 14.0872 16.9524 13.824 16.9524 13.403V9.70689C16.9524 9.37542 17.2456 9.11857 17.5687 9.19272C18.95 9.50973 20.1749 10.2363 21.1088 11.2378Z" fill="#BAECDD"/>
</svg>
