<svg width="181" height="181" viewBox="0 0 181 181" fill="none" xmlns="http://www.w3.org/2000/svg">
<path fill-rule="evenodd" clip-rule="evenodd" d="M90.688 0.687988C40.9824 0.687988 0.687988 40.9824 0.687988 90.688C0.687988 140.394 40.9824 180.688 90.688 180.688C140.394 180.688 180.688 140.394 180.688 90.688C180.688 40.9824 140.394 0.687988 90.688 0.687988ZM81.0451 26.9706C81.0451 23.6144 78.0756 21.0138 74.8045 21.7646C43.3983 28.9727 19.9737 57.0948 19.9737 90.688C19.9737 124.281 43.3983 152.403 74.8045 159.611C78.0756 160.362 81.0451 157.762 81.0451 154.405L81.0451 26.9706ZM100.331 116.983C100.331 112.719 104.946 110.055 108.639 112.186L141.032 130.889C143.942 132.569 144.707 136.447 142.415 138.905C132.959 149.045 120.557 156.402 106.571 159.611C103.3 160.362 100.331 157.762 100.331 154.405L100.331 116.983ZM158.323 111.393C157.341 114.604 153.603 115.877 150.694 114.198L118.281 95.4844C114.589 93.3527 114.589 88.0233 118.281 85.8915L150.694 67.1779C153.603 65.4988 157.341 66.7719 158.323 69.9833C160.325 76.5317 161.402 83.4841 161.402 90.688C161.402 97.8919 160.325 104.844 158.323 111.393ZM142.415 42.4714C144.707 44.9291 143.942 48.807 141.032 50.4873L108.639 69.1896C104.946 71.3214 100.331 68.6567 100.331 64.3932L100.331 26.9706C100.331 23.6144 103.3 21.0138 106.571 21.7646C120.557 24.9743 132.959 32.3311 142.415 42.4714Z" fill="url(#paint0_linear)"/>
<defs>
<linearGradient id="paint0_linear" x1="14.4334" y1="156.47" x2="154.833" y2="16.0698" gradientUnits="userSpaceOnUse">
<stop stop-color="#E8D9AC"/>
<stop offset="0.516994" stop-color="#A7B1BC"/>
<stop offset="1" stop-color="#5467FF"/>
</linearGradient>
</defs>
</svg>
