<svg width="32" height="32" viewBox="0 0 32 32" fill="none" xmlns="http://www.w3.org/2000/svg">
<path d="M0 6.4C0 2.86538 2.86538 0 6.4 0H25.6C29.1346 0 32 2.86538 32 6.4V25.6C32 29.1346 29.1346 32 25.6 32H6.4C2.86538 32 0 29.1346 0 25.6V6.4Z" fill="#080C11"/>
<path fill-rule="evenodd" clip-rule="evenodd" d="M25.6 1.92H6.4C3.92576 1.92 1.92 3.92576 1.92 6.4V25.6C1.92 28.0742 3.92576 30.08 6.4 30.08H25.6C28.0742 30.08 30.08 28.0742 30.08 25.6V6.4C30.08 3.92576 28.0742 1.92 25.6 1.92ZM6.4 0C2.86538 0 0 2.86538 0 6.4V25.6C0 29.1346 2.86538 32 6.4 32H25.6C29.1346 32 32 29.1346 32 25.6V6.4C32 2.86538 29.1346 0 25.6 0H6.4Z" fill="#F8FAFC"/>
<path fill-rule="evenodd" clip-rule="evenodd" d="M20.4575 23.6887C24.6976 21.2308 26.1482 15.8025 23.6967 11.5563C21.2425 7.30555 15.807 5.84913 11.5563 8.30332C7.30549 10.7575 5.84907 16.193 8.30325 20.4437C10.7543 24.6891 16.1792 26.1473 20.4276 23.706C20.4376 23.7005 20.4476 23.6947 20.4575 23.6887ZM17.5274 22.8158C17.9999 22.7098 18.1544 22.1459 17.8497 21.7695L13.6361 16.5651C13.5834 16.5025 13.5398 16.4342 13.5055 16.3624L13.5051 16.3614C13.4973 16.3451 13.49 16.3286 13.4832 16.312C13.4627 16.2618 13.4467 16.2103 13.4352 16.1582C13.4176 16.0781 13.4104 15.9964 13.4136 15.9152C13.4188 15.7807 13.4518 15.6534 13.507 15.5389C13.542 15.4661 13.5866 15.3972 13.6406 15.3341L17.8292 10.232C18.1384 9.85535 17.9838 9.2872 17.5081 9.18183C15.8632 8.81753 14.0825 9.04386 12.5085 9.95261C9.16859 11.8809 8.02426 16.1516 9.95255 19.4915C11.5177 22.2024 14.6261 23.4669 17.5274 22.8158ZM22.1072 16.9431C22.537 16.9453 22.8692 17.3268 22.7619 17.743C22.4276 19.0398 21.7226 20.2404 20.6933 21.1725C20.4109 21.4283 19.9774 21.371 19.7377 21.0749L17.3134 18.0805C16.936 17.6143 17.2698 16.919 17.8696 16.922L22.1072 16.9431ZM22.759 14.2388C22.8684 14.6576 22.5316 15.0408 22.0988 15.0386L17.8648 15.0175C17.266 15.0145 16.9388 14.318 17.3187 13.8552L19.7331 10.9143C19.9736 10.6213 20.4046 10.5657 20.6857 10.8201C21.2117 11.2961 21.6736 11.8611 22.0474 12.5086C22.3684 13.0645 22.6043 13.6463 22.759 14.2388Z" fill="#BAECDD"/>
</svg>
