<svg width="32" height="32" viewBox="0 0 32 32" fill="none" xmlns="http://www.w3.org/2000/svg">
<path fill-rule="evenodd" clip-rule="evenodd" d="M16 0C24.8366 0 32 7.16344 32 16C32 24.8366 24.8366 32 16 32C7.16344 32 0 24.8366 0 16C0 7.16344 7.16344 0 16 0ZM14.5455 4.61318C14.5455 3.74658 13.7886 3.06585 12.9457 3.26729C7.18903 4.64313 2.90909 9.82175 2.90909 16C2.90909 22.1783 7.18903 27.3569 12.9457 28.7327C13.7886 28.9341 14.5455 28.2534 14.5455 27.3868V16.0035C14.5455 16.0023 14.5455 16.0012 14.5455 16C14.5455 15.9988 14.5455 15.9977 14.5455 15.9965V4.61318ZM18.2586 3.10321C17.8317 3.02897 17.4545 3.36779 17.4545 3.80109V7.86801C17.4545 8.49671 18.2224 8.85386 18.7603 8.52833C20.077 7.73141 21.6213 7.27273 23.2727 7.27273C23.8425 7.27273 24.3995 7.32733 24.9389 7.43159C25.299 7.50121 25.5799 7.07067 25.3223 6.80944C23.4495 4.90994 21.0005 3.58006 18.2586 3.10321ZM17.4545 15.9971C17.4545 15.9981 17.4545 15.999 17.4545 16C17.4545 16.001 17.4545 16.0019 17.4545 16.0029C17.4561 19.2148 20.0604 21.8182 23.2727 21.8182C26.486 21.8182 29.0909 19.2133 29.0909 16C29.0909 12.7867 26.486 10.1818 23.2727 10.1818C20.0604 10.1818 17.4561 12.7852 17.4545 15.9971ZM18.7603 23.4717C18.2224 23.1461 17.4545 23.5033 17.4545 24.132V28.1989C17.4545 28.6322 17.8317 28.971 18.2586 28.8968C21.0005 28.4199 23.4495 27.0901 25.3223 25.1906C25.5799 24.9293 25.299 24.4988 24.9389 24.5684C24.3995 24.6727 23.8425 24.7273 23.2727 24.7273C21.6213 24.7273 20.077 24.2686 18.7603 23.4717Z" fill="#9ACCCA"/>
</svg>
