<svg width="32" height="32" viewBox="0 0 32 32" fill="none" xmlns="http://www.w3.org/2000/svg">
<path fill-rule="evenodd" clip-rule="evenodd" d="M14.0506 0.756709C16.2213 -0.38835 18.85 -0.223978 20.8611 1.18257L26.4298 5.07715C30.1582 7.6847 30.1582 13.2056 26.4298 15.8132L26.1626 16L26.4298 16.1868C30.1582 18.7944 30.1582 24.3153 26.4298 26.9229L20.8611 30.8174C18.85 32.224 16.2213 32.3883 14.0506 31.2433L5.49426 26.7298C3.34506 25.5961 2 23.3658 2 20.9359V11.0641C2 8.6342 3.34506 6.40395 5.49426 5.27023L14.0506 0.756709ZM24.6421 13.257L23.4413 14.0968L12.3048 6.30818C11.9809 6.08166 11.648 5.88932 11.3092 5.72953L15.506 3.51569C16.643 2.9159 18.0199 3.002 19.0734 3.73876L24.6421 7.63334C26.5951 8.9992 26.5951 11.8911 24.6421 13.257ZM5.11931 20.3238V11.6762C5.11931 8.90089 8.24278 7.2738 10.5171 8.86438L12.2919 10.1056C11.3405 10.8707 10.7002 12.0427 10.7002 13.4503V18.543C10.7002 19.9524 11.3424 21.126 12.2963 21.8912L10.5171 23.1356C8.24278 24.7262 5.11931 23.0991 5.11931 20.3238ZM20.7087 16.0078L17.8844 17.9831L15.6819 19.5159C14.896 20.0629 13.8195 19.5005 13.8195 18.543V13.4503C13.8195 12.4905 14.9006 11.9286 15.6861 12.4803L20.7087 16.0078ZM19.6692 20.5414L12.3048 25.6918C11.9809 25.9183 11.648 26.1107 11.3092 26.2705L15.506 28.4843C16.643 29.0841 18.02 28.998 19.0734 28.2612L24.6421 24.3667C26.5951 23.0008 26.5951 20.1089 24.6421 18.743L23.4505 17.9097L19.6692 20.5414Z" fill="#078063"/>
</svg>
