<svg width="32" height="32" viewBox="0 0 32 32" fill="none" xmlns="http://www.w3.org/2000/svg">
<path d="M0 6.4C0 2.86538 2.86538 0 6.4 0H25.6C29.1346 0 32 2.86538 32 6.4V25.6C32 29.1346 29.1346 32 25.6 32H6.4C2.86538 32 0 29.1346 0 25.6V6.4Z" fill="#080C11"/>
<path fill-rule="evenodd" clip-rule="evenodd" d="M25.6 1.92H6.4C3.92576 1.92 1.92 3.92576 1.92 6.4V25.6C1.92 28.0742 3.92576 30.08 6.4 30.08H25.6C28.0742 30.08 30.08 28.0742 30.08 25.6V6.4C30.08 3.92576 28.0742 1.92 25.6 1.92ZM6.4 0C2.86538 0 0 2.86538 0 6.4V25.6C0 29.1346 2.86538 32 6.4 32H25.6C29.1346 32 32 29.1346 32 25.6V6.4C32 2.86538 29.1346 0 25.6 0H6.4Z" fill="#F8FAFC"/>
<path fill-rule="evenodd" clip-rule="evenodd" d="M15.1035 7.31089C16.3142 6.523 17.8756 6.523 19.0862 7.31089L22.2246 9.35335C24.4372 10.7933 24.4372 14.0332 22.2246 15.4731L21.4151 16L22.2246 16.5268C24.4372 17.9668 24.4372 21.2066 22.2246 22.6466L19.0862 24.6891C17.8756 25.4769 16.3142 25.4769 15.1035 24.6891L9.72341 21.1877C8.68832 20.5141 8.06396 19.3628 8.06396 18.1278V13.8721C8.06396 12.6371 8.68832 11.4859 9.72341 10.8122L15.1035 7.31089ZM21.1766 13.8626L19.6537 14.8537L13.7061 10.983C13.5798 10.9009 13.4515 10.8277 13.3215 10.7632L16.1516 8.92135C16.7251 8.54814 17.4647 8.54814 18.0381 8.92135L21.1766 10.9638C22.2246 11.6459 22.2246 13.1806 21.1766 13.8626ZM15.1734 17.7695L17.8924 16L15.1734 14.2305V17.7695ZM13.7061 21.0169C13.5798 21.0991 13.4515 21.1723 13.3215 21.2368L16.1516 23.0786C16.7251 23.4518 17.4647 23.4518 18.0381 23.0786L21.1766 21.0361C22.2246 20.3541 22.2246 18.8194 21.1766 18.1373L19.6537 17.1462L13.7061 21.0169ZM10.1776 13.8864C10.1776 13.0374 10.8658 12.3492 11.7148 12.3492C12.5637 12.3492 13.2519 13.0374 13.2519 13.8864V18.1136C13.2519 18.9625 12.5637 19.6508 11.7148 19.6508C10.8658 19.6508 10.1776 18.9625 10.1776 18.1136V13.8864Z" fill="#BAECDD"/>
</svg>
