<svg width="32" height="32" viewBox="0 0 32 32" fill="none" xmlns="http://www.w3.org/2000/svg">
<path fill-rule="evenodd" clip-rule="evenodd" d="M13.9761 0.328427C15.2899 -0.109476 16.7102 -0.109476 18.0239 0.328427L27.6239 3.52843C30.2372 4.39956 32 6.84524 32 9.6V22.4C32 25.1547 30.2372 27.6004 27.6239 28.4716L18.0239 31.6716C16.7102 32.1095 15.2899 32.1095 13.9761 31.6716L4.37615 28.4716C1.76276 27.6004 5.93066e-06 25.1547 5.93066e-06 22.4V9.6C5.93066e-06 6.84524 1.76276 4.39956 4.37615 3.52843L13.9761 0.328427ZM16 9.6C12.4654 9.6 9.6 12.4654 9.6 16C9.6 19.5346 12.4654 22.4 16 22.4V28.8C15.6583 28.8 15.3165 28.7453 14.9881 28.6358L5.38808 25.4358C4.08138 25.0002 3.20001 23.7774 3.20001 22.4V9.6C3.20001 8.22262 4.08138 6.99978 5.38808 6.56421L14.9881 3.36421C15.3165 3.25474 15.6583 3.2 16 3.2V9.6ZM12.8 16C12.8 17.7673 14.2327 19.2 16 19.2C17.7673 19.2 19.2 17.7673 19.2 16C19.2 14.2327 17.7673 12.8 16 12.8C14.2327 12.8 12.8 14.2327 12.8 16Z" fill="#1395AE"/>
<path d="M22.4 16C22.4 19.5346 19.5347 22.4 16 22.4V28.8C16.3418 28.8 16.6836 28.7453 17.012 28.6358L26.612 25.4358C27.9187 25.0002 28.8 23.7774 28.8 22.4L28.8 9.60001C28.8 8.22263 27.9187 6.99979 26.612 6.56422L17.012 3.36422C16.6835 3.25475 16.3418 3.20001 16 3.20001L16 9.60001C19.5347 9.60001 22.4 12.4654 22.4 16Z" fill="#47D0EB"/>
</svg>
