<svg width="32" height="32" viewBox="0 0 32 32" fill="none" xmlns="http://www.w3.org/2000/svg">
<path fill-rule="evenodd" clip-rule="evenodd" d="M16 0C7.16344 0 0 7.16344 0 16C0 24.8366 7.16344 32 16 32C24.8366 32 32 24.8366 32 16C32 7.16344 24.8366 0 16 0ZM14.2857 4.67246C14.2857 4.0758 13.7578 3.61348 13.1763 3.74695C7.59294 5.02839 3.42857 10.0279 3.42857 16C3.42857 21.9721 7.59294 26.9716 13.1763 28.253C13.7578 28.3865 14.2857 27.9242 14.2857 27.3275L14.2857 4.67246ZM17.7143 20.6746C17.7143 19.9167 18.5348 19.443 19.1912 19.8219L24.95 23.1468C25.4674 23.4455 25.6034 24.1349 25.196 24.5718C23.5149 26.3746 21.31 27.6824 18.8237 28.253C18.2422 28.3865 17.7143 27.9242 17.7143 27.3275V20.6746ZM28.024 19.6808C27.8494 20.2517 27.1848 20.4781 26.6678 20.1796L20.9055 16.8527C20.2491 16.4737 20.2491 15.5263 20.9055 15.1473L26.6678 11.8204C27.1848 11.5219 27.8494 11.7483 28.024 12.3192C28.3799 13.4833 28.5714 14.7193 28.5714 16C28.5714 17.2807 28.3799 18.5167 28.024 19.6808ZM25.196 7.42816C25.6034 7.86509 25.4674 8.55448 24.95 8.8532L19.1912 12.1781C18.5348 12.557 17.7143 12.0833 17.7143 11.3254V4.67246C17.7143 4.0758 18.2422 3.61348 18.8237 3.74695C21.31 4.31757 23.5149 5.62544 25.196 7.42816Z" fill="#7DC4A8"/>
</svg>
