<svg width="32" height="32" viewBox="0 0 32 32" fill="none" xmlns="http://www.w3.org/2000/svg">
<path fill-rule="evenodd" clip-rule="evenodd" d="M18.0239 31.6716C16.7101 32.1095 15.2898 32.1095 13.9761 31.6716L4.37614 28.4716C1.76275 27.6004 -5.9843e-07 25.1548 -8.39259e-07 22.4L-1.95827e-06 9.6C-2.1991e-06 6.84525 1.76275 4.39956 4.37614 3.52843L13.9761 0.328427C15.2898 -0.109476 16.7101 -0.109476 18.0239 0.328426L27.6239 3.52843C30.2372 4.39955 32 6.84525 32 9.6L32 22.4C32 25.1548 30.2372 27.6004 27.6239 28.4716L18.0239 31.6716ZM16 22.4C19.5346 22.4 22.4 19.5346 22.4 16C22.4 12.4654 19.5346 9.6 16 9.6L16 3.2C16.3417 3.2 16.6835 3.25474 17.0119 3.36421L26.6119 6.56421C27.9186 6.99978 28.8 8.22262 28.8 9.6L28.8 22.4C28.8 23.7774 27.9186 25.0002 26.6119 25.4358L17.0119 28.6358C16.6835 28.7453 16.3417 28.8 16 28.8L16 22.4ZM19.2 16C19.2 14.2327 17.7673 12.8 16 12.8C14.2327 12.8 12.8 14.2327 12.8 16C12.8 17.7673 14.2327 19.2 16 19.2C17.7673 19.2 19.2 17.7673 19.2 16Z" fill="#88C0C0"/>
<path d="M9.59995 16C9.59995 12.4654 12.4653 9.59999 15.9999 9.59999L15.9999 3.19999C15.6582 3.19999 15.3164 3.25472 14.988 3.3642L5.38802 6.5642C4.08133 6.99977 3.19995 8.22261 3.19995 9.59999L3.19995 22.4C3.19995 23.7774 4.08133 25.0002 5.38802 25.4358L14.988 28.6358C15.3165 28.7452 15.6582 28.8 16 28.8L16 22.4C12.4653 22.4 9.59995 19.5346 9.59995 16Z" fill="#2C5353"/>
</svg>
