<?xml version="1.0" standalone="no"?>
<!DOCTYPE svg PUBLIC "-//W3C//DTD SVG 20010904//EN"
 "http://www.w3.org/TR/2001/REC-SVG-20010904/DTD/svg10.dtd">
<svg version="1.0" xmlns="http://www.w3.org/2000/svg"
 width="1120.000000pt" height="1120.000000pt" viewBox="0 0 1120.000000 1120.000000"
 preserveAspectRatio="xMidYMid meet">
<metadata>
Created by potrace 1.11, written by Peter Selinger 2001-2013
</metadata>
<g transform="translate(0.000000,1120.000000) scale(0.100000,-0.100000)"
fill="#000000" stroke="none">
<path d="M5999 11185 c-145 -20 -162 -23 -287 -54 -121 -30 -305 -93 -329
-112 -7 -6 -13 -9 -13 -5 0 4 -15 -1 -32 -11 -18 -9 -35 -18 -38 -18 -15 -3
-136 -69 -141 -77 -3 -5 -9 -9 -13 -8 -9 3 -368 -229 -431 -278 -5 -4 -35 -23
-65 -42 -30 -19 -57 -37 -60 -40 -3 -3 -27 -20 -55 -38 -27 -17 -54 -35 -60
-40 -5 -4 -44 -30 -85 -57 -41 -28 -77 -53 -80 -56 -3 -3 -10 -8 -15 -10 -10
-4 -240 -156 -260 -172 -36 -28 -459 -307 -466 -307 -5 0 -9 -4 -9 -10 0 -5
-6 -10 -14 -10 -8 0 -16 -4 -18 -8 -2 -7 -471 -324 -526 -357 -9 -5 -19 -12
-22 -15 -8 -8 -124 -85 -135 -89 -16 -6 -80 -55 -83 -63 -2 -5 -8 -8 -13 -8
-12 0 -192 -122 -197 -132 -2 -5 -9 -8 -15 -8 -7 0 -23 -9 -37 -20 -14 -11
-61 -44 -105 -73 -44 -28 -81 -55 -83 -59 -2 -5 -10 -8 -18 -8 -8 0 -14 -4
-14 -10 0 -5 -7 -10 -15 -10 -8 0 -15 -4 -15 -9 0 -5 -14 -14 -30 -21 -17 -7
-30 -16 -30 -21 0 -4 -9 -11 -20 -14 -11 -3 -26 -12 -32 -18 -18 -16 -125 -87
-168 -110 -19 -11 -47 -28 -62 -38 -14 -11 -29 -19 -32 -19 -6 0 -106 -69
-116 -80 -3 -3 -18 -14 -35 -25 -80 -50 -302 -260 -385 -364 -97 -121 -249
-354 -243 -373 2 -4 -1 -8 -6 -8 -5 0 -19 -24 -31 -52 -12 -29 -33 -75 -45
-103 -13 -27 -37 -93 -55 -145 -17 -52 -34 -102 -37 -110 -7 -18 -9 -26 -16
-65 -3 -16 -10 -50 -16 -75 -5 -25 -12 -58 -15 -75 -3 -16 -8 -41 -11 -55 -17
-86 -20 -307 -20 -1590 0 -1298 3 -1555 19 -1600 3 -8 8 -35 11 -60 9 -63 10
-72 20 -100 4 -14 9 -32 10 -40 6 -61 110 -358 142 -405 7 -11 13 -27 13 -36
0 -10 4 -19 9 -21 4 -1 26 -37 47 -78 21 -41 43 -80 49 -86 5 -6 19 -27 30
-47 11 -20 23 -37 27 -37 5 0 8 -7 8 -15 0 -8 4 -15 8 -15 4 0 15 -12 24 -27
9 -16 25 -38 35 -50 10 -11 34 -40 53 -64 119 -146 317 -321 482 -427 140 -90
902 -595 908 -601 3 -3 17 -13 31 -21 15 -8 37 -23 50 -33 64 -47 486 -328
502 -333 9 -4 17 -10 17 -14 0 -4 10 -12 23 -19 29 -15 63 -37 137 -89 33 -23
65 -42 69 -42 5 0 11 -4 13 -8 4 -10 96 -72 108 -72 4 0 10 -4 12 -8 1 -5 111
-80 243 -168 132 -87 242 -161 245 -164 3 -3 106 -72 230 -155 124 -82 227
-153 228 -157 2 -4 10 -8 18 -8 8 0 14 -4 14 -10 0 -5 5 -10 10 -10 12 0 163
-101 168 -112 2 -5 9 -8 16 -8 7 0 21 -9 31 -20 10 -11 23 -20 30 -20 7 0 20
-9 30 -20 10 -11 21 -20 25 -20 4 0 34 -18 67 -40 48 -32 238 -138 278 -154
48 -21 267 -99 299 -107 105 -27 205 -50 241 -55 22 -3 46 -7 53 -9 56 -19
454 -27 577 -12 82 9 218 33 244 43 8 2 30 7 50 10 20 3 44 10 54 15 9 5 17 8
17 5 0 -4 107 32 250 84 19 8 38 18 42 24 4 6 8 8 8 3 0 -16 262 128 363 199
26 19 52 34 57 34 6 0 10 5 10 11 0 5 5 7 10 4 6 -3 10 -2 10 3 0 5 34 31 76
57 42 27 82 55 90 62 8 8 14 11 14 6 0 -4 4 -3 8 2 4 6 135 96 292 200 157
105 287 192 290 195 3 3 43 30 90 60 47 30 87 57 90 60 3 3 73 50 155 104 83
55 160 108 173 119 12 11 22 16 22 11 0 -5 4 -4 8 1 4 6 61 47 127 90 66 44
122 82 125 85 3 3 46 32 95 64 50 32 92 63 93 68 2 4 9 8 15 8 15 0 184 131
258 201 35 32 67 59 71 59 5 0 8 3 8 8 0 4 22 30 48 57 87 92 272 335 254 335
-4 0 -2 4 4 8 11 7 124 209 124 221 0 3 6 18 14 32 15 30 74 178 88 224 8 28
13 46 23 85 2 8 4 15 5 15 1 0 3 11 6 25 2 14 7 32 11 40 3 8 7 22 8 30 1 8 5
29 8 45 4 17 10 47 13 69 3 21 7 48 9 59 26 129 25 568 0 639 -2 7 -7 33 -10
58 -4 25 -9 56 -11 70 -3 14 -6 31 -6 38 -1 6 -4 12 -7 12 -3 0 -7 15 -8 33
-2 17 -25 97 -53 177 -27 80 -51 150 -52 155 -2 6 -5 12 -9 15 -3 3 -15 30
-28 60 -13 30 -41 85 -62 122 -22 36 -39 69 -39 73 0 4 -6 12 -12 20 -7 7 -26
36 -43 64 -16 28 -33 51 -37 51 -5 0 -8 6 -8 14 0 8 -3 16 -7 18 -5 2 -21 21
-37 43 -91 124 -265 299 -396 398 -30 23 -63 49 -73 58 -9 9 -30 22 -45 30
-15 8 -29 17 -32 20 -3 3 -96 67 -208 141 -188 125 -201 136 -185 150 10 9
115 81 235 161 218 146 279 188 288 197 3 3 30 25 60 50 119 97 230 207 315
314 17 20 36 43 43 51 6 7 12 18 12 24 0 6 4 11 8 11 10 0 132 185 132 199 0
5 4 11 9 13 10 3 131 251 131 268 0 5 4 18 10 28 22 38 74 211 95 315 2 10 7
27 10 37 3 10 8 34 10 52 2 18 6 50 10 70 17 102 23 199 20 368 -2 102 -6 196
-9 210 -3 14 -7 45 -10 70 -6 46 -11 73 -23 125 -4 17 -7 35 -8 40 -1 6 -3 12
-4 15 -2 3 -4 14 -6 25 -13 78 -69 248 -121 365 -40 90 -137 272 -156 295 -8
9 -25 34 -60 90 -7 11 -16 22 -19 25 -3 3 -12 14 -20 26 -13 19 -63 80 -112
138 -76 88 -215 218 -307 286 -18 14 -45 34 -59 46 -14 11 -33 24 -41 27 -17
8 -162 107 -200 137 -14 11 -29 20 -33 20 -4 0 -13 5 -20 10 -46 39 -61 50
-68 50 -4 0 -14 6 -21 13 -7 8 -25 20 -39 28 -27 14 -140 90 -149 99 -12 13
-90 60 -99 60 -5 0 -11 4 -13 8 -3 9 -525 362 -534 362 -3 0 -12 6 -19 13 -26
23 -41 34 -50 38 -6 2 -70 45 -143 94 -73 50 -143 96 -157 103 -14 7 -25 17
-25 23 0 5 -6 9 -13 9 -8 0 -24 9 -37 20 -13 11 -27 20 -31 20 -4 0 -14 6 -21
13 -7 7 -31 24 -53 37 -22 13 -42 27 -45 30 -8 9 -171 114 -225 146 -27 15
-51 32 -53 36 -2 4 -12 8 -22 8 -10 0 -21 4 -24 9 -8 12 -111 60 -217 101 -46
17 -93 36 -104 41 -25 10 -122 39 -155 45 -14 3 -43 10 -65 16 -51 14 -64 17
-97 20 -16 1 -28 5 -28 8 0 3 -15 5 -32 6 -18 1 -51 4 -73 8 -82 13 -439 14
-536 1z m431 -1108 c14 -4 53 -12 88 -18 34 -7 62 -15 62 -19 0 -3 11 -7 24
-8 13 -1 37 -7 52 -13 16 -7 32 -12 37 -11 4 1 7 -2 7 -8 0 -5 6 -10 13 -10
18 0 67 -24 67 -32 0 -5 9 -8 20 -8 11 0 20 -4 20 -10 0 -5 4 -10 9 -10 12 0
615 -402 619 -412 2 -5 7 -8 11 -8 5 0 88 -54 186 -120 98 -66 182 -120 186
-120 5 0 9 -4 9 -10 0 -5 7 -10 15 -10 8 0 15 -4 15 -10 0 -5 7 -10 15 -10 8
0 15 -4 15 -8 0 -5 19 -19 43 -32 23 -13 44 -26 47 -30 10 -12 251 -170 260
-170 4 0 10 -4 12 -8 4 -11 124 -92 137 -92 5 0 11 -4 13 -8 2 -4 80 -59 173
-122 257 -172 339 -240 421 -350 86 -116 95 -130 87 -130 -4 0 -3 -4 2 -8 12
-8 75 -137 75 -152 0 -6 4 -18 9 -28 12 -23 29 -80 35 -117 3 -16 8 -41 11
-55 12 -51 15 -107 15 -242 0 -10 0 -24 0 -30 0 -17 -7 -73 -10 -73 -1 0 -3
-11 -5 -25 -17 -108 -16 -105 -50 -200 -31 -83 -90 -201 -108 -212 -7 -4 -8
-8 -4 -8 5 0 -2 -13 -15 -28 -12 -16 -32 -41 -43 -57 -57 -81 -207 -208 -360
-305 -38 -25 -72 -47 -75 -50 -14 -14 -71 -50 -80 -50 -5 0 -10 -4 -10 -10 0
-5 -6 -10 -14 -10 -8 0 -16 -3 -18 -8 -1 -4 -59 -45 -128 -90 -69 -45 -134
-89 -145 -98 -11 -8 -42 -29 -70 -47 -27 -17 -58 -39 -68 -47 -10 -8 -20 -13
-24 -12 -3 2 -9 0 -12 -5 -3 -5 -18 -16 -33 -25 -25 -16 -27 -16 -51 2 -14 11
-30 20 -35 20 -6 0 -12 3 -14 8 -5 11 -66 52 -78 52 -5 0 -10 4 -10 8 0 5 -19
19 -42 32 -24 13 -45 26 -48 30 -4 6 -665 450 -744 500 -13 8 -83 56 -156 105
-73 50 -140 95 -149 100 -41 26 -107 71 -117 80 -7 5 -42 28 -78 50 -36 22
-66 43 -66 48 0 4 -5 7 -11 7 -6 0 -28 13 -48 28 -20 16 -43 32 -51 35 -8 4
-37 23 -65 42 -27 20 -57 40 -65 45 -8 5 -47 32 -87 60 -40 27 -77 50 -83 50
-5 0 -10 5 -10 10 0 6 -7 10 -15 10 -8 0 -15 4 -15 8 0 5 -12 15 -27 23 -16 8
-36 21 -46 30 -9 9 -30 22 -45 30 -15 8 -36 22 -46 32 -11 9 -25 17 -32 17 -7
0 -14 4 -16 8 -4 11 -216 152 -227 152 -5 0 -11 4 -13 8 -5 12 -273 192 -285
192 -6 0 -13 4 -15 9 -1 5 -79 60 -173 122 -93 62 -171 117 -173 121 -2 4 -10
8 -18 8 -8 0 -14 5 -14 10 0 6 -4 10 -8 10 -7 0 -409 264 -437 287 -21 18
-152 98 -218 133 l-69 38 78 53 c44 29 147 98 229 153 83 55 152 104 153 108
2 4 8 8 13 8 10 0 158 99 192 128 9 8 17 11 17 6 0 -5 4 -4 8 2 7 11 607 415
627 423 5 2 12 7 15 10 3 3 52 38 110 76 58 39 107 73 108 78 2 4 10 7 18 7 8
0 14 3 14 8 0 4 19 16 43 27 23 11 44 23 47 26 13 17 187 82 250 94 8 1 22 5
30 8 8 3 34 8 58 10 23 3 45 7 48 10 7 6 272 1 304 -6z m-3191 -2121 c30 -4
58 -9 63 -12 5 -3 19 -7 31 -8 87 -10 358 -137 417 -196 3 -3 17 -11 32 -19
15 -8 36 -21 45 -30 10 -9 30 -22 45 -30 15 -8 37 -22 47 -33 11 -10 22 -18
25 -18 9 0 101 -64 104 -72 2 -4 11 -8 19 -8 9 0 13 -6 9 -15 -3 -8 -2 -15 2
-15 10 0 6 -95 -4 -111 -4 -7 -3 -10 3 -6 7 5 8 -4 3 -28 -4 -19 -5 -35 -1
-35 10 0 8 -31 -3 -48 -4 -6 -3 -12 1 -12 10 0 8 -94 -3 -111 -4 -7 -3 -10 3
-6 7 4 8 -7 3 -33 -4 -21 -3 -44 1 -51 4 -8 3 -19 -3 -26 -6 -7 -6 -13 -1 -13
10 0 8 -93 -3 -111 -4 -7 -3 -10 3 -6 7 5 8 -4 3 -28 -4 -19 -5 -35 -1 -35 10
0 8 -31 -3 -48 -4 -6 -3 -12 2 -12 9 0 7 -64 -3 -80 -3 -6 -2 -10 3 -10 10 0
8 -42 -3 -59 -3 -6 -2 -11 3 -11 9 0 7 -64 -3 -80 -3 -6 -2 -10 3 -10 10 0 8
-42 -3 -59 -3 -6 -2 -11 3 -11 8 0 7 -63 -2 -87 -3 -7 -2 -13 3 -13 9 0 8 -31
-3 -48 -4 -6 -3 -12 1 -12 10 0 8 -94 -3 -111 -4 -7 -3 -10 3 -6 7 4 8 -7 3
-33 -4 -21 -3 -44 1 -51 4 -8 3 -19 -3 -26 -6 -7 -6 -13 -1 -13 10 0 8 -93 -3
-111 -4 -7 -3 -10 3 -6 7 5 8 -4 3 -28 -4 -19 -5 -35 -1 -35 10 0 8 -31 -3
-48 -4 -6 -3 -12 2 -12 9 0 7 -64 -3 -80 -3 -6 -2 -10 3 -10 10 0 8 -42 -3
-59 -3 -6 -2 -11 3 -11 9 0 7 -64 -3 -80 -3 -6 -2 -10 3 -10 10 0 8 -42 -3
-59 -3 -6 -2 -11 3 -11 8 0 7 -63 -2 -87 -3 -7 -2 -13 3 -13 9 0 8 -31 -3 -48
-4 -6 -3 -12 1 -12 10 0 8 -94 -3 -111 -4 -7 -3 -10 3 -6 7 4 8 -7 3 -33 -4
-21 -3 -44 1 -51 4 -8 3 -19 -3 -26 -6 -7 -6 -13 -1 -13 10 0 8 -93 -3 -111
-4 -7 -3 -10 3 -6 7 5 8 -4 3 -28 -4 -19 -5 -35 -1 -35 10 0 8 -31 -3 -48 -4
-6 -3 -12 1 -12 10 0 8 -94 -3 -111 -4 -7 -3 -10 3 -6 7 4 8 -7 3 -33 -4 -21
-3 -44 1 -51 4 -8 3 -19 -3 -26 -6 -7 -6 -13 -1 -13 9 0 9 -92 0 -107 -2 -4
-1 -17 3 -28 4 -11 3 -30 -1 -43 -5 -13 -5 -21 0 -18 4 3 5 -12 1 -34 -4 -21
-3 -44 1 -51 4 -8 3 -19 -3 -26 -6 -7 -6 -13 -1 -13 9 0 9 -92 0 -107 -2 -4
-1 -17 3 -28 4 -11 3 -30 -1 -43 -5 -13 -5 -21 0 -18 4 3 5 -12 1 -34 -4 -21
-3 -44 1 -52 5 -7 3 -16 -4 -20 -7 -4 -7 -8 -2 -8 11 0 11 -101 1 -119 -4 -6
-4 -11 1 -11 10 0 9 -52 -1 -68 -3 -6 -3 -13 2 -16 4 -2 7 -24 5 -48 -2 -34
-9 -48 -34 -70 -17 -15 -35 -25 -40 -22 -5 3 -9 2 -9 -3 0 -4 -21 -21 -48 -38
-26 -16 -49 -32 -52 -36 -4 -5 -182 -125 -224 -151 -32 -19 -92 -53 -96 -54
-3 0 -27 -11 -55 -24 -27 -13 -54 -24 -60 -26 -5 -1 -37 -12 -70 -24 -33 -11
-61 -20 -63 -20 -1 1 -15 -1 -30 -5 -82 -17 -272 -24 -367 -12 -199 24 -359
95 -550 241 -54 42 -154 142 -190 191 -17 22 -32 42 -36 45 -21 19 -109 185
-109 207 0 7 -4 13 -8 13 -8 0 -37 87 -47 138 -2 12 -6 25 -8 30 -5 7 -16 78
-23 147 -9 81 -9 2625 0 2625 5 0 3 6 -3 13 -6 8 -8 16 -5 19 3 3 7 25 9 49 8
73 9 84 31 172 1 4 3 9 4 12 1 3 3 8 4 13 12 52 92 232 109 243 5 3 8 10 6 14
-4 13 128 178 188 235 88 83 258 198 338 229 52 20 88 32 92 32 2 0 22 7 45
15 24 8 57 17 73 19 75 10 120 16 122 19 5 5 211 -1 262 -8z m2249 -1378 c158
-106 289 -196 290 -200 2 -4 10 -8 18 -8 8 0 14 -4 14 -10 0 -5 4 -10 9 -10 5
0 64 -37 131 -82 67 -46 129 -88 138 -93 24 -15 195 -128 207 -138 8 -6 261
-175 359 -240 10 -6 29 -20 41 -29 13 -10 28 -18 34 -18 6 0 11 -3 11 -7 1 -5
45 -37 99 -73 97 -63 111 -82 70 -95 -10 -4 -25 -12 -31 -18 -7 -7 -51 -37
-98 -67 -47 -30 -87 -57 -90 -60 -3 -3 -72 -50 -155 -105 -82 -55 -151 -103
-153 -107 -2 -4 -10 -8 -18 -8 -8 0 -14 -4 -14 -9 0 -5 -8 -11 -17 -15 -18 -5
-53 -26 -63 -36 -12 -13 -78 -57 -102 -69 -16 -8 -28 -18 -28 -23 0 -4 -4 -8
-10 -8 -10 0 -92 -55 -124 -82 -11 -10 -25 -18 -32 -18 -7 0 -14 -3 -16 -7 -4
-11 -667 -453 -679 -453 -5 0 -9 -4 -9 -8 0 -11 -60 -45 -67 -38 -4 4 -6 350
-3 671 1 6 0 111 0 235 0 124 0 232 0 240 0 8 0 188 0 400 0 212 0 392 1 400
0 8 -1 69 -2 135 -1 66 0 125 1 130 1 6 2 12 1 15 -3 8 -6 100 -3 100 1 0 131
-86 290 -192z m2562 -1717 c30 -20 57 -38 60 -41 3 -4 23 -17 45 -30 22 -13
42 -26 45 -29 8 -10 130 -91 136 -91 5 0 20 -12 49 -38 8 -7 15 -10 15 -5 0 4
4 3 8 -2 4 -6 41 -32 82 -60 41 -27 77 -53 78 -57 2 -4 8 -8 12 -8 22 0 259
-173 325 -236 72 -70 207 -244 189 -244 -3 0 3 -12 14 -27 19 -28 36 -67 30
-69 -2 0 2 -7 9 -15 6 -8 23 -48 36 -89 38 -115 44 -148 51 -257 3 -34 7 -67
11 -73 3 -5 1 -10 -5 -10 -7 0 -8 -6 -1 -19 6 -10 8 -21 4 -24 -3 -4 -7 -30
-8 -59 -9 -173 -79 -372 -185 -528 -59 -87 -141 -176 -210 -230 -25 -19 -47
-37 -50 -41 -3 -3 -25 -19 -50 -34 -25 -15 -47 -31 -50 -35 -3 -3 -23 -17 -45
-30 -22 -13 -42 -26 -45 -29 -7 -8 -100 -71 -104 -71 -2 0 -64 -41 -137 -91
-74 -50 -141 -94 -149 -97 -8 -3 -26 -16 -40 -29 -14 -13 -30 -23 -37 -23 -6
0 -13 -3 -15 -7 -3 -8 -204 -145 -223 -152 -5 -2 -12 -7 -15 -11 -9 -12 -220
-150 -229 -150 -5 0 -11 -4 -13 -8 -3 -7 -206 -148 -256 -177 -45 -26 -177
-119 -180 -127 -2 -4 -8 -8 -13 -8 -5 0 -85 -51 -178 -114 -93 -62 -181 -121
-197 -129 -95 -50 -190 -90 -246 -103 -10 -2 -26 -6 -35 -8 -82 -20 -108 -24
-114 -20 -4 2 -10 1 -13 -4 -7 -12 -351 -4 -351 8 0 1 -11 3 -25 4 -14 2 -35
8 -48 15 -12 6 -22 10 -22 7 0 -2 -27 4 -59 15 -87 26 -265 119 -291 150 -3 3
-16 12 -29 19 -14 7 -30 17 -35 21 -6 5 -45 31 -86 59 -41 27 -79 53 -85 57
-5 5 -35 24 -65 43 -30 19 -59 38 -65 43 -29 23 -249 167 -256 167 -4 0 -9 3
-11 8 -5 10 -66 52 -77 52 -5 0 -11 3 -13 8 -5 11 -66 52 -78 52 -5 0 -10 4
-10 8 0 5 -12 15 -27 23 -16 8 -30 17 -33 20 -3 3 -45 32 -95 65 -526 349
-578 386 -559 397 10 7 21 12 24 12 14 1 170 98 293 182 76 51 142 93 147 93
5 0 10 3 12 8 2 4 57 43 123 87 66 44 122 83 123 87 2 5 7 8 11 8 5 0 95 59
202 130 351 236 372 250 381 250 4 0 8 5 8 10 0 6 6 10 14 10 8 0 16 3 18 8 2
4 111 79 242 167 132 88 244 165 250 171 6 6 16 12 21 14 13 4 88 51 95 59 5
6 112 78 142 96 10 5 52 34 93 63 42 28 80 52 85 52 4 0 10 3 12 8 2 4 30 25
63 47 33 22 62 42 65 46 3 3 10 8 15 10 12 5 278 181 285 189 3 4 40 28 83 55
42 27 77 52 77 57 0 4 5 8 10 8 6 0 92 55 191 123 100 67 189 127 198 132 53
32 197 130 199 137 2 4 8 8 12 8 8 0 227 145 256 168 5 5 21 15 35 22 13 7 26
16 29 20 17 23 46 28 70 13 14 -9 50 -33 80 -52z"/>
</g>
</svg>
