<?xml version="1.0" standalone="no"?>
<!DOCTYPE svg PUBLIC "-//W3C//DTD SVG 20010904//EN"
 "http://www.w3.org/TR/2001/REC-SVG-20010904/DTD/svg10.dtd">
<svg version="1.0" xmlns="http://www.w3.org/2000/svg"
 width="1128.000000pt" height="1128.000000pt" viewBox="0 0 1128.000000 1128.000000"
 preserveAspectRatio="xMidYMid meet">
<metadata>
Created by potrace 1.11, written by Peter Selinger 2001-2013
</metadata>
<g transform="translate(0.000000,1128.000000) scale(0.100000,-0.100000)"
fill="#000000" stroke="none">
<path d="M6139 11276 c-2 -2 -35 -6 -74 -10 -38 -3 -82 -8 -96 -11 -14 -3 -41
-7 -60 -9 -19 -3 -36 -6 -39 -7 -3 -1 -9 -3 -15 -4 -42 -7 -132 -28 -140 -33
-5 -3 -16 -7 -25 -8 -8 -1 -49 -13 -90 -27 -216 -72 -367 -148 -603 -306 -71
-47 -136 -90 -145 -96 -9 -5 -25 -18 -36 -27 -11 -10 -26 -18 -33 -18 -7 0
-13 -4 -13 -8 0 -5 -12 -15 -27 -23 -16 -8 -36 -21 -46 -30 -9 -9 -30 -22 -45
-30 -15 -8 -32 -18 -38 -24 -6 -5 -20 -16 -30 -22 -11 -7 -59 -40 -108 -73
-48 -33 -92 -60 -96 -60 -5 0 -10 -4 -12 -8 -1 -4 -37 -30 -78 -57 -41 -27
-77 -51 -80 -55 -3 -3 -13 -9 -22 -15 -10 -5 -90 -59 -178 -120 -89 -60 -169
-115 -178 -120 -28 -17 -137 -89 -142 -95 -3 -3 -66 -46 -140 -95 -74 -49
-137 -92 -140 -95 -9 -10 -86 -59 -127 -81 -13 -7 -23 -16 -23 -21 0 -4 -6 -8
-14 -8 -8 0 -16 -4 -18 -8 -1 -4 -37 -30 -78 -57 -41 -27 -77 -51 -80 -55 -3
-3 -13 -9 -22 -15 -49 -28 -283 -190 -286 -197 -2 -4 -7 -8 -12 -8 -8 0 -139
-86 -166 -108 -5 -5 -21 -15 -35 -22 -13 -7 -26 -16 -29 -19 -3 -3 -54 -39
-115 -79 -60 -39 -123 -82 -139 -95 -16 -12 -31 -20 -33 -17 -3 3 -9 -3 -14
-12 -6 -10 -14 -18 -19 -18 -4 0 -44 -24 -87 -53 -65 -45 -153 -100 -268 -170
-10 -7 -24 -16 -31 -22 -6 -5 -24 -19 -40 -30 -25 -18 -48 -36 -114 -90 -45
-37 -235 -229 -270 -275 -19 -24 -42 -51 -50 -60 -26 -28 -100 -139 -100 -150
0 -5 -4 -10 -8 -10 -12 0 -151 -262 -189 -355 -39 -96 -100 -294 -108 -350 -3
-16 -9 -50 -15 -75 -34 -153 -35 -215 -35 -1705 0 -1449 2 -1544 32 -1670 6
-24 19 -86 28 -134 20 -102 109 -336 177 -466 17 -33 41 -78 52 -100 12 -22
23 -42 26 -45 3 -3 25 -36 50 -74 24 -38 49 -74 55 -80 5 -6 30 -38 54 -71 50
-67 286 -304 350 -350 22 -16 51 -38 63 -49 13 -10 55 -39 93 -65 96 -63 108
-70 125 -78 8 -4 70 -44 138 -90 68 -46 127 -83 132 -83 4 0 10 -4 12 -8 1 -5
66 -51 143 -102 77 -51 142 -96 145 -99 3 -3 17 -12 33 -20 15 -8 27 -18 27
-23 0 -4 5 -8 11 -8 6 0 25 -11 43 -25 18 -14 36 -25 40 -25 4 0 19 -11 34
-25 15 -14 30 -25 34 -25 5 0 39 -23 78 -50 39 -28 74 -50 79 -50 5 0 11 -3
13 -7 5 -12 66 -53 78 -53 5 0 10 -4 10 -8 0 -5 12 -15 28 -23 15 -8 29 -17
32 -20 3 -3 61 -43 130 -89 69 -46 127 -87 128 -92 2 -4 8 -8 14 -8 11 0 131
-81 136 -92 2 -5 8 -8 12 -8 5 0 35 -18 67 -40 32 -22 66 -46 77 -53 10 -6 29
-20 41 -30 13 -9 28 -17 33 -17 6 0 12 -4 14 -8 2 -5 107 -77 233 -162 127
-84 232 -157 233 -162 2 -4 10 -8 18 -8 8 0 14 -4 14 -9 0 -5 8 -11 18 -15 18
-6 53 -27 62 -37 12 -14 383 -259 391 -259 6 0 7 -4 4 -10 -3 -5 -1 -10 6 -10
14 0 162 -99 167 -112 2 -4 8 -8 13 -8 5 0 62 -36 128 -80 65 -44 124 -80 130
-80 6 0 11 -4 11 -10 0 -5 4 -10 9 -10 5 0 37 -16 70 -35 34 -19 62 -34 64
-33 1 0 25 -9 52 -22 89 -40 109 -48 169 -69 112 -41 267 -82 366 -97 19 -3
60 -10 90 -16 73 -14 435 -19 530 -8 112 14 145 18 145 20 0 1 14 4 30 6 45 8
70 12 70 14 0 1 10 3 23 6 36 6 204 53 227 63 59 25 201 82 210 84 6 1 12 4
15 7 3 4 31 18 62 33 67 31 257 147 309 188 20 16 41 29 46 29 5 0 18 8 29 18
10 9 44 33 74 52 30 19 57 37 60 40 6 6 233 160 258 175 43 25 147 99 150 107
2 4 7 8 11 8 7 0 258 165 286 187 23 19 161 109 178 115 9 4 17 12 17 18 0 5
5 10 11 10 9 0 94 54 109 70 13 13 192 130 200 130 4 0 10 4 12 8 3 7 122 91
166 117 9 6 20 15 24 20 5 7 8 7 8 0 0 -6 3 -6 8 1 8 12 137 104 146 104 6 0
36 23 61 48 8 6 16 12 20 12 4 0 13 6 20 13 7 6 36 30 64 52 110 86 341 326
349 361 2 8 7 14 12 14 25 0 260 397 260 439 0 6 4 11 9 11 5 0 11 10 14 23 3
12 24 73 46 136 23 62 43 123 46 135 2 11 13 55 23 96 10 41 19 78 20 83 2 10
11 66 17 102 30 186 25 541 -9 710 -4 17 -9 48 -12 69 -4 22 -15 69 -25 105
-11 36 -21 75 -23 86 -11 56 -96 278 -110 287 -6 4 -8 8 -4 8 9 0 -83 177
-118 230 -13 19 -24 38 -24 42 0 4 -7 16 -15 25 -8 10 -49 65 -91 122 -119
160 -294 330 -474 461 -41 30 -77 58 -78 62 -2 5 -8 6 -13 2 -5 -3 -9 -1 -9 3
0 5 -22 22 -50 38 -27 16 -50 32 -50 36 0 4 -6 9 -12 11 -16 4 -267 171 -268
178 0 4 181 130 239 165 34 21 76 50 81 55 3 3 46 32 95 65 50 33 95 64 101
70 6 5 23 19 38 30 83 60 263 234 346 335 29 36 56 67 59 70 3 3 11 13 16 22
6 9 31 47 56 85 88 130 185 307 181 331 -2 6 2 12 8 12 5 0 9 3 8 8 -1 4 6 24
14 44 9 20 26 65 38 100 21 60 24 69 30 93 1 6 6 20 11 33 5 12 11 33 14 45 2
12 9 40 14 62 11 45 19 83 27 135 3 19 7 46 10 60 14 77 19 164 19 325 0 212
-7 282 -49 490 -9 41 -37 149 -54 200 -39 120 -131 335 -144 335 -4 0 -8 6 -8
14 0 16 -14 44 -55 106 -16 25 -30 47 -30 50 0 5 -58 91 -77 115 -4 6 -27 35
-50 65 -83 107 -220 250 -318 330 -30 25 -57 47 -60 50 -24 24 -399 280 -411
280 -5 0 -9 4 -9 8 0 5 -16 17 -35 28 -19 10 -35 22 -35 26 0 3 -10 10 -22 14
-12 3 -27 12 -34 18 -6 6 -20 17 -30 23 -11 7 -45 31 -77 53 -32 22 -62 40
-68 40 -5 0 -12 6 -15 14 -3 8 -19 19 -35 25 -16 5 -29 15 -29 20 0 6 -4 11
-9 11 -6 0 -59 33 -118 73 -59 41 -146 99 -193 130 -47 31 -89 60 -95 64 -5 5
-30 21 -55 38 -25 16 -47 32 -50 35 -3 3 -43 30 -90 60 -47 30 -87 57 -90 60
-14 14 -132 90 -140 90 -6 0 -10 4 -10 8 0 5 -12 15 -27 23 -16 8 -30 17 -33
20 -3 3 -81 57 -175 119 -93 63 -173 118 -177 124 -4 6 -8 7 -8 2 0 -5 -8 -3
-17 5 -22 17 -54 36 -112 66 -24 12 -50 28 -57 34 -8 6 -14 9 -14 5 0 -3 -15
2 -32 12 -28 15 -196 84 -238 97 -3 1 -25 8 -50 15 -25 7 -47 14 -50 15 -3 1
-13 5 -22 9 -9 4 -22 5 -28 1 -5 -3 -10 -1 -10 5 0 7 -6 10 -14 7 -8 -3 -17
-3 -20 1 -4 3 -14 7 -24 8 -15 3 -78 15 -92 19 -3 0 -32 5 -65 9 -32 4 -68 10
-80 13 -25 5 -410 14 -416 9z m191 -1116 c8 5 19 6 25 2 5 -4 30 -7 55 -8 25
-1 45 -3 45 -4 0 -1 11 -3 25 -4 71 -6 203 -48 310 -101 104 -51 150 -78 150
-87 0 -5 6 -8 14 -8 8 0 16 -3 18 -7 2 -5 50 -39 108 -78 58 -38 107 -73 108
-77 2 -4 9 -8 16 -8 7 0 21 -9 31 -20 10 -11 21 -20 25 -20 11 0 234 -152 238
-162 2 -4 7 -8 12 -8 7 0 220 -139 255 -167 6 -4 30 -21 55 -38 25 -16 47 -33
48 -37 2 -5 8 -8 13 -8 8 0 124 -75 139 -90 3 -3 13 -9 22 -15 10 -5 77 -50
150 -100 73 -49 139 -91 146 -93 6 -2 12 -7 12 -11 0 -4 16 -16 35 -27 19 -10
35 -22 35 -26 0 -5 5 -8 10 -8 11 0 63 -34 88 -58 8 -7 32 -22 53 -33 21 -10
39 -24 39 -29 0 -6 5 -10 10 -10 12 0 202 -129 212 -144 4 -6 8 -7 8 -3 0 8 9
0 108 -93 34 -32 62 -61 62 -64 0 -3 11 -17 25 -32 85 -91 192 -311 220 -451
11 -53 18 -108 19 -145 1 -21 3 -38 6 -38 3 0 5 -29 5 -65 0 -36 -2 -65 -5
-65 -3 0 -6 -26 -8 -58 -2 -52 -7 -93 -12 -99 -2 -2 -4 -12 -5 -23 -1 -11 -3
-21 -5 -22 -1 -2 -3 -11 -5 -20 -4 -24 -36 -121 -44 -133 -3 -5 -6 -12 -6 -15
-3 -19 -57 -118 -101 -185 -73 -110 -179 -218 -289 -295 -27 -19 -53 -39 -57
-45 -5 -7 -8 -7 -8 0 0 6 -3 6 -8 -1 -4 -6 -34 -28 -67 -49 -33 -22 -62 -42
-65 -45 -10 -10 -69 -50 -75 -50 -3 0 -15 -9 -27 -20 -12 -11 -28 -20 -35 -20
-7 0 -13 -4 -13 -10 0 -5 -6 -10 -14 -10 -8 0 -16 -4 -18 -8 -1 -4 -73 -55
-158 -112 -85 -57 -180 -121 -210 -142 -30 -21 -59 -38 -64 -38 -5 0 -42 23
-82 50 -40 28 -78 50 -84 50 -5 0 -10 4 -10 8 0 4 -44 37 -97 72 -54 35 -99
67 -101 72 -2 4 -7 8 -12 8 -7 0 -314 203 -345 227 -5 5 -71 49 -145 98 -74
50 -141 96 -148 103 -7 6 -17 12 -22 12 -5 0 -15 6 -22 13 -7 7 -116 82 -243
167 -126 84 -231 157 -233 162 -2 4 -8 8 -14 8 -10 0 -122 74 -146 97 -6 6
-21 15 -32 18 -11 3 -20 11 -20 16 0 5 -6 9 -14 9 -8 0 -16 3 -18 8 -3 7 -114
83 -133 91 -5 2 -17 12 -27 21 -10 9 -31 23 -46 31 -15 8 -29 17 -32 20 -3 3
-54 39 -115 79 -60 40 -112 76 -115 79 -3 3 -17 12 -32 20 -15 8 -36 21 -46
30 -10 9 -30 23 -44 31 -14 8 -36 23 -49 32 -13 10 -42 30 -64 44 -251 167
-471 319 -473 325 -2 5 -8 9 -13 9 -8 0 -127 76 -139 90 -3 3 -17 11 -32 19
-16 8 -28 18 -28 23 0 4 -4 8 -10 8 -8 0 -98 57 -110 71 -3 3 -23 16 -45 29
-22 13 -42 27 -45 30 -3 3 -32 23 -65 45 -33 21 -61 42 -63 47 -2 4 -8 8 -13
8 -5 0 -44 24 -86 53 -89 61 -237 147 -253 147 -18 0 -10 16 15 30 14 7 25 17
25 22 0 5 4 7 9 4 5 -3 21 6 35 19 15 14 29 25 31 25 8 0 160 105 163 113 2 4
8 7 13 7 9 0 69 38 79 51 3 3 20 14 38 23 17 9 32 21 32 27 0 6 5 7 10 4 6 -3
10 -1 10 4 0 6 6 11 14 11 8 0 16 4 18 8 2 5 30 26 63 47 33 22 62 42 65 46 3
3 10 8 15 10 16 6 259 171 273 186 7 7 20 13 28 13 8 0 14 3 14 8 0 4 21 20
48 37 26 16 49 32 52 35 3 3 13 10 22 15 24 14 357 239 441 297 37 27 67 45
67 40 0 -4 4 -2 8 4 20 31 255 132 347 148 17 3 40 8 52 10 12 3 52 7 90 11
37 3 69 8 71 10 2 2 14 0 26 -5 13 -4 29 -4 36 0z m-3075 -2145 c33 -3 96 -16
140 -27 158 -41 230 -80 573 -312 156 -105 290 -195 300 -201 9 -5 40 -27 69
-47 29 -21 56 -38 62 -38 5 0 11 -4 13 -8 2 -4 37 -30 78 -58 201 -133 325
-219 328 -226 2 -5 10 -8 18 -8 8 0 14 -4 14 -10 0 -5 4 -10 9 -10 9 0 219
-137 231 -150 3 -4 39 -28 80 -55 41 -27 78 -54 82 -60 4 -5 8 -6 8 -2 0 5 17
-5 38 -21 20 -16 100 -71 177 -122 77 -51 142 -97 143 -102 2 -4 8 -8 12 -8
11 0 164 -102 168 -112 2 -5 8 -8 12 -8 5 0 54 -31 109 -70 55 -38 105 -70
110 -70 5 0 11 -4 13 -8 4 -11 94 -72 106 -72 6 0 12 -4 14 -8 4 -11 228 -163
228 -155 0 4 6 0 13 -8 6 -9 59 -47 117 -85 57 -38 109 -73 115 -77 41 -32
248 -167 256 -167 5 0 9 -3 9 -8 0 -4 18 -18 40 -32 22 -14 40 -27 40 -30 0
-4 -231 -161 -287 -195 -10 -5 -28 -20 -42 -32 -14 -13 -31 -23 -38 -23 -7 0
-13 -5 -13 -12 0 -6 -3 -9 -6 -5 -6 5 -15 0 -49 -30 -7 -7 -17 -13 -20 -13 -4
0 -24 -13 -45 -30 -21 -16 -42 -30 -48 -30 -6 0 -12 -3 -14 -8 -2 -6 -248
-174 -378 -259 -19 -12 -40 -26 -45 -30 -40 -31 -137 -93 -145 -93 -6 0 -10
-3 -10 -7 0 -5 -21 -21 -48 -37 -26 -17 -64 -43 -84 -59 -21 -16 -38 -26 -38
-23 0 3 -12 -6 -26 -19 -15 -14 -30 -22 -34 -20 -5 3 -10 1 -12 -3 -1 -5 -39
-33 -83 -63 -44 -29 -81 -57 -83 -61 -2 -5 -7 -8 -12 -8 -7 0 -158 -97 -170
-110 -3 -3 -57 -39 -120 -80 -63 -41 -123 -82 -133 -91 -9 -9 -30 -22 -45 -30
-14 -8 -37 -22 -49 -33 -12 -10 -31 -24 -42 -30 -43 -24 -256 -170 -259 -178
-2 -4 -8 -8 -12 -8 -5 0 -37 -19 -72 -43 -35 -24 -139 -94 -233 -157 -93 -62
-180 -123 -192 -134 -13 -11 -23 -16 -23 -12 0 4 -7 1 -15 -6 -9 -7 -21 -17
-28 -23 -30 -25 -366 -244 -402 -262 -259 -132 -547 -159 -823 -77 -76 23
-210 79 -222 94 -3 3 -41 31 -85 61 -71 48 -211 177 -256 235 -44 56 -104 155
-131 214 -32 69 -80 200 -73 200 3 0 0 11 -5 24 -11 31 -22 96 -26 166 -1 30
-4 57 -5 60 -1 3 0 10 1 15 6 26 5 65 0 65 -6 0 -5 36 0 50 1 3 1 10 0 15 -5
26 -3 92 3 102 4 6 4 14 -1 17 -8 5 -7 79 2 103 3 7 2 13 -2 13 -9 0 -7 83 2
99 4 6 3 11 -3 11 -6 0 -6 11 -1 30 5 17 5 30 1 30 -9 0 -6 48 2 57 3 2 2 17
-3 31 -4 15 -3 37 1 50 5 12 5 22 0 22 -9 0 -8 31 3 48 4 6 3 12 -1 12 -9 0
-8 74 2 90 3 6 2 10 -3 10 -10 0 -9 30 2 48 4 6 3 12 -1 12 -9 0 -8 74 2 90 3
6 2 10 -3 10 -10 0 -9 30 2 48 4 6 3 12 -1 12 -10 0 -8 104 3 121 4 7 3 10 -2
6 -5 -3 -9 10 -9 28 0 18 3 31 7 28 5 -2 4 6 0 19 -9 27 -8 90 2 106 4 7 4 12
-1 12 -7 0 -9 105 -3 135 1 6 1 12 0 15 -4 12 -4 140 0 140 3 0 6 9 6 20 0 11
-3 20 -6 20 -8 0 -5 68 3 76 3 4 3 12 0 17 -9 15 -10 118 0 124 4 2 4 10 0 16
-10 16 -10 87 1 87 5 0 4 6 -1 13 -11 15 -10 97 1 116 5 7 5 16 0 20 -12 8
-14 81 -3 81 6 0 6 8 1 18 -4 9 -6 62 -5 117 2 55 3 107 3 115 0 65 6 155 10
155 1 0 3 16 5 35 11 99 99 318 169 420 45 66 125 159 175 205 52 48 227 175
240 175 6 0 14 6 18 14 4 8 12 15 16 15 4 -1 40 12 80 27 40 16 79 30 87 31
27 6 45 11 45 13 0 6 165 31 173 26 5 -3 13 -1 20 3 13 8 127 6 217 -4z m4809
-3102 c39 -26 73 -51 74 -55 2 -4 9 -8 16 -8 7 0 21 -9 31 -20 10 -11 22 -20
26 -20 10 0 173 -112 177 -122 2 -4 7 -8 12 -8 7 0 128 -80 375 -247 28 -19
65 -46 84 -61 46 -37 191 -183 191 -193 0 -4 6 -14 14 -22 23 -23 90 -137 118
-202 53 -123 83 -232 91 -335 2 -19 6 -41 11 -48 4 -6 3 -12 -3 -12 -6 0 -6
-11 -1 -30 6 -20 5 -30 -2 -30 -7 0 -7 -4 1 -13 6 -8 8 -17 5 -20 -4 -3 -8
-34 -10 -69 -2 -35 -6 -74 -9 -88 -3 -14 -8 -38 -11 -55 -8 -43 -12 -60 -14
-62 -2 -2 -3 -6 -5 -10 -1 -5 -5 -21 -10 -38 -4 -16 -27 -72 -51 -123 -89
-192 -218 -341 -403 -464 -31 -21 -60 -41 -66 -46 -14 -11 -213 -145 -233
-157 -9 -5 -33 -22 -53 -38 -20 -15 -41 -27 -45 -27 -5 -1 -25 -14 -44 -30
-19 -17 -40 -30 -46 -30 -7 0 -14 -3 -16 -7 -1 -5 -30 -26 -63 -48 -33 -22
-62 -43 -65 -46 -3 -3 -15 -11 -27 -17 -11 -7 -80 -52 -152 -102 -72 -49 -136
-90 -141 -90 -6 0 -10 -4 -10 -10 0 -5 -7 -10 -15 -10 -8 0 -15 -4 -15 -8 0
-4 -15 -16 -32 -26 -18 -11 -43 -28 -55 -39 -13 -11 -23 -17 -23 -13 0 4 -7 1
-15 -6 -9 -7 -21 -17 -28 -23 -7 -5 -53 -37 -102 -70 -50 -33 -91 -63 -93 -67
-2 -5 -8 -8 -13 -8 -11 0 -223 -142 -227 -152 -2 -5 -10 -8 -18 -8 -8 0 -14
-4 -14 -10 0 -5 -4 -10 -10 -10 -8 0 -96 -56 -110 -70 -5 -5 -150 -99 -195
-127 -51 -31 -176 -84 -235 -99 -70 -18 -109 -26 -130 -29 -31 -5 -181 -17
-195 -16 -203 11 -349 50 -505 132 -66 36 -74 40 -241 154 -73 50 -139 95
-148 100 -9 6 -49 33 -89 60 -40 28 -81 55 -90 60 -9 6 -19 12 -22 15 -3 3
-102 70 -220 149 -118 80 -243 164 -278 188 -35 24 -67 43 -73 43 -5 0 -9 4
-9 8 0 4 -15 16 -32 27 -18 10 -35 21 -38 24 -3 3 -13 11 -22 16 -26 15 -342
228 -348 235 -3 3 -17 11 -32 19 l-28 14 33 22 c17 11 53 32 80 45 26 14 47
28 47 32 0 5 5 8 11 8 6 0 47 25 91 55 44 30 83 55 87 55 4 0 16 8 27 18 10 9
66 49 124 87 58 39 107 73 108 78 2 4 8 7 13 7 9 0 65 36 79 50 3 3 66 45 140
95 74 49 137 93 138 97 2 5 8 8 13 8 7 0 95 56 109 70 3 3 59 41 125 85 66 44
122 83 123 88 2 4 8 7 13 7 9 0 93 56 123 83 11 9 26 17 33 17 7 0 13 5 13 10
0 6 6 10 13 10 7 0 24 11 39 25 15 14 30 25 33 25 9 0 129 84 133 93 2 4 10 7
18 7 8 0 14 5 14 10 0 6 4 10 10 10 8 0 97 57 110 70 3 3 93 64 200 135 107
72 197 133 200 136 3 3 45 32 95 65 49 32 94 63 100 67 36 28 219 147 226 147
5 0 9 3 9 8 0 4 23 21 50 37 27 17 50 33 50 38 0 4 7 7 15 7 8 0 15 3 15 8 0
4 17 16 37 27 20 11 41 25 47 30 10 9 307 211 360 245 66 42 353 236 366 247
26 23 195 133 204 133 6 0 42 -21 80 -47z"/>
</g>
</svg>
