<svg width="565" height="360" viewBox="0 0 565 360" fill="none" xmlns="http://www.w3.org/2000/svg">
<g filter="url(#filter0_d_4113_24)">
<path d="M533 56C533 38.6031 519.117 24.449 501.826 24.0107L501 24H64C46.613 24 32.4626 37.8687 32.0107 55.1436L32 56V288C32 305.673 46.3269 320 64 320H501L501.826 319.989C519.117 319.551 533 305.397 533 288V56ZM541 288C541 310.091 523.091 328 501 328V336L501.62 335.996C527.638 335.667 548.667 314.638 548.996 288.62L549 288V56C549 29.6973 527.844 8.33593 501.62 8.00391L501 8H64L63.3799 8.00391C37.156 8.33593 16 29.6973 16 56V288C16 288.207 16.0013 288.414 16.0039 288.62C16.3333 314.638 37.3624 335.667 63.3799 335.996L64 336H501V328H64C41.9086 328 24 310.091 24 288V56L24.0127 54.9678C24.5602 33.3534 42.2537 16 64 16H501C523.091 16 541 33.9086 541 56V288ZM557 288.051L556.996 288.671V288.696L556.995 288.722C556.611 319.078 532.078 343.611 501.722 343.995L501.696 343.996H501.671L501.051 344H63.9492L63.3291 343.996H63.3037L63.2783 343.995C32.922 343.611 8.38937 319.078 8.00488 288.722L8.00391 288.696V288.671L8 288.051V56C8 25.3131 32.6817 0.392419 63.2783 0.00488281L63.3037 0.00390625H63.3291L63.9492 0H501.051L501.671 0.00390625H501.696L501.722 0.00488281C532.318 0.392423 557 25.3131 557 56V288.051Z" fill="#F8F9FA"/>
<path d="M16 56C16 29.4903 37.4903 8 64 8H501C527.51 8 549 29.4903 549 56V288C549 314.51 527.51 336 501 336H64C37.4903 336 16 314.51 16 288V56Z" fill="#2F3642"/>
<path d="M501 328V336H64V328H501ZM541 288V56C541 33.9086 523.091 16 501 16H64C42.2537 16 24.5602 33.3534 24.0127 54.9678L24 56V288C24 310.091 41.9086 328 64 328V336L63.3799 335.996C37.3624 335.667 16.3333 314.638 16.0039 288.62L16 288V56C16 29.6973 37.156 8.33593 63.3799 8.00391L64 8H501L501.62 8.00391C527.844 8.33593 549 29.6973 549 56V288L548.996 288.62C548.667 314.638 527.638 335.667 501.62 335.996L501 336V328C523.091 328 541 310.091 541 288Z" fill="#0B131E"/>
<path d="M49 74.5C49 64.835 56.835 57 66.5 57H169.5C179.165 57 187 64.835 187 74.5V74.5C187 84.165 179.165 92 169.5 92H66.5C56.835 92 49 84.165 49 74.5V74.5Z" fill="#828BE2"/>
<path d="M169.5 87V92H66.5V87H169.5ZM182 74.5C182 67.5964 176.404 62 169.5 62H66.5C59.5964 62 54 67.5964 54 74.5C54 81.4036 59.5964 87 66.5 87V92L66.0479 91.9941C56.5918 91.7543 49 84.0138 49 74.5C49 64.9862 56.5918 57.2457 66.0479 57.0059L66.5 57H169.5L169.952 57.0059C179.408 57.2457 187 64.9862 187 74.5C187 84.0138 179.408 91.7543 169.952 91.9941L169.5 92V87C176.404 87 182 81.4036 182 74.5Z" fill="#F8F9FA"/>
<path d="M204 74.5C204 64.835 211.835 57 221.5 57H373.5C383.165 57 391 64.835 391 74.5V74.5C391 84.165 383.165 92 373.5 92H221.5C211.835 92 204 84.165 204 74.5V74.5Z" fill="#1C756A"/>
<path d="M373.5 87V92H221.5V87H373.5ZM386 74.5C386 67.5964 380.404 62 373.5 62H221.5C214.596 62 209 67.5964 209 74.5C209 81.4036 214.596 87 221.5 87V92L221.048 91.9941C211.592 91.7543 204 84.0138 204 74.5C204 64.9862 211.592 57.2457 221.048 57.0059L221.5 57H373.5L373.952 57.0059C383.408 57.2457 391 64.9862 391 74.5C391 84.0138 383.408 91.7543 373.952 91.9941L373.5 92V87C380.404 87 386 81.4036 386 74.5Z" fill="#F8F9FA"/>
<path d="M409 74.5C409 64.835 416.835 57 426.5 57H474.5C484.165 57 492 64.835 492 74.5V74.5C492 84.165 484.165 92 474.5 92H426.5C416.835 92 409 84.165 409 74.5V74.5Z" fill="#828BE2"/>
<path d="M474.5 87V92H426.5V87H474.5ZM487 74.5C487 67.5964 481.404 62 474.5 62H426.5C419.596 62 414 67.5964 414 74.5C414 81.4036 419.596 87 426.5 87V92L426.048 91.9941C416.592 91.7543 409 84.0138 409 74.5C409 64.9862 416.592 57.2457 426.048 57.0059L426.5 57H474.5L474.952 57.0059C484.408 57.2457 492 64.9862 492 74.5C492 84.0138 484.408 91.7543 474.952 91.9941L474.5 92V87C481.404 87 487 81.4036 487 74.5Z" fill="#F8F9FA"/>
<path d="M49 282.5C49 272.835 56.835 265 66.5 265H257.5C267.165 265 275 272.835 275 282.5V282.5C275 292.165 267.165 300 257.5 300H66.5C56.835 300 49 292.165 49 282.5V282.5Z" fill="#1C756A"/>
<path d="M257.5 295V300H66.5V295H257.5ZM270 282.5C270 275.596 264.404 270 257.5 270H66.5C59.5964 270 54 275.596 54 282.5C54 289.404 59.5964 295 66.5 295V300L66.0479 299.994C56.5918 299.754 49 292.014 49 282.5C49 272.986 56.5918 265.246 66.0479 265.006L66.5 265H257.5L257.952 265.006C267.408 265.246 275 272.986 275 282.5C275 292.014 267.408 299.754 257.952 299.994L257.5 300V295C264.404 295 270 289.404 270 282.5Z" fill="#F8F9FA"/>
<path d="M292 282.5C292 272.835 299.835 265 309.5 265H444.5C454.165 265 462 272.835 462 282.5V282.5C462 292.165 454.165 300 444.5 300H309.5C299.835 300 292 292.165 292 282.5V282.5Z" fill="#61C569"/>
<path d="M444.5 295V300H309.5V295H444.5ZM457 282.5C457 275.596 451.404 270 444.5 270H309.5C302.596 270 297 275.596 297 282.5C297 289.404 302.596 295 309.5 295V300L309.048 299.994C299.592 299.754 292 292.014 292 282.5C292 272.986 299.592 265.246 309.048 265.006L309.5 265H444.5L444.952 265.006C454.408 265.246 462 272.986 462 282.5C462 292.014 454.408 299.754 444.952 299.994L444.5 300V295C451.404 295 457 289.404 457 282.5Z" fill="#F8F9FA"/>
<path d="M96 230.5C96 220.835 103.835 213 113.5 213H208.5C218.165 213 226 220.835 226 230.5V230.5C226 240.165 218.165 248 208.5 248H113.5C103.835 248 96 240.165 96 230.5V230.5Z" fill="#828BE2"/>
<path d="M208.5 243V248H113.5V243H208.5ZM221 230.5C221 223.596 215.404 218 208.5 218H113.5C106.596 218 101 223.596 101 230.5C101 237.404 106.596 243 113.5 243V248L113.048 247.994C103.592 247.754 96 240.014 96 230.5C96 220.986 103.592 213.246 113.048 213.006L113.5 213H208.5L208.952 213.006C218.408 213.246 226 220.986 226 230.5C226 240.014 218.408 247.754 208.952 247.994L208.5 248V243C215.404 243 221 237.404 221 230.5Z" fill="#F8F9FA"/>
<path d="M243 230.5C243 220.835 250.835 213 260.5 213H355.5C365.165 213 373 220.835 373 230.5V230.5C373 240.165 365.165 248 355.5 248H260.5C250.835 248 243 240.165 243 230.5V230.5Z" fill="#828BE2"/>
<path d="M355.5 243V248H260.5V243H355.5ZM368 230.5C368 223.596 362.404 218 355.5 218H260.5C253.596 218 248 223.596 248 230.5C248 237.404 253.596 243 260.5 243V248L260.048 247.994C250.592 247.754 243 240.014 243 230.5C243 220.986 250.592 213.246 260.048 213.006L260.5 213H355.5L355.952 213.006C365.408 213.246 373 220.986 373 230.5C373 240.014 365.408 247.754 355.952 247.994L355.5 248V243C362.404 243 368 237.404 368 230.5Z" fill="#F8F9FA"/>
<path d="M134 178.5C134 168.835 141.835 161 151.5 161H317.5C327.165 161 335 168.835 335 178.5V178.5C335 188.165 327.165 196 317.5 196H151.5C141.835 196 134 188.165 134 178.5V178.5Z" fill="#61C569"/>
<path d="M317.5 191V196H151.5V191H317.5ZM330 178.5C330 171.596 324.404 166 317.5 166H151.5C144.596 166 139 171.596 139 178.5C139 185.404 144.596 191 151.5 191V196L151.048 195.994C141.592 195.754 134 188.014 134 178.5C134 168.986 141.592 161.246 151.048 161.006L151.5 161H317.5L317.952 161.006C327.408 161.246 335 168.986 335 178.5C335 188.014 327.408 195.754 317.952 195.994L317.5 196V191C324.404 191 330 185.404 330 178.5Z" fill="#F8F9FA"/>
<path d="M96 126.5C96 116.835 103.835 109 113.5 109H152.5C162.165 109 170 116.835 170 126.5V126.5C170 136.165 162.165 144 152.5 144H113.5C103.835 144 96 136.165 96 126.5V126.5Z" fill="#61C569"/>
<path d="M152.5 139V144H113.5V139H152.5ZM165 126.5C165 119.596 159.404 114 152.5 114H113.5C106.596 114 101 119.596 101 126.5C101 133.404 106.596 139 113.5 139V144L113.048 143.994C103.592 143.754 96 136.014 96 126.5C96 116.986 103.592 109.246 113.048 109.006L113.5 109H152.5L152.952 109.006C162.408 109.246 170 116.986 170 126.5C170 136.014 162.408 143.754 152.952 143.994L152.5 144V139C159.404 139 165 133.404 165 126.5Z" fill="#F8F9FA"/>
<path d="M187 126.5C187 116.835 194.835 109 204.5 109H283.5C293.165 109 301 116.835 301 126.5V126.5C301 136.165 293.165 144 283.5 144H204.5C194.835 144 187 136.165 187 126.5V126.5Z" fill="#1C756A"/>
<path d="M283.5 139V144H204.5V139H283.5ZM296 126.5C296 119.596 290.404 114 283.5 114H204.5C197.596 114 192 119.596 192 126.5C192 133.404 197.596 139 204.5 139V144L204.048 143.994C194.592 143.754 187 136.014 187 126.5C187 116.986 194.592 109.246 204.048 109.006L204.5 109H283.5L283.952 109.006C293.408 109.246 301 116.986 301 126.5C301 136.014 293.408 143.754 283.952 143.994L283.5 144V139C290.404 139 296 133.404 296 126.5Z" fill="#F8F9FA"/>
<path d="M318 126.5C318 116.835 325.835 109 335.5 109H374.5C384.165 109 392 116.835 392 126.5V126.5C392 136.165 384.165 144 374.5 144H335.5C325.835 144 318 136.165 318 126.5V126.5Z" fill="#1C756A"/>
<path d="M374.5 139V144H335.5V139H374.5ZM387 126.5C387 119.596 381.404 114 374.5 114H335.5C328.596 114 323 119.596 323 126.5C323 133.404 328.596 139 335.5 139V144L335.048 143.994C325.592 143.754 318 136.014 318 126.5C318 116.986 325.592 109.246 335.048 109.006L335.5 109H374.5L374.952 109.006C384.408 109.246 392 116.986 392 126.5C392 136.014 384.408 143.754 374.952 143.994L374.5 144V139C381.404 139 387 133.404 387 126.5Z" fill="#F8F9FA"/>
</g>
<defs>
<filter id="filter0_d_4113_24" x="0" y="0" width="565" height="360" filterUnits="userSpaceOnUse" color-interpolation-filters="sRGB">
<feFlood flood-opacity="0" result="BackgroundImageFix"/>
<feColorMatrix in="SourceAlpha" type="matrix" values="0 0 0 0 0 0 0 0 0 0 0 0 0 0 0 0 0 0 127 0" result="hardAlpha"/>
<feOffset dy="8"/>
<feGaussianBlur stdDeviation="4"/>
<feComposite in2="hardAlpha" operator="out"/>
<feColorMatrix type="matrix" values="0 0 0 0 0 0 0 0 0 0 0 0 0 0 0 0 0 0 0.25 0"/>
<feBlend mode="normal" in2="BackgroundImageFix" result="effect1_dropShadow_4113_24"/>
<feBlend mode="normal" in="SourceGraphic" in2="effect1_dropShadow_4113_24" result="shape"/>
</filter>
</defs>
</svg>
