<svg width="280" height="380" viewBox="0 0 280 380" fill="none" xmlns="http://www.w3.org/2000/svg">
<g filter="url(#filter0_d_4026_4)">
<path d="M245.042 235C256.046 235 264.708 244.306 264.002 255.215L263.962 255.735L254.879 354.735C253.982 364.515 245.78 372 235.959 372H43.0835C33.4161 372 25.3169 364.748 24.2105 355.192L24.1626 354.735L15.0806 255.735C14.0596 244.603 22.8228 235 34.0015 235V242L33.6714 242.005C26.7693 242.19 21.4163 248.176 22.0513 255.097L31.1333 354.097C31.6824 360.08 36.5619 364.703 42.5054 364.986L43.0835 365H235.959L236.538 364.986C242.289 364.712 247.044 360.374 247.842 354.671L247.909 354.097L256.992 255.097C257.627 248.176 252.273 242.19 245.372 242.005L245.042 242V235ZM142.884 0.142576C147.305 -0.00973824 152.84 -0.083794 158.437 0.149412L159.678 0.208005C165.907 0.541432 172.442 1.42306 177.393 2.20801H177.394L179.322 2.52148C181.168 2.82896 182.757 3.1142 183.975 3.34179L185.889 3.70996L186.417 3.81543L186.48 3.82812C186.498 3.83172 186.532 3.83831 186.563 3.84472L186.595 3.85254C186.602 3.8539 186.61 3.85466 186.619 3.85644C186.616 3.85579 186.612 3.85611 186.609 3.85547C186.612 3.85609 186.615 3.8568 186.618 3.85742H186.623L186.666 3.86719C186.664 3.86678 186.662 3.86663 186.66 3.86621C186.666 3.86761 186.672 3.86881 186.678 3.87011C186.77 3.88984 186.861 3.91125 186.952 3.93457L187.16 3.98242L208.16 9.48242L208.161 9.4834L208.524 9.58496C212.125 10.6677 214.87 13.5965 215.723 17.252L215.802 17.6201V17.6211L215.869 17.9912C216.033 19.0242 216.037 20.06 215.899 21.0684L222.931 24.8701L240.9 34.3545L241.216 34.5293C244.349 36.3224 246.341 39.6011 246.49 43.207L246.499 43.5684V43.5693L246.495 43.9307C246.445 45.7207 245.94 47.4368 245.064 48.9365L247.449 52.2627L247.564 52.4277L247.677 52.5957L247.789 52.7666L248.466 53.8633C251.795 59.3808 254.222 65.3971 255.654 71.6855V71.6865L258.275 83.2041L258.312 83.3779L258.349 83.5625L258.397 83.8203L258.531 84.6445L258.54 84.7031C259.256 89.3653 259.369 94.0306 259.388 98.1221V98.165L259.387 98.8027C259.387 98.8187 259.387 98.8356 259.387 98.8516C259.361 102.034 259.065 105.176 258.543 108.247L258.306 109.56L253.341 135.454C253.01 137.523 252.597 139.594 252.142 141.646C253.472 142.992 254.406 144.871 254.406 147.376V147.641C264.103 152.962 269.254 163.882 266.499 174.625L266.361 175.142L256.541 210.167C254.228 218.413 247.67 224.706 239.482 227.152L238.684 227.377L231.495 229.282C230.73 231.21 229.906 233.117 229.021 235H245.042V242H217.243C220.95 236.072 223.969 229.815 226.252 223.328C226.634 223.291 227.02 223.227 227.408 223.124L236.892 220.61C243.218 218.934 248.128 214.244 249.8 208.277L259.621 173.251C261.761 165.615 258.163 157.582 250.852 153.676L247.406 151.834V147.376C247.406 146.541 246.551 145.864 245.497 145.864H243.933C244.923 141.959 245.841 138.066 246.449 134.229L251.431 108.241C252.025 105.14 252.361 101.978 252.387 98.792L252.388 98.1543C252.37 94.1286 252.254 89.8917 251.621 85.7656L251.487 84.9414L251.45 84.7568L248.829 73.2393C247.478 67.3078 245.126 61.6494 241.874 56.5088L241.76 56.3408L235.649 47.8174L237.675 46.7129C238.807 46.0955 239.507 44.9054 239.499 43.6162C239.49 42.327 238.773 41.1467 237.632 40.5449L219.664 31.0605L205.972 23.6592L207.599 22.4404C208.673 21.6346 209.191 20.2847 208.933 18.9668C208.674 17.6491 207.685 16.5943 206.386 16.2539L185.386 10.7539C185.328 10.7386 185.267 10.7252 185.208 10.7129L185.207 10.7119C185.206 10.7118 185.205 10.7121 185.204 10.7119C185.201 10.7114 185.198 10.7108 185.194 10.71C185.186 10.7083 185.174 10.7052 185.159 10.7021C185.129 10.696 185.085 10.6873 185.028 10.6758C184.914 10.6527 184.747 10.6187 184.532 10.5762C184.101 10.491 183.475 10.3696 182.689 10.2227C181.117 9.9289 178.897 9.53325 176.297 9.12109C171.12 8.3003 164.342 7.40081 158.145 7.14258C152.013 6.88708 145.907 7.01531 141.353 7.20508C139.071 7.30015 137.168 7.41157 135.833 7.49902C135.165 7.54275 134.638 7.58029 134.276 7.60742C134.095 7.62097 133.955 7.63207 133.86 7.63965C133.812 7.6434 133.776 7.64637 133.75 7.64844C133.738 7.64947 133.727 7.65079 133.72 7.65136C133.717 7.65161 133.714 7.65121 133.712 7.65136L133.711 7.65234C133.71 7.65245 133.708 7.65216 133.706 7.65234C133.699 7.65291 133.688 7.6542 133.675 7.65527C133.649 7.65744 133.609 7.65988 133.559 7.66406C133.458 7.67246 133.31 7.68506 133.121 7.70117C132.742 7.73343 132.199 7.78058 131.536 7.84082C130.21 7.96121 128.4 8.1344 126.465 8.34375C122.99 8.71985 118.677 9.25518 116.265 9.88379L115.809 10.0107C113.144 10.8063 109.576 12.1183 106.139 13.6494C102.785 15.144 99.2871 16.965 96.8833 18.8516L86.3745 26.8232L84.7661 21.584C84.3746 20.3093 83.2917 19.367 81.9751 19.1553C80.741 18.957 79.501 19.4324 78.7153 20.3887L78.5649 20.5869L62.3687 43.4307C58.2785 49.1999 56.0584 56.0831 56.0015 63.1504C44.2761 67.32 35.6577 77.4343 33.4077 89.6611L33.3042 90.25L32.521 94.959C31.8176 99.1872 31.7523 103.498 32.3276 107.745L37.4917 145.864H36.9692C35.9151 145.864 35.0601 146.541 35.0601 147.376V150.255C34.8656 150.333 34.6733 150.421 34.4839 150.519L28.648 153.52C21.2704 157.314 17.5345 165.292 19.5435 172.96L28.7573 208.131C30.3271 214.122 35.1559 218.886 41.4517 220.658L50.8911 223.315C51.3979 223.458 51.9028 223.538 52.3989 223.569C54.9343 229.962 58.1151 236.133 61.9028 242H34.0015V235H49.854C48.9599 233.214 48.1163 231.407 47.3208 229.582L39.5552 227.396C31.2988 225.073 24.6541 218.863 22.2095 210.7L21.9858 209.904L12.772 174.734C9.8769 163.684 15.3478 152.489 25.4458 147.295L28.1782 145.889C28.4292 144.348 29.0668 143.094 29.9165 142.094L25.3911 108.686C24.7218 103.744 24.7974 98.7294 25.6157 93.8105L26.3989 89.1016L26.4097 89.0381L26.5132 88.4492L26.523 88.3945C28.9392 75.2635 37.4674 64.1666 49.3071 58.3838C50.1404 51.565 52.6546 45.0306 56.6587 39.3828L72.855 16.5391L72.9878 16.3564L73.1382 16.1582L73.3062 15.9463L73.5317 15.6807C75.8977 12.9874 79.4991 11.668 83.0855 12.2441H83.0864L83.4546 12.3105C85.7945 12.7724 87.8668 14.0074 89.3765 15.7598L92.6528 13.2754C95.7415 10.8732 99.8312 8.79717 103.291 7.25586L104.677 6.65136C107.923 5.26788 111.197 4.08266 113.807 3.30371L113.932 3.26758L114.388 3.14062L114.5 3.11035L115.084 2.96582C118.106 2.25544 122.568 1.72497 125.712 1.38476L128.544 1.09277C129.425 1.00627 130.226 0.931566 130.903 0.870115L132.526 0.72656L132.98 0.688474L133.049 0.683591C133.068 0.681831 133.093 0.680148 133.122 0.677732C133.126 0.677371 133.13 0.676132 133.134 0.675779H133.149C133.16 0.674841 133.171 0.672838 133.183 0.671873L133.306 0.662107L133.752 0.627927L135.375 0.514646L137.857 0.366209C138.813 0.31403 139.889 0.260786 141.062 0.211912L142.884 0.142576ZM186.752 3.88574C186.754 3.88601 186.754 3.88747 186.755 3.88769C186.752 3.887 186.748 3.885 186.743 3.88379C186.739 3.88298 186.734 3.88209 186.729 3.88086C186.739 3.8832 186.747 3.88459 186.752 3.88574ZM186.695 3.87304C186.708 3.87599 186.72 3.87879 186.729 3.88086C186.717 3.8781 186.701 3.87489 186.684 3.87109C186.682 3.87067 186.68 3.87055 186.678 3.87011C186.674 3.8692 186.67 3.86809 186.666 3.86719C186.677 3.86957 186.687 3.87122 186.695 3.87304ZM186.209 3.78613C186.192 3.78356 186.174 3.78169 186.157 3.77929C186.174 3.78168 186.192 3.78356 186.209 3.78613ZM184.552 3.74316C184.544 3.7439 184.538 3.74382 184.535 3.74414L184.531 3.74511H184.532C184.533 3.74497 184.538 3.74465 184.543 3.74414C184.546 3.74388 184.549 3.74352 184.553 3.74316H184.552ZM185.837 3.74219C185.827 3.74124 185.816 3.73917 185.806 3.73828C185.799 3.73766 185.792 3.73789 185.785 3.7373C185.802 3.73874 185.82 3.74057 185.837 3.74219ZM184.947 3.71679C184.934 3.71725 184.922 3.71825 184.911 3.71875C184.929 3.71798 184.948 3.71746 184.967 3.71679C184.96 3.71703 184.954 3.71655 184.947 3.71679ZM133.014 0.687498C132.989 0.689897 132.972 0.690903 132.967 0.691404H132.98C132.984 0.691024 132.988 0.689932 132.993 0.689451C132.998 0.688886 133.006 0.688338 133.014 0.687498ZM133.002 0.688474H133.009L133.018 0.687498C133.01 0.688354 133.003 0.688431 133.002 0.688474ZM133.417 0.659177C133.361 0.661617 133.301 0.66658 133.239 0.670896C133.316 0.665744 133.388 0.660606 133.455 0.658201C133.442 0.658646 133.43 0.658649 133.417 0.659177ZM133.955 0.656248C133.974 0.656924 133.99 0.656848 134 0.657224C134.004 0.657408 134.008 0.658102 134.01 0.658201H134.011C134.009 0.658113 134.006 0.657396 134.001 0.657224C133.993 0.656884 133.98 0.656822 133.963 0.656248C133.947 0.655669 133.926 0.654923 133.903 0.654295H133.901C133.922 0.654856 133.94 0.65575 133.955 0.656248ZM133.498 0.656248C133.479 0.656833 133.46 0.657433 133.441 0.658201C133.46 0.657444 133.479 0.656812 133.498 0.656248ZM133.603 0.654295C133.588 0.654542 133.573 0.65491 133.557 0.655271C133.537 0.655704 133.517 0.656568 133.496 0.657224C133.549 0.655609 133.599 0.654702 133.645 0.654295C133.631 0.654422 133.617 0.654072 133.603 0.654295Z" fill="white"/>
</g>
<path d="M23.148 172.128C21.5408 165.993 24.5299 159.611 30.4319 156.576L36.2676 153.574C37.6792 152.848 39.4501 153.31 40.2606 154.615L43.3214 159.545L55.7203 216.752C56.1678 218.816 54.1072 220.583 51.9571 219.978L42.5174 217.321C37.4807 215.903 33.6182 212.091 32.3625 207.298L23.148 172.128Z" fill="#EDD5BE"/>
<path d="M23.148 172.128C21.5408 165.993 24.5299 159.611 30.4319 156.576L36.2676 153.574C37.6792 152.848 39.4501 153.31 40.2606 154.615L43.3214 159.545L55.7203 216.752C56.1678 218.816 54.1072 220.583 51.9571 219.978L42.5174 217.321C37.4807 215.903 33.6182 212.091 32.3625 207.298L23.148 172.128Z" fill="#EDD5BE"/>
<path d="M52.9877 204.144C50.7575 206.375 48.1443 207.752 45.2595 208.027C39.7032 208.556 34.2591 204.886 30.0877 198.616L32.3625 207.298C33.6182 212.091 37.4807 215.903 42.5174 217.321L51.9571 219.978C54.1072 220.583 56.1678 218.816 55.7203 216.752L52.9877 204.144Z" fill="#E2CBB4"/>
<path fill-rule="evenodd" clip-rule="evenodd" d="M34.4836 150.518C37.6598 148.884 41.6444 149.923 43.4681 152.861C45.699 156.454 47.2877 160.366 48.1711 164.441L59.3581 216.057C60.365 220.702 55.7287 224.677 50.8909 223.315L41.4513 220.659C35.1553 218.887 30.3272 214.122 28.7576 208.13L19.5431 172.96C17.5341 165.292 21.2704 157.314 28.648 153.52L34.4836 150.518ZM39.9426 161.435C39.8519 161.016 39.6888 160.615 39.4597 160.246C38.3231 158.415 35.8397 157.768 33.8601 158.786L32.2159 159.631C27.7893 161.908 25.5476 166.695 26.7529 171.296L35.9674 206.466C36.9092 210.061 39.8061 212.92 43.5836 213.983C47.317 215.034 50.8949 211.967 50.1178 208.382L39.9426 161.435Z" fill="black"/>
<path d="M256.03 172.365C257.743 166.255 254.865 159.829 249.016 156.704L243.233 153.614C241.834 152.866 240.055 153.301 239.222 154.594L236.077 159.477L222.692 216.487C222.209 218.545 224.239 220.342 226.399 219.77L235.883 217.257C240.944 215.917 244.872 212.164 246.21 207.391L256.03 172.365Z" fill="#EDD5BE"/>
<path d="M256.03 172.365C257.743 166.255 254.865 159.829 249.016 156.704L243.233 153.614C241.834 152.866 240.055 153.301 239.222 154.594L236.077 159.477L222.692 216.487C222.209 218.545 224.239 220.342 226.399 219.77L235.883 217.257C240.944 215.917 244.872 212.164 246.21 207.391L256.03 172.365Z" fill="#EDD5BE"/>
<path d="M225.645 203.928C227.836 206.193 230.425 207.61 233.305 207.928C238.851 208.541 244.358 204.955 248.637 198.749L246.213 207.396C244.875 212.169 240.947 215.922 235.886 217.263L226.402 219.775C224.242 220.348 222.212 218.55 222.695 216.493L225.645 203.928Z" fill="#E2CBB4"/>
<path fill-rule="evenodd" clip-rule="evenodd" d="M245.069 150.585C241.922 148.904 237.92 149.882 236.046 152.791C233.753 156.35 232.097 160.237 231.143 164.299L219.067 215.737C217.98 220.367 222.547 224.411 227.408 223.124L236.892 220.611C243.217 218.935 248.127 214.244 249.8 208.277L259.62 173.251C261.761 165.615 258.163 157.582 250.852 153.675L245.069 150.585ZM239.423 161.418C239.52 161.001 239.69 160.601 239.926 160.236C241.094 158.423 243.588 157.813 245.55 158.861L247.179 159.732C251.566 162.076 253.725 166.896 252.44 171.478L242.62 206.504C241.616 210.083 238.67 212.898 234.875 213.904C231.124 214.898 227.599 211.776 228.438 208.204L239.423 161.418Z" fill="black"/>
<path d="M67.9983 56.6643L138.729 30.6578L211.404 53.0161L236.553 125.756C237.405 136.104 236.951 146.508 235.199 156.761L225.957 201.763C223.514 216.061 218.035 235.764 208.955 247.631C201.931 256.81 193.186 264.785 183.121 271.19L173.843 277.094C165.635 282.317 155.442 284.256 145.628 282.46C141.07 281.626 136.38 281.589 131.807 282.352L131.526 282.399C120.596 284.223 109.337 281.614 100.687 275.253L92.5204 269.248C85.5258 264.105 79.2034 258.245 73.6776 251.783C61.2402 237.24 53.143 220.007 50.1741 201.763L42.7903 156.387C41.1619 146.38 40.768 136.239 41.6158 126.152L67.9983 56.6643Z" fill="#EDD5BE"/>
<path d="M140.425 281.857C182.759 260.342 215.691 222.373 231.222 176.129L225.957 201.763C223.514 216.061 218.035 235.764 208.955 247.631C201.931 256.81 193.186 264.785 183.121 271.19L173.843 277.094C165.634 282.317 155.442 284.256 145.628 282.46C143.908 282.145 142.169 281.944 140.425 281.857Z" fill="#E2CBB4"/>
<path fill-rule="evenodd" clip-rule="evenodd" d="M138.682 27.2595L216.998 57.5764L240.254 125.502C241.129 136.109 240.663 146.773 238.867 157.283L230.136 208.387C227.606 223.194 221.402 237.279 211.999 249.569C204.725 259.074 195.668 267.334 185.245 273.967L175.968 279.87C166.928 285.623 155.705 287.757 144.898 285.78C140.801 285.03 136.585 284.997 132.475 285.683L132.194 285.73C120.201 287.731 107.848 284.868 98.3574 277.889L90.1903 271.884C82.9741 266.578 76.4512 260.532 70.7504 253.866C57.9188 238.861 49.5649 221.082 46.502 202.26L39.1181 156.884C37.449 146.627 37.0453 136.232 37.9143 125.893L68.5605 60.5L138.682 27.2595ZM138.776 34.0561L68.5605 60.5L45.3173 126.411C44.4906 136.246 44.8747 146.134 46.4623 155.89L53.8462 201.266C56.721 218.932 64.5616 235.618 76.6048 249.701C81.9554 255.958 88.0775 261.632 94.8504 266.612L103.017 272.618C110.827 278.36 120.991 280.715 130.858 279.069L131.139 279.022C136.175 278.182 141.339 278.222 146.359 279.14C155.18 280.755 164.341 279.012 171.719 274.317L180.997 268.413C190.703 262.237 199.137 254.545 205.91 245.693C214.667 234.249 220.443 221.133 222.799 207.344L231.531 156.24C233.24 146.243 233.682 136.099 232.851 126.01L211.999 57.5764L138.776 34.0561Z" fill="black"/>
<path fill-rule="evenodd" clip-rule="evenodd" d="M139.831 273.082C139.01 273.082 138.346 272.476 138.346 271.728V264.957C138.346 264.209 139.01 263.603 139.831 263.603C140.651 263.603 141.315 264.209 141.315 264.957V271.728C141.315 272.476 140.651 273.082 139.831 273.082Z" fill="#C7B6A5"/>
<path fill-rule="evenodd" clip-rule="evenodd" d="M167.748 218.5C169.405 218.5 170.748 219.843 170.748 221.5C170.748 229.784 164.033 236.5 155.748 236.5H115.998C114.341 236.5 112.998 235.157 112.998 233.5C112.998 231.843 114.341 230.5 115.998 230.5H155.748C160.719 230.5 164.748 226.471 164.748 221.5C164.748 219.843 166.091 218.5 167.748 218.5Z" fill="black"/>
<path fill-rule="evenodd" clip-rule="evenodd" d="M135.127 207.329C138.425 209.528 142.722 209.528 146.02 207.329L152.702 202.874C153.726 202.192 155.109 202.469 155.791 203.492C156.473 204.516 156.197 205.899 155.173 206.581L148.491 211.036C143.696 214.232 137.45 214.232 132.655 211.036L125.973 206.581C124.95 205.899 124.673 204.516 125.355 203.492C126.038 202.469 127.421 202.192 128.444 202.874L135.127 207.329Z" fill="#C7B6A5"/>
<circle cx="181.413" cy="165.44" r="26.8929" fill="white"/>
<circle cx="181.833" cy="174.728" r="17.2282" fill="#4361FF"/>
<circle cx="181.833" cy="174.728" r="17.2282" fill="url(#paint0_linear_4026_4)" fill-opacity="0.7"/>
<circle cx="181.833" cy="174.728" r="11.3454" fill="black"/>
<path d="M154.112 168.854C155.765 169.08 157.288 167.922 157.513 166.269L158.033 162.46C159.136 154.368 164.344 147.42 171.802 144.091C177.481 141.555 183.945 141.367 189.767 143.563C198.122 146.713 204.01 154.299 204.974 163.171L205.302 166.187C205.482 167.846 206.973 169.044 208.632 168.864C210.291 168.684 211.489 167.193 211.309 165.534L210.981 162.518C209.77 151.377 202.381 141.861 191.899 137.909C184.589 135.153 176.474 135.388 169.338 138.573C159.972 142.755 153.432 151.48 152.046 161.644L151.526 165.452C151.301 167.106 152.458 168.629 154.112 168.854Z" fill="black"/>
<path fill-rule="evenodd" clip-rule="evenodd" d="M186.65 170.751C185.83 169.931 185.83 168.6 186.65 167.78L194.214 160.216C195.034 159.396 196.365 159.396 197.185 160.216C198.006 161.037 198.006 162.367 197.185 163.188L189.622 170.751C188.801 171.572 187.471 171.572 186.65 170.751Z" fill="white"/>
<path fill-rule="evenodd" clip-rule="evenodd" d="M185.236 172.165C183.635 170.564 183.635 167.967 185.236 166.366L192.8 158.802C194.401 157.201 196.998 157.201 198.599 158.802C200.201 160.404 200.201 163 198.599 164.602L191.036 172.165C189.434 173.767 186.838 173.767 185.236 172.165ZM186.65 167.78C185.83 168.6 185.83 169.931 186.65 170.751C187.471 171.572 188.801 171.572 189.622 170.751L197.185 163.188C198.006 162.367 198.006 161.037 197.185 160.216C196.365 159.396 195.034 159.396 194.214 160.216L186.65 167.78Z" fill="white"/>
<path fill-rule="evenodd" clip-rule="evenodd" d="M152.976 142.529C154.026 144.29 156.305 144.867 158.066 143.817L167.572 138.15C180.071 130.699 195.895 131.848 207.186 141.028C208.777 142.322 211.115 142.08 212.409 140.49C213.702 138.899 213.461 136.561 211.87 135.267C198.16 124.121 178.947 122.725 163.77 131.773L154.264 137.44C152.503 138.489 151.926 140.768 152.976 142.529Z" fill="black"/>
<circle cx="100.913" cy="165.44" r="26.8929" fill="white"/>
<circle cx="101.333" cy="174.728" r="17.2282" fill="#4361FF"/>
<circle cx="101.333" cy="174.728" r="17.2282" fill="url(#paint1_linear_4026_4)" fill-opacity="0.7"/>
<circle cx="101.333" cy="174.728" r="11.3454" fill="black"/>
<path d="M73.6117 168.854C75.2649 169.08 76.7879 167.922 77.0134 166.269L77.5327 162.46C78.6363 154.368 83.8437 147.42 91.3016 144.091C96.9811 141.555 103.445 141.367 109.267 143.563C117.622 146.713 123.51 154.299 124.474 163.171L124.802 166.187C124.982 167.846 126.473 169.044 128.132 168.864C129.791 168.684 130.989 167.193 130.809 165.534L130.481 162.518C129.27 151.377 121.881 141.861 111.399 137.909C104.09 135.153 95.9745 135.388 88.8384 138.573C79.4719 142.755 72.9317 151.48 71.5457 161.644L71.0264 165.452C70.8009 167.106 71.9584 168.629 73.6117 168.854Z" fill="black"/>
<path fill-rule="evenodd" clip-rule="evenodd" d="M106.15 170.751C105.33 169.931 105.33 168.6 106.15 167.78L113.714 160.216C114.534 159.396 115.865 159.396 116.685 160.216C117.506 161.037 117.506 162.367 116.685 163.188L109.122 170.751C108.301 171.572 106.971 171.572 106.15 170.751Z" fill="white"/>
<path fill-rule="evenodd" clip-rule="evenodd" d="M104.736 172.165C103.135 170.564 103.135 167.967 104.736 166.366L112.3 158.802C113.901 157.201 116.498 157.201 118.099 158.802C119.701 160.404 119.701 163 118.099 164.602L110.536 172.165C108.934 173.767 106.338 173.767 104.736 172.165ZM106.15 167.78C105.33 168.6 105.33 169.931 106.15 170.751C106.971 171.572 108.301 171.572 109.122 170.751L116.685 163.188C117.506 162.367 117.506 161.037 116.685 160.216C115.865 159.396 114.534 159.396 113.714 160.216L106.15 167.78Z" fill="white"/>
<path fill-rule="evenodd" clip-rule="evenodd" d="M128.036 142.529C126.986 144.29 124.707 144.867 122.946 143.817L113.44 138.15C100.94 130.699 85.1171 131.848 73.8255 141.028C72.2346 142.322 69.8965 142.08 68.6031 140.49C67.3098 138.899 67.551 136.561 69.1419 135.267C82.8521 124.121 102.065 122.725 117.242 131.773L126.748 137.44C128.509 138.489 129.086 140.768 128.036 142.529Z" fill="black"/>
<path d="M35.7963 107.276L43.4992 164.14L54.9992 124.331L61.7818 101.711C62.5892 99.0184 63.7767 96.4545 65.3083 94.0969C71.7868 84.1245 83.61 79.0047 95.3155 81.1028L124.623 86.3561C127.535 86.878 130.487 87.1404 133.445 87.1404H157.541C161.169 87.1404 164.786 86.7456 168.329 85.9629L187.199 81.7933C198.744 79.2425 210.747 83.3458 218.313 92.43C221.18 95.8716 223.283 99.883 224.482 104.199L228.499 118.651L235.999 164.14C237.999 153.14 241.499 143.14 242.999 133.64L247.994 107.583C248.588 104.481 248.903 101.329 248.889 98.1706C248.869 93.9079 248.738 89.6165 248.038 85.5337L245.416 74.0168C244.154 68.4732 241.956 63.1854 238.916 58.3809L230.499 46.6404L235.999 43.6404L217.999 34.1404L199.499 24.1404L205.499 19.6404L184.499 14.1404C184.499 14.1404 169.999 11.1405 157.999 10.6405C145.999 10.1405 133.999 11.1404 133.999 11.1404C133.999 11.1404 120.642 12.2214 116.81 13.365C111.797 14.8613 103.103 18.3952 98.9992 21.6404L84.4992 32.6404L81.42 22.6116L65.2243 45.4551C61.4997 50.7085 59.4992 56.9892 59.4992 63.4289C59.4992 64.7528 58.6587 65.9319 57.4079 66.3656C46.5707 70.1236 38.6395 79.5097 36.7571 90.8244L35.9737 95.5337C35.3277 99.4169 35.2679 103.375 35.7963 107.276Z" fill="#5D473B"/>
<path d="M141.353 7.20553C145.907 7.01577 152.013 6.88753 158.145 7.14303C164.342 7.40126 171.12 8.30075 176.297 9.12155C178.897 9.53372 181.117 9.92935 182.689 10.2231C183.475 10.37 184.101 10.4915 184.532 10.5766C184.747 10.6192 184.914 10.6531 185.028 10.6762C185.085 10.6877 185.129 10.6964 185.159 10.7026C185.174 10.7057 185.186 10.7087 185.194 10.7104C185.198 10.7112 185.201 10.7119 185.204 10.7124C185.205 10.7126 185.206 10.7122 185.207 10.7124L185.208 10.7133C185.207 10.7198 185.185 10.8248 184.829 12.5473L185.209 10.7133C185.268 10.7256 185.328 10.739 185.386 10.7544L206.386 16.2544C207.686 16.5948 208.675 17.6493 208.933 18.9672C209.192 20.2852 208.674 21.6351 207.599 22.4409L205.972 23.6596L219.664 31.061H219.663L237.632 40.5454C238.773 41.1472 239.49 42.3273 239.499 43.6167C239.507 44.9059 238.807 46.0959 237.675 46.7133L235.649 47.8178L241.76 56.3413L241.874 56.5092C245.126 61.65 247.478 67.3081 248.829 73.2397L251.45 84.7573L251.487 84.9419L251.621 85.7661C252.255 89.8923 252.37 94.1289 252.388 98.1547L252.387 98.7924C252.361 101.978 252.026 105.141 251.431 108.242L246.449 134.229C245.667 139.161 244.377 144.184 243.075 149.207C241.756 154.294 240.416 159.416 239.443 164.766C239.138 166.441 237.673 167.654 235.97 167.64C234.268 167.626 232.822 166.389 232.546 164.709L225.076 119.407L221.11 105.136C220.11 101.538 218.404 98.1773 216.094 95.2495L215.624 94.6704C209 86.7181 198.554 83.0576 188.436 85.1088L187.955 85.2104L169.084 89.3803C165.293 90.2178 161.423 90.6401 157.541 90.6401H133.445C130.676 90.6401 127.911 90.4253 125.176 89.9975L124.006 89.8012L94.6979 84.5483C84.5396 82.7275 74.2804 87.0721 68.5143 95.5942L68.2438 96.0034C66.9779 97.9519 65.9786 100.061 65.2721 102.273L65.1344 102.716L58.361 125.301L58.362 125.302L46.862 165.112C46.4028 166.701 44.8929 167.752 43.2428 167.631C41.6961 167.518 40.422 166.403 40.0856 164.914L40.0309 164.61L32.3278 107.746C31.7524 103.498 31.8177 99.1878 32.5211 94.9594L33.3043 90.2505L33.4079 89.6616C35.6577 77.4345 44.2761 67.3205 56.0016 63.1508C56.0584 56.0834 58.2785 49.2004 62.3688 43.4311L78.5651 20.5874L78.7155 20.3891C79.5011 19.4326 80.7409 18.9574 81.9752 19.1557C83.292 19.3674 84.3748 20.3095 84.7663 21.5844L86.3747 26.8237L96.8834 18.852C99.2872 16.9655 102.785 15.1444 106.139 13.6499C109.576 12.1188 113.144 10.8067 115.809 10.0112L116.265 9.88424C118.677 9.25563 122.99 8.7203 126.465 8.3442C128.4 8.13485 130.211 7.96167 131.536 7.84127C132.199 7.78103 132.743 7.73388 133.121 7.70162C133.31 7.68551 133.458 7.67291 133.559 7.66451C133.61 7.66033 133.649 7.6579 133.675 7.65572C133.689 7.65465 133.699 7.65336 133.706 7.6528C133.708 7.65261 133.71 7.65292 133.712 7.6528L133.713 7.65182C133.714 7.65166 133.717 7.65208 133.72 7.65182C133.727 7.65125 133.738 7.64992 133.751 7.64889C133.776 7.64683 133.813 7.64386 133.86 7.6401C133.956 7.63252 134.095 7.62143 134.276 7.60787C134.638 7.58074 135.165 7.54321 135.833 7.49947C137.168 7.41202 139.071 7.3006 141.353 7.20553ZM62.9997 63.4292C62.9995 66.1583 61.3218 68.5942 58.8014 69.5815L58.5543 69.6723C49.0767 72.9589 42.1018 81.091 40.2916 90.9292L40.2096 91.3989L39.4264 96.1079C38.8378 99.6457 38.7829 103.252 39.2643 106.806L44.7399 147.231L51.6364 123.36L51.6471 123.326L58.4293 100.707L58.6032 100.143C59.4995 97.3367 60.7678 94.6618 62.3737 92.1899L62.7174 91.6713C70.0322 80.8602 83.0465 75.3478 95.9332 77.6577L125.241 82.9106L126.257 83.0815C128.635 83.4534 131.038 83.6401 133.445 83.6401H157.541C160.915 83.6401 164.279 83.2733 167.574 82.5454L186.444 78.3755L187.046 78.2485C199.682 75.6865 212.729 80.2578 221.003 90.1899L221.589 90.9135C224.475 94.5703 226.605 98.7674 227.854 103.261L231.872 117.714L231.917 117.897C231.93 117.958 231.943 118.02 231.953 118.082L236.6 146.272C237.799 141.631 238.878 137.296 239.542 133.094L239.562 132.982L244.556 106.924C245.042 104.39 245.325 101.833 245.38 99.2807L245.388 98.187C245.369 93.9855 245.237 89.9635 244.6 86.2046L242.004 74.7934C240.837 69.6689 238.809 64.7801 236.008 60.3335L227.655 48.6801C227.071 47.8652 226.864 46.8384 227.088 45.8608C227.292 44.9651 227.84 44.1888 228.607 43.6958L216.366 37.2358C216.356 37.2304 216.345 37.2247 216.335 37.2192L197.835 27.2192C196.785 26.6518 196.097 25.5887 196.008 24.3989C195.92 23.2091 196.445 22.0561 197.399 21.3403L197.599 21.1889L183.708 17.5503C183.688 17.5463 183.665 17.5419 183.639 17.5366C183.535 17.5155 183.378 17.4842 183.173 17.4438C182.764 17.363 182.163 17.246 181.403 17.104C179.881 16.8196 177.726 16.4349 175.201 16.0346C170.128 15.2305 163.656 14.3789 157.853 14.1372C151.985 13.8927 146.091 14.0144 141.645 14.1997C139.427 14.2921 137.58 14.4004 136.291 14.4848C135.646 14.527 135.142 14.5627 134.8 14.5883C134.63 14.6011 134.5 14.6118 134.414 14.6186C134.371 14.622 134.339 14.6247 134.318 14.6264C134.308 14.6273 134.3 14.628 134.296 14.6284H134.29L134.282 14.6294H134.273C134.267 14.6298 134.258 14.6313 134.247 14.6323C134.223 14.6343 134.185 14.6371 134.137 14.6411C134.041 14.6491 133.899 14.6606 133.715 14.6762C133.348 14.7075 132.817 14.754 132.169 14.813C130.87 14.9309 129.102 15.0994 127.218 15.3032C123.534 15.7018 119.845 16.1923 118.128 16.6313L117.811 16.7192C115.463 17.42 112.178 18.6233 108.988 20.0444C105.945 21.4002 103.23 22.8488 101.503 24.1313L101.171 24.3862L101.115 24.4292L86.6149 35.4292C85.7042 36.12 84.5134 36.3219 83.4254 35.9712C82.3374 35.6203 81.4885 34.7603 81.153 33.6674L80.1608 30.438L68.0797 47.479C64.7747 52.1407 62.9997 57.7147 62.9997 63.4292Z" fill="black"/>
<path d="M95.1448 54.0123C105.458 35.6123 125.309 24.6468 146.375 25.7115C148.297 25.8089 149.776 27.4457 149.679 29.3678C149.582 31.29 147.945 32.7696 146.023 32.6725C127.601 31.7415 110.243 41.3306 101.225 57.4205L97.5247 64.0221C96.6129 65.6482 94.5915 66.2599 92.9397 65.441L92.7806 65.358C91.1019 64.4169 90.5038 62.2927 91.4446 60.6139L95.1448 54.0123Z" fill="#423027"/>
<path d="M130.947 62.7259C142.056 45.4236 161.827 35.1029 181.636 36.3753C183.618 36.5029 184.997 38.2693 184.682 40.2083C184.4 41.9454 182.846 43.25 181.087 43.223L181.045 41.2201L180.916 43.2161C163.75 42.1135 146.455 51.0816 136.723 66.2406L135.722 67.8001C134.807 69.2245 132.876 69.9532 131.208 69.1273L131.048 69.0423C129.243 68.028 128.967 65.8101 129.947 64.2845L130.947 62.7259Z" fill="#423027"/>
<path d="M162.038 65.2945C176.42 50.9131 198.391 47.3473 216.582 56.443L219.582 57.9439C221.393 58.8494 222.127 61.051 221.222 62.8619C220.316 64.6728 218.115 65.4069 216.304 64.5016L213.303 63.0016C197.934 55.3173 179.373 58.3293 167.223 70.4791C165.791 71.9107 163.47 71.9106 162.038 70.4791C160.607 69.0474 160.607 66.7262 162.038 65.2945Z" fill="#423027"/>
<g filter="url(#filter1_d_4026_4)">
<path d="M57.7208 137.039H109.221L130.221 146.539L131.721 163.539L124.721 183.039L110.721 196.539L88.2208 197.539L56.7208 195.039L46.7208 183.539L45.7208 166.539L48.2208 144.039L57.7208 137.039Z" fill="white" fill-opacity="0.5"/>
<path d="M225.721 137.039H174.221L153.221 146.539L151.721 163.539L158.721 183.039L172.721 196.539L195.221 197.539L226.721 195.039L236.721 183.539L237.721 166.539L235.221 144.039L225.721 137.039Z" fill="white" fill-opacity="0.5"/>
<path fill-rule="evenodd" clip-rule="evenodd" d="M103.439 132.5C108.429 132.5 113.355 133.668 117.856 135.919L129.705 141.845C130.871 142.428 131.909 143.208 132.791 144.134L139.658 144.867C140.705 144.979 141.761 144.979 142.809 144.867L149.675 144.134C150.557 143.207 151.595 142.428 152.762 141.845L164.609 135.919C169.111 133.668 174.038 132.5 179.027 132.5H217.477C220.119 132.5 222.732 133.09 225.139 134.23L229.081 136.099C233.296 138.095 236.551 141.613 238.367 145.864H245.497C246.551 145.864 247.406 146.541 247.406 147.376V155.598C247.406 156.183 246.98 156.715 246.312 156.965L243.419 158.044C242.92 158.23 242.547 158.579 242.396 159L241.116 162.583C240.951 163.046 240.523 163.407 239.981 163.576V175.076C239.981 184.504 235.049 193.177 227.127 197.681C223.519 199.732 219.477 200.807 215.369 200.807H177.954C173.394 200.807 168.993 199.051 165.592 195.876L162.548 193.035C152.293 183.463 146.431 169.773 146.431 155.4V154.968L144.517 154.534C142.355 154.044 140.111 154.044 137.949 154.534L136.036 154.968V155.4C136.036 169.773 130.173 183.463 119.919 193.035L116.875 195.876C113.473 199.051 109.073 200.807 104.513 200.807H67.0976C62.9903 200.807 58.9482 199.732 55.3398 197.681C47.4176 193.177 42.4854 184.504 42.4853 175.076V163.576C41.944 163.407 41.5151 163.046 41.3496 162.583L40.0703 159C39.9201 158.579 39.5464 158.23 39.0469 158.044L36.1553 156.965C35.4869 156.715 35.0605 156.183 35.0605 155.598V147.376C35.0605 146.541 35.9153 145.864 36.9697 145.864H44.0996C45.9159 141.613 49.1712 138.095 53.3857 136.099L57.3281 134.23C59.735 133.09 62.3477 132.5 64.9902 132.5H103.439ZM64.9902 140.262C63.4047 140.262 61.8367 140.616 60.3926 141.3L56.4502 143.168C52.4681 145.055 49.9101 149.203 49.9101 153.773V175.076C49.9102 181.66 53.3544 187.716 58.8867 190.861C61.4066 192.294 64.2293 193.045 67.0976 193.045H104.513C107.249 193.045 109.889 191.991 111.93 190.086L114.974 187.245C123.65 179.145 128.611 167.561 128.611 155.4V152.348C128.611 150.853 127.79 149.492 126.501 148.847L114.653 142.922C111.152 141.171 107.32 140.262 103.439 140.262H64.9902ZM179.027 140.262C175.146 140.262 171.314 141.171 167.813 142.922L155.966 148.847C154.676 149.492 153.856 150.853 153.855 152.348V155.4C153.855 167.561 158.816 179.145 167.493 187.245L170.537 190.086C172.578 191.991 175.218 193.045 177.954 193.045H215.369C218.238 193.045 221.06 192.294 223.58 190.861C229.112 187.716 232.557 181.66 232.557 175.076V153.773C232.557 149.203 229.999 145.055 226.017 143.168L222.073 141.3C220.629 140.616 219.062 140.262 217.477 140.262H179.027Z" fill="url(#paint2_linear_4026_4)"/>
<path d="M54.9028 174.978L54.7889 174.876C54.1997 174.395 53.3307 174.429 52.7815 174.978C52.2323 175.528 52.1981 176.397 52.6786 176.986L52.7815 177.1L65.7815 190.1C66.3673 190.686 67.317 190.686 67.9028 190.1C68.4886 189.514 68.4886 188.564 67.9028 187.978L54.9028 174.978Z" fill="white" fill-opacity="0.7"/>
<path d="M62.9028 174.978L62.7888 174.876C62.1997 174.395 61.3306 174.429 60.7815 174.978C60.2323 175.528 60.1981 176.397 60.6786 176.986L60.7815 177.1L66.7815 183.1C67.3673 183.686 68.317 183.686 68.9028 183.1C69.4886 182.514 69.4886 181.564 68.9028 180.978L62.9028 174.978Z" fill="white" fill-opacity="0.7"/>
</g>
<path d="M29.0219 254.457C28.7531 251.527 31.0592 249 34.001 249H245.042C247.983 249 250.289 251.527 250.021 254.457L240.938 353.457C240.702 356.03 238.543 358 235.959 358H43.0836C40.4991 358 38.3406 356.03 38.1045 353.457L29.0219 254.457Z" fill="#B9C5D4"/>
<path fill-rule="evenodd" clip-rule="evenodd" d="M34.001 242H245.042C252.102 242 257.636 248.066 256.991 255.096L247.909 354.096C247.342 360.273 242.162 365 235.959 365H43.0836C36.8809 365 31.7004 360.273 31.1337 354.096L22.0512 255.096C21.4062 248.066 26.9407 242 34.001 242ZM34.001 249C31.0592 249 28.7531 251.527 29.0219 254.457L38.1045 353.457C38.3406 356.03 40.4991 358 43.0836 358H235.959C238.543 358 240.702 356.03 240.938 353.457L250.021 254.457C250.289 251.527 247.983 249 245.042 249H34.001Z" fill="black"/>
<path d="M33.8805 249C30.9827 249 28.6918 251.456 28.8926 254.346L29.0549 256.684C29.63 254.574 31.5608 253 33.8805 253H245.162C247.482 253 249.413 254.574 249.988 256.684L250.15 254.346C250.351 251.456 248.06 249 245.162 249H33.8805Z" fill="white"/>
<path fill-rule="evenodd" clip-rule="evenodd" d="M54.8248 283.3C55.7471 282.788 56.3713 281.805 56.3713 280.675V276.1C56.3713 274.443 55.0281 273.1 53.3713 273.1H48.6213C46.9644 273.1 45.6213 274.443 45.6213 276.1V280.675C45.6213 281.805 46.2455 282.788 47.1678 283.3C46.2455 283.812 45.6213 284.795 45.6213 285.925V290.5C45.6213 292.157 46.9644 293.5 48.6213 293.5H53.3713C55.0281 293.5 56.3713 292.157 56.3713 290.5V285.925C56.3713 284.795 55.7471 283.812 54.8248 283.3ZM57.2115 277.95C57.2115 276.293 58.5547 274.95 60.2115 274.95H63.2615C63.5877 274.95 63.9016 275.002 64.1956 275.098C65.1354 274.732 66.1315 274.625 67.0365 274.625C68.4701 274.625 69.9413 274.792 71.1955 275.365C72.211 275.817 73.0179 276.515 73.5987 277.385C74.2137 276.61 75.0002 275.976 75.9581 275.531C77.4219 274.844 79.1902 274.625 81.0018 274.625C82.7995 274.625 84.5647 274.84 86.0206 275.531C86.7464 275.864 87.3756 276.306 87.9056 276.838C88.3233 275.79 89.3015 275.057 90.4361 274.961C90.5573 273.894 91.2441 272.961 92.2496 272.536L95.1496 271.311C96.076 270.92 97.1369 271.019 97.975 271.575C98.8131 272.131 99.317 273.069 99.317 274.075V274.95H101.192C102.849 274.95 104.192 276.293 104.192 277.95V280.525C104.192 282.182 102.849 283.525 101.192 283.525H99.317V285.58C99.7912 285.539 100.399 285.468 101.158 285.357C102.02 285.23 102.894 285.485 103.554 286.055C104.213 286.625 104.592 287.454 104.592 288.325V290.95C104.592 292.463 103.465 293.739 101.964 293.927C100.196 294.148 98.7237 294.275 97.617 294.275C96.2416 294.275 94.767 294.108 93.5216 293.469C92.2675 292.825 91.2992 291.782 90.8116 290.394L90.8035 290.371C90.4344 289.292 90.317 288.061 90.317 286.825V283.525H90.1857C90.1967 283.83 90.2018 284.138 90.2018 284.45C90.2018 286.375 90.005 288.187 89.4206 289.668C88.7883 291.297 87.6403 292.579 86.0316 293.338C86.0175 293.345 86.0034 293.351 85.9893 293.358C84.5413 294.014 82.797 294.225 81.0018 294.225C79.2065 294.225 77.4622 294.014 76.0142 293.358C76.0001 293.351 75.986 293.345 75.9719 293.338C75.4333 293.084 74.9459 292.772 74.5114 292.408C74.0071 293.355 73.0096 294 71.8615 294H68.8115C67.559 294 66.4857 293.232 66.0365 292.142C65.5873 293.232 64.514 294 63.2615 294H60.2115C58.5547 294 57.2115 292.657 57.2115 291V277.95ZM68.1179 280.687C68.1807 280.73 68.2369 280.775 68.2865 280.825C68.6365 281.158 68.8115 281.783 68.8115 282.7V291H71.8615V282.75C71.8615 282.73 71.8615 282.711 71.8614 282.691C71.8571 281.37 71.7071 280.356 71.4115 279.65C71.1282 278.917 70.6448 278.4 69.9615 278.1C69.7126 277.985 69.4249 277.89 69.0985 277.817C68.529 277.689 67.8417 277.625 67.0365 277.625C66.8068 277.625 66.5901 277.634 66.3865 277.653C66.3398 277.658 66.2938 277.662 66.2484 277.668C65.8214 277.718 65.4556 277.812 65.1509 277.95C65.0664 277.988 64.9866 278.03 64.9115 278.075C64.5165 278.312 64.132 278.71 63.7578 279.27C63.7526 279.277 63.7474 279.285 63.7423 279.293C63.648 279.435 63.5544 279.587 63.4615 279.75H63.2615V277.95H60.2115V291H63.2615V284.225C63.2615 283.662 63.2897 283.17 63.3459 282.75C63.3763 282.524 63.4148 282.318 63.4615 282.133C63.4845 282.042 63.5095 281.956 63.5365 281.875C63.7365 281.308 64.0532 280.908 64.4865 280.675C64.5909 280.621 64.7051 280.573 64.8291 280.531C65.2126 280.403 65.6902 280.335 66.2621 280.326C66.3031 280.325 66.3445 280.325 66.3865 280.325C66.6223 280.325 66.839 280.336 67.0365 280.357C67.5045 280.407 67.8649 280.517 68.1179 280.687ZM74.8615 282.806C74.8217 283.309 74.8017 283.857 74.8017 284.45C74.8017 285.038 74.8217 285.581 74.8615 286.08C74.9425 287.095 75.106 287.927 75.3517 288.575C75.7229 289.495 76.3285 290.165 77.1684 290.585C77.1959 290.598 77.2237 290.612 77.2517 290.625C77.3685 290.678 77.4916 290.727 77.6211 290.773C77.6361 290.778 77.6511 290.784 77.6663 290.789C78.5116 291.08 79.6234 291.225 81.0018 291.225C82.3687 291.225 83.4735 291.082 84.3162 290.796C84.3314 290.791 84.3465 290.786 84.3616 290.78C84.4987 290.732 84.6288 290.681 84.7518 290.625C84.7584 290.622 84.765 290.619 84.7716 290.616C85.6444 290.198 86.2628 289.518 86.6268 288.575C87.0101 287.608 87.2018 286.233 87.2018 284.45C87.2018 282.65 87.0101 281.267 86.6268 280.3C86.2772 279.379 85.693 278.715 84.8741 278.308C84.8339 278.288 84.7931 278.269 84.7518 278.25C84.6506 278.201 84.5441 278.156 84.4325 278.113C84.392 278.097 84.3508 278.082 84.309 278.067C83.4776 277.772 82.3752 277.625 81.0018 277.625C79.6004 277.625 78.4751 277.778 77.6258 278.085C77.615 278.089 77.6042 278.093 77.5934 278.097C77.4648 278.144 77.3425 278.195 77.2267 278.25C77.1905 278.267 77.1547 278.284 77.1192 278.302C76.3082 278.708 75.719 279.374 75.3517 280.3C75.106 280.948 74.9425 281.783 74.8615 282.806ZM78.7045 280.886C78.4568 281.133 78.2642 281.463 78.1268 281.875C77.9434 282.475 77.8517 283.333 77.8517 284.45C77.8517 285.55 77.9434 286.4 78.1268 287C78.2659 287.406 78.4616 287.731 78.7138 287.976C78.824 288.083 78.945 288.174 79.0767 288.25C79.5267 288.5 80.1684 288.625 81.0018 288.625C81.8351 288.625 82.4684 288.5 82.9017 288.25C83.0358 288.176 83.158 288.086 83.2684 287.982C83.5286 287.737 83.723 287.41 83.8517 287C84.0518 286.4 84.1517 285.55 84.1517 284.45C84.1517 283.333 84.0518 282.475 83.8517 281.875C83.726 281.463 83.5374 281.134 83.286 280.887C83.1711 280.774 83.043 280.678 82.9017 280.6C82.4684 280.333 81.8351 280.2 81.0018 280.2C80.1684 280.2 79.5267 280.333 79.0767 280.6C78.9412 280.678 78.8172 280.773 78.7045 280.886ZM81.0897 285.624C81.1235 285.362 81.1517 284.98 81.1517 284.45C81.1517 283.871 81.1192 283.467 81.0823 283.201C81.0567 283.2 81.0299 283.2 81.0018 283.2C80.9708 283.2 80.9414 283.2 80.9133 283.201C80.8794 283.482 80.8517 283.889 80.8517 284.45C80.8517 284.966 80.8759 285.349 80.9069 285.624C80.937 285.625 80.9686 285.625 81.0018 285.625C81.0324 285.625 81.0617 285.625 81.0897 285.624ZM93.317 286.825C93.317 287.908 93.4253 288.767 93.642 289.4C93.8587 290.017 94.2753 290.483 94.892 290.8C95.0663 290.889 95.2638 290.966 95.4847 291.031C95.6421 291.076 95.8114 291.116 95.9925 291.149C96.0097 291.152 96.027 291.155 96.0444 291.158C96.4966 291.236 97.0208 291.275 97.617 291.275C97.8694 291.275 98.1527 291.267 98.467 291.25C99.2942 291.207 100.336 291.107 101.592 290.95V288.325C101.482 288.341 101.375 288.356 101.27 288.371C100.135 288.53 99.2424 288.614 98.592 288.624C98.5493 288.625 98.5076 288.625 98.467 288.625C98.1419 288.625 97.8586 288.61 97.617 288.579C97.3878 288.55 97.1961 288.507 97.042 288.45C96.8882 288.39 96.7606 288.313 96.6594 288.218C96.5632 288.128 96.4907 288.022 96.442 287.9C96.3587 287.65 96.317 287.258 96.317 286.725V280.525H101.192V277.95H96.317V274.075L93.417 275.3V277.95H90.692L90.092 280.525H93.317V286.825ZM117.425 296.349C116.839 296.92 116.045 297.227 115.226 297.198C113.614 297.141 112.069 296.901 110.744 296.33L110.724 296.321C109.31 295.699 108.187 294.692 107.372 293.404C106.602 292.186 106.072 290.663 105.686 289.007L105.685 289.003C105.447 287.98 105.274 287.009 105.175 286.099C105.075 285.183 105.032 284.081 105.032 282.825C105.032 281.569 105.075 280.467 105.175 279.551C105.274 278.641 105.447 277.67 105.685 276.647L105.686 276.643C106.072 274.987 106.602 273.464 107.372 272.246C108.197 270.943 109.339 269.937 110.769 269.32C112.09 268.751 113.625 268.509 115.225 268.452C116.043 268.423 116.838 268.729 117.425 269.3C118.012 269.872 118.339 270.658 118.332 271.477L118.307 274.277C118.293 275.877 117.024 277.185 115.425 277.248C115.121 277.26 114.899 277.288 114.745 277.318C114.725 277.322 114.706 277.326 114.689 277.33C114.602 277.545 114.479 277.934 114.358 278.565C114.202 279.457 114.1 280.187 114.043 280.766L114.042 280.774C113.988 281.314 113.957 281.993 113.957 282.825C113.957 283.653 113.988 284.343 114.043 284.904C114.099 285.468 114.202 286.191 114.358 287.085C114.479 287.716 114.602 288.105 114.689 288.32C114.706 288.324 114.725 288.328 114.745 288.332C114.899 288.362 115.121 288.39 115.425 288.402C117.024 288.465 118.293 289.773 118.307 291.373L118.332 294.173C118.339 294.992 118.012 295.778 117.425 296.349ZM113.086 290.9C112.808 290.742 112.565 290.526 112.354 290.252C112.266 290.136 112.184 290.011 112.107 289.875C111.829 289.351 111.598 288.616 111.416 287.673C111.416 287.672 111.416 287.671 111.416 287.67C111.413 287.655 111.41 287.64 111.407 287.625C111.261 286.794 111.154 286.071 111.085 285.457C111.075 285.369 111.066 285.283 111.057 285.2C110.991 284.517 110.957 283.725 110.957 282.825C110.957 281.925 110.991 281.142 111.057 280.475C111.066 280.384 111.076 280.29 111.087 280.193C111.156 279.571 111.263 278.848 111.407 278.025C111.41 278.01 111.413 277.995 111.416 277.98C111.416 277.979 111.416 277.978 111.416 277.977C111.598 277.034 111.829 276.299 112.107 275.775C112.184 275.639 112.266 275.514 112.354 275.398C112.57 275.117 112.82 274.897 113.106 274.738C113.163 274.706 113.222 274.677 113.282 274.65C113.782 274.417 114.457 274.283 115.307 274.25L115.332 271.45C115.287 271.452 115.242 271.453 115.198 271.455C114.052 271.505 113.096 271.664 112.328 271.931C112.25 271.958 112.175 271.986 112.101 272.015C112.088 272.021 112.074 272.026 112.06 272.032C112.026 272.046 111.991 272.06 111.957 272.075C111.107 272.442 110.424 273.033 109.907 273.85C109.806 274.011 109.707 274.184 109.612 274.371C109.602 274.392 109.591 274.412 109.581 274.433C109.206 275.188 108.881 276.152 108.607 277.325C108.595 277.379 108.582 277.433 108.57 277.487C108.567 277.5 108.564 277.513 108.561 277.526C108.369 278.381 108.235 279.164 108.157 279.875C108.146 279.974 108.136 280.076 108.127 280.182C108.127 280.184 108.127 280.187 108.126 280.189C108.064 280.904 108.032 281.783 108.032 282.825C108.032 283.879 108.064 284.766 108.129 285.486C108.129 285.488 108.129 285.49 108.129 285.493C108.138 285.59 108.147 285.684 108.157 285.775C108.235 286.486 108.369 287.269 108.561 288.124C108.564 288.137 108.567 288.15 108.57 288.163C108.582 288.217 108.595 288.271 108.607 288.325C108.881 289.498 109.206 290.462 109.581 291.217C109.591 291.238 109.602 291.258 109.612 291.279C109.707 291.466 109.806 291.639 109.907 291.8C110.424 292.617 111.099 293.208 111.932 293.575C111.973 293.593 112.014 293.61 112.056 293.627C112.07 293.632 112.084 293.638 112.097 293.643C112.172 293.672 112.249 293.7 112.328 293.727C113.094 293.99 114.05 294.145 115.198 294.195C115.242 294.197 115.287 294.198 115.332 294.2L115.307 291.4C114.457 291.367 113.782 291.233 113.282 291C113.222 290.973 113.162 290.943 113.104 290.911C113.098 290.907 113.092 290.904 113.086 290.9ZM123.772 287.775L121.247 285.95L122.497 284.2L124.172 282.7L122.072 282.4L119.922 281.7L120.797 278.975L123.097 279.65L124.772 280.625L124.347 278.55V276.325H127.522V278.55L127.122 280.6L128.822 279.65L131.147 278.925L132.047 281.75L129.847 282.45L127.747 282.7L129.322 284.15L130.672 285.975L128.222 287.8L126.772 285.85L125.947 284.125L125.122 285.875L123.772 287.775ZM125.986 289.8C126.453 290.321 127.089 290.666 127.787 290.768C128.575 290.884 129.376 290.681 130.015 290.206L132.465 288.381C132.786 288.141 133.046 287.85 133.241 287.527C133.608 287.686 134.012 287.775 134.438 287.775H136.488V290.175C136.488 291.832 137.831 293.175 139.488 293.175H142.438C144.095 293.175 145.438 291.832 145.438 290.175V287.775H147.488C147.91 287.775 148.312 287.688 148.677 287.53C148.877 287.854 149.143 288.145 149.471 288.381L151.996 290.206C152.644 290.675 153.452 290.865 154.242 290.735C154.909 290.625 155.515 290.293 155.967 289.8C156.433 290.321 157.07 290.666 157.768 290.768C158.555 290.884 159.357 290.681 159.995 290.206L162.445 288.381C163.675 287.465 164.002 285.785 163.258 284.486C163.873 284.21 164.38 283.733 164.693 283.128C165.058 282.421 165.128 281.598 164.886 280.839L163.986 278.014C163.512 276.526 161.983 275.664 160.485 275.995C160.32 274.493 159.048 273.325 157.503 273.325H154.328C152.771 273.325 151.491 274.511 151.342 276.028C149.869 275.744 148.389 276.601 147.922 278.058L147.578 279.126C147.548 279.125 147.518 279.125 147.488 279.125H145.438V276.875C145.438 275.218 144.095 273.875 142.438 273.875H139.488C137.831 273.875 136.488 275.218 136.488 276.875V279.125H134.438C134.412 279.125 134.386 279.125 134.36 279.126L134.006 278.014C133.532 276.526 132.003 275.664 130.504 275.995C130.34 274.493 129.068 273.325 127.522 273.325H124.347C122.791 273.325 121.511 274.511 121.362 276.028C119.889 275.744 118.409 276.601 117.941 278.058L117.066 280.783C116.597 282.242 117.305 283.798 118.664 284.424C117.882 285.744 118.223 287.466 119.49 288.381L122.015 290.206C122.663 290.675 123.472 290.865 124.261 290.735C124.928 290.625 125.535 290.293 125.986 289.8ZM134.438 282.125V284.775H139.488V290.175H142.438V284.775H147.488V282.125H142.438V276.875H139.488V282.125H134.438ZM151.228 285.95L153.753 287.775L155.103 285.875L155.928 284.125L156.753 285.85L158.203 287.8L160.653 285.975L159.303 284.15L157.728 282.7L159.828 282.45L162.028 281.75L161.128 278.925L158.803 279.65L157.103 280.6L157.503 278.55V276.325H154.328V278.55L154.753 280.625L153.078 279.65L150.778 278.975L149.903 281.7L152.053 282.4L154.153 282.7L152.478 284.2L151.228 285.95ZM163.618 291.373C163.633 289.773 164.901 288.465 166.501 288.402C166.805 288.39 167.022 288.362 167.167 288.333C167.187 288.329 167.204 288.326 167.22 288.322C167.303 288.141 167.438 287.761 167.567 287.086C167.724 286.191 167.826 285.468 167.883 284.904C167.937 284.343 167.968 283.653 167.968 282.825C167.968 281.993 167.937 281.314 167.883 280.774L167.882 280.766C167.826 280.187 167.723 279.456 167.567 278.562C167.437 277.889 167.303 277.509 167.22 277.328C167.204 277.324 167.187 277.321 167.167 277.317C167.022 277.288 166.805 277.26 166.501 277.248C164.901 277.185 163.633 275.877 163.618 274.277L163.593 271.477C163.586 270.658 163.914 269.872 164.5 269.3C165.087 268.729 165.882 268.423 166.7 268.452C168.301 268.509 169.836 268.751 171.156 269.32C172.586 269.937 173.729 270.943 174.553 272.246C175.324 273.464 175.853 274.987 176.24 276.643L176.24 276.647C176.478 277.67 176.652 278.641 176.751 279.551C176.85 280.467 176.893 281.569 176.893 282.825C176.893 284.081 176.85 285.183 176.751 286.099C176.652 287.009 176.478 287.98 176.24 289.003L176.24 289.007C175.853 290.663 175.324 292.186 174.553 293.404C173.731 294.704 172.592 295.708 171.167 296.325C169.848 296.903 168.303 297.142 166.699 297.198C165.881 297.227 165.086 296.92 164.5 296.349C163.914 295.778 163.586 294.992 163.593 294.173L163.618 291.373ZM173.854 280.18C173.854 280.181 173.854 280.182 173.854 280.184L173.799 280.189C173.799 280.187 173.798 280.184 173.798 280.182L173.853 280.176C173.853 280.178 173.854 280.179 173.854 280.18ZM172.339 274.423L172.443 274.368C172.437 274.357 172.431 274.346 172.425 274.335C172.915 275.218 173.224 276.251 173.433 277.298C173.433 277.298 173.433 277.298 173.433 277.298C173.444 277.354 173.455 277.41 173.466 277.466L173.473 277.507C173.625 278.373 173.743 279.163 173.821 279.869C173.833 279.975 173.844 280.078 173.854 280.18M172.308 274.361C172.318 274.381 172.329 274.402 172.339 274.423L172.308 274.361ZM172.308 274.361C172.214 274.178 172.118 274.007 172.018 273.85C171.501 273.033 170.818 272.442 169.968 272.075C169.939 272.062 169.909 272.05 169.879 272.038C169.843 272.023 169.806 272.008 169.769 271.994C169.713 271.972 169.656 271.951 169.598 271.931C168.83 271.664 167.873 271.505 166.728 271.455C166.683 271.453 166.638 271.452 166.593 271.45L166.618 274.25C167.468 274.283 168.135 274.417 168.618 274.65C168.686 274.679 168.752 274.712 168.816 274.747C169.105 274.906 169.353 275.126 169.56 275.405C169.645 275.518 169.722 275.642 169.793 275.775C170.088 276.299 170.327 277.034 170.509 277.977C170.509 277.978 170.509 277.979 170.51 277.98L170.397 278.007C170.396 278.006 170.396 278.004 170.396 278.003C170.399 278.017 170.402 278.031 170.405 278.045M170.406 278.046L170.518 278.025L170.406 278.046ZM169.88 293.613C169.909 293.6 169.939 293.588 169.968 293.575C170.818 293.208 171.501 292.617 172.018 291.8C172.118 291.643 172.214 291.472 172.308 291.289C172.318 291.269 172.329 291.248 172.339 291.227C172.717 290.471 173.043 289.503 173.318 288.325M169.793 289.875C170.088 289.351 170.327 288.616 170.509 287.673C170.509 287.672 170.509 287.671 170.51 287.67C170.512 287.655 170.515 287.64 170.518 287.625C170.664 286.794 170.772 286.071 170.841 285.457C170.851 285.369 170.86 285.283 170.868 285.2C170.935 284.517 170.968 283.725 170.968 282.825C170.968 281.925 170.935 281.142 170.868 280.475M169.793 289.875C169.722 290.008 169.645 290.132 169.56 290.245C169.353 290.524 169.105 290.744 168.816 290.903C168.809 290.907 168.803 290.91 168.797 290.913C168.739 290.945 168.679 290.973 168.618 291C168.135 291.233 167.468 291.367 166.618 291.4L166.593 294.2C166.638 294.198 166.683 294.197 166.728 294.195C167.884 294.145 168.84 293.987 169.598 293.721C169.656 293.7 169.713 293.679 169.77 293.657C169.807 293.643 169.843 293.628 169.88 293.613M53.3713 285.925V290.5H48.6213V285.925H53.3713ZM53.3713 276.1V280.675H48.6213V276.1H53.3713Z" fill="white"/>
<path d="M48.6213 285.925H53.3713V290.5H48.6213V285.925ZM48.6213 276.1H53.3713V280.675H48.6213V276.1Z" fill="#C73D70"/>
<path d="M60.2115 277.95H63.2615V279.75H63.4615C63.9282 278.933 64.4115 278.375 64.9115 278.075C65.4115 277.775 66.1199 277.625 67.0365 277.625C68.3032 277.625 69.2782 277.783 69.9615 278.1C70.6448 278.4 71.1282 278.917 71.4115 279.65C71.7115 280.367 71.8615 281.4 71.8615 282.75V291H68.8115V282.7C68.8115 281.783 68.6365 281.158 68.2865 280.825C67.9532 280.492 67.3198 280.325 66.3865 280.325C65.5698 280.325 64.9365 280.442 64.4865 280.675C64.0532 280.908 63.7365 281.308 63.5365 281.875C63.3532 282.425 63.2615 283.208 63.2615 284.225V291H60.2115V277.95Z" fill="#C73D70"/>
<path d="M81.0018 291.225C79.3851 291.225 78.1351 291.025 77.2517 290.625C76.3684 290.208 75.7351 289.525 75.3517 288.575C74.9851 287.608 74.8017 286.233 74.8017 284.45C74.8017 282.65 74.9851 281.267 75.3517 280.3C75.7351 279.333 76.3601 278.65 77.2267 278.25C78.1101 277.833 79.3684 277.625 81.0018 277.625C82.6351 277.625 83.8851 277.833 84.7518 278.25C85.6351 278.65 86.2601 279.333 86.6268 280.3C87.0101 281.267 87.2018 282.65 87.2018 284.45C87.2018 286.233 87.0101 287.608 86.6268 288.575C86.2601 289.525 85.6351 290.208 84.7518 290.625C83.8684 291.025 82.6184 291.225 81.0018 291.225ZM77.8517 284.45C77.8517 285.55 77.9434 286.4 78.1267 287C78.3267 287.583 78.6434 288 79.0767 288.25C79.5268 288.5 80.1684 288.625 81.0018 288.625C81.8351 288.625 82.4684 288.5 82.9017 288.25C83.3517 288 83.6684 287.583 83.8517 287C84.0518 286.4 84.1517 285.55 84.1517 284.45C84.1517 283.333 84.0518 282.475 83.8517 281.875C83.6684 281.275 83.3517 280.85 82.9017 280.6C82.4684 280.333 81.8351 280.2 81.0018 280.2C80.1684 280.2 79.5268 280.333 79.0767 280.6C78.6434 280.85 78.3267 281.275 78.1267 281.875C77.9434 282.475 77.8517 283.333 77.8517 284.45Z" fill="#C73D70"/>
<path d="M97.617 291.275C96.417 291.275 95.5086 291.117 94.892 290.8C94.2753 290.483 93.8587 290.017 93.642 289.4C93.4253 288.767 93.317 287.908 93.317 286.825V280.525H90.092L90.692 277.95H93.417V275.3L96.317 274.075V277.95H101.192V280.525H96.317V286.725C96.317 287.258 96.3587 287.65 96.442 287.9C96.542 288.15 96.742 288.333 97.042 288.45C97.3587 288.567 97.8337 288.625 98.467 288.625C99.1837 288.625 100.225 288.525 101.592 288.325V290.95C99.8587 291.167 98.5337 291.275 97.617 291.275Z" fill="#C73D70"/>
<path d="M115.332 294.2C113.916 294.15 112.782 293.942 111.932 293.575C111.099 293.208 110.424 292.617 109.907 291.8C109.391 290.983 108.957 289.825 108.607 288.325C108.391 287.392 108.241 286.542 108.157 285.775C108.074 285.008 108.032 284.025 108.032 282.825C108.032 281.625 108.074 280.642 108.157 279.875C108.241 279.108 108.391 278.258 108.607 277.325C108.957 275.825 109.391 274.667 109.907 273.85C110.424 273.033 111.107 272.442 111.957 272.075C112.807 271.708 113.932 271.5 115.332 271.45L115.307 274.25C114.457 274.283 113.782 274.417 113.282 274.65C112.799 274.867 112.407 275.242 112.107 275.775C111.824 276.308 111.591 277.058 111.407 278.025C111.241 278.975 111.124 279.792 111.057 280.475C110.991 281.142 110.957 281.925 110.957 282.825C110.957 283.725 110.991 284.517 111.057 285.2C111.124 285.867 111.241 286.675 111.407 287.625C111.591 288.592 111.824 289.342 112.107 289.875C112.407 290.408 112.799 290.783 113.282 291C113.782 291.233 114.457 291.367 115.307 291.4L115.332 294.2Z" fill="#C73D70"/>
<path d="M126.772 285.85L125.947 284.125L125.122 285.875L123.772 287.775L121.247 285.95L122.497 284.2L124.172 282.7L122.072 282.4L119.922 281.7L120.797 278.975L123.097 279.65L124.772 280.625L124.347 278.55V276.325H127.522V278.55L127.122 280.6L128.822 279.65L131.147 278.925L132.047 281.75L129.847 282.45L127.747 282.7L129.322 284.15L130.672 285.975L128.222 287.8L126.772 285.85Z" fill="#C73D70"/>
<path d="M139.488 284.775H134.438V282.125H139.488V276.875H142.438V282.125H147.488V284.775H142.438V290.175H139.488V284.775Z" fill="#C73D70"/>
<path d="M156.753 285.85L155.928 284.125L155.103 285.875L153.753 287.775L151.228 285.95L152.478 284.2L154.153 282.7L152.053 282.4L149.903 281.7L150.778 278.975L153.078 279.65L154.753 280.625L154.328 278.55V276.325H157.503V278.55L157.103 280.6L158.803 279.65L161.128 278.925L162.028 281.75L159.828 282.45L157.728 282.7L159.303 284.15L160.653 285.975L158.203 287.8L156.753 285.85Z" fill="#C73D70"/>
<path d="M166.618 291.4C167.468 291.367 168.135 291.233 168.618 291C169.118 290.783 169.51 290.408 169.793 289.875C170.093 289.342 170.335 288.592 170.518 287.625C170.685 286.675 170.801 285.867 170.868 285.2C170.935 284.517 170.968 283.725 170.968 282.825C170.968 281.925 170.935 281.142 170.868 280.475C170.801 279.792 170.685 278.975 170.518 278.025C170.335 277.058 170.093 276.308 169.793 275.775C169.51 275.242 169.118 274.867 168.618 274.65C168.135 274.417 167.468 274.283 166.618 274.25L166.593 271.45C167.993 271.5 169.118 271.708 169.968 272.075C170.818 272.442 171.501 273.033 172.018 273.85C172.535 274.667 172.968 275.825 173.318 277.325C173.535 278.258 173.685 279.108 173.768 279.875C173.851 280.642 173.893 281.625 173.893 282.825C173.893 284.025 173.851 285.008 173.768 285.775C173.685 286.542 173.535 287.392 173.318 288.325C172.968 289.825 172.535 290.983 172.018 291.8C171.501 292.617 170.818 293.208 169.968 293.575C169.135 293.942 168.01 294.15 166.593 294.2L166.618 291.4Z" fill="#C73D70"/>
<defs>
<filter id="filter0_d_4026_4" x="8" y="0.000343323" width="263.238" height="380" filterUnits="userSpaceOnUse" color-interpolation-filters="sRGB">
<feFlood flood-opacity="0" result="BackgroundImageFix"/>
<feColorMatrix in="SourceAlpha" type="matrix" values="0 0 0 0 0 0 0 0 0 0 0 0 0 0 0 0 0 0 127 0" result="hardAlpha"/>
<feOffset dy="4"/>
<feGaussianBlur stdDeviation="2"/>
<feComposite in2="hardAlpha" operator="out"/>
<feColorMatrix type="matrix" values="0 0 0 0 0 0 0 0 0 0 0 0 0 0 0 0 0 0 0.25 0"/>
<feBlend mode="normal" in2="BackgroundImageFix" result="effect1_dropShadow_4026_4"/>
<feBlend mode="normal" in="SourceGraphic" in2="effect1_dropShadow_4026_4" result="shape"/>
</filter>
<filter id="filter1_d_4026_4" x="31.0605" y="132.5" width="220.346" height="76.3066" filterUnits="userSpaceOnUse" color-interpolation-filters="sRGB">
<feFlood flood-opacity="0" result="BackgroundImageFix"/>
<feColorMatrix in="SourceAlpha" type="matrix" values="0 0 0 0 0 0 0 0 0 0 0 0 0 0 0 0 0 0 127 0" result="hardAlpha"/>
<feOffset dy="4"/>
<feGaussianBlur stdDeviation="2"/>
<feComposite in2="hardAlpha" operator="out"/>
<feColorMatrix type="matrix" values="0 0 0 0 0 0 0 0 0 0 0 0 0 0 0 0 0 0 0.4 0"/>
<feBlend mode="normal" in2="BackgroundImageFix" result="effect1_dropShadow_4026_4"/>
<feBlend mode="normal" in="SourceGraphic" in2="effect1_dropShadow_4026_4" result="shape"/>
</filter>
<linearGradient id="paint0_linear_4026_4" x1="181.833" y1="157.5" x2="181.833" y2="191.956" gradientUnits="userSpaceOnUse">
<stop stop-color="#283A99"/>
<stop offset="1" stop-color="#4361FF"/>
</linearGradient>
<linearGradient id="paint1_linear_4026_4" x1="101.333" y1="157.5" x2="101.333" y2="191.956" gradientUnits="userSpaceOnUse">
<stop stop-color="#283A99"/>
<stop offset="1" stop-color="#4361FF"/>
</linearGradient>
<linearGradient id="paint2_linear_4026_4" x1="141.233" y1="132.5" x2="141.233" y2="200.807" gradientUnits="userSpaceOnUse">
<stop stop-color="#1E2225"/>
<stop offset="1" stop-color="#565B52"/>
</linearGradient>
</defs>
</svg>
