<svg width="280" height="380" viewBox="0 0 280 380" fill="none" xmlns="http://www.w3.org/2000/svg">
<g filter="url(#filter0_d_4026_4)">
<path d="M242.581 235C253.585 235 262.248 244.306 261.542 255.215L261.501 255.735L252.418 354.735C251.521 364.515 243.319 372 233.499 372H40.6226C30.9552 372 22.856 364.748 21.7495 355.192L21.7026 354.735L12.6196 255.735C11.5986 244.603 20.3618 235 31.5405 235V242L31.2105 242.005C24.3085 242.19 18.9554 248.176 19.5903 255.097L28.6733 354.097C29.2225 360.08 34.1011 364.703 40.0444 364.986L40.6226 365H233.499L234.077 364.986C239.828 364.712 244.583 360.374 245.381 354.671L245.448 354.097L254.531 255.097C255.166 248.176 249.813 242.19 242.911 242.005L242.581 242V235ZM142.884 0.142576C147.305 -0.00973824 152.84 -0.083794 158.437 0.149412L159.678 0.208005C165.907 0.541432 172.442 1.42306 177.393 2.20801H177.394L179.322 2.52148C181.168 2.82896 182.757 3.1142 183.975 3.34179L185.889 3.70996L186.417 3.81543L186.48 3.82812C186.498 3.83172 186.532 3.83831 186.563 3.84472L186.595 3.85254C186.602 3.8539 186.61 3.85466 186.619 3.85644C186.616 3.85579 186.612 3.85611 186.609 3.85547C186.612 3.85609 186.615 3.8568 186.618 3.85742H186.623L186.666 3.86719C186.664 3.86678 186.662 3.86663 186.66 3.86621C186.666 3.86761 186.672 3.86881 186.678 3.87011C186.77 3.88984 186.861 3.91125 186.952 3.93457L187.16 3.98242L208.16 9.48242L208.161 9.4834L208.524 9.58496C212.125 10.6677 214.87 13.5965 215.723 17.252L215.802 17.6201V17.6211L215.869 17.9912C216.033 19.0242 216.037 20.06 215.899 21.0684L222.931 24.8701L240.9 34.3545L241.216 34.5293C244.349 36.3224 246.341 39.6011 246.49 43.207L246.499 43.5684V43.5693L246.495 43.9307C246.445 45.7207 245.94 47.4368 245.064 48.9365L247.449 52.2627L247.564 52.4277L247.677 52.5957L247.789 52.7666L248.466 53.8633C251.795 59.3808 254.222 65.3971 255.654 71.6855V71.6865L258.275 83.2041L258.312 83.3779L258.349 83.5625L258.397 83.8203L258.531 84.6445L258.54 84.7031C259.256 89.3653 259.369 94.0306 259.388 98.1221V98.165L259.387 98.8027C259.387 98.8187 259.387 98.8356 259.387 98.8516C259.361 102.034 259.065 105.176 258.543 108.247L258.306 109.56L253.341 135.454C253.01 137.523 252.597 139.594 252.142 141.646C253.472 142.992 254.406 144.871 254.406 147.376V147.641C264.103 152.962 269.254 163.882 266.499 174.625L266.361 175.142L256.541 210.167C254.228 218.413 247.67 224.706 239.482 227.152L238.684 227.377L231.495 229.282C230.73 231.21 229.906 233.117 229.021 235H242.581V242H217.243C220.95 236.072 223.969 229.815 226.252 223.328C226.634 223.291 227.02 223.227 227.408 223.124L236.892 220.61C243.218 218.934 248.128 214.244 249.8 208.277L259.621 173.251C261.761 165.615 258.163 157.582 250.852 153.676L247.406 151.834V147.376C247.406 146.541 246.551 145.864 245.497 145.864H243.933C244.923 141.959 245.841 138.066 246.449 134.229L251.431 108.241C252.025 105.14 252.361 101.978 252.387 98.792L252.388 98.1543C252.37 94.1286 252.254 89.8917 251.621 85.7656L251.487 84.9414L251.45 84.7568L248.829 73.2393C247.478 67.3078 245.126 61.6494 241.874 56.5088L241.76 56.3408L235.649 47.8174L237.675 46.7129C238.807 46.0955 239.507 44.9054 239.499 43.6162C239.49 42.327 238.773 41.1467 237.632 40.5449L219.664 31.0605L205.972 23.6592L207.599 22.4404C208.673 21.6346 209.191 20.2847 208.933 18.9668C208.674 17.6491 207.685 16.5943 206.386 16.2539L185.386 10.7539C185.328 10.7386 185.267 10.7252 185.208 10.7129L185.207 10.7119C185.206 10.7118 185.205 10.7121 185.204 10.7119C185.201 10.7114 185.198 10.7108 185.194 10.71C185.186 10.7083 185.174 10.7052 185.159 10.7021C185.129 10.696 185.085 10.6873 185.028 10.6758C184.914 10.6527 184.747 10.6187 184.532 10.5762C184.101 10.491 183.475 10.3696 182.689 10.2227C181.117 9.9289 178.897 9.53325 176.297 9.12109C171.12 8.3003 164.342 7.40081 158.145 7.14258C152.013 6.88708 145.907 7.01531 141.353 7.20508C139.071 7.30015 137.168 7.41157 135.833 7.49902C135.165 7.54275 134.638 7.58029 134.276 7.60742C134.095 7.62097 133.955 7.63207 133.86 7.63965C133.812 7.6434 133.776 7.64637 133.75 7.64844C133.738 7.64947 133.727 7.65079 133.72 7.65136C133.717 7.65161 133.714 7.65121 133.712 7.65136L133.711 7.65234C133.71 7.65245 133.708 7.65216 133.706 7.65234C133.699 7.65291 133.688 7.6542 133.675 7.65527C133.649 7.65744 133.609 7.65988 133.559 7.66406C133.458 7.67246 133.31 7.68506 133.121 7.70117C132.742 7.73343 132.199 7.78058 131.536 7.84082C130.21 7.96121 128.4 8.1344 126.465 8.34375C122.99 8.71985 118.677 9.25518 116.265 9.88379L115.809 10.0107C113.144 10.8063 109.576 12.1183 106.139 13.6494C102.785 15.144 99.2871 16.965 96.8833 18.8516L86.3745 26.8232L84.7661 21.584C84.3746 20.3093 83.2917 19.367 81.9751 19.1553C80.741 18.957 79.501 19.4324 78.7153 20.3887L78.5649 20.5869L62.3687 43.4307C58.2785 49.1999 56.0584 56.0831 56.0015 63.1504C44.2761 67.32 35.6577 77.4343 33.4077 89.6611L33.3042 90.25L32.521 94.959C31.8176 99.1872 31.7523 103.498 32.3276 107.745L37.4917 145.864H36.9692C35.9151 145.864 35.0601 146.541 35.0601 147.376V150.255C34.8656 150.333 34.6733 150.421 34.4839 150.519L28.648 153.52C21.2704 157.314 17.5345 165.292 19.5435 172.96L28.7573 208.131C30.3271 214.122 35.1559 218.886 41.4517 220.658L50.8911 223.315C51.3979 223.458 51.9028 223.538 52.3989 223.569C54.9343 229.962 58.1151 236.133 61.9028 242H31.5405V235H49.854C48.9599 233.214 48.1163 231.407 47.3208 229.582L39.5552 227.396C31.2988 225.073 24.6541 218.863 22.2095 210.7L21.9858 209.904L12.772 174.734C9.8769 163.684 15.3478 152.489 25.4458 147.295L28.1782 145.889C28.4292 144.348 29.0668 143.094 29.9165 142.094L25.3911 108.686C24.7218 103.744 24.7974 98.7294 25.6157 93.8105L26.3989 89.1016L26.4097 89.0381L26.5132 88.4492L26.523 88.3945C28.9392 75.2635 37.4674 64.1666 49.3071 58.3838C50.1404 51.565 52.6546 45.0306 56.6587 39.3828L72.855 16.5391L72.9878 16.3564L73.1382 16.1582L73.3062 15.9463L73.5317 15.6807C75.8977 12.9874 79.4991 11.668 83.0855 12.2441H83.0864L83.4546 12.3105C85.7945 12.7724 87.8668 14.0074 89.3765 15.7598L92.6528 13.2754C95.7415 10.8732 99.8312 8.79717 103.291 7.25586L104.677 6.65136C107.923 5.26788 111.197 4.08266 113.807 3.30371L113.932 3.26758L114.388 3.14062L114.5 3.11035L115.084 2.96582C118.106 2.25544 122.568 1.72497 125.712 1.38476L128.544 1.09277C129.425 1.00627 130.226 0.931566 130.903 0.870115L132.526 0.72656L132.98 0.688474L133.049 0.683591C133.068 0.681831 133.093 0.680148 133.122 0.677732C133.126 0.677371 133.13 0.676132 133.134 0.675779H133.149C133.16 0.674841 133.171 0.672838 133.183 0.671873L133.306 0.662107L133.752 0.627927L135.375 0.514646L137.857 0.366209C138.813 0.31403 139.889 0.260786 141.062 0.211912L142.884 0.142576ZM186.752 3.88574C186.754 3.88601 186.754 3.88747 186.755 3.88769C186.752 3.887 186.748 3.885 186.743 3.88379C186.739 3.88298 186.734 3.88209 186.729 3.88086C186.739 3.8832 186.747 3.88459 186.752 3.88574ZM186.695 3.87304C186.708 3.87599 186.72 3.87879 186.729 3.88086C186.717 3.8781 186.701 3.87489 186.684 3.87109C186.682 3.87067 186.68 3.87055 186.678 3.87011C186.674 3.8692 186.67 3.86809 186.666 3.86719C186.677 3.86957 186.687 3.87122 186.695 3.87304ZM186.209 3.78613C186.192 3.78356 186.174 3.78169 186.157 3.77929C186.174 3.78168 186.192 3.78356 186.209 3.78613ZM184.552 3.74316C184.544 3.7439 184.538 3.74382 184.535 3.74414L184.531 3.74511H184.532C184.533 3.74497 184.538 3.74465 184.543 3.74414C184.546 3.74388 184.549 3.74352 184.553 3.74316H184.552ZM185.837 3.74219C185.827 3.74124 185.816 3.73917 185.806 3.73828C185.799 3.73766 185.792 3.73789 185.785 3.7373C185.802 3.73874 185.82 3.74057 185.837 3.74219ZM184.947 3.71679C184.934 3.71725 184.922 3.71825 184.911 3.71875C184.929 3.71798 184.948 3.71746 184.967 3.71679C184.96 3.71703 184.954 3.71655 184.947 3.71679ZM133.014 0.687498C132.989 0.689897 132.972 0.690903 132.967 0.691404H132.98C132.984 0.691024 132.988 0.689932 132.993 0.689451C132.998 0.688886 133.006 0.688338 133.014 0.687498ZM133.002 0.688474H133.009L133.018 0.687498C133.01 0.688354 133.003 0.688431 133.002 0.688474ZM133.417 0.659177C133.361 0.661617 133.301 0.66658 133.239 0.670896C133.316 0.665744 133.388 0.660606 133.455 0.658201C133.442 0.658646 133.43 0.658649 133.417 0.659177ZM133.955 0.656248C133.974 0.656924 133.99 0.656848 134 0.657224C134.004 0.657408 134.008 0.658102 134.01 0.658201H134.011C134.009 0.658113 134.006 0.657396 134.001 0.657224C133.993 0.656884 133.98 0.656822 133.963 0.656248C133.947 0.655669 133.926 0.654923 133.903 0.654295H133.901C133.922 0.654856 133.94 0.65575 133.955 0.656248ZM133.498 0.656248C133.479 0.656833 133.46 0.657433 133.441 0.658201C133.46 0.657444 133.479 0.656812 133.498 0.656248ZM133.603 0.654295C133.588 0.654542 133.573 0.65491 133.557 0.655271C133.537 0.655704 133.517 0.656568 133.496 0.657224C133.549 0.655609 133.599 0.654702 133.645 0.654295C133.631 0.654422 133.617 0.654072 133.603 0.654295Z" fill="white"/>
</g>
<path d="M23.148 172.128C21.5408 165.993 24.5299 159.611 30.4319 156.576L36.2676 153.574C37.6792 152.848 39.4501 153.31 40.2606 154.615L43.3214 159.545L55.7203 216.752C56.1678 218.816 54.1072 220.583 51.9571 219.978L42.5174 217.321C37.4807 215.903 33.6182 212.091 32.3625 207.298L23.148 172.128Z" fill="#EDD5BE"/>
<path d="M23.148 172.128C21.5408 165.993 24.5299 159.611 30.4319 156.576L36.2676 153.574C37.6792 152.848 39.4501 153.31 40.2606 154.615L43.3214 159.545L55.7203 216.752C56.1678 218.816 54.1072 220.583 51.9571 219.978L42.5174 217.321C37.4807 215.903 33.6182 212.091 32.3625 207.298L23.148 172.128Z" fill="#EDD5BE"/>
<path d="M52.9877 204.144C50.7575 206.375 48.1443 207.752 45.2595 208.027C39.7032 208.556 34.2591 204.886 30.0877 198.616L32.3625 207.298C33.6182 212.091 37.4807 215.903 42.5174 217.321L51.9571 219.978C54.1072 220.583 56.1678 218.816 55.7203 216.752L52.9877 204.144Z" fill="#E2CBB4"/>
<path fill-rule="evenodd" clip-rule="evenodd" d="M34.4836 150.518C37.6598 148.884 41.6444 149.923 43.4681 152.861C45.699 156.454 47.2877 160.366 48.1711 164.441L59.3581 216.057C60.365 220.702 55.7287 224.677 50.8909 223.315L41.4513 220.659C35.1553 218.887 30.3272 214.122 28.7576 208.13L19.5431 172.96C17.5341 165.292 21.2704 157.314 28.648 153.52L34.4836 150.518ZM39.9426 161.435C39.8519 161.016 39.6888 160.615 39.4597 160.246C38.3231 158.415 35.8397 157.768 33.8601 158.786L32.2159 159.631C27.7893 161.908 25.5476 166.695 26.7529 171.296L35.9674 206.466C36.9092 210.061 39.8061 212.92 43.5836 213.983C47.317 215.034 50.8949 211.967 50.1178 208.382L39.9426 161.435Z" fill="black"/>
<path d="M256.03 172.365C257.743 166.255 254.865 159.829 249.016 156.704L243.233 153.614C241.834 152.866 240.055 153.301 239.222 154.594L236.077 159.477L222.692 216.487C222.209 218.545 224.239 220.342 226.399 219.77L235.883 217.257C240.944 215.917 244.872 212.164 246.21 207.391L256.03 172.365Z" fill="#EDD5BE"/>
<path d="M256.03 172.365C257.743 166.255 254.865 159.829 249.016 156.704L243.233 153.614C241.834 152.866 240.055 153.301 239.222 154.594L236.077 159.477L222.692 216.487C222.209 218.545 224.239 220.342 226.399 219.77L235.883 217.257C240.944 215.917 244.872 212.164 246.21 207.391L256.03 172.365Z" fill="#EDD5BE"/>
<path d="M225.645 203.928C227.836 206.193 230.425 207.61 233.305 207.928C238.851 208.541 244.358 204.955 248.637 198.749L246.213 207.396C244.875 212.169 240.947 215.922 235.886 217.263L226.402 219.775C224.242 220.348 222.212 218.55 222.695 216.493L225.645 203.928Z" fill="#E2CBB4"/>
<path fill-rule="evenodd" clip-rule="evenodd" d="M245.069 150.585C241.922 148.904 237.92 149.882 236.046 152.791C233.753 156.35 232.097 160.237 231.143 164.299L219.067 215.737C217.98 220.367 222.547 224.411 227.408 223.124L236.892 220.611C243.217 218.935 248.127 214.244 249.8 208.277L259.62 173.251C261.761 165.615 258.163 157.582 250.852 153.675L245.069 150.585ZM239.423 161.418C239.52 161.001 239.69 160.601 239.926 160.236C241.094 158.423 243.588 157.813 245.55 158.861L247.179 159.732C251.566 162.076 253.725 166.896 252.44 171.478L242.62 206.504C241.616 210.083 238.67 212.898 234.875 213.904C231.124 214.898 227.599 211.776 228.438 208.204L239.423 161.418Z" fill="black"/>
<path d="M67.9983 56.6643L138.729 30.6578L211.404 53.0161L236.553 125.756C237.405 136.104 236.951 146.508 235.199 156.761L225.957 201.763C223.514 216.061 218.035 235.764 208.955 247.631C201.931 256.81 193.186 264.785 183.121 271.19L173.843 277.094C165.635 282.317 155.442 284.256 145.628 282.46C141.07 281.626 136.38 281.589 131.807 282.352L131.526 282.399C120.596 284.223 109.337 281.614 100.687 275.253L92.5204 269.248C85.5258 264.105 79.2034 258.245 73.6776 251.783C61.2402 237.24 53.143 220.007 50.1741 201.763L42.7903 156.387C41.1619 146.38 40.768 136.239 41.6158 126.152L67.9983 56.6643Z" fill="#EDD5BE"/>
<path d="M140.425 281.857C182.759 260.342 215.691 222.373 231.222 176.129L225.957 201.763C223.514 216.061 218.035 235.764 208.955 247.631C201.931 256.81 193.186 264.785 183.121 271.19L173.843 277.094C165.634 282.317 155.442 284.256 145.628 282.46C143.908 282.145 142.169 281.944 140.425 281.857Z" fill="#E2CBB4"/>
<path fill-rule="evenodd" clip-rule="evenodd" d="M138.682 27.2595L216.998 57.5764L240.254 125.502C241.129 136.109 240.663 146.773 238.867 157.283L230.136 208.387C227.606 223.194 221.402 237.279 211.999 249.569C204.725 259.074 195.668 267.334 185.245 273.967L175.968 279.87C166.928 285.623 155.705 287.757 144.898 285.78C140.801 285.03 136.585 284.997 132.475 285.683L132.194 285.73C120.201 287.731 107.848 284.868 98.3574 277.889L90.1903 271.884C82.9741 266.578 76.4512 260.532 70.7504 253.866C57.9188 238.861 49.5649 221.082 46.502 202.26L39.1181 156.884C37.449 146.627 37.0453 136.232 37.9143 125.893L68.5605 60.5L138.682 27.2595ZM138.776 34.0561L68.5605 60.5L45.3173 126.411C44.4906 136.246 44.8747 146.134 46.4623 155.89L53.8462 201.266C56.721 218.932 64.5616 235.618 76.6048 249.701C81.9554 255.958 88.0775 261.632 94.8504 266.612L103.017 272.618C110.827 278.36 120.991 280.715 130.858 279.069L131.139 279.022C136.175 278.182 141.339 278.222 146.359 279.14C155.18 280.755 164.341 279.012 171.719 274.317L180.997 268.413C190.703 262.237 199.137 254.545 205.91 245.693C214.667 234.249 220.443 221.133 222.799 207.344L231.531 156.24C233.24 146.243 233.682 136.099 232.851 126.01L211.999 57.5764L138.776 34.0561Z" fill="black"/>
<path fill-rule="evenodd" clip-rule="evenodd" d="M139.831 273.082C139.01 273.082 138.346 272.476 138.346 271.728V264.957C138.346 264.209 139.01 263.603 139.831 263.603C140.651 263.603 141.315 264.209 141.315 264.957V271.728C141.315 272.476 140.651 273.082 139.831 273.082Z" fill="#C7B6A5"/>
<path fill-rule="evenodd" clip-rule="evenodd" d="M167.748 218.5C169.405 218.5 170.748 219.843 170.748 221.5C170.748 229.784 164.033 236.5 155.748 236.5H115.998C114.341 236.5 112.998 235.157 112.998 233.5C112.998 231.843 114.341 230.5 115.998 230.5H155.748C160.719 230.5 164.748 226.471 164.748 221.5C164.748 219.843 166.091 218.5 167.748 218.5Z" fill="black"/>
<path fill-rule="evenodd" clip-rule="evenodd" d="M135.127 207.329C138.425 209.528 142.722 209.528 146.02 207.329L152.702 202.874C153.726 202.192 155.109 202.469 155.791 203.492C156.473 204.516 156.197 205.899 155.173 206.581L148.491 211.036C143.696 214.232 137.45 214.232 132.655 211.036L125.973 206.581C124.95 205.899 124.673 204.516 125.355 203.492C126.038 202.469 127.421 202.192 128.444 202.874L135.127 207.329Z" fill="#C7B6A5"/>
<circle cx="181.413" cy="165.44" r="26.8929" fill="white"/>
<circle cx="181.833" cy="174.728" r="17.2282" fill="#4361FF"/>
<circle cx="181.833" cy="174.728" r="17.2282" fill="url(#paint0_linear_4026_4)" fill-opacity="0.7"/>
<circle cx="181.833" cy="174.728" r="11.3454" fill="black"/>
<path d="M154.112 168.854C155.765 169.08 157.288 167.922 157.513 166.269L158.033 162.46C159.136 154.368 164.344 147.42 171.802 144.091C177.481 141.555 183.945 141.367 189.767 143.563C198.122 146.713 204.01 154.299 204.974 163.171L205.302 166.187C205.482 167.846 206.973 169.044 208.632 168.864C210.291 168.684 211.489 167.193 211.309 165.534L210.981 162.518C209.77 151.377 202.381 141.861 191.899 137.909C184.589 135.153 176.474 135.388 169.338 138.573C159.972 142.755 153.432 151.48 152.046 161.644L151.526 165.452C151.301 167.106 152.458 168.629 154.112 168.854Z" fill="black"/>
<path fill-rule="evenodd" clip-rule="evenodd" d="M186.65 170.751C185.83 169.931 185.83 168.6 186.65 167.78L194.214 160.216C195.034 159.396 196.365 159.396 197.185 160.216C198.006 161.037 198.006 162.367 197.185 163.188L189.622 170.751C188.801 171.572 187.471 171.572 186.65 170.751Z" fill="white"/>
<path fill-rule="evenodd" clip-rule="evenodd" d="M185.236 172.165C183.635 170.564 183.635 167.967 185.236 166.366L192.8 158.802C194.401 157.201 196.998 157.201 198.599 158.802C200.201 160.404 200.201 163 198.599 164.602L191.036 172.165C189.434 173.767 186.838 173.767 185.236 172.165ZM186.65 167.78C185.83 168.6 185.83 169.931 186.65 170.751C187.471 171.572 188.801 171.572 189.622 170.751L197.185 163.188C198.006 162.367 198.006 161.037 197.185 160.216C196.365 159.396 195.034 159.396 194.214 160.216L186.65 167.78Z" fill="white"/>
<path fill-rule="evenodd" clip-rule="evenodd" d="M152.976 142.529C154.026 144.29 156.305 144.867 158.066 143.817L167.572 138.15C180.071 130.699 195.895 131.848 207.186 141.028C208.777 142.322 211.115 142.08 212.409 140.49C213.702 138.899 213.461 136.561 211.87 135.267C198.16 124.121 178.947 122.725 163.77 131.773L154.264 137.44C152.503 138.489 151.926 140.768 152.976 142.529Z" fill="black"/>
<circle cx="100.913" cy="165.44" r="26.8929" fill="white"/>
<circle cx="101.333" cy="174.728" r="17.2282" fill="#4361FF"/>
<circle cx="101.333" cy="174.728" r="17.2282" fill="url(#paint1_linear_4026_4)" fill-opacity="0.7"/>
<circle cx="101.333" cy="174.728" r="11.3454" fill="black"/>
<path d="M73.6117 168.854C75.2649 169.08 76.7879 167.922 77.0134 166.269L77.5327 162.46C78.6363 154.368 83.8437 147.42 91.3016 144.091C96.9811 141.555 103.445 141.367 109.267 143.563C117.622 146.713 123.51 154.299 124.474 163.171L124.802 166.187C124.982 167.846 126.473 169.044 128.132 168.864C129.791 168.684 130.989 167.193 130.809 165.534L130.481 162.518C129.27 151.377 121.881 141.861 111.399 137.909C104.09 135.153 95.9745 135.388 88.8384 138.573C79.4719 142.755 72.9317 151.48 71.5457 161.644L71.0264 165.452C70.8009 167.106 71.9584 168.629 73.6117 168.854Z" fill="black"/>
<path fill-rule="evenodd" clip-rule="evenodd" d="M106.15 170.751C105.33 169.931 105.33 168.6 106.15 167.78L113.714 160.216C114.534 159.396 115.865 159.396 116.685 160.216C117.506 161.037 117.506 162.367 116.685 163.188L109.122 170.751C108.301 171.572 106.971 171.572 106.15 170.751Z" fill="white"/>
<path fill-rule="evenodd" clip-rule="evenodd" d="M104.736 172.165C103.135 170.564 103.135 167.967 104.736 166.366L112.3 158.802C113.901 157.201 116.498 157.201 118.099 158.802C119.701 160.404 119.701 163 118.099 164.602L110.536 172.165C108.934 173.767 106.338 173.767 104.736 172.165ZM106.15 167.78C105.33 168.6 105.33 169.931 106.15 170.751C106.971 171.572 108.301 171.572 109.122 170.751L116.685 163.188C117.506 162.367 117.506 161.037 116.685 160.216C115.865 159.396 114.534 159.396 113.714 160.216L106.15 167.78Z" fill="white"/>
<path fill-rule="evenodd" clip-rule="evenodd" d="M128.036 142.529C126.986 144.29 124.707 144.867 122.946 143.817L113.44 138.15C100.94 130.699 85.1171 131.848 73.8255 141.028C72.2346 142.322 69.8965 142.08 68.6031 140.49C67.3098 138.899 67.551 136.561 69.1419 135.267C82.8521 124.121 102.065 122.725 117.242 131.773L126.748 137.44C128.509 138.489 129.086 140.768 128.036 142.529Z" fill="black"/>
<path d="M35.7963 107.276L43.4992 164.14L54.9992 124.331L61.7818 101.711C62.5892 99.0184 63.7767 96.4545 65.3083 94.0969C71.7868 84.1245 83.61 79.0047 95.3155 81.1028L124.623 86.3561C127.535 86.878 130.487 87.1404 133.445 87.1404H157.541C161.169 87.1404 164.786 86.7456 168.329 85.9629L187.199 81.7933C198.744 79.2425 210.747 83.3458 218.313 92.43C221.18 95.8716 223.283 99.883 224.482 104.199L228.499 118.651L235.999 164.14C237.999 153.14 241.499 143.14 242.999 133.64L247.994 107.583C248.588 104.481 248.903 101.329 248.889 98.1706C248.869 93.9079 248.738 89.6165 248.038 85.5337L245.416 74.0168C244.154 68.4732 241.956 63.1854 238.916 58.3809L230.499 46.6404L235.999 43.6404L217.999 34.1404L199.499 24.1404L205.499 19.6404L184.499 14.1404C184.499 14.1404 169.999 11.1405 157.999 10.6405C145.999 10.1405 133.999 11.1404 133.999 11.1404C133.999 11.1404 120.642 12.2214 116.81 13.365C111.797 14.8613 103.103 18.3952 98.9992 21.6404L84.4992 32.6404L81.42 22.6116L65.2243 45.4551C61.4997 50.7085 59.4992 56.9892 59.4992 63.4289C59.4992 64.7528 58.6587 65.9319 57.4079 66.3656C46.5707 70.1236 38.6395 79.5097 36.7571 90.8244L35.9737 95.5337C35.3277 99.4169 35.2679 103.375 35.7963 107.276Z" fill="#5D473B"/>
<path d="M141.353 7.20553C145.907 7.01577 152.013 6.88753 158.145 7.14303C164.342 7.40126 171.12 8.30075 176.297 9.12155C178.897 9.53372 181.117 9.92935 182.689 10.2231C183.475 10.37 184.101 10.4915 184.532 10.5766C184.747 10.6192 184.914 10.6531 185.028 10.6762C185.085 10.6877 185.129 10.6964 185.159 10.7026C185.174 10.7057 185.186 10.7087 185.194 10.7104C185.198 10.7112 185.201 10.7119 185.204 10.7124C185.205 10.7126 185.206 10.7122 185.207 10.7124L185.208 10.7133C185.207 10.7198 185.185 10.8248 184.829 12.5473L185.209 10.7133C185.268 10.7256 185.328 10.739 185.386 10.7544L206.386 16.2544C207.686 16.5948 208.675 17.6493 208.933 18.9672C209.192 20.2852 208.674 21.6351 207.599 22.4409L205.972 23.6596L219.664 31.061H219.663L237.632 40.5454C238.773 41.1472 239.49 42.3273 239.499 43.6167C239.507 44.9059 238.807 46.0959 237.675 46.7133L235.649 47.8178L241.76 56.3413L241.874 56.5092C245.126 61.65 247.478 67.3081 248.829 73.2397L251.45 84.7573L251.487 84.9419L251.621 85.7661C252.255 89.8923 252.37 94.1289 252.388 98.1547L252.387 98.7924C252.361 101.978 252.026 105.141 251.431 108.242L246.449 134.229C245.667 139.161 244.377 144.184 243.075 149.207C241.756 154.294 240.416 159.416 239.443 164.766C239.138 166.441 237.673 167.654 235.97 167.64C234.268 167.626 232.822 166.389 232.546 164.709L225.076 119.407L221.11 105.136C220.11 101.538 218.404 98.1773 216.094 95.2495L215.624 94.6704C209 86.7181 198.554 83.0576 188.436 85.1088L187.955 85.2104L169.084 89.3803C165.293 90.2178 161.423 90.6401 157.541 90.6401H133.445C130.676 90.6401 127.911 90.4253 125.176 89.9975L124.006 89.8012L94.6979 84.5483C84.5396 82.7275 74.2804 87.0721 68.5143 95.5942L68.2438 96.0034C66.9779 97.9519 65.9786 100.061 65.2721 102.273L65.1344 102.716L58.361 125.301L58.362 125.302L46.862 165.112C46.4028 166.701 44.8929 167.752 43.2428 167.631C41.6961 167.518 40.422 166.403 40.0856 164.914L40.0309 164.61L32.3278 107.746C31.7524 103.498 31.8177 99.1878 32.5211 94.9594L33.3043 90.2505L33.4079 89.6616C35.6577 77.4345 44.2761 67.3205 56.0016 63.1508C56.0584 56.0834 58.2785 49.2004 62.3688 43.4311L78.5651 20.5874L78.7155 20.3891C79.5011 19.4326 80.7409 18.9574 81.9752 19.1557C83.292 19.3674 84.3748 20.3095 84.7663 21.5844L86.3747 26.8237L96.8834 18.852C99.2872 16.9655 102.785 15.1444 106.139 13.6499C109.576 12.1188 113.144 10.8067 115.809 10.0112L116.265 9.88424C118.677 9.25563 122.99 8.7203 126.465 8.3442C128.4 8.13485 130.211 7.96167 131.536 7.84127C132.199 7.78103 132.743 7.73388 133.121 7.70162C133.31 7.68551 133.458 7.67291 133.559 7.66451C133.61 7.66033 133.649 7.6579 133.675 7.65572C133.689 7.65465 133.699 7.65336 133.706 7.6528C133.708 7.65261 133.71 7.65292 133.712 7.6528L133.713 7.65182C133.714 7.65166 133.717 7.65208 133.72 7.65182C133.727 7.65125 133.738 7.64992 133.751 7.64889C133.776 7.64683 133.813 7.64386 133.86 7.6401C133.956 7.63252 134.095 7.62143 134.276 7.60787C134.638 7.58074 135.165 7.54321 135.833 7.49947C137.168 7.41202 139.071 7.3006 141.353 7.20553ZM62.9997 63.4292C62.9995 66.1583 61.3218 68.5942 58.8014 69.5815L58.5543 69.6723C49.0767 72.9589 42.1018 81.091 40.2916 90.9292L40.2096 91.3989L39.4264 96.1079C38.8378 99.6457 38.7829 103.252 39.2643 106.806L44.7399 147.231L51.6364 123.36L51.6471 123.326L58.4293 100.707L58.6032 100.143C59.4995 97.3367 60.7678 94.6618 62.3737 92.1899L62.7174 91.6713C70.0322 80.8602 83.0465 75.3478 95.9332 77.6577L125.241 82.9106L126.257 83.0815C128.635 83.4534 131.038 83.6401 133.445 83.6401H157.541C160.915 83.6401 164.279 83.2733 167.574 82.5454L186.444 78.3755L187.046 78.2485C199.682 75.6865 212.729 80.2578 221.003 90.1899L221.589 90.9135C224.475 94.5703 226.605 98.7674 227.854 103.261L231.872 117.714L231.917 117.897C231.93 117.958 231.943 118.02 231.953 118.082L236.6 146.272C237.799 141.631 238.878 137.296 239.542 133.094L239.562 132.982L244.556 106.924C245.042 104.39 245.325 101.833 245.38 99.2807L245.388 98.187C245.369 93.9855 245.237 89.9635 244.6 86.2046L242.004 74.7934C240.837 69.6689 238.809 64.7801 236.008 60.3335L227.655 48.6801C227.071 47.8652 226.864 46.8384 227.088 45.8608C227.292 44.9651 227.84 44.1888 228.607 43.6958L216.366 37.2358C216.356 37.2304 216.345 37.2247 216.335 37.2192L197.835 27.2192C196.785 26.6518 196.097 25.5887 196.008 24.3989C195.92 23.2091 196.445 22.0561 197.399 21.3403L197.599 21.1889L183.708 17.5503C183.688 17.5463 183.665 17.5419 183.639 17.5366C183.535 17.5155 183.378 17.4842 183.173 17.4438C182.764 17.363 182.163 17.246 181.403 17.104C179.881 16.8196 177.726 16.4349 175.201 16.0346C170.128 15.2305 163.656 14.3789 157.853 14.1372C151.985 13.8927 146.091 14.0144 141.645 14.1997C139.427 14.2921 137.58 14.4004 136.291 14.4848C135.646 14.527 135.142 14.5627 134.8 14.5883C134.63 14.6011 134.5 14.6118 134.414 14.6186C134.371 14.622 134.339 14.6247 134.318 14.6264C134.308 14.6273 134.3 14.628 134.296 14.6284H134.29L134.282 14.6294H134.273C134.267 14.6298 134.258 14.6313 134.247 14.6323C134.223 14.6343 134.185 14.6371 134.137 14.6411C134.041 14.6491 133.899 14.6606 133.715 14.6762C133.348 14.7075 132.817 14.754 132.169 14.813C130.87 14.9309 129.102 15.0994 127.218 15.3032C123.534 15.7018 119.845 16.1923 118.128 16.6313L117.811 16.7192C115.463 17.42 112.178 18.6233 108.988 20.0444C105.945 21.4002 103.23 22.8488 101.503 24.1313L101.171 24.3862L101.115 24.4292L86.6149 35.4292C85.7042 36.12 84.5134 36.3219 83.4254 35.9712C82.3374 35.6203 81.4885 34.7603 81.153 33.6674L80.1608 30.438L68.0797 47.479C64.7747 52.1407 62.9997 57.7147 62.9997 63.4292Z" fill="black"/>
<path d="M95.1448 54.0123C105.458 35.6123 125.309 24.6468 146.375 25.7115C148.297 25.8089 149.776 27.4457 149.679 29.3678C149.582 31.29 147.945 32.7696 146.023 32.6725C127.601 31.7415 110.243 41.3306 101.225 57.4205L97.5247 64.0221C96.6129 65.6482 94.5915 66.2599 92.9397 65.441L92.7806 65.358C91.1019 64.4169 90.5038 62.2927 91.4446 60.6139L95.1448 54.0123Z" fill="#423027"/>
<path d="M130.947 62.7259C142.056 45.4236 161.827 35.1029 181.636 36.3753C183.618 36.5029 184.997 38.2693 184.682 40.2083C184.4 41.9454 182.846 43.25 181.087 43.223L181.045 41.2201L180.916 43.2161C163.75 42.1135 146.455 51.0816 136.723 66.2406L135.722 67.8001C134.807 69.2245 132.876 69.9532 131.208 69.1273L131.048 69.0423C129.243 68.0279 128.967 65.8101 129.947 64.2845L130.947 62.7259Z" fill="#423027"/>
<path d="M162.038 65.2945C176.42 50.9131 198.391 47.3473 216.582 56.443L219.582 57.9439C221.393 58.8494 222.127 61.051 221.222 62.8619C220.316 64.6728 218.115 65.4069 216.304 64.5016L213.303 63.0016C197.934 55.3173 179.373 58.3293 167.223 70.4791C165.791 71.9107 163.47 71.9106 162.038 70.4791C160.607 69.0474 160.607 66.7262 162.038 65.2945Z" fill="#423027"/>
<g filter="url(#filter1_d_4026_4)">
<path d="M57.7208 137.039H109.221L130.221 146.539L131.721 163.539L124.721 183.039L110.721 196.539L88.2208 197.539L56.7208 195.039L46.7208 183.539L45.7208 166.539L48.2208 144.039L57.7208 137.039Z" fill="white" fill-opacity="0.5"/>
<path d="M225.721 137.039H174.221L153.221 146.539L151.721 163.539L158.721 183.039L172.721 196.539L195.221 197.539L226.721 195.039L236.721 183.539L237.721 166.539L235.221 144.039L225.721 137.039Z" fill="white" fill-opacity="0.5"/>
<path fill-rule="evenodd" clip-rule="evenodd" d="M103.439 132.5C108.429 132.5 113.355 133.668 117.856 135.919L129.705 141.845C130.871 142.428 131.909 143.208 132.791 144.134L139.658 144.867C140.705 144.979 141.761 144.979 142.809 144.867L149.675 144.134C150.557 143.207 151.595 142.428 152.762 141.845L164.609 135.919C169.111 133.668 174.038 132.5 179.027 132.5H217.477C220.119 132.5 222.732 133.09 225.139 134.23L229.081 136.099C233.296 138.095 236.551 141.613 238.367 145.864H245.497C246.551 145.864 247.406 146.541 247.406 147.376V155.598C247.406 156.183 246.98 156.715 246.312 156.965L243.419 158.044C242.92 158.23 242.547 158.579 242.396 159L241.116 162.583C240.951 163.046 240.523 163.407 239.981 163.576V175.076C239.981 184.504 235.049 193.177 227.127 197.681C223.519 199.732 219.477 200.807 215.369 200.807H177.954C173.394 200.807 168.993 199.051 165.592 195.876L162.548 193.035C152.293 183.463 146.431 169.773 146.431 155.4V154.968L144.517 154.534C142.355 154.044 140.111 154.044 137.949 154.534L136.036 154.968V155.4C136.036 169.773 130.173 183.463 119.919 193.035L116.875 195.876C113.473 199.051 109.073 200.807 104.513 200.807H67.0976C62.9903 200.807 58.9482 199.732 55.3398 197.681C47.4176 193.177 42.4854 184.504 42.4853 175.076V163.576C41.944 163.407 41.5151 163.046 41.3496 162.583L40.0703 159C39.9201 158.579 39.5464 158.23 39.0469 158.044L36.1553 156.965C35.4869 156.715 35.0605 156.183 35.0605 155.598V147.376C35.0605 146.541 35.9153 145.864 36.9697 145.864H44.0996C45.9159 141.613 49.1712 138.095 53.3857 136.099L57.3281 134.23C59.735 133.09 62.3477 132.5 64.9902 132.5H103.439ZM64.9902 140.262C63.4047 140.262 61.8367 140.616 60.3926 141.3L56.4502 143.168C52.4681 145.055 49.9101 149.203 49.9101 153.773V175.076C49.9102 181.66 53.3544 187.716 58.8867 190.861C61.4066 192.294 64.2293 193.045 67.0976 193.045H104.513C107.249 193.045 109.889 191.991 111.93 190.086L114.974 187.245C123.65 179.145 128.611 167.561 128.611 155.4V152.348C128.611 150.853 127.79 149.492 126.501 148.847L114.653 142.922C111.152 141.171 107.32 140.262 103.439 140.262H64.9902ZM179.027 140.262C175.146 140.262 171.314 141.171 167.813 142.922L155.966 148.847C154.676 149.492 153.856 150.853 153.855 152.348V155.4C153.855 167.561 158.816 179.145 167.493 187.245L170.537 190.086C172.578 191.991 175.218 193.045 177.954 193.045H215.369C218.238 193.045 221.06 192.294 223.58 190.861C229.112 187.716 232.557 181.66 232.557 175.076V153.773C232.557 149.203 229.999 145.055 226.017 143.168L222.073 141.3C220.629 140.616 219.062 140.262 217.477 140.262H179.027Z" fill="url(#paint2_linear_4026_4)"/>
<path d="M54.9028 174.978L54.7889 174.876C54.1997 174.395 53.3307 174.429 52.7815 174.978C52.2323 175.528 52.1981 176.397 52.6786 176.986L52.7815 177.1L65.7815 190.1C66.3673 190.686 67.317 190.686 67.9028 190.1C68.4886 189.514 68.4886 188.564 67.9028 187.978L54.9028 174.978Z" fill="white" fill-opacity="0.7"/>
<path d="M62.9028 174.978L62.7888 174.876C62.1997 174.395 61.3306 174.429 60.7815 174.978C60.2323 175.528 60.1981 176.397 60.6786 176.986L60.7815 177.1L66.7815 183.1C67.3673 183.686 68.317 183.686 68.9028 183.1C69.4886 182.514 69.4886 181.564 68.9028 180.978L62.9028 174.978Z" fill="white" fill-opacity="0.7"/>
</g>
<path d="M26.5612 254.457C26.2924 251.527 28.5984 249 31.5403 249H242.581C245.523 249 247.829 251.527 247.56 254.457L238.477 353.457C238.241 356.03 236.083 358 233.498 358H40.6228C38.0384 358 35.8798 356.03 35.6437 353.457L26.5612 254.457Z" fill="#B9C5D4"/>
<path fill-rule="evenodd" clip-rule="evenodd" d="M31.5403 242H242.581C249.641 242 255.176 248.066 254.531 255.096L245.448 354.096C244.881 360.273 239.701 365 233.498 365H40.6228C34.4202 365 29.2397 360.273 28.673 354.096L19.5904 255.096C18.9454 248.066 24.4799 242 31.5403 242ZM31.5403 249C28.5984 249 26.2924 251.527 26.5612 254.457L35.6437 353.457C35.8798 356.03 38.0384 358 40.6228 358H233.498C236.083 358 238.241 356.03 238.477 353.457L247.56 254.457C247.829 251.527 245.523 249 242.581 249H31.5403Z" fill="black"/>
<path d="M31.4198 249C28.522 249 26.2311 251.456 26.4318 254.346L26.5942 256.684C27.1692 254.574 29.1001 253 31.4198 253H242.701C245.021 253 246.952 254.574 247.527 256.684L247.689 254.346C247.89 251.456 245.599 249 242.701 249H31.4198Z" fill="white"/>
<path fill-rule="evenodd" clip-rule="evenodd" d="M52.364 283.3C53.2863 282.788 53.9105 281.805 53.9105 280.675V276.1C53.9105 274.443 52.5674 273.1 50.9105 273.1H46.1605C44.5037 273.1 43.1605 274.443 43.1605 276.1V280.675C43.1605 281.805 43.7848 282.788 44.707 283.3C43.7848 283.812 43.1605 284.795 43.1605 285.925V290.5C43.1605 292.157 44.5037 293.5 46.1605 293.5H50.9105C52.5674 293.5 53.9105 292.157 53.9105 290.5V285.925C53.9105 284.795 53.2863 283.812 52.364 283.3ZM54.7508 277.95C54.7508 276.293 56.0939 274.95 57.7508 274.95H60.8008C61.1269 274.95 61.4409 275.002 61.7349 275.098C62.6747 274.732 63.6708 274.625 64.5758 274.625C66.0093 274.625 67.4805 274.792 68.7347 275.365C69.7502 275.817 70.5571 276.515 71.138 277.385C71.7529 276.61 72.5394 275.976 73.4973 275.531C74.9611 274.844 76.7294 274.625 78.541 274.625C80.3387 274.625 82.1039 274.84 83.5599 275.531C84.2856 275.864 84.9148 276.306 85.4449 276.838C85.8625 275.79 86.8408 275.057 87.9754 274.961C88.0965 273.894 88.7834 272.961 89.7889 272.536L92.6889 271.311C93.6153 270.92 94.6761 271.019 95.5142 271.575C96.3524 272.131 96.8562 273.069 96.8562 274.075V274.95H98.7312C100.388 274.95 101.731 276.293 101.731 277.95V280.525C101.731 282.182 100.388 283.525 98.7312 283.525H96.8562V285.58C97.3305 285.539 97.9387 285.468 98.6968 285.357C99.5591 285.23 100.434 285.485 101.093 286.055C101.752 286.625 102.131 287.454 102.131 288.325V290.95C102.131 292.463 101.005 293.739 99.5033 293.927C97.7358 294.148 96.2629 294.275 95.1562 294.275C93.7809 294.275 92.3063 294.108 91.0608 293.469C89.8067 292.825 88.8385 291.782 88.3509 290.394L88.3427 290.371C87.9737 289.292 87.8562 288.061 87.8562 286.825V283.525H87.725C87.7359 283.83 87.741 284.138 87.741 284.45C87.741 286.375 87.5443 288.187 86.9598 289.668C86.3276 291.297 85.1796 292.579 83.5709 293.338C83.5568 293.345 83.5427 293.351 83.5285 293.358C82.0805 294.014 80.3363 294.225 78.541 294.225C76.7458 294.225 75.0015 294.014 73.5535 293.358C73.5393 293.351 73.5252 293.345 73.5112 293.338C72.9725 293.084 72.4851 292.772 72.0506 292.408C71.5463 293.355 70.5489 294 69.4008 294H66.3508C65.0982 294 64.025 293.232 63.5758 292.142C63.1265 293.232 62.0533 294 60.8008 294H57.7508C56.0939 294 54.7508 292.657 54.7508 291V277.95ZM65.6572 280.687C65.72 280.73 65.7762 280.775 65.8258 280.825C66.1758 281.158 66.3508 281.783 66.3508 282.7V291H69.4008V282.75C69.4008 282.73 69.4007 282.711 69.4007 282.691C69.3964 281.37 69.2464 280.356 68.9508 279.65C68.6674 278.917 68.1841 278.4 67.5008 278.1C67.2518 277.985 66.9641 277.89 66.6377 277.817C66.0683 277.689 65.381 277.625 64.5758 277.625C64.346 277.625 64.1294 277.634 63.9258 277.653C63.879 277.658 63.833 277.662 63.7877 277.668C63.3607 277.718 62.9948 277.812 62.6901 277.95C62.6056 277.988 62.5259 278.03 62.4508 278.075C62.0558 278.312 61.6712 278.71 61.297 279.27C61.2919 279.277 61.2867 279.285 61.2815 279.293C61.1873 279.435 61.0937 279.587 61.0008 279.75H60.8008V277.95H57.7508V291H60.8008V284.225C60.8008 283.662 60.8289 283.17 60.8852 282.75C60.9155 282.524 60.9541 282.318 61.0008 282.133C61.0238 282.042 61.0488 281.956 61.0758 281.875C61.2758 281.308 61.5924 280.908 62.0258 280.675C62.1301 280.621 62.2443 280.573 62.3684 280.531C62.7519 280.403 63.2295 280.335 63.8013 280.326C63.8423 280.325 63.8838 280.325 63.9258 280.325C64.1616 280.325 64.3783 280.336 64.5758 280.357C65.0438 280.407 65.4042 280.517 65.6572 280.687ZM72.4008 282.806C72.3609 283.309 72.341 283.857 72.341 284.45C72.341 285.038 72.3609 285.581 72.4008 286.08C72.4818 287.095 72.6452 287.927 72.891 288.575C73.2622 289.495 73.8677 290.165 74.7076 290.585C74.7352 290.598 74.763 290.612 74.791 290.625C74.9077 290.678 75.0309 290.727 75.1604 290.773C75.1753 290.778 75.1904 290.784 75.2055 290.789C76.0508 291.08 77.1626 291.225 78.541 291.225C79.908 291.225 81.0128 291.082 81.8555 290.796C81.8707 290.791 81.8858 290.786 81.9009 290.78C82.038 290.732 82.1681 290.681 82.291 290.625C82.2976 290.622 82.3042 290.619 82.3108 290.616C83.1837 290.198 83.8021 289.518 84.166 288.575C84.5493 287.608 84.741 286.233 84.741 284.45C84.741 282.65 84.5493 281.267 84.166 280.3C83.8165 279.379 83.2323 278.715 82.4133 278.308C82.3731 278.288 82.3323 278.269 82.291 278.25C82.1898 278.201 82.0834 278.156 81.9717 278.113C81.9313 278.097 81.8901 278.082 81.8483 278.067C81.0169 277.772 79.9145 277.625 78.541 277.625C77.1397 277.625 76.0144 277.778 75.1651 278.085C75.1542 278.089 75.1434 278.093 75.1327 278.097C75.004 278.144 74.8818 278.195 74.766 278.25C74.7297 278.267 74.6939 278.284 74.6585 278.302C73.8475 278.708 73.2583 279.374 72.891 280.3C72.6452 280.948 72.4818 281.783 72.4008 282.806ZM76.2437 280.886C75.996 281.133 75.8035 281.463 75.666 281.875C75.4827 282.475 75.391 283.333 75.391 284.45C75.391 285.55 75.4827 286.4 75.666 287C75.8052 287.406 76.0009 287.731 76.253 287.976C76.3632 288.083 76.4842 288.174 76.616 288.25C77.066 288.5 77.7077 288.625 78.541 288.625C79.3743 288.625 80.0077 288.5 80.441 288.25C80.5751 288.176 80.6973 288.086 80.8076 287.982C81.0678 287.737 81.2623 287.41 81.391 287C81.591 286.4 81.691 285.55 81.691 284.45C81.691 283.333 81.591 282.475 81.391 281.875C81.2652 281.463 81.0766 281.134 80.8253 280.887C80.7103 280.774 80.5822 280.678 80.441 280.6C80.0077 280.333 79.3743 280.2 78.541 280.2C77.7077 280.2 77.066 280.333 76.616 280.6C76.4805 280.678 76.3564 280.773 76.2437 280.886ZM78.6289 285.624C78.6627 285.362 78.691 284.98 78.691 284.45C78.691 283.871 78.6584 283.467 78.6216 283.201C78.596 283.2 78.5691 283.2 78.541 283.2C78.5101 283.2 78.4806 283.2 78.4526 283.201C78.4187 283.482 78.391 283.889 78.391 284.45C78.391 284.966 78.4152 285.349 78.4461 285.624C78.4763 285.625 78.5079 285.625 78.541 285.625C78.5717 285.625 78.601 285.625 78.6289 285.624ZM90.8562 286.825C90.8562 287.908 90.9646 288.767 91.1812 289.4C91.3979 290.017 91.8146 290.483 92.4312 290.8C92.6055 290.889 92.8031 290.966 93.0239 291.031C93.1814 291.076 93.3507 291.116 93.5318 291.149C93.549 291.152 93.5663 291.155 93.5837 291.158C94.0359 291.236 94.5601 291.275 95.1562 291.275C95.4086 291.275 95.692 291.267 96.0062 291.25C96.8335 291.207 97.8751 291.107 99.1312 290.95V288.325C99.0217 288.341 98.9143 288.356 98.8089 288.371C97.6742 288.53 96.7816 288.614 96.1312 288.624C96.0885 288.625 96.0469 288.625 96.0062 288.625C95.6812 288.625 95.3979 288.61 95.1562 288.579C94.9271 288.55 94.7354 288.507 94.5812 288.45C94.4274 288.39 94.2999 288.313 94.1986 288.218C94.1024 288.128 94.03 288.022 93.9812 287.9C93.8979 287.65 93.8562 287.258 93.8562 286.725V280.525H98.7312V277.95H93.8562V274.075L90.9562 275.3V277.95H88.2312L87.6312 280.525H90.8562V286.825ZM114.965 296.349C114.378 296.92 113.584 297.227 112.766 297.198C111.154 297.141 109.608 296.901 108.283 296.33L108.263 296.321C106.85 295.699 105.726 294.692 104.911 293.404C104.141 292.186 103.611 290.663 103.225 289.007L103.224 289.003C102.987 287.98 102.813 287.009 102.714 286.099C102.614 285.183 102.571 284.081 102.571 282.825C102.571 281.569 102.614 280.467 102.714 279.551C102.813 278.641 102.987 277.67 103.224 276.647L103.225 276.643C103.611 274.987 104.141 273.464 104.911 272.246C105.736 270.943 106.878 269.937 108.308 269.32C109.629 268.751 111.164 268.509 112.764 268.452C113.583 268.423 114.377 268.729 114.964 269.3C115.551 269.872 115.879 270.658 115.871 271.477L115.846 274.277C115.832 275.877 114.564 277.185 112.964 277.248C112.66 277.26 112.438 277.288 112.284 277.318C112.264 277.322 112.245 277.326 112.229 277.33C112.142 277.545 112.018 277.934 111.898 278.565C111.741 279.457 111.639 280.187 111.582 280.766L111.582 280.774C111.528 281.314 111.496 281.993 111.496 282.825C111.496 283.653 111.527 284.343 111.582 284.904C111.638 285.468 111.741 286.191 111.898 287.085C112.018 287.716 112.142 288.105 112.229 288.32C112.245 288.324 112.264 288.328 112.284 288.332C112.438 288.362 112.66 288.39 112.964 288.402C114.564 288.465 115.832 289.773 115.846 291.373L115.871 294.173C115.879 294.992 115.551 295.778 114.965 296.349ZM110.625 290.9C110.348 290.742 110.104 290.526 109.894 290.252C109.805 290.136 109.723 290.011 109.646 289.875C109.368 289.351 109.138 288.616 108.956 287.673C108.955 287.672 108.955 287.671 108.955 287.67C108.952 287.655 108.949 287.64 108.946 287.625C108.801 286.794 108.693 286.071 108.624 285.457C108.614 285.369 108.605 285.283 108.596 285.2C108.53 284.517 108.496 283.725 108.496 282.825C108.496 281.925 108.53 281.142 108.596 280.475C108.605 280.384 108.615 280.29 108.626 280.193C108.695 279.571 108.802 278.848 108.946 278.025C108.949 278.01 108.952 277.995 108.955 277.98C108.955 277.979 108.955 277.978 108.956 277.977C109.138 277.034 109.368 276.299 109.646 275.775C109.723 275.639 109.805 275.514 109.894 275.398C110.109 275.117 110.359 274.897 110.645 274.738C110.703 274.706 110.761 274.677 110.821 274.65C111.321 274.417 111.996 274.283 112.846 274.25L112.871 271.45C112.826 271.452 112.781 271.453 112.737 271.455C111.591 271.505 110.635 271.664 109.867 271.931C109.79 271.958 109.714 271.986 109.64 272.015C109.627 272.021 109.613 272.026 109.6 272.032C109.565 272.046 109.53 272.06 109.496 272.075C108.646 272.442 107.963 273.033 107.446 273.85C107.345 274.011 107.246 274.184 107.151 274.371C107.141 274.392 107.131 274.412 107.12 274.433C106.745 275.188 106.42 276.152 106.146 277.325C106.134 277.379 106.122 277.433 106.109 277.487C106.106 277.5 106.104 277.513 106.101 277.526C105.909 278.381 105.774 279.164 105.696 279.875C105.686 279.974 105.676 280.076 105.666 280.182C105.666 280.184 105.666 280.187 105.666 280.189C105.603 280.904 105.571 281.783 105.571 282.825C105.571 283.879 105.604 284.766 105.668 285.486C105.668 285.488 105.668 285.49 105.669 285.493C105.677 285.59 105.687 285.684 105.696 285.775C105.774 286.486 105.909 287.269 106.101 288.124C106.104 288.137 106.106 288.15 106.109 288.163C106.122 288.217 106.134 288.271 106.146 288.325C106.42 289.498 106.745 290.462 107.12 291.217C107.131 291.238 107.141 291.258 107.151 291.279C107.246 291.466 107.345 291.639 107.446 291.8C107.963 292.617 108.638 293.208 109.471 293.575C109.512 293.593 109.554 293.61 109.596 293.627C109.609 293.632 109.623 293.638 109.637 293.643C109.712 293.672 109.788 293.7 109.867 293.727C110.633 293.99 111.59 294.145 112.737 294.195C112.781 294.197 112.826 294.198 112.871 294.2L112.846 291.4C111.996 291.367 111.321 291.233 110.821 291C110.761 290.973 110.702 290.943 110.644 290.911C110.638 290.907 110.631 290.904 110.625 290.9ZM121.312 287.775L118.787 285.95L120.037 284.2L121.712 282.7L119.612 282.4L117.462 281.7L118.337 278.975L120.637 279.65L122.312 280.625L121.887 278.55V276.325H125.062V278.55L124.662 280.6L126.362 279.65L128.687 278.925L129.587 281.75L127.387 282.45L125.287 282.7L126.862 284.15L128.212 285.975L125.762 287.8L124.312 285.85L123.487 284.125L122.662 285.875L121.312 287.775ZM123.525 289.8C123.992 290.321 124.628 290.666 125.326 290.768C126.114 290.884 126.915 290.681 127.554 290.206L130.004 288.381C130.325 288.141 130.585 287.85 130.78 287.527C131.147 287.686 131.552 287.775 131.977 287.775H134.027V290.175C134.027 291.832 135.37 293.175 137.027 293.175H139.977C141.634 293.175 142.977 291.832 142.977 290.175V287.775H145.027C145.449 287.775 145.852 287.688 146.216 287.53C146.416 287.854 146.682 288.145 147.01 288.381L149.535 290.206C150.183 290.675 150.992 290.865 151.781 290.735C152.448 290.625 153.054 290.293 153.506 289.8C153.972 290.321 154.609 290.666 155.307 290.768C156.095 290.884 156.896 290.681 157.534 290.206L159.984 288.381C161.214 287.465 161.542 285.785 160.797 284.486C161.412 284.21 161.919 283.733 162.232 283.128C162.598 282.421 162.667 281.598 162.426 280.839L161.526 278.014C161.051 276.526 159.523 275.664 158.024 275.995C157.86 274.493 156.587 273.325 155.042 273.325H151.867C150.31 273.325 149.031 274.511 148.882 276.028C147.408 275.744 145.929 276.601 145.461 278.058L145.118 279.126C145.088 279.125 145.057 279.125 145.027 279.125H142.977V276.875C142.977 275.218 141.634 273.875 139.977 273.875H137.027C135.37 273.875 134.027 275.218 134.027 276.875V279.125H131.977C131.951 279.125 131.925 279.125 131.899 279.126L131.545 278.014C131.071 276.526 129.542 275.664 128.044 275.995C127.879 274.493 126.607 273.325 125.062 273.325H121.887C120.33 273.325 119.05 274.511 118.901 276.028C117.428 275.744 115.948 276.601 115.48 278.058L114.605 280.783C114.137 282.242 114.845 283.798 116.204 284.424C115.422 285.744 115.763 287.466 117.029 288.381L119.554 290.206C120.203 290.675 121.011 290.865 121.8 290.735C122.467 290.625 123.074 290.293 123.525 289.8ZM131.977 282.125V284.775H137.027V290.175H139.977V284.775H145.027V282.125H139.977V276.875H137.027V282.125H131.977ZM148.767 285.95L151.292 287.775L152.642 285.875L153.467 284.125L154.292 285.85L155.742 287.8L158.192 285.975L156.842 284.15L155.267 282.7L157.367 282.45L159.567 281.75L158.667 278.925L156.342 279.65L154.642 280.6L155.042 278.55V276.325H151.867V278.55L152.292 280.625L150.617 279.65L148.317 278.975L147.442 281.7L149.592 282.4L151.692 282.7L150.017 284.2L148.767 285.95ZM161.158 291.373C161.172 289.773 162.44 288.465 164.04 288.402C164.344 288.39 164.561 288.362 164.707 288.333C164.726 288.329 164.743 288.326 164.759 288.322C164.842 288.141 164.977 287.761 165.106 287.086C165.263 286.191 165.366 285.468 165.422 284.904C165.477 284.343 165.507 283.653 165.507 282.825C165.507 281.993 165.476 281.314 165.422 280.774L165.422 280.766C165.365 280.187 165.262 279.456 165.106 278.562C164.977 277.889 164.842 277.509 164.759 277.328C164.743 277.324 164.726 277.321 164.707 277.317C164.561 277.288 164.344 277.26 164.04 277.248C162.44 277.185 161.172 275.877 161.158 274.277L161.133 271.477C161.125 270.658 161.453 269.872 162.04 269.3C162.626 268.729 163.421 268.423 164.239 268.452C165.84 268.509 167.375 268.751 168.696 269.32C170.126 269.937 171.268 270.943 172.093 272.246C172.863 273.464 173.392 274.987 173.779 276.643L173.78 276.647C174.017 277.67 174.191 278.641 174.29 279.551C174.389 280.467 174.432 281.569 174.432 282.825C174.432 284.081 174.389 285.183 174.29 286.099C174.191 287.009 174.017 287.98 173.78 289.003L173.779 289.007C173.392 290.663 172.863 292.186 172.093 293.404C171.27 294.704 170.131 295.708 168.706 296.325C167.388 296.903 165.843 297.142 164.238 297.198C163.42 297.227 162.626 296.92 162.039 296.349C161.453 295.778 161.125 294.992 161.133 294.173L161.158 291.373ZM171.393 280.18C171.393 280.181 171.393 280.182 171.393 280.184L171.338 280.189C171.338 280.187 171.338 280.184 171.338 280.182L171.393 280.176C171.393 280.178 171.393 280.179 171.393 280.18ZM169.878 274.423L169.982 274.368C169.976 274.357 169.97 274.346 169.965 274.335C170.455 275.218 170.763 276.251 170.972 277.298C170.972 277.298 170.972 277.298 170.972 277.298C170.983 277.354 170.994 277.41 171.005 277.466L171.012 277.507C171.164 278.373 171.282 279.163 171.36 279.869C171.372 279.975 171.383 280.078 171.393 280.18M169.847 274.361C169.857 274.381 169.868 274.402 169.878 274.423L169.847 274.361ZM169.847 274.361C169.754 274.178 169.657 274.007 169.557 273.85C169.041 273.033 168.357 272.442 167.507 272.075C167.478 272.062 167.448 272.05 167.419 272.038C167.382 272.023 167.346 272.008 167.308 271.994C167.252 271.972 167.195 271.951 167.137 271.931C166.369 271.664 165.412 271.505 164.267 271.455C164.222 271.453 164.178 271.452 164.132 271.45L164.157 274.25C165.007 274.283 165.674 274.417 166.157 274.65C166.225 274.679 166.291 274.712 166.355 274.747C166.644 274.906 166.892 275.126 167.1 275.405C167.184 275.518 167.262 275.642 167.332 275.775C167.627 276.299 167.866 277.034 168.048 277.977C168.048 277.978 168.049 277.979 168.049 277.98L167.936 278.007C167.936 278.006 167.935 278.004 167.935 278.003C167.938 278.017 167.942 278.031 167.945 278.045M167.945 278.046L168.057 278.025L167.945 278.046ZM167.419 293.613C167.449 293.6 167.478 293.588 167.507 293.575C168.357 293.208 169.041 292.617 169.557 291.8C169.657 291.643 169.754 291.472 169.847 291.289C169.857 291.269 169.868 291.248 169.878 291.227C170.256 290.471 170.582 289.503 170.857 288.325M167.332 289.875C167.627 289.351 167.866 288.616 168.048 287.673C168.048 287.672 168.049 287.671 168.049 287.67C168.052 287.655 168.055 287.64 168.057 287.625C168.203 286.794 168.311 286.071 168.38 285.457C168.39 285.369 168.399 285.283 168.407 285.2C168.474 284.517 168.507 283.725 168.507 282.825C168.507 281.925 168.474 281.142 168.407 280.475M167.332 289.875C167.262 290.008 167.184 290.132 167.1 290.245C166.892 290.524 166.644 290.744 166.355 290.903C166.349 290.907 166.342 290.91 166.336 290.913C166.278 290.945 166.219 290.973 166.157 291C165.674 291.233 165.007 291.367 164.157 291.4L164.132 294.2C164.178 294.198 164.222 294.197 164.267 294.195C165.423 294.145 166.38 293.987 167.137 293.721C167.195 293.7 167.253 293.679 167.309 293.657C167.346 293.643 167.383 293.628 167.419 293.613M50.9105 285.925V290.5H46.1605V285.925H50.9105ZM50.9105 276.1V280.675H46.1605V276.1H50.9105Z" fill="white"/>
<path d="M46.1605 285.925H50.9105V290.5H46.1605V285.925ZM46.1605 276.1H50.9105V280.675H46.1605V276.1Z" fill="#C73D70"/>
<path d="M57.7508 277.95H60.8008V279.75H61.0008C61.4674 278.933 61.9508 278.375 62.4508 278.075C62.9508 277.775 63.6591 277.625 64.5758 277.625C65.8424 277.625 66.8174 277.783 67.5008 278.1C68.1841 278.4 68.6674 278.917 68.9508 279.65C69.2508 280.367 69.4008 281.4 69.4008 282.75V291H66.3508V282.7C66.3508 281.783 66.1758 281.158 65.8258 280.825C65.4924 280.492 64.8591 280.325 63.9258 280.325C63.1091 280.325 62.4758 280.442 62.0258 280.675C61.5924 280.908 61.2758 281.308 61.0758 281.875C60.8924 282.425 60.8008 283.208 60.8008 284.225V291H57.7508V277.95Z" fill="#C73D70"/>
<path d="M78.541 291.225C76.9243 291.225 75.6743 291.025 74.791 290.625C73.9077 290.208 73.2743 289.525 72.891 288.575C72.5243 287.608 72.341 286.233 72.341 284.45C72.341 282.65 72.5243 281.267 72.891 280.3C73.2743 279.333 73.8993 278.65 74.766 278.25C75.6493 277.833 76.9077 277.625 78.541 277.625C80.1743 277.625 81.4243 277.833 82.291 278.25C83.1743 278.65 83.7993 279.333 84.166 280.3C84.5493 281.267 84.741 282.65 84.741 284.45C84.741 286.233 84.5493 287.608 84.166 288.575C83.7993 289.525 83.1743 290.208 82.291 290.625C81.4077 291.025 80.1577 291.225 78.541 291.225ZM75.391 284.45C75.391 285.55 75.4827 286.4 75.666 287C75.866 287.583 76.1827 288 76.616 288.25C77.066 288.5 77.7077 288.625 78.541 288.625C79.3743 288.625 80.0077 288.5 80.441 288.25C80.891 288 81.2077 287.583 81.391 287C81.591 286.4 81.691 285.55 81.691 284.45C81.691 283.333 81.591 282.475 81.391 281.875C81.2077 281.275 80.891 280.85 80.441 280.6C80.0077 280.333 79.3743 280.2 78.541 280.2C77.7077 280.2 77.066 280.333 76.616 280.6C76.1827 280.85 75.866 281.275 75.666 281.875C75.4827 282.475 75.391 283.333 75.391 284.45Z" fill="#C73D70"/>
<path d="M95.1562 291.275C93.9562 291.275 93.0479 291.117 92.4312 290.8C91.8146 290.483 91.3979 290.017 91.1812 289.4C90.9646 288.767 90.8562 287.908 90.8562 286.825V280.525H87.6312L88.2312 277.95H90.9562V275.3L93.8562 274.075V277.95H98.7312V280.525H93.8562V286.725C93.8562 287.258 93.8979 287.65 93.9812 287.9C94.0812 288.15 94.2812 288.333 94.5812 288.45C94.8979 288.567 95.3729 288.625 96.0062 288.625C96.7229 288.625 97.7646 288.525 99.1312 288.325V290.95C97.3979 291.167 96.0729 291.275 95.1562 291.275Z" fill="#C73D70"/>
<path d="M112.871 294.2C111.455 294.15 110.321 293.942 109.471 293.575C108.638 293.208 107.963 292.617 107.446 291.8C106.93 290.983 106.496 289.825 106.146 288.325C105.93 287.392 105.78 286.542 105.696 285.775C105.613 285.008 105.571 284.025 105.571 282.825C105.571 281.625 105.613 280.642 105.696 279.875C105.78 279.108 105.93 278.258 106.146 277.325C106.496 275.825 106.93 274.667 107.446 273.85C107.963 273.033 108.646 272.442 109.496 272.075C110.346 271.708 111.471 271.5 112.871 271.45L112.846 274.25C111.996 274.283 111.321 274.417 110.821 274.65C110.338 274.867 109.946 275.242 109.646 275.775C109.363 276.308 109.13 277.058 108.946 278.025C108.78 278.975 108.663 279.792 108.596 280.475C108.53 281.142 108.496 281.925 108.496 282.825C108.496 283.725 108.53 284.517 108.596 285.2C108.663 285.867 108.78 286.675 108.946 287.625C109.13 288.592 109.363 289.342 109.646 289.875C109.946 290.408 110.338 290.783 110.821 291C111.321 291.233 111.996 291.367 112.846 291.4L112.871 294.2Z" fill="#C73D70"/>
<path d="M124.312 285.85L123.487 284.125L122.662 285.875L121.312 287.775L118.787 285.95L120.037 284.2L121.712 282.7L119.612 282.4L117.462 281.7L118.337 278.975L120.637 279.65L122.312 280.625L121.887 278.55V276.325H125.062V278.55L124.662 280.6L126.362 279.65L128.687 278.925L129.587 281.75L127.387 282.45L125.287 282.7L126.862 284.15L128.212 285.975L125.762 287.8L124.312 285.85Z" fill="#C73D70"/>
<path d="M137.027 284.775H131.977V282.125H137.027V276.875H139.977V282.125H145.027V284.775H139.977V290.175H137.027V284.775Z" fill="#C73D70"/>
<path d="M154.292 285.85L153.467 284.125L152.642 285.875L151.292 287.775L148.767 285.95L150.017 284.2L151.692 282.7L149.592 282.4L147.442 281.7L148.317 278.975L150.617 279.65L152.292 280.625L151.867 278.55V276.325H155.042V278.55L154.642 280.6L156.342 279.65L158.667 278.925L159.567 281.75L157.367 282.45L155.267 282.7L156.842 284.15L158.192 285.975L155.742 287.8L154.292 285.85Z" fill="#C73D70"/>
<path d="M164.157 291.4C165.007 291.367 165.674 291.233 166.157 291C166.657 290.783 167.049 290.408 167.332 289.875C167.632 289.342 167.874 288.592 168.057 287.625C168.224 286.675 168.341 285.867 168.407 285.2C168.474 284.517 168.507 283.725 168.507 282.825C168.507 281.925 168.474 281.142 168.407 280.475C168.341 279.792 168.224 278.975 168.057 278.025C167.874 277.058 167.632 276.308 167.332 275.775C167.049 275.242 166.657 274.867 166.157 274.65C165.674 274.417 165.007 274.283 164.157 274.25L164.132 271.45C165.532 271.5 166.657 271.708 167.507 272.075C168.357 272.442 169.041 273.033 169.557 273.85C170.074 274.667 170.507 275.825 170.857 277.325C171.074 278.258 171.224 279.108 171.307 279.875C171.391 280.642 171.432 281.625 171.432 282.825C171.432 284.025 171.391 285.008 171.307 285.775C171.224 286.542 171.074 287.392 170.857 288.325C170.507 289.825 170.074 290.983 169.557 291.8C169.041 292.617 168.357 293.208 167.507 293.575C166.674 293.942 165.549 294.15 164.132 294.2L164.157 291.4Z" fill="#C73D70"/>
<defs>
<filter id="filter0_d_4026_4" x="8" y="0.000343323" width="263.238" height="380" filterUnits="userSpaceOnUse" color-interpolation-filters="sRGB">
<feFlood flood-opacity="0" result="BackgroundImageFix"/>
<feColorMatrix in="SourceAlpha" type="matrix" values="0 0 0 0 0 0 0 0 0 0 0 0 0 0 0 0 0 0 127 0" result="hardAlpha"/>
<feOffset dy="4"/>
<feGaussianBlur stdDeviation="2"/>
<feComposite in2="hardAlpha" operator="out"/>
<feColorMatrix type="matrix" values="0 0 0 0 0 0 0 0 0 0 0 0 0 0 0 0 0 0 0.25 0"/>
<feBlend mode="normal" in2="BackgroundImageFix" result="effect1_dropShadow_4026_4"/>
<feBlend mode="normal" in="SourceGraphic" in2="effect1_dropShadow_4026_4" result="shape"/>
</filter>
<filter id="filter1_d_4026_4" x="31.0605" y="132.5" width="220.346" height="76.3066" filterUnits="userSpaceOnUse" color-interpolation-filters="sRGB">
<feFlood flood-opacity="0" result="BackgroundImageFix"/>
<feColorMatrix in="SourceAlpha" type="matrix" values="0 0 0 0 0 0 0 0 0 0 0 0 0 0 0 0 0 0 127 0" result="hardAlpha"/>
<feOffset dy="4"/>
<feGaussianBlur stdDeviation="2"/>
<feComposite in2="hardAlpha" operator="out"/>
<feColorMatrix type="matrix" values="0 0 0 0 0 0 0 0 0 0 0 0 0 0 0 0 0 0 0.4 0"/>
<feBlend mode="normal" in2="BackgroundImageFix" result="effect1_dropShadow_4026_4"/>
<feBlend mode="normal" in="SourceGraphic" in2="effect1_dropShadow_4026_4" result="shape"/>
</filter>
<linearGradient id="paint0_linear_4026_4" x1="181.833" y1="157.5" x2="181.833" y2="191.956" gradientUnits="userSpaceOnUse">
<stop stop-color="#283A99"/>
<stop offset="1" stop-color="#4361FF"/>
</linearGradient>
<linearGradient id="paint1_linear_4026_4" x1="101.333" y1="157.5" x2="101.333" y2="191.956" gradientUnits="userSpaceOnUse">
<stop stop-color="#283A99"/>
<stop offset="1" stop-color="#4361FF"/>
</linearGradient>
<linearGradient id="paint2_linear_4026_4" x1="141.233" y1="132.5" x2="141.233" y2="200.807" gradientUnits="userSpaceOnUse">
<stop stop-color="#1E2225"/>
<stop offset="1" stop-color="#565B52"/>
</linearGradient>
</defs>
</svg>
