<svg width="474" height="506" viewBox="0 0 474 506" fill="none" xmlns="http://www.w3.org/2000/svg">
<g filter="url(#filter0_d_4130_2)">
<path fill-rule="evenodd" clip-rule="evenodd" d="M237.474 0.183583C243.192 -0.013459 250.359 -0.10882 257.611 0.193348L259.223 0.270497C267.308 0.703267 275.778 1.84553 282.179 2.86034L284.673 3.26561C287.062 3.66349 289.119 4.03348 290.695 4.32811L293.175 4.8037L293.86 4.9414L293.94 4.958C293.963 4.96256 294.008 4.97088 294.05 4.97948L294.111 4.99315L294.13 4.99608L294.188 5.00975C294.2 5.01233 294.212 5.01425 294.223 5.01659C294.227 5.01753 294.231 5.01862 294.235 5.01952C294.301 5.03355 294.376 5.04893 294.456 5.06737L294.872 5.16991L321.964 12.2656L322.466 12.4062C327.445 13.903 331.239 17.9523 332.419 23.0058L332.528 23.5137L332.62 24.0273C332.811 25.2267 332.848 26.4292 332.741 27.6094L341.285 32.2285L364.407 44.4326L364.846 44.6738C369.175 47.1527 371.929 51.6855 372.135 56.6699L372.147 57.1699L372.142 57.6699C372.08 59.926 371.493 62.0971 370.473 64.0342L373.192 67.8271L373.355 68.0625L373.502 68.2793L373.662 68.5244C377.063 73.8996 379.796 79.6585 381.811 85.6719C430.837 126.846 462 188.529 462 257.5C462 381.534 361.218 482 237 482C112.782 482 12 381.534 12 257.5C12 177.205 54.2359 106.786 117.724 67.1074C119.418 61.4577 122.025 56.0855 125.478 51.2158L146.372 21.7451L146.563 21.4853L146.757 21.2295L146.997 20.9258L147.308 20.5596C150.578 16.8359 155.558 15.012 160.516 15.8086L161.025 15.8994C163.952 16.477 166.574 17.931 168.593 19.9961L172.118 17.3232C176.197 14.1534 181.555 11.4396 186.033 9.44432L186.933 9.04784C191.44 7.08378 196.069 5.39167 199.718 4.30272L199.896 4.25097L200.484 4.0869L200.645 4.04393C204.604 3.01209 210.941 2.2583 215.25 1.79198L217.136 1.59276C218.975 1.40367 220.65 1.24513 221.962 1.12597L224.062 0.941395L224.65 0.89159L224.756 0.883778C224.772 0.882219 224.791 0.880697 224.811 0.878895C224.814 0.878703 224.817 0.87916 224.82 0.878895C224.83 0.878034 224.84 0.87578 224.85 0.874989L224.874 0.874012C224.886 0.872939 224.9 0.871187 224.913 0.870106L225.074 0.857411L225.653 0.812489L227.757 0.666004L229.233 0.573231C230.843 0.4762 232.839 0.368291 235.115 0.273426L237.474 0.183583ZM237 43C215.062 43 193.891 46.2791 173.951 52.3721L170.959 54.6426C167.676 57.133 163.52 58.0885 159.532 57.3467C158.219 57.8528 156.913 58.3723 155.612 58.9033L149.161 68.0049C147.793 69.935 146.708 72.0342 145.925 74.2383C142.058 76.1544 138.261 78.191 134.537 80.3389C134.86 75.6737 136.096 71.1269 138.169 66.957C134.169 69.0262 130.243 71.2168 126.395 73.5244C125.775 76.4414 125.445 79.4273 125.421 82.4394C114.048 86.4838 104.941 94.8625 99.8877 105.476C94.912 109.944 90.156 114.651 85.6396 119.581L86.2754 115.759L86.291 115.669L86.4248 114.909L86.4385 114.83C87.4485 109.341 89.2715 104.124 91.7891 99.3154C48.8977 138.526 22 194.873 22 257.5C22 375.988 118.282 472 237 472C355.718 472 452 375.988 452 257.5C452 196.819 426.747 142.033 386.161 103.019L387.316 108.094L387.369 108.342L387.417 108.58L387.484 108.949L387.656 110.013L387.67 110.097C388.176 113.389 388.449 116.678 388.599 119.841C384.917 115.808 381.074 111.923 377.083 108.195L374.184 95.4551C373.88 94.1203 373.534 92.797 373.152 91.4853C368.524 87.7024 363.734 84.1081 358.795 80.7148C361.816 85.9304 364.039 91.5735 365.379 97.459L365.545 98.1904C360.924 94.4754 356.137 90.9579 351.199 87.6475C350.614 86.5273 349.987 85.4279 349.317 84.3525L338.74 69.5967C338.36 69.0666 338.02 68.5144 337.718 67.9453C307.671 52.0215 273.39 43 237 43ZM257.194 10.1846C249.284 9.85498 241.407 10.0208 235.532 10.2656C232.589 10.3882 230.133 10.5317 228.41 10.6445C227.549 10.7009 226.868 10.7492 226.401 10.7842C226.169 10.8016 225.988 10.8164 225.865 10.8262C225.804 10.831 225.756 10.8342 225.724 10.8369C225.708 10.8382 225.694 10.84 225.685 10.8408C225.681 10.8411 225.677 10.8407 225.675 10.8408L225.674 10.8418C225.674 10.8418 225.669 10.8416 225.666 10.8418C225.657 10.8425 225.644 10.8443 225.627 10.8457C225.593 10.8485 225.541 10.852 225.477 10.8574C225.346 10.8682 225.154 10.8845 224.911 10.9053C224.423 10.9469 223.721 11.0073 222.866 11.0849C221.157 11.2403 218.821 11.4643 216.325 11.7344C211.842 12.2195 206.278 12.9098 203.166 13.7207L202.578 13.8848C199.14 14.911 194.536 16.604 190.103 18.5791C185.775 20.5071 181.263 22.8564 178.162 25.29L164.605 35.5742L162.53 28.8154C162.025 27.1708 160.628 25.955 158.93 25.6816C157.337 25.4258 155.737 26.0397 154.724 27.2734L154.53 27.5283L133.636 56.999C133.261 57.5282 132.898 58.0651 132.547 58.6084C137.946 55.7798 143.474 53.164 149.12 50.7715L156.589 40.2373L157.868 44.4033C158.152 45.3263 158.72 46.1191 159.472 46.6846C162.718 45.4956 166 44.3799 169.314 43.3379L183.621 32.4853L184.121 32.1006C186.349 30.4461 189.853 28.5771 193.778 26.8281C197.893 24.9949 202.132 23.4422 205.161 22.5381L205.569 22.4248C207.785 21.8585 212.545 21.2261 217.297 20.7119C219.726 20.4491 222.007 20.2313 223.683 20.0791C224.519 20.0031 225.205 19.9437 225.679 19.9033C225.915 19.8832 226.099 19.8677 226.223 19.8574C226.285 19.8523 226.333 19.8492 226.364 19.8467C226.379 19.8454 226.39 19.8434 226.397 19.8428H226.409L226.419 19.8408H226.427C226.433 19.8403 226.443 19.8399 226.456 19.8389C226.483 19.8367 226.524 19.8334 226.579 19.8291C226.69 19.8203 226.858 19.8065 227.078 19.79C227.518 19.757 228.17 19.7106 229.001 19.6562C230.664 19.5473 233.047 19.4073 235.908 19.2881C241.643 19.0491 249.249 18.8926 256.818 19.208C264.304 19.5199 272.654 20.6178 279.198 21.6553C282.455 22.1716 285.236 22.6683 287.199 23.0351C288.18 23.2184 288.956 23.3693 289.483 23.4736C289.747 23.5257 289.95 23.5656 290.084 23.5928C290.117 23.5995 290.148 23.6053 290.173 23.6103L308.094 28.3047L307.836 28.5C306.605 29.4235 305.927 30.9113 306.041 32.4463C306.155 33.9811 307.044 35.352 308.397 36.084L332.264 48.9853C332.277 48.9924 332.292 48.9999 332.305 49.0068L348.097 57.3408C347.107 57.9769 346.4 58.9783 346.136 60.1338C346.065 60.4441 346.027 60.7583 346.022 61.0713C352.193 64.4882 358.187 68.1856 363.984 72.1475L357.181 62.6582L359.795 61.2334C361.164 60.4866 362.043 59.0907 362.139 57.5488L362.147 57.2383C362.137 55.679 361.323 54.2437 360.009 53.4307L359.74 53.2764L336.558 41.041L318.896 31.4922L320.994 29.9199C322.38 28.8803 323.049 27.1386 322.716 25.4385C322.382 23.7385 321.105 22.3777 319.43 21.9385L292.338 14.8437L292.108 14.79L292.106 14.7891H292.103C292.1 14.7884 292.095 14.7881 292.09 14.7871C292.079 14.7849 292.064 14.7803 292.045 14.7764C292.006 14.7684 291.949 14.757 291.876 14.7422C291.729 14.7124 291.513 14.6691 291.235 14.6142C290.68 14.5044 289.872 14.3477 288.858 14.1582C286.83 13.7792 283.966 13.269 280.612 12.7373C273.933 11.6784 265.189 10.5177 257.194 10.1846ZM256.401 29.1992C250.108 28.937 243.729 29.0173 238.494 29.1973L236.325 29.2793C234.249 29.3658 232.434 29.4632 230.981 29.5508L229.654 29.6348L227.826 29.7617L227.37 29.7969C227.357 29.7979 227.343 29.7996 227.329 29.8008C227.329 29.8008 227.324 29.8005 227.32 29.8008L227.299 29.8027H227.296L227.295 29.8037L227.247 29.8076C227.231 29.8089 227.214 29.8093 227.198 29.8105L227.181 29.8125C227.16 29.8142 227.14 29.8164 227.128 29.8174C227.122 29.8179 227.115 29.818 227.109 29.8183C227.104 29.8188 227.099 29.819 227.095 29.8193L227.05 29.8232L226.528 29.8672L224.588 30.0381C223.358 30.1498 221.801 30.2967 220.106 30.4707L218.373 30.6533C213.533 31.1771 209.561 31.7399 208.109 32.0976L207.964 32.1377C205.713 32.8127 202.522 33.9586 199.26 35.3476L197.848 35.9629C197.32 36.1981 196.812 36.4314 196.325 36.6601C209.519 34.2562 223.113 33 237 33C258.79 33 279.859 36.0915 299.789 41.8594C298.184 40.0883 297.032 37.937 296.453 35.5928L287.931 33.3603L287.544 33.2832L285.362 32.8652C283.945 32.6003 282.077 32.2636 279.903 31.9014L277.632 31.5322C271.637 30.5819 264.307 29.6164 257.711 29.2617L256.401 29.1992ZM227.422 29.7891C227.436 29.7876 227.45 29.7874 227.462 29.7861C227.469 29.7854 227.476 29.7839 227.482 29.7832C227.462 29.7854 227.442 29.787 227.422 29.7891ZM294.032 4.97753C294.032 4.97753 294.038 4.97865 294.042 4.97948L294.03 4.97655L294.032 4.97753ZM293.166 4.84765C293.188 4.85001 293.212 4.85091 293.234 4.8535C293.2 4.84963 293.166 4.84718 293.133 4.84374C293.144 4.84489 293.155 4.84647 293.166 4.84765ZM293.056 4.8369C293.074 4.83865 293.093 4.83894 293.111 4.84081C293.061 4.83575 293.012 4.83033 292.964 4.82616C292.946 4.82466 292.928 4.8246 292.911 4.82323C292.958 4.82702 293.006 4.8322 293.056 4.8369ZM291.262 4.82518C291.27 4.82453 291.278 4.82395 291.287 4.82323H291.283C291.276 4.82383 291.268 4.82461 291.262 4.82518ZM291.688 4.79882H291.69C291.71 4.798 291.73 4.79662 291.751 4.79589C291.746 4.79607 291.74 4.79573 291.735 4.79589C291.72 4.79647 291.704 4.79817 291.688 4.79882ZM292.024 4.79003H292.076L292.072 4.78905C292.056 4.7891 292.04 4.78989 292.024 4.79003ZM224.678 0.890614C224.672 0.891159 224.666 0.892045 224.661 0.892567C224.677 0.890989 224.698 0.889007 224.723 0.886708C224.728 0.886223 224.735 0.886312 224.741 0.885731L224.744 0.884754C224.719 0.886961 224.697 0.888808 224.678 0.890614ZM226.061 0.850575C226.058 0.850468 226.054 0.849768 226.051 0.849598C226.044 0.849356 226.036 0.849888 226.027 0.849598C226.04 0.850056 226.052 0.850238 226.061 0.850575ZM225.292 0.849598L225.325 0.847645H225.317C225.309 0.847948 225.3 0.849237 225.292 0.849598ZM225.996 0.848622C225.991 0.848453 225.985 0.846909 225.979 0.846669C225.974 0.846502 225.968 0.846818 225.962 0.846669C225.974 0.847044 225.986 0.848282 225.996 0.848622ZM225.571 0.843739C225.524 0.844261 225.474 0.844335 225.422 0.845692C225.415 0.845866 225.407 0.84646 225.4 0.846669C225.494 0.844178 225.579 0.842858 225.655 0.842762C225.629 0.842807 225.601 0.843439 225.571 0.843739ZM225.694 0.842762C225.746 0.842899 225.794 0.843035 225.836 0.843739C225.868 0.844277 225.898 0.845025 225.924 0.845692C225.905 0.845221 225.884 0.844165 225.862 0.843739C225.816 0.842856 225.759 0.841943 225.696 0.841786L225.694 0.842762ZM225.948 0.845692L225.946 0.844715H225.944L225.948 0.845692ZM225.666 0.841786C225.676 0.841776 225.687 0.841766 225.696 0.841786C225.692 0.84178 225.688 0.840871 225.684 0.840809C225.678 0.840808 225.672 0.841732 225.666 0.841786Z" fill="#F8F9FA"/>
</g>
<path d="M442 257.5C442 370.442 350.218 462 237 462C123.782 462 32 370.442 32 257.5C32 144.558 123.782 53.0001 237 53.0001C350.218 53.0001 442 144.558 442 257.5Z" fill="url(#paint0_linear_4130_2)"/>
<path d="M442 257.5C442 144.999 350.934 53.7157 238.326 53.004L237 53.0001C123.782 53.0001 32 144.558 32 257.5L32.0039 258.822C32.7141 370.715 123.507 461.287 235.674 461.996L237 462C349.776 462 441.283 371.156 441.996 258.822L442 257.5ZM452 257.5C452 375.988 355.718 472 237 472C118.282 472 22 375.988 22 257.5C22 139.012 118.282 43.0001 237 43.0001C355.718 43.0001 452 139.012 452 257.5Z" fill="#101419"/>
<path d="M99.3544 139.364L109.292 212.724L124.128 161.367L132.878 132.185C133.92 128.711 135.451 125.404 137.427 122.362C145.785 109.497 161.038 102.892 176.139 105.599L213.948 112.376C217.705 113.049 221.513 113.388 225.329 113.388H256.415C261.095 113.388 265.762 112.878 270.332 111.869L294.677 106.489C309.57 103.199 325.055 108.492 334.816 120.212C338.515 124.652 341.227 129.827 342.775 135.394L347.957 154.039L357.632 212.724C360.213 198.533 364.728 185.632 366.663 173.377L373.106 139.76C373.874 135.758 374.28 131.692 374.261 127.618C374.236 122.118 374.066 116.582 373.163 111.315L369.781 96.4572C368.153 89.3055 365.317 82.4838 361.395 76.2856L350.537 61.1395L357.632 57.2692L334.411 45.0135L310.544 32.1127L318.285 26.3073L291.193 19.2119C291.193 19.2119 272.487 15.3416 257.006 14.6966C241.525 14.0515 226.044 15.3416 226.044 15.3416C226.044 15.3416 208.812 16.7361 203.869 18.2114C197.402 20.1418 186.185 24.7009 180.891 28.8875L162.185 43.0784L158.213 30.1403L137.319 59.6103C132.514 66.3876 129.933 74.4902 129.933 82.7979C129.933 84.5058 128.849 86.027 127.235 86.5866C113.254 91.4346 103.022 103.543 100.594 118.14L99.5833 124.216C98.7499 129.225 98.6727 134.332 99.3544 139.364Z" fill="#5D473B"/>
<path d="M235.531 10.2652C241.407 10.0204 249.283 9.85499 257.194 10.1846C265.189 10.5178 273.933 11.6782 280.612 12.7371C283.966 13.2688 286.83 13.7792 288.858 14.1582C289.872 14.3477 290.68 14.5044 291.235 14.6142C291.513 14.6691 291.728 14.7129 291.875 14.7427C291.949 14.7576 292.005 14.7688 292.044 14.7767C292.064 14.7807 292.079 14.7846 292.089 14.7868C292.095 14.7879 292.099 14.7887 292.102 14.7893C292.103 14.7896 292.105 14.7892 292.106 14.7893L292.107 14.7906C292.106 14.7989 292.078 14.9343 291.618 17.1566L292.108 14.7906C292.185 14.8065 292.262 14.8237 292.338 14.8435L319.429 21.939C321.105 22.3781 322.382 23.7386 322.715 25.4388C323.048 27.139 322.38 28.8805 320.994 29.9201L318.895 31.4924L336.558 41.0407H336.557L359.739 53.2763C361.21 54.0528 362.135 55.5751 362.147 57.2386C362.158 58.9018 361.255 60.437 359.795 61.2335L357.181 62.6584L365.065 73.6543L365.211 73.871C369.407 80.503 372.442 87.8024 374.183 95.4547L377.565 110.313L377.613 110.551L377.785 111.615C378.603 116.938 378.752 122.403 378.776 127.597L378.774 128.42C378.74 132.53 378.308 136.61 377.541 140.61L371.113 174.136C370.105 180.498 368.44 186.979 366.76 193.458C365.059 200.022 363.33 206.629 362.075 213.531C361.682 215.692 359.791 217.257 357.595 217.239C355.399 217.221 353.534 215.625 353.177 213.458L343.54 155.014L338.424 136.604C337.134 131.962 334.934 127.626 331.953 123.849L331.346 123.102C322.801 112.843 309.324 108.121 296.272 110.767L295.651 110.898L271.306 116.277C266.416 117.358 261.422 117.903 256.414 117.903H225.329C221.756 117.903 218.19 117.626 214.662 117.074L213.151 116.82L175.342 110.044C162.237 107.695 149.002 113.3 141.563 124.294L141.214 124.822C139.581 127.335 138.292 130.056 137.381 132.91L137.203 133.482L128.465 162.618L128.466 162.62L113.63 213.977C113.038 216.028 111.09 217.384 108.961 217.228C106.965 217.081 105.322 215.643 104.888 213.721L104.817 213.33L94.8797 139.97C94.1374 134.49 94.2216 128.93 95.1291 123.475L96.1395 117.4L96.273 116.64C99.1755 100.866 110.294 87.8185 125.421 82.4392C125.494 73.3216 128.358 64.4421 133.635 56.9992L154.53 27.5289L154.724 27.2731C155.737 26.0392 157.337 25.4261 158.929 25.682C160.628 25.9551 162.025 27.1704 162.53 28.8152L164.605 35.5743L178.162 25.2901C181.263 22.8563 185.775 20.5071 190.103 18.579C194.536 16.6037 199.139 14.9111 202.577 13.8848L203.166 13.721C206.277 12.91 211.841 12.2194 216.325 11.7342C218.821 11.4641 221.156 11.2407 222.866 11.0854C223.722 11.0077 224.423 10.9469 224.911 10.9052C225.155 10.8845 225.346 10.8682 225.476 10.8574C225.541 10.852 225.592 10.8488 225.626 10.846C225.643 10.8446 225.656 10.843 225.665 10.8423C225.668 10.842 225.671 10.8424 225.673 10.8423L225.674 10.841C225.677 10.8408 225.68 10.8413 225.684 10.841C225.693 10.8403 225.707 10.8385 225.723 10.8372C225.756 10.8346 225.803 10.8307 225.864 10.8259C225.988 10.8161 226.168 10.8018 226.401 10.7843C226.868 10.7493 227.548 10.7009 228.409 10.6445C230.132 10.5316 232.588 10.3879 235.531 10.2652ZM134.449 82.7983C134.449 86.319 132.284 89.4616 129.033 90.7353L128.714 90.8525C116.487 95.0924 107.489 105.583 105.154 118.276L105.048 118.881L104.037 124.956C103.278 129.521 103.207 134.173 103.828 138.758L110.892 190.909L119.789 160.114L119.803 160.07L128.553 130.889L128.777 130.162C129.933 126.542 131.57 123.091 133.641 119.902L134.085 119.233C143.521 105.286 160.311 98.1743 176.936 101.154L214.745 107.931L216.057 108.151C219.123 108.631 222.224 108.872 225.329 108.872H256.414C260.767 108.872 265.108 108.399 269.358 107.46L293.702 102.08L294.478 101.916C310.78 98.6112 327.612 104.509 338.285 117.322L339.043 118.255C342.765 122.973 345.513 128.387 347.125 134.185L352.308 152.831L352.365 153.066C352.383 153.145 352.399 153.224 352.412 153.304L358.408 189.672C359.954 183.685 361.347 178.092 362.202 172.672L362.229 172.527L368.672 138.911C369.298 135.641 369.664 132.343 369.734 129.05L369.745 127.639C369.72 122.218 369.55 117.03 368.728 112.18L365.378 97.4591C363.874 90.8481 361.257 84.5411 357.644 78.8046L346.868 63.7708C346.114 62.7195 345.847 61.3948 346.136 60.1337C346.4 58.9781 347.106 57.9767 348.096 57.3406L332.304 49.0067C332.29 48.9998 332.277 48.9924 332.263 48.9853L308.397 36.0845C307.043 35.3525 306.155 33.981 306.041 32.4461C305.927 30.9111 306.604 29.4237 307.835 28.5002L308.093 28.305L290.172 23.6108C290.147 23.6057 290.117 23.6 290.084 23.5931C289.95 23.566 289.747 23.5256 289.483 23.4735C288.955 23.3692 288.179 23.2183 287.199 23.035C285.236 22.6682 282.455 22.1719 279.197 21.6555C272.654 20.618 264.303 19.5195 256.818 19.2076C249.248 18.8922 241.643 19.0493 235.908 19.2882C233.047 19.4075 230.664 19.5472 229 19.6561C228.169 19.7105 227.518 19.7566 227.078 19.7897C226.858 19.8062 226.69 19.8199 226.579 19.8287C226.524 19.8331 226.482 19.8366 226.455 19.8388C226.442 19.8399 226.432 19.8408 226.426 19.8413H226.419L226.409 19.8426H226.397C226.39 19.8432 226.379 19.8451 226.363 19.8464C226.332 19.8489 226.284 19.8525 226.222 19.8577C226.098 19.868 225.914 19.8829 225.678 19.9031C225.204 19.9435 224.519 20.0034 223.682 20.0794C222.007 20.2317 219.726 20.449 217.296 20.7119C212.544 21.2262 207.784 21.8589 205.568 22.4253L205.16 22.5386C202.131 23.4428 197.892 24.995 193.777 26.8284C189.852 28.5775 186.349 30.4464 184.121 32.1009L183.692 32.4297L183.621 32.4851L164.914 46.676C163.74 47.5673 162.203 47.8277 160.8 47.3752C159.396 46.9226 158.301 45.8131 157.868 44.4033L156.588 40.2369L141.003 62.2212C136.739 68.2352 134.449 75.4262 134.449 82.7983Z" fill="black"/>
<path d="M175.919 70.6498C189.224 46.9123 214.833 32.7659 242.01 34.1395C244.49 34.2651 246.398 36.3767 246.272 38.8563C246.147 41.3362 244.035 43.245 241.556 43.1197C217.79 41.9187 195.397 54.2893 183.763 75.0466L178.989 83.5632C177.813 85.6611 175.205 86.4502 173.074 85.3937L172.869 85.2867C170.703 84.0726 169.932 81.3322 171.145 79.1663L175.919 70.6498Z" fill="#423027"/>
<path d="M222.107 81.8911C236.438 59.5696 261.945 46.2551 287.5 47.8967C290.057 48.0612 291.835 50.34 291.429 52.8415C291.065 55.0825 289.061 56.7655 286.792 56.7307L286.737 54.1467L286.571 56.7219C264.425 55.2994 242.113 66.869 229.558 86.4252L228.267 88.4372C227.087 90.2747 224.595 91.2149 222.444 90.1493L222.237 90.0397C219.909 88.7311 219.553 85.8699 220.816 83.9018L222.107 81.8911Z" fill="#423027"/>
<path d="M262.217 85.2048C280.77 66.6516 309.115 62.0514 332.583 73.7856L336.453 75.7219C338.79 76.89 339.737 79.7303 338.569 82.0665C337.401 84.4027 334.56 85.3498 332.224 84.1818L328.353 82.2467C308.526 72.3333 284.58 76.2191 268.906 91.8933C267.059 93.7402 264.064 93.7401 262.217 91.8933C260.37 90.0463 260.37 87.0518 262.217 85.2048Z" fill="#423027"/>
<mask id="mask0_4130_2" style="mask-type:alpha" maskUnits="userSpaceOnUse" x="32" y="53" width="410" height="410">
<path d="M442 257.5C442 370.442 350.218 462 237 462C123.782 462 32 370.442 32 257.5C32 144.558 123.782 53.0001 237 53.0001C350.218 53.0001 442 144.558 442 257.5Z" fill="url(#paint1_linear_4130_2)"/>
</mask>
<g mask="url(#mask0_4130_2)">
<g filter="url(#filter1_d_4130_2)">
<path d="M83.0371 223.028C80.9637 215.114 84.8198 206.881 92.434 202.965L99.9624 199.092C101.784 198.156 104.068 198.751 105.114 200.436L109.062 206.795L125.058 280.597C125.635 283.26 122.977 285.539 120.203 284.758L108.025 281.331C101.527 279.502 96.5446 274.584 94.9246 268.401L83.0371 223.028Z" fill="#EDD5BE"/>
<path d="M83.0371 223.028C80.9637 215.114 84.8198 206.881 92.434 202.965L99.9624 199.092C101.784 198.156 104.068 198.751 105.114 200.436L109.062 206.795L125.058 280.597C125.635 283.26 122.977 285.539 120.203 284.758L108.025 281.331C101.527 279.502 96.5446 274.584 94.9246 268.401L83.0371 223.028Z" fill="#EDD5BE"/>
<path d="M121.533 264.332C118.655 267.21 115.284 268.987 111.563 269.341C104.394 270.023 97.3712 265.289 91.9897 257.2L94.9244 268.401C96.5443 274.584 101.527 279.502 108.025 281.331L120.203 284.758C122.977 285.539 125.635 283.26 125.058 280.597L121.533 264.332Z" fill="#E2CBB4"/>
<path fill-rule="evenodd" clip-rule="evenodd" d="M97.6609 195.15C101.758 193.042 106.899 194.383 109.252 198.172C112.13 202.808 114.179 207.855 115.319 213.112L129.751 279.7C131.05 285.694 125.069 290.821 118.828 289.064L106.65 285.637C98.5275 283.351 92.2988 277.204 90.2739 269.475L78.3864 224.102C75.7947 214.209 80.6148 203.918 90.1325 199.022L97.6609 195.15ZM104.703 209.233C104.586 208.693 104.376 208.175 104.081 207.699C102.614 205.338 99.4104 204.502 96.8565 205.816L94.7353 206.907C89.0247 209.844 86.1327 216.019 87.6877 221.955L99.5751 267.328C100.79 271.965 104.527 275.653 109.401 277.025C114.217 278.38 118.833 274.424 117.83 269.799L104.703 209.233Z" fill="black"/>
<path d="M383.474 223.334C385.684 215.453 381.97 207.162 374.425 203.13L366.964 199.144C365.159 198.18 362.865 198.74 361.79 200.408L357.732 206.707L340.465 280.256C339.842 282.91 342.46 285.229 345.247 284.491L357.483 281.249C364.011 279.519 369.079 274.678 370.805 268.52L383.474 223.334Z" fill="#EDD5BE"/>
<path d="M383.474 223.334C385.684 215.453 381.97 207.162 374.425 203.13L366.964 199.144C365.159 198.18 362.865 198.74 361.79 200.408L357.732 206.707L340.465 280.256C339.842 282.91 342.46 285.229 345.247 284.491L357.483 281.249C364.011 279.519 369.079 274.678 370.805 268.52L383.474 223.334Z" fill="#EDD5BE"/>
<path d="M344.274 264.054C347.101 266.975 350.441 268.803 354.156 269.214C361.312 270.005 368.416 265.378 373.936 257.372L370.809 268.527C369.082 274.685 364.015 279.526 357.487 281.256L345.251 284.498C342.464 285.236 339.846 282.917 340.469 280.263L344.274 264.054Z" fill="#E2CBB4"/>
<path fill-rule="evenodd" clip-rule="evenodd" d="M369.333 195.237C365.273 193.067 360.11 194.329 357.692 198.082C354.734 202.673 352.598 207.689 351.368 212.928L335.788 279.288C334.386 285.261 340.278 290.478 346.548 288.817L358.784 285.575C366.944 283.413 373.278 277.361 375.437 269.664L388.106 224.478C390.868 214.626 386.226 204.263 376.794 199.223L369.333 195.237ZM362.049 209.211C362.175 208.673 362.394 208.158 362.698 207.687C364.205 205.348 367.423 204.561 369.954 205.914L372.056 207.037C377.715 210.061 380.5 216.279 378.843 222.19L366.174 267.376C364.879 271.994 361.078 275.625 356.182 276.923C351.343 278.205 346.796 274.178 347.878 269.569L362.049 209.211Z" fill="black"/>
<path d="M102.248 235.452C112.122 232.441 122.568 238.005 125.578 247.879C128.589 257.753 123.025 268.199 113.151 271.21L117.953 286.96C119.459 291.898 116.677 297.12 111.74 298.626C106.802 300.131 101.58 297.349 100.074 292.412L89.8202 258.782C86.8094 248.908 92.3734 238.462 102.248 235.452Z" fill="white"/>
<path d="M122.231 248.899C119.784 240.874 111.293 236.352 103.268 238.799C95.2431 241.247 90.7211 249.736 93.1679 257.761L103.422 291.391L103.517 291.677C104.568 294.586 107.727 296.19 110.719 295.278C113.807 294.337 115.547 291.069 114.605 287.981L108.782 268.883L112.13 267.862C120.155 265.415 124.678 256.925 122.231 248.899ZM128.926 246.858C132.154 257.442 127.082 268.578 117.439 273.273L121.301 285.939C123.37 292.725 119.546 299.905 112.76 301.974C106.08 304.011 99.0196 300.337 96.8269 293.749L96.7263 293.432L86.4722 259.803C82.8979 248.08 89.5036 235.678 101.227 232.104C112.95 228.529 125.352 235.135 128.926 246.858Z" fill="black"/>
<path d="M363.679 235.452C353.805 232.441 343.36 238.005 340.349 247.879C337.338 257.753 342.902 268.199 352.776 271.21L347.974 286.96C346.468 291.898 349.25 297.12 354.188 298.626C359.125 300.131 364.348 297.349 365.853 292.412L376.107 258.782C379.118 248.908 373.554 238.462 363.679 235.452Z" fill="white"/>
<path d="M343.697 248.899C346.144 240.874 354.634 236.352 362.659 238.799C370.684 241.247 375.206 249.736 372.759 257.761L362.505 291.391L362.41 291.677C361.359 294.586 358.2 296.19 355.209 295.278C352.12 294.337 350.381 291.069 351.322 287.981L357.145 268.883L353.797 267.862C345.772 265.415 341.249 256.925 343.697 248.899ZM337.001 246.858C333.774 257.442 338.845 268.578 348.489 273.273L344.627 285.939C342.557 292.725 346.381 299.905 353.167 301.974C359.847 304.011 366.908 300.337 369.1 293.749L369.201 293.432L379.455 259.803C383.029 248.08 376.424 235.678 364.701 232.104C352.977 228.529 340.576 235.135 337.001 246.858Z" fill="black"/>
<path d="M140.898 74.0711L232.146 40.5205L325.902 69.3646L358.346 163.205C359.446 176.555 358.861 189.976 356.601 203.205L344.677 261.26C341.525 279.705 334.457 305.125 322.743 320.434C313.682 332.275 302.4 342.564 289.415 350.826L277.446 358.443C266.856 365.182 253.707 367.683 241.047 365.366C235.166 364.29 229.116 364.243 223.216 365.227L222.853 365.288C208.753 367.64 194.228 364.274 183.069 356.069L172.533 348.321C163.509 341.686 155.353 334.126 148.224 325.79C132.179 307.028 121.733 284.796 117.903 261.26L108.377 202.722C106.276 189.812 105.768 176.729 106.862 163.716L140.898 74.0711Z" fill="#EDD5BE"/>
<path d="M234.334 364.587C288.949 336.832 331.433 287.849 351.469 228.19L344.677 261.26C341.525 279.705 334.457 305.125 322.743 320.434C313.682 332.275 302.4 342.564 289.415 350.826L277.446 358.443C266.856 365.182 253.707 367.683 241.046 365.366C238.827 364.96 236.584 364.7 234.334 364.587Z" fill="#E2CBB4"/>
<path fill-rule="evenodd" clip-rule="evenodd" d="M232.085 36.1365L333.12 75.2477L363.122 162.877C364.25 176.561 363.649 190.318 361.333 203.877L350.068 269.806C346.804 288.908 338.801 307.079 326.67 322.933C317.287 335.197 305.602 345.852 292.156 354.409L280.187 362.025C268.525 369.446 254.046 372.2 240.104 369.649C234.819 368.681 229.38 368.639 224.078 369.524L223.715 369.584C208.244 372.165 192.307 368.473 180.063 359.469L169.527 351.722C160.217 344.876 151.802 337.077 144.448 328.477C127.894 309.12 117.117 286.184 113.166 261.901L103.64 203.363C101.486 190.131 100.966 176.72 102.087 163.382L141.623 79.0194L232.085 36.1365ZM232.207 44.9046L141.623 79.0194L111.637 164.05C110.571 176.737 111.066 189.494 113.114 202.08L122.64 260.619C126.349 283.409 136.464 304.936 152.001 323.104C158.903 331.175 166.801 338.496 175.539 344.921L186.075 352.668C196.149 360.076 209.262 363.115 221.991 360.991L222.354 360.93C228.85 359.847 235.513 359.898 241.989 361.083C253.368 363.166 265.187 360.918 274.706 354.861L286.675 347.244C299.197 339.276 310.077 329.354 318.815 317.934C330.112 303.17 337.564 286.249 340.604 268.46L351.868 202.532C354.072 189.635 354.643 176.549 353.57 163.532L326.67 75.2477L232.207 44.9046Z" fill="black"/>
<path fill-rule="evenodd" clip-rule="evenodd" d="M233.567 353.268C232.509 353.268 231.651 352.486 231.651 351.521V342.786C231.651 341.821 232.509 341.039 233.567 341.039C234.625 341.039 235.483 341.821 235.483 342.786V351.521C235.483 352.486 234.625 353.268 233.567 353.268Z" fill="#C7B6A5"/>
<path fill-rule="evenodd" clip-rule="evenodd" d="M269.583 282.852C271.72 282.852 273.453 284.585 273.453 286.723C273.453 297.41 264.789 306.074 254.102 306.074H202.821C200.684 306.074 198.951 304.341 198.951 302.204C198.951 300.066 200.684 298.333 202.821 298.333H254.102C260.514 298.333 265.713 293.135 265.713 286.723C265.713 284.585 267.445 282.852 269.583 282.852Z" fill="black"/>
<path fill-rule="evenodd" clip-rule="evenodd" d="M227.498 268.441C231.753 271.278 237.297 271.278 241.552 268.441L250.172 262.694C251.493 261.814 253.277 262.17 254.157 263.491C255.037 264.811 254.681 266.595 253.36 267.476L244.74 273.223C238.554 277.346 230.496 277.346 224.311 273.223L215.69 267.476C214.369 266.595 214.013 264.811 214.893 263.491C215.773 262.17 217.557 261.814 218.878 262.694L227.498 268.441Z" fill="#C7B6A5"/>
<circle cx="287.211" cy="214.401" r="34.694" fill="white"/>
<circle cx="292.753" cy="225.383" r="22.2258" fill="#4361FF"/>
<circle cx="292.753" cy="225.383" r="22.2258" fill="url(#paint2_linear_4130_2)" fill-opacity="0.7"/>
<circle cx="292.753" cy="225.383" r="14.6365" fill="black"/>
<path d="M251.991 218.805C254.123 219.096 256.088 217.603 256.379 215.47L257.049 210.556C258.473 200.116 265.191 191.154 274.812 186.858C282.139 183.587 290.478 183.345 297.989 186.177C308.768 190.241 316.363 200.028 317.607 211.473L318.03 215.364C318.263 217.504 320.186 219.05 322.326 218.818C324.466 218.585 326.013 216.662 325.78 214.522L325.357 210.631C323.795 196.258 314.261 183.981 300.739 178.883C291.309 175.327 280.84 175.63 271.634 179.74C259.551 185.135 251.113 196.391 249.325 209.503L248.655 214.416C248.365 216.549 249.858 218.514 251.991 218.805Z" fill="black"/>
<path fill-rule="evenodd" clip-rule="evenodd" d="M298.968 220.252C297.91 219.194 297.91 217.478 298.968 216.419L308.726 206.662C309.784 205.603 311.501 205.603 312.559 206.662C313.618 207.72 313.618 209.436 312.559 210.495L302.801 220.252C301.743 221.311 300.027 221.311 298.968 220.252Z" fill="white"/>
<path fill-rule="evenodd" clip-rule="evenodd" d="M297.144 222.077C295.078 220.011 295.078 216.661 297.144 214.595L306.901 204.837C308.968 202.771 312.317 202.771 314.383 204.837C316.45 206.903 316.45 210.253 314.383 212.319L304.626 222.077C302.56 224.143 299.21 224.143 297.144 222.077ZM298.968 216.419C297.91 217.478 297.91 219.194 298.968 220.252C300.027 221.311 301.743 221.311 302.801 220.252L312.559 210.495C313.618 209.436 313.618 207.72 312.559 206.662C311.501 205.603 309.784 205.603 308.726 206.662L298.968 216.419Z" fill="white"/>
<path fill-rule="evenodd" clip-rule="evenodd" d="M250.526 184.844C251.88 187.116 254.82 187.86 257.092 186.505L269.355 179.195C285.481 169.582 305.894 171.065 320.462 182.907C322.514 184.576 325.53 184.265 327.199 182.212C328.867 180.16 328.556 177.144 326.504 175.475C308.816 161.096 284.031 159.295 264.451 170.967L252.187 178.278C249.915 179.632 249.171 182.572 250.526 184.844Z" fill="black"/>
<circle cx="183.36" cy="214.401" r="34.694" fill="white"/>
<circle cx="188.902" cy="225.383" r="22.2258" fill="#4361FF"/>
<circle cx="188.902" cy="225.383" r="22.2258" fill="url(#paint3_linear_4130_2)" fill-opacity="0.7"/>
<circle cx="188.902" cy="225.383" r="14.6365" fill="black"/>
<path d="M148.139 218.805C150.272 219.096 152.237 217.603 152.528 215.47L153.198 210.556C154.621 200.116 161.339 191.154 170.961 186.858C178.288 183.587 186.626 183.345 194.138 186.177C204.916 190.241 212.512 200.028 213.756 211.473L214.179 215.364C214.412 217.504 216.335 219.05 218.475 218.818C220.615 218.585 222.161 216.662 221.928 214.522L221.506 210.631C219.943 196.258 210.41 183.981 196.888 178.883C187.458 175.327 176.989 175.63 167.783 179.74C155.699 185.135 147.262 196.391 145.474 209.503L144.804 214.416C144.513 216.549 146.006 218.514 148.139 218.805Z" fill="black"/>
<path fill-rule="evenodd" clip-rule="evenodd" d="M195.117 220.252C194.058 219.194 194.058 217.478 195.117 216.419L204.874 206.662C205.933 205.603 207.649 205.603 208.708 206.662C209.766 207.72 209.766 209.436 208.708 210.495L198.95 220.252C197.891 221.311 196.175 221.311 195.117 220.252Z" fill="white"/>
<path fill-rule="evenodd" clip-rule="evenodd" d="M193.292 222.077C191.226 220.011 191.226 216.661 193.292 214.595L203.05 204.837C205.116 202.771 208.466 202.771 210.532 204.837C212.598 206.903 212.598 210.253 210.532 212.319L200.774 222.077C198.708 224.143 195.358 224.143 193.292 222.077ZM195.117 216.419C194.058 217.478 194.058 219.194 195.117 220.252C196.175 221.311 197.891 221.311 198.95 220.252L208.708 210.495C209.766 209.436 209.766 207.72 208.708 206.662C207.649 205.603 205.933 205.603 204.874 206.662L195.117 216.419Z" fill="white"/>
<path fill-rule="evenodd" clip-rule="evenodd" d="M218.351 184.844C216.996 187.116 214.057 187.86 211.785 186.505L199.521 179.195C183.395 169.582 162.982 171.065 148.415 182.907C146.362 184.576 143.346 184.265 141.678 182.212C140.009 180.16 140.32 177.144 142.373 175.475C160.06 161.096 184.846 159.295 204.426 170.967L216.689 178.278C218.961 179.632 219.705 182.572 218.351 184.844Z" fill="black"/>
<path d="M99.3544 139.364L109.292 212.724L124.128 161.367L132.878 132.185C133.92 128.711 135.451 125.404 137.427 122.362C145.785 109.497 161.038 102.892 176.139 105.599L213.948 112.376C217.705 113.049 221.513 113.388 225.329 113.388H256.415C261.095 113.388 265.762 112.878 270.332 111.869L294.677 106.489C309.57 103.199 325.055 108.492 334.816 120.212C338.515 124.652 341.227 129.827 342.775 135.394L347.957 154.039L357.632 212.724C360.213 198.533 364.728 185.632 366.663 173.377L373.106 139.76C373.874 135.758 374.28 131.692 374.261 127.618C374.236 122.118 374.066 116.582 373.163 111.315L369.781 96.4572C368.153 89.3055 365.317 82.4838 361.395 76.2856L350.537 61.1395L357.632 57.2692L334.411 45.0135L310.544 32.1127L318.285 26.3073L291.193 19.2119C291.193 19.2119 272.487 15.3416 257.006 14.6966C241.525 14.0515 226.044 15.3416 226.044 15.3416C226.044 15.3416 208.812 16.7361 203.869 18.2114C197.402 20.1418 186.185 24.7009 180.891 28.8875L162.185 43.0784L158.213 30.1403L137.319 59.6103C132.514 66.3876 129.933 74.4902 129.933 82.7979C129.933 84.5058 128.849 86.027 127.235 86.5866C113.254 91.4346 103.022 103.543 100.594 118.14L99.5833 124.216C98.7499 129.225 98.6727 134.332 99.3544 139.364Z" fill="#5D473B"/>
<path d="M235.531 10.2652C241.407 10.0204 249.283 9.85499 257.194 10.1846C265.189 10.5178 273.933 11.6782 280.612 12.7371C283.966 13.2688 286.83 13.7792 288.858 14.1582C289.872 14.3477 290.68 14.5044 291.235 14.6142C291.513 14.6691 291.728 14.7129 291.875 14.7427C291.949 14.7576 292.005 14.7688 292.044 14.7767C292.064 14.7807 292.079 14.7846 292.089 14.7868C292.095 14.7879 292.099 14.7887 292.102 14.7893C292.103 14.7896 292.105 14.7892 292.106 14.7893L292.107 14.7906C292.106 14.7989 292.078 14.9343 291.618 17.1566L292.108 14.7906C292.185 14.8065 292.262 14.8237 292.338 14.8435L319.429 21.939C321.105 22.3781 322.382 23.7386 322.715 25.4388C323.048 27.139 322.38 28.8805 320.994 29.9201L318.895 31.4924L336.558 41.0407H336.557L359.739 53.2763C361.21 54.0528 362.136 55.5751 362.147 57.2386C362.158 58.9018 361.255 60.437 359.795 61.2335L357.181 62.6584L365.065 73.6543L365.211 73.871C369.407 80.503 372.442 87.8024 374.183 95.4547L377.565 110.313L377.613 110.551L377.785 111.615C378.603 116.938 378.752 122.403 378.776 127.597L378.774 128.42C378.74 132.53 378.308 136.61 377.541 140.61L371.113 174.136C370.105 180.498 368.44 186.979 366.76 193.458C365.059 200.022 363.33 206.629 362.075 213.531C361.682 215.692 359.791 217.257 357.595 217.239C355.399 217.221 353.534 215.625 353.177 213.458L343.54 155.014L338.424 136.604C337.134 131.962 334.934 127.626 331.953 123.849L331.346 123.102C322.801 112.843 309.324 108.121 296.272 110.767L295.651 110.898L271.306 116.277C266.416 117.358 261.422 117.903 256.414 117.903H225.329C221.756 117.903 218.19 117.626 214.662 117.074L213.151 116.82L175.342 110.044C162.237 107.695 149.002 113.3 141.563 124.294L141.214 124.822C139.581 127.335 138.292 130.056 137.381 132.91L137.203 133.482L128.465 162.618L128.466 162.62L113.63 213.977C113.038 216.028 111.09 217.384 108.961 217.228C106.965 217.081 105.322 215.643 104.888 213.721L104.817 213.33L94.8797 139.97C94.1374 134.49 94.2216 128.93 95.1291 123.475L96.1395 117.4L96.273 116.64C99.1755 100.866 110.294 87.8185 125.421 82.4392C125.494 73.3216 128.358 64.4421 133.635 56.9992L154.53 27.5289L154.724 27.2731C155.737 26.0392 157.337 25.4261 158.929 25.682C160.628 25.9551 162.025 27.1704 162.53 28.8152L164.605 35.5743L178.162 25.2901C181.263 22.8563 185.775 20.5071 190.103 18.579C194.536 16.6037 199.139 14.9111 202.577 13.8848L203.166 13.721C206.277 12.91 211.841 12.2194 216.325 11.7342C218.821 11.4641 221.156 11.2407 222.866 11.0854C223.722 11.0077 224.423 10.9469 224.911 10.9052C225.155 10.8845 225.346 10.8682 225.476 10.8574C225.541 10.852 225.592 10.8488 225.626 10.846C225.643 10.8446 225.656 10.843 225.665 10.8423C225.668 10.842 225.671 10.8424 225.673 10.8423L225.674 10.841C225.677 10.8408 225.68 10.8413 225.684 10.841C225.693 10.8403 225.707 10.8385 225.723 10.8372C225.756 10.8346 225.803 10.8307 225.864 10.8259C225.988 10.8161 226.168 10.8018 226.401 10.7843C226.868 10.7493 227.548 10.7009 228.409 10.6445C230.132 10.5316 232.588 10.3879 235.531 10.2652ZM134.449 82.7983C134.449 86.319 132.284 89.4616 129.033 90.7353L128.714 90.8525C116.487 95.0924 107.489 105.583 105.154 118.276L105.048 118.881L104.037 124.956C103.278 129.521 103.207 134.173 103.828 138.758L110.892 190.909L119.789 160.114L119.803 160.07L128.553 130.889L128.777 130.162C129.933 126.542 131.57 123.091 133.641 119.902L134.085 119.233C143.521 105.286 160.311 98.1743 176.936 101.154L214.745 107.931L216.057 108.151C219.123 108.631 222.224 108.872 225.329 108.872H256.414C260.767 108.872 265.108 108.399 269.358 107.46L293.702 102.08L294.478 101.916C310.78 98.6112 327.612 104.509 338.285 117.322L339.043 118.255C342.765 122.973 345.513 128.387 347.125 134.185L352.308 152.831L352.365 153.066C352.383 153.145 352.399 153.224 352.412 153.304L358.408 189.672C359.954 183.685 361.347 178.092 362.202 172.672L362.229 172.527L368.672 138.911C369.298 135.641 369.664 132.343 369.734 129.05L369.745 127.639C369.72 122.218 369.55 117.03 368.728 112.18L365.378 97.4591C363.874 90.8481 361.257 84.5411 357.644 78.8046L346.868 63.7708C346.114 62.7194 345.847 61.3948 346.136 60.1337C346.4 58.9781 347.106 57.9767 348.096 57.3406L332.304 49.0067C332.29 48.9998 332.277 48.9924 332.263 48.9853L308.397 36.0845C307.043 35.3525 306.155 33.981 306.041 32.4461C305.927 30.9111 306.604 29.4237 307.835 28.5002L308.093 28.305L290.172 23.6108C290.147 23.6057 290.117 23.6 290.084 23.5931C289.95 23.566 289.747 23.5256 289.483 23.4735C288.955 23.3692 288.179 23.2183 287.199 23.035C285.236 22.6682 282.455 22.1719 279.197 21.6555C272.654 20.618 264.303 19.5195 256.818 19.2076C249.248 18.8922 241.643 19.0493 235.908 19.2882C233.047 19.4075 230.664 19.5472 229 19.6561C228.169 19.7105 227.518 19.7566 227.078 19.7897C226.858 19.8062 226.69 19.8199 226.579 19.8287C226.524 19.8331 226.482 19.8366 226.455 19.8388C226.442 19.8399 226.432 19.8408 226.426 19.8413H226.419L226.409 19.8426H226.397C226.39 19.8432 226.379 19.8451 226.363 19.8464C226.332 19.8489 226.284 19.8525 226.222 19.8577C226.098 19.868 225.914 19.8829 225.678 19.9031C225.204 19.9435 224.519 20.0034 223.682 20.0794C222.007 20.2317 219.726 20.449 217.296 20.7119C212.544 21.2262 207.784 21.8589 205.568 22.4253L205.16 22.5386C202.131 23.4428 197.892 24.995 193.777 26.8284C189.852 28.5775 186.349 30.4464 184.121 32.1009L183.692 32.4297L183.621 32.4851L164.914 46.676C163.74 47.5673 162.203 47.8277 160.8 47.3752C159.396 46.9226 158.301 45.8131 157.868 44.4033L156.588 40.2369L141.003 62.2212C136.739 68.2352 134.449 75.4262 134.449 82.7983Z" fill="black"/>
<path d="M175.919 70.6498C189.224 46.9123 214.833 32.7659 242.01 34.1395C244.49 34.2651 246.398 36.3767 246.272 38.8563C246.147 41.3362 244.035 43.245 241.556 43.1197C217.79 41.9187 195.397 54.2893 183.763 75.0466L178.989 83.5632C177.813 85.6611 175.205 86.4502 173.074 85.3937L172.869 85.2867C170.703 84.0726 169.932 81.3322 171.145 79.1663L175.919 70.6498Z" fill="#423027"/>
<path d="M222.107 81.8911C236.438 59.5696 261.945 46.2551 287.5 47.8967C290.057 48.0612 291.835 50.34 291.429 52.8415C291.065 55.0825 289.061 56.7655 286.792 56.7307L286.737 54.1467L286.571 56.7219C264.425 55.2994 242.113 66.869 229.558 86.4252L228.267 88.4372C227.087 90.2747 224.595 91.2149 222.444 90.1493L222.237 90.0397C219.909 88.7311 219.553 85.8699 220.816 83.9018L222.107 81.8911Z" fill="#423027"/>
<path d="M262.217 85.2048C280.77 66.6516 309.115 62.0514 332.583 73.7856L336.453 75.7219C338.79 76.89 339.737 79.7303 338.569 82.0665C337.401 84.4027 334.56 85.3498 332.224 84.1818L328.353 82.2467C308.526 72.3333 284.58 76.2191 268.906 91.8933C267.059 93.7402 264.064 93.7401 262.217 91.8933C260.37 90.0463 260.37 87.0518 262.217 85.2048Z" fill="#423027"/>
<g filter="url(#filter2_d_4130_2)">
<path fill-rule="evenodd" clip-rule="evenodd" d="M186.619 171.905C193.056 171.905 199.412 173.412 205.218 176.316L220.504 183.961C222.009 184.713 223.348 185.719 224.485 186.914L233.344 187.86C234.695 188.004 236.058 188.004 237.409 187.86L246.267 186.914C247.404 185.719 248.744 184.713 250.249 183.961L265.533 176.316C271.34 173.412 277.697 171.905 284.134 171.905H333.736C337.146 171.905 340.516 172.667 343.621 174.138L348.707 176.548C354.144 179.124 358.344 183.661 360.687 189.146H369.885C371.245 189.146 372.348 190.02 372.348 191.096V201.703C372.348 202.458 371.798 203.145 370.936 203.467L367.204 204.859C366.56 205.1 366.079 205.55 365.885 206.092L364.234 210.715C364.02 211.313 363.468 211.777 362.77 211.996V226.832C362.769 238.995 356.407 250.183 346.186 255.994C341.531 258.64 336.317 260.026 331.018 260.026H282.749C276.866 260.026 271.189 257.762 266.801 253.665L262.874 250.001C249.645 237.651 242.082 219.99 242.081 201.449V200.891L239.612 200.331C236.824 199.699 233.928 199.699 231.14 200.331L228.672 200.891V201.449C228.672 219.99 221.108 237.651 207.879 250.001L203.952 253.665C199.564 257.762 193.887 260.026 188.004 260.026H139.735C134.437 260.026 129.222 258.64 124.567 255.994C114.347 250.183 107.984 238.995 107.984 226.832V211.996C107.285 211.777 106.732 211.313 106.518 210.715L104.868 206.092C104.674 205.55 104.192 205.1 103.548 204.859L99.8173 203.467C98.9551 203.145 98.405 202.458 98.405 201.703V191.096C98.405 190.02 99.5077 189.146 100.868 189.146H110.066C112.409 183.661 116.609 179.124 122.046 176.548L127.132 174.138C130.237 172.667 133.608 171.905 137.017 171.905H186.619ZM137.017 181.919C134.971 181.919 132.948 182.375 131.085 183.258L125.999 185.668C120.862 188.102 117.562 193.453 117.562 199.35V226.832C117.562 235.326 122.006 243.138 129.143 247.196C132.394 249.044 136.035 250.013 139.735 250.013H188.004C191.534 250.013 194.94 248.654 197.572 246.196L201.499 242.531C212.693 232.082 219.093 217.137 219.093 201.449V197.51C219.093 195.582 218.034 193.826 216.371 192.994L201.086 185.35C196.57 183.092 191.626 181.919 186.619 181.919H137.017ZM284.134 181.919C279.127 181.919 274.184 183.092 269.667 185.35L254.383 192.994C252.719 193.826 251.66 195.582 251.66 197.51V201.449C251.66 217.137 258.06 232.082 269.254 242.531L273.181 246.196C275.814 248.654 279.219 250.013 282.749 250.013H331.018C334.718 250.013 338.36 249.044 341.61 247.196C348.748 243.138 353.191 235.325 353.191 226.832V199.35C353.191 193.453 349.891 188.102 344.754 185.668L339.667 183.258C337.804 182.375 335.782 181.919 333.736 181.919H284.134Z" fill="url(#paint4_linear_4130_2)"/>
</g>
<path d="M124.003 226.706L123.856 226.573C123.096 225.953 121.975 225.997 121.267 226.706C120.558 227.414 120.514 228.536 121.134 229.296L121.267 229.443L138.038 246.214C138.793 246.969 140.019 246.969 140.774 246.214C141.53 245.458 141.53 244.233 140.774 243.477L124.003 226.706Z" fill="white" fill-opacity="0.7"/>
<path d="M134.324 226.706L134.177 226.573C133.417 225.953 132.296 225.997 131.587 226.706C130.879 227.414 130.835 228.535 131.455 229.295L131.587 229.442L139.328 237.183C140.084 237.939 141.309 237.939 142.065 237.183C142.82 236.427 142.82 235.202 142.065 234.446L134.324 226.706Z" fill="white" fill-opacity="0.7"/>
</g>
<path d="M91 321.726C91 313.041 98.0406 306 106.726 306H174.87C183.555 306 190.595 313.041 190.595 321.726V461.159C190.595 469.844 183.555 476.884 174.87 476.884H106.726C98.0406 476.884 91 469.844 91 461.159V321.726Z" fill="#101419"/>
<path d="M174.87 470.594V476.884H106.726V470.594H174.87ZM184.305 461.159V321.726C184.305 316.515 180.081 312.29 174.87 312.29H106.726C101.515 312.29 97.2902 316.515 97.2902 321.726V461.159C97.2902 466.37 101.515 470.594 106.726 470.594V476.884L106.32 476.879C97.9572 476.667 91.2168 469.927 91.0051 461.564L91 461.159V321.726C91 313.176 97.8225 306.22 106.32 306.005L106.726 306H174.87L175.275 306.005C183.773 306.22 190.595 313.176 190.595 321.726V461.159L190.59 461.564C190.378 469.927 183.638 476.667 175.275 476.879L174.87 476.884V470.594C180.081 470.594 184.305 466.37 184.305 461.159Z" fill="black"/>
<path d="M102.532 328.016C102.532 322.226 107.226 317.532 113.016 317.532H122.451C128.241 317.532 132.935 322.226 132.935 328.016V337.451C132.935 343.241 128.241 347.935 122.451 347.935H113.016C107.226 347.935 102.532 343.241 102.532 337.451V328.016Z" fill="#2E3743"/>
<path d="M131.886 328.016C131.886 322.805 127.662 318.58 122.451 318.58H113.016C107.805 318.58 103.581 322.805 103.581 328.016V337.451C103.581 342.662 107.805 346.886 113.016 346.886H122.451C127.662 346.886 131.886 342.662 131.886 337.451V328.016ZM133.983 337.451C133.983 343.82 128.82 348.983 122.451 348.983H113.016C106.647 348.983 101.484 343.82 101.484 337.451V328.016C101.484 321.647 106.647 316.484 113.016 316.484H122.451C128.82 316.484 133.983 321.647 133.983 328.016V337.451Z" fill="black"/>
<path d="M116.161 326.443C116.161 329.049 114.049 331.161 111.443 331.161C108.838 331.161 106.726 329.049 106.726 326.443C106.726 323.838 108.838 321.726 111.443 321.726C114.049 321.726 116.161 323.838 116.161 326.443Z" fill="#4B596C"/>
<path d="M115.637 326.443C115.637 324.127 113.759 322.25 111.443 322.25C109.127 322.25 107.25 324.127 107.25 326.443C107.25 328.759 109.127 330.637 111.443 330.637C113.759 330.637 115.637 328.759 115.637 326.443ZM116.685 326.443C116.685 329.338 114.338 331.685 111.443 331.685C108.548 331.685 106.201 329.338 106.201 326.443C106.201 323.548 108.548 321.201 111.443 321.201C114.338 321.201 116.685 323.548 116.685 326.443Z" fill="#101419"/>
<path d="M128.741 337.975C128.741 340.581 126.629 342.693 124.024 342.693C121.418 342.693 119.306 340.581 119.306 337.975C119.306 335.37 121.418 333.258 124.024 333.258C126.629 333.258 128.741 335.37 128.741 337.975Z" fill="#4B596C"/>
<path d="M128.217 337.975C128.217 335.659 126.34 333.782 124.024 333.782C121.708 333.782 119.83 335.659 119.83 337.975C119.83 340.291 121.708 342.169 124.024 342.169C126.34 342.169 128.217 340.291 128.217 337.975ZM129.265 337.975C129.265 340.87 126.919 343.217 124.024 343.217C121.129 343.217 118.782 340.87 118.782 337.975C118.782 335.08 121.129 332.733 124.024 332.733C126.919 332.733 129.265 335.08 129.265 337.975Z" fill="#101419"/>
<path d="M159.144 391.442C159.144 401.575 150.93 409.789 140.798 409.789C130.665 409.789 122.451 401.575 122.451 391.442C122.451 381.31 130.665 373.096 140.798 373.096C150.93 373.096 159.144 381.31 159.144 391.442Z" fill="#4B596C"/>
<path d="M158.096 391.442C158.096 381.889 150.351 374.144 140.798 374.144C131.244 374.144 123.499 381.889 123.499 391.442C123.499 400.996 131.244 408.74 140.798 408.74C150.351 408.74 158.096 400.996 158.096 391.442ZM160.192 391.442C160.192 402.154 151.509 410.837 140.798 410.837C130.086 410.837 121.403 402.154 121.403 391.442C121.403 380.731 130.086 372.047 140.798 372.047C151.509 372.047 160.192 380.731 160.192 391.442Z" fill="black"/>
<path d="M142.85 391.789C143.014 391.789 143.147 391.864 143.251 392.014C143.367 392.164 143.438 392.371 143.464 392.633C143.514 393.134 143.433 393.521 143.221 393.797C142.721 394.485 142.202 395.035 141.662 395.448C141.123 395.86 140.456 396.067 139.66 396.067C138.689 396.067 137.878 395.792 137.23 395.241C136.582 394.691 136.212 393.959 136.121 393.046C136.072 392.558 136.29 392.208 136.773 391.996C137.305 391.758 137.678 391.508 137.891 391.245C138.104 390.97 138.191 390.639 138.152 390.251C138.129 390.026 138.062 389.857 137.95 389.744C137.85 389.632 137.731 389.575 137.592 389.575C137.251 389.575 136.897 389.819 136.529 390.307C136.174 390.795 135.858 391.427 135.582 392.202C135.305 392.965 135.106 393.753 134.985 394.566C134.905 395.154 134.781 395.554 134.613 395.767C134.456 395.967 134.182 396.067 133.791 396.067C133.4 396.067 133.096 395.929 132.879 395.654C132.673 395.366 132.51 394.929 132.388 394.341C132.266 393.753 132.148 392.89 132.035 391.752C131.842 389.826 131.837 387.818 132.02 385.729C132.215 383.641 132.627 381.89 133.256 380.476C133.896 379.05 134.759 378.338 135.845 378.338C136.425 378.338 136.917 378.588 137.321 379.088C137.736 379.576 137.982 380.214 138.061 381.002C138.187 382.265 137.946 383.578 137.337 384.941C136.728 386.292 135.674 387.874 134.176 389.688C134.203 390.338 134.251 391.008 134.32 391.695C134.77 390.132 135.351 389 136.063 388.3C136.775 387.587 137.471 387.23 138.153 387.23C138.784 387.23 139.31 387.443 139.731 387.868C140.165 388.293 140.413 388.819 140.476 389.444C140.545 390.132 140.431 390.764 140.135 391.339C139.839 391.914 139.284 392.427 138.471 392.877C138.555 393.215 138.734 393.49 139.008 393.703C139.293 393.903 139.618 394.003 139.985 394.003C140.376 394.003 140.74 393.853 141.076 393.553C141.412 393.253 141.841 392.752 142.365 392.052C142.499 391.877 142.66 391.789 142.85 391.789ZM135.633 380.195C135.405 380.195 135.185 380.52 134.973 381.17C134.759 381.808 134.574 382.678 134.419 383.778C134.275 384.866 134.186 386.055 134.15 387.343C134.842 386.43 135.386 385.435 135.784 384.36C136.194 383.284 136.355 382.309 136.268 381.433C136.228 381.033 136.153 380.726 136.043 380.514C135.934 380.301 135.797 380.195 135.633 380.195Z" fill="#B9C5D4"/>
<path d="M149.198 390.251C149.296 391.239 149.157 392.177 148.778 393.065C148.411 393.94 147.87 394.653 147.155 395.204C146.453 395.754 145.668 396.042 144.799 396.067C144.876 398.481 144.705 400.494 144.285 402.108C143.867 403.734 143.096 404.547 141.973 404.547C141.291 404.547 140.762 404.303 140.385 403.815C140.008 403.327 139.777 402.652 139.69 401.789C139.568 400.563 139.709 399.131 140.113 397.493C140.519 395.867 141.217 394.072 142.207 392.108C142.025 390.282 141.885 389.013 141.789 388.3C141.74 387.937 141.857 387.649 142.138 387.437C142.42 387.224 142.788 387.118 143.242 387.118C143.508 387.118 143.703 387.174 143.827 387.287C143.964 387.387 144.054 387.593 144.097 387.906C144.129 388.218 144.158 388.45 144.186 388.6C144.54 388.1 144.902 387.743 145.272 387.53C145.641 387.305 146.046 387.193 146.488 387.193C147.195 387.193 147.797 387.474 148.295 388.037C148.806 388.6 149.107 389.338 149.198 390.251ZM144.714 394.266C145.158 394.166 145.55 393.922 145.89 393.534C146.242 393.134 146.502 392.646 146.672 392.071C146.84 391.483 146.893 390.87 146.829 390.232C146.792 389.857 146.688 389.575 146.518 389.388C146.346 389.188 146.134 389.088 145.882 389.088C145.427 389.088 144.926 389.563 144.377 390.513C144.419 391.064 144.494 391.871 144.6 392.934C144.657 393.509 144.695 393.953 144.714 394.266ZM141.941 402.708C142.281 402.708 142.492 401.97 142.572 400.494C142.653 399.031 142.615 397.205 142.46 395.016C142.042 396.267 141.732 397.461 141.53 398.599C141.328 399.738 141.266 400.694 141.344 401.47C141.384 401.87 141.465 402.177 141.587 402.389C141.697 402.602 141.814 402.708 141.941 402.708Z" fill="#B9C5D4"/>
<path d="M152.241 396.067C151.685 396.067 151.248 395.917 150.927 395.616C150.62 395.316 150.441 394.922 150.393 394.435C150.336 393.872 150.449 393.421 150.731 393.084C151.025 392.746 151.463 392.577 152.044 392.577C152.599 392.577 153.029 392.715 153.335 392.99C153.651 393.253 153.836 393.647 153.888 394.172C153.946 394.747 153.828 395.21 153.534 395.56C153.24 395.898 152.809 396.067 152.241 396.067Z" fill="#B9C5D4"/>
<g filter="url(#filter3_d_4130_2)">
<path d="M265 324.637C265 313.792 273.792 305 284.637 305H463.415C474.261 305 483.052 313.792 483.052 324.637V419.549C483.052 430.394 474.261 439.186 463.415 439.186H284.637C273.792 439.186 265 430.394 265 419.549V324.637Z" fill="#2E3743"/>
<path d="M463.415 435.913V439.186H284.637V435.913H463.415ZM479.779 419.549V324.637C479.779 315.599 472.453 308.273 463.415 308.273H284.637C275.74 308.273 268.502 315.372 268.278 324.215L268.273 324.637V419.549C268.273 428.587 275.599 435.913 284.637 435.913V439.186L284.383 439.184C273.739 439.05 265.136 430.447 265.002 419.803L265 419.549V324.637C265 313.876 273.655 305.137 284.383 305.002L284.637 305H463.415L463.669 305.002C474.397 305.137 483.052 313.876 483.052 324.637V419.549L483.051 419.803C482.916 430.447 474.313 439.05 463.669 439.184L463.415 439.186V435.913C472.453 435.913 479.779 428.587 479.779 419.549Z" fill="#101419"/>
<path d="M278.5 332.205C278.5 328.251 281.706 325.046 285.66 325.046H327.797C331.751 325.046 334.957 328.251 334.957 332.205V332.205C334.957 336.159 331.751 339.365 327.797 339.365H285.66C281.706 339.365 278.5 336.159 278.5 332.205V332.205Z" fill="#828BE2"/>
<path d="M327.797 337.319V339.365H285.66V337.319H327.797ZM332.911 332.205C332.911 329.381 330.622 327.092 327.797 327.092H285.66C282.835 327.092 280.546 329.381 280.546 332.205C280.546 335.03 282.835 337.319 285.66 337.319V339.365L285.475 339.362C281.606 339.264 278.5 336.098 278.5 332.205C278.5 328.313 281.606 325.147 285.475 325.048L285.66 325.046H327.797L327.982 325.048C331.851 325.147 334.957 328.313 334.957 332.205C334.957 336.098 331.851 339.264 327.982 339.362L327.797 339.365V337.319C330.622 337.319 332.911 335.03 332.911 332.205Z" fill="#F8F9FA"/>
<path d="M341.911 332.205C341.911 328.251 345.117 325.046 349.071 325.046H411.255C415.209 325.046 418.414 328.251 418.414 332.205V332.205C418.414 336.159 415.209 339.365 411.255 339.365H349.071C345.117 339.365 341.911 336.159 341.911 332.205V332.205Z" fill="#1C756A"/>
<path d="M411.255 337.319V339.365H349.071V337.319H411.255ZM416.368 332.205C416.368 329.381 414.079 327.092 411.255 327.092H349.071C346.247 327.092 343.957 329.381 343.957 332.205C343.957 335.03 346.247 337.319 349.071 337.319V339.365L348.886 339.362C345.017 339.264 341.911 336.098 341.911 332.205C341.911 328.313 345.017 325.147 348.886 325.048L349.071 325.046H411.255L411.44 325.048C415.308 325.147 418.414 328.313 418.414 332.205C418.414 336.098 415.308 339.264 411.44 339.362L411.255 339.365V337.319C414.079 337.319 416.368 335.03 416.368 332.205Z" fill="#F8F9FA"/>
<path d="M425.778 332.205C425.778 328.251 428.983 325.046 432.937 325.046H452.574C456.528 325.046 459.733 328.251 459.733 332.205V332.205C459.733 336.159 456.528 339.365 452.574 339.365H432.937C428.983 339.365 425.778 336.159 425.778 332.205V332.205Z" fill="#828BE2"/>
<path d="M452.574 337.319V339.365H432.937V337.319H452.574ZM457.688 332.205C457.688 329.381 455.398 327.092 452.574 327.092H432.937C430.113 327.092 427.823 329.381 427.823 332.205C427.823 335.03 430.113 337.319 432.937 337.319V339.365L432.752 339.362C428.884 339.264 425.778 336.098 425.778 332.205C425.778 328.313 428.884 325.147 432.752 325.048L432.937 325.046H452.574L452.759 325.048C456.627 325.147 459.733 328.313 459.733 332.205C459.733 336.098 456.627 339.264 452.759 339.362L452.574 339.365V337.319C455.398 337.319 457.688 335.03 457.688 332.205Z" fill="#F8F9FA"/>
<path d="M278.5 417.299C278.5 413.345 281.706 410.14 285.66 410.14H363.798C367.752 410.14 370.958 413.345 370.958 417.299V417.299C370.958 421.253 367.752 424.458 363.798 424.458H285.66C281.706 424.458 278.5 421.253 278.5 417.299V417.299Z" fill="#1C756A"/>
<path d="M363.798 422.413V424.458H285.66V422.413H363.798ZM368.912 417.299C368.912 414.475 366.623 412.185 363.798 412.185H285.66C282.835 412.185 280.546 414.475 280.546 417.299C280.546 420.123 282.835 422.413 285.66 422.413V424.458L285.475 424.456C281.606 424.358 278.5 421.191 278.5 417.299C278.5 413.407 281.606 410.24 285.475 410.142L285.66 410.14H363.798L363.983 410.142C367.852 410.24 370.958 413.407 370.958 417.299C370.958 421.191 367.852 424.358 363.983 424.456L363.798 424.458V422.413C366.623 422.413 368.912 420.123 368.912 417.299Z" fill="#F8F9FA"/>
<path d="M377.913 417.299C377.913 413.345 381.118 410.14 385.072 410.14H440.301C444.255 410.14 447.46 413.345 447.46 417.299V417.299C447.46 421.253 444.255 424.458 440.301 424.458H385.072C381.118 424.458 377.913 421.253 377.913 417.299V417.299Z" fill="#61C569"/>
<path d="M440.301 422.413V424.458H385.072V422.413H440.301ZM445.415 417.299C445.415 414.475 443.125 412.185 440.301 412.185H385.072C382.248 412.185 379.958 414.475 379.958 417.299C379.958 420.123 382.248 422.413 385.072 422.413V424.458L384.887 424.456C381.018 424.358 377.913 421.191 377.913 417.299C377.913 413.407 381.018 410.24 384.887 410.142L385.072 410.14H440.301L440.486 410.142C444.354 410.24 447.46 413.407 447.46 417.299C447.46 421.191 444.354 424.358 440.486 424.456L440.301 424.458V422.413C443.125 422.413 445.415 420.123 445.415 417.299Z" fill="#F8F9FA"/>
<path d="M297.728 396.026C297.728 392.072 300.934 388.866 304.888 388.866H343.752C347.706 388.866 350.912 392.072 350.912 396.026V396.026C350.912 399.98 347.706 403.185 343.752 403.185H304.888C300.934 403.185 297.728 399.98 297.728 396.026V396.026Z" fill="#828BE2"/>
<path d="M343.752 401.139V403.185H304.888V401.139H343.752ZM348.866 396.026C348.866 393.201 346.577 390.912 343.752 390.912H304.888C302.063 390.912 299.774 393.201 299.774 396.026C299.774 398.85 302.063 401.139 304.888 401.139V403.185L304.703 403.182C300.834 403.084 297.728 399.918 297.728 396.026C297.728 392.133 300.834 388.967 304.703 388.869L304.888 388.866H343.752L343.937 388.869C347.806 388.967 350.912 392.133 350.912 396.026C350.912 399.918 347.806 403.084 343.937 403.182L343.752 403.185V401.139C346.577 401.139 348.866 398.85 348.866 396.026Z" fill="#F8F9FA"/>
<path d="M357.866 396.026C357.866 392.072 361.072 388.866 365.026 388.866H403.891C407.845 388.866 411.05 392.072 411.05 396.026V396.026C411.05 399.98 407.845 403.185 403.891 403.185H365.026C361.072 403.185 357.866 399.98 357.866 396.026V396.026Z" fill="#828BE2"/>
<path d="M403.891 401.139V403.185H365.026V401.139H403.891ZM409.004 396.026C409.004 393.201 406.715 390.912 403.891 390.912H365.026C362.201 390.912 359.912 393.201 359.912 396.026C359.912 398.85 362.201 401.139 365.026 401.139V403.185L364.841 403.182C360.972 403.084 357.866 399.918 357.866 396.026C357.866 392.133 360.972 388.967 364.841 388.869L365.026 388.866H403.891L404.076 388.869C407.944 388.967 411.05 392.133 411.05 396.026C411.05 399.918 407.944 403.084 404.076 403.182L403.891 403.185V401.139C406.715 401.139 409.004 398.85 409.004 396.026Z" fill="#F8F9FA"/>
<path d="M313.274 374.752C313.274 370.798 316.48 367.593 320.433 367.593H388.345C392.299 367.593 395.504 370.798 395.504 374.752V374.752C395.504 378.706 392.299 381.912 388.345 381.912H320.433C316.48 381.912 313.274 378.706 313.274 374.752V374.752Z" fill="#61C569"/>
<path d="M388.345 379.866V381.912H320.433V379.866H388.345ZM393.458 374.752C393.458 371.928 391.169 369.638 388.345 369.638H320.433C317.609 369.638 315.32 371.928 315.32 374.752C315.32 377.576 317.609 379.866 320.433 379.866V381.912L320.249 381.909C316.38 381.811 313.274 378.644 313.274 374.752C313.274 370.86 316.38 367.693 320.249 367.595L320.433 367.593H388.345L388.53 367.595C392.398 367.693 395.504 370.86 395.504 374.752C395.504 378.644 392.398 381.811 388.53 381.909L388.345 381.912V379.866C391.169 379.866 393.458 377.576 393.458 374.752Z" fill="#F8F9FA"/>
<path d="M297.728 353.479C297.728 349.525 300.934 346.32 304.888 346.32H320.843C324.797 346.32 328.002 349.525 328.002 353.479V353.479C328.002 357.433 324.797 360.638 320.843 360.638H304.888C300.934 360.638 297.728 357.433 297.728 353.479V353.479Z" fill="#61C569"/>
<path d="M320.843 358.593V360.638H304.888V358.593H320.843ZM325.956 353.479C325.956 350.655 323.667 348.365 320.843 348.365H304.888C302.063 348.365 299.774 350.655 299.774 353.479C299.774 356.303 302.063 358.593 304.888 358.593V360.638L304.703 360.636C300.834 360.538 297.728 357.371 297.728 353.479C297.728 349.587 300.834 346.42 304.703 346.322L304.888 346.32H320.843L321.028 346.322C324.896 346.42 328.002 349.587 328.002 353.479C328.002 357.371 324.896 360.538 321.028 360.636L320.843 360.638V358.593C323.667 358.593 325.956 356.303 325.956 353.479Z" fill="#F8F9FA"/>
<path d="M334.957 353.479C334.957 349.525 338.162 346.32 342.116 346.32H374.435C378.389 346.32 381.595 349.525 381.595 353.479V353.479C381.595 357.433 378.389 360.638 374.435 360.638H342.116C338.162 360.638 334.957 357.433 334.957 353.479V353.479Z" fill="#1C756A"/>
<path d="M374.435 358.593V360.638H342.116V358.593H374.435ZM379.549 353.479C379.549 350.655 377.26 348.365 374.435 348.365H342.116C339.292 348.365 337.002 350.655 337.002 353.479C337.002 356.303 339.292 358.593 342.116 358.593V360.638L341.931 360.636C338.063 360.538 334.957 357.371 334.957 353.479C334.957 349.587 338.063 346.42 341.931 346.322L342.116 346.32H374.435L374.62 346.322C378.489 346.42 381.595 349.587 381.595 353.479C381.595 357.371 378.489 360.538 374.62 360.636L374.435 360.638V358.593C377.26 358.593 379.549 356.303 379.549 353.479Z" fill="#F8F9FA"/>
<path d="M388.549 353.479C388.549 349.525 391.755 346.32 395.709 346.32H411.664C415.618 346.32 418.823 349.525 418.823 353.479V353.479C418.823 357.433 415.618 360.638 411.664 360.638H395.709C391.755 360.638 388.549 357.433 388.549 353.479V353.479Z" fill="#1C756A"/>
<path d="M411.664 358.593V360.638H395.709V358.593H411.664ZM416.777 353.479C416.777 350.655 414.488 348.365 411.664 348.365H395.709C392.884 348.365 390.595 350.655 390.595 353.479C390.595 356.303 392.884 358.593 395.709 358.593V360.638L395.524 360.636C391.655 360.538 388.549 357.371 388.549 353.479C388.549 349.587 391.655 346.42 395.524 346.322L395.709 346.32H411.664L411.849 346.322C415.717 346.42 418.823 349.587 418.823 353.479C418.823 357.371 415.717 360.538 411.849 360.636L411.664 360.638V358.593C414.488 358.593 416.777 356.303 416.777 353.479Z" fill="#F8F9FA"/>
</g>
</g>
<defs>
<filter id="filter0_d_4130_2" x="0" y="-9.15527e-05" width="474" height="506" filterUnits="userSpaceOnUse" color-interpolation-filters="sRGB">
<feFlood flood-opacity="0" result="BackgroundImageFix"/>
<feColorMatrix in="SourceAlpha" type="matrix" values="0 0 0 0 0 0 0 0 0 0 0 0 0 0 0 0 0 0 127 0" result="hardAlpha"/>
<feOffset dy="12"/>
<feGaussianBlur stdDeviation="6"/>
<feComposite in2="hardAlpha" operator="out"/>
<feColorMatrix type="matrix" values="0 0 0 0 0.0468 0 0 0 0 0.1932 0 0 0 0 0.17612 0 0 0 0.3 0"/>
<feBlend mode="normal" in2="BackgroundImageFix" result="effect1_dropShadow_4130_2"/>
<feBlend mode="normal" in="SourceGraphic" in2="effect1_dropShadow_4130_2" result="shape"/>
</filter>
<filter id="filter1_d_4130_2" x="69.6914" y="10.0001" width="327.205" height="376.578" filterUnits="userSpaceOnUse" color-interpolation-filters="sRGB">
<feFlood flood-opacity="0" result="BackgroundImageFix"/>
<feColorMatrix in="SourceAlpha" type="matrix" values="0 0 0 0 0 0 0 0 0 0 0 0 0 0 0 0 0 0 127 0" result="hardAlpha"/>
<feOffset dy="8"/>
<feGaussianBlur stdDeviation="4"/>
<feComposite in2="hardAlpha" operator="out"/>
<feColorMatrix type="matrix" values="0 0 0 0 0 0 0 0 0 0 0 0 0 0 0 0 0 0 0.25 0"/>
<feBlend mode="normal" in2="BackgroundImageFix" result="effect1_dropShadow_4130_2"/>
<feBlend mode="normal" in="SourceGraphic" in2="effect1_dropShadow_4130_2" result="shape"/>
</filter>
<filter id="filter2_d_4130_2" x="94.405" y="171.905" width="281.943" height="96.1211" filterUnits="userSpaceOnUse" color-interpolation-filters="sRGB">
<feFlood flood-opacity="0" result="BackgroundImageFix"/>
<feColorMatrix in="SourceAlpha" type="matrix" values="0 0 0 0 0 0 0 0 0 0 0 0 0 0 0 0 0 0 127 0" result="hardAlpha"/>
<feOffset dy="4"/>
<feGaussianBlur stdDeviation="2"/>
<feComposite in2="hardAlpha" operator="out"/>
<feColorMatrix type="matrix" values="0 0 0 0 0 0 0 0 0 0 0 0 0 0 0 0 0 0 0.25 0"/>
<feBlend mode="normal" in2="BackgroundImageFix" result="effect1_dropShadow_4130_2"/>
<feBlend mode="normal" in="SourceGraphic" in2="effect1_dropShadow_4130_2" result="shape"/>
</filter>
<filter id="filter3_d_4130_2" x="257" y="305" width="234.052" height="150.186" filterUnits="userSpaceOnUse" color-interpolation-filters="sRGB">
<feFlood flood-opacity="0" result="BackgroundImageFix"/>
<feColorMatrix in="SourceAlpha" type="matrix" values="0 0 0 0 0 0 0 0 0 0 0 0 0 0 0 0 0 0 127 0" result="hardAlpha"/>
<feOffset dy="8"/>
<feGaussianBlur stdDeviation="4"/>
<feComposite in2="hardAlpha" operator="out"/>
<feColorMatrix type="matrix" values="0 0 0 0 0 0 0 0 0 0 0 0 0 0 0 0 0 0 0.25 0"/>
<feBlend mode="normal" in2="BackgroundImageFix" result="effect1_dropShadow_4130_2"/>
<feBlend mode="normal" in="SourceGraphic" in2="effect1_dropShadow_4130_2" result="shape"/>
</filter>
<linearGradient id="paint0_linear_4130_2" x1="237" y1="53.0001" x2="237" y2="462" gradientUnits="userSpaceOnUse">
<stop stop-color="#61C569"/>
<stop offset="1" stop-color="#1C756A"/>
</linearGradient>
<linearGradient id="paint1_linear_4130_2" x1="237" y1="53.0001" x2="237" y2="462" gradientUnits="userSpaceOnUse">
<stop stop-color="#61C569"/>
<stop offset="1" stop-color="#1C756A"/>
</linearGradient>
<linearGradient id="paint2_linear_4130_2" x1="292.753" y1="203.157" x2="292.753" y2="247.609" gradientUnits="userSpaceOnUse">
<stop stop-color="#283A99"/>
<stop offset="1" stop-color="#4361FF"/>
</linearGradient>
<linearGradient id="paint3_linear_4130_2" x1="188.902" y1="203.157" x2="188.902" y2="247.609" gradientUnits="userSpaceOnUse">
<stop stop-color="#283A99"/>
<stop offset="1" stop-color="#4361FF"/>
</linearGradient>
<linearGradient id="paint4_linear_4130_2" x1="235.377" y1="171.905" x2="235.377" y2="260.026" gradientUnits="userSpaceOnUse">
<stop stop-color="#1E2225"/>
<stop offset="1" stop-color="#565B52"/>
</linearGradient>
</defs>
</svg>
