<svg width="280" height="305" viewBox="0 0 280 305" fill="none" xmlns="http://www.w3.org/2000/svg">
<g filter="url(#filter0_d_4026_7)">
<path d="M142.884 0.14258C147.304 -0.00972888 152.839 -0.0837666 158.436 0.149416L159.677 0.208009C165.906 0.5414 172.442 1.42302 177.393 2.20801L179.322 2.52149C181.168 2.82896 182.757 3.11421 183.975 3.3418L185.889 3.70996L186.563 3.84473L186.595 3.85254C186.602 3.8539 186.61 3.85467 186.619 3.85645C186.616 3.8558 186.612 3.85611 186.609 3.85547C186.612 3.8561 186.615 3.85681 186.618 3.85742H186.623L186.666 3.86719C186.666 3.86719 186.662 3.86664 186.66 3.86621C186.666 3.86762 186.672 3.86881 186.678 3.87012C186.77 3.88984 186.861 3.91125 186.952 3.93457L187.16 3.98242L208.16 9.48242L208.415 9.55469L208.66 9.62891L208.894 9.7041L209.232 9.82617C211.68 10.7571 213.67 12.5618 214.844 14.8516L215.802 18L215.895 21.1006C215.868 21.2894 215.839 21.4775 215.802 21.6641L222.275 24.5508L222.496 24.6533L222.704 24.7549L222.9 24.8545L240.9 34.3545L241.211 34.5254C243.72 35.9597 245.5 38.3498 246.186 41.1016L246.299 43.5518V45.6641C246.049 46.9389 245.565 48.1487 244.88 49.2363L245.084 49.4746L245.119 49.5156L245.747 50.2773C247.116 51.9669 248.539 53.9231 249.78 56.1562L250.063 56.6768L250.092 56.7324L250.502 57.5195L250.527 57.5674C252.812 62.0352 254.536 66.7769 255.654 71.6855L258.275 83.2041L258.312 83.3779L258.349 83.5625L258.396 83.8203L258.53 84.6445L258.54 84.7031C259.256 89.3653 259.369 94.0306 259.388 98.1221V98.165L259.387 98.8027V98.8516C259.364 101.61 259.139 104.338 258.74 107.016L258.558 108.16C258.554 108.186 258.549 108.212 258.544 108.238L258.321 109.481L258.306 109.56L253.342 135.451C252.967 137.797 252.484 140.147 251.956 142.468C253.383 143.824 254.406 145.756 254.406 148.376V148.641C264.103 153.962 269.254 164.882 266.499 175.625L266.361 176.142L256.541 211.167C254.228 219.413 247.67 225.706 239.482 228.152L238.684 228.377L231.495 230.282C228.236 238.501 223.874 246.331 218.493 253.583L217.558 254.822C210.013 264.683 200.7 273.261 190.04 280.205L189.003 280.872L179.725 286.775L179.726 286.776C169.487 293.292 156.944 295.795 144.811 293.866L143.638 293.665C140.545 293.099 137.363 293.041 134.249 293.491L133.626 293.588L133.345 293.634L133.346 293.635C119.772 295.9 105.725 292.768 94.7319 284.906L94.2105 284.529L86.0435 278.523C78.8824 273.258 72.3539 267.295 66.5757 260.735L65.4302 259.415C57.9074 250.618 51.819 240.904 47.3208 230.582L39.5552 228.396C31.2988 226.073 24.6541 219.863 22.2095 211.7L21.9858 210.904L12.772 175.734C9.8769 164.684 15.3478 153.489 25.4458 148.295L28.1782 146.889C28.4408 145.278 29.1247 143.978 30.0337 142.956L25.3911 108.686C24.7218 103.744 24.7974 98.7294 25.6157 93.8105L26.3989 89.1016L26.4097 89.0381L26.5132 88.4492L26.523 88.3945C28.9392 75.2635 37.4674 64.1666 49.3071 58.3838C50.1404 51.565 52.6546 45.0306 56.6587 39.3828L72.855 16.5391L72.9878 16.3564L73.1382 16.1582L73.3062 15.9463L73.5317 15.6807C75.2663 13.7061 77.665 12.4707 80.2349 12.1787H83L85.8149 13.0762C87.1846 13.7076 88.3987 14.6248 89.3765 15.7598L92.6528 13.2754C95.7415 10.8732 99.8312 8.79716 103.291 7.25586L104.677 6.65137C107.923 5.26789 111.197 4.08266 113.807 3.30371L113.932 3.26758L114.388 3.14063L114.5 3.11035L115.084 2.96582C118.106 2.25545 122.569 1.72497 125.712 1.38477L128.544 1.09277C129.425 1.00627 130.226 0.931569 130.903 0.870119L132.526 0.726564L132.98 0.688478L133.049 0.683595C133.068 0.681835 133.093 0.680151 133.122 0.677736C133.126 0.677375 133.13 0.676136 133.134 0.675783H133.149C133.16 0.674846 133.171 0.67284 133.183 0.671877L133.306 0.662111L133.752 0.627931L135.375 0.51465L137.856 0.366212C138.812 0.314018 139.889 0.260806 141.062 0.211916L142.884 0.14258ZM158.145 7.14258C152.013 6.88708 145.907 7.01532 141.353 7.20508C139.071 7.30015 137.168 7.41157 135.833 7.49902C135.165 7.54276 134.638 7.58029 134.276 7.60742C134.095 7.62098 133.955 7.63207 133.86 7.63965C133.812 7.64341 133.776 7.64638 133.75 7.64844C133.738 7.64947 133.727 7.6508 133.72 7.65137C133.717 7.65163 133.712 7.65137 133.712 7.65137L133.711 7.65235C133.711 7.65235 133.708 7.65216 133.706 7.65235C133.699 7.65291 133.688 7.65421 133.675 7.65527C133.649 7.65744 133.609 7.65988 133.559 7.66406C133.458 7.67246 133.31 7.68506 133.121 7.70117C132.742 7.73343 132.199 7.78058 131.536 7.84082C130.21 7.96122 128.4 8.1344 126.465 8.34375C122.99 8.71985 118.677 9.25519 116.265 9.88379L115.809 10.0107C113.144 10.8063 109.576 12.1184 106.139 13.6494C102.785 15.144 99.2871 16.9651 96.8833 18.8516L86.3745 26.8232L84.7661 21.584C84.3746 20.3093 83.2917 19.367 81.9751 19.1553C80.741 18.957 79.501 19.4324 78.7153 20.3887L78.5649 20.5869L62.3687 43.4307C58.2785 49.1999 56.0584 56.0831 56.0015 63.1504C44.2761 67.32 35.6577 77.4343 33.4077 89.6611L33.3042 90.25L32.521 94.959C31.8176 99.1872 31.7523 103.498 32.3276 107.745L37.6265 146.864H36.9692C35.9151 146.864 35.0601 147.541 35.0601 148.376V151.255C34.8656 151.333 34.6733 151.421 34.4839 151.519L28.648 154.52C21.2704 158.314 17.5345 166.292 19.5435 173.96L28.7573 209.131C30.3271 215.122 35.1559 219.886 41.4517 221.658L50.8911 224.315C51.3979 224.458 51.9028 224.538 52.3989 224.569C56.7117 235.444 62.891 245.675 70.7505 254.865C76.4513 261.531 82.9739 267.578 90.1899 272.884L98.3569 278.89C107.848 285.869 120.201 288.73 132.194 286.729L132.475 286.683C136.585 285.997 140.801 286.031 144.898 286.78C155.705 288.758 166.928 286.622 175.967 280.87L185.246 274.967C195.343 268.541 204.158 260.589 211.312 251.456L211.999 250.568C218.176 242.495 222.971 233.647 226.252 224.328C226.634 224.291 227.02 224.227 227.408 224.124L236.892 221.61C243.218 219.934 248.127 215.244 249.8 209.277L259.621 174.251C261.761 166.615 258.163 158.582 250.852 154.676L247.406 152.834V148.376C247.406 147.541 246.551 146.864 245.497 146.864H243.676C244.763 142.624 245.789 138.394 246.449 134.229L251.431 108.241L251.655 106.998C252.109 104.297 252.364 101.553 252.387 98.792L252.388 98.1543C252.37 94.1286 252.254 89.8917 251.621 85.7656L251.487 84.9414L251.45 84.7568L248.829 73.2393C247.841 68.8992 246.315 64.7055 244.294 60.7539L243.884 59.9668C242.706 57.7538 241.243 55.7878 239.754 54.0127L239.116 53.2627L234.883 48.3721L237.786 46.6494C238.875 46.0028 239.529 44.8178 239.498 43.5518C239.465 42.286 238.752 41.136 237.632 40.5449L219.632 31.0449L219.424 30.9434L204.709 24.3818L207.447 22.5479C208.591 21.7815 209.18 20.4152 208.951 19.0576C208.736 17.7851 207.84 16.7409 206.631 16.3281L206.386 16.2539L185.386 10.7539C185.328 10.7386 185.267 10.7252 185.208 10.7129L185.207 10.7119H185.204C185.201 10.7114 185.198 10.7108 185.194 10.71C185.186 10.7083 185.174 10.7052 185.159 10.7022C185.129 10.696 185.085 10.6873 185.028 10.6758C184.914 10.6527 184.747 10.6187 184.532 10.5762C184.101 10.491 183.475 10.3696 182.689 10.2227C181.117 9.92891 178.897 9.53326 176.297 9.1211C171.12 8.3003 164.342 7.40081 158.145 7.14258ZM186.752 3.88574L186.755 3.8877C186.752 3.88701 186.748 3.88501 186.743 3.88379C186.739 3.88298 186.734 3.88209 186.729 3.88086C186.739 3.8832 186.747 3.8846 186.752 3.88574ZM186.695 3.87305C186.708 3.876 186.72 3.87879 186.729 3.88086C186.717 3.8781 186.701 3.8749 186.684 3.8711C186.684 3.8711 186.68 3.87055 186.678 3.87012C186.674 3.86921 186.67 3.86809 186.666 3.86719C186.677 3.86958 186.687 3.87122 186.695 3.87305ZM184.552 3.74317C184.544 3.74391 184.538 3.74382 184.535 3.74414L184.531 3.74512C184.531 3.74512 184.537 3.74472 184.543 3.74414C184.546 3.74388 184.548 3.74352 184.552 3.74317ZM185.837 3.74219C185.827 3.74124 185.816 3.73917 185.806 3.73828C185.799 3.73766 185.792 3.7379 185.785 3.73731C185.802 3.73874 185.82 3.74058 185.837 3.74219ZM184.947 3.7168C184.935 3.71725 184.922 3.71826 184.911 3.71875C184.929 3.71799 184.948 3.71747 184.967 3.7168C184.96 3.71703 184.954 3.71655 184.947 3.7168ZM133.014 0.687502C132.989 0.689903 132.972 0.690907 132.967 0.691408H132.98C132.984 0.691028 132.988 0.689935 132.993 0.689455C132.998 0.688889 133.006 0.688344 133.014 0.687502ZM133.002 0.688478H133.009L133.018 0.687502C133.01 0.688361 133.002 0.688478 133.002 0.688478ZM133.417 0.659181C133.361 0.661621 133.301 0.666584 133.239 0.6709C133.316 0.665749 133.388 0.660609 133.455 0.658205C133.442 0.65865 133.43 0.658653 133.417 0.659181ZM133.955 0.656252C133.974 0.656929 133.99 0.656853 134 0.657228C134.004 0.657413 134.008 0.658106 134.01 0.658205C134.008 0.658117 134.006 0.6574 134.001 0.657228C133.993 0.656888 133.98 0.656827 133.963 0.656252C133.947 0.655673 133.926 0.654927 133.903 0.654298H133.901C133.922 0.65486 133.94 0.655754 133.955 0.656252ZM133.603 0.654298C133.588 0.654545 133.573 0.654914 133.557 0.655275C133.537 0.655708 133.517 0.656572 133.496 0.657228C133.549 0.655613 133.599 0.654705 133.645 0.654298C133.631 0.654426 133.617 0.654076 133.603 0.654298Z" fill="white"/>
</g>
<path d="M23.148 173.128C21.5408 166.993 24.5299 160.611 30.4319 157.576L36.2676 154.574C37.6792 153.848 39.4501 154.31 40.2606 155.615L43.3214 160.545L55.7203 217.752C56.1678 219.816 54.1072 221.583 51.9571 220.978L42.5174 218.321C37.4807 216.903 33.6182 213.091 32.3625 208.298L23.148 173.128Z" fill="#EDD5BE"/>
<path d="M23.148 173.128C21.5408 166.993 24.5299 160.611 30.4319 157.576L36.2676 154.574C37.6792 153.848 39.4501 154.31 40.2606 155.615L43.3214 160.545L55.7203 217.752C56.1678 219.816 54.1072 221.583 51.9571 220.978L42.5174 218.321C37.4807 216.903 33.6182 213.091 32.3625 208.298L23.148 173.128Z" fill="#EDD5BE"/>
<path d="M52.9878 205.144C50.7575 207.375 48.1443 208.752 45.2595 209.027C39.7032 209.556 34.2592 205.886 30.0878 199.616L32.3625 208.298C33.6182 213.091 37.4807 216.903 42.5175 218.321L51.9571 220.978C54.1072 221.583 56.1678 219.816 55.7203 217.752L52.9878 205.144Z" fill="#E2CBB4"/>
<path fill-rule="evenodd" clip-rule="evenodd" d="M34.4836 151.518C37.6599 149.884 41.6444 150.923 43.4681 153.861C45.699 157.454 47.2877 161.366 48.1711 165.441L59.3581 217.057C60.365 221.702 55.7287 225.677 50.8909 224.315L41.4513 221.659C35.1553 219.887 30.3272 215.122 28.7576 209.13L19.5431 173.96C17.5341 166.292 21.2704 158.314 28.648 154.52L34.4836 151.518ZM39.9426 162.435C39.8519 162.016 39.6888 161.615 39.4598 161.246C38.3232 159.415 35.8397 158.768 33.8601 159.786L32.2159 160.631C27.7893 162.908 25.5476 167.695 26.7529 172.296L35.9674 207.466C36.9092 211.061 39.8061 213.92 43.5836 214.983C47.317 216.034 50.8949 212.967 50.1179 209.382L39.9426 162.435Z" fill="black"/>
<path d="M256.03 173.365C257.743 167.255 254.865 160.829 249.016 157.704L243.233 154.614C241.834 153.866 240.055 154.301 239.222 155.594L236.077 160.477L222.692 217.487C222.209 219.545 224.239 221.342 226.399 220.77L235.883 218.257C240.944 216.917 244.872 213.164 246.21 208.391L256.03 173.365Z" fill="#EDD5BE"/>
<path d="M256.03 173.365C257.743 167.255 254.865 160.829 249.016 157.704L243.233 154.614C241.834 153.866 240.055 154.301 239.222 155.594L236.077 160.477L222.692 217.487C222.209 219.545 224.239 221.342 226.399 220.77L235.883 218.257C240.944 216.917 244.872 213.164 246.21 208.391L256.03 173.365Z" fill="#EDD5BE"/>
<path d="M225.645 204.928C227.836 207.193 230.425 208.61 233.305 208.928C238.851 209.541 244.358 205.955 248.637 199.749L246.213 208.396C244.875 213.169 240.947 216.922 235.886 218.263L226.402 220.775C224.242 221.348 222.212 219.55 222.695 217.493L225.645 204.928Z" fill="#E2CBB4"/>
<path fill-rule="evenodd" clip-rule="evenodd" d="M245.069 151.585C241.922 149.904 237.92 150.882 236.046 153.791C233.753 157.35 232.097 161.237 231.143 165.299L219.067 216.737C217.98 221.367 222.547 225.411 227.408 224.124L236.892 221.611C243.218 219.935 248.127 215.244 249.8 209.277L259.62 174.251C261.762 166.615 258.163 158.582 250.852 154.675L245.069 151.585ZM239.423 162.418C239.52 162.001 239.69 161.601 239.926 161.236C241.094 159.423 243.588 158.813 245.55 159.861L247.179 160.732C251.566 163.076 253.725 167.896 252.44 172.478L242.62 207.504C241.616 211.083 238.67 213.898 234.875 214.904C231.124 215.898 227.6 212.776 228.438 209.204L239.423 162.418Z" fill="black"/>
<path d="M67.9984 57.6643L138.729 31.6578L211.404 54.0161L236.553 126.756C237.405 137.104 236.951 147.508 235.199 157.761L225.957 202.763C223.514 217.061 218.035 236.764 208.955 248.631C201.931 257.81 193.186 265.785 183.121 272.19L173.843 278.094C165.635 283.317 155.442 285.256 145.628 283.46C141.07 282.626 136.38 282.589 131.807 283.352L131.526 283.399C120.596 285.223 109.337 282.614 100.687 276.253L92.5204 270.248C85.5259 265.105 79.2034 259.245 73.6777 252.783C61.2402 238.24 53.143 221.007 50.1742 202.763L42.7903 157.387C41.1619 147.38 40.768 137.239 41.6159 127.152L67.9984 57.6643Z" fill="#EDD5BE"/>
<path d="M140.425 282.857C182.759 261.342 215.691 223.373 231.222 177.129L225.957 202.763C223.514 217.061 218.035 236.764 208.955 248.631C201.931 257.81 193.186 265.785 183.121 272.19L173.843 278.094C165.635 283.317 155.442 285.256 145.628 283.46C143.908 283.145 142.169 282.944 140.425 282.857Z" fill="#E2CBB4"/>
<path fill-rule="evenodd" clip-rule="evenodd" d="M138.682 28.2595L216.998 58.5764L240.254 126.502C241.129 137.109 240.663 147.773 238.867 158.283L230.136 209.387C227.606 224.194 221.402 238.279 211.999 250.569C204.725 260.074 195.668 268.334 185.245 274.967L175.968 280.87C166.928 286.623 155.705 288.757 144.898 286.78C140.801 286.03 136.585 285.997 132.475 286.683L132.194 286.73C120.201 288.731 107.848 285.868 98.3574 278.889L90.1903 272.884C82.9741 267.578 76.4512 261.532 70.7504 254.866C57.9188 239.861 49.5649 222.082 46.502 203.26L39.1181 157.884C37.449 147.627 37.0453 137.232 37.9143 126.893L68.5605 61.5L138.682 28.2595ZM138.776 35.0561L68.5605 61.5L45.3173 127.411C44.4906 137.246 44.8747 147.134 46.4623 156.89L53.8462 202.266C56.721 219.932 64.5616 236.618 76.6048 250.701C81.9554 256.958 88.0775 262.632 94.8504 267.612L103.017 273.618C110.827 279.36 120.991 281.715 130.858 280.069L131.139 280.022C136.175 279.182 141.339 279.222 146.359 280.14C155.18 281.755 164.341 280.012 171.719 275.317L180.997 269.413C190.703 263.237 199.137 255.545 205.91 246.693C214.667 235.249 220.443 222.133 222.799 208.344L231.531 157.24C233.24 147.243 233.682 137.099 232.851 127.01L211.999 58.5764L138.776 35.0561Z" fill="black"/>
<path fill-rule="evenodd" clip-rule="evenodd" d="M139.831 274.082C139.01 274.082 138.346 273.476 138.346 272.728V265.957C138.346 265.209 139.01 264.603 139.831 264.603C140.651 264.603 141.315 265.209 141.315 265.957V272.728C141.315 273.476 140.651 274.082 139.831 274.082Z" fill="#C7B6A5"/>
<path d="M117.412 229H164.709C165.85 229 166.884 229.646 167.39 230.654L167.483 230.86L170.431 238.037C170.693 238.676 170.726 239.382 170.529 240.038L170.431 240.316L167.483 247.492C167.021 248.618 165.926 249.352 164.709 249.353H117.412C116.272 249.352 115.237 248.707 114.731 247.699L114.638 247.492L111.69 240.316C111.428 239.678 111.395 238.97 111.592 238.314L111.69 238.037L114.638 230.86C115.071 229.805 116.061 229.094 117.186 229.009L117.412 229Z" fill="#FBB44E" stroke="black" stroke-width="4"/>
<line x1="156.061" y1="229.865" x2="156.061" y2="251.353" stroke="black" stroke-width="4"/>
<line x1="126.061" y1="228.433" x2="126.061" y2="249.92" stroke="black" stroke-width="4"/>
<line x1="141.061" y1="229.865" x2="141.061" y2="251.353" stroke="black" stroke-width="4"/>
<path fill-rule="evenodd" clip-rule="evenodd" d="M135.127 208.329C138.425 210.528 142.722 210.528 146.02 208.329L152.702 203.874C153.726 203.192 155.109 203.469 155.791 204.492C156.473 205.516 156.197 206.899 155.173 207.581L148.491 212.036C143.696 215.232 137.45 215.232 132.656 212.036L125.973 207.581C124.95 206.899 124.673 205.516 125.356 204.492C126.038 203.469 127.421 203.192 128.444 203.874L135.127 208.329Z" fill="#C7B6A5"/>
<path fill-rule="evenodd" clip-rule="evenodd" d="M128.036 144.029C126.986 145.79 124.707 146.367 122.946 145.317L113.44 139.65C100.94 132.199 85.1171 133.348 73.8254 142.528C72.2346 143.822 69.8965 143.58 68.6031 141.99C67.3098 140.399 67.551 138.061 69.1418 136.767C82.8521 125.621 102.065 124.225 117.242 133.273L126.748 138.94C128.509 139.989 129.086 142.268 128.036 144.029Z" fill="black"/>
<path fill-rule="evenodd" clip-rule="evenodd" d="M152.976 144.029C154.026 145.79 156.305 146.367 158.066 145.317L167.572 139.65C180.071 132.199 195.895 133.348 207.186 142.528C208.777 143.822 211.115 143.58 212.409 141.99C213.702 140.399 213.461 138.061 211.87 136.767C198.16 125.621 178.947 124.225 163.77 133.273L154.264 138.94C152.503 139.989 151.926 142.268 152.976 144.029Z" fill="black"/>
<circle cx="181.413" cy="166.94" r="26.8929" fill="white"/>
<circle cx="181.833" cy="168.228" r="17.2282" fill="#4361FF"/>
<circle cx="181.833" cy="168.228" r="11.3454" stroke="black" stroke-width="3" stroke-linecap="round" stroke-linejoin="bevel" stroke-dasharray="4 4"/>
<path d="M154.112 170.354C155.765 170.58 157.288 169.422 157.513 167.769L158.033 163.96C159.136 155.868 164.344 148.92 171.801 145.591C177.481 143.055 183.945 142.867 189.767 145.063C198.122 148.213 204.01 155.799 204.974 164.671L205.302 167.687C205.482 169.346 206.973 170.544 208.632 170.364C210.291 170.184 211.489 168.693 211.309 167.034L210.981 164.018C209.77 152.877 202.38 143.361 191.899 139.409C184.589 136.653 176.474 136.888 169.338 140.073C159.972 144.255 153.432 152.98 152.046 163.144L151.526 166.952C151.301 168.606 152.458 170.129 154.112 170.354Z" fill="black"/>
<circle cx="100.975" cy="166.94" r="26.8929" fill="white"/>
<circle cx="101.395" cy="168.228" r="17.2282" fill="#4361FF"/>
<circle cx="101.395" cy="168.228" r="11.3454" stroke="black" stroke-width="3" stroke-linecap="round" stroke-linejoin="bevel" stroke-dasharray="4 4"/>
<path d="M73.6739 170.354C75.3272 170.58 76.8502 169.422 77.0756 167.769L77.595 163.96C78.6985 155.868 83.906 148.92 91.3638 145.591C97.0433 143.055 103.507 142.867 109.33 145.063C117.684 148.213 123.572 155.799 124.537 164.671L124.864 167.687C125.045 169.346 126.536 170.544 128.194 170.364C129.853 170.184 131.052 168.693 130.871 167.034L130.544 164.018C129.333 152.877 121.943 143.361 111.461 139.409C104.152 136.653 96.0367 136.888 88.9006 140.073C79.5341 144.255 72.9939 152.98 71.608 163.144L71.0886 166.952C70.8632 168.606 72.0206 170.129 73.6739 170.354Z" fill="black"/>
<circle cx="182.061" cy="168" r="6" fill="#C73D70" stroke="black" stroke-width="2"/>
<circle cx="101.061" cy="168" r="6" fill="#C73D70" stroke="black" stroke-width="2"/>
<path d="M35.7963 107.276L43.4992 164.14L54.9992 124.331L61.7818 101.711C62.5892 99.0184 63.7767 96.4545 65.3083 94.0969C71.7868 84.1245 83.61 79.0047 95.3155 81.1028L124.623 86.3561C127.535 86.878 130.487 87.1404 133.445 87.1404H157.541C161.169 87.1404 164.786 86.7456 168.329 85.9629L187.199 81.7933C198.744 79.2425 210.747 83.3458 218.313 92.43C221.18 95.8716 223.283 99.883 224.482 104.199L228.499 118.651L235.999 164.14C237.999 153.14 241.499 143.14 242.999 133.64L247.994 107.583C248.588 104.481 248.903 101.329 248.889 98.1706C248.869 93.9079 248.738 89.6165 248.037 85.5337L245.416 74.0168C244.431 69.6899 242.876 65.5189 240.795 61.612C239.625 59.4152 238.098 57.436 236.469 55.554L229.499 47.5L235.999 43.6404L217.999 34.1404L197.499 25L205.499 19.6404L184.499 14.1404C184.499 14.1404 169.999 11.1405 157.999 10.6405C145.999 10.1405 133.999 11.1404 133.999 11.1404C133.999 11.1404 120.642 12.2214 116.81 13.365C111.797 14.8613 103.103 18.3952 98.9991 21.6404L84.4991 32.6404L81.4199 22.6116L65.2243 45.4551C61.4997 50.7085 59.4992 56.9892 59.4992 63.4289C59.4992 64.7528 58.6587 65.9319 57.4079 66.3656C46.5707 70.1236 38.6395 79.5097 36.7571 90.8244L35.9737 95.5337C35.3276 99.4169 35.2678 103.375 35.7963 107.276Z" fill="#5D473B"/>
<path d="M141.353 7.20553C145.907 7.01577 152.013 6.88753 158.145 7.14303C164.342 7.40126 171.12 8.30075 176.297 9.12155C178.897 9.53372 181.117 9.92935 182.689 10.2231C183.475 10.37 184.101 10.4915 184.532 10.5766C184.747 10.6192 184.914 10.6531 185.028 10.6762C185.085 10.6877 185.129 10.6964 185.159 10.7026C185.174 10.7057 185.186 10.7087 185.194 10.7104C185.198 10.7112 185.201 10.7119 185.204 10.7124C185.205 10.7126 185.206 10.7122 185.207 10.7124L185.208 10.7133C185.207 10.7198 185.185 10.8248 184.829 12.5473L185.209 10.7133C185.268 10.7256 185.328 10.739 185.386 10.7544L206.386 16.2544L206.631 16.3286C207.84 16.7414 208.736 17.7853 208.951 19.0581C209.18 20.4157 208.591 21.782 207.447 22.5483L204.709 24.3823L219.424 30.9438L219.632 31.0454L237.632 40.5454C238.752 41.1365 239.466 42.2862 239.498 43.5522C239.529 44.8183 238.875 46.0032 237.786 46.6499L234.883 48.3725L239.116 53.2631L239.754 54.0131C241.243 55.7883 242.706 57.7541 243.884 59.9672L244.295 60.7544C246.316 64.7061 247.841 68.8995 248.829 73.2397L251.45 84.7573L251.487 84.9419L251.621 85.7661C252.255 89.8923 252.37 94.1289 252.388 98.1547L252.387 98.7924C252.364 101.554 252.109 104.297 251.655 106.998L251.431 108.242L246.449 134.229C245.667 139.161 244.377 144.184 243.075 149.207C241.756 154.294 240.416 159.416 239.443 164.766C239.138 166.441 237.673 167.654 235.97 167.64C234.268 167.626 232.822 166.389 232.545 164.709L225.076 119.407L221.11 105.136C220.11 101.538 218.404 98.1773 216.094 95.2495L215.624 94.6704C209 86.7181 198.553 83.0576 188.436 85.1088L187.955 85.2104L169.084 89.3803C165.293 90.2178 161.422 90.6401 157.541 90.6401H133.445C130.676 90.6401 127.911 90.4253 125.176 89.9975L124.005 89.8012L94.6978 84.5483C84.5395 82.7275 74.2804 87.0721 68.5142 95.5942L68.2437 96.0034C66.9779 97.9519 65.9786 100.061 65.2721 102.273L65.1344 102.716L58.3609 125.301L58.3619 125.302L46.8619 165.112C46.4027 166.701 44.8929 167.752 43.2428 167.631C41.696 167.518 40.4219 166.403 40.0855 164.914L40.0308 164.61L32.3277 107.746C31.7524 103.498 31.8176 99.1878 32.5211 94.9594L33.3043 90.2505L33.4078 89.6616C35.6576 77.4345 44.276 67.3205 56.0015 63.1508C56.0584 56.0834 58.2785 49.2004 62.3687 43.4311L78.565 20.5874L78.7154 20.3891C79.5011 19.4326 80.7409 18.9574 81.9752 19.1557C83.292 19.3674 84.3747 20.3095 84.7662 21.5844L86.3746 26.8237L96.8834 18.852C99.2871 16.9655 102.785 15.1444 106.139 13.6499C109.576 12.1188 113.144 10.8067 115.809 10.0112L116.265 9.88424C118.677 9.25563 122.99 8.7203 126.465 8.3442C128.4 8.13485 130.21 7.96167 131.536 7.84127C132.199 7.78103 132.742 7.73388 133.121 7.70162C133.31 7.68551 133.458 7.67291 133.559 7.66451C133.61 7.66033 133.649 7.6579 133.675 7.65572C133.688 7.65465 133.699 7.65336 133.706 7.6528C133.708 7.65261 133.71 7.65292 133.712 7.6528L133.712 7.65182C133.714 7.65166 133.717 7.65208 133.72 7.65182C133.727 7.65125 133.738 7.64992 133.751 7.64889C133.776 7.64683 133.813 7.64386 133.86 7.6401C133.956 7.63252 134.095 7.62143 134.276 7.60787C134.638 7.58074 135.165 7.54321 135.833 7.49947C137.168 7.41202 139.071 7.3006 141.353 7.20553ZM62.9996 63.4292C62.9995 66.1583 61.3218 68.5942 58.8014 69.5815L58.5543 69.6723C49.0767 72.9589 42.1017 81.091 40.2916 90.9292L40.2096 91.3989L39.4264 96.1079C38.8378 99.6457 38.7828 103.252 39.2642 106.806L44.7398 147.231L51.6363 123.36L51.6471 123.326L58.4293 100.707L58.6031 100.143C59.4994 97.3367 60.7678 94.6618 62.3736 92.1899L62.7174 91.6713C70.0321 80.8602 83.0465 75.3478 95.9332 77.6577L125.241 82.9106L126.257 83.0815C128.635 83.4534 131.038 83.6401 133.445 83.6401H157.541C160.915 83.6401 164.279 83.2733 167.574 82.5454L186.444 78.3755L187.045 78.2485C199.682 75.6865 212.729 80.2578 221.003 90.1899L221.589 90.9135C224.475 94.5703 226.605 98.7674 227.854 103.261L231.872 117.714L231.917 117.897C231.93 117.958 231.943 118.02 231.953 118.082L236.6 146.272C237.799 141.631 238.878 137.296 239.542 133.094L239.562 132.982L244.556 106.924L244.753 105.836C245.119 103.659 245.333 101.469 245.379 99.2807L245.388 98.187C245.369 93.9855 245.237 89.9635 244.6 86.2046L242.003 74.7934C241.145 71.0209 239.82 67.3757 238.063 63.9409L237.706 63.2573C236.837 61.6261 235.706 60.0802 234.395 58.5161L233.823 57.8442L226.852 49.7905C226.174 49.0069 225.879 47.9628 226.045 46.9399C226.21 45.9168 226.821 45.0198 227.712 44.4907L228.841 43.8198L216.473 37.2924L196.074 28.1967C194.91 27.678 194.121 26.5676 194.012 25.2983C193.904 24.0291 194.493 22.8012 195.551 22.0922L197.095 21.0571L183.708 17.5503C183.688 17.5463 183.665 17.5419 183.639 17.5366C183.535 17.5155 183.378 17.4842 183.173 17.4438C182.764 17.363 182.163 17.246 181.403 17.104C179.881 16.8196 177.726 16.4349 175.201 16.0346C170.128 15.2305 163.656 14.3789 157.853 14.1372C151.985 13.8927 146.091 14.0144 141.645 14.1997C139.427 14.2921 137.58 14.4004 136.291 14.4848C135.646 14.527 135.142 14.5627 134.8 14.5883C134.63 14.6011 134.5 14.6118 134.414 14.6186C134.371 14.622 134.339 14.6247 134.318 14.6264C134.308 14.6273 134.3 14.628 134.295 14.6284H134.29L134.282 14.6294H134.273C134.267 14.6298 134.258 14.6313 134.247 14.6323C134.222 14.6343 134.185 14.6371 134.137 14.6411C134.041 14.6491 133.899 14.6606 133.715 14.6762C133.348 14.7075 132.817 14.754 132.169 14.813C130.87 14.9309 129.102 15.0994 127.218 15.3032C123.534 15.7018 119.845 16.1923 118.128 16.6313L117.811 16.7192C115.463 17.42 112.178 18.6233 108.988 20.0444C105.945 21.4002 103.23 22.8488 101.503 24.1313L101.17 24.3862L101.115 24.4292L86.6148 35.4292C85.7042 36.12 84.5133 36.3219 83.4254 35.9712C82.3374 35.6203 81.4885 34.7603 81.1529 33.6674L80.1607 30.438L68.0797 47.479C64.7746 52.1407 62.9996 57.7147 62.9996 63.4292Z" fill="black"/>
<path d="M95.1448 54.0123C105.458 35.6123 125.309 24.6468 146.375 25.7115C148.297 25.8089 149.776 27.4457 149.679 29.3678C149.582 31.29 147.945 32.7696 146.023 32.6725C127.601 31.7415 110.243 41.3306 101.225 57.4205L97.5247 64.0221C96.6129 65.6482 94.5915 66.2599 92.9397 65.441L92.7805 65.358C91.1018 64.4169 90.5038 62.2927 91.4446 60.6139L95.1448 54.0123Z" fill="#423027"/>
<path d="M130.947 62.7259C142.055 45.4236 161.827 35.1029 181.636 36.3753C183.618 36.5029 184.997 38.2693 184.682 40.2083C184.4 41.9454 182.846 43.25 181.087 43.223L181.045 41.2201L180.916 43.2161C163.75 42.1135 146.455 51.0816 136.723 66.2406L135.722 67.8001C134.807 69.2245 132.876 69.9532 131.208 69.1273L131.048 69.0423C129.243 68.0279 128.967 65.8101 129.946 64.2845L130.947 62.7259Z" fill="#423027"/>
<path d="M162.038 65.2945C176.42 50.9131 198.391 47.3473 216.582 56.443L219.582 57.9439C221.393 58.8494 222.127 61.051 221.222 62.8619C220.316 64.6728 218.115 65.4069 216.304 64.5016L213.303 63.0016C197.934 55.3173 179.373 58.3293 167.223 70.4791C165.791 71.9107 163.47 71.9106 162.038 70.4791C160.607 69.0474 160.607 66.7262 162.038 65.2945Z" fill="#423027"/>
<g filter="url(#filter1_d_4026_7)">
<path d="M57.7208 138.039H109.221L130.221 147.539L131.721 164.539L124.721 184.039L110.721 197.539L88.2208 198.539L56.7208 196.039L46.7208 184.539L45.7208 167.539L48.2208 145.039L57.7208 138.039Z" fill="white" fill-opacity="0.5"/>
<path d="M225.721 138.039H174.221L153.221 147.539L151.721 164.539L158.721 184.039L172.721 197.539L195.221 198.539L226.721 196.039L236.721 184.539L237.721 167.539L235.221 145.039L225.721 138.039Z" fill="white" fill-opacity="0.5"/>
<path fill-rule="evenodd" clip-rule="evenodd" d="M103.439 133.5C108.429 133.5 113.355 134.668 117.856 136.919L129.705 142.845C130.871 143.428 131.909 144.208 132.791 145.134L139.658 145.867C140.705 145.979 141.761 145.979 142.809 145.867L149.675 145.134C150.557 144.207 151.595 143.428 152.762 142.845L164.609 136.919C169.111 134.668 174.038 133.5 179.027 133.5H217.477C220.119 133.5 222.732 134.09 225.139 135.23L229.081 137.099C233.296 139.095 236.551 142.613 238.367 146.864H245.497C246.551 146.864 247.406 147.541 247.406 148.376V156.598C247.406 157.183 246.98 157.715 246.312 157.965L243.419 159.044C242.92 159.23 242.547 159.579 242.396 160L241.116 163.583C240.951 164.046 240.523 164.407 239.981 164.576V176.076C239.981 185.504 235.049 194.177 227.127 198.681C223.519 200.732 219.477 201.807 215.369 201.807H177.954C173.394 201.807 168.993 200.051 165.592 196.876L162.548 194.035C152.294 184.463 146.431 170.773 146.431 156.4V155.968L144.517 155.534C142.355 155.044 140.111 155.044 137.949 155.534L136.036 155.968V156.4C136.036 170.773 130.173 184.463 119.919 194.035L116.875 196.876C113.473 200.051 109.073 201.807 104.513 201.807H67.0977C62.9903 201.807 58.9482 200.732 55.3398 198.681C47.4176 194.177 42.4854 185.504 42.4854 176.076V164.576C41.944 164.407 41.5151 164.046 41.3496 163.583L40.0703 160C39.9201 159.579 39.5464 159.23 39.0469 159.044L36.1553 157.965C35.4869 157.715 35.0605 157.183 35.0605 156.598V148.376C35.0605 147.541 35.9153 146.864 36.9697 146.864H44.0996C45.9159 142.613 49.1712 139.095 53.3857 137.099L57.3281 135.23C59.7351 134.09 62.3477 133.5 64.9902 133.5H103.439ZM64.9902 141.262C63.4047 141.262 61.8367 141.616 60.3926 142.3L56.4502 144.168C52.4681 146.055 49.9102 150.203 49.9102 154.773V176.076C49.9102 182.66 53.3544 188.716 58.8867 191.861C61.4066 193.294 64.2293 194.045 67.0977 194.045H104.513C107.249 194.045 109.889 192.991 111.93 191.086L114.974 188.245C123.65 180.145 128.611 168.561 128.611 156.4V153.348C128.611 151.853 127.79 150.492 126.501 149.847L114.653 143.922C111.152 142.171 107.32 141.262 103.439 141.262H64.9902ZM179.027 141.262C175.146 141.262 171.314 142.171 167.813 143.922L155.966 149.847C154.676 150.492 153.856 151.853 153.855 153.348V156.4C153.855 168.561 158.816 180.145 167.493 188.245L170.537 191.086C172.578 192.991 175.218 194.045 177.954 194.045H215.369C218.238 194.045 221.06 193.294 223.58 191.861C229.112 188.716 232.557 182.66 232.557 176.076V154.773C232.557 150.203 229.999 146.055 226.017 144.168L222.073 142.3C220.629 141.616 219.062 141.262 217.477 141.262H179.027Z" fill="url(#paint0_linear_4026_7)"/>
<path d="M54.9028 175.978L54.7889 175.876C54.1997 175.395 53.3307 175.429 52.7815 175.978C52.2323 176.528 52.1981 177.397 52.6786 177.986L52.7815 178.1L65.7815 191.1C66.3673 191.686 67.3171 191.686 67.9028 191.1C68.4886 190.514 68.4886 189.564 67.9028 188.978L54.9028 175.978Z" fill="white" fill-opacity="0.7"/>
<path d="M62.9028 175.978L62.7889 175.875C62.1997 175.395 61.3306 175.429 60.7815 175.978C60.2323 176.528 60.1981 177.397 60.6786 177.986L60.7815 178.1L66.7815 184.1C67.3673 184.686 68.3171 184.686 68.9028 184.1C69.4886 183.514 69.4886 182.564 68.9028 181.978L62.9028 175.978Z" fill="white" fill-opacity="0.7"/>
</g>
<defs>
<filter id="filter0_d_4026_7" x="8" y="0.000358582" width="263.238" height="302.5" filterUnits="userSpaceOnUse" color-interpolation-filters="sRGB">
<feFlood flood-opacity="0" result="BackgroundImageFix"/>
<feColorMatrix in="SourceAlpha" type="matrix" values="0 0 0 0 0 0 0 0 0 0 0 0 0 0 0 0 0 0 127 0" result="hardAlpha"/>
<feOffset dy="4"/>
<feGaussianBlur stdDeviation="2"/>
<feComposite in2="hardAlpha" operator="out"/>
<feColorMatrix type="matrix" values="0 0 0 0 0 0 0 0 0 0 0 0 0 0 0 0 0 0 0.25 0"/>
<feBlend mode="normal" in2="BackgroundImageFix" result="effect1_dropShadow_4026_7"/>
<feBlend mode="normal" in="SourceGraphic" in2="effect1_dropShadow_4026_7" result="shape"/>
</filter>
<filter id="filter1_d_4026_7" x="31.0605" y="133.5" width="220.346" height="76.3066" filterUnits="userSpaceOnUse" color-interpolation-filters="sRGB">
<feFlood flood-opacity="0" result="BackgroundImageFix"/>
<feColorMatrix in="SourceAlpha" type="matrix" values="0 0 0 0 0 0 0 0 0 0 0 0 0 0 0 0 0 0 127 0" result="hardAlpha"/>
<feOffset dy="4"/>
<feGaussianBlur stdDeviation="2"/>
<feComposite in2="hardAlpha" operator="out"/>
<feColorMatrix type="matrix" values="0 0 0 0 0 0 0 0 0 0 0 0 0 0 0 0 0 0 0.4 0"/>
<feBlend mode="normal" in2="BackgroundImageFix" result="effect1_dropShadow_4026_7"/>
<feBlend mode="normal" in="SourceGraphic" in2="effect1_dropShadow_4026_7" result="shape"/>
</filter>
<linearGradient id="paint0_linear_4026_7" x1="141.233" y1="133.5" x2="141.233" y2="201.807" gradientUnits="userSpaceOnUse">
<stop stop-color="#1E2225"/>
<stop offset="1" stop-color="#565B52"/>
</linearGradient>
</defs>
</svg>
