<svg width="280" height="370" viewBox="0 0 280 370" fill="none" xmlns="http://www.w3.org/2000/svg">
<g filter="url(#filter0_d_4026_5)">
<path d="M267 222.149C267 216.698 262.208 212.542 256.879 213.219L256.361 213.3L254.558 213.634L252.028 208.245L261.56 174.251C263.7 166.615 260.103 158.582 252.792 154.676L249.346 152.834V148.376C249.346 147.541 248.491 146.864 247.437 146.864H243.676C244.762 142.624 245.789 138.394 246.449 134.229L251.432 108.241L251.655 106.998C252.11 104.297 252.365 101.553 252.388 98.792L252.389 98.1543C252.37 94.1286 252.255 89.8917 251.621 85.7656L251.487 84.9414L251.45 84.7568L248.829 73.2393C247.841 68.8992 246.316 64.7056 244.295 60.7539L243.885 59.9668C242.706 57.7537 241.243 55.7878 239.755 54.0127L239.116 53.2627L234.884 48.3721L237.786 46.6494C238.875 46.0027 239.53 44.8177 239.498 43.5518C239.466 42.286 238.753 41.136 237.633 40.5449L219.633 31.0449L219.425 30.9434L204.709 24.3818L207.447 22.5478C208.591 21.7815 209.18 20.4151 208.951 19.0576C208.736 17.7851 207.84 16.741 206.632 16.3281L206.387 16.2539L185.387 10.7539C185.328 10.7385 185.267 10.7252 185.208 10.7129L185.207 10.7119C185.206 10.7118 185.205 10.712 185.204 10.7119C185.202 10.7114 185.198 10.7108 185.194 10.71C185.186 10.7083 185.174 10.7052 185.159 10.7021C185.129 10.696 185.085 10.6873 185.028 10.6758C184.914 10.6527 184.747 10.6187 184.532 10.5762C184.101 10.491 183.476 10.3696 182.689 10.2227C181.118 9.92891 178.898 9.53325 176.298 9.12109C171.121 8.30031 164.343 7.40083 158.146 7.14258C152.014 6.88708 145.908 7.01532 141.354 7.20508C139.072 7.30014 137.169 7.41157 135.833 7.49902C135.165 7.54274 134.638 7.58029 134.276 7.60742C134.096 7.62096 133.956 7.63207 133.86 7.63965C133.813 7.64339 133.776 7.64637 133.751 7.64843C133.739 7.64945 133.728 7.65078 133.721 7.65136C133.718 7.65161 133.715 7.65128 133.713 7.65136L133.712 7.65234C133.71 7.65246 133.708 7.65221 133.706 7.65234C133.699 7.6529 133.689 7.65421 133.676 7.65527C133.649 7.65744 133.61 7.6599 133.56 7.66406C133.458 7.67245 133.31 7.68507 133.121 7.70117C132.743 7.73342 132.199 7.78059 131.536 7.84082C130.211 7.96121 128.4 8.13441 126.466 8.34375C122.99 8.71982 118.678 9.25522 116.266 9.88379L115.81 10.0107C113.144 10.8062 109.576 12.1184 106.14 13.6494C102.785 15.1439 99.2875 16.9651 96.8838 18.8516L86.375 26.8232L84.7666 21.584C84.3751 20.3093 83.2921 19.3671 81.9756 19.1553C80.7415 18.957 79.5015 19.4325 78.7158 20.3887L78.5654 20.5869L62.3691 43.4307C58.279 49.1999 56.0589 56.0831 56.002 63.1504C44.2766 67.32 35.6582 77.4343 33.4082 89.6611L33.3047 90.25L32.5215 94.959C31.8181 99.1872 31.7528 103.498 32.3281 107.745L37.6758 147.223C37.2626 147.5 37 147.914 37 148.376V151.254C36.8052 151.333 36.6125 151.421 36.4229 151.519L30.5879 154.52C23.2103 158.314 19.4734 166.292 21.4824 173.96L29.7822 205.64C29.1488 206.273 28.6036 207.009 28.1738 207.832L28.0039 208.176L25.4414 213.633L23.6387 213.3L23.1211 213.219C17.7915 212.542 13.0001 216.698 13 222.149V319.081L13.0088 319.474C13.1831 323.508 16.0318 326.937 19.9648 327.849L20.3613 327.931L124.361 347.19C125.832 347.463 127.271 347.359 128.593 346.96C129.836 350.21 132.908 352.555 136.551 352.734L137 352.745H143L143.463 352.733C147.099 352.549 150.164 350.206 151.406 346.96C152.729 347.359 154.168 347.463 155.639 347.19L259.639 327.931L260.035 327.849C263.968 326.937 266.817 323.508 266.991 319.474L267 319.081V222.149ZM143.389 345.706C143.357 345.712 143.326 345.716 143.294 345.721C143.326 345.716 143.357 345.712 143.389 345.706ZM136.533 345.687C136.506 345.681 136.479 345.676 136.453 345.669L136.446 345.666L136.533 345.687ZM143.566 345.662C143.533 345.672 143.5 345.679 143.466 345.687C143.5 345.679 143.533 345.672 143.566 345.662ZM136.35 345.635C136.317 345.624 136.285 345.611 136.253 345.599C136.285 345.611 136.317 345.624 136.35 345.635ZM143.71 345.615C143.69 345.623 143.669 345.628 143.649 345.635L143.733 345.604L143.71 345.615ZM136.184 345.569C136.15 345.554 136.117 345.538 136.084 345.521C136.117 345.538 136.15 345.554 136.184 345.569ZM143.867 345.548C143.85 345.556 143.832 345.562 143.815 345.569L143.904 345.526L143.867 345.548ZM136.018 345.486C135.986 345.468 135.955 345.448 135.924 345.429C135.955 345.448 135.986 345.468 136.018 345.486ZM144.017 345.468C144.005 345.475 143.993 345.48 143.981 345.486L144.061 345.437L144.017 345.468ZM135.861 345.389C135.855 345.384 135.849 345.38 135.843 345.376L135.801 345.343L135.861 345.389ZM144.157 345.376C144.151 345.38 144.144 345.384 144.138 345.389L144.199 345.342L144.157 345.376ZM144.529 345.032C144.505 345.061 144.479 345.089 144.453 345.116C144.479 345.089 144.505 345.061 144.529 345.032ZM135.412 344.958C135.398 344.939 135.383 344.921 135.369 344.902L135.362 344.893L135.412 344.958ZM144.644 344.883C144.626 344.909 144.606 344.933 144.587 344.958C144.606 344.933 144.626 344.909 144.644 344.883ZM135.315 344.82C135.296 344.789 135.276 344.759 135.258 344.727C135.276 344.759 135.296 344.789 135.315 344.82ZM144.741 344.727C144.723 344.759 144.703 344.789 144.684 344.82C144.703 344.789 144.723 344.759 144.741 344.727ZM135.223 344.66C135.206 344.627 135.19 344.594 135.175 344.561C135.19 344.594 135.206 344.627 135.223 344.66ZM144.824 344.561C144.809 344.594 144.793 344.627 144.776 344.66C144.793 344.627 144.809 344.594 144.824 344.561ZM135.146 344.491C135.133 344.459 135.121 344.427 135.109 344.395C135.121 344.427 135.133 344.459 135.146 344.491ZM144.89 344.395C144.878 344.427 144.866 344.459 144.854 344.491C144.866 344.459 144.878 344.427 144.89 344.395ZM135.082 344.312C135.072 344.278 135.065 344.243 135.057 344.208C135.065 344.243 135.072 344.278 135.082 344.312ZM144.943 344.208C144.935 344.243 144.927 344.277 144.917 344.312C144.927 344.277 144.935 344.243 144.943 344.208ZM126.088 340.339C126.084 340.339 126.081 340.341 126.077 340.341L125.865 340.337C125.94 340.342 126.014 340.342 126.088 340.339ZM126.305 340.317C126.241 340.327 126.177 340.333 126.111 340.337C126.177 340.333 126.241 340.327 126.305 340.317ZM153.888 340.337C153.822 340.333 153.758 340.327 153.694 340.317C153.758 340.327 153.822 340.333 153.888 340.337ZM126.499 340.277C126.453 340.289 126.407 340.298 126.36 340.307C126.407 340.298 126.453 340.289 126.499 340.277ZM153.639 340.307C153.592 340.298 153.546 340.289 153.5 340.277C153.546 340.289 153.592 340.298 153.639 340.307ZM126.679 340.224C126.651 340.234 126.621 340.24 126.593 340.249L126.702 340.212L126.679 340.224ZM153.406 340.249C153.378 340.24 153.349 340.234 153.321 340.224L153.294 340.211L153.406 340.249ZM126.864 340.145C126.834 340.16 126.802 340.171 126.771 340.185L126.891 340.13L126.864 340.145ZM153.229 340.185C153.198 340.172 153.166 340.16 153.136 340.145L153.104 340.128L153.229 340.185ZM127.041 340.049C127.019 340.062 126.996 340.072 126.974 340.085L127.065 340.03L127.041 340.049ZM153.025 340.085C153.003 340.073 152.98 340.062 152.959 340.049L152.929 340.027L153.025 340.085ZM127.206 339.937C127.19 339.949 127.171 339.959 127.154 339.971L127.233 339.912L127.206 339.937ZM152.845 339.971C152.816 339.95 152.787 339.929 152.759 339.907C152.787 339.929 152.816 339.95 152.845 339.971ZM127.359 339.809C127.345 339.822 127.329 339.832 127.314 339.845L127.396 339.769L127.359 339.809ZM152.685 339.845C152.654 339.818 152.624 339.791 152.596 339.763C152.624 339.791 152.654 339.818 152.685 339.845ZM127.541 339.612C127.515 339.643 127.489 339.674 127.461 339.703C127.489 339.674 127.515 339.643 127.541 339.612ZM152.538 339.703C152.511 339.674 152.485 339.643 152.459 339.612C152.485 339.643 152.511 339.674 152.538 339.703ZM127.667 339.44C127.644 339.475 127.622 339.51 127.597 339.543C127.622 339.51 127.644 339.475 127.667 339.44ZM152.403 339.543C152.378 339.51 152.355 339.475 152.332 339.44C152.355 339.475 152.378 339.51 152.403 339.543ZM127.734 339.339C127.728 339.35 127.719 339.361 127.712 339.372L127.762 339.283L127.734 339.339ZM152.287 339.372C152.267 339.338 152.248 339.304 152.229 339.269C152.248 339.304 152.267 339.338 152.287 339.372ZM127.826 339.158C127.823 339.165 127.819 339.172 127.815 339.179L127.849 339.097L127.826 339.158ZM152.184 339.179C152.167 339.143 152.154 339.107 152.14 339.07C152.154 339.107 152.167 339.143 152.184 339.179ZM127.929 338.864C127.917 338.907 127.905 338.948 127.891 338.989C127.905 338.948 127.917 338.907 127.929 338.864ZM152.108 338.989C152.106 338.982 152.102 338.974 152.1 338.967L152.084 338.91L152.108 338.989ZM127.955 338.767C127.954 338.77 127.952 338.774 127.951 338.777L127.963 338.71L127.955 338.767ZM152.048 338.777C152.04 338.742 152.035 338.705 152.029 338.669C152.035 338.705 152.04 338.742 152.048 338.777ZM21.6357 321.048C21.5781 321.037 21.5214 321.024 21.4658 321.009C21.5214 321.024 21.5781 321.037 21.6357 321.048ZM258.533 321.009C258.478 321.024 258.422 321.037 258.364 321.048C258.422 321.037 258.478 321.024 258.533 321.009ZM21.2295 320.925C21.1987 320.912 21.1676 320.9 21.1377 320.886C21.1676 320.9 21.1987 320.912 21.2295 320.925ZM258.861 320.886C258.831 320.9 258.8 320.912 258.77 320.925C258.8 320.912 258.831 320.9 258.861 320.886ZM21.1113 320.872C21.0728 320.853 21.035 320.833 20.998 320.812C21.035 320.833 21.0728 320.853 21.1113 320.872ZM258.982 320.824C258.952 320.842 258.919 320.856 258.888 320.872L258.993 320.815L258.982 320.824ZM20.9336 320.771C20.9083 320.755 20.8829 320.74 20.8584 320.723C20.8829 320.74 20.9083 320.755 20.9336 320.771ZM259.119 320.739C259.102 320.751 259.083 320.76 259.065 320.771L259.134 320.728L259.119 320.739ZM20.7949 320.676C20.7714 320.658 20.7483 320.64 20.7256 320.621C20.7483 320.64 20.7714 320.658 20.7949 320.676ZM259.249 320.644C259.235 320.655 259.219 320.665 259.204 320.676L259.271 320.624L259.249 320.644ZM20.6738 320.577C20.6457 320.552 20.6184 320.526 20.5918 320.5C20.6184 320.526 20.6457 320.552 20.6738 320.577ZM259.37 320.539C259.356 320.552 259.34 320.564 259.325 320.577L259.397 320.51L259.37 320.539ZM20.5586 320.466C20.5327 320.439 20.5077 320.411 20.4834 320.383C20.5077 320.411 20.5327 320.439 20.5586 320.466ZM259.516 320.383C259.491 320.411 259.466 320.439 259.44 320.466C259.466 320.439 259.491 320.411 259.516 320.383ZM20.4463 320.339C20.4248 320.312 20.4039 320.285 20.3838 320.258C20.4039 320.285 20.4248 320.312 20.4463 320.339ZM259.615 320.258C259.595 320.285 259.574 320.312 259.553 320.339C259.574 320.312 259.595 320.285 259.615 320.258ZM20.3418 320.199C20.3231 320.171 20.3054 320.143 20.2881 320.114C20.3054 320.143 20.3231 320.171 20.3418 320.199ZM259.711 320.114C259.694 320.143 259.676 320.171 259.657 320.199C259.676 320.171 259.694 320.143 259.711 320.114ZM20.2588 320.065C20.2409 320.034 20.2251 320.001 20.209 319.969C20.2251 320.001 20.241 320.034 20.2588 320.065ZM259.79 319.969C259.774 320.001 259.758 320.034 259.74 320.065C259.758 320.034 259.774 320.001 259.79 319.969ZM20.1797 319.908C20.1679 319.882 20.1572 319.856 20.1465 319.829C20.1572 319.856 20.1679 319.882 20.1797 319.908ZM259.853 319.829C259.842 319.856 259.831 319.882 259.819 319.908C259.831 319.882 259.842 319.856 259.853 319.829ZM20.1162 319.753C20.1086 319.732 20.1026 319.71 20.0957 319.688C20.1026 319.71 20.1086 319.732 20.1162 319.753ZM259.904 319.688C259.897 319.71 259.89 319.732 259.883 319.753C259.89 319.732 259.897 319.71 259.904 319.688ZM133.417 0.659177C133.358 0.661722 133.296 0.666306 133.23 0.670896C133.31 0.665454 133.385 0.660691 133.454 0.6582C133.442 0.658646 133.43 0.658647 133.417 0.659177ZM186.752 3.88574L186.755 3.88672C186.752 3.88602 186.747 3.88491 186.742 3.88379L186.752 3.88574ZM186.695 3.87304C186.708 3.8758 186.719 3.87886 186.728 3.88086C186.716 3.87816 186.701 3.87474 186.685 3.87109C186.683 3.87076 186.681 3.87143 186.68 3.87109C186.675 3.8701 186.671 3.86817 186.666 3.86718C186.677 3.86954 186.687 3.87124 186.695 3.87304ZM186.564 3.84668C186.567 3.84719 186.57 3.84786 186.574 3.84863C186.572 3.84827 186.571 3.84699 186.569 3.84668H186.564ZM186.207 3.78515C186.191 3.78284 186.175 3.78147 186.159 3.77929C186.175 3.78146 186.191 3.78284 186.207 3.78515ZM184.535 3.74414C184.534 3.7443 184.532 3.74506 184.531 3.74511L184.543 3.74414H184.535ZM185.839 3.74218C185.828 3.7412 185.817 3.7392 185.807 3.73828C185.799 3.73763 185.792 3.73792 185.784 3.7373C185.802 3.73879 185.82 3.74051 185.839 3.74218ZM184.947 3.71679C184.935 3.71724 184.923 3.71826 184.911 3.71875C184.929 3.71798 184.948 3.71746 184.968 3.71679C184.961 3.71703 184.954 3.71655 184.947 3.71679ZM133.017 0.687497C132.991 0.689959 132.973 0.690841 132.968 0.691403H132.98C132.984 0.691029 132.989 0.689918 132.993 0.68945C132.999 0.688837 133.007 0.688424 133.017 0.687497ZM133.955 0.656247C133.975 0.656924 133.991 0.656851 134 0.657224C134.005 0.657413 134.008 0.658105 134.011 0.6582H134.012C134.01 0.658115 134.006 0.657389 134.002 0.657224C133.994 0.656885 133.98 0.656821 133.964 0.656247C133.948 0.65567 133.927 0.654922 133.903 0.654294H133.901C133.922 0.654852 133.941 0.655752 133.955 0.656247ZM133.499 0.656247C133.48 0.656858 133.46 0.657388 133.439 0.6582C133.46 0.657399 133.48 0.656836 133.499 0.656247ZM133.604 0.654294C133.588 0.654545 133.573 0.6549 133.557 0.655271C133.537 0.655705 133.516 0.656566 133.495 0.657224C133.549 0.655593 133.599 0.6547 133.646 0.654294C133.632 0.654421 133.618 0.654073 133.604 0.654294ZM274 319.081C274 326.553 268.837 332.995 261.615 334.668L261.534 334.687L261.453 334.703L261.057 334.785L260.985 334.801L260.913 334.813L156.913 354.073C156.276 354.191 155.643 354.268 155.015 354.31C152.167 357.545 148.034 359.623 143.413 359.74L143 359.745H137C132.212 359.745 127.917 357.642 124.985 354.31C124.509 354.278 124.029 354.227 123.547 354.152L123.087 354.073L19.0869 334.813L19.0146 334.801L18.9434 334.785L18.5469 334.703L18.4658 334.687L18.3848 334.668C11.2762 333.021 6.162 326.754 6.00391 319.431L6 319.081V222.149C6.00009 213.418 12.9108 206.561 21.2139 206.165L21.667 205.201L21.6973 205.138L21.7285 205.074L21.8984 204.73L21.9326 204.661L21.9688 204.593C22.0349 204.466 22.1037 204.341 22.1729 204.217L14.7109 175.734C11.8158 164.684 17.2875 153.489 27.3857 148.295L30.1172 146.889C30.1855 146.469 30.2823 146.071 30.4043 145.693L25.3916 108.686C24.7222 103.744 24.7979 98.7294 25.6162 93.8105L26.3994 89.1016L26.4102 89.0381L26.5137 88.4492L26.5234 88.3945L26.6553 87.708C29.2383 74.8771 37.6746 64.0655 49.3076 58.3838C50.1408 51.5651 52.6542 45.0305 56.6582 39.3828L72.8545 16.5391L72.9883 16.3564L73.1387 16.1582L73.3066 15.9463L73.5312 15.6807C75.8972 12.9871 79.4993 11.6679 83.0859 12.2441H83.0869L83.4551 12.3105C85.7949 12.7725 87.8663 14.0083 89.376 15.7607L92.6533 13.2754C95.7418 10.8734 99.8308 8.7971 103.29 7.25586L104.678 6.65136C107.923 5.26795 111.198 4.08263 113.808 3.30371L113.932 3.26758L114.388 3.14062L114.5 3.11035L115.084 2.96582C118.106 2.25542 122.568 1.72499 125.712 1.38476L128.545 1.09277C129.425 1.00629 130.226 0.931553 130.902 0.870114L132.525 0.72656H132.526L132.98 0.688474L133.058 0.682614C133.075 0.681004 133.097 0.67979 133.121 0.677732C133.126 0.677344 133.13 0.676157 133.135 0.675778H133.146C133.157 0.674758 133.17 0.672927 133.183 0.671872H133.184L133.307 0.662107L133.753 0.627927L135.375 0.514646L137.856 0.366208C138.812 0.314024 139.888 0.260791 141.062 0.211911L142.885 0.142575C147.305 -0.00972746 152.84 -0.0837839 158.437 0.149411L159.678 0.208005C165.907 0.541421 172.442 1.42302 177.394 2.208L179.321 2.52148C181.167 2.82896 182.757 3.1142 183.975 3.34179L185.89 3.70996L186.48 3.82812L186.562 3.84472L186.599 3.85351C186.604 3.85469 186.611 3.85499 186.618 3.85644L186.623 3.85742L186.666 3.86718C186.663 3.86651 186.66 3.86595 186.656 3.86523C186.665 3.86704 186.672 3.86945 186.68 3.87109C186.77 3.89053 186.86 3.91065 186.949 3.93359L187.16 3.98242L208.16 9.48242L208.415 9.55468L208.66 9.6289L208.895 9.7041L209.231 9.82617C212.575 11.0971 215.064 13.9971 215.787 17.5371L215.854 17.8936V17.8945L215.91 18.2764C216.06 19.4219 216.019 20.5645 215.803 21.6641L222.275 24.5508L222.496 24.6533L222.704 24.7549L222.899 24.8545L240.899 34.3545L241.211 34.5254C244.288 36.2846 246.272 39.481 246.48 43.0205L246.495 43.376V43.3769L246.498 43.7314C246.481 45.7107 245.905 47.6104 244.881 49.2363L245.084 49.4746L245.119 49.5156L245.746 50.2773C247.116 51.9669 248.538 53.9231 249.779 56.1562L250.062 56.6768L250.092 56.7324L250.502 57.5195L250.526 57.5674C252.811 62.0353 254.537 66.7768 255.654 71.6855V71.6865L258.275 83.2041L258.312 83.3779L258.35 83.5625L258.396 83.8203L258.53 84.6445L258.54 84.7031C259.256 89.3653 259.37 94.0306 259.389 98.1221V98.165L259.388 98.8027L259.387 98.8516C259.364 101.61 259.138 104.338 258.739 107.016L258.558 108.16C258.553 108.186 258.549 108.212 258.544 108.238L258.32 109.481L258.306 109.56L253.342 135.451C253.033 137.38 252.654 139.312 252.235 141.228C254.462 142.527 256.346 144.819 256.346 148.376V148.641C266.043 153.963 271.194 164.883 268.438 175.625L268.3 176.142L259.857 206.252C267.675 207.158 274 213.796 274 222.149V319.081Z" fill="white"/>
</g>
<path d="M25.0875 173.128C23.4803 166.993 26.4693 160.611 32.3714 157.576L38.207 154.574C39.6187 153.848 41.3896 154.31 42.2001 155.615L45.2608 160.545L57.6598 217.752C58.1073 219.816 56.0467 221.583 53.8966 220.978L44.4569 218.321C39.4202 216.903 35.5577 213.091 34.302 208.298L25.0875 173.128Z" fill="#EDD5BE"/>
<path d="M25.0875 173.128C23.4803 166.993 26.4693 160.611 32.3714 157.576L38.207 154.574C39.6187 153.848 41.3896 154.31 42.2001 155.615L45.2608 160.545L57.6598 217.752C58.1073 219.816 56.0467 221.583 53.8966 220.978L44.4569 218.321C39.4202 216.903 35.5577 213.091 34.302 208.298L25.0875 173.128Z" fill="#EDD5BE"/>
<path d="M54.9272 205.144C52.6969 207.375 50.0837 208.752 47.199 209.027C41.6427 209.556 36.1986 205.886 32.0272 199.616L34.3019 208.298C35.5577 213.091 39.4201 216.903 44.4569 218.321L53.8965 220.978C56.0467 221.583 58.1072 219.816 57.6597 217.752L54.9272 205.144Z" fill="#E2CBB4"/>
<path fill-rule="evenodd" clip-rule="evenodd" d="M36.4231 151.518C39.5993 149.884 43.5839 150.923 45.4075 153.861C47.6385 157.454 49.2272 161.366 50.1105 165.441L61.2976 217.057C62.3045 221.702 57.6681 225.677 52.8304 224.315L43.3907 221.659C37.0948 219.887 32.2667 215.122 30.6971 209.13L21.4826 173.96C19.4736 166.292 23.2099 158.314 30.5875 154.52L36.4231 151.518ZM41.8821 162.435C41.7914 162.016 41.6283 161.615 41.3992 161.246C40.2626 159.415 37.7792 158.768 35.7996 159.786L34.1553 160.631C29.7288 162.908 27.487 167.695 28.6924 172.296L37.9069 207.466C38.8487 211.061 41.7455 213.92 45.5231 214.983C49.2565 216.034 52.8343 212.967 52.0573 209.382L41.8821 162.435Z" fill="black"/>
<path d="M257.97 173.365C259.683 167.255 256.804 160.829 250.955 157.704L245.172 154.614C243.773 153.866 241.995 154.301 241.162 155.594L238.016 160.477L224.632 217.487C224.148 219.545 226.178 221.342 228.339 220.77L237.823 218.257C242.883 216.917 246.811 213.164 248.149 208.391L257.97 173.365Z" fill="#EDD5BE"/>
<path d="M257.97 173.365C259.683 167.255 256.804 160.829 250.955 157.704L245.172 154.614C243.773 153.866 241.995 154.301 241.162 155.594L238.016 160.477L224.632 217.487C224.148 219.545 226.178 221.342 228.339 220.77L237.823 218.257C242.883 216.917 246.811 213.164 248.149 208.391L257.97 173.365Z" fill="#EDD5BE"/>
<path d="M227.584 204.928C229.776 207.193 232.365 208.61 235.244 208.928C240.791 209.541 246.298 205.955 250.577 199.749L248.152 208.396C246.814 213.169 242.886 216.922 237.826 218.263L228.341 220.775C226.181 221.348 224.151 219.55 224.634 217.493L227.584 204.928Z" fill="#E2CBB4"/>
<path fill-rule="evenodd" clip-rule="evenodd" d="M247.009 151.585C243.861 149.904 239.859 150.882 237.985 153.791C235.692 157.35 234.036 161.237 233.083 165.299L221.006 216.737C219.919 221.367 224.486 225.411 229.347 224.124L238.831 221.611C245.157 219.935 250.067 215.244 251.739 209.277L261.56 174.251C263.701 166.615 260.103 158.582 252.792 154.675L247.009 151.585ZM241.362 162.418C241.46 162.001 241.63 161.601 241.865 161.236C243.033 159.423 245.528 158.813 247.489 159.861L249.119 160.732C253.505 163.076 255.664 167.896 254.38 172.478L244.559 207.504C243.556 211.083 240.61 213.898 236.814 214.904C233.063 215.898 229.539 212.776 230.378 209.204L241.362 162.418Z" fill="black"/>
<path d="M69.9378 57.6643L140.668 31.6578L213.343 54.0161L238.492 126.756C239.345 137.104 238.891 147.508 237.139 157.761L227.896 202.763C225.453 217.061 219.974 236.764 210.894 248.631C203.871 257.81 195.125 265.785 185.061 272.19L175.783 278.094C167.574 283.317 157.382 285.256 147.568 283.46C143.01 282.626 138.319 282.589 133.747 283.352L133.465 283.399C122.536 285.223 111.277 282.614 102.627 276.253L94.4598 270.248C87.4653 265.105 81.1428 259.245 75.6171 252.783C63.1797 238.24 55.0825 221.007 52.1136 202.763L44.7297 157.387C43.1014 147.38 42.7074 137.239 43.5553 127.152L69.9378 57.6643Z" fill="#EDD5BE"/>
<path d="M142.364 282.857C184.699 261.342 217.63 223.373 233.161 177.129L227.896 202.763C225.453 217.061 219.974 236.764 210.894 248.631C203.871 257.81 195.125 265.785 185.061 272.19L175.783 278.094C167.574 283.317 157.382 285.256 147.568 283.46C145.848 283.145 144.109 282.944 142.364 282.857Z" fill="#E2CBB4"/>
<path fill-rule="evenodd" clip-rule="evenodd" d="M140.621 28.2595L218.938 58.5764L242.194 126.502C243.068 137.109 242.603 147.773 240.807 158.283L232.075 209.387C229.545 224.194 223.342 238.279 213.938 250.569C206.665 260.074 197.608 268.334 187.185 274.967L177.907 280.87C168.868 286.623 157.644 288.757 146.837 286.78C142.741 286.03 138.525 285.997 134.414 286.683L134.133 286.73C122.141 288.731 109.788 285.868 100.297 278.889L92.1297 272.884C84.9135 267.578 78.3907 261.532 72.6898 254.866C59.8582 239.861 51.5044 222.082 48.4414 203.26L41.0576 157.884C39.3885 147.627 38.9847 137.232 39.8538 126.893L70.5 61.5L140.621 28.2595ZM140.716 35.0561L70.5 61.5L47.2567 127.411C46.43 137.246 46.8141 147.134 48.4018 156.89L55.7857 202.266C58.6604 219.932 66.501 236.618 78.5443 250.701C83.8949 256.958 90.017 262.632 96.7898 267.612L104.957 273.618C112.766 279.36 122.93 281.715 132.797 280.069L133.078 280.022C138.114 279.182 143.279 279.222 148.298 280.14C157.119 281.755 166.28 280.012 173.659 275.317L182.936 269.413C192.643 263.237 201.077 255.545 207.85 246.693C216.606 235.249 222.383 222.133 224.739 208.344L233.471 157.24C235.179 147.243 235.622 137.099 234.79 127.01L213.938 58.5764L140.716 35.0561Z" fill="black"/>
<path fill-rule="evenodd" clip-rule="evenodd" d="M141.77 274.082C140.95 274.082 140.285 273.476 140.285 272.728V265.957C140.285 265.209 140.95 264.603 141.77 264.603C142.59 264.603 143.255 265.209 143.255 265.957V272.728C143.255 273.476 142.59 274.082 141.77 274.082Z" fill="#C7B6A5"/>
<path fill-rule="evenodd" clip-rule="evenodd" d="M169.688 219.5C171.345 219.5 172.688 220.843 172.688 222.5C172.688 230.784 165.972 237.5 157.688 237.5H117.938C116.281 237.5 114.938 236.157 114.938 234.5C114.938 232.843 116.281 231.5 117.938 231.5H157.688C162.658 231.5 166.688 227.471 166.688 222.5C166.688 220.843 168.031 219.5 169.688 219.5Z" fill="black"/>
<path fill-rule="evenodd" clip-rule="evenodd" d="M137.066 208.329C140.364 210.528 144.661 210.528 147.959 208.329L154.642 203.874C155.665 203.192 157.048 203.469 157.73 204.492C158.413 205.516 158.136 206.899 157.113 207.581L150.43 212.036C145.636 215.232 139.389 215.232 134.595 212.036L127.913 207.581C126.889 206.899 126.613 205.516 127.295 204.492C127.977 203.469 129.36 203.192 130.384 203.874L137.066 208.329Z" fill="#C7B6A5"/>
<circle cx="183.352" cy="166.44" r="26.8929" fill="white"/>
<circle cx="183.772" cy="175.728" r="17.2282" fill="#4361FF"/>
<circle cx="183.772" cy="175.728" r="17.2282" fill="url(#paint0_linear_4026_5)" fill-opacity="0.7"/>
<circle cx="183.772" cy="175.728" r="11.3454" fill="black"/>
<path d="M156.051 169.854C157.704 170.08 159.227 168.922 159.453 167.269L159.972 163.46C161.076 155.368 166.283 148.42 173.741 145.091C179.42 142.555 185.884 142.367 191.707 144.563C200.062 147.713 205.949 155.299 206.914 164.171L207.241 167.187C207.422 168.846 208.913 170.044 210.571 169.864C212.23 169.684 213.429 168.193 213.248 166.534L212.921 163.518C211.71 152.377 204.32 142.861 193.839 138.909C186.529 136.153 178.414 136.388 171.278 139.573C161.911 143.755 155.371 152.48 153.985 162.644L153.466 166.452C153.24 168.106 154.398 169.629 156.051 169.854Z" fill="black"/>
<path fill-rule="evenodd" clip-rule="evenodd" d="M188.59 171.751C187.769 170.931 187.769 169.6 188.59 168.78L196.153 161.216C196.974 160.396 198.304 160.396 199.125 161.216C199.945 162.037 199.945 163.367 199.125 164.188L191.561 171.751C190.741 172.572 189.41 172.572 188.59 171.751Z" fill="white"/>
<path fill-rule="evenodd" clip-rule="evenodd" d="M187.176 173.165C185.574 171.564 185.574 168.967 187.176 167.366L194.739 159.802C196.341 158.201 198.937 158.201 200.539 159.802C202.14 161.404 202.14 164 200.539 165.602L192.975 173.165C191.374 174.767 188.777 174.767 187.176 173.165ZM188.59 168.78C187.769 169.6 187.769 170.931 188.59 171.751C189.41 172.572 190.741 172.572 191.561 171.751L199.125 164.188C199.945 163.367 199.945 162.037 199.125 161.216C198.304 160.396 196.974 160.396 196.153 161.216L188.59 168.78Z" fill="white"/>
<path fill-rule="evenodd" clip-rule="evenodd" d="M154.915 143.529C155.965 145.29 158.244 145.867 160.005 144.817L169.511 139.15C182.011 131.699 197.834 132.848 209.126 142.028C210.717 143.322 213.055 143.08 214.348 141.49C215.642 139.899 215.4 137.561 213.809 136.267C200.099 125.121 180.887 123.725 165.709 132.773L156.203 138.44C154.442 139.489 153.866 141.768 154.915 143.529Z" fill="black"/>
<circle cx="102.852" cy="166.44" r="26.8929" fill="white"/>
<circle cx="103.272" cy="175.728" r="17.2282" fill="#4361FF"/>
<circle cx="103.272" cy="175.728" r="17.2282" fill="url(#paint1_linear_4026_5)" fill-opacity="0.7"/>
<circle cx="103.272" cy="175.728" r="11.3454" fill="black"/>
<path d="M75.5511 169.854C77.2044 170.08 78.7274 168.922 78.9528 167.269L79.4722 163.46C80.5757 155.368 85.7832 148.42 93.241 145.091C98.9205 142.555 105.384 142.367 111.207 144.563C119.562 147.713 125.449 155.299 126.414 164.171L126.742 167.187C126.922 168.846 128.413 170.044 130.072 169.864C131.73 169.684 132.929 168.193 132.749 166.534L132.421 163.518C131.21 152.377 123.82 142.861 113.339 138.909C106.029 136.153 97.9139 136.388 90.7778 139.573C81.4113 143.755 74.8711 152.48 73.4852 162.644L72.9658 166.452C72.7404 168.106 73.8978 169.629 75.5511 169.854Z" fill="black"/>
<path fill-rule="evenodd" clip-rule="evenodd" d="M108.09 171.751C107.269 170.931 107.269 169.6 108.09 168.78L115.653 161.216C116.474 160.396 117.804 160.396 118.625 161.216C119.445 162.037 119.445 163.367 118.625 164.188L111.061 171.751C110.241 172.572 108.91 172.572 108.09 171.751Z" fill="white"/>
<path fill-rule="evenodd" clip-rule="evenodd" d="M106.676 173.165C105.074 171.564 105.074 168.967 106.676 167.366L114.239 159.802C115.841 158.201 118.437 158.201 120.039 159.802C121.64 161.404 121.64 164 120.039 165.602L112.475 173.165C110.874 174.767 108.277 174.767 106.676 173.165ZM108.09 168.78C107.269 169.6 107.269 170.931 108.09 171.751C108.91 172.572 110.241 172.572 111.061 171.751L118.625 164.188C119.445 163.367 119.445 162.037 118.625 161.216C117.804 160.396 116.474 160.396 115.653 161.216L108.09 168.78Z" fill="white"/>
<path fill-rule="evenodd" clip-rule="evenodd" d="M129.975 143.529C128.925 145.29 126.647 145.867 124.886 144.817L115.38 139.15C102.88 131.699 87.0565 132.848 75.7649 142.028C74.174 143.322 71.8359 143.08 70.5426 141.49C69.2492 139.899 69.4904 137.561 71.0813 136.267C84.7916 125.121 104.004 123.725 119.181 132.773L128.687 138.44C130.449 139.489 131.025 141.768 129.975 143.529Z" fill="black"/>
<path d="M35.7963 107.276L43.4992 164.14L54.9992 124.331L61.7818 101.711C62.5893 99.0184 63.7767 96.4545 65.3083 94.0969C71.7868 84.1245 83.6101 79.0047 95.3156 81.1028L124.623 86.3561C127.535 86.878 130.487 87.1404 133.445 87.1404H157.541C161.169 87.1404 164.786 86.7456 168.329 85.9629L187.199 81.7933C198.744 79.2425 210.747 83.3458 218.313 92.43C221.18 95.8716 223.283 99.883 224.482 104.199L228.499 118.651L235.999 164.14C237.999 153.14 241.499 143.14 242.999 133.64L247.994 107.583C248.588 104.481 248.903 101.329 248.889 98.1706C248.869 93.9079 248.738 89.6165 248.038 85.5337L245.416 74.0168C244.431 69.6899 242.876 65.5189 240.795 61.612C239.625 59.4152 238.098 57.436 236.469 55.554L229.499 47.5L235.999 43.6404L217.999 34.1404L197.499 25L205.499 19.6404L184.499 14.1404C184.499 14.1404 169.999 11.1405 157.999 10.6405C145.999 10.1405 133.999 11.1404 133.999 11.1404C133.999 11.1404 120.642 12.2214 116.81 13.365C111.797 14.8613 103.103 18.3952 98.9992 21.6404L84.4992 32.6404L81.42 22.6116L65.2243 45.4551C61.4997 50.7085 59.4992 56.9892 59.4992 63.4289C59.4992 64.7528 58.6587 65.9319 57.4079 66.3656C46.5707 70.1236 38.6395 79.5097 36.7572 90.8244L35.9737 95.5337C35.3277 99.4169 35.2679 103.375 35.7963 107.276Z" fill="#5D473B"/>
<path d="M141.353 7.20553C145.907 7.01577 152.013 6.88753 158.145 7.14303C164.342 7.40126 171.12 8.30075 176.298 9.12155C178.897 9.53372 181.117 9.92935 182.689 10.2231C183.475 10.37 184.101 10.4915 184.532 10.5766C184.747 10.6192 184.914 10.6531 185.028 10.6762C185.085 10.6877 185.129 10.6964 185.159 10.7026C185.174 10.7057 185.186 10.7087 185.194 10.7104C185.198 10.7112 185.201 10.7119 185.204 10.7124C185.205 10.7126 185.206 10.7122 185.207 10.7124L185.208 10.7133C185.207 10.7198 185.185 10.8248 184.829 12.5473L185.209 10.7133C185.268 10.7256 185.328 10.739 185.386 10.7544L206.386 16.2544L206.631 16.3286C207.84 16.7414 208.736 17.7853 208.951 19.0581C209.18 20.4157 208.591 21.782 207.447 22.5483L204.709 24.3823L219.424 30.9438L219.632 31.0454L237.632 40.5454C238.752 41.1365 239.466 42.2862 239.498 43.5522C239.529 44.8184 238.875 46.0032 237.786 46.6499L234.883 48.3725L239.116 53.2631L239.755 54.0131C241.243 55.7883 242.706 57.7541 243.884 59.9672L244.295 60.7544C246.316 64.7061 247.841 68.8995 248.829 73.2397L251.45 84.7573L251.487 84.9419L251.621 85.7661C252.255 89.8923 252.37 94.1289 252.388 98.1547L252.387 98.7924C252.364 101.554 252.109 104.297 251.655 106.998L251.431 108.242L246.449 134.229C245.667 139.161 244.377 144.184 243.075 149.207C241.756 154.294 240.416 159.416 239.443 164.766C239.138 166.441 237.673 167.654 235.97 167.64C234.268 167.626 232.822 166.389 232.546 164.709L225.076 119.407L221.11 105.136C220.11 101.538 218.404 98.1773 216.094 95.2495L215.624 94.6704C209 86.7181 198.554 83.0576 188.436 85.1088L187.955 85.2104L169.084 89.3803C165.293 90.2178 161.423 90.6401 157.541 90.6401H133.445C130.676 90.6401 127.911 90.4253 125.176 89.9975L124.006 89.8012L94.6979 84.5483C84.5396 82.7275 74.2804 87.0721 68.5143 95.5942L68.2438 96.0034C66.9779 97.9519 65.9786 100.061 65.2721 102.273L65.1344 102.716L58.361 125.301L58.362 125.302L46.862 165.112C46.4028 166.701 44.8929 167.752 43.2428 167.631C41.6961 167.518 40.422 166.403 40.0856 164.914L40.0309 164.61L32.3278 107.746C31.7524 103.498 31.8177 99.1878 32.5211 94.9594L33.3043 90.2505L33.4079 89.6616C35.6577 77.4345 44.2761 67.3205 56.0016 63.1508C56.0584 56.0834 58.2785 49.2004 62.3688 43.4311L78.5651 20.5874L78.7155 20.3891C79.5011 19.4326 80.7409 18.9574 81.9752 19.1557C83.292 19.3674 84.3748 20.3095 84.7663 21.5844L86.3747 26.8237L96.8834 18.852C99.2872 16.9655 102.785 15.1444 106.139 13.6499C109.576 12.1188 113.144 10.8067 115.809 10.0112L116.265 9.88424C118.677 9.25563 122.99 8.7203 126.465 8.3442C128.4 8.13485 130.211 7.96167 131.536 7.84127C132.199 7.78103 132.743 7.73388 133.121 7.70162C133.31 7.68551 133.458 7.67291 133.559 7.66451C133.61 7.66033 133.649 7.6579 133.675 7.65572C133.689 7.65465 133.699 7.65336 133.706 7.6528C133.708 7.65261 133.71 7.65292 133.712 7.6528L133.713 7.65182C133.714 7.65166 133.717 7.65208 133.72 7.65182C133.727 7.65125 133.738 7.64992 133.751 7.64889C133.776 7.64683 133.813 7.64386 133.86 7.6401C133.956 7.63252 134.095 7.62143 134.276 7.60787C134.638 7.58074 135.165 7.54321 135.833 7.49947C137.168 7.41202 139.071 7.3006 141.353 7.20553ZM62.9997 63.4292C62.9995 66.1583 61.3218 68.5942 58.8014 69.5815L58.5543 69.6723C49.0767 72.9589 42.1018 81.091 40.2916 90.9292L40.2096 91.3989L39.4264 96.1079C38.8378 99.6457 38.7829 103.252 39.2643 106.806L44.7399 147.231L51.6364 123.36L51.6471 123.326L58.4293 100.707L58.6032 100.143C59.4995 97.3367 60.7678 94.6618 62.3737 92.1899L62.7174 91.6713C70.0322 80.8602 83.0465 75.3478 95.9333 77.6577L125.241 82.9106L126.257 83.0815C128.635 83.4534 131.038 83.6401 133.445 83.6401H157.541C160.915 83.6401 164.279 83.2733 167.574 82.5454L186.444 78.3755L187.046 78.2485C199.682 75.6865 212.729 80.2578 221.003 90.1899L221.589 90.9135C224.475 94.5703 226.605 98.7674 227.854 103.261L231.872 117.714L231.917 117.897C231.93 117.958 231.943 118.02 231.953 118.082L236.6 146.272C237.799 141.631 238.878 137.296 239.542 133.094L239.562 132.982L244.556 106.924L244.753 105.836C245.119 103.659 245.333 101.469 245.38 99.2807L245.388 98.187C245.369 93.9855 245.237 89.9635 244.6 86.2046L242.004 74.7934C241.145 71.0209 239.82 67.3757 238.063 63.9409L237.706 63.2573C236.837 61.6261 235.706 60.0802 234.395 58.5161L233.823 57.8442L226.852 49.7905C226.174 49.0069 225.879 47.9628 226.045 46.9399C226.21 45.9168 226.821 45.0198 227.713 44.4907L228.841 43.8198L216.473 37.2924L196.074 28.1967C194.91 27.678 194.121 26.5676 194.012 25.2983C193.904 24.0291 194.493 22.8012 195.551 22.0922L197.095 21.0571L183.708 17.5503C183.688 17.5463 183.665 17.5419 183.639 17.5366C183.535 17.5155 183.378 17.4842 183.173 17.4438C182.764 17.363 182.163 17.246 181.403 17.104C179.881 16.8196 177.726 16.4349 175.201 16.0346C170.128 15.2305 163.656 14.3789 157.853 14.1372C151.985 13.8927 146.091 14.0144 141.645 14.1997C139.427 14.2921 137.58 14.4004 136.291 14.4848C135.646 14.527 135.142 14.5627 134.8 14.5883C134.63 14.6011 134.5 14.6118 134.414 14.6186C134.371 14.622 134.339 14.6247 134.318 14.6264C134.308 14.6273 134.3 14.628 134.296 14.6284H134.29L134.282 14.6294H134.273C134.267 14.6298 134.258 14.6313 134.247 14.6323C134.223 14.6343 134.185 14.6371 134.137 14.6411C134.041 14.6491 133.899 14.6606 133.715 14.6762C133.348 14.7075 132.817 14.754 132.169 14.813C130.87 14.9309 129.102 15.0994 127.218 15.3032C123.534 15.7018 119.845 16.1923 118.128 16.6313L117.811 16.7192C115.463 17.42 112.178 18.6233 108.988 20.0444C105.945 21.4002 103.23 22.8488 101.503 24.1313L101.171 24.3862L101.115 24.4292L86.6149 35.4292C85.7042 36.12 84.5134 36.3219 83.4254 35.9712C82.3374 35.6203 81.4885 34.7603 81.153 33.6674L80.1608 30.438L68.0797 47.479C64.7747 52.1407 62.9997 57.7147 62.9997 63.4292Z" fill="black"/>
<path d="M95.1448 54.0123C105.458 35.6123 125.309 24.6468 146.375 25.7115C148.297 25.8089 149.776 27.4457 149.679 29.3678C149.582 31.29 147.945 32.7696 146.023 32.6725C127.601 31.7415 110.243 41.3306 101.225 57.4205L97.5247 64.0221C96.6129 65.6482 94.5915 66.2599 92.9398 65.441L92.7806 65.358C91.1019 64.4169 90.5038 62.2927 91.4446 60.6139L95.1448 54.0123Z" fill="#423027"/>
<path d="M130.947 62.7259C142.055 45.4236 161.827 35.1029 181.636 36.3753C183.618 36.5029 184.997 38.2693 184.682 40.2083C184.4 41.9454 182.846 43.25 181.087 43.223L181.045 41.2201L180.916 43.2161C163.75 42.1135 146.455 51.0816 136.723 66.2406L135.722 67.8001C134.807 69.2245 132.876 69.9532 131.208 69.1273L131.048 69.0423C129.243 68.028 128.967 65.8101 129.946 64.2845L130.947 62.7259Z" fill="#423027"/>
<path d="M162.038 65.2945C176.42 50.9131 198.391 47.3473 216.582 56.443L219.582 57.9439C221.393 58.8494 222.127 61.051 221.222 62.8619C220.316 64.6728 218.115 65.4069 216.304 64.5016L213.303 63.0016C197.934 55.3173 179.373 58.3293 167.223 70.4791C165.791 71.9107 163.47 71.9106 162.038 70.4791C160.607 69.0474 160.607 66.7262 162.038 65.2945Z" fill="#423027"/>
<g filter="url(#filter1_d_4026_5)">
<path fill-rule="evenodd" clip-rule="evenodd" d="M105.379 133.5C110.368 133.5 115.295 134.668 119.796 136.919L131.645 142.845C132.811 143.428 133.849 144.208 134.73 145.134L141.598 145.867C142.645 145.979 143.701 145.979 144.748 145.867L151.614 145.134C152.496 144.207 153.535 143.428 154.701 142.845L166.549 136.919C171.05 134.668 175.977 133.5 180.967 133.5H219.416C222.059 133.5 224.671 134.09 227.078 135.23L231.021 137.099C235.235 139.095 238.49 142.613 240.307 146.864H247.437C248.491 146.864 249.346 147.541 249.346 148.376V156.598C249.346 157.183 248.919 157.715 248.251 157.965L245.358 159.044C244.859 159.23 244.486 159.579 244.336 160L243.056 163.583C242.89 164.046 242.462 164.407 241.921 164.576V176.076C241.921 185.504 236.989 194.177 229.066 198.681C225.458 200.732 221.416 201.807 217.309 201.807H179.894C175.333 201.807 170.933 200.051 167.531 196.876L164.487 194.035C154.233 184.463 148.37 170.773 148.37 156.4V155.968L146.456 155.534C144.294 155.044 142.05 155.044 139.889 155.534L137.976 155.968V156.4C137.976 170.773 132.113 184.463 121.858 194.035L118.814 196.876C115.413 200.051 111.012 201.807 106.452 201.807H69.0371C64.9298 201.807 60.8876 200.732 57.2793 198.681C49.357 194.177 44.4249 185.504 44.4248 176.076V164.576C43.8835 164.407 43.4546 164.046 43.2891 163.583L42.0098 160C41.8595 159.579 41.4858 159.23 40.9863 159.044L38.0947 157.965C37.4264 157.715 37 157.183 37 156.598V148.376C37 147.541 37.8548 146.864 38.9092 146.864H46.0391C47.8554 142.613 51.1106 139.095 55.3252 137.099L59.2676 135.23C61.6745 134.09 64.2871 133.5 66.9297 133.5H105.379ZM66.9297 141.262C65.3442 141.262 63.7762 141.616 62.332 142.3L58.3896 144.168C54.4075 146.055 51.8496 150.203 51.8496 154.773V176.076C51.8497 182.66 55.2938 188.716 60.8262 191.861C63.346 193.294 66.1688 194.045 69.0371 194.045H106.452C109.188 194.045 111.828 192.991 113.869 191.086L116.913 188.245C125.59 180.145 130.551 168.561 130.551 156.4V153.348C130.551 151.853 129.73 150.492 128.44 149.847L116.593 143.922C113.092 142.171 109.26 141.262 105.379 141.262H66.9297ZM180.967 141.262C177.086 141.262 173.254 142.171 169.753 143.922L157.905 149.847C156.616 150.492 155.795 151.853 155.795 153.348V156.4C155.795 168.561 160.756 180.145 169.433 188.245L172.477 191.086C174.517 192.991 177.157 194.045 179.894 194.045H217.309C220.177 194.045 223 193.294 225.52 191.861C231.052 188.716 234.496 182.66 234.496 176.076V154.773C234.496 150.203 231.938 146.055 227.956 144.168L224.013 142.3C222.569 141.616 221.001 141.262 219.416 141.262H180.967Z" fill="url(#paint2_linear_4026_5)"/>
</g>
<path d="M56.8423 175.978L56.7284 175.876C56.1392 175.395 55.2702 175.429 54.721 175.978C54.1718 176.528 54.1375 177.397 54.6181 177.986L54.721 178.1L67.721 191.1C68.3068 191.686 69.2565 191.686 69.8423 191.1C70.4281 190.514 70.4281 189.564 69.8423 188.978L56.8423 175.978Z" fill="white" fill-opacity="0.7"/>
<path d="M64.8422 175.978L64.7283 175.875C64.1391 175.395 63.2701 175.429 62.7209 175.978C62.1718 176.528 62.1375 177.397 62.618 177.986L62.7209 178.1L68.721 184.1C69.3068 184.686 70.2565 184.686 70.8423 184.1C71.4281 183.514 71.4281 182.564 70.8423 181.978L64.8422 175.978Z" fill="white" fill-opacity="0.7"/>
<path d="M140 246.295C140 236.693 133.175 228.445 123.742 226.648L36.525 210.036C35.6277 209.865 34.7285 210.324 34.3403 211.151L24.1581 232.843C23.7707 233.669 23.9906 234.652 24.6928 235.233L136.724 328.032C138.028 329.112 140 328.184 140 326.492V246.295Z" fill="white"/>
<path d="M37.4561 203.096C33.6719 202.54 29.944 204.442 28.1738 207.832L28.0039 208.176L17.8213 229.869L17.666 230.219C16.1911 233.74 17.1028 237.816 19.9375 240.373L20.2275 240.624L132.259 333.423C138.126 338.282 147 334.109 147 326.491V246.295C147 233.332 137.786 222.198 125.052 219.773L37.835 203.159L37.4561 203.096ZM140 326.491C140 328.131 138.15 329.053 136.849 328.127L136.725 328.031L24.6924 235.233C24.0342 234.688 23.8005 233.79 24.0928 233L24.1582 232.843L34.3408 211.15C34.729 210.324 35.6281 209.864 36.5254 210.035L123.742 226.649L124.183 226.737C133.387 228.703 140 236.843 140 246.295V326.491Z" fill="black"/>
<path d="M140 246.295C140 236.693 146.825 228.445 156.258 226.648L243.475 210.036C244.372 209.865 245.271 210.324 245.66 211.151L255.842 232.843C256.229 233.669 256.009 234.652 255.307 235.233L143.276 328.032C141.972 329.112 140 328.184 140 326.492V246.295Z" fill="white"/>
<path d="M242.544 203.096C246.328 202.54 250.056 204.442 251.826 207.832L251.996 208.176L262.179 229.869L262.334 230.219C263.809 233.74 262.897 237.816 260.062 240.373L259.772 240.624L147.741 333.423C141.874 338.282 133 334.109 133 326.491V246.295C133 233.332 142.214 222.198 154.948 219.773L242.165 203.159L242.544 203.096ZM140 326.491C140 328.131 141.85 329.053 143.151 328.127L143.275 328.031L255.308 235.233C255.966 234.688 256.2 233.79 255.907 233L255.842 232.843L245.659 211.15C245.271 210.324 244.372 209.864 243.475 210.035L156.258 226.649L155.817 226.737C146.613 228.703 140 236.843 140 246.295V326.491Z" fill="black"/>
<path d="M135 238.745C135 237.641 135.895 236.745 137 236.745H143C144.105 236.745 145 237.641 145 238.745V343.745C145 344.85 144.105 345.745 143 345.745H137C135.895 345.745 135 344.85 135 343.745V238.745Z" fill="#1C756A"/>
<path d="M135.011 343.949C135.106 344.891 135.854 345.639 136.796 345.734L137 345.745H143L143.204 345.734C144.146 345.639 144.894 344.891 144.989 343.949L145 343.745V238.745C145 237.71 144.213 236.858 143.204 236.756L143 236.745V229.745C147.971 229.745 152 233.775 152 238.745V343.745C152 348.716 147.971 352.745 143 352.745H137C132.185 352.745 128.253 348.964 128.012 344.208L128 343.745V238.745C128 233.775 132.029 229.745 137 229.745V236.745L136.796 236.756C135.787 236.858 135 237.71 135 238.745V343.745L135.011 343.949ZM143 229.745V236.745H137V229.745H143Z" fill="black"/>
<path d="M128 241.409C128 240.445 127.312 239.618 126.364 239.442L22.3642 220.183C21.1346 219.955 20 220.899 20 222.15V319.082C20 320.046 20.6878 320.873 21.6358 321.048L125.636 340.307C126.865 340.535 128 339.591 128 338.341L128 241.409Z" fill="#1C756A"/>
<path d="M20 319.081V222.15C20 220.899 21.1347 219.955 22.3643 220.183L126.364 239.442C127.312 239.618 128 240.445 128 241.409V338.341C128 339.513 127.003 340.416 125.865 340.337L125.636 340.308L21.6357 321.048C20.7471 320.883 20.0869 320.147 20.0078 319.261L20 319.081ZM13 319.081C13 323.284 15.9048 326.908 19.9648 327.849L20.3613 327.931L124.361 347.191C129.894 348.215 135 343.968 135 338.341V241.409C135 237.071 131.905 233.35 127.639 232.56L23.6387 213.3L23.1211 213.219C17.7915 212.542 13 216.698 13 222.15V319.081Z" fill="black"/>
<path d="M152 241.409C152 240.445 152.688 239.618 153.636 239.442L257.636 220.183C258.865 219.955 260 220.899 260 222.15V319.082C260 320.046 259.312 320.873 258.364 321.048L154.364 340.307C153.135 340.535 152 339.591 152 338.341V241.409Z" fill="#1C756A"/>
<path d="M260 319.081V222.15C260 220.899 258.865 219.955 257.636 220.183L153.636 239.442C152.688 239.618 152 240.445 152 241.409V338.341C152 339.513 152.997 340.416 154.135 340.337L154.364 340.308L258.364 321.048C259.253 320.883 259.913 320.147 259.992 319.261L260 319.081ZM267 319.081C267 323.284 264.095 326.908 260.035 327.849L259.639 327.931L155.639 347.191C150.106 348.215 145 343.968 145 338.341V241.409C145 237.071 148.095 233.35 152.361 232.56L256.361 213.3L256.879 213.219C262.208 212.542 267 216.698 267 222.15V319.081Z" fill="black"/>
<path d="M163.358 259.78L166.708 259.171L167.295 262.397L163.945 263.007L163.358 259.78ZM162.097 252.851L165.447 252.242L166.034 255.468L162.684 256.078L162.097 252.851Z" fill="#F8F9FA"/>
<path d="M170.509 252.669L172.66 252.278L172.891 253.547L173.032 253.521C173.256 252.886 173.525 252.43 173.839 252.154C174.154 251.878 174.634 251.682 175.28 251.564C176.174 251.402 176.882 251.388 177.404 251.524C177.925 251.648 178.332 251.95 178.626 252.431C178.929 252.898 179.168 253.607 179.341 254.559L180.399 260.378L178.248 260.769L177.183 254.915C177.066 254.269 176.862 253.851 176.572 253.66C176.295 253.468 175.827 253.432 175.168 253.552C174.592 253.656 174.161 253.82 173.873 254.042C173.598 254.262 173.426 254.585 173.357 255.01C173.298 255.422 173.334 255.986 173.465 256.703L174.334 261.481L172.183 261.872L170.509 252.669Z" fill="#F8F9FA"/>
<path d="M186.874 259.364C185.734 259.571 184.827 259.591 184.153 259.422C183.476 259.241 182.942 258.841 182.55 258.22C182.167 257.585 181.861 256.639 181.632 255.381C181.402 254.112 181.353 253.113 181.488 252.384C181.634 251.653 181.987 251.091 182.547 250.697C183.117 250.29 183.978 249.982 185.129 249.772C186.281 249.563 187.19 249.549 187.854 249.732C188.529 249.901 189.057 250.303 189.44 250.937C189.834 251.57 190.147 252.521 190.378 253.79C190.606 255.048 190.648 256.042 190.501 256.773C190.365 257.49 190.011 258.052 189.442 258.46C188.87 258.855 188.014 259.156 186.874 259.364ZM183.783 254.99C183.925 255.766 184.098 256.353 184.305 256.753C184.52 257.139 184.797 257.392 185.135 257.513C185.484 257.631 185.953 257.637 186.541 257.53C187.128 257.423 187.559 257.254 187.833 257.022C188.118 256.788 188.288 256.453 188.342 256.019C188.406 255.57 188.368 254.957 188.227 254.182C188.083 253.394 187.903 252.802 187.685 252.404C187.478 252.004 187.201 251.745 186.851 251.627C186.511 251.494 186.048 251.481 185.46 251.588C184.872 251.695 184.437 251.872 184.153 252.117C183.88 252.349 183.711 252.69 183.647 253.139C183.595 253.585 183.64 254.202 183.783 254.99Z" fill="#F8F9FA"/>
<path d="M198.599 257.268C197.752 257.421 197.091 257.426 196.616 257.282C196.14 257.138 195.787 256.862 195.555 256.455C195.321 256.036 195.134 255.445 194.995 254.681L194.187 250.238L191.912 250.651L192.005 248.758L193.927 248.409L193.587 246.54L195.475 245.304L195.972 248.037L199.41 247.411L199.741 249.227L196.303 249.853L197.098 254.225C197.167 254.602 197.246 254.872 197.337 255.038C197.44 255.201 197.604 255.305 197.831 255.349C198.069 255.391 198.411 255.371 198.858 255.29C199.364 255.198 200.085 254.993 201.024 254.677L201.36 256.528C200.166 256.904 199.245 257.15 198.599 257.268Z" fill="#F8F9FA"/>
<path d="M211.468 257.058C210.462 257.204 209.636 257.203 208.99 257.053C208.355 256.901 207.803 256.571 207.334 256.061C206.865 255.551 206.41 254.79 205.971 253.777C205.699 253.147 205.484 252.566 205.327 252.036C205.17 251.506 205.014 250.818 204.86 249.972C204.706 249.126 204.609 248.427 204.57 247.875C204.53 247.324 204.527 246.705 204.56 246.019C204.614 244.916 204.771 244.044 205.031 243.402C205.291 242.759 205.697 242.254 206.249 241.887C206.801 241.519 207.568 241.228 208.549 241.013L208.891 242.991C208.295 243.124 207.836 243.304 207.514 243.533C207.201 243.748 206.973 244.062 206.829 244.477C206.698 244.89 206.63 245.448 206.624 246.154C206.629 246.845 206.651 247.436 206.692 247.926C206.73 248.405 206.807 248.962 206.923 249.597C207.038 250.231 207.163 250.785 207.298 251.259C207.431 251.72 207.617 252.276 207.856 252.924C208.109 253.582 208.37 254.081 208.638 254.421C208.918 254.759 209.243 254.973 209.611 255.064C209.994 255.164 210.487 255.172 211.091 255.086L211.468 257.058Z" fill="#F8F9FA"/>
<path d="M218.465 249.701L217.662 248.59L217.304 249.93L216.596 251.444L214.581 250.48L215.238 249.086L216.227 247.813L214.707 247.871L213.101 247.653L213.369 245.619L215.078 245.8L216.384 246.273L215.818 244.864L215.533 243.295L217.772 242.887L218.057 244.456L218.038 245.954L219.115 245.065L220.662 244.256L221.659 246.133L220.197 246.909L218.748 247.354L220.045 248.175L221.231 249.289L219.738 250.89L218.465 249.701Z" fill="#F8F9FA"/>
<path d="M227.294 247.312L223.733 247.959L223.393 246.091L226.954 245.443L226.281 241.74L228.361 241.362L229.035 245.064L232.596 244.416L232.936 246.285L229.375 246.933L230.068 250.742L227.987 251.12L227.294 247.312Z" fill="#F8F9FA"/>
<path d="M239.609 245.855L238.806 244.744L238.448 246.084L237.74 247.597L235.725 246.634L236.382 245.24L237.371 243.967L235.851 244.025L234.245 243.807L234.513 241.773L236.221 241.954L237.528 242.426L236.962 241.017L236.676 239.448L238.916 239.041L239.201 240.61L239.182 242.107L240.259 241.219L241.806 240.41L242.803 242.286L241.341 243.062L239.892 243.508L241.189 244.329L242.375 245.443L240.882 247.044L239.609 245.855Z" fill="#F8F9FA"/>
<path d="M247.278 248.503C247.873 248.371 248.327 248.191 248.637 247.965C248.962 247.748 249.19 247.433 249.322 247.02C249.465 246.606 249.539 246.046 249.544 245.341C249.54 244.649 249.519 244.064 249.48 243.585C249.44 243.095 249.361 242.532 249.246 241.898C249.131 241.263 249.007 240.715 248.874 240.253C248.739 239.78 248.552 239.219 248.313 238.57C248.06 237.912 247.793 237.414 247.513 237.076C247.245 236.737 246.92 236.522 246.54 236.434C246.169 236.331 245.682 236.323 245.078 236.408L244.701 234.437C245.695 234.292 246.515 234.295 247.162 234.444C247.808 234.594 248.366 234.924 248.835 235.433C249.304 235.943 249.758 236.704 250.198 237.717C250.47 238.348 250.685 238.928 250.842 239.458C250.999 239.988 251.155 240.676 251.309 241.522C251.463 242.369 251.56 243.068 251.599 243.619C251.639 244.17 251.642 244.789 251.609 245.475C251.555 246.578 251.398 247.45 251.138 248.093C250.878 248.735 250.472 249.24 249.92 249.607C249.379 249.973 248.613 250.264 247.62 250.481L247.278 248.503Z" fill="#F8F9FA"/>
<path d="M206.923 249.597C206.837 249.121 206.771 248.689 206.728 248.3L206.692 247.927C206.651 247.436 206.629 246.845 206.624 246.153C206.63 245.448 206.698 244.89 206.83 244.477C206.955 244.114 207.145 243.828 207.401 243.618L207.513 243.533C207.836 243.304 208.296 243.123 208.891 242.991L208.549 241.013C207.568 241.228 206.802 241.519 206.249 241.887L206.049 242.031C205.597 242.382 205.258 242.84 205.031 243.402L204.939 243.653C204.734 244.265 204.608 245.054 204.56 246.019C204.527 246.705 204.53 247.324 204.569 247.875L204.61 248.316C204.661 248.785 204.745 249.337 204.86 249.972L204.975 250.577C205.091 251.152 205.208 251.639 205.326 252.036C205.483 252.566 205.699 253.147 205.971 253.777C206.411 254.79 206.865 255.552 207.334 256.061C207.803 256.571 208.355 256.902 208.989 257.054C209.636 257.203 210.462 257.204 211.467 257.057L211.091 255.086C210.487 255.172 209.993 255.164 209.611 255.064C209.289 254.984 209 254.81 208.746 254.542L208.639 254.422C208.37 254.082 208.109 253.582 207.856 252.924C207.617 252.276 207.43 251.72 207.298 251.259C207.197 250.904 207.101 250.503 207.011 250.057L206.923 249.597ZM251.309 241.523C251.193 240.888 251.077 240.342 250.959 239.885L250.842 239.458C250.685 238.928 250.47 238.347 250.198 237.717C249.813 236.83 249.418 236.137 249.01 235.636L248.835 235.433C248.425 234.987 247.946 234.679 247.4 234.508L247.162 234.445C246.515 234.295 245.695 234.292 244.702 234.437L245.078 236.408C245.682 236.322 246.169 236.331 246.54 236.434C246.92 236.522 247.244 236.737 247.512 237.077C247.792 237.414 248.06 237.912 248.313 238.57C248.553 239.218 248.74 239.78 248.875 240.253C249.007 240.715 249.131 241.263 249.246 241.898L249.325 242.36C249.398 242.809 249.45 243.217 249.481 243.585C249.519 244.064 249.54 244.649 249.545 245.34C249.54 246.046 249.465 246.606 249.321 247.021C249.19 247.433 248.962 247.747 248.637 247.964C248.327 248.191 247.874 248.371 247.278 248.503L247.62 250.481C248.613 250.264 249.38 249.973 249.92 249.608C250.403 249.286 250.775 248.859 251.034 248.327L251.138 248.093C251.366 247.531 251.514 246.792 251.584 245.878L251.609 245.475C251.634 244.961 251.638 244.484 251.622 244.045L251.599 243.619C251.569 243.205 251.507 242.709 251.413 242.129L251.309 241.523ZM185.129 249.773C183.977 249.982 183.116 250.29 182.547 250.697L182.347 250.853C181.902 251.234 181.616 251.744 181.488 252.384L181.446 252.67C181.368 253.367 181.43 254.27 181.632 255.381L181.722 255.838C181.939 256.87 182.215 257.664 182.549 258.219C182.942 258.84 183.476 259.241 184.153 259.422C184.827 259.59 185.734 259.572 186.874 259.364C187.871 259.183 188.652 258.929 189.214 258.603L189.442 258.459C190.011 258.052 190.364 257.49 190.501 256.773C190.629 256.133 190.614 255.292 190.455 254.249L190.377 253.79C190.146 252.521 189.834 251.57 189.439 250.937C189.104 250.382 188.658 250.005 188.1 249.806L187.854 249.732C187.273 249.572 186.505 249.563 185.55 249.703L185.129 249.773L184.771 247.805C186.022 247.578 187.26 247.507 188.339 247.792C188.971 247.95 189.531 248.227 190.012 248.604C190.081 247.715 190.73 246.978 191.605 246.799C191.505 246.041 191.847 245.288 192.492 244.866L194.379 243.63L194.487 243.565C195.029 243.257 195.687 243.218 196.264 243.466C196.88 243.731 197.323 244.287 197.443 244.946L197.582 245.711L199.053 245.443L199.255 245.417C200.266 245.338 201.193 246.034 201.378 247.053L201.709 248.869C201.906 249.956 201.185 250.997 200.099 251.195L198.628 251.462L198.947 253.219C199.302 253.127 199.777 252.986 200.385 252.781C200.935 252.596 201.539 252.659 202.04 252.954C202.54 253.249 202.887 253.748 202.991 254.319L203.328 256.171C203.508 257.163 202.921 258.134 201.959 258.437C200.743 258.819 199.728 259.095 198.957 259.235C198.056 259.399 197.091 259.469 196.21 259.245L196.036 259.196C195.161 258.93 194.417 258.398 193.914 257.607L193.817 257.445C193.815 257.44 193.811 257.436 193.809 257.431C193.422 256.738 193.184 255.903 193.027 255.039L192.577 252.563L192.27 252.619C192.24 252.624 192.209 252.625 192.178 252.63C192.238 252.891 192.295 253.159 192.345 253.432C192.59 254.779 192.679 256.057 192.465 257.147L192.466 257.148C192.252 258.271 191.689 259.239 190.79 259.948L190.605 260.086C190.597 260.092 190.588 260.099 190.58 260.105C189.668 260.735 188.489 261.103 187.232 261.332C186.053 261.546 184.896 261.622 183.87 261.409L183.667 261.362L183.637 261.354C183.17 261.229 182.741 261.041 182.353 260.797C182.188 261.565 181.578 262.196 180.757 262.345L178.606 262.737C177.588 262.921 176.61 262.302 176.328 261.329C176.406 262.339 175.709 263.263 174.691 263.449L172.541 263.84C171.454 264.037 170.413 263.317 170.215 262.23L168.541 253.026C168.344 251.94 169.064 250.899 170.151 250.701L172.301 250.31L172.505 250.284C172.669 250.271 172.83 250.28 172.986 250.306C173.592 249.922 174.277 249.714 174.922 249.597C175.917 249.416 176.944 249.349 177.867 249.579L177.868 249.578C177.875 249.58 177.883 249.582 177.89 249.584C177.896 249.585 177.902 249.586 177.907 249.588C178.718 249.789 179.394 250.219 179.913 250.817C180.24 250.129 180.73 249.53 181.392 249.064C182.31 248.411 183.503 248.036 184.771 247.805L185.129 249.773ZM166.708 259.171L163.358 259.78L163.945 263.006L167.295 262.397L166.708 259.171ZM226.281 241.74L226.954 245.443L223.393 246.091L223.733 247.96L227.294 247.312L227.987 251.12L230.068 250.742L229.375 246.933L232.936 246.285L232.596 244.417L229.035 245.064L228.362 241.361L226.281 241.74ZM186.259 254.539C186.167 254.034 186.072 253.715 186.002 253.53C185.95 253.536 185.888 253.543 185.817 253.556C185.744 253.57 185.681 253.584 185.628 253.598C185.634 253.811 185.663 254.146 185.751 254.632C185.833 255.08 185.917 255.389 185.985 255.59C186.042 255.584 186.107 255.576 186.182 255.563C186.254 255.549 186.316 255.533 186.369 255.521C186.367 255.321 186.344 255.003 186.259 254.539ZM215.533 243.294L215.818 244.864L216.384 246.273L215.077 245.8L213.369 245.619L213.102 247.653L214.708 247.871L216.227 247.813L215.238 249.086L214.581 250.481L216.596 251.443L217.305 249.93L217.661 248.59L218.465 249.701L219.737 250.89L221.231 249.289L220.045 248.175L218.748 247.355L220.197 246.908L221.659 246.133L220.662 244.256L219.115 245.065L218.038 245.953L218.057 244.457L217.771 242.887L215.533 243.294ZM236.676 239.448L236.962 241.018L237.528 242.427L236.222 241.954L234.513 241.773L234.245 243.807L235.851 244.025L237.371 243.967L236.382 245.24L235.725 246.635L237.74 247.597L238.448 246.084L238.806 244.744L239.608 245.855L240.882 247.043L242.375 245.443L241.189 244.328L239.892 243.508L241.341 243.062L242.803 242.287L241.806 240.41L240.259 241.219L239.182 242.107L239.201 240.61L238.916 239.041L236.676 239.448ZM186.851 251.626C187.2 251.745 187.478 252.004 187.684 252.404L186.353 253.091L186.851 251.626ZM195.049 254.959C195.181 255.59 195.35 256.089 195.555 256.455C195.787 256.862 196.14 257.138 196.616 257.283C197.091 257.427 197.753 257.421 198.599 257.267C199.245 257.15 200.166 256.904 201.36 256.529L201.023 254.677C200.086 254.993 199.364 255.197 198.859 255.289C198.524 255.35 198.247 255.377 198.029 255.369L197.831 255.349C197.605 255.305 197.44 255.202 197.337 255.038C197.269 254.914 197.207 254.731 197.152 254.488L197.098 254.225L196.302 249.852L199.741 249.227L199.411 247.411L195.972 248.037L195.475 245.304L193.587 246.54L193.927 248.408L192.005 248.758L191.912 250.651L194.187 250.237L194.995 254.681L195.049 254.959ZM188.313 254.733C188.381 255.253 188.39 255.682 188.342 256.018L188.316 256.177C188.243 256.535 188.082 256.817 187.832 257.022C187.559 257.254 187.128 257.423 186.54 257.53C186.026 257.624 185.603 257.631 185.272 257.552L185.135 257.513C184.797 257.392 184.52 257.138 184.304 256.753C184.15 256.453 184.014 256.048 183.896 255.537L183.783 254.989C183.64 254.202 183.595 253.585 183.647 253.138C183.703 252.746 183.839 252.436 184.056 252.209L184.153 252.117C184.436 251.871 184.872 251.696 185.459 251.589L185.674 251.554C186.161 251.486 186.554 251.511 186.851 251.626L186.353 253.091L187.684 252.404C187.902 252.801 188.084 253.394 188.227 254.181L188.313 254.733ZM208.891 249.239C208.998 249.826 209.108 250.312 209.22 250.707L209.316 251.026C209.42 251.359 209.555 251.751 209.722 252.205L209.878 252.584C210.004 252.865 210.108 253.039 210.178 253.137C210.207 253.14 210.247 253.144 210.298 253.145C210.359 253.146 210.431 253.144 210.516 253.138L210.81 253.106L211.007 253.087C211.987 253.045 212.868 253.728 213.056 254.711L213.432 256.682C213.534 257.218 213.413 257.773 213.097 258.217C212.78 258.662 212.296 258.958 211.756 259.037C210.763 259.181 209.797 259.22 208.912 259.076L208.539 259.002C208.534 259.001 208.53 258.999 208.525 258.998C207.61 258.779 206.809 258.331 206.141 257.698L205.862 257.416C205.264 256.766 204.76 255.928 204.321 254.984L204.136 254.573L204.135 254.571C203.913 254.055 203.719 253.557 203.558 253.078L203.409 252.605C203.223 251.979 203.053 251.213 202.893 250.33C202.732 249.447 202.621 248.67 202.574 248.019C202.528 247.371 202.526 246.67 202.562 245.923L202.562 245.921L202.59 245.471C202.669 244.433 202.846 243.471 203.176 242.652L203.34 242.286C203.749 241.45 204.351 240.747 205.141 240.221C205.978 239.665 207.01 239.303 208.121 239.059L208.322 239.025C208.792 238.972 209.269 239.087 209.665 239.354C210.062 239.62 210.347 240.018 210.475 240.474L210.52 240.672L210.862 242.651C211.032 243.637 210.448 244.585 209.516 244.891L209.325 244.943C209.107 244.992 208.946 245.042 208.832 245.087C208.785 245.105 208.749 245.122 208.722 245.136C208.68 245.296 208.629 245.616 208.624 246.159C208.629 246.81 208.65 247.342 208.685 247.762L208.685 247.766C208.717 248.16 208.784 248.649 208.891 249.239ZM253.277 241.165C253.397 241.827 253.489 242.429 253.547 242.964L253.594 243.475C253.64 244.123 253.643 244.824 253.607 245.571L253.606 245.573C253.554 246.632 253.413 247.625 253.125 248.483L252.992 248.843C252.59 249.836 251.936 250.663 251.039 251.263L251.04 251.264C251.038 251.265 251.036 251.266 251.034 251.267C251.032 251.269 251.03 251.271 251.028 251.272L251.027 251.272C250.194 251.831 249.159 252.192 248.047 252.435C247.514 252.552 246.956 252.445 246.504 252.14C246.051 251.835 245.742 251.359 245.649 250.821L245.308 248.844L245.284 248.647C245.212 247.669 245.867 246.769 246.844 246.551C247.063 246.503 247.22 246.453 247.327 246.41C247.378 246.39 247.411 246.371 247.432 246.36C247.475 246.232 247.54 245.917 247.544 245.325C247.539 244.679 247.519 244.157 247.487 243.751C247.453 243.341 247.386 242.845 247.278 242.256C247.171 241.666 247.061 241.185 246.952 240.805L246.95 240.801C246.835 240.395 246.667 239.891 246.442 239.28C246.23 238.731 246.06 238.462 245.976 238.359C245.952 238.356 245.914 238.351 245.861 238.35C245.803 238.349 245.733 238.351 245.65 238.356L245.359 238.389C244.303 238.538 243.314 237.832 243.114 236.784L242.737 234.812C242.635 234.276 242.756 233.721 243.072 233.277C243.389 232.832 243.874 232.535 244.414 232.457C245.54 232.293 246.633 232.269 247.612 232.496C248.669 232.74 249.577 233.287 250.306 234.079L250.558 234.369C251.047 234.97 251.472 235.701 251.848 236.51L252.032 236.921L252.034 236.923L252.247 237.433C252.449 237.937 252.621 238.423 252.76 238.889C252.945 239.516 253.116 240.282 253.277 241.165ZM162.097 252.851L162.684 256.077L166.034 255.468L165.447 252.241L162.097 252.851ZM172.183 261.872L174.333 261.481L173.464 256.703C173.334 255.986 173.298 255.421 173.357 255.01C173.425 254.585 173.598 254.262 173.873 254.042C174.161 253.82 174.593 253.657 175.168 253.552C175.826 253.432 176.295 253.469 176.573 253.661L176.677 253.742C176.911 253.958 177.08 254.35 177.183 254.916L178.248 260.769L180.399 260.377L179.341 254.56C179.167 253.608 178.929 252.898 178.626 252.431C178.369 252.01 178.025 251.726 177.594 251.578L177.404 251.524C176.881 251.388 176.173 251.402 175.28 251.564C174.634 251.682 174.154 251.878 173.84 252.154C173.526 252.43 173.256 252.885 173.031 253.521L172.89 253.547L172.659 252.277L170.509 252.669L172.183 261.872ZM230.645 242.739L232.238 242.449C232.295 242.439 232.352 242.431 232.409 242.426L232.53 241.511L232.566 241.314C232.792 240.35 233.701 239.685 234.705 239.782C234.522 238.704 235.24 237.677 236.318 237.48L238.558 237.073L238.76 237.047C239.757 236.968 240.669 237.645 240.873 238.64L240.878 238.638L241.063 238.553C242 238.177 243.088 238.561 243.572 239.471L244.569 241.348C244.818 241.817 244.871 242.365 244.715 242.872C244.565 243.363 244.23 243.774 243.784 244.026C244.547 244.784 244.576 246.015 243.838 246.806L242.344 248.408C241.982 248.796 241.481 249.025 240.951 249.043C240.421 249.061 239.905 248.869 239.517 248.508C239.286 248.959 238.893 249.309 238.414 249.481C237.974 249.638 237.496 249.636 237.06 249.479L236.878 249.402L234.862 248.438C234.576 248.301 234.338 248.104 234.154 247.87C233.91 248.058 233.618 248.194 233.294 248.253L231.701 248.543L232.036 250.384C232.233 251.47 231.512 252.511 230.426 252.709L228.345 253.088C227.258 253.285 226.217 252.565 226.019 251.478L225.684 249.637L224.09 249.927C223.763 249.987 223.44 249.961 223.143 249.869C223.057 250.153 222.909 250.422 222.694 250.653L221.2 252.255C220.838 252.643 220.337 252.871 219.806 252.889C219.277 252.907 218.761 252.714 218.374 252.353C218.142 252.805 217.75 253.155 217.269 253.327C216.83 253.484 216.352 253.482 215.917 253.325L215.733 253.248L213.718 252.285C212.726 251.81 212.303 250.623 212.772 249.628L212.773 249.624C211.714 249.448 210.978 248.464 211.119 247.392L211.386 245.358L211.422 245.16C211.649 244.196 212.557 243.53 213.562 243.628C213.379 242.55 214.096 241.523 215.175 241.326L217.413 240.919L217.617 240.893C218.613 240.815 219.525 241.491 219.728 242.486L219.734 242.484L219.92 242.399C220.857 242.023 221.944 242.407 222.428 243.317L222.875 244.16C222.927 244.146 222.98 244.133 223.035 244.123L224.629 243.833L224.313 242.098C224.115 241.011 224.836 239.97 225.923 239.772L228.004 239.394L228.207 239.368C229.217 239.288 230.144 239.985 230.329 241.003L230.645 242.739ZM168.002 255.11C168.157 255.964 167.744 256.789 167.032 257.199C167.843 257.332 168.52 257.958 168.676 258.813L169.263 262.039C169.46 263.126 168.739 264.167 167.653 264.365L164.303 264.974C163.216 265.172 162.175 264.451 161.977 263.364L161.39 260.138C161.235 259.283 161.648 258.459 162.36 258.049C161.549 257.915 160.872 257.29 160.716 256.435L160.129 253.209C159.932 252.122 160.653 251.081 161.739 250.883L165.089 250.274L165.292 250.248C166.303 250.168 167.23 250.865 167.415 251.883L168.002 255.11Z" fill="black"/>
<defs>
<filter id="filter0_d_4026_5" x="2" y="0.000350952" width="276" height="367.745" filterUnits="userSpaceOnUse" color-interpolation-filters="sRGB">
<feFlood flood-opacity="0" result="BackgroundImageFix"/>
<feColorMatrix in="SourceAlpha" type="matrix" values="0 0 0 0 0 0 0 0 0 0 0 0 0 0 0 0 0 0 127 0" result="hardAlpha"/>
<feOffset dy="4"/>
<feGaussianBlur stdDeviation="2"/>
<feComposite in2="hardAlpha" operator="out"/>
<feColorMatrix type="matrix" values="0 0 0 0 0 0 0 0 0 0 0 0 0 0 0 0 0 0 0.25 0"/>
<feBlend mode="normal" in2="BackgroundImageFix" result="effect1_dropShadow_4026_5"/>
<feBlend mode="normal" in="SourceGraphic" in2="effect1_dropShadow_4026_5" result="shape"/>
</filter>
<filter id="filter1_d_4026_5" x="33" y="133.5" width="220.346" height="76.3066" filterUnits="userSpaceOnUse" color-interpolation-filters="sRGB">
<feFlood flood-opacity="0" result="BackgroundImageFix"/>
<feColorMatrix in="SourceAlpha" type="matrix" values="0 0 0 0 0 0 0 0 0 0 0 0 0 0 0 0 0 0 127 0" result="hardAlpha"/>
<feOffset dy="4"/>
<feGaussianBlur stdDeviation="2"/>
<feComposite in2="hardAlpha" operator="out"/>
<feColorMatrix type="matrix" values="0 0 0 0 0 0 0 0 0 0 0 0 0 0 0 0 0 0 0.25 0"/>
<feBlend mode="normal" in2="BackgroundImageFix" result="effect1_dropShadow_4026_5"/>
<feBlend mode="normal" in="SourceGraphic" in2="effect1_dropShadow_4026_5" result="shape"/>
</filter>
<linearGradient id="paint0_linear_4026_5" x1="183.772" y1="158.5" x2="183.772" y2="192.956" gradientUnits="userSpaceOnUse">
<stop stop-color="#283A99"/>
<stop offset="1" stop-color="#4361FF"/>
</linearGradient>
<linearGradient id="paint1_linear_4026_5" x1="103.272" y1="158.5" x2="103.272" y2="192.956" gradientUnits="userSpaceOnUse">
<stop stop-color="#283A99"/>
<stop offset="1" stop-color="#4361FF"/>
</linearGradient>
<linearGradient id="paint2_linear_4026_5" x1="143.173" y1="133.5" x2="143.173" y2="201.807" gradientUnits="userSpaceOnUse">
<stop stop-color="#1E2225"/>
<stop offset="1" stop-color="#565B52"/>
</linearGradient>
</defs>
</svg>
