<svg width="280" height="365" viewBox="0 0 280 365" fill="none" xmlns="http://www.w3.org/2000/svg">
<g filter="url(#filter0_d_4026_6)">
<path d="M254.066 327.107V232.983C254.066 225.557 248.046 219.537 240.62 219.537H239.908C244.754 217.345 248.404 213.256 249.8 208.277L259.621 173.251C261.761 165.615 258.163 157.582 250.852 153.676L247.406 151.834V147.376C247.406 146.541 246.551 145.864 245.497 145.864H243.933C244.923 141.959 245.841 138.066 246.449 134.229L251.431 108.241L251.655 106.998C252.109 104.297 252.364 101.553 252.387 98.792L252.388 98.1543C252.37 94.1286 252.254 89.8917 251.621 85.7656L251.487 84.9414L251.45 84.7568L248.829 73.2393C247.841 68.8992 246.315 64.7055 244.294 60.7539L243.884 59.9668C242.706 57.7538 241.243 55.7877 239.754 54.0127L239.116 53.2627L234.883 48.3721L237.786 46.6494C238.875 46.0028 239.529 44.8179 239.498 43.5518C239.465 42.2859 238.752 41.136 237.632 40.5449L219.632 31.0449L219.424 30.9434L204.709 24.3818L207.447 22.5478C208.591 21.7815 209.18 20.4152 208.951 19.0576C208.736 17.7851 207.84 16.7409 206.631 16.3281L206.386 16.2539L185.386 10.7539C185.328 10.7386 185.267 10.7252 185.208 10.7129L185.207 10.7119H185.204C185.201 10.7114 185.198 10.7108 185.194 10.71C185.186 10.7083 185.174 10.7052 185.159 10.7021C185.129 10.696 185.085 10.6873 185.028 10.6758C184.914 10.6527 184.747 10.6187 184.532 10.5762C184.101 10.491 183.475 10.3696 182.689 10.2227C181.117 9.9289 178.897 9.53325 176.297 9.12109C171.12 8.3003 164.342 7.40081 158.145 7.14258C152.013 6.88708 145.907 7.01531 141.353 7.20508C139.071 7.30015 137.168 7.41157 135.833 7.49902C135.165 7.54275 134.638 7.58029 134.276 7.60742C134.095 7.62097 133.955 7.63207 133.86 7.63965C133.812 7.6434 133.776 7.64637 133.75 7.64844C133.738 7.64947 133.727 7.65079 133.72 7.65136C133.717 7.65161 133.712 7.65136 133.712 7.65136L133.711 7.65234C133.711 7.65234 133.708 7.65216 133.706 7.65234C133.699 7.65291 133.688 7.6542 133.675 7.65527C133.649 7.65744 133.609 7.65988 133.559 7.66406C133.458 7.67246 133.31 7.68506 133.121 7.70117C132.742 7.73343 132.199 7.78058 131.536 7.84082C130.21 7.96121 128.4 8.1344 126.465 8.34375C122.99 8.71985 118.677 9.25518 116.265 9.88379L115.809 10.0107C113.144 10.8063 109.576 12.1183 106.139 13.6494C102.785 15.144 99.2871 16.965 96.8833 18.8516L86.3745 26.8232L84.7661 21.584C84.3746 20.3093 83.2917 19.367 81.9751 19.1553C80.741 18.957 79.501 19.4324 78.7153 20.3887L78.5649 20.5869L62.3687 43.4307C58.2785 49.1999 56.0584 56.0831 56.0015 63.1504C44.2761 67.32 35.6577 77.4343 33.4077 89.6611L33.3042 90.25L32.521 94.959C31.8176 99.1872 31.7523 103.498 32.3276 107.745L37.4917 145.864H36.9692C35.9151 145.864 35.0601 146.541 35.0601 147.376V150.255C34.8656 150.333 34.6733 150.421 34.4839 150.519L28.648 153.52C21.2704 157.314 17.5345 165.292 19.5435 172.96L28.7573 208.131C30.3271 214.122 35.1559 218.886 41.4517 220.658L50.8911 223.315C51.3979 223.458 51.9028 223.538 52.3989 223.569C56.5395 234.01 62.4003 243.857 69.8169 252.76C58.5117 253.361 48.1556 256.09 40.1812 260.39C31.3216 265.166 24.1344 272.68 24.1343 282.35C24.1343 282.812 24.1508 283.27 24.1831 283.723L24.1108 285.211C24.0774 285.897 24.0601 286.589 24.0601 287.286L24.065 287.894C24.2804 303.315 32.6868 316.609 45.2505 324.761C45.2492 324.83 45.2485 324.899 45.2485 324.969C45.2485 331.38 50.7592 335.361 55.3472 337.426C60.1304 339.578 66.2871 340.837 72.8628 340.985L74.1831 341C81.2521 341 87.9162 339.722 93.0181 337.426C97.5416 335.39 102.961 331.492 103.113 325.238C110.207 320.809 116.034 314.765 119.895 307.625L137.684 290.582L138.079 290.199L138.115 290.164L138.15 290.128L138.434 289.834C139.717 288.475 140.72 286.947 141.444 285.321C142.601 285.419 143.754 285.571 144.898 285.78C154.398 287.519 164.22 286.077 172.597 281.796V335.017L172.602 335.364C172.786 342.63 178.733 348.463 186.043 348.463H232.71C244.321 348.463 253.767 339.198 254.059 327.658L254.066 327.107ZM185.239 342.886C185.503 342.912 185.772 342.927 186.043 342.927L185.636 342.917C185.503 342.91 185.37 342.899 185.239 342.886ZM244.404 337.762C244.36 337.81 244.314 337.857 244.269 337.905C244.319 337.852 244.37 337.799 244.419 337.744L244.404 337.762ZM135.08 285.347C134.984 285.469 134.884 285.588 134.782 285.707C134.884 285.589 134.983 285.469 135.079 285.348L135.08 285.347ZM241.027 225.083C241.427 225.103 241.819 225.154 242.202 225.231C241.691 225.128 241.161 225.073 240.62 225.073L241.027 225.083ZM186.752 3.88574L186.755 3.88769C186.752 3.887 186.748 3.885 186.743 3.88379C186.739 3.88298 186.734 3.88209 186.729 3.88086C186.739 3.8832 186.747 3.88459 186.752 3.88574ZM186.695 3.87304C186.708 3.87599 186.72 3.87879 186.729 3.88086C186.717 3.8781 186.701 3.87489 186.684 3.87109C186.684 3.87109 186.68 3.87055 186.678 3.87011C186.674 3.8692 186.67 3.86809 186.666 3.86719C186.677 3.86957 186.687 3.87122 186.695 3.87304ZM184.552 3.74316C184.544 3.7439 184.538 3.74382 184.535 3.74414L184.531 3.74511C184.531 3.74511 184.538 3.74465 184.543 3.74414C184.546 3.74388 184.548 3.74352 184.552 3.74316ZM185.837 3.74219C185.827 3.74124 185.816 3.73917 185.806 3.73828C185.799 3.73766 185.792 3.73789 185.785 3.7373C185.802 3.73874 185.82 3.74057 185.837 3.74219ZM184.947 3.71679C184.934 3.71725 184.922 3.71825 184.911 3.71875C184.929 3.71798 184.948 3.71746 184.967 3.71679C184.96 3.71703 184.954 3.71655 184.947 3.71679ZM133.014 0.687498C132.989 0.689897 132.972 0.690903 132.967 0.691404H132.98C132.984 0.691024 132.988 0.689932 132.993 0.689451C132.998 0.688886 133.006 0.688338 133.014 0.687498ZM133.002 0.688474H133.009L133.018 0.687498C133.01 0.688354 133.002 0.688474 133.002 0.688474ZM133.417 0.659177C133.361 0.661617 133.301 0.66658 133.239 0.670896C133.316 0.665744 133.388 0.660606 133.455 0.658201C133.442 0.658646 133.43 0.658649 133.417 0.659177ZM133.955 0.656248C133.974 0.656924 133.99 0.656848 134 0.657224C134.004 0.657408 134.008 0.658102 134.01 0.658201C134.008 0.658113 134.006 0.657396 134.001 0.657224C133.993 0.656884 133.98 0.656822 133.963 0.656248C133.947 0.655669 133.926 0.654923 133.903 0.654295H133.901C133.922 0.654856 133.94 0.65575 133.955 0.656248ZM133.603 0.654295C133.588 0.654542 133.573 0.65491 133.557 0.655271C133.537 0.655704 133.517 0.656568 133.496 0.657224C133.549 0.655609 133.599 0.654702 133.645 0.654295C133.631 0.654422 133.617 0.654072 133.603 0.654295ZM261.066 327.107C261.066 342.523 248.764 355.066 233.442 355.454L232.71 355.463H186.043C174.751 355.463 165.597 346.309 165.597 335.017V291.883C158.941 293.6 151.915 293.964 145.015 292.896C144.551 293.495 144.054 294.079 143.524 294.641L143.494 294.673L143.178 294.998L143.161 295.016L143.144 295.033L143.109 295.069L143.035 295.145L142.959 295.218L142.922 295.253L142.921 295.252L142.562 295.603L142.527 295.636L125.564 311.888C121.648 318.779 116.15 324.699 109.59 329.324C107.562 337.44 100.145 341.895 95.8911 343.81C89.6937 346.598 82.0068 348 74.1831 348C66.6035 348 59.1529 346.684 53.0601 344.066L52.4751 343.81C48.1098 341.845 40.4119 337.206 38.6265 328.679C25.8403 319.292 17.302 304.896 17.0659 287.991V287.969L17.065 287.946L17.061 287.339L17.0601 287.313V287.286C17.0601 286.476 17.0807 285.67 17.1196 284.871L17.1733 283.762C17.149 283.296 17.1343 282.825 17.1343 282.35C17.1343 280.969 17.2402 279.632 17.438 278.338L17.6987 273.004H18.8442C22.1048 264.43 29.5409 258.173 36.8589 254.228L37.8325 253.715C43.4749 250.812 49.9861 248.641 56.9976 247.283C53.2313 241.641 49.9952 235.719 47.3208 229.582L39.5552 227.396C31.2988 225.073 24.6541 218.863 22.2095 210.7L21.9858 209.904L12.772 174.734C9.8769 163.684 15.3478 152.489 25.4458 147.295L28.1782 145.889C28.4292 144.348 29.0668 143.094 29.9165 142.094L25.3911 108.686C24.7218 103.744 24.7974 98.7294 25.6157 93.8105L26.3989 89.1016L26.4097 89.0381L26.5132 88.4492L26.523 88.3945C28.9392 75.2635 37.4674 64.1666 49.3071 58.3838C50.1404 51.565 52.6546 45.0306 56.6587 39.3828L72.855 16.5391L72.9878 16.3564L73.1382 16.1582L73.3062 15.9463L73.5317 15.6807C75.2663 13.7061 77.665 12.4707 80.2349 12.1787H83L85.8149 13.0762C87.1846 13.7076 88.3987 14.6248 89.3765 15.7598L92.6528 13.2754C95.7415 10.8732 99.8312 8.79717 103.291 7.25586L104.677 6.65136C107.923 5.26788 111.197 4.08266 113.807 3.30371L113.932 3.26758L114.388 3.14062L114.5 3.11035L115.084 2.96582C118.106 2.25544 122.568 1.72497 125.712 1.38476L128.544 1.09277C129.425 1.00627 130.226 0.931566 130.903 0.870115L132.526 0.72656L132.98 0.688474L133.049 0.683591C133.068 0.681831 133.093 0.680148 133.122 0.677732C133.126 0.677371 133.13 0.676132 133.134 0.675779H133.149C133.16 0.674841 133.171 0.672838 133.183 0.671873L133.306 0.662107L133.752 0.627927L135.375 0.514646L137.857 0.366209C138.813 0.31403 139.889 0.260786 141.062 0.211912L142.884 0.142576C147.305 -0.00973822 152.84 -0.083794 158.437 0.149412L159.678 0.208005C165.907 0.541432 172.442 1.42306 177.393 2.20801L179.322 2.52148C181.168 2.82896 182.757 3.1142 183.975 3.34179L185.889 3.70996L186.417 3.81543L186.48 3.82812C186.498 3.83172 186.532 3.83831 186.563 3.84472L186.595 3.85254C186.602 3.8539 186.61 3.85466 186.619 3.85644C186.616 3.85579 186.612 3.85611 186.609 3.85547C186.612 3.85609 186.615 3.8568 186.618 3.85742H186.623L186.666 3.86719C186.666 3.86719 186.662 3.86663 186.66 3.86621C186.666 3.86761 186.672 3.86881 186.678 3.87011C186.77 3.88984 186.861 3.91125 186.952 3.93457L187.16 3.98242L208.16 9.48242L208.415 9.55469L208.66 9.6289L208.894 9.7041L209.232 9.82617C211.68 10.757 213.67 12.5618 214.844 14.8516L215.802 17.5L215.895 21.1006C215.868 21.2894 215.839 21.4775 215.802 21.6641L222.275 24.5508L222.496 24.6533L222.704 24.7549L222.9 24.8545L240.9 34.3545L241.211 34.5254C243.72 35.9597 245.5 38.3498 246.186 41.1016L246.449 43.4307L246.3 45.6641C246.05 46.939 245.566 48.1487 244.88 49.2363L245.084 49.4746L245.119 49.5156L245.747 50.2773C247.116 51.9669 248.539 53.9231 249.78 56.1562L250.063 56.6768L250.092 56.7324L250.502 57.5195L250.527 57.5674C252.812 62.0352 254.536 66.7769 255.654 71.6855L258.275 83.2041L258.312 83.3779L258.349 83.5625L258.397 83.8203L258.531 84.6445L258.54 84.7031C259.256 89.3653 259.369 94.0306 259.388 98.1221V98.165L259.387 98.8027V98.8516C259.364 101.61 259.139 104.338 258.74 107.016L258.558 108.16C258.554 108.186 258.549 108.212 258.544 108.238L258.321 109.481L258.306 109.56L253.341 135.454C253.01 137.523 252.597 139.594 252.142 141.646C253.472 142.992 254.406 144.871 254.406 147.376V147.641C264.103 152.962 269.254 163.882 266.499 174.625L266.361 175.142L256.541 210.167C255.847 212.641 254.769 214.938 253.381 217.009C258.065 220.756 261.066 226.519 261.066 232.983V327.107Z" fill="white"/>
</g>
<path d="M23.148 172.128C21.5408 165.993 24.5299 159.611 30.4319 156.576L36.2676 153.574C37.6792 152.848 39.4501 153.31 40.2606 154.615L43.3214 159.545L55.7203 216.752C56.1678 218.816 54.1072 220.583 51.9571 219.978L42.5174 217.321C37.4807 215.903 33.6182 212.091 32.3625 207.298L23.148 172.128Z" fill="#EDD5BE"/>
<path d="M23.148 172.128C21.5408 165.993 24.5299 159.611 30.4319 156.576L36.2676 153.574C37.6792 152.848 39.4501 153.31 40.2606 154.615L43.3214 159.545L55.7203 216.752C56.1678 218.816 54.1072 220.583 51.9571 219.978L42.5174 217.321C37.4807 215.903 33.6182 212.091 32.3625 207.298L23.148 172.128Z" fill="#EDD5BE"/>
<path d="M52.9878 204.144C50.7575 206.375 48.1443 207.752 45.2595 208.027C39.7032 208.556 34.2592 204.886 30.0878 198.616L32.3625 207.298C33.6182 212.091 37.4807 215.903 42.5175 217.321L51.9571 219.978C54.1072 220.583 56.1678 218.816 55.7203 216.752L52.9878 204.144Z" fill="#E2CBB4"/>
<path fill-rule="evenodd" clip-rule="evenodd" d="M34.4836 150.518C37.6599 148.884 41.6444 149.923 43.4681 152.861C45.699 156.454 47.2877 160.366 48.1711 164.441L59.3581 216.057C60.365 220.702 55.7287 224.677 50.8909 223.315L41.4513 220.659C35.1553 218.887 30.3272 214.122 28.7576 208.13L19.5431 172.96C17.5341 165.292 21.2704 157.314 28.648 153.52L34.4836 150.518ZM39.9426 161.435C39.8519 161.016 39.6888 160.615 39.4598 160.246C38.3232 158.415 35.8397 157.768 33.8601 158.786L32.2159 159.631C27.7893 161.908 25.5476 166.695 26.7529 171.296L35.9674 206.466C36.9092 210.061 39.8061 212.92 43.5836 213.983C47.317 215.034 50.8949 211.967 50.1179 208.382L39.9426 161.435Z" fill="black"/>
<path d="M256.03 172.365C257.743 166.255 254.865 159.829 249.016 156.704L243.233 153.614C241.834 152.866 240.055 153.301 239.222 154.594L236.077 159.477L222.692 216.487C222.209 218.545 224.239 220.342 226.399 219.77L235.883 217.257C240.944 215.917 244.872 212.164 246.21 207.391L256.03 172.365Z" fill="#EDD5BE"/>
<path d="M256.03 172.365C257.743 166.255 254.865 159.829 249.016 156.704L243.233 153.614C241.834 152.866 240.055 153.301 239.222 154.594L236.077 159.477L222.692 216.487C222.209 218.545 224.239 220.342 226.399 219.77L235.883 217.257C240.944 215.917 244.872 212.164 246.21 207.391L256.03 172.365Z" fill="#EDD5BE"/>
<path d="M225.645 203.928C227.836 206.193 230.425 207.61 233.305 207.928C238.851 208.541 244.358 204.955 248.637 198.749L246.213 207.396C244.875 212.169 240.947 215.922 235.886 217.263L226.402 219.775C224.242 220.348 222.212 218.55 222.695 216.493L225.645 203.928Z" fill="#E2CBB4"/>
<path fill-rule="evenodd" clip-rule="evenodd" d="M245.069 150.585C241.922 148.904 237.92 149.882 236.046 152.791C233.753 156.35 232.097 160.237 231.143 164.299L219.067 215.737C217.98 220.367 222.547 224.411 227.408 223.124L236.892 220.611C243.218 218.935 248.127 214.244 249.8 208.277L259.62 173.251C261.762 165.615 258.163 157.582 250.852 153.675L245.069 150.585ZM239.423 161.418C239.52 161.001 239.69 160.601 239.926 160.236C241.094 158.423 243.588 157.813 245.55 158.861L247.179 159.732C251.566 162.076 253.725 166.896 252.44 171.478L242.62 206.504C241.616 210.083 238.67 212.898 234.875 213.904C231.124 214.898 227.6 211.776 228.438 208.204L239.423 161.418Z" fill="black"/>
<path d="M67.9984 56.6643L138.729 30.6578L211.404 53.0161L236.553 125.756C237.405 136.104 236.951 146.508 235.199 156.761L225.957 201.763C223.514 216.061 218.035 235.764 208.955 247.631C201.931 256.81 193.186 264.785 183.121 271.19L173.843 277.094C165.635 282.317 155.442 284.256 145.628 282.46C141.07 281.626 136.38 281.589 131.807 282.352L131.526 282.399C120.596 284.223 109.337 281.614 100.687 275.253L92.5204 269.248C85.5259 264.105 79.2034 258.245 73.6777 251.783C61.2402 237.24 53.143 220.007 50.1742 201.763L42.7903 156.387C41.1619 146.38 40.768 136.239 41.6159 126.152L67.9984 56.6643Z" fill="#EDD5BE"/>
<path d="M140.425 281.857C182.759 260.342 215.691 222.373 231.222 176.129L225.957 201.763C223.514 216.061 218.035 235.764 208.955 247.631C201.931 256.81 193.186 264.785 183.121 271.19L173.843 277.094C165.635 282.317 155.442 284.256 145.628 282.46C143.908 282.145 142.169 281.944 140.425 281.857Z" fill="#E2CBB4"/>
<path fill-rule="evenodd" clip-rule="evenodd" d="M138.682 27.2595L216.998 57.5764L240.254 125.502C241.129 136.109 240.663 146.773 238.867 157.283L230.136 208.387C227.606 223.194 221.402 237.279 211.999 249.569C204.725 259.074 195.668 267.334 185.245 273.967L175.968 279.87C166.928 285.623 155.705 287.757 144.898 285.78C140.801 285.03 136.585 284.997 132.475 285.683L132.194 285.73C120.201 287.731 107.848 284.868 98.3574 277.889L90.1903 271.884C82.9741 266.578 76.4512 260.532 70.7504 253.866C57.9188 238.861 49.5649 221.082 46.502 202.26L39.1181 156.884C37.449 146.627 37.0453 136.232 37.9143 125.893L68.5605 60.5L138.682 27.2595ZM138.776 34.0561L68.5605 60.5L45.3173 126.411C44.4906 136.246 44.8747 146.134 46.4623 155.89L53.8462 201.266C56.721 218.932 64.5616 235.618 76.6048 249.701C81.9554 255.958 88.0775 261.632 94.8504 266.612L103.017 272.618C110.827 278.36 120.991 280.715 130.858 279.069L131.139 279.022C136.175 278.182 141.339 278.222 146.359 279.14C155.18 280.755 164.341 279.012 171.719 274.317L180.997 268.413C190.703 262.237 199.137 254.545 205.91 245.693C214.667 234.249 220.443 221.133 222.799 207.344L231.531 156.24C233.24 146.243 233.682 136.099 232.851 126.01L211.999 57.5764L138.776 34.0561Z" fill="black"/>
<path fill-rule="evenodd" clip-rule="evenodd" d="M139.831 273.082C139.01 273.082 138.346 272.476 138.346 271.728V264.957C138.346 264.209 139.01 263.603 139.831 263.603C140.651 263.603 141.315 264.209 141.315 264.957V271.728C141.315 272.476 140.651 273.082 139.831 273.082Z" fill="#C7B6A5"/>
<path fill-rule="evenodd" clip-rule="evenodd" d="M167.748 218.5C169.405 218.5 170.748 219.843 170.748 221.5C170.748 229.784 164.033 236.5 155.748 236.5H115.998C114.341 236.5 112.998 235.157 112.998 233.5C112.998 231.843 114.341 230.5 115.998 230.5H155.748C160.719 230.5 164.748 226.471 164.748 221.5C164.748 219.843 166.091 218.5 167.748 218.5Z" fill="black"/>
<path fill-rule="evenodd" clip-rule="evenodd" d="M135.127 207.329C138.425 209.528 142.722 209.528 146.02 207.329L152.702 202.874C153.726 202.192 155.109 202.469 155.791 203.492C156.473 204.516 156.197 205.899 155.173 206.581L148.491 211.036C143.696 214.232 137.45 214.232 132.655 211.036L125.973 206.581C124.95 205.899 124.673 204.516 125.355 203.492C126.038 202.469 127.421 202.192 128.444 202.874L135.127 207.329Z" fill="#C7B6A5"/>
<circle cx="181.413" cy="165.44" r="26.8929" fill="white"/>
<circle cx="186.833" cy="171.728" r="17.2282" fill="#4361FF"/>
<circle cx="186.833" cy="171.728" r="17.2282" fill="url(#paint0_linear_4026_6)" fill-opacity="0.7"/>
<circle cx="186.833" cy="171.728" r="11.3454" fill="black"/>
<path fill-rule="evenodd" clip-rule="evenodd" d="M191.65 167.751C190.83 166.931 190.83 165.6 191.65 164.78L199.214 157.216C200.034 156.396 201.365 156.396 202.185 157.216C203.006 158.037 203.006 159.367 202.185 160.188L194.622 167.751C193.801 168.572 192.471 168.572 191.65 167.751Z" fill="white"/>
<path fill-rule="evenodd" clip-rule="evenodd" d="M190.236 169.165C188.635 167.564 188.635 164.967 190.236 163.366L197.8 155.802C199.401 154.201 201.998 154.201 203.599 155.802C205.201 157.404 205.201 160 203.599 161.602L196.036 169.165C194.434 170.767 191.838 170.767 190.236 169.165ZM191.65 164.78C190.83 165.6 190.83 166.931 191.65 167.751C192.471 168.572 193.801 168.572 194.622 167.751L202.185 160.188C203.006 159.367 203.006 158.037 202.185 157.216C201.365 156.396 200.034 156.396 199.214 157.216L191.65 164.78Z" fill="white"/>
<path d="M154.112 168.854C155.765 169.08 157.288 167.922 157.513 166.269L158.033 162.46C159.136 154.368 164.344 147.42 171.802 144.091C177.481 141.555 183.945 141.367 189.767 143.563C198.122 146.713 204.01 154.299 204.974 163.171L205.302 166.187C205.482 167.846 206.973 169.044 208.632 168.864C210.291 168.684 211.489 167.193 211.309 165.534L210.981 162.518C209.77 151.377 202.381 141.861 191.899 137.909C184.589 135.153 176.474 135.388 169.338 138.573C159.972 142.755 153.432 151.48 152.046 161.644L151.526 165.452C151.301 167.106 152.458 168.629 154.112 168.854Z" fill="black"/>
<path fill-rule="evenodd" clip-rule="evenodd" d="M152.976 142.529C154.026 144.29 156.305 144.867 158.066 143.817L167.572 138.15C180.071 130.699 195.895 131.848 207.186 141.028C208.777 142.322 211.115 142.08 212.409 140.49C213.702 138.899 213.461 136.561 211.87 135.267C198.16 124.121 178.947 122.725 163.77 131.773L154.264 137.44C152.503 138.489 151.926 140.768 152.976 142.529Z" fill="black"/>
<circle cx="100.913" cy="165.44" r="26.8929" fill="white"/>
<circle cx="106.333" cy="171.728" r="17.2282" fill="#4361FF"/>
<circle cx="106.333" cy="171.728" r="17.2282" fill="url(#paint1_linear_4026_6)" fill-opacity="0.7"/>
<circle cx="106.333" cy="171.728" r="11.3454" fill="black"/>
<path fill-rule="evenodd" clip-rule="evenodd" d="M111.15 167.751C110.33 166.931 110.33 165.6 111.15 164.78L118.714 157.216C119.534 156.396 120.865 156.396 121.685 157.216C122.506 158.037 122.506 159.367 121.685 160.188L114.122 167.751C113.301 168.572 111.971 168.572 111.15 167.751Z" fill="white"/>
<path fill-rule="evenodd" clip-rule="evenodd" d="M109.736 169.165C108.135 167.564 108.135 164.967 109.736 163.366L117.3 155.802C118.901 154.201 121.498 154.201 123.099 155.802C124.701 157.404 124.701 160 123.099 161.602L115.536 169.165C113.934 170.767 111.338 170.767 109.736 169.165ZM111.15 164.78C110.33 165.6 110.33 166.931 111.15 167.751C111.971 168.572 113.301 168.572 114.122 167.751L121.685 160.188C122.506 159.367 122.506 158.037 121.685 157.216C120.865 156.396 119.534 156.396 118.714 157.216L111.15 164.78Z" fill="white"/>
<path d="M73.6116 168.854C75.2649 169.08 76.7879 167.922 77.0134 166.269L77.5327 162.46C78.6363 154.368 83.8437 147.42 91.3016 144.091C96.9811 141.555 103.445 141.367 109.267 143.563C117.622 146.713 123.51 154.299 124.474 163.171L124.802 166.187C124.982 167.846 126.473 169.044 128.132 168.864C129.791 168.684 130.989 167.193 130.809 165.534L130.481 162.518C129.27 151.377 121.881 141.861 111.399 137.909C104.09 135.153 95.9745 135.388 88.8384 138.573C79.4719 142.755 72.9317 151.48 71.5457 161.644L71.0264 165.452C70.8009 167.106 71.9584 168.629 73.6116 168.854Z" fill="black"/>
<path fill-rule="evenodd" clip-rule="evenodd" d="M128.036 142.529C126.986 144.29 124.707 144.867 122.946 143.817L113.44 138.15C100.94 130.699 85.1171 131.848 73.8254 141.028C72.2346 142.322 69.8965 142.08 68.6031 140.49C67.3098 138.899 67.551 136.561 69.1418 135.267C82.8521 124.121 102.065 122.725 117.242 131.773L126.748 137.44C128.509 138.489 129.086 140.768 128.036 142.529Z" fill="black"/>
<path d="M35.7963 107.276L43.4992 164.14L54.9992 124.331L61.7818 101.711C62.5892 99.0184 63.7767 96.4545 65.3083 94.0969C71.7868 84.1245 83.61 79.0047 95.3155 81.1028L124.623 86.3561C127.535 86.878 130.487 87.1404 133.445 87.1404H157.541C161.169 87.1404 164.786 86.7456 168.329 85.9629L187.199 81.7933C198.744 79.2425 210.747 83.3458 218.313 92.43C221.18 95.8716 223.283 99.883 224.482 104.199L228.499 118.651L235.999 164.14C237.999 153.14 241.499 143.14 242.999 133.64L247.994 107.583C248.588 104.481 248.903 101.329 248.889 98.1706C248.869 93.9079 248.738 89.6165 248.037 85.5337L245.416 74.0168C244.431 69.6899 242.876 65.5189 240.795 61.612C239.625 59.4152 238.098 57.436 236.469 55.554L229.499 47.5L235.999 43.6404L217.999 34.1404L197.499 25L205.499 19.6404L184.499 14.1404C184.499 14.1404 169.999 11.1405 157.999 10.6405C145.999 10.1405 133.999 11.1404 133.999 11.1404C133.999 11.1404 120.642 12.2214 116.81 13.365C111.797 14.8613 103.103 18.3952 98.9991 21.6404L84.4991 32.6404L81.4199 22.6116L65.2243 45.4551C61.4997 50.7085 59.4992 56.9892 59.4992 63.4289C59.4992 64.7528 58.6587 65.9319 57.4079 66.3656C46.5707 70.1236 38.6395 79.5097 36.7571 90.8244L35.9737 95.5337C35.3276 99.4169 35.2678 103.375 35.7963 107.276Z" fill="#5D473B"/>
<path d="M141.353 7.20553C145.907 7.01577 152.013 6.88753 158.145 7.14303C164.342 7.40126 171.12 8.30075 176.298 9.12155C178.897 9.53372 181.117 9.92935 182.689 10.2231C183.475 10.37 184.101 10.4915 184.532 10.5766C184.747 10.6192 184.914 10.6531 185.028 10.6762C185.085 10.6877 185.129 10.6964 185.159 10.7026C185.174 10.7057 185.186 10.7087 185.194 10.7104C185.198 10.7112 185.201 10.7119 185.204 10.7124C185.205 10.7126 185.206 10.7122 185.207 10.7124L185.208 10.7133C185.207 10.7198 185.185 10.8248 184.829 12.5473L185.209 10.7133C185.268 10.7256 185.328 10.739 185.386 10.7544L206.386 16.2544L206.631 16.3286C207.84 16.7414 208.736 17.7853 208.951 19.0581C209.18 20.4157 208.591 21.782 207.447 22.5483L204.709 24.3823L219.424 30.9438L219.632 31.0454L237.632 40.5454C238.752 41.1365 239.466 42.2862 239.498 43.5522C239.529 44.8183 238.875 46.0032 237.786 46.6499L234.883 48.3725L239.116 53.2631L239.755 54.0131C241.243 55.7883 242.706 57.7541 243.884 59.9672L244.295 60.7544C246.316 64.7061 247.841 68.8995 248.829 73.2397L251.45 84.7573L251.487 84.9419L251.621 85.7661C252.255 89.8923 252.37 94.1289 252.388 98.1547L252.387 98.7924C252.364 101.554 252.109 104.297 251.655 106.998L251.431 108.242L246.449 134.229C245.667 139.161 244.377 144.184 243.075 149.207C241.756 154.294 240.416 159.416 239.443 164.766C239.138 166.441 237.673 167.654 235.97 167.64C234.268 167.626 232.822 166.389 232.546 164.709L225.076 119.407L221.11 105.136C220.11 101.538 218.404 98.1773 216.094 95.2495L215.624 94.6704C209 86.7181 198.554 83.0576 188.436 85.1088L187.955 85.2104L169.084 89.3803C165.293 90.2178 161.423 90.6401 157.541 90.6401H133.445C130.676 90.6401 127.911 90.4253 125.176 89.9975L124.006 89.8012L94.6979 84.5483C84.5396 82.7275 74.2804 87.0721 68.5143 95.5942L68.2438 96.0034C66.9779 97.9519 65.9786 100.061 65.2721 102.273L65.1344 102.716L58.361 125.301L58.362 125.302L46.862 165.112C46.4028 166.701 44.8929 167.752 43.2428 167.631C41.6961 167.518 40.422 166.403 40.0856 164.914L40.0309 164.61L32.3278 107.746C31.7524 103.498 31.8177 99.1878 32.5211 94.9594L33.3043 90.2505L33.4079 89.6616C35.6577 77.4345 44.2761 67.3205 56.0016 63.1508C56.0584 56.0834 58.2785 49.2004 62.3688 43.4311L78.5651 20.5874L78.7155 20.3891C79.5011 19.4326 80.7409 18.9574 81.9752 19.1557C83.292 19.3674 84.3748 20.3095 84.7663 21.5844L86.3747 26.8237L96.8834 18.852C99.2872 16.9655 102.785 15.1444 106.139 13.6499C109.576 12.1188 113.144 10.8067 115.809 10.0112L116.265 9.88424C118.677 9.25563 122.99 8.7203 126.465 8.3442C128.4 8.13485 130.211 7.96167 131.536 7.84127C132.199 7.78103 132.743 7.73388 133.121 7.70162C133.31 7.68551 133.458 7.67291 133.559 7.66451C133.61 7.66033 133.649 7.6579 133.675 7.65572C133.689 7.65465 133.699 7.65336 133.706 7.6528C133.708 7.65261 133.71 7.65292 133.712 7.6528L133.713 7.65182C133.714 7.65166 133.717 7.65208 133.72 7.65182C133.727 7.65125 133.738 7.64992 133.751 7.64889C133.776 7.64683 133.813 7.64386 133.86 7.6401C133.956 7.63252 134.095 7.62143 134.276 7.60787C134.638 7.58074 135.165 7.54321 135.833 7.49947C137.168 7.41202 139.071 7.3006 141.353 7.20553ZM62.9997 63.4292C62.9995 66.1583 61.3218 68.5942 58.8014 69.5815L58.5543 69.6723C49.0767 72.9589 42.1018 81.091 40.2916 90.9292L40.2096 91.3989L39.4264 96.1079C38.8378 99.6457 38.7829 103.252 39.2643 106.806L44.7399 147.231L51.6364 123.36L51.6471 123.326L58.4293 100.707L58.6032 100.143C59.4995 97.3367 60.7678 94.6618 62.3737 92.1899L62.7174 91.6713C70.0322 80.8602 83.0465 75.3478 95.9333 77.6577L125.241 82.9106L126.257 83.0815C128.635 83.4534 131.038 83.6401 133.445 83.6401H157.541C160.915 83.6401 164.279 83.2733 167.574 82.5454L186.444 78.3755L187.046 78.2485C199.682 75.6865 212.729 80.2578 221.003 90.1899L221.589 90.9135C224.475 94.5703 226.605 98.7674 227.854 103.261L231.872 117.714L231.917 117.897C231.93 117.958 231.943 118.02 231.953 118.082L236.6 146.272C237.799 141.631 238.878 137.296 239.542 133.094L239.562 132.982L244.556 106.924L244.753 105.836C245.119 103.659 245.333 101.469 245.38 99.2807L245.388 98.187C245.369 93.9855 245.237 89.9635 244.6 86.2046L242.004 74.7934C241.145 71.0209 239.82 67.3757 238.063 63.9409L237.706 63.2573C236.837 61.6261 235.706 60.0802 234.395 58.5161L233.823 57.8442L226.852 49.7905C226.174 49.0069 225.879 47.9628 226.045 46.9399C226.211 45.9168 226.821 45.0198 227.713 44.4907L228.841 43.8198L216.473 37.2924L196.074 28.1967C194.91 27.678 194.121 26.5676 194.012 25.2983C193.904 24.0291 194.493 22.8012 195.551 22.0922L197.095 21.0571L183.708 17.5503C183.688 17.5463 183.665 17.5419 183.639 17.5366C183.535 17.5155 183.378 17.4842 183.173 17.4438C182.764 17.363 182.163 17.246 181.403 17.104C179.881 16.8196 177.726 16.4349 175.201 16.0346C170.128 15.2305 163.656 14.3789 157.853 14.1372C151.985 13.8927 146.091 14.0144 141.645 14.1997C139.427 14.2921 137.58 14.4004 136.291 14.4848C135.647 14.527 135.142 14.5627 134.8 14.5883C134.63 14.6011 134.5 14.6118 134.414 14.6186C134.371 14.622 134.339 14.6247 134.318 14.6264C134.308 14.6273 134.3 14.628 134.296 14.6284H134.29L134.282 14.6294H134.273C134.267 14.6298 134.258 14.6313 134.247 14.6323C134.223 14.6343 134.185 14.6371 134.137 14.6411C134.041 14.6491 133.899 14.6606 133.715 14.6762C133.348 14.7075 132.817 14.754 132.169 14.813C130.87 14.9309 129.102 15.0994 127.218 15.3032C123.534 15.7018 119.845 16.1923 118.128 16.6313L117.811 16.7192C115.463 17.42 112.178 18.6233 108.988 20.0444C105.945 21.4002 103.23 22.8488 101.503 24.1313L101.171 24.3862L101.115 24.4292L86.6149 35.4292C85.7042 36.12 84.5134 36.3219 83.4254 35.9712C82.3374 35.6203 81.4885 34.7603 81.153 33.6674L80.1608 30.438L68.0797 47.479C64.7747 52.1407 62.9997 57.7147 62.9997 63.4292Z" fill="black"/>
<path d="M95.1448 54.0123C105.458 35.6123 125.309 24.6468 146.375 25.7115C148.297 25.8089 149.776 27.4457 149.679 29.3678C149.582 31.29 147.945 32.7696 146.023 32.6725C127.601 31.7415 110.243 41.3306 101.225 57.4205L97.5247 64.0221C96.6129 65.6482 94.5915 66.2599 92.9397 65.441L92.7805 65.358C91.1018 64.4169 90.5038 62.2927 91.4446 60.6139L95.1448 54.0123Z" fill="#423027"/>
<path d="M130.947 62.7259C142.055 45.4236 161.827 35.1029 181.636 36.3753C183.618 36.5029 184.997 38.2693 184.682 40.2083C184.4 41.9454 182.846 43.25 181.087 43.223L181.045 41.2201L180.916 43.2161C163.75 42.1135 146.455 51.0816 136.723 66.2406L135.722 67.8001C134.807 69.2245 132.876 69.9532 131.208 69.1273L131.048 69.0423C129.243 68.0279 128.967 65.8101 129.946 64.2845L130.947 62.7259Z" fill="#423027"/>
<path d="M162.038 65.2945C176.42 50.9131 198.391 47.3473 216.582 56.443L219.582 57.9439C221.393 58.8494 222.127 61.051 221.222 62.8619C220.316 64.6728 218.115 65.4069 216.304 64.5016L213.303 63.0016C197.934 55.3173 179.373 58.3293 167.223 70.4791C165.791 71.9107 163.47 71.9106 162.038 70.4791C160.607 69.0474 160.607 66.7262 162.038 65.2945Z" fill="#423027"/>
<g filter="url(#filter1_d_4026_6)">
<path d="M57.7209 137.039H109.221L130.221 146.539L131.721 163.539L124.721 183.039L110.721 196.539L88.2209 197.539L56.7209 195.039L46.7209 183.539L45.7209 166.539L48.2209 144.039L57.7209 137.039Z" fill="white" fill-opacity="0.5"/>
<path d="M225.721 137.039H174.221L153.221 146.539L151.721 163.539L158.721 183.039L172.721 196.539L195.221 197.539L226.721 195.039L236.721 183.539L237.721 166.539L235.221 144.039L225.721 137.039Z" fill="white" fill-opacity="0.5"/>
<path fill-rule="evenodd" clip-rule="evenodd" d="M103.439 132.5C108.429 132.5 113.355 133.668 117.856 135.919L129.705 141.845C130.871 142.428 131.909 143.208 132.791 144.134L139.658 144.867C140.705 144.979 141.761 144.979 142.809 144.867L149.675 144.134C150.557 143.207 151.595 142.428 152.762 141.845L164.609 135.919C169.111 133.668 174.038 132.5 179.027 132.5H217.477C220.119 132.5 222.732 133.09 225.139 134.23L229.081 136.099C233.296 138.095 236.551 141.613 238.367 145.864H245.497C246.551 145.864 247.406 146.541 247.406 147.376V155.598C247.406 156.183 246.98 156.715 246.312 156.965L243.419 158.044C242.92 158.23 242.547 158.579 242.396 159L241.116 162.583C240.951 163.046 240.523 163.407 239.981 163.576V175.076C239.981 184.504 235.049 193.177 227.127 197.681C223.519 199.732 219.477 200.807 215.369 200.807H177.954C173.394 200.807 168.993 199.051 165.592 195.876L162.548 193.035C152.294 183.463 146.431 169.773 146.431 155.4V154.968L144.517 154.534C142.355 154.044 140.111 154.044 137.949 154.534L136.036 154.968V155.4C136.036 169.773 130.173 183.463 119.919 193.035L116.875 195.876C113.473 199.051 109.073 200.807 104.513 200.807H67.0977C62.9903 200.807 58.9482 199.732 55.3398 197.681C47.4176 193.177 42.4854 184.504 42.4854 175.076V163.576C41.944 163.407 41.5151 163.046 41.3496 162.583L40.0703 159C39.9201 158.579 39.5464 158.23 39.0469 158.044L36.1553 156.965C35.4869 156.715 35.0605 156.183 35.0605 155.598V147.376C35.0605 146.541 35.9153 145.864 36.9697 145.864H44.0996C45.9159 141.613 49.1712 138.095 53.3857 136.099L57.3281 134.23C59.7351 133.09 62.3477 132.5 64.9902 132.5H103.439ZM64.9902 140.262C63.4047 140.262 61.8367 140.616 60.3926 141.3L56.4502 143.168C52.4681 145.055 49.9102 149.203 49.9102 153.773V175.076C49.9102 181.66 53.3544 187.716 58.8867 190.861C61.4066 192.294 64.2293 193.045 67.0977 193.045H104.513C107.249 193.045 109.889 191.991 111.93 190.086L114.974 187.245C123.65 179.145 128.611 167.561 128.611 155.4V152.348C128.611 150.853 127.79 149.492 126.501 148.847L114.653 142.922C111.152 141.171 107.32 140.262 103.439 140.262H64.9902ZM179.027 140.262C175.146 140.262 171.314 141.171 167.813 142.922L155.966 148.847C154.676 149.492 153.856 150.853 153.855 152.348V155.4C153.855 167.561 158.816 179.145 167.493 187.245L170.537 190.086C172.578 191.991 175.218 193.045 177.954 193.045H215.369C218.238 193.045 221.06 192.294 223.58 190.861C229.112 187.716 232.557 181.66 232.557 175.076V153.773C232.557 149.203 229.999 145.055 226.017 143.168L222.073 141.3C220.629 140.616 219.062 140.262 217.477 140.262H179.027Z" fill="url(#paint2_linear_4026_6)"/>
<path d="M54.9028 174.978L54.7889 174.876C54.1997 174.395 53.3307 174.429 52.7815 174.978C52.2323 175.528 52.1981 176.397 52.6786 176.986L52.7815 177.1L65.7815 190.1C66.3673 190.686 67.3171 190.686 67.9028 190.1C68.4886 189.514 68.4886 188.564 67.9028 187.978L54.9028 174.978Z" fill="white" fill-opacity="0.7"/>
<path d="M62.9028 174.978L62.7889 174.875C62.1997 174.395 61.3306 174.429 60.7815 174.978C60.2323 175.528 60.1981 176.397 60.6786 176.986L60.7815 177.1L66.7815 183.1C67.3673 183.686 68.3171 183.686 68.9028 183.1C69.4886 182.514 69.4886 181.564 68.9028 180.978L62.9028 174.978Z" fill="white" fill-opacity="0.7"/>
</g>
<path d="M116.823 302.989L113.024 299.024L130.469 282.31L130.463 282.305C132.353 280.297 132.357 277.139 130.428 275.125C128.499 273.112 125.343 272.981 123.257 274.783L119.455 270.816C123.734 266.918 130.365 267.123 134.393 271.327C138.42 275.53 138.342 282.164 134.265 286.272L133.871 286.655L116.823 302.989Z" fill="#E6EAEF"/>
<path d="M133.87 286.655L134.264 286.272C138.278 282.228 138.417 275.736 134.579 271.525L134.393 271.327C130.365 267.123 123.734 266.918 119.455 270.816L123.257 274.783L123.455 274.62C125.539 272.991 128.559 273.175 130.428 275.125C132.297 277.076 132.351 280.101 130.635 282.113L130.463 282.305L130.468 282.31L113.024 299.024L116.823 302.989L133.87 286.655ZM116.657 310.728L105.284 298.858L122.729 282.145L111.619 270.549L115.769 266.769C122.237 260.876 132.258 261.186 138.345 267.539C144.337 273.793 144.316 283.605 138.434 289.834L138.15 290.128L138.115 290.164L138.078 290.199L137.684 290.582L116.657 310.728Z" fill="black"/>
<path d="M97.6429 324.969C97.6429 330.799 87.1395 335.526 74.1828 335.526C61.2262 335.526 50.7227 330.799 50.7227 324.969C50.7227 319.138 61.2262 314.412 74.1828 314.412C87.1395 314.412 97.6429 319.138 97.6429 324.969Z" fill="#E6EAEF"/>
<path d="M97.6429 324.969C97.6429 319.138 87.1394 314.412 74.1828 314.412C61.2261 314.412 50.7227 319.138 50.7227 324.969C50.7227 330.799 61.2261 335.526 74.1828 335.526C87.1394 335.526 97.6429 330.799 97.6429 324.969ZM103.117 324.969C103.117 331.38 97.6062 335.361 93.0181 337.426C87.9161 339.722 81.2519 341 74.1828 341C67.1137 341 60.4494 339.722 55.3475 337.426C50.7594 335.361 45.2487 331.38 45.2487 324.969C45.2487 318.558 50.7594 314.577 55.3475 312.512C60.4494 310.216 67.1137 308.938 74.1828 308.938C81.2519 308.938 87.9161 310.216 93.0181 312.512C97.6062 314.577 103.117 318.558 103.117 324.969Z" fill="black"/>
<path d="M119.536 285.478C119.565 286.077 119.581 286.68 119.581 287.286C119.581 309.683 99.4234 327.839 74.5578 327.839C49.6921 327.839 29.5347 309.683 29.5345 287.286C29.5345 286.68 29.5496 286.077 29.5788 285.478H119.536Z" fill="#E6EAEF"/>
<path d="M119.581 287.286C119.581 286.68 119.565 286.077 119.536 285.478H29.5789C29.5497 286.077 29.5346 286.68 29.5346 287.286C29.5347 309.683 49.6921 327.839 74.5578 327.839C99.4234 327.839 119.581 309.683 119.581 287.286ZM125.05 287.893C124.695 313.341 102.042 333.001 75.1978 333.309L74.5578 333.313C47.435 333.313 24.4233 313.543 24.0651 287.893L24.0605 287.286C24.0605 286.589 24.0775 285.897 24.1109 285.211L24.3653 280.004H124.75L125.004 285.211L125.025 285.724C125.044 286.239 125.055 286.76 125.055 287.286L125.05 287.893Z" fill="black"/>
<path d="M119.539 282.35C119.539 295.738 99.4074 306.592 74.5738 306.592C49.7402 306.592 29.6086 295.738 29.6086 282.35C29.6086 268.961 49.7402 258.108 74.5738 258.108C99.4074 258.108 119.539 268.961 119.539 282.35Z" fill="#F8F9FA"/>
<path d="M119.539 282.35C119.539 268.961 99.4074 258.108 74.5738 258.108C49.7402 258.108 29.6086 268.961 29.6086 282.35C29.6086 295.738 49.7402 306.592 74.5738 306.592C99.4074 306.592 119.539 295.738 119.539 282.35ZM125.013 282.35C125.013 292.019 117.826 299.534 108.967 304.31C99.8857 309.206 87.7161 312.066 74.5738 312.066C61.4314 312.066 49.2619 309.206 40.1809 304.31C31.3214 299.534 24.1346 292.019 24.1346 282.35C24.1346 272.68 31.3214 265.166 40.1809 260.39C49.2619 255.494 61.4314 252.634 74.5738 252.634C87.7161 252.634 99.8857 255.494 108.967 260.39C117.826 265.166 125.013 272.68 125.013 282.35Z" fill="black"/>
<path d="M114.847 282.741C114.847 293.754 96.8161 302.682 74.5738 302.682C52.3316 302.682 34.3007 293.754 34.3007 282.741C34.3007 271.728 52.3316 262.8 74.5738 262.8C96.8161 262.8 114.847 271.728 114.847 282.741Z" fill="#F8F9FA"/>
<path d="M114.847 282.741C114.847 271.9 97.3751 263.08 75.6132 262.807L74.5738 262.8C52.3315 262.8 34.3006 271.728 34.3006 282.741L34.3037 282.998C34.5776 293.721 51.945 302.404 73.5344 302.675L74.5738 302.682C96.6425 302.682 114.566 293.893 114.844 282.998L114.847 282.741ZM117.975 282.741C117.975 290.087 112.048 295.877 104.439 299.645C96.6339 303.509 86.0708 305.81 74.5738 305.81C63.0766 305.81 52.5129 303.509 44.708 299.645C37.099 295.877 31.1726 290.086 31.1726 282.741C31.1726 275.395 37.099 269.604 44.708 265.837C52.5129 261.972 63.0766 259.672 74.5738 259.672C86.0708 259.672 96.6339 261.972 104.439 265.837C112.048 269.604 117.975 275.395 117.975 282.741Z" fill="black"/>
<path d="M74.5578 266.344C95.7844 266.344 112.992 274.824 112.992 285.286C112.992 287.508 112.214 289.64 110.787 291.622C104.073 298.126 90.3704 302.582 74.5578 302.582C58.7449 302.582 45.042 298.126 38.3275 291.622C36.9011 289.64 36.1228 287.508 36.1228 285.286C36.1232 274.824 53.3312 266.344 74.5578 266.344Z" fill="#C73D70"/>
<path d="M112.992 285.286C112.992 274.824 95.7844 266.344 74.5578 266.344C53.3312 266.344 36.1232 274.824 36.1228 285.286C36.1228 287.508 36.9011 289.64 38.3275 291.622C45.042 298.126 58.7449 302.582 74.5578 302.582C90.3704 302.582 104.073 298.126 110.787 291.622C112.214 289.64 112.992 287.508 112.992 285.286ZM115.338 285.286C115.338 288.085 114.352 290.686 112.691 292.992L112.57 293.162L112.419 293.306C105.197 300.303 91.1109 304.786 75.3116 304.925L74.5578 304.928C58.4535 304.928 44.0325 300.414 36.6956 293.306L36.5451 293.161L36.4237 292.992C34.7632 290.686 33.7768 288.084 33.7768 285.286C33.777 278.67 39.1512 273.332 46.3431 269.787C53.6852 266.169 63.6639 263.998 74.5578 263.998L75.5765 264.004C86.0728 264.135 95.6593 266.282 102.772 269.787C109.964 273.332 115.338 278.67 115.338 285.286Z" fill="black"/>
<ellipse cx="53.4163" cy="283.088" rx="4.118" ry="7.13786" transform="rotate(45 53.4163 283.088)" fill="white" fill-opacity="0.5"/>
<path d="M82.7107 311.675C82.7107 315.346 79.2096 318.322 74.8907 318.322C70.5718 318.322 67.0707 315.346 67.0707 311.675C67.0707 308.004 70.5718 305.028 74.8907 305.028C79.2096 305.028 82.7107 308.004 82.7107 311.675Z" fill="white"/>
<path d="M78.8007 311.87C78.8007 310.197 77.2215 308.547 74.8907 308.547C72.5599 308.547 70.9807 310.197 70.9807 311.87C70.9807 313.544 72.5599 315.194 74.8907 315.194V316.758L74.6089 316.752C71.8098 316.625 69.5653 314.621 69.4236 312.122L69.4167 311.87C69.4167 309.171 71.8675 306.983 74.8907 306.983L75.1725 306.989C78.0648 307.12 80.3647 309.255 80.3647 311.87L80.3579 312.122C80.2114 314.704 77.8196 316.758 74.8907 316.758V315.194C77.2215 315.194 78.8007 313.544 78.8007 311.87Z" fill="black"/>
<path d="M82.7108 311.675C82.7108 308.004 79.2096 305.028 74.8907 305.028C70.5719 305.028 67.0707 308.004 67.0707 311.675C67.0707 315.346 70.5719 318.322 74.8907 318.322C79.2096 318.322 82.7108 315.346 82.7108 311.675ZM88.1848 311.675C88.1848 319.17 81.3649 323.796 74.8907 323.796C68.4166 323.796 61.5967 319.17 61.5967 311.675C61.5967 304.18 68.4166 299.554 74.8907 299.554C81.3649 299.554 88.1848 304.18 88.1848 311.675Z" fill="black"/>
<path d="M95.6085 255.061C92.5325 251.684 91.5306 246.904 92.9907 242.575L94.9044 236.9L94.9533 236.768C95.4851 235.422 96.9855 234.714 98.373 235.182C99.7605 235.65 100.526 237.122 100.133 238.516L100.091 238.651L98.1775 244.325C97.3531 246.769 97.9185 249.468 99.6552 251.374L100.063 251.822C104.262 256.431 104.195 263.48 99.9569 268.008L99.7522 268.222C98.0617 269.942 97.4751 272.455 98.2142 274.737L98.2898 274.958L100.07 279.849C100.587 281.27 99.8546 282.841 98.4341 283.358C97.0138 283.875 95.4437 283.142 94.9266 281.722L93.1457 276.83L93.0059 276.424C91.6401 272.207 92.7247 267.563 95.8483 264.384L96.0667 264.151C98.2537 261.697 98.2528 257.964 96.0163 255.508L95.6085 255.061Z" fill="#FBB44E"/>
<path d="M93.8025 256.035C90.4947 252.147 89.4561 246.795 91.0954 241.936L91.0964 241.937L93.0095 236.261L93.0183 236.234L93.029 236.206L93.0779 236.074L93.0847 236.054L93.0935 236.033L93.1843 235.818C94.1441 233.698 96.5252 232.576 98.7868 233.217L99.0124 233.287C101.414 234.098 102.738 236.644 102.058 239.058L102.051 239.083L102.044 239.109L102.002 239.244L101.994 239.267L101.986 239.29L100.073 244.964C99.5177 246.61 99.8396 248.417 100.91 249.765L101.134 250.027L101.542 250.475C106.444 255.857 106.366 264.087 101.417 269.375L101.41 269.383L101.402 269.391L101.197 269.605L101.188 269.614L101.178 269.623C100.014 270.808 99.6087 272.539 100.114 274.111L100.182 274.31L101.949 279.165C102.816 281.546 101.654 284.172 99.3454 285.148L99.1179 285.237C96.6595 286.132 93.9424 284.864 93.0476 282.406L91.2663 277.514L91.2546 277.481L91.115 277.074L91.1091 277.057L91.1033 277.04C89.5133 272.131 90.7676 266.727 94.3894 263.017L94.5769 262.817C96.0819 261.124 96.08 258.549 94.5378 256.856L94.1306 256.407L94.1296 256.407L93.8025 256.035ZM92.9909 242.575C91.5309 246.904 92.5322 251.684 95.6081 255.061L96.0163 255.508L96.2195 255.742C98.1852 258.117 98.1876 261.545 96.2654 263.918L96.0671 264.151L95.8484 264.384C92.7247 267.562 91.6398 272.207 93.0056 276.424L93.1452 276.83L94.9265 281.722L95.0359 281.981C95.6398 283.229 97.1029 283.842 98.4343 283.358C99.7659 282.873 100.492 281.462 100.152 280.117L100.07 279.85L98.2898 274.958L98.2146 274.737C97.4755 272.455 98.0621 269.942 99.7527 268.222L99.9568 268.008C104.063 263.621 104.254 256.869 100.444 252.261L100.063 251.821L99.655 251.374C97.9185 249.468 97.3533 246.769 98.1775 244.325L100.092 238.65L100.134 238.516C100.502 237.209 99.8516 235.834 98.6257 235.281L98.3728 235.182C97.0721 234.743 95.6722 235.338 95.0642 236.524L94.9529 236.769L94.904 236.9L92.9909 242.575Z" fill="black"/>
<path d="M83.1397 229.975C83.5606 228.524 85.0786 227.688 86.5304 228.109C87.9821 228.53 88.8177 230.048 88.3968 231.5L86.4059 238.367C85.537 241.365 86.1623 244.597 88.086 247.055L88.5274 247.619L88.7198 247.871C92.6346 253.105 92.5004 260.334 88.3938 265.418L88.1921 265.663C86.244 267.969 85.6099 271.112 86.5113 273.994L88.38 279.969L88.419 280.104C88.7809 281.506 87.983 282.961 86.5854 283.398C85.1879 283.835 83.7033 283.095 83.2015 281.737L83.1557 281.603L81.287 275.628C79.8266 270.959 80.8539 265.868 84.0103 262.131L84.2554 261.827C86.6317 258.749 86.7112 254.47 84.4509 251.306L84.2172 250.994L83.7751 250.429C80.7668 246.586 79.7891 241.531 81.148 236.843L83.1397 229.975Z" fill="#FBB44E"/>
<path d="M81.2927 229.186C82.1117 226.817 84.6537 225.483 87.0876 226.188L87.32 226.262C89.6118 227.054 90.9359 229.46 90.3796 231.82L90.3181 232.057L88.3269 238.924C87.6801 241.155 88.0758 243.551 89.3864 245.449L89.6609 245.822L89.6618 245.823L90.1032 246.387L90.1101 246.396L90.1169 246.405L90.3093 246.657L90.3151 246.665L90.321 246.674C94.7835 252.64 94.6311 260.879 89.9499 266.675L89.9431 266.683L89.9362 266.691L89.7351 266.936L89.7273 266.944L89.7204 266.953C88.2137 268.737 87.7226 271.168 88.4196 273.396H88.4206L90.2888 279.372L90.2956 279.394L90.3015 279.415L90.3405 279.55L90.3484 279.577L90.3552 279.604C90.9625 281.956 89.6866 284.393 87.406 285.231L87.1823 285.307C84.7628 286.063 82.1949 284.781 81.3259 282.43L81.3171 282.407L81.3093 282.385L81.2634 282.252L81.2546 282.226L81.2468 282.2L79.3786 276.225C77.7141 270.903 78.8844 265.1 82.4821 260.84L82.6823 260.592C84.5042 258.221 84.5673 254.932 82.8396 252.492L82.6159 252.192H82.615L82.1999 251.661V251.662C78.7955 247.313 77.6894 241.591 79.2273 236.286L81.2185 229.418L81.2927 229.186ZM86.53 228.109C85.0783 227.689 83.5603 228.524 83.1394 229.976L81.1482 236.843L81.0271 237.283C79.8517 241.845 80.8609 246.706 83.7751 250.429L84.2175 250.994L84.4509 251.307C86.7111 254.47 86.6319 258.75 84.2556 261.827L84.0105 262.131C80.8541 265.868 79.8264 270.959 81.2868 275.628L83.156 281.603L83.2019 281.736C83.6724 283.01 85.0064 283.741 86.323 283.467L86.5857 283.398C87.8958 282.988 88.6787 281.684 88.4734 280.367L88.4187 280.104L88.3796 279.969L86.5114 273.993C85.6384 271.202 86.2061 268.166 88.0134 265.882L88.1921 265.663L88.3943 265.418C92.3722 260.493 92.622 253.555 89.0749 248.368L88.7194 247.871L88.5271 247.619L88.0857 247.055C86.2223 244.674 85.5775 241.566 86.3288 238.649L86.406 238.367L88.3972 231.5C88.7917 230.139 88.0819 228.719 86.7956 228.2L86.53 228.109Z" fill="black"/>
<path d="M178.134 232.983C178.134 228.615 181.675 225.073 186.044 225.073H240.62C244.988 225.073 248.529 228.615 248.529 232.983V327.107C248.529 335.844 241.447 342.927 232.71 342.927H186.044C181.675 342.927 178.134 339.385 178.134 335.017V232.983Z" fill="#E6EAEF"/>
<path d="M248.529 327.107V232.983C248.529 228.751 245.206 225.295 241.027 225.083L240.62 225.073V219.537C248.046 219.537 254.066 225.557 254.066 232.983V327.107C254.066 338.902 244.505 348.463 232.71 348.463H186.044C178.617 348.463 172.597 342.443 172.597 335.017V232.983C172.597 225.557 178.617 219.537 186.044 219.537V225.073L185.637 225.083C181.457 225.295 178.134 228.751 178.134 232.983V335.017L178.144 335.424C178.349 339.468 181.592 342.711 185.637 342.917L186.044 342.927H232.71L233.119 342.921C241.531 342.708 248.311 335.928 248.524 327.516L248.529 327.107ZM240.62 219.537V225.073H186.044V219.537H240.62Z" fill="black"/>
<path d="M182.089 236.938C182.089 232.569 185.63 229.028 189.998 229.028H236.665C241.033 229.028 244.575 232.569 244.575 236.938V278.068C244.575 282.436 241.033 285.977 236.665 285.977H189.998C185.63 285.977 182.089 282.436 182.089 278.068V236.938Z" fill="#A5D6A7"/>
<path d="M190.089 277.977H236.575V237.028H190.089V277.977ZM244.575 278.067L244.564 278.475C244.36 282.519 241.117 285.762 237.072 285.967L236.665 285.977H189.998L189.592 285.967C185.547 285.762 182.304 282.519 182.1 278.475L182.089 278.067V236.937C182.089 232.706 185.413 229.251 189.592 229.039L189.998 229.028H236.665L237.072 229.039C241.251 229.251 244.575 232.706 244.575 236.937V278.067Z" fill="#313A3F"/>
<path d="M239.829 302.588C239.829 304.772 238.058 306.542 235.874 306.542C233.69 306.542 231.919 304.772 231.919 302.588C231.919 300.403 233.69 298.633 235.874 298.633C238.058 298.633 239.829 300.403 239.829 302.588Z" fill="#C73D70"/>
<path d="M239.829 302.588C239.829 300.403 238.058 298.633 235.874 298.633C233.69 298.633 231.919 300.403 231.919 302.588C231.919 304.772 233.69 306.542 235.874 306.542C238.058 306.542 239.829 304.772 239.829 302.588ZM242.202 302.588C242.202 306.082 239.369 308.915 235.874 308.915C232.379 308.915 229.546 306.082 229.546 302.588C229.546 299.093 232.379 296.26 235.874 296.26C239.369 296.26 242.202 299.093 242.202 302.588Z" fill="black"/>
<path d="M229.546 315.243C229.546 317.427 227.776 319.198 225.592 319.198C223.407 319.198 221.637 317.427 221.637 315.243C221.637 313.059 223.407 311.288 225.592 311.288C227.776 311.288 229.546 313.059 229.546 315.243Z" fill="#C73D70"/>
<path d="M229.546 315.243C229.546 313.059 227.776 311.288 225.592 311.288C223.407 311.288 221.637 313.059 221.637 315.243C221.637 317.427 223.407 319.198 225.592 319.198C227.776 319.198 229.546 317.427 229.546 315.243ZM231.919 315.243C231.919 318.738 229.086 321.571 225.592 321.571C222.097 321.571 219.264 318.738 219.264 315.243C219.264 311.748 222.097 308.915 225.592 308.915C229.086 308.915 231.919 311.748 231.919 315.243Z" fill="black"/>
<path d="M189.682 298.26C189.682 297.155 190.577 296.26 191.682 296.26H197.806C198.911 296.26 199.806 297.155 199.806 298.26V319.571C199.806 320.675 198.911 321.571 197.806 321.571H191.682C190.577 321.571 189.682 320.675 189.682 319.571V298.26Z" fill="black"/>
<path d="M205.4 303.853C206.504 303.853 207.4 304.749 207.4 305.853V311.977C207.4 313.082 206.504 313.977 205.4 313.977L184.089 313.977C182.984 313.977 182.089 313.082 182.089 311.977L182.089 305.853C182.089 304.749 182.984 303.853 184.089 303.853L205.4 303.853Z" fill="black"/>
<path d="M211.306 327.059L211.396 326.978C211.862 326.598 212.55 326.625 212.984 327.059C213.419 327.494 213.446 328.181 213.066 328.647L212.984 328.737L207.447 334.274C206.984 334.737 206.233 334.737 205.77 334.274C205.306 333.811 205.306 333.059 205.77 332.596L211.306 327.059Z" fill="#515A67"/>
<path d="M219.216 327.059L219.306 326.978C219.772 326.598 220.459 326.625 220.894 327.059C221.328 327.494 221.355 328.181 220.975 328.647L220.894 328.737L215.357 334.274C214.894 334.737 214.143 334.737 213.679 334.274C213.216 333.811 213.216 333.059 213.679 332.596L219.216 327.059Z" fill="#515A67"/>
<defs>
<filter id="filter0_d_4026_6" x="8" y="0.000343323" width="263.238" height="363.463" filterUnits="userSpaceOnUse" color-interpolation-filters="sRGB">
<feFlood flood-opacity="0" result="BackgroundImageFix"/>
<feColorMatrix in="SourceAlpha" type="matrix" values="0 0 0 0 0 0 0 0 0 0 0 0 0 0 0 0 0 0 127 0" result="hardAlpha"/>
<feOffset dy="4"/>
<feGaussianBlur stdDeviation="2"/>
<feComposite in2="hardAlpha" operator="out"/>
<feColorMatrix type="matrix" values="0 0 0 0 0 0 0 0 0 0 0 0 0 0 0 0 0 0 0.25 0"/>
<feBlend mode="normal" in2="BackgroundImageFix" result="effect1_dropShadow_4026_6"/>
<feBlend mode="normal" in="SourceGraphic" in2="effect1_dropShadow_4026_6" result="shape"/>
</filter>
<filter id="filter1_d_4026_6" x="31.0605" y="132.5" width="220.346" height="76.3066" filterUnits="userSpaceOnUse" color-interpolation-filters="sRGB">
<feFlood flood-opacity="0" result="BackgroundImageFix"/>
<feColorMatrix in="SourceAlpha" type="matrix" values="0 0 0 0 0 0 0 0 0 0 0 0 0 0 0 0 0 0 127 0" result="hardAlpha"/>
<feOffset dy="4"/>
<feGaussianBlur stdDeviation="2"/>
<feComposite in2="hardAlpha" operator="out"/>
<feColorMatrix type="matrix" values="0 0 0 0 0 0 0 0 0 0 0 0 0 0 0 0 0 0 0.4 0"/>
<feBlend mode="normal" in2="BackgroundImageFix" result="effect1_dropShadow_4026_6"/>
<feBlend mode="normal" in="SourceGraphic" in2="effect1_dropShadow_4026_6" result="shape"/>
</filter>
<linearGradient id="paint0_linear_4026_6" x1="186.833" y1="154.5" x2="186.833" y2="188.956" gradientUnits="userSpaceOnUse">
<stop stop-color="#283A99"/>
<stop offset="1" stop-color="#4361FF"/>
</linearGradient>
<linearGradient id="paint1_linear_4026_6" x1="106.333" y1="154.5" x2="106.333" y2="188.956" gradientUnits="userSpaceOnUse">
<stop stop-color="#283A99"/>
<stop offset="1" stop-color="#4361FF"/>
</linearGradient>
<linearGradient id="paint2_linear_4026_6" x1="141.233" y1="132.5" x2="141.233" y2="200.807" gradientUnits="userSpaceOnUse">
<stop stop-color="#1E2225"/>
<stop offset="1" stop-color="#565B52"/>
</linearGradient>
</defs>
</svg>
